<svg
  width="377"
  height="827"
  viewBox="0 0 377 827"
  fill="none"
  xmlns="http://www.w3.org/2000/svg"
>
  <path
    fill-rule="evenodd"
    clip-rule="evenodd"
    fill="black"
    d="M194.471 1.70974C196.889 2.55174 199.801 3.8946 200.943 4.6946C202.085 5.4946 203.626 6.14968 204.366 6.14968C205.645 6.14968 213.353 10.9767 216.573 13.7937C231.352 26.7237 234.376 27.3176 241.629 18.7166C244.621 15.1676 247.632 12.2388 248.319 12.2078C249.007 12.1758 249.569 11.7967 249.569 11.3657C249.569 8.76475 255.38 7.18866 259.924 8.55666C264.29 9.87066 273.566 17.6168 273.566 19.9488C273.566 20.4748 274.212 21.4407 275.002 22.0967C275.791 22.7517 276.742 24.7198 277.116 26.4688C277.49 28.2188 278.279 30.2487 278.87 30.9807C279.461 31.7127 280.285 34.4127 280.702 36.9807C281.119 39.5487 282.188 44.7997 283.076 48.6497C286.499 63.4807 286.894 68.2637 286.915 95.1497C286.934 120.056 286.238 130.232 283.99 137.9C283.164 140.723 287.905 141.029 295.022 138.612C298.138 137.554 302.437 137.164 308.805 137.362C318.06 137.65 318.06 137.65 318.372 142.002C318.567 144.71 318.152 146.977 317.274 148.002C316.499 148.908 315.567 150.325 315.202 151.15C311.406 159.739 292.153 181.524 281.315 189.494C277.635 192.2 277.565 192.376 277.541 198.95C277.528 202.634 277.11 207.406 276.613 209.552C273.906 221.224 274.133 228.471 277.184 227.798C288.524 225.296 293.64 225.811 296.195 229.711C298.233 232.821 296.688 239.477 293.538 241.163C287.501 244.395 288.15 248.597 295.901 256.461C296.911 257.486 298.367 259.83 299.135 261.669C299.903 263.508 300.989 265.296 301.547 265.641C302.105 265.986 302.562 268.839 302.562 271.982C302.562 276.959 303.311 279.179 308.361 289.173C314.185 300.7 317.007 307.65 318.496 314.15C318.937 316.075 320.029 319 320.923 320.65C321.816 322.3 322.55 324.362 322.554 325.233C322.557 326.104 322.897 327.154 323.309 327.566C323.721 327.978 324.572 330.416 325.201 332.983C326.445 338.061 328.314 343.627 329.715 346.422C330.204 347.396 330.879 350.204 331.216 352.661C331.552 355.118 332.441 357.638 333.192 358.262C334.039 358.964 334.558 361.452 334.558 364.804C334.558 367.779 335.233 371.829 336.058 373.803C336.883 375.778 337.566 379.252 337.575 381.522C337.585 383.792 338.26 388.8 339.075 392.65C339.891 396.499 340.557 401.355 340.557 403.439C340.557 405.524 341.458 408.994 342.557 411.15C344.457 414.875 344.559 417.082 344.592 455.36C344.621 488.404 344.885 496.1 346.057 498.15C346.843 499.525 347.501 502.237 347.521 504.177C347.54 506.118 348.175 508.593 348.931 509.677C349.687 510.762 350.638 513.675 351.044 516.15C351.45 518.625 352.13 521.1 352.556 521.65C352.982 522.2 353.645 524.56 354.03 526.895C354.415 529.229 355.109 531.374 355.573 531.661C356.036 531.947 356.732 534.762 357.12 537.916C357.508 541.07 358.439 544.538 359.19 545.623C359.941 546.707 360.555 548.565 360.555 549.75C360.555 550.936 361.23 553.521 362.055 555.496C362.88 557.47 363.569 560.337 363.587 561.867C363.604 563.397 364.279 565.524 365.087 566.591C365.894 567.659 366.571 569.909 366.59 571.591C366.61 573.274 367.268 575.775 368.054 577.15C368.84 578.525 369.499 581.353 369.519 583.435C369.538 585.517 370.193 588.217 370.975 589.435C371.757 590.653 372.71 593.9 373.091 596.65C373.473 599.4 374.407 604.107 375.168 607.11C378.159 618.903 377.075 637.214 372.866 645.975C369.07 653.881 356.145 667.237 350.011 669.593C347.647 670.502 347.556 670.878 347.556 679.906C347.556 689.554 346.456 693.201 340.675 702.705C337.175 708.458 337.135 709.961 340.395 713.296C344.16 717.147 345.003 720.387 343.164 723.943C342.374 725.47 341.427 728.328 341.058 730.295C340.403 733.784 334.969 740.15 332.644 740.15C332.047 740.15 331.559 740.84 331.559 741.683C331.559 744.232 326.885 752.549 324.552 754.15C323.351 754.975 321.661 756.149 320.797 756.759C319.207 757.88 317.107 764.088 315.657 771.948C315.22 774.312 314.345 776.766 313.712 777.399C313.079 778.032 312.561 781.428 312.561 784.946C312.561 788.627 311.948 792.468 311.118 793.996C310.325 795.456 309.402 798.675 309.069 801.15C306.56 819.813 268.53 818.198 258.073 798.984C254.663 792.716 254.052 778.154 257.021 773.914C257.872 772.699 258.568 770.412 258.568 768.832C258.568 767.252 259.175 764.763 259.916 763.303C264.48 754.317 264.978 752.715 264.769 747.703C264.648 744.815 265.176 740.676 265.942 738.504C267.148 735.084 267.137 734.292 265.865 732.602C260.896 725.999 265.944 710.212 275.442 702.65C282.641 696.918 282.285 695.453 273.816 695.957C270.104 696.179 266.638 696.763 266.116 697.255C265.594 697.747 262.219 698.169 258.617 698.193C255.015 698.217 246.894 698.971 240.57 699.87C226.044 701.933 175.777 702.803 171.139 701.071C169.456 700.443 161.026 699.694 152.404 699.409C136.73 698.89 136.73 698.891 135.607 703.062C134.069 708.773 135.831 713.558 141.346 718.65C147.72 724.534 148.45 733.588 143.066 739.987C140.68 742.822 140.637 743.196 140.998 757.766C141.392 773.613 140.165 786.39 137.941 789.623C137.194 790.707 136.583 792.859 136.583 794.404C136.583 795.978 135.924 797.466 135.083 797.788C134.24 798.112 133.583 799.6 133.583 801.186C133.583 802.737 133.022 804.602 132.334 805.329C131.647 806.055 129.758 808.603 128.136 810.989C124.275 816.673 116.856 823.148 114.195 823.156C113.035 823.16 110.797 823.835 109.222 824.656C103.405 827.69 91.2256 826.696 88.0549 822.927C85.3073 819.662 84.9583 798.094 87.574 793.166C88.0159 792.332 88.7053 787.706 89.1033 782.885C89.5022 778.064 90.2238 773.874 90.7088 773.575C92.5505 772.436 91.6986 764.279 89.6209 763.167C86.0053 761.232 82.5896 757.442 82.5896 755.365C82.5896 754.236 81.9648 752.038 81.2009 750.481C76.8465 741.605 75.5724 733.352 77.9881 729.666C79.7608 726.96 80.1137 722.075 78.6419 720.6C78.1209 720.077 76.6093 717.608 75.2835 715.112C71.5349 708.057 70.2293 705.963 68.3416 703.984C66.9807 702.558 66.5916 700.413 66.5916 694.342C66.5916 685.96 64.0272 683.15 56.3792 683.15C54.9823 683.15 53.2784 682.475 52.5935 681.65C51.9086 680.825 50.2009 680.15 48.7981 680.15C43.9127 680.15 30.3965 672.366 26.5969 667.365C20.8617 659.817 18.2366 657.341 15.5979 656.986C13.3532 656.684 13.1235 656.241 13.3474 652.65C13.6564 647.706 13.6545 647.61 12.9866 631.412C12.5386 620.56 12.7245 617.603 14.0193 615.008C15.2022 612.636 15.5979 608.74 15.5979 599.464C15.5979 590.925 16.0468 586.012 17.0447 583.623C17.8406 581.718 18.5751 577.12 18.6751 573.405C18.7761 569.69 19.4687 564.85 20.2136 562.65C22.2004 556.784 21.9496 555.901 17.5261 553.171C15.3174 551.807 12.2918 549.522 10.804 548.094C9.31616 546.666 7.30512 545.207 6.33424 544.85C4.20051 544.066 2.59987 540.178 2.59987 535.784C2.59987 534.005 2.03778 531.988 1.34987 531.3C-0.416911 529.533 -0.427142 493.093 1.33864 490.965C2.06855 490.084 2.79377 485.014 3.10573 478.594C3.39669 472.61 4.07651 467.273 4.61745 466.732C5.15738 466.192 5.60036 463.026 5.60036 459.699C5.60136 456.371 6.31161 449.825 7.17751 445.15C8.0444 440.475 9.07789 433.95 9.47584 430.65C9.87379 427.35 10.7564 423.635 11.4363 422.394C12.1172 421.154 12.9495 417.202 13.2844 413.612C13.6194 410.023 14.2774 406.849 14.7464 406.559C15.2143 406.269 15.5979 404.911 15.5979 403.541C15.5979 402.171 16.2099 399.836 16.9578 398.35C17.7057 396.865 18.6058 392.771 18.9578 389.252C19.3097 385.734 20.0142 382.352 20.5242 381.738C21.0331 381.124 21.9024 377.703 22.4544 374.136C23.7142 365.994 25.4397 359.423 27.2185 355.996C27.9764 354.536 28.5965 352.189 28.5965 350.78C28.5965 349.371 29.2464 346.74 30.0403 344.934C30.8352 343.128 31.7552 339.963 32.0862 337.9C32.4162 335.838 33.116 334.15 33.6409 334.15C34.1658 334.15 34.6041 333.362 34.6131 332.4C34.6221 331.438 36.1968 327.5 38.1116 323.65C40.0263 319.8 41.593 316.109 41.594 315.449C41.595 314.789 42.1965 313.889 42.9334 313.449C43.6693 313.009 46.1261 308.825 48.3928 304.15C50.6596 299.475 54.1234 293.175 56.0891 290.15C59.1417 285.453 59.5714 284.097 59.0335 280.86C58.4125 277.125 60.3592 271.03 62.6189 269.633C63.9647 268.801 63.8409 264.799 62.4241 263.382C61.0663 262.024 58.7811 256.173 57.6463 251.15C57.2113 249.225 56.1241 246.3 55.2302 244.65C54.3364 243 53.6034 241.138 53.5994 240.513C53.5964 239.889 52.9213 238.089 52.0994 236.513C51.2785 234.938 50.6034 232.917 50.5994 232.022C50.5964 231.127 49.9189 228.778 49.094 226.803C48.1001 224.425 47.594 219.842 47.594 213.223C47.594 201.508 46.0594 197.395 40.5071 194.241C36.8626 192.171 27.5965 182.942 27.5965 181.381C27.5965 180.912 26.7457 179.614 25.7058 178.497C23.4211 176.045 18.5979 167.162 18.5979 165.408C18.5979 164.716 18.2 164.15 17.7151 164.15C16.3583 164.15 15.642 158.811 16.8089 157.4C17.3818 156.707 20.1279 156.134 22.9695 156.115C25.7901 156.095 29.2216 155.436 30.5965 154.65C31.9713 153.864 34.8317 153.205 36.9524 153.185C40.26 153.155 40.6941 152.901 40.0022 151.4C39.5583 150.437 39.2711 148.075 39.3631 146.15C39.456 144.225 39.9873 128.925 40.5442 112.15C41.1011 95.3747 42.0658 79.6247 42.6897 77.1497C43.3126 74.6747 44.0366 70.3088 44.2986 67.4478C44.5596 64.5868 45.4084 61.7187 46.1843 61.0747C46.9592 60.4317 47.594 58.3407 47.594 56.4287C47.594 53.2307 48.3279 50.9867 52.0984 42.6497C52.8453 40.9997 53.7245 38.7497 54.0525 37.6497C56.1902 30.4867 67.8665 25.1607 71.5911 29.6497C72.276 30.4747 73.3769 31.1497 74.0388 31.1497C74.7008 31.1497 77.9077 33.1576 81.1663 35.6116C86.2686 39.4556 87.2491 39.8637 88.242 38.5537C90.2407 35.9167 103.607 22.1497 104.168 22.1497C104.463 22.1497 106.365 20.8367 108.396 19.2327C113.568 15.1437 125.051 9.1557 127.791 9.1177C129.052 9.1007 130.958 8.4257 132.025 7.6177C133.093 6.8107 135.117 6.14658 136.524 6.14358C137.932 6.13958 140.379 5.46079 141.963 4.63479C143.693 3.73279 149.089 2.88775 155.462 2.52175C161.302 2.18575 166.754 1.52857 167.579 1.06057C170.213 -0.43243 189.67 0.0367402 194.471 1.70974ZM172.078 10.2117C168.229 10.6737 161.48 11.4797 157.08 12.0037C129.01 15.3447 101.877 31.1568 94.0232 48.7488C89.5058 58.8678 82.5896 60.6958 82.5896 51.7708C82.5896 49.5088 77.3706 43.9157 72.3762 40.8277C66.028 36.9027 62.4099 39.6318 58.6004 51.2178C57.4375 54.7548 56.0588 58.4326 55.5369 59.3906C55.0149 60.3476 54.1442 63.9476 53.6023 67.3906C53.0604 70.8326 52.1564 75.6747 51.5945 78.1497C51.0316 80.6247 50.2839 91.7776 49.9319 102.934C49.5809 114.09 48.911 123.454 48.4441 123.743C47.0283 124.618 47.3962 150.107 48.844 151.471C50.7128 153.234 61.2114 156.504 62.4802 155.719C63.2681 155.232 63.1947 154.264 62.2258 152.343C61.4789 150.862 60.6073 146.998 60.2883 143.758C59.9684 140.517 59.2316 137.389 58.6507 136.808C54.4492 132.606 58.8937 99.1497 63.6521 99.1497C66.8747 99.1497 70.0013 106.877 68.5545 111.263C67.8465 113.406 67.5556 115.447 67.9065 115.798C68.5804 116.472 69.0371 115.412 70.0349 110.866C71.4108 104.6 79.2697 104.643 78.1199 110.91C77.7419 112.967 77.1286 121.625 76.7566 130.15C76.3837 138.675 75.7375 146.18 75.3206 146.827C73.4988 149.656 72.1593 204.315 73.7581 210.572C74.8569 214.869 76.5465 213.939 76.5755 209.022C76.5835 207.577 77.2652 205.835 78.0901 205.15C78.915 204.465 79.593 202.948 79.596 201.778C79.6 200.607 80.2751 198.361 81.096 196.786C81.9179 195.21 82.5896 192.652 82.5896 191.101C82.5896 189.549 83.0986 187.013 83.7205 185.465C84.9553 182.392 87.0955 171.652 88.6653 160.65C89.2142 156.8 90.3218 152.456 91.1257 150.996C91.9306 149.536 92.5886 147.678 92.5886 146.868C92.5886 146.058 93.2633 144.835 94.0882 144.15C96.2019 142.395 98.5877 144.55 98.5877 148.213C98.5877 149.764 98.9907 151.281 99.4827 151.585C100.445 152.18 101.587 149.944 101.587 147.469C101.587 146.635 102.235 144.534 103.027 142.801C103.818 141.068 105.671 135.713 107.144 130.9C110.087 121.284 112.908 119.171 115.425 124.697C117.204 128.603 116.9 130.691 113.027 141.15C109.69 150.162 111.09 152.916 116.586 148.15C117.854 147.05 119.46 146.15 120.155 146.15C120.85 146.15 121.568 145.812 121.752 145.4C122.156 144.49 128.252 140.15 129.125 140.15C129.467 140.15 131.882 137.9 134.49 135.15C137.495 131.983 140.074 130.15 141.526 130.15C144.112 130.15 161.125 113.445 165.86 106.256C168.949 101.569 171.44 101.356 174.88 105.487C180.188 111.861 190.208 121.15 191.775 121.15C192.766 121.15 193.576 121.591 193.576 122.131C193.576 122.67 194.814 123.42 196.325 123.797C197.837 124.173 199.525 125.06 200.075 125.767C202.617 129.034 218.274 128.682 221.447 125.285C226.059 120.347 231.177 123.308 236.93 134.243C244.314 148.275 246.322 149.785 245.789 140.9C245.27 132.264 246.939 129.885 251.268 133.086C254.671 135.603 255.568 142.069 255.568 164.104C255.568 169.959 256.014 175.196 256.558 175.74C258.534 177.716 258.944 185.927 257.2 188.588C254.997 191.952 254.884 200.963 257.068 199.15C257.893 198.465 258.568 197.427 258.568 196.843C258.568 195.818 261.642 188.626 263.724 184.777C264.312 183.69 264.934 170.268 265.206 152.777C265.705 120.753 266.112 118.15 270.614 118.15C273.341 118.15 274.538 121.759 274.697 130.465C274.828 137.65 274.828 137.65 275.55 132.042C275.947 128.958 276.585 125.929 276.967 125.31C278.462 122.89 277.677 64.9307 276.078 59.7407C275.246 57.0407 274.563 53.2157 274.56 51.2407C274.556 49.2657 273.881 46.3607 273.06 44.7857C272.238 43.2097 271.566 40.8458 271.566 39.5318C271.566 38.2178 270.666 35.4637 269.566 33.4107C268.466 31.3587 267.567 29.0996 267.567 28.3916C267.567 26.4396 259.544 18.1497 257.656 18.1497C254.134 18.1497 241.787 32.9667 243.708 34.8877C244.262 35.4417 244.57 37.4147 244.393 39.2727C243.928 44.1297 239.01 44.6496 235.296 40.2346C233.897 38.5726 230.957 36.2756 228.761 35.1316C226.567 33.9876 222.334 30.9356 219.356 28.3506C200.698 12.1556 190.02 8.05969 172.078 10.2117ZM258.461 53.6926C259.611 55.6416 260.85 58.4247 261.214 59.8767C261.579 61.3287 262.479 63.6718 263.215 65.0828C263.952 66.4948 264.557 68.8316 264.561 70.2776C264.564 71.7226 265.242 73.4647 266.067 74.1497C266.892 74.8347 267.567 76.5896 267.567 78.0496C267.567 79.5096 268.258 81.6917 269.104 82.8987C271.805 86.7577 270.765 104.551 267.813 104.97C266.563 105.148 265.399 104.702 265.202 103.97C265.006 103.244 264.106 100.4 263.201 97.6497C262.297 94.8997 261.545 91.2997 261.53 89.6497C261.515 87.9997 260.843 85.7758 260.035 84.7088C259.229 83.6408 258.568 81.8147 258.568 80.6497C258.568 79.4847 257.907 77.6586 257.1 76.5906C256.292 75.5236 255.602 73.5247 255.566 72.1497C255.53 70.7747 254.631 67.8497 253.568 65.6497C252.505 63.4497 251.622 60.8888 251.603 59.9588C251.584 59.0288 251.119 57.9897 250.569 57.6497C249.137 56.7647 249.332 51.4118 250.819 50.8118C254.224 49.4378 256.444 50.2746 258.461 53.6926ZM81.3982 64.8347C81.6102 67.0147 80.2693 71.0346 77.1487 77.5806C74.642 82.8396 72.5911 87.9828 72.5911 89.0108C72.5911 93.7228 65.6408 98.3246 64.199 94.5676C61.1314 86.5736 71.8848 60.7496 78.03 61.3506C80.6617 61.6076 81.1332 62.0957 81.3982 64.8347ZM232.819 73.3997C234.693 74.8367 241.57 84.9156 241.57 86.2246C241.57 86.7056 243.145 90.0166 245.07 93.5816C246.994 97.1466 248.569 101.061 248.569 102.278C248.569 103.496 249.278 105.276 250.144 106.233C252.192 108.496 252.5 118.322 250.595 120.617C247.161 124.756 242.608 120.884 242.585 113.804C242.577 111.139 241.919 107.764 241.124 106.304C240.329 104.844 238.902 101.85 237.953 99.6497C235.178 93.2187 228.561 82.3597 227.065 81.7857C224.33 80.7357 222.336 76.4596 223.536 74.2166C224.812 71.8336 230.162 71.3627 232.819 73.3997ZM114.363 75.7066C117.16 77.6656 117.145 78.7978 114.249 84.2508C112.963 86.6698 111.644 89.7747 111.316 91.1497C108.527 102.868 105.871 106.443 101.639 104.178C99.4382 103 98.6769 96.8307 100.588 95.6497C101.138 95.3097 101.587 93.7948 101.587 92.2818C101.587 90.7698 102.248 88.6586 103.055 87.5906C103.863 86.5236 104.538 84.9507 104.555 84.0967C104.59 82.4147 110.318 74.1497 111.45 74.1497C111.83 74.1497 113.141 74.8506 114.363 75.7066ZM134.583 87.1497C137.154 89.7207 134.98 98.1497 131.747 98.1497C131.376 98.1497 130.512 99.4147 129.827 100.962C129.143 102.509 127.773 104.646 126.783 105.712C125.795 106.778 123.924 109.542 122.627 111.854C119.324 117.741 114.768 118.449 113.142 113.328C112.509 111.333 115.169 105.15 116.659 105.15C117.169 105.15 117.585 104.246 117.585 103.14C117.585 102.035 118.485 100.36 119.585 99.4177C120.685 98.4757 121.585 96.9836 121.585 96.1016C121.585 95.2196 122.758 93.4078 124.191 92.0738C125.624 90.7408 127.187 88.6377 127.665 87.3997C128.75 84.5927 131.913 84.4787 134.583 87.1497ZM168.295 119.46C167.463 120.731 163.595 124.893 159.699 128.71C152.813 135.458 152.615 135.788 152.583 140.65C152.537 147.623 152.199 147.882 142.582 148.307C134.612 148.66 133.715 148.931 128.171 152.667C124.92 154.857 120.42 157.879 118.172 159.381C115.924 160.884 111.949 162.832 109.336 163.712C106.724 164.591 104.587 165.86 104.587 166.533C104.587 167.206 102.618 171.783 100.212 176.704C89.62 198.358 89.3426 199.032 89.9895 201.611C90.5205 203.727 91.2123 204.15 94.138 204.15C96.1077 204.15 97.7938 204.699 97.9768 205.4C99.5876 211.578 102.172 218.926 103.164 220.15C103.833 220.975 104.539 222.494 104.734 223.526C104.982 224.844 107.121 226.087 111.928 227.704C115.691 228.971 119.551 230.714 120.506 231.578C122.888 233.735 125.854 233.549 127.352 231.15C128.039 230.05 129.428 229.15 130.439 229.15C131.45 229.15 133.629 228.475 135.282 227.65C137.459 226.564 139.086 226.404 141.184 227.068C142.778 227.572 147.278 228.244 151.182 228.56C158.908 229.187 171.083 232.777 177.212 236.236C183.757 239.929 186.501 240.354 189.344 238.117C191.257 236.612 193.402 236.149 198.46 236.144C202.371 236.14 206.245 235.527 207.938 234.644C209.514 233.822 212.213 233.143 213.937 233.135C217.65 233.117 218.868 232.419 220.457 229.4C221.109 228.162 222.372 227.15 223.263 227.15C225.681 227.15 231.872 220.334 234.616 214.65C235.944 211.9 238.074 208.228 239.348 206.492C240.623 204.756 241.932 201.606 242.257 199.492C243.036 194.426 244.138 192.422 246.568 191.65C249.081 190.853 249.4 181.97 247.075 177.513C246.254 175.938 245.579 173.468 245.575 172.022C245.572 170.577 244.894 168.835 244.07 168.15C243.245 167.465 242.567 166.173 242.563 165.278C242.56 164.382 241.726 162.39 240.711 160.85C238.602 157.652 235.571 160.383 235.571 165.48C235.571 167.866 233.347 171.283 228.899 175.732C227.619 177.012 226.572 178.495 226.572 179.027C226.572 182.638 213.543 182.243 209.416 178.507C194.646 165.139 201.186 153.226 223.322 153.177C237.447 153.146 237.29 153.294 232.321 144.669C229.071 139.029 229.071 139.029 224.844 139.567C221.042 140.052 216.573 142.937 216.573 144.907C216.573 145.324 214.53 146.899 212.032 148.407C203.434 153.602 198.47 151.203 197.579 141.423C197.076 135.91 197.062 135.89 191.663 133.01C185.679 129.819 178.338 124.132 174.74 119.9C171.886 116.545 170.277 116.435 168.295 119.46ZM295.685 149.054C294.927 149.534 294.632 150.452 295.029 151.095C295.426 151.738 295.494 153.288 295.18 154.54C294.62 156.773 294.084 157.037 277.315 163.356C274.687 164.347 274.566 164.693 274.566 171.19C274.566 174.928 274.293 178.698 273.959 179.568C272.904 182.317 276.283 181.359 279.842 177.9C281.682 176.112 284.283 173.725 285.625 172.595C288.649 170.048 298.718 158.64 299.969 156.344C300.476 155.412 301.2 154.425 301.577 154.15C302.359 153.58 304.562 149.569 304.562 148.716C304.562 147.812 297.202 148.092 295.685 149.054ZM154.058 160.51C158.476 163.741 155.018 187.15 150.122 187.15C149.409 187.15 148.267 187.825 147.582 188.65C144.665 192.164 131.292 188.687 127.918 183.537C126.491 181.36 125.78 181.11 122.557 181.655C116.548 182.67 111.582 180.084 111.601 175.95C111.623 171.298 112.851 169.749 115.906 170.515C117.865 171.007 118.883 170.586 120.4 168.658C127.004 160.26 147.074 155.402 154.058 160.51ZM213.574 166.449C213.574 171.016 222.629 173.619 223.842 169.4C224.119 168.438 224.669 166.862 225.066 165.9C225.705 164.346 225.103 164.15 219.679 164.15C213.974 164.15 213.574 164.3 213.574 166.449ZM30.3933 168.4C31.3292 170.188 32.659 172.009 33.346 172.449C34.0339 172.889 34.596 173.729 34.596 174.315C34.596 176.062 44.0935 184.584 48.2429 186.561C50.3607 187.569 53.3673 189.015 54.9241 189.772C62.2582 193.342 64.3909 191.916 64.4529 183.4C64.5379 171.808 65.1649 172.439 52.8054 171.678C40.9009 170.946 36.9532 169.853 36.0613 167.042C35.6273 165.677 34.5187 165.15 32.075 165.15C28.6894 165.15 28.6895 165.15 30.3933 168.4ZM136.333 169.721C130.587 172.839 134.14 178.32 142.011 178.479C147.163 178.583 150.792 172.173 146.992 169.683C144.066 167.766 139.911 167.78 136.333 169.721ZM54.9539 204.4C55.2638 206.737 55.9669 212.63 56.5169 217.494C57.2328 223.821 58.3817 228.112 60.5545 232.573C62.2252 236.002 63.5921 239.545 63.5921 240.445C63.5921 242.065 65.4791 247.005 68.1897 252.481C68.9606 254.038 69.5916 255.993 69.5916 256.826C69.5916 257.659 70.2272 259.536 71.0051 260.996C74.7307 267.99 76.5906 272.386 76.5906 274.194C76.5906 275.285 77.0245 276.959 77.5554 277.914C79.2722 281.003 82.5896 289.011 82.5896 290.064C82.5896 291.471 86.5883 299.031 87.6931 299.714C88.1861 300.019 88.5891 301.266 88.5891 302.487C88.5891 303.707 89.2167 305.602 89.9846 306.698C90.7525 307.794 91.8559 311.382 92.4358 314.671C93.0157 317.959 94.4623 325.15 95.6511 330.65C96.839 336.15 98.1555 342.9 98.5764 345.65C98.9974 348.4 99.8049 352 100.371 353.65C100.937 355.3 101.949 358.225 102.622 360.15C103.294 362.075 104.233 367.925 104.708 373.15C105.183 378.375 106.005 383.775 106.535 385.15C107.065 386.525 107.8 389.9 108.169 392.65C108.538 395.4 109.273 398.196 109.804 398.863C110.334 399.53 111.013 402.905 111.311 406.363C112.189 416.534 114.495 419.549 114.546 410.591C114.61 399.258 120.264 396.35 124.15 405.652C124.954 407.576 126.055 409.15 126.597 409.15C128.185 409.15 127.827 386.839 126.169 382.42C125.391 380.347 124.487 373.984 124.158 368.283C123.829 362.582 123.227 357.407 122.822 356.783C122.111 355.689 120.902 349.865 118.538 336.15C117.419 329.653 115.645 322.626 112.988 314.15C112.211 311.675 111.578 308.143 111.581 306.303C111.588 301.745 108.693 297.129 105.414 296.469C101.916 295.765 92.5886 287.472 92.5886 285.067C92.5886 284.037 91.3723 280.715 89.8855 277.684C87.3878 272.59 87.2602 271.738 88.1941 266.412C89.6499 258.103 89.3748 239.328 87.741 235.455C86.8261 233.288 86.504 229.188 86.741 222.705C87.1329 211.944 86.8971 211.47 84.1174 217.426C82.5696 220.743 82.1859 223.509 82.3298 230.314C82.6588 245.89 72.8457 249.984 70.1121 235.411C69.7251 233.345 68.9537 231.374 68.3977 231.03C67.8428 230.687 67.0414 227.249 66.6174 223.39C66.1945 219.531 65.5921 215.957 65.2781 215.45C64.9651 214.943 64.6 212.161 64.468 209.267C64.2401 204.276 64.034 203.905 60.4505 202.076C54.9071 199.248 54.306 199.503 54.9539 204.4ZM266.007 203.234C265.424 204.013 264.137 206.675 263.148 209.15C259.247 218.908 257.787 221.332 252.675 226.542C250.417 228.843 248.569 231.243 248.569 231.875C248.569 233.172 255.426 232.478 257.018 231.02C257.54 230.541 259.417 230.15 261.189 230.15C264.832 230.15 265.862 227.792 265.428 220.447C265.299 218.256 265.757 215.105 266.445 213.445C267.99 209.713 267.619 201.079 266.007 203.234ZM200.385 217.858C200.937 223.559 194.134 226.578 177.955 227.812C168.422 228.54 166.367 227.441 166.775 221.836C167.079 217.65 167.079 217.65 177.467 216.961C183.18 216.582 188.351 215.775 188.959 215.167C191.684 212.442 200.052 214.413 200.385 217.858ZM100.755 237.9C99.0969 241.113 98.7476 248.992 100.18 250.88C100.919 251.853 101.554 253.775 101.591 255.15C101.668 257.967 104.956 262.308 108.337 264.057C110.017 264.926 110.586 266.103 110.586 268.707C110.586 273.249 107.093 275.226 102.837 273.093C101.325 272.334 99.7506 271.55 99.3377 271.349C97.7709 270.585 98.6747 276.555 100.596 279.664C102.901 283.393 106.759 285.274 111.086 284.778C114.086 284.434 114.086 284.434 114.586 273.837C114.894 267.315 115.567 262.762 116.336 261.995C117.024 261.31 117.601 259.376 117.62 257.699C117.64 256.022 118.299 253.525 119.085 252.15C121.045 248.722 120.936 244.744 118.835 243.044C115.293 240.177 110.697 238.15 107.741 238.15C106.072 238.15 104.427 237.7 104.087 237.15C103.151 235.636 101.763 235.948 100.755 237.9ZM132.221 243.277C130.825 246.232 129.032 251.152 128.238 254.209C127.443 257.267 126.071 261.895 125.188 264.494C124.306 267.093 123.585 270.753 123.585 272.626C123.585 274.499 123.135 276.31 122.585 276.65C121.06 277.593 121.372 290.839 122.992 293.949C126.714 301.093 156.933 301.899 169.381 295.186C170.315 294.683 172.364 293.998 173.933 293.665C176.287 293.165 176.684 292.673 176.196 290.855C175.871 289.642 175.599 287.643 175.592 286.413C175.578 284.175 175.578 284.175 169.955 286.663C160.742 290.737 156.58 289.902 156.58 283.979C156.58 281.989 160.141 278.247 162.095 278.183C162.653 278.165 164.789 277.25 166.841 276.15C168.893 275.05 171.646 274.15 172.961 274.15C174.889 274.15 175.446 273.522 175.845 270.9C176.571 266.119 175.398 264.738 167.227 260.754C158.223 256.364 156.928 256.289 156.09 260.105C155.36 263.427 152.619 264.776 149.734 263.232C146.973 261.754 146.217 257.587 148.045 253.924C148.89 252.229 149.581 250.269 149.581 249.568C149.581 242.805 164.437 245.135 176.328 253.762C178.546 255.371 178.578 255.343 178.578 251.819C178.578 248.643 178.16 248.063 174.828 246.623C172.767 245.731 169.729 244.37 168.079 243.599C166.429 242.827 163.055 241.762 160.58 241.231C158.105 240.701 154.731 239.979 153.081 239.627C139.911 236.82 134.853 237.706 132.221 243.277ZM274.566 239.711C271.541 240.448 265.579 241.357 261.318 241.73C257.056 242.103 253.568 242.8 253.568 243.279C253.568 243.758 252.015 244.15 250.116 244.15C248.219 244.15 242.707 245.536 237.868 247.23C233.03 248.925 226.686 250.773 223.77 251.339C218.469 252.367 218.469 252.367 218.771 256.5C219.108 261.105 221.39 262.475 224.142 259.723C225.746 258.119 236.602 257.457 239.988 258.757C246.048 261.083 239.876 268.558 230.751 269.944C219.137 271.708 218.937 271.873 218.25 280.323C217.922 284.353 217.248 289.552 216.752 291.878C215.83 296.197 220.137 300.15 225.765 300.15C226.624 300.15 227.887 300.825 228.572 301.65C229.256 302.475 230.831 303.15 232.071 303.15C233.311 303.15 234.886 303.825 235.571 304.65C236.255 305.475 237.428 306.15 238.177 306.15C238.925 306.15 242.325 307.5 245.73 309.15C252.64 312.497 258.005 313.059 258.972 310.536C259.39 309.449 260.398 309.075 262.057 309.393C263.922 309.749 264.685 309.351 265.189 307.757C265.555 306.598 266.843 304.3 268.051 302.65C271.434 298.026 274.566 291.341 274.566 288.741C274.566 287.45 275.241 284.778 276.066 282.803C276.891 280.829 277.585 277.062 277.609 274.432C277.633 271.802 278.301 267.85 279.094 265.65C280.975 260.429 280.943 260.15 278.466 260.15C267.965 260.15 264.047 249.285 273.026 245.064C277.006 243.193 283.07 238.012 280.989 238.261C280.481 238.321 277.59 238.974 274.566 239.711ZM194.109 248.02C189.036 248.826 188.108 250.728 186.485 263.65C182.697 293.808 186.666 301.906 201.734 294.762C210.26 290.719 212.111 279.764 208.766 253.15C208.013 247.161 205.361 246.233 194.109 248.02ZM288.107 267.4C287.316 269.91 286.457 278.15 286.986 278.15C288.503 278.15 292.393 268.379 291.308 267.294C289.816 265.802 288.598 265.842 288.107 267.4ZM293.063 289.15C292.701 290.8 291.991 292.15 291.485 292.15C290.978 292.15 290.554 292.713 290.542 293.4C290.53 294.088 289.64 295.775 288.564 297.15C287.488 298.525 286.599 300.325 286.587 301.15C286.568 302.45 284.328 307.539 278.955 318.481C278.191 320.038 277.562 321.838 277.559 322.481C277.555 323.124 276.923 324.857 276.154 326.333C275.384 327.808 274.437 330.508 274.049 332.333C273.661 334.157 272.791 336.325 272.116 337.15C271.441 337.975 270.129 341.35 269.201 344.65C268.273 347.95 267.036 352 266.451 353.65C265.867 355.3 264.955 358.441 264.422 360.63C263.889 362.819 262.301 366.122 260.892 367.97C259.291 370.069 258.013 373.454 257.49 376.99C257.028 380.103 256.164 385.575 255.569 389.15C254.557 395.237 255.005 404.391 256.426 406.65C256.772 407.2 257.577 409.45 258.215 411.65C261.638 423.451 264.557 428.013 264.582 421.6C264.608 415.057 269.461 411.066 272.63 414.981C274.516 417.309 274.237 425.484 272.185 428.049C271.57 428.818 270.756 433.543 270.377 438.549C269.465 450.598 267.728 462.937 266.423 466.65C264.784 471.308 262.351 496.044 261.89 512.745C261.472 527.84 261.473 527.84 264.77 530.351C273.934 537.331 300.356 535.155 316.56 526.088C317.385 525.626 319.936 524.304 322.229 523.149C335.449 516.492 334.558 520.579 334.558 466.578C334.558 434.251 334.203 417.356 333.497 416.036C332.913 414.945 332.058 409.462 331.596 403.851C331.133 398.241 330.261 392.383 329.657 390.835C329.053 389.287 328.559 385.151 328.559 381.644C328.559 378.137 328.135 375.006 327.617 374.686C327.099 374.365 326.378 371.976 326.016 369.377C325.264 363.978 321.901 351.501 320.5 348.914C319.983 347.959 319.545 346.159 319.526 344.914C319.507 343.669 318.623 340.85 317.56 338.65C316.497 336.45 315.614 333.913 315.595 333.013C315.576 332.114 314.889 330.089 314.067 328.513C313.246 326.938 312.556 324.975 312.535 324.15C312.514 323.325 311.837 321.776 311.029 320.709C310.222 319.641 309.561 317.334 309.561 315.581C309.561 313.829 308.887 311.835 308.062 311.15C307.237 310.465 306.575 309.398 306.59 308.778C306.644 306.635 296.059 286.168 294.892 286.158C294.249 286.153 293.425 287.5 293.063 289.15ZM64.5672 295.266C63.7563 296.437 62.5893 297.923 61.9744 298.569C61.3595 299.215 60.5154 300.847 60.0984 302.197C59.6825 303.546 58.0479 306.584 56.4671 308.949C54.8863 311.314 53.5935 313.813 53.5935 314.5C53.5935 315.188 53.1743 316.177 52.6614 316.699C50.8936 318.502 41.2359 338.66 40.468 342.15C39.0252 348.707 35.5348 359.771 32.9651 365.934C32.2122 367.74 31.596 371.156 31.596 373.525C31.596 375.894 30.9266 380.041 30.1077 382.741C29.2888 385.441 28.6137 388.932 28.6077 390.499C28.6017 392.066 27.9375 394.766 27.1316 396.499C25.3798 400.267 23.7894 406.487 22.4895 414.65C21.9646 417.95 20.8731 421.843 20.0652 423.303C19.2583 424.763 18.587 428.138 18.574 430.803C18.561 433.468 18.0686 437.45 17.4817 439.65C15.8229 445.86 13.6031 462.403 12.6062 475.986C12.1083 482.771 11.2898 488.846 10.7869 489.486C8.2422 492.725 8.67178 509.482 11.4304 514.601C14.751 520.765 24.6026 527.007 31.1458 527.095C33.3725 527.125 35.7577 527.713 36.4446 528.4C38.1044 530.061 62.5963 530.098 68.0916 528.448C70.2913 527.788 73.315 526.996 74.8108 526.688C83.3397 524.929 85.7716 519.425 85.4837 502.526C85.3217 492.996 84.7125 485.342 83.9465 483.199C83.1287 480.913 82.6616 473.92 82.6336 463.553C82.5986 450.786 82.2548 446.786 80.971 444.211C78.0513 438.359 80.9286 429.15 85.677 429.15C88.2177 429.15 89.7337 436.654 91.5325 458.15C91.9234 462.825 92.3218 465.693 92.4168 464.522C92.5108 463.352 93.2633 461.835 94.0882 461.15C95.113 460.299 95.5882 458.025 95.5882 453.962C95.5882 450.693 96.1042 447.054 96.7351 445.876C97.365 444.697 98.2296 440.277 98.6555 436.054C99.0805 431.831 99.8928 427.537 100.46 426.512C103.674 420.702 104.781 417.089 103.734 415.828C103.137 415.107 102.348 411.848 101.981 408.584C101.614 405.32 100.961 402.196 100.529 401.64C100.096 401.085 99.4376 397.71 99.0657 394.14C98.6947 390.571 97.7599 385.431 96.989 382.718C96.2191 380.006 95.5882 376.054 95.5882 373.936C95.5882 371.819 94.913 368.47 94.0882 366.496C93.2633 364.521 92.5858 362.173 92.5828 361.278C92.5788 360.383 91.9464 358.443 91.1765 356.967C90.4066 355.492 89.4571 352.792 89.0662 350.967C88.6742 349.143 88.0789 347.2 87.7439 346.65C86.996 345.423 83.8105 336.739 82.6077 332.65C80.9269 326.934 78.9204 322.08 77.7586 320.918C77.1166 320.276 76.5906 318.801 76.5906 317.641C76.5906 316.481 75.9297 314.659 75.1228 313.591C74.3149 312.524 73.6403 310.724 73.6233 309.591C73.6053 308.459 72.9302 306.659 72.1233 305.591C71.3154 304.524 70.6403 302.894 70.6233 301.97C70.6053 301.047 69.9127 299.613 69.0828 298.783C68.2529 297.953 67.2283 296.343 66.8074 295.206C66.0425 293.137 66.043 293.137 64.5672 295.266ZM176.578 304.841C175.203 305.071 171.928 305.95 169.299 306.795C159.052 310.088 138.185 312.199 134.164 310.35C127.956 307.495 121.378 307.335 121.945 310.054C122.243 311.481 122.97 315.35 123.56 318.65C124.15 321.95 125.296 326.347 126.108 328.42C126.92 330.494 127.598 334.094 127.616 336.42C127.633 338.747 128.308 341.524 129.116 342.591C129.923 343.659 130.584 346.61 130.584 349.15C130.584 358.306 137.482 357.298 147.082 346.741C147.632 346.136 151.231 342.943 155.081 339.646C158.93 336.348 162.742 332.75 163.55 331.65C165.076 329.575 167.618 327.079 171.702 323.65C173.013 322.55 174.93 320.338 175.962 318.735C176.995 317.132 179.581 314.165 181.708 312.14C188.255 305.911 186.354 303.204 176.578 304.841ZM204.134 306.053C203.545 307.006 204.665 309.848 207.723 315.15C208.199 315.975 209.145 317.775 209.824 319.15C210.504 320.525 211.416 322.1 211.852 322.65C214.945 326.547 219.083 332.811 221.22 336.832C222.61 339.447 224.971 342.979 226.466 344.682C229.499 348.137 230.554 345.386 232.612 328.65C233.085 324.8 233.74 320.188 234.067 318.4C234.526 315.893 234.313 315.15 233.135 315.15C232.296 315.15 228.789 313.859 225.341 312.28C213.641 306.924 205.138 304.427 204.134 306.053ZM193.576 313.142C193.576 314.137 190.885 317.645 187 321.719C185.857 322.916 183.915 325.19 182.683 326.773C179.323 331.091 166.542 344.15 165.676 344.15C165.26 344.15 162.63 346.287 159.833 348.9C157.035 351.513 153.251 355 151.422 356.65C147.675 360.031 138.805 366.15 137.651 366.15C136.301 366.15 133.583 369.758 133.583 371.55C133.583 373.134 133.726 373.149 135.154 371.72C137.507 369.368 140.167 369.811 143.548 373.116C149.45 378.887 146.884 392.115 139.246 395.287C136.409 396.465 136.409 396.465 136.899 409.557C137.348 421.537 136.641 435.484 135.535 436.491C133.335 438.492 130.341 438.061 127.633 435.353C124.069 431.788 123.585 432.566 123.585 441.864C123.585 451.511 118.893 458.058 114.866 454.031C114.042 453.206 113.761 454.34 113.797 458.354C113.824 461.347 113.337 464.746 112.716 465.907C111.208 468.725 111.233 485.396 112.747 486.911C113.583 487.747 113.965 499.727 114.115 529.861C114.292 565.5 114.564 572.354 115.955 576.435C116.852 579.067 117.618 583.567 117.658 586.435C117.698 589.303 118.167 594.125 118.699 597.15C119.613 602.34 121.524 630.763 123.494 668.461C124.545 688.566 122.894 686.589 138.913 686.932C146.156 687.087 152.981 687.614 154.081 688.104C155.181 688.593 159.749 689.235 164.232 689.532C168.717 689.829 174.437 690.588 176.946 691.22C181.435 692.351 195.522 692.084 222.073 690.363C235.014 689.524 233.932 691.68 235.984 662.65C236.684 652.75 237.391 644.65 237.553 644.65C237.716 644.65 238.45 636.55 239.184 626.65C239.917 616.75 240.947 605.05 241.473 600.65C241.998 596.25 242.46 587.227 242.499 580.6C242.576 567.581 243.09 566.15 247.702 566.15C251.301 566.15 251.76 567.85 251.557 580.43C251.301 596.218 251.279 596.009 253.008 593.541C253.798 592.411 254.76 590.174 255.145 588.569C255.529 586.963 256.196 585.196 256.627 584.642C257.502 583.517 260.254 576.251 261.548 571.65C262.012 570 262.977 567.195 263.692 565.416C265.226 561.603 263.765 559.94 257.274 558.115C252.456 556.76 251.569 554.5 251.569 543.566C251.569 535.23 251.537 535.12 249.256 535.692C244.71 536.834 242.019 533.237 243.546 528.06C245.66 520.888 245.904 512.016 244.149 506.105C243.204 502.921 242.57 497.048 242.57 491.468C242.57 480.982 242.768 481.264 237.785 484.65C228.686 490.834 222.954 481.145 229.322 470.341C230.833 467.775 232.521 463.87 233.071 461.663C234.014 457.878 234.301 457.633 238.14 457.351C241.962 457.071 242.185 456.885 241.803 454.281C241.073 449.309 243.329 443.248 246.178 442.533C250.284 441.502 250.679 443.006 251.099 461.266C251.318 470.827 251.831 483.375 252.238 489.15C253.053 500.739 253.185 500.316 255.052 480.15C255.485 475.475 256.311 470.75 256.888 469.65C257.798 467.915 259.508 455.545 259.652 449.65C259.74 446.079 257.9 438.082 256.719 436.901C256.086 436.268 255.568 434.69 255.568 433.395C255.568 432.1 254.726 429.152 253.697 426.845C252.669 424.538 251.598 421.975 251.318 421.15C250.969 420.125 250.453 420.6 249.689 422.65C247.696 427.995 246.965 428.66 243.323 428.447C240.538 428.283 239.595 428.734 238.519 430.745C236.537 434.451 231.859 433.729 228.854 429.252C226.412 425.615 225.227 368.825 227.517 365.204C228.584 363.516 227.141 360.279 224.475 358.387C222.895 357.265 216.573 348.674 216.573 347.65C216.573 347.43 215.271 345.314 213.68 342.949C212.089 340.584 209.816 336.85 208.629 334.65C205.528 328.902 204.398 327.091 201.459 323.154C200.019 321.227 198.503 318.525 198.087 317.15C196.872 313.13 193.576 310.202 193.576 313.142ZM242.078 327.901C241.721 331.613 240.97 336 240.408 337.65C239.846 339.3 239.152 344.925 238.865 350.15C238.578 355.375 237.761 360.785 237.05 362.172C236.204 363.821 235.713 369.281 235.636 377.933C235.568 385.49 235.025 392.251 234.371 393.688C233.503 395.592 233.511 396.49 234.398 397.377C235.043 398.022 235.571 400.06 235.571 401.906C235.571 405.262 235.571 405.262 237.902 402.551C239.184 401.06 241.321 399.761 242.651 399.665C244.883 399.502 245.122 398.96 245.755 392.622C246.133 388.846 246.887 384.832 247.43 383.703C247.974 382.574 248.64 378.784 248.91 375.283C249.179 371.782 249.888 368.431 250.485 367.834C251.081 367.238 251.589 364.927 251.613 362.699C251.637 360.472 252.139 356.625 252.728 354.15C253.318 351.675 253.927 345.249 254.083 339.87C254.239 334.491 254.642 328.992 254.979 327.65C255.731 324.65 253.017 322.675 246.898 321.769C242.729 321.152 242.728 321.152 242.078 327.901ZM265.026 325.217C264.663 325.803 264.581 326.498 264.843 326.76C265.105 327.022 265.586 326.542 265.912 325.693C266.588 323.931 266.012 323.621 265.026 325.217ZM102.837 461.326C102.15 463.232 101.571 466.109 101.552 467.72C101.532 469.331 100.874 471.775 100.088 473.15C99.3018 474.525 98.6428 477.338 98.6228 479.4C98.5998 481.88 97.853 483.885 96.4182 485.32C94.3125 487.426 94.2553 488.115 94.4783 508.724C94.6313 522.845 94.3531 530.177 93.6482 530.613C93.0653 530.973 92.5858 532.704 92.5828 534.459C92.5788 536.214 91.8524 539 90.9675 540.65C89.2038 543.941 89.0039 552.739 90.6477 554.72C91.2037 555.39 91.9286 558.348 92.2605 561.294C92.5925 564.24 93.2424 567.135 93.7053 567.728C94.1683 568.321 94.9801 571.696 95.51 575.228C96.039 578.76 96.9476 583.222 97.5296 585.143C98.1115 587.065 98.5877 590.968 98.5877 593.817C98.5877 596.666 99.1018 601.225 99.7298 603.947C101.135 610.032 99.1677 613.542 93.4534 615.145C89.7868 616.174 88.6333 618.007 88.6033 622.849C88.5153 637.027 44.9017 635.216 44.6267 621.022C44.6087 620.127 43.9194 618.835 43.0945 618.15C42.2696 617.465 41.5921 615.948 41.5891 614.778C41.5851 613.607 40.9266 611.393 40.1257 609.858C39.3248 608.322 38.3644 605.397 37.9915 603.358C37.6175 601.318 36.7003 598.762 35.9534 597.677C35.2065 596.593 34.596 594.267 34.596 592.51C34.596 590.753 34.153 589.167 33.6111 588.983C33.0692 588.8 32.246 586.625 31.781 584.15C30.7082 578.433 27.6985 572.442 27.6365 575.9C27.5785 579.134 27.5098 579.442 26.3689 581.576C24.6811 584.729 23.3795 601.206 22.9246 625.178C22.4966 647.707 22.4962 647.708 29.6863 655.976C33.6408 660.524 38.1111 664.883 39.6209 665.663C44.1773 668.02 62.7365 674.15 65.3142 674.15C66.6391 674.15 68.5936 674.616 69.6575 675.186C71.5073 676.175 83.9008 678.75 101.088 681.714C105.487 682.473 110.324 683.384 111.836 683.738C115.095 684.502 116.2 648.599 113.086 643.15C111.992 641.236 111.649 636.285 111.621 622.022C111.594 607.338 111.291 603.15 110.191 602.237C109.239 601.447 108.758 598.626 108.678 593.364C108.614 589.121 108.083 582.725 107.497 579.15C106.588 573.604 105.524 537.635 104.364 473.256C104.118 459.565 103.949 458.244 102.837 461.326ZM140.146 469.219C146.709 476.079 141.824 491.15 133.037 491.15C123.677 491.15 122.428 475.488 131.227 468.446C135.016 465.414 136.639 465.554 140.146 469.219ZM342.557 531.028C342.557 537.894 340.477 545.15 338.508 545.15C336.207 545.15 325.559 557.221 325.559 559.828C325.559 561.26 324.701 564.28 323.651 566.54C319.773 574.892 318.56 577.991 318.56 579.548C318.56 580.426 317.211 584.002 315.561 587.494C313.911 590.986 312.547 594.7 312.53 595.747C312.486 598.425 308.749 605.674 304.053 612.185C301.859 615.23 299.613 618.419 299.063 619.273C291.63 630.815 290.077 631.669 276.657 631.581C262.034 631.485 259.67 630.358 257.151 622.29C255.032 615.506 248.65 612.63 248.517 618.4C248.287 628.424 247.525 636.364 246.633 638.03C246.002 639.21 245.57 646.869 245.57 656.862C245.57 670.392 245.267 674.136 244.033 675.898C241.733 679.183 242.57 687.721 245.166 687.451C246.213 687.342 251.119 687.195 256.068 687.122C261.017 687.049 266.777 686.552 268.867 686.017C270.958 685.483 274.306 684.836 276.309 684.579C278.311 684.323 280.649 683.49 281.507 682.729C282.424 681.914 285.119 681.377 288.064 681.424C293.418 681.509 303.195 678.62 313.223 673.992C316.611 672.428 319.859 671.15 320.441 671.15C321.513 671.15 326.395 668.918 334.558 664.698C337.033 663.419 340.408 662.076 342.057 661.714C345.962 660.856 361.934 646.693 364.758 641.584C367.673 636.309 367.987 613.001 365.264 603.996C364.324 600.886 363.54 596.611 363.522 594.496C363.505 592.381 362.831 589.776 362.023 588.709C361.216 587.641 360.541 585.616 360.523 584.209C360.506 582.801 359.831 580.776 359.023 579.709C358.216 578.641 357.541 576.391 357.523 574.709C357.506 573.026 356.831 570.776 356.023 569.709C355.216 568.641 354.556 566.268 354.556 564.434C354.556 562.6 353.656 558.538 352.556 555.409C351.456 552.279 350.556 548.781 350.556 547.635C350.556 546.488 350.091 545.085 349.522 544.516C348.953 543.947 348.069 541.27 347.556 538.566C344.686 523.421 342.557 520.212 342.557 531.028ZM9.59889 529.082C9.59889 529.786 10.9486 532.067 12.5984 534.15C14.2482 536.233 15.5979 538.33 15.5979 538.81C15.5979 539.29 17.7348 541.06 20.3474 542.745C35.3336 552.411 70.3835 552.58 76.7937 543.018C77.6666 541.716 79.3733 539.608 80.5862 538.334C83.3599 535.42 82.8227 534.798 79.1692 536.693C73.193 539.794 53.6367 542.447 45.9646 541.199C25.0392 537.793 18.3796 535.567 11.8484 529.791C10.3896 528.501 9.59889 528.251 9.59889 529.082ZM324.059 534.186C308.417 542.677 305.97 543.402 287.064 545.146C274.463 546.308 268.122 545.732 264.807 543.124C261.967 540.889 260.612 541.748 260.583 545.801C260.567 548.147 266.242 552.15 269.584 552.15C270.631 552.15 272.343 553.067 273.386 554.188C276.841 557.896 289.379 559.367 299.563 557.26C313.02 554.476 332.558 540.288 332.558 533.299C332.558 529.491 332.745 529.471 324.059 534.186ZM231.676 546.206C235.814 548.421 238.991 557.89 237.046 562.206C233.73 569.559 230.512 571.151 224.408 568.458C220.572 566.765 220.573 566.765 220.573 560.454C220.573 549.651 225.735 543.026 231.676 546.206ZM76.3176 556.15C74.9198 557.25 72.2716 558.164 70.4329 558.182C68.5951 558.199 66.218 558.874 65.1511 559.682C62.4015 561.762 41.9217 561.711 39.1541 559.617C34.8176 556.337 32.5418 561.975 35.9973 567.435C36.7682 568.653 37.7206 571.225 38.1126 573.15C38.5055 575.075 39.173 577.1 39.5969 577.65C40.0219 578.2 40.6908 580.599 41.0838 582.982C41.4767 585.364 42.4248 588.514 43.1907 589.982C43.9556 591.449 44.5994 593.775 44.6204 595.15C44.6414 596.525 45.3188 598.524 46.1267 599.591C46.9336 600.659 47.594 602.476 47.594 603.63C47.594 604.783 48.4182 607.285 49.426 609.189C55.5023 620.67 56.4753 621.281 68.8538 621.376C78.4746 621.45 79.5901 621.042 79.5901 617.459C79.5901 613.82 83.0537 608.664 87.1052 606.273C90.0219 604.552 90.4796 603.804 90.0657 601.443C89.7957 599.907 89.1572 595.275 88.6472 591.15C87.4344 581.35 85.7665 572.735 84.0017 567.15C83.2198 564.675 82.5817 560.737 82.5847 558.4C82.5907 553.462 80.6301 552.758 76.3176 556.15ZM140.183 557.55C147.043 564.411 144.019 577.15 135.532 577.15C128.629 577.15 125.568 568.047 129.718 559.86C133.202 552.986 135.183 552.549 140.183 557.55ZM308.712 566.4C307.834 567.279 302.143 567.753 289.542 567.997C271.62 568.343 271.62 568.343 271.005 571.997C270.667 574.006 269.756 577.068 268.979 578.801C268.202 580.534 267.567 582.841 267.567 583.928C267.567 585.015 266.948 586.419 266.192 587.046C265.435 587.674 264.542 589.907 264.206 592.009C263.869 594.111 262.42 597.562 260.982 599.68C258.308 603.621 258.69 605.024 262.81 606.398C263.337 606.573 264.288 609.627 264.924 613.184C266.079 619.65 266.079 619.65 276.072 619.915C286.064 620.181 286.065 620.18 291.472 613.22C296.827 606.327 306.546 588.16 306.556 585.022C306.559 584.127 307.237 582.835 308.062 582.15C308.887 581.465 309.577 579.498 309.596 577.778C309.616 576.057 310.275 573.525 311.061 572.15C313.888 567.204 312.153 562.956 308.712 566.4ZM330.575 678.207C328.658 679.276 326.584 680.15 325.965 680.15C325.347 680.15 322.312 681.5 319.22 683.15C316.129 684.8 312.78 686.15 311.781 686.15C310.781 686.15 309.533 686.565 309.011 687.071C307.62 688.421 296.024 692.15 293.22 692.15C290.495 692.15 289.564 694.935 289.564 703.088C289.564 706.962 289.058 708.261 286.645 710.572C285.039 712.111 283.457 714.445 283.127 715.76C282.797 717.074 282.085 718.15 281.546 718.15C278.696 718.15 280.927 722.144 284.814 724.003C296.758 729.713 316.695 727.504 319.957 720.11C320.928 717.91 323.261 713.823 325.14 711.029C327.021 708.235 328.559 705.346 328.559 704.609C328.559 703.871 328.984 703.005 329.503 702.684C332.243 700.99 338.558 685.985 338.558 681.166C338.558 675.346 336.844 674.712 330.575 678.207ZM76.3406 689.707C75.9276 690.134 75.5906 691.888 75.5906 693.605C75.5906 696.638 76.5054 698.754 81.8767 708.15C83.2925 710.625 85.4213 714.427 86.6072 716.599C87.794 718.772 90.9744 722.657 93.676 725.234C96.3777 727.811 98.5877 730.668 98.5877 731.583C98.5877 736.125 110.201 738.296 116.337 734.9C126.749 729.137 127.058 728.507 127.312 712.529C127.574 696.005 128.049 696.83 117.585 695.641C114.011 695.235 110.198 694.283 109.113 693.526C107.965 692.725 104.602 692.15 101.065 692.15C97.7231 692.15 94.5579 691.72 94.032 691.194C92.8122 689.974 77.3385 688.673 76.3406 689.707ZM331.559 722.247C331.559 726.689 326.976 730.879 317.201 735.375C312.639 737.473 294.828 737.896 291.269 735.991C290.08 735.355 287.297 734.63 285.085 734.381C282.874 734.131 280.299 733.522 279.362 733.028C277.951 732.284 277.546 732.733 276.999 735.651C276.636 737.588 275.94 739.418 275.453 739.719C274.965 740.02 274.566 743.211 274.566 746.808C274.566 753.119 273.82 755.747 269.501 764.65C268.434 766.85 267.563 769.832 267.564 771.278C267.566 772.723 266.892 774.465 266.067 775.15C263.501 777.279 264.012 791.143 266.817 795.527C271.632 803.052 295.461 807.26 298.653 801.15C301.556 795.589 302.51 792.17 303.126 785.109C303.51 780.707 304.189 776.88 304.635 776.605C305.081 776.329 305.756 773.976 306.134 771.377C306.511 768.777 307.438 765.434 308.192 763.949C308.945 762.463 309.561 759.582 309.561 757.544C309.561 754.142 317.863 744.183 320.722 744.156C321.086 744.153 321.696 742.305 322.077 740.051C322.478 737.676 323.663 735.257 324.896 734.301C332.916 728.077 336.517 722.116 333.058 720.788C332.028 720.393 331.559 720.85 331.559 722.247ZM133.633 732.517C132.681 735.022 128.333 740.15 127.161 740.15C126.779 740.15 124.646 741.612 122.422 743.4C113.673 750.429 96.6658 747.259 90.9695 737.537C89.5557 735.124 87.7668 733.15 86.9939 733.15C85.1481 733.15 85.2106 735.164 87.1433 737.923C87.9972 739.144 88.8171 742.182 88.9641 744.676C89.2331 749.253 90.448 750.789 96.0803 753.68C98.45 754.896 98.972 782.926 96.8533 795.15C94.0186 811.499 94.6422 816.669 99.4226 816.451C110.159 815.961 118.996 810.13 123.688 800.437C124.827 798.085 126.168 795.906 126.671 795.596C127.173 795.285 127.584 793.809 127.584 792.313C127.584 790.818 128.356 788.493 129.299 787.147C130.782 785.028 131.023 781.808 131.087 763.174C131.161 741.747 132.504 733.15 135.775 733.15C136.22 733.15 136.583 732.475 136.583 731.65C136.583 729.313 134.634 729.887 133.633 732.517Z"
  />
</svg>
