<svg
  width="370"
  height="822"
  viewBox="0 0 370 822"
  fill="none"
  xmlns="http://www.w3.org/2000/svg"
>
  <path
    fill-rule="evenodd"
    clip-rule="evenodd"
    fill="black"
    d="M218.914 2.11377C219.8 3.18177 222.212 3.62671 227.285 3.65771C231.205 3.68171 236.437 4.16779 238.912 4.73779C241.386 5.30879 245.661 6.07582 248.41 6.44482C253.11 7.07382 253.428 7.30177 253.714 10.2388C254.306 16.3238 248.992 18.1798 239.971 15.0388C237.53 14.1878 234.496 13.7528 233.231 14.0698C230.412 14.7778 221.991 12.8297 219.833 10.9707C218.963 10.2217 217.939 9.92169 217.556 10.3047C217.174 10.6867 215.187 11.0919 213.139 11.2039C207.031 11.5379 197.203 13.5838 194.212 15.1438C192.675 15.9458 190.517 16.6118 189.418 16.6248C188.318 16.6378 186.358 17.7659 185.063 19.1309C183.768 20.4969 182.19 21.6138 181.556 21.6138C180.218 21.6138 170.661 26.5478 169.92 27.6208C169.645 28.0188 167.518 29.3088 165.194 30.4878C162.871 31.6658 159.973 33.9768 158.757 35.6218C157.541 37.2678 156.018 38.6138 155.373 38.6138C154.727 38.6138 151.696 41.8758 148.634 45.8638C145.573 49.8518 142.249 54.0178 141.247 55.1228C140.244 56.2278 138.044 59.8278 136.358 63.1228C133.73 68.2568 132.855 69.1567 130.235 69.4177C124.992 69.9387 124.862 62.3199 130.019 56.6729C131.617 54.9229 132.925 52.6408 132.925 51.6018C132.925 50.5628 133.534 49.3538 134.278 48.9138C138.881 46.1948 136.477 37.7528 131.069 37.6418C130.324 37.6258 128.377 36.4888 126.743 35.1138C125.11 33.7388 122.877 32.6138 121.784 32.6138C120.69 32.6138 118.848 32.1068 117.689 31.4868C115.378 30.2498 110.012 35.2948 109.955 38.7568C109.94 39.6608 109.253 40.6588 108.428 40.9758C107.527 41.3208 106.915 42.8608 106.896 44.8328C106.879 46.6368 106.204 48.9877 105.396 50.0547C104.589 51.1227 103.914 53.3727 103.896 55.0547C103.879 56.7377 103.204 58.9877 102.396 60.0547C101.589 61.1227 100.929 63.1598 100.929 64.5828C100.929 66.0048 100.32 68.0569 99.5758 69.1409C98.8319 70.2259 97.9323 74.3488 97.5753 78.3018C97.2184 82.2558 96.5011 86.6098 95.9801 87.9788C95.4602 89.3468 94.5539 95.3378 93.965 101.291C93.3761 107.243 92.4527 114.814 91.9128 118.114C89.4621 133.093 90.848 138.973 97.1842 140.479C100.344 141.23 102.928 142.243 102.928 142.729C102.928 143.216 103.774 143.614 104.807 143.614C106.576 143.614 106.71 142.333 107.094 121.723C107.355 107.708 107.902 99.3437 108.615 98.4727C109.228 97.7257 110.124 95.0987 110.606 92.6367C111.652 87.2867 115.539 84.2167 118.331 86.5347C120.418 88.2677 120.454 96.6919 118.391 100.682C117.095 103.188 116.93 107.353 117.327 127.382C117.912 156.92 118.183 160.866 119.655 161.357C120.51 161.642 120.669 164.47 120.233 171.632C119.733 179.832 119.911 181.941 121.278 184.028C122.184 185.412 122.926 188.048 122.926 189.888C122.926 191.727 123.587 194.105 124.394 195.173C125.722 196.928 125.872 196.254 125.965 188.114C126.022 183.164 126.466 175.514 126.953 171.114C127.441 166.714 128.115 160.414 128.451 157.114C128.787 153.814 129.738 148.414 130.564 145.114C131.39 141.814 132.404 136.966 132.819 134.34C133.233 131.715 134.102 129.037 134.749 128.39C135.396 127.743 135.952 125.841 135.984 124.164C136.084 118.985 140.019 112.163 143.113 111.804C148.766 111.149 149.087 119.127 143.836 129.777C143.385 130.691 142.712 133.721 142.343 136.509C141.973 139.298 141.053 142.092 140.297 142.719C138.685 144.057 138.451 147.614 139.975 147.614C140.553 147.614 141.671 146.07 142.46 144.182C143.248 142.295 144.35 140.468 144.908 140.123C145.466 139.778 145.923 138.671 145.923 137.662C145.923 136.653 146.598 135.569 147.423 135.252C148.248 134.936 148.923 133.593 148.923 132.268C148.923 130.943 149.598 129.299 150.423 128.614C151.247 127.929 151.923 126.556 151.923 125.563C151.923 124.57 152.603 123.076 153.435 122.243C154.268 121.411 155.243 119.261 155.602 117.466C155.961 115.671 156.852 113.057 157.582 111.658C158.312 110.259 158.912 108.582 158.916 107.931C158.924 106.398 162.389 105.31 164.813 106.08C168.559 107.269 167.973 112.595 162.798 124.391C161.766 126.743 160.911 129.443 160.899 130.391C160.887 131.339 159.997 133.239 158.922 134.614C157.846 135.989 156.956 137.467 156.944 137.898C156.909 139.143 167.252 137.501 168.999 135.985C169.867 135.231 171.298 134.614 172.178 134.614C173.058 134.614 176.398 132.876 179.598 130.751C182.8 128.627 188.198 125.487 191.594 123.774C194.992 122.061 198.067 120.18 198.428 119.596C198.79 119.011 200.772 117.467 202.835 116.165C209.414 112.012 215.781 105.581 216.107 102.762C216.567 98.7957 224.337 98.1839 225.304 102.037C227.531 110.909 239.739 127.384 246.519 130.666C248.927 131.833 251.153 133.198 251.463 133.701C251.774 134.203 254.871 134.614 258.346 134.614C262.835 134.614 265.036 135.063 265.95 136.165C266.734 137.109 268.445 137.598 270.322 137.415C273.779 137.078 274.492 130.023 271.413 126.62C270.638 125.764 269.797 123.5 269.543 121.589C269.289 119.678 268.592 116.542 267.994 114.621C265.691 107.214 267.028 102.614 271.486 102.614C274.517 102.614 275.539 104.29 276.224 110.38C276.55 113.277 277.512 116.64 278.361 117.853C279.211 119.066 279.906 121.263 279.906 122.734C279.906 124.206 281.026 127.368 282.394 129.762C283.762 132.156 284.887 135.302 284.894 136.753C284.901 138.205 285.79 140.455 286.872 141.753C289.606 145.035 289.975 124.067 287.279 118.661C285.137 114.367 286.784 108.082 290.496 106.391C294.672 104.487 295.969 106.903 296.465 117.523C296.702 122.587 297.348 127.575 297.9 128.607C298.488 129.705 298.937 140.765 298.983 155.298C299.026 168.947 299.319 179.439 299.633 178.614C299.947 177.789 300.573 176.871 301.024 176.574C301.475 176.277 301.937 172.002 302.052 167.074C302.179 161.646 302.783 157.336 303.583 156.141C304.581 154.652 304.903 148.613 304.903 131.463C304.903 112.422 305.15 108.51 306.432 107.228C308.462 105.198 310.772 106.212 311.549 109.474C311.895 110.926 312.678 112.747 313.29 113.52C314.668 115.261 314.278 146.638 312.861 148.055C312.335 148.582 311.902 151.564 311.902 154.682C311.902 160.349 311.902 160.349 316.009 160.117C320.847 159.844 321.865 158.588 321.886 152.864C321.894 150.526 322.307 148.614 322.802 148.614C323.298 148.614 324.027 143.327 324.422 136.864C324.817 130.401 325.611 124.215 326.188 123.117C330.069 115.719 327.081 46.7388 322.505 38.1138C321.63 36.4638 320.911 34.0719 320.907 32.7979C320.883 23.8989 312.125 19.0607 307.264 25.2617C305.69 27.2677 302.943 30.6838 301.157 32.8528C297.651 37.1098 297.466 41.6337 300.556 47.5547C301.291 48.9617 301.908 51.2388 301.929 52.6138C301.95 53.9888 302.628 55.9877 303.436 57.0547C304.243 58.1227 304.903 60.1598 304.903 61.5828C304.903 63.0048 305.516 65.0569 306.265 66.1409C307.014 67.2259 307.94 70.2408 308.323 72.8408C308.706 75.4398 309.382 77.7929 309.828 78.0679C311.195 78.9129 312 88.2248 310.946 90.9988C308.742 96.7978 301.934 91.5167 301.871 83.9597C301.854 81.8447 301.18 79.2399 300.372 78.1729C299.565 77.1049 298.888 74.8549 298.869 73.1729C298.849 71.4899 298.19 68.9888 297.404 67.6138C296.619 66.2388 295.956 64.2138 295.933 63.1138C295.91 62.0138 295.283 59.9468 294.539 58.5208C293.794 57.0948 292.878 54.2818 292.5 52.2708C292.123 50.2598 291.385 48.6138 290.86 48.6138C290.335 48.6138 289.905 47.9017 289.905 47.0317C289.905 41.7687 276.647 30.6118 259.106 21.1118C254.865 18.8148 253.125 12.2357 256.423 10.9697C258.612 10.1297 265.469 12.4708 267.549 14.7688C268.467 15.7838 269.838 16.6138 270.597 16.6138C272.449 16.6138 276.64 19.2728 280.906 23.1548C288.666 30.2148 295.794 30.5518 295.887 23.8638C295.896 23.1768 296.259 22.6138 296.691 22.6138C297.123 22.6138 298.88 20.7867 300.596 18.5537C303.613 14.6277 309.779 10.6138 312.793 10.6138C315.422 10.6138 320.902 12.9877 320.902 14.1267C320.902 14.7377 322.251 16.2358 323.901 17.4558C325.551 18.6758 326.901 20.2297 326.901 20.9087C326.901 21.5877 327.8 23.8228 328.9 25.8748C330 27.9278 330.916 31.0709 330.935 32.8599C330.955 34.6499 331.614 37.2388 332.4 38.6138C333.23 40.0658 333.843 43.8927 333.864 47.7417C333.883 51.3867 334.575 55.9847 335.4 57.9597C336.616 60.8717 336.899 67.0458 336.899 90.6528C336.899 115.19 336.664 119.992 335.4 121.257C334.258 122.399 333.9 125.252 333.9 133.218C333.9 140.254 333.409 144.853 332.4 147.268C328.589 156.393 328.95 156.614 347.71 156.614C364.52 156.614 364.52 156.614 366.708 159.574C370.289 164.419 367.909 172.006 361.516 176.123C359.8 177.228 357.957 179.128 357.422 180.345C356.886 181.562 355.086 183.101 353.422 183.766C351.758 184.43 348.769 186.355 346.779 188.044C342.863 191.365 332.4 198.642 327.126 201.71C323.243 203.969 321.893 207.027 321.227 215.076C320.955 218.355 320.159 222.18 319.456 223.576C318.753 224.972 317.924 228.091 317.615 230.508C317.306 232.925 316.63 235.175 316.113 235.508C315.595 235.841 314.852 237.138 314.461 238.391C314.07 239.643 312.547 241.419 311.076 242.338C309.606 243.257 308.23 244.131 308.018 244.28C307.334 244.761 312.363 249.579 313.568 249.597C316.072 249.634 323.901 261.907 323.901 265.796C323.901 267.101 324.588 269.151 325.429 270.352C326.27 271.552 327.855 275.365 328.951 278.824C330.048 282.284 331.61 286.532 332.422 288.265C333.235 289.998 333.9 292.098 333.9 292.932C333.9 293.765 334.34 294.597 334.878 294.781C335.415 294.964 336.785 298.489 337.922 302.614C339.059 306.739 340.645 312.206 341.448 314.763C342.252 317.32 343.194 321.595 343.542 324.263C343.891 326.931 344.507 329.564 344.913 330.114C345.319 330.664 345.968 333.729 346.354 336.926C346.795 340.567 347.599 342.946 348.507 343.294C349.364 343.623 349.727 344.578 349.393 345.629C349.083 346.607 349.779 350.266 350.941 353.76C353.103 360.269 353.57 361.403 358.694 372.614C360.327 376.189 361.952 381.448 362.306 384.3C362.659 387.152 363.608 390.752 364.416 392.3C365.223 393.848 365.901 397.139 365.924 399.614C365.947 402.089 366.61 405.239 367.396 406.614C369.563 410.406 369.558 485.821 367.39 489.978C365.501 493.6 365.204 519.217 367.044 519.83C368.593 520.347 366.364 529.934 363.646 534.44C362.044 537.094 361.66 539.401 361.744 545.866C361.802 550.321 361.47 554.449 361.006 555.04C360.542 555.631 359.865 560.253 359.499 565.311C359.133 570.37 358.175 575.77 357.371 577.311C356.567 578.853 355.907 581.521 355.903 583.242C355.9 584.962 355.222 586.929 354.397 587.614C353.572 588.299 352.897 589.93 352.897 591.24C352.897 592.55 351.997 595.3 350.898 597.353C349.798 599.405 348.898 601.616 348.898 602.266C348.898 602.916 348.359 603.627 347.7 603.847C346.906 604.111 346.377 607.753 346.128 614.664C345.922 620.395 345.398 625.54 344.963 626.098C344.528 626.657 343.89 629.814 343.543 633.114C343.196 636.414 342.253 640.914 341.449 643.114C340.644 645.314 339.967 648.732 339.943 650.709C339.885 655.489 337.39 657.658 332.185 657.454C328.865 657.324 327.314 657.96 323.661 660.954C321.205 662.967 318.679 664.614 318.048 664.614C317.418 664.614 316.902 665.055 316.902 665.595C316.902 666.134 315.776 666.859 314.399 667.204C309.093 668.536 307.28 672.416 306.574 683.951C306.219 689.76 305.212 696.448 304.338 698.813C303.463 701.179 302.385 704.838 301.944 706.944C301.504 709.051 300.639 711.279 300.024 711.894C299.408 712.51 298.904 713.988 298.904 715.179C298.904 716.37 298.105 718.417 297.129 719.729C296.152 721.041 294.708 723.464 293.922 725.114C293.135 726.764 291.902 728.832 291.182 729.711C290.101 731.029 290.113 731.879 291.252 734.587C294.421 742.124 289.788 756.081 283.058 759.276C278.325 761.522 277.283 763.84 276.388 774.098C276.006 778.489 275.066 782.977 274.3 784.071C273.534 785.164 272.907 786.903 272.907 787.935C272.907 789.791 271.135 794.458 268.347 799.945C267.555 801.502 266.908 803.485 266.908 804.351C266.908 806.806 262.171 812.417 257.578 815.402C255.286 816.893 252.885 818.788 252.243 819.613C248.677 824.197 221.89 821.657 216.452 816.219C207.341 807.106 204.72 763.372 212.34 747.577C214.881 742.308 214.881 742.308 212.398 739.825C209.853 737.279 208.928 731.08 210.794 729.064C211.278 728.541 212.204 726.453 212.852 724.423C214.77 718.415 222.901 713.614 231.155 713.614C238.47 713.614 241.911 709.499 241.911 700.754C241.911 696.175 241.438 695.949 236.322 698.087C234.382 698.898 230.459 699.858 227.605 700.221C224.749 700.585 221.695 701.25 220.818 701.701C219.94 702.151 210.602 702.712 200.066 702.948C186.631 703.248 180.455 703.755 179.384 704.643C176.687 706.881 119.81 706.625 117.541 704.364C116.458 703.285 114.259 702.614 111.806 702.614C109.619 702.614 106.614 702.002 105.129 701.255C101.746 699.552 95.1271 698.484 94.4772 699.536C92.1755 703.261 95.3605 710.714 100.513 713.662C111.14 719.743 114.368 734.5 107.063 743.594C103.826 747.623 104.863 759.359 108.963 765.114C109.355 765.664 110.002 768.364 110.401 771.114C110.798 773.864 111.536 776.883 112.039 777.823C113.843 781.194 115.193 800.593 113.936 805.082C112.713 809.451 107.776 815.614 105.5 815.614C104.77 815.614 103.643 816.252 102.995 817.033C100.711 819.786 87.1596 817.917 82.6032 814.22C76.5369 809.297 65.9333 798.422 65.9333 797.124C65.9333 796.854 64.0205 793.79 61.6837 790.315C57.5643 784.19 54.8901 779.183 51.5465 771.33C50.6077 769.127 49.9291 764.741 49.9201 760.83C49.9021 753.171 49.0521 751.229 45.6515 751.08C43.1088 750.969 36.9367 747.085 36.9367 745.596C36.9367 745.111 35.587 742.714 33.9372 740.269C30.5576 735.26 30.2993 733.361 32.443 729.25C33.2649 727.674 33.9372 725.142 33.9372 723.622C33.9372 722.102 34.6123 720.299 35.4372 719.614C36.3021 718.896 36.9367 716.715 36.9367 714.459C36.9367 712.309 36.2621 708.934 35.4372 706.96C34.2673 704.159 33.9372 698.798 33.9372 682.585C33.9372 661.8 33.9372 661.8 30.6876 658.611C19.752 647.879 13.0697 641.941 10.4411 640.62C8.79227 639.792 6.82062 637.804 6.05972 636.203C5.29881 634.601 3.52181 632.298 2.11099 631.084C-0.305709 629.005 -0.385034 628.645 0.742825 624.88C1.40174 622.681 1.94393 618.234 1.94693 614.998C1.95093 611.735 2.61903 607.838 3.44693 606.25C4.26882 604.674 4.94058 601.164 4.94058 598.45C4.94058 595.736 5.61945 592.201 6.45034 590.595C7.28024 588.989 8.37693 585.074 8.88687 581.895C9.3978 578.715 10.5714 573.639 11.4953 570.614C12.4192 567.589 13.6037 562.864 14.1266 560.114C15.0305 555.369 16.2827 550.449 19.4713 539.114C20.2452 536.364 21.1558 532.204 21.4948 529.869C21.8347 527.535 22.4847 525.395 22.9386 525.114C23.3926 524.833 24.0672 522.808 24.4381 520.614C24.8091 518.42 25.5231 516.371 26.0251 516.06C26.527 515.75 26.9381 514.779 26.9381 513.902C26.9381 510.799 32.8986 499.614 34.5524 499.614C35.8052 499.614 35.986 499.106 35.3561 497.364C33.6843 492.743 33.7144 459.946 35.3942 456.698C36.4681 454.621 36.9478 450.733 36.9718 443.914C36.9908 438.524 37.581 431.414 38.2819 428.114C38.9818 424.814 39.6802 416.264 39.8332 409.114C39.9851 401.964 40.505 393.189 40.9879 389.614C42.2928 379.95 43.9598 370.501 44.9567 367.114C45.4426 365.464 46.0669 362.159 46.3439 359.77C46.6209 357.38 47.3373 354.835 47.9362 354.112C48.5361 353.39 49.4091 350.62 49.8781 347.957C50.748 343.002 52.1692 338.43 54.4899 333.114C55.2108 331.464 56.0093 328.539 56.2653 326.614C56.5223 324.689 58.1269 319.311 59.8327 314.662C61.5385 310.013 62.9337 305.456 62.9337 304.534C62.9337 303.613 63.6084 302.299 64.4333 301.614C65.2582 300.929 65.9333 299.33 65.9333 298.06C65.9333 296.79 67.255 293.132 68.8708 289.932C70.4856 286.732 72.8294 281.864 74.0783 279.114C75.3261 276.364 76.8981 273.438 77.57 272.612C78.2429 271.786 78.9365 269.086 79.1115 266.612C79.3814 262.824 79.7875 262.063 81.6833 261.794C82.9221 261.618 84.4398 260.531 85.0578 259.377C85.6747 258.223 88.0366 254.931 90.3053 252.059C98.8393 241.258 101.283 236.462 99.9567 233.114C98.4919 229.414 96.1952 220.093 94.7834 212.114C94.1984 208.814 93.3297 205.87 92.8517 205.571C92.3738 205.273 91.6778 201.748 91.3048 197.738C90.6549 190.744 90.482 190.356 87.0294 188.168C79.5924 183.456 69.6766 171.653 66.4001 163.614C66.0641 162.789 65.3743 161.439 64.8673 160.614C54.9026 144.403 57.9359 137.614 75.1427 137.614C83.5507 137.614 83.5507 137.614 84.5656 112.089C85.2405 95.1279 85.9756 86.1687 86.7555 85.3887C87.4014 84.7427 87.9303 81.9287 87.9303 79.1367C87.9303 76.3437 88.5385 73.1707 89.2814 72.0867C90.0243 71.0017 90.9239 67.9088 91.2819 65.2148C91.6398 62.5198 92.3311 59.8198 92.818 59.2148C93.305 58.6088 94.019 56.2037 94.404 53.8687C94.7889 51.5347 95.4882 49.3867 95.9582 49.0957C96.4291 48.8047 97.1294 46.4398 97.5143 43.8408C99.5041 30.4008 113.914 15.0739 118.904 21.0879C119.577 21.8979 121.769 22.8518 123.776 23.2078C128.415 24.0308 135.559 27.8307 139.644 31.6497C142.774 34.5747 145.923 35.5598 145.923 33.6138C145.923 33.0638 146.486 32.6128 147.173 32.6108C147.861 32.6098 149.323 31.2608 150.423 29.6138C151.522 27.9668 152.692 26.6177 153.02 26.6167C153.348 26.6147 154.654 25.7138 155.922 24.6138C157.19 23.5138 158.881 22.6138 159.68 22.6138C160.479 22.6138 162.775 21.3758 164.78 19.8638C170.899 15.2508 181.389 9.61377 183.855 9.61377C184.44 9.61377 184.918 9.16377 184.918 8.61377C184.918 8.06377 185.481 7.59883 186.168 7.57983C186.856 7.56083 189.218 6.67677 191.418 5.61377C194.1 4.31777 197.6 3.67071 202.044 3.64771C206.682 3.62371 209.044 3.16377 209.915 2.11377C210.6 1.28877 212.625 0.61377 214.415 0.61377C216.204 0.61377 218.229 1.28877 218.914 2.11377ZM216.329 117.534C210.3 123.573 206.522 126.816 204.502 127.688C197.959 130.511 190.416 137.337 189.826 140.966C188.585 148.602 184.52 150.736 176.617 147.903C172.034 146.26 171.58 146.266 166.619 148.03C163.76 149.047 158.643 150.104 155.247 150.378C149.072 150.876 149.072 150.876 145.132 158.495C139.658 169.078 137.547 172.6 136.674 172.608C136.262 172.611 135.924 175.587 135.924 179.221C135.924 184.706 136.181 185.729 137.436 185.248C142.229 183.409 144.736 187.102 145.595 197.262C145.937 201.305 146.583 204.614 147.031 204.614C147.479 204.614 148.33 206.527 148.922 208.864C151.203 217.874 157.605 227.614 161.246 227.614C161.805 227.614 163.107 228.378 164.139 229.311C165.312 230.373 168.054 231.108 171.464 231.275C174.462 231.421 177.786 232.008 178.851 232.578C179.916 233.148 181.762 233.614 182.952 233.614C184.143 233.614 186.534 234.26 188.267 235.049C190 235.838 195.692 236.686 200.916 236.933C210.375 237.382 216.385 239.239 218.211 242.278C218.842 243.328 219.614 243.157 221.912 241.457C225.456 238.837 238.584 239.325 244.148 242.285C247.759 244.206 249.664 244.133 251.91 241.987C255.397 238.654 258.302 236.614 259.562 236.614C260.303 236.614 260.91 236.052 260.912 235.364C260.913 234.677 262.15 233.284 263.661 232.269C265.986 230.707 272.844 222.347 276.422 216.713C276.981 215.833 278.71 213.227 280.266 210.922C281.822 208.616 282.853 206.338 282.558 205.859C282.262 205.381 282.891 203.667 283.956 202.052C285.021 200.436 285.896 198.285 285.899 197.272C285.903 196.258 286.827 194.257 287.954 192.825C289.901 190.35 290.921 168.161 289.218 165.331C287.947 163.218 275.925 173.332 275.89 176.544C275.848 180.34 266.892 185.614 260.488 185.614C248.397 185.614 243.505 171.717 252.513 162.962C255.045 160.501 256.957 158.351 256.762 158.185C256.568 158.019 254.767 157.117 252.759 156.181C248.743 154.31 247.546 151.702 248.976 147.942C250.373 144.267 250.195 143.863 246.661 142.694C238.785 140.088 221.915 121.798 221.914 115.864C221.914 113.726 219.372 114.485 216.329 117.534ZM269.908 149.614C267.983 151.234 265.915 152.572 265.313 152.587C260.591 152.703 261.16 156.384 265.971 156.846C280.163 158.21 286.039 156.596 282.242 152.377C281.121 151.132 279.927 149.327 279.587 148.364C278.627 145.643 273.899 146.254 269.908 149.614ZM68.9328 148.301C68.9328 149.223 72.6159 156.415 74.9826 160.114C76.0374 161.764 77.3098 164.026 77.8078 165.141C79.5875 169.127 88.5925 177.149 93.6798 179.28C95.4676 180.028 96.9346 180.972 96.9406 181.377C96.9596 182.578 104.097 185.421 108.678 186.052C113.073 186.658 114.605 184.692 111.869 181.956C111.288 181.375 110.553 178.247 110.234 175.006C109.476 167.28 108.534 165.614 104.927 165.614C103.316 165.614 100.519 164.964 98.713 164.17C96.9073 163.375 93.7568 162.458 91.7121 162.13C85.4618 161.13 81.9674 153.372 86.5988 150.78C87.9926 150 87.7826 149.74 85.3229 149.2C80.7255 148.19 68.9328 147.544 68.9328 148.301ZM179.419 155.614C179.759 156.164 180.704 156.614 181.519 156.614C182.872 156.614 186.259 158.714 191.2 162.614C197.384 167.496 192.704 182.123 184.281 184.238C177.176 186.021 165.098 179.928 164.962 174.492C164.934 173.406 163.682 172.665 161.171 172.251C152.508 170.82 149.927 169.606 148.54 166.312C146.431 161.3 148.605 159.442 155.612 160.265C160.309 160.817 161.264 160.622 163.003 158.757C164.3 157.364 166.21 156.614 168.46 156.614C170.363 156.614 171.92 156.164 171.92 155.614C171.92 155.064 173.468 154.614 175.361 154.614C177.253 154.614 179.079 155.064 179.419 155.614ZM174.182 167.374C173.155 170.049 175.425 172.099 179.771 172.421C182.809 172.647 183.919 172.354 183.919 171.326C183.919 167.834 175.341 164.352 174.182 167.374ZM262.283 168.671C258.99 169.889 257.456 172.364 258.909 174.114C261.481 177.213 266.501 175.239 268.185 170.467C268.86 168.554 265.424 167.509 262.283 168.671ZM339.899 169.459C339.899 172.16 336.694 174.615 332.274 175.298C330.143 175.627 327.185 176.508 325.7 177.255C324.215 178.002 321.745 178.614 320.212 178.614C315.253 178.614 308.889 181.834 308.353 184.614C308.088 185.989 307.372 189.139 306.761 191.614C304.303 201.581 303.8 201.098 312.034 196.669C316.086 194.489 322.551 191.1 326.401 189.138C330.25 187.177 334.903 184.248 336.741 182.631C338.579 181.014 340.941 179.418 341.99 179.085C343.039 178.752 343.899 178.06 343.899 177.547C343.899 177.034 344.54 176.614 345.325 176.614C346.724 176.614 352.897 169.906 352.897 168.386C352.897 167.961 349.973 167.614 346.398 167.614C340.748 167.614 339.899 167.855 339.899 169.459ZM134.424 190.614C134.085 191.164 134.283 191.614 134.865 191.614C135.447 191.614 135.924 191.164 135.924 190.614C135.924 190.064 135.727 189.614 135.484 189.614C135.241 189.614 134.764 190.064 134.424 190.614ZM100.929 199.847C100.929 202.249 101.356 204.642 101.877 205.164C102.398 205.687 103.252 208.589 103.773 211.614C104.294 214.639 105.217 218.576 105.824 220.364C106.431 222.152 107.426 225.076 108.035 226.864C108.644 228.652 109.486 231.914 109.905 234.114C110.325 236.314 111.402 239.787 112.298 241.832C113.194 243.877 113.927 246.428 113.927 247.501C113.927 248.574 114.602 250.838 115.427 252.533C116.252 254.228 117.602 257 118.426 258.695C119.251 260.39 119.926 262.585 119.926 263.573C119.926 264.561 120.602 265.929 121.426 266.614C122.251 267.299 122.926 268.648 122.926 269.612C122.926 270.576 124.501 274.82 126.425 279.045C128.35 283.269 129.925 287.632 129.925 288.741C129.925 289.85 130.6 291.432 131.425 292.257C132.25 293.082 132.925 294.823 132.925 296.126C132.925 297.43 133.324 298.743 133.812 299.044C134.299 299.345 135.012 301.284 135.396 303.353C135.78 305.422 136.819 307.922 137.705 308.91C138.621 309.93 139.273 312.277 139.215 314.339C139.158 316.337 139.701 318.903 140.422 320.043C141.142 321.182 142.039 324.024 142.415 326.359C142.791 328.693 143.456 330.825 143.893 331.095C144.33 331.365 145.011 334.63 145.408 338.35C145.804 342.07 146.573 345.948 147.117 346.968C147.66 347.988 148.489 352.038 148.959 355.968C149.831 363.268 151.182 370.602 153.13 378.614C153.732 381.089 154.551 386.039 154.95 389.614C155.831 397.509 156.994 400.595 160.354 403.955C161.765 405.368 162.921 406.994 162.921 407.569C162.921 408.144 163.373 408.614 163.925 408.614C165.774 408.614 164.335 333.711 162.427 330.624C162.04 329.998 161.575 325.661 161.393 320.988C161.013 311.192 160.108 309.614 154.877 309.614C149.016 309.614 143.092 304.582 140.749 297.614C139.732 294.589 138.23 291.614 137.412 291.004C136.594 290.393 135.924 289.429 135.924 288.861C135.924 288.293 135.249 287.569 134.424 287.252C133.6 286.936 132.925 286.194 132.925 285.605C132.925 285.015 131.96 283.227 130.779 281.631C127.88 277.71 128.406 249.862 131.467 245.19C132.958 242.914 133.077 241.904 132.159 239.28C131.551 237.538 130.759 234.051 130.4 231.529C129.638 226.179 129.331 225.644 125.676 223.318C123.797 222.122 122.916 220.704 122.894 218.841C122.877 217.341 122.202 215.24 121.394 214.173C120.587 213.105 119.912 211.305 119.894 210.173C119.877 209.04 119.202 207.24 118.394 206.173C117.587 205.105 116.927 202.994 116.927 201.482C116.927 198.068 116.159 197.585 110.078 197.171C107.405 196.989 104.253 196.534 103.073 196.16C101.104 195.535 100.929 195.836 100.929 199.847ZM132.925 209.426C132.925 217.351 132.925 217.351 137.155 217.918C142.456 218.629 142.25 219.19 139.593 211.302C135.853 200.197 132.925 199.373 132.925 209.426ZM304.903 212.197C303.529 212.96 301.71 213.591 300.861 213.599C299.873 213.609 298.639 215.683 297.431 219.364C296.393 222.527 294.855 225.929 294.013 226.925C291.779 229.571 293.984 230.517 299.716 229.37C302.294 228.855 305.361 228.254 306.531 228.035C308.945 227.584 310.902 221.597 310.902 214.671C310.902 210.174 309.553 209.617 304.903 212.197ZM236.436 215.805C238.241 217.61 237.942 222.584 235.904 224.622C232.909 227.617 215.425 227.292 211.984 224.176C210.008 222.388 209.094 216.768 210.544 215.319C211.24 214.622 235.712 215.081 236.436 215.805ZM141.32 233.024C141.055 233.714 141.297 236.267 141.857 238.696C142.417 241.126 142.886 244.544 142.9 246.292C142.918 248.637 143.731 250.102 146.008 251.884C151.861 256.465 150.745 261.119 143.798 261.095C138.172 261.075 138.172 261.075 138.396 268.243C138.746 279.461 145.923 284.964 145.923 274.014C145.923 272.829 146.525 271.359 147.261 270.748C147.997 270.137 149.129 267.27 149.777 264.376C150.424 261.482 151.844 257.764 152.931 256.114C154.019 254.464 154.912 252.415 154.915 251.561C154.919 250.707 156.317 248.111 158.022 245.793C161.099 241.608 161.313 238.614 158.537 238.614C157.74 238.614 156.912 239.145 156.695 239.794C156.019 241.822 152.883 239.8 151.776 236.621C151.061 234.57 149.874 233.424 148.073 233.048C146.616 232.743 144.608 232.331 143.612 232.131C142.617 231.932 141.585 232.334 141.32 233.024ZM283.906 242.547C280.881 242.893 277.424 243.724 276.223 244.395C275.021 245.065 273.124 245.614 272.007 245.614C270.045 245.614 267.162 246.696 258.156 250.813C250.066 254.511 249.208 262.206 256.909 261.985C264.078 261.779 273.034 260.82 273.663 260.191C276.094 257.76 282.906 261.478 282.906 265.236C282.906 269.922 281.221 271.614 276.555 271.614C274.201 271.614 269.83 272.037 266.842 272.553C263.853 273.07 259.159 273.717 256.409 273.991C253.66 274.265 251.297 274.517 251.16 274.552C251.023 274.586 250.91 275.282 250.91 276.1C250.91 276.917 249.303 282.204 247.339 287.85C242.781 300.949 242.795 300.436 246.91 302.648C253.272 306.066 265.72 310.614 268.716 310.614C270.337 310.614 272.222 311.289 272.907 312.114C273.792 313.18 276.133 313.614 280.998 313.614C287.843 313.614 287.843 313.614 290.277 308.364C294.342 299.593 295.719 296.24 296.439 293.355C296.817 291.837 297.526 290.348 298.015 290.046C298.504 289.743 298.904 288.129 298.904 286.459C298.904 284.789 299.527 282.228 300.288 280.768C301.555 278.338 303.445 270.594 304.599 263.114C305.119 259.738 299.164 252.187 295.404 251.458C293.781 251.143 293.405 250.274 293.405 246.841C293.405 244.515 293.104 242.612 292.737 242.613C292.369 242.613 291.469 242.457 290.737 242.266C290.004 242.075 286.931 242.201 283.906 242.547ZM169.038 247.091C167.809 249.554 166.379 251.83 165.861 252.15C165.345 252.47 164.921 253.573 164.921 254.602C164.921 255.63 164.292 257.1 163.524 257.868C162.755 258.637 161.152 261.707 159.962 264.69C158.77 267.673 157.149 271.388 156.359 272.945C155.569 274.502 154.922 276.779 154.922 278.004C154.922 279.229 154.261 281.105 153.454 282.173C151.539 284.704 151.523 288.247 153.422 288.976C154.386 289.346 154.926 290.902 154.933 293.333C154.944 296.727 155.338 297.302 158.778 298.95C163.929 301.416 189.225 301.551 191.903 299.127C192.822 298.295 195.166 297.614 197.111 297.614C202.177 297.614 205.916 294.39 205.916 290.022C205.916 286.293 204.805 286.123 197.774 288.772C191.352 291.192 185.828 287.095 187.347 281.04C187.873 278.947 188.54 278.614 192.214 278.614C194.556 278.614 197.38 277.978 198.491 277.2C199.601 276.422 201.837 275.635 203.462 275.45C207.654 274.973 207.09 272.584 201.269 266.147C195.149 259.378 192.613 258.46 189.828 262.001C185.346 267.699 178.013 261.839 182.386 256.055C183.194 254.988 183.869 253.396 183.886 252.519C183.904 251.642 184.818 250.109 185.918 249.114C188.706 246.591 188.417 245.614 184.886 245.614C183.218 245.614 180.239 244.939 178.265 244.114C172.708 241.792 171.489 242.185 169.038 247.091ZM196.327 248.468C196.716 249.098 197.588 249.614 198.264 249.614C198.939 249.614 201.681 251.837 204.357 254.554C209.222 259.494 209.222 259.494 211.068 257.146C213.66 253.851 213.429 250.76 210.508 249.649C206.332 248.062 195.519 247.161 196.327 248.468ZM102.928 250.934C102.928 251.66 101.579 253.766 99.9289 255.614C98.2791 257.462 96.9294 259.531 96.9294 260.211C96.9294 260.891 96.5923 261.597 96.1794 261.781C91.293 263.953 90.2195 270.46 93.8581 275.852C95.4679 278.238 97.0835 281.378 97.4474 282.83C97.8114 284.281 98.7438 285.713 99.5187 286.01C100.295 286.308 100.929 287.156 100.929 287.895C100.929 289.699 104.658 297.328 105.922 298.109C106.475 298.452 106.942 299.943 106.96 301.423C106.977 302.903 107.652 304.988 108.46 306.055C109.267 307.123 109.928 308.61 109.928 309.36C109.928 310.546 110.949 313.153 114.923 322.114C115.411 323.214 116.091 325.545 116.433 327.295C116.775 329.044 117.701 331.012 118.49 331.667C119.28 332.323 119.926 333.767 119.926 334.876C119.926 335.985 121.276 339.087 122.926 341.768C124.576 344.45 125.925 346.929 125.925 347.276C125.925 350.294 130.445 359.628 131.677 359.156C138.328 356.603 140.369 351.317 137.424 344.268C136.599 342.294 135.91 338.976 135.892 336.896C135.875 334.816 135.2 332.24 134.392 331.173C133.585 330.105 132.925 327.798 132.925 326.045C132.925 324.293 132.25 322.299 131.425 321.614C130.6 320.929 129.925 318.949 129.925 317.214C129.925 315.479 129.314 313.171 128.568 312.087C127.821 311.002 126.883 308.337 126.485 306.165C126.087 303.993 125.123 301.306 124.343 300.193C123.564 299.08 122.926 296.919 122.926 295.391C122.926 293.864 122.512 292.614 122.005 292.614C121.499 292.614 120.772 291.152 120.39 289.364C120.008 287.576 119.352 285.664 118.933 285.114C118.514 284.564 117.837 283.025 117.428 281.694C117.019 280.363 115.164 276.028 113.306 272.059C111.448 268.091 109.928 263.893 109.928 262.729C109.928 261.566 109.528 260.614 109.039 260.614C108.551 260.614 107.845 258.984 107.471 256.991C106.459 251.598 102.928 246.89 102.928 250.934ZM225.954 252.233C220.081 257.175 215.146 272.273 214.975 285.822C214.895 292.144 226.318 299.446 229.774 295.282C230.441 294.478 231.87 294.051 232.949 294.334C234.253 294.675 234.912 294.346 234.912 293.353C234.912 292.531 235.54 291.338 236.307 290.701C237.075 290.064 238.006 287.928 238.376 285.955C238.746 283.982 239.419 281.636 239.873 280.741C241.316 277.897 243.107 268.358 243.594 260.923C244.065 253.733 244.065 253.733 239.738 252.639C237.359 252.038 234.378 251.111 233.115 250.58C229.858 249.21 229.429 249.309 225.954 252.233ZM83.696 282.364C81.7162 284.608 74.9318 298.406 74.9318 300.19C74.9318 300.936 74.2073 303.249 73.3214 305.33C69.8529 313.479 69.1624 315.319 67.3966 321.114C66.3918 324.414 64.8161 328.689 63.8942 330.614C62.9723 332.539 61.9455 335.689 61.6105 337.614C60.1067 346.27 57.8743 355.074 56.9474 356.001C56.3905 356.558 55.9342 358.265 55.9342 359.794C55.9342 361.323 55.3128 364.27 54.5529 366.344C52.5431 371.825 49.3513 399.767 46.5836 436.114C45.9137 444.914 44.9338 453.014 44.4059 454.114C42.8311 457.398 43.165 495.979 44.7858 497.932C45.7807 499.132 46.1766 503.837 46.2946 515.837C46.5166 538.483 46.3105 538.236 64.4333 537.623C67.1829 537.529 70.7825 536.876 72.4323 536.169C74.0821 535.463 78.5818 534.341 82.4313 533.675C95.7506 531.37 97.4435 530.962 100.629 529.292C102.39 528.369 104.64 527.613 105.629 527.611C106.618 527.61 108.328 526.261 109.428 524.614C110.528 522.967 111.921 521.618 112.523 521.617C113.125 521.615 114.362 520.791 115.272 519.785C117.579 517.236 117.774 467.155 115.495 462.746C113.594 459.069 113.053 438.044 114.777 434.864C116.328 432.005 117.038 432.039 119.926 435.114C123.755 439.19 125.223 437.165 126.452 426.114C126.819 422.814 127.745 418.314 128.508 416.114C129.271 413.914 129.918 410.764 129.946 409.114C129.973 407.464 130.639 404.989 131.425 403.614C132.211 402.239 132.87 399.833 132.89 398.268C132.909 396.703 133.543 394.228 134.298 392.768C137.251 387.057 138.924 382.434 138.924 379.981C138.924 378.57 139.635 375.919 140.503 374.088C143.419 367.944 142.12 365.608 137.87 369.35C129.226 376.957 125.91 374.745 118.929 356.716C117.779 353.747 115.959 350.199 114.883 348.831C113.807 347.463 112.927 345.572 112.927 344.628C112.927 343.684 111.872 340.929 110.585 338.505C109.296 336.081 107.909 332.324 107.502 330.157C107.095 327.989 106.125 325.306 105.345 324.193C104.566 323.08 103.928 321.363 103.928 320.378C103.928 319.393 103.532 317.805 103.048 316.85C100.369 311.568 97.9244 305.721 97.8864 304.504C97.8624 303.74 96.7472 301.314 95.4093 299.114C94.0705 296.914 91.3701 291.852 89.4074 287.864C85.3749 279.669 85.7527 280.034 83.696 282.364ZM315.937 282.548C315.368 283.612 314.902 285.565 314.902 286.889C314.902 288.212 313.635 291.954 312.088 295.204C306.487 306.959 304.903 310.694 304.903 312.138C304.903 313.46 302.452 319.259 296.835 331.224C295.773 333.484 294.904 336.071 294.904 336.974C294.904 337.876 294.463 338.614 293.923 338.614C293.385 338.614 292.636 339.838 292.26 341.334C290.915 346.694 287.878 350.613 285.057 350.629C280.808 350.654 279.977 351.826 279.355 358.662C279.033 362.211 278.35 365.541 277.838 366.064C276.585 367.343 276.645 375.614 277.907 375.614C278.457 375.614 278.922 376.852 278.941 378.364C278.96 379.876 279.844 382.914 280.906 385.114C281.969 387.314 282.853 390.08 282.872 391.26C282.891 392.441 284.254 396.716 285.902 400.76C287.55 404.805 288.917 409.014 288.938 410.114C289.049 415.821 291.646 417.129 292.373 411.844C293.224 405.661 294.921 403.845 298.38 405.421C301.72 406.943 302.65 412.373 300.523 417.941C299.476 420.684 298.904 425.281 298.904 430.963C298.904 435.793 298.457 440.581 297.911 441.601C297.095 443.126 296.354 453.873 294.705 488.114C294.371 495.07 295.715 507.528 296.968 509.097C303.159 516.842 304.605 517.614 312.915 517.614C317.243 517.614 321.032 517.211 321.336 516.719C321.641 516.226 325.492 515.504 329.894 515.114C334.297 514.725 337.899 514.005 337.899 513.516C337.899 513.027 341.225 511.648 345.289 510.452C354.404 507.77 359.117 500.63 358.904 489.829C358.59 473.958 360.236 442.958 361.526 440.414C363.295 436.927 363.279 429.778 361.493 425.486C360.721 423.631 359.592 418.514 358.982 414.114C357.102 400.548 355.436 392.753 354.139 391.456C353.456 390.773 352.897 388.09 352.897 385.495C352.897 380.831 350.572 374.865 348.148 373.314C347.461 372.874 346.898 371.242 346.898 369.687C346.898 368.131 346.223 366.299 345.398 365.614C344.573 364.929 343.899 363.705 343.899 362.893C343.899 362.081 343.285 359.998 342.536 358.265C341.262 355.322 340.643 352.856 337.788 339.364C337.177 336.477 336.053 332.92 335.289 331.46C334.525 330 333.9 327.014 333.9 324.824C333.9 322.634 333.228 319.554 332.406 317.978C331.585 316.403 330.91 313.228 330.906 310.923C330.903 308.618 330.489 306.478 329.986 306.167C329.483 305.857 327.82 302.342 326.291 298.358C324.761 294.374 322.922 290.226 322.205 289.141C321.488 288.057 320.902 286.234 320.902 285.091C320.902 281.061 317.63 279.385 315.937 282.548ZM216.408 310.257C214.762 312.26 211.615 315.215 209.415 316.822C204.459 320.444 194.478 329.309 187.04 336.697C183.949 339.767 179.668 343.551 177.527 345.106C172.604 348.682 172.577 388.101 177.492 397.347C180.852 403.667 180.601 406.497 176.195 411.931C172.701 416.24 172.463 416.975 172.339 423.819C172.033 440.688 169.499 449.332 164.79 449.581C163.049 449.672 158.922 442.446 158.922 439.306C158.922 433.425 157.845 429.706 156.312 430.295C155.287 430.688 154.922 432.91 154.922 438.753C154.922 443.535 154.327 448.102 153.422 450.268C152.464 452.561 151.918 457.157 151.911 462.986C151.905 468.146 151.257 474.233 150.422 476.989C149.384 480.412 148.803 488.559 148.472 504.339C147.97 528.321 147.618 529.956 143.067 529.415C141.123 529.183 140.326 528.306 139.616 525.614C138.331 520.746 139.332 477.571 140.788 475.072C141.416 473.995 142.364 468.839 142.896 463.614C144.253 450.269 146.526 434.92 147.929 429.614C148.701 426.695 148.938 420.722 148.602 412.614C147.873 395.027 144.697 389.161 142.323 401.015C141.689 404.178 140.666 407.272 140.048 407.89C139.43 408.508 138.926 410.162 138.929 411.564C138.932 412.966 138.292 416.139 137.507 418.614C135.825 423.916 134.192 431.666 132.913 440.405C132.407 443.865 131.67 447.217 131.276 447.855C127.186 454.475 124.569 512.604 127.342 535.23C128.83 547.363 128.389 553.061 125.709 556.353C124.406 557.953 125.521 563.865 127.996 568.485C129.057 570.465 129.939 573.666 129.957 575.599C129.974 577.532 130.649 579.988 131.457 581.055C132.769 582.79 132.925 581.446 132.925 568.377C132.925 552.87 133.565 550.614 137.96 550.614C141.886 550.614 142.159 553.389 141.505 586.491C141.161 603.884 140.67 622.164 140.414 627.114C139.294 648.774 139.387 650.963 141.856 661.114C143.192 666.614 144.204 673.364 144.103 676.114C143.588 690.09 143.373 691.712 141.923 692.632C137.029 695.737 131.609 689.597 134.286 683.982C136.303 679.75 136.353 673.765 134.392 671.173C133.54 670.046 132.925 667.057 132.925 664.045C132.925 660.879 132.392 658.417 131.558 657.724C130.493 656.841 130.217 652.937 130.308 640.102C130.424 623.818 130.398 623.614 128.257 623.614C127.065 623.614 125.468 623.375 124.707 623.084C123.833 622.748 122.707 623.85 121.642 626.084C120.417 628.653 119.316 629.614 117.597 629.614C116.297 629.614 113.75 630.355 111.935 631.26C103.187 635.624 74.9318 632.821 74.9318 627.588C74.9318 626.502 74.5183 625.614 74.0114 625.614C73.5054 625.614 72.7942 624.264 72.4323 622.614C72.0703 620.964 71.3895 619.614 70.9206 619.614C70.4516 619.614 69.7817 618.602 69.4318 617.364C69.0818 616.126 68.1518 613.652 67.3639 611.864C61.3217 598.141 57.111 586.415 56.2301 580.855C55.9452 579.062 55.3138 577.348 54.8249 577.046C54.3349 576.743 53.9347 575.263 53.9347 573.755C53.9347 570.502 52.3097 568.62 49.485 568.599C47.1233 568.582 42.9362 559.126 42.9362 553.809C42.9362 552.117 42.4861 550.454 41.9362 550.114C41.3863 549.774 40.921 548.735 40.902 547.805C40.883 546.875 39.9995 544.314 38.9367 542.114C37.4199 538.973 36.9978 535.896 36.9709 527.781C36.9359 517.047 35.4782 514.33 33.6984 521.682C33.2414 523.57 32.4068 526.033 31.8449 527.157C31.2819 528.281 30.4478 531.656 29.9918 534.657C29.5349 537.658 28.1951 543.489 27.0153 547.614C25.8344 551.739 24.5127 556.689 24.0788 558.614C23.6438 560.539 22.7593 563.097 22.1134 564.298C21.4675 565.5 20.9386 568.001 20.9386 569.857C20.9386 571.713 20.2782 574.105 19.4713 575.173C18.6634 576.24 17.9883 578.467 17.9713 580.121C17.9533 581.774 17.4472 584.699 16.8473 586.621C10.9081 605.616 8.93392 627.138 12.9054 629.593C14.4032 630.519 20.4337 635.787 36.6256 650.319C44.1047 657.032 51.847 663.28 53.8297 664.203C55.8125 665.127 59.3688 667.173 61.7335 668.749C64.0983 670.325 66.2171 671.614 66.4411 671.614C66.665 671.614 71.0166 674.089 76.111 677.114C81.2054 680.139 86.1522 682.614 87.1061 682.614C88.059 682.614 89.9642 683.739 91.339 685.114C92.7138 686.489 94.8716 687.614 96.1344 687.614C97.3963 687.614 101.354 688.563 104.928 689.724C115.919 693.293 118.188 693.916 125.426 695.352C137.912 697.828 138.858 697.862 149.709 696.223C155.601 695.333 164.696 694.406 169.92 694.163C210.378 692.282 231.611 689.632 239.202 685.517C240.187 684.983 241.395 684.795 241.887 685.099C242.838 685.687 250.03 684.367 256.034 682.502C260.028 681.262 260.848 678.433 260.925 665.614C260.943 662.589 261.365 658.314 261.863 656.114C262.849 651.755 264.039 641.541 264.329 634.955C264.429 632.668 265.124 630.059 265.872 629.157C266.973 627.831 267.21 620.167 267.114 589.108C267.019 558.407 267.288 549.576 268.452 545.107C270.245 538.224 270.468 515.574 268.76 513.866C267.346 512.452 267.43 500.376 268.871 497.683C269.441 496.617 269.911 494.253 269.914 492.43C269.918 490.606 270.592 487.825 271.413 486.25C273.183 482.856 273.699 408.614 271.952 408.614C270.769 408.614 270.173 412.429 269.46 424.542C268.51 440.678 259.854 445.178 257.546 430.737C257.206 428.615 256.251 425.582 255.425 423.996C254.599 422.411 253.92 420.427 253.916 419.587C253.913 418.747 252.56 416.582 250.91 414.775C247.08 410.582 246.748 403.688 250.093 397.894C251.934 394.707 252.344 392.152 252.703 381.614C252.937 374.739 253.332 364.052 253.581 357.864C253.908 349.75 253.711 346.614 252.878 346.614C251.394 346.614 236.109 330.688 235.344 328.346C235.026 327.373 233.448 325.135 231.839 323.373C230.229 321.61 228.913 319.438 228.913 318.546C228.913 317.654 227.951 316.067 226.775 315.019C225.599 313.971 224.019 311.652 223.263 309.864C221.495 305.688 220.098 305.768 216.408 310.257ZM234.408 307.621C234.064 308.178 234.711 309.815 235.847 311.259C236.983 312.702 237.912 314.321 237.912 314.855C237.912 315.389 239.261 317.531 240.911 319.614C242.561 321.697 243.911 323.826 243.911 324.344C243.911 325.678 251 331.879 254.183 333.329C256.843 334.541 256.851 334.533 257.511 329.557C257.875 326.813 258.563 324.328 259.041 324.033C262.012 322.196 259.62 319.691 252.91 317.614C249.06 316.422 245.911 315.118 245.911 314.716C245.911 314.314 244.336 313.233 242.411 312.315C240.487 311.397 238.912 310.205 238.912 309.665C238.912 308.128 235.15 306.421 234.408 307.621ZM196.507 309.346C194.906 309.583 192.656 310.373 191.507 311.1C190.216 311.918 187.127 312.317 183.419 312.145C170.195 311.533 169.964 311.7 170.558 321.483C171.009 328.905 172.399 335.614 173.486 335.614C173.663 335.614 175.971 333.474 178.614 330.858C186.875 322.681 197.231 313.615 198.347 313.583C198.936 313.565 200.225 312.44 201.213 311.083C203.218 308.328 203.26 308.343 196.507 309.346ZM266.677 329.599C266.402 333.441 265.727 337.154 265.176 337.849C264.626 338.545 263.839 345.189 263.428 352.614C262.135 375.974 261.828 380.933 261.246 387.843C259.435 409.337 263.306 400.109 267.005 374.118C267.552 370.27 268.43 366.692 268.954 366.168C269.479 365.643 269.928 363.167 269.952 360.664C269.976 358.161 270.643 354.314 271.436 352.114C272.228 349.914 272.884 346.568 272.892 344.678C272.9 342.788 273.856 337.859 275.016 333.725C277.387 325.273 276.171 322.614 269.932 322.614C267.236 322.614 267.166 322.764 266.677 329.599ZM285.53 330.153C285.187 331.046 284.947 332.753 284.996 333.946C285.06 335.482 285.367 335.135 286.052 332.754C287.048 329.293 286.64 327.259 285.53 330.153ZM282.835 425.204C282.796 425.705 282.325 429.714 281.788 434.114C281.251 438.514 280.493 454.762 280.101 470.22C279.647 488.206 278.992 498.827 278.284 499.72C277.517 500.686 276.976 520.87 276.518 565.475C276.096 606.723 275.486 630.532 274.822 631.773C274.251 632.839 273.415 638.348 272.961 644.015C272.507 649.682 271.602 655.316 270.95 656.534C269.767 658.745 269.246 676.286 270.331 677.371C271.734 678.774 287.556 671.988 295.404 666.617C297.604 665.111 301.429 662.724 303.903 661.311C306.378 659.899 309.528 657.695 310.902 656.413C313.493 653.998 325.472 646.614 326.798 646.614C329.56 646.614 333.885 638.25 333.932 632.817C333.949 630.78 334.624 628.24 335.432 627.173C338.676 622.883 337.371 613.614 333.522 613.614C331.665 613.614 329.585 614.289 328.9 615.114C327.915 616.3 325.053 616.614 315.213 616.614C301.096 616.614 295.922 614.507 295.889 608.745C295.866 604.829 294.797 603.797 290.392 603.438C286.405 603.114 286.406 603.114 286.444 585.614C286.474 571.961 286.859 566.92 288.194 562.682C289.135 559.695 289.921 555.645 289.94 553.682C289.96 551.72 290.619 548.989 291.405 547.614C293.258 544.372 293.369 534.991 291.567 533.914C290.203 533.098 288.43 527.683 286.885 519.614C286.412 517.139 286.029 502.964 286.036 488.114C286.046 464.061 286.457 456.306 288.533 440.903C288.994 437.482 288.519 435.53 286.004 430.493C284.3 427.084 282.874 424.704 282.835 425.204ZM261.733 475.919C263.064 478.71 261.949 490.528 260.106 493.163C254.435 501.271 245.88 496.312 247.829 486.048C250.092 474.132 258.098 468.3 261.733 475.919ZM164.681 481.864C170.647 488.232 165.952 507.614 158.442 507.614C153.262 507.614 149.79 494.347 153.895 490.241C154.46 489.676 154.922 488.24 154.922 487.049C154.922 481.175 161.006 477.943 164.681 481.864ZM346.898 522.114C345.523 522.9 342.92 523.559 341.113 523.579C339.307 523.598 336.832 524.253 335.614 525.033C334.397 525.814 330.7 526.754 327.401 527.123C324.101 527.491 319.812 528.193 317.869 528.683C315.82 529.2 312.885 529.203 310.87 528.69C298.813 525.62 293.29 528.59 302.653 533.108C304.716 534.104 307.646 535.553 309.164 536.329C315.679 539.66 333.135 537.55 343.399 532.192C345.048 531.331 347.107 530.624 347.974 530.62C350.404 530.611 353.897 526.293 353.897 523.3C353.897 520.179 351.11 519.706 346.898 522.114ZM114.513 534.475C114.185 535.006 111.782 536.415 109.172 537.605C106.563 538.795 103.235 540.409 101.775 541.191C100.315 541.974 97.941 542.614 96.5002 542.614C95.0583 542.614 91.3187 543.514 88.1901 544.614C85.0585 545.715 79.9376 546.614 76.8 546.614C73.6643 546.614 70.9426 547.085 70.7506 547.661C70.5487 548.265 66.604 548.794 61.4176 548.912C53.5736 549.091 52.4457 549.339 52.5177 550.865C52.9657 560.263 52.1168 559.256 60.6837 560.554C74.877 562.705 77.9174 562.87 79.4782 561.575C80.2971 560.895 82.6471 559.986 84.6989 559.556C92.1769 557.987 99.1051 555.725 101.242 554.155C109.524 548.068 110.418 547.614 114.106 547.614C118.841 547.614 119.501 546.318 118.306 539.381C117.469 534.521 115.811 532.375 114.513 534.475ZM344.399 544.207C336.804 548.208 317.553 550.011 309.523 547.473C306.289 546.45 303.322 545.614 302.93 545.614C301.41 545.614 298.985 552.388 298.521 557.933C298.253 561.134 297.607 564.284 297.083 564.933C294.883 567.663 294.739 586.891 296.923 586.32C299.647 585.607 301.903 589.057 301.903 593.935C301.903 604.09 305.182 606.052 319.902 604.708C335.841 603.253 343.899 597.61 343.899 587.904C343.899 586.855 344.559 585.123 345.366 584.055C346.174 582.988 346.865 580.989 346.902 579.614C346.939 578.239 347.612 575.989 348.398 574.614C349.184 573.239 349.846 569.414 349.869 566.114C349.892 562.814 350.552 558.885 351.335 557.382C352.631 554.896 352.658 547.617 351.384 543.864C350.808 542.165 348.013 542.303 344.399 544.207ZM108.928 562.155C104.505 564.385 98.3491 567.175 92.4298 569.631C88.0074 571.466 76.2099 573.601 73.1183 573.125C63.2336 571.604 62.932 571.628 62.966 573.927C62.983 575.13 63.6576 576.988 64.4655 578.055C65.2724 579.123 65.9475 581.148 65.9655 582.555C65.9825 583.963 66.6571 585.988 67.465 587.055C68.2719 588.123 68.9328 590.078 68.9328 591.401C68.9328 592.723 69.7859 595.004 70.8297 596.469C71.8726 597.934 73.2646 601.153 73.9225 603.623C74.5804 606.093 75.6909 608.789 76.3908 609.614C77.0907 610.439 77.9376 612.274 78.2736 613.692C79.9754 620.887 88.9141 624.098 100.666 621.738C103.743 621.12 107.506 620.614 109.026 620.614C111.386 620.614 112.201 619.788 114.608 614.961C118.307 607.544 119.879 606.595 124.417 609.039C128.575 611.278 129.58 610.699 128.142 606.896C127.564 605.366 126.826 601.888 126.501 599.168C126.176 596.448 125.43 593.925 124.842 593.562C124.255 593.199 123.523 590.925 123.215 588.508C122.908 586.091 122.319 583.664 121.906 583.114C121.494 582.564 120.837 580.539 120.447 578.614C119.48 573.844 115.207 561.473 114.224 560.597C113.786 560.206 111.403 560.907 108.928 562.155ZM258.505 566.72C263.574 572.323 257.299 590.614 250.308 590.614C243.554 590.614 241.672 575.733 247.333 567.091C249.482 563.811 255.687 563.605 258.505 566.72ZM333.583 566.802C333.264 567.599 333.027 567.362 332.979 566.197C332.936 565.143 333.172 564.553 333.504 564.885C333.836 565.217 333.872 566.08 333.583 566.802ZM163.266 573.877C169.064 578.117 167.944 596.202 161.764 598.164C155.501 600.152 150.614 595.15 151.835 588.002C153.817 576.389 158.608 570.47 163.266 573.877ZM41.9733 671.069C40.3555 673.019 40.0025 685.644 41.4953 688.114C42.1612 689.214 42.9962 694.253 43.3522 699.311C43.7092 704.37 44.6577 709.77 45.4616 711.311C46.2655 712.853 46.9258 715.121 46.9298 716.353C46.9358 718.63 48.0874 720.371 53.4347 726.181C59.7769 733.073 81.7685 736.07 85.964 730.614C87.9688 728.007 88.7781 718.256 87.0773 717.205C86.6074 716.915 85.9736 713.362 85.6667 709.311C84.7598 697.307 83.5459 694.645 77.1457 690.614C74.089 688.689 70.8906 686.326 70.0387 685.364C69.1858 684.402 67.9529 683.614 67.298 683.614C66.2031 683.614 56.9142 677.984 54.3166 675.745C50.648 672.584 43.0922 669.722 41.9733 671.069ZM290.789 681.405C287.7 682.895 284.551 684.625 283.79 685.249C283.029 685.873 280.382 686.855 277.907 687.432C268.656 689.588 264.362 690.775 262.781 691.614C261.887 692.089 259.412 692.792 257.282 693.176C251.637 694.195 250.91 695.15 250.91 701.545C250.91 704.997 250.333 707.995 249.443 709.173C248.635 710.24 247.96 711.721 247.943 712.463C247.925 713.205 247.268 715.23 246.483 716.963C240.222 730.783 239.833 732.473 242.411 734.614C243.236 735.299 243.911 736.479 243.911 737.236C243.911 737.994 244.525 738.614 245.276 738.614C246.027 738.614 247.714 739.445 249.026 740.462C256.745 746.442 276.907 740.418 276.907 732.131C276.907 731.353 278.032 729.504 279.405 728.021C283.546 723.553 288.892 714.933 289.544 711.675C289.88 709.992 290.488 708.614 290.894 708.614C292.144 708.614 294.58 700.527 295.864 692.114C296.536 687.714 297.327 682.876 297.62 681.364C298.273 677.999 297.842 678.002 290.789 681.405ZM225.824 725.305C221.208 726.038 219.131 732.188 222.363 735.56C225.224 738.547 225.642 742.268 223.445 745.173C222.638 746.24 221.963 748.133 221.946 749.378C221.928 750.623 221.479 752.423 220.946 753.378C216.514 761.332 216.192 797.615 220.495 804.329C221.275 805.547 221.914 807.186 221.914 807.972C221.914 809.779 224.074 810.614 228.751 810.614C230.772 810.614 233.961 811.054 235.838 811.593C240.656 812.975 249.321 810.325 253.335 806.242C258.416 801.072 262.656 793.152 263.57 787.12C263.904 784.917 264.776 781.989 265.506 780.614C266.236 779.239 267.323 774.739 267.921 770.614C268.519 766.489 269.256 761.44 269.56 759.393C270.027 756.248 270.948 755.118 275.509 752.09C278.478 750.119 280.906 748.081 280.906 747.561C280.906 746.117 279.189 746.433 278.594 747.986C277.687 750.352 269.689 753.44 262.591 754.165C247.607 755.696 232.271 744.581 231.706 731.782C231.394 724.719 231.158 724.459 225.824 725.305ZM97.9294 728.42C97.9294 732.497 92.1566 739.803 86.8073 742.496C78.0504 746.904 43.9357 738.117 43.9357 731.453C43.9357 730.273 41.1832 730.405 40.4323 731.621C39.2714 733.5 43.8809 738.366 49.5622 741.259C55.7124 744.391 56.7174 746.403 58.4762 759.114C58.8572 761.864 59.7259 765.239 60.4079 766.614C61.0898 767.989 61.923 770.56 62.2589 772.328C62.5949 774.096 64.2332 777.426 65.901 779.728C67.5688 782.03 68.9328 784.338 68.9328 784.856C68.9328 788.887 87.4964 806.865 92.4318 807.614C102.307 809.113 109.82 799.385 105.372 790.859C104.585 789.349 103.938 785.616 103.934 782.564C103.931 779.512 103.386 776.472 102.724 775.81C98.6678 771.753 94.3938 745.586 96.9645 740.546C98.0674 738.384 99.411 736.614 99.9489 736.614C100.488 736.614 100.929 734.139 100.929 731.114C100.929 726.892 100.581 725.614 99.4289 725.614C98.452 725.614 97.9294 726.592 97.9294 728.42Z"
  />
</svg>
