<svg
  width="374"
  height="815"
  viewBox="0 0 374 815"
  fill="none"
  xmlns="http://www.w3.org/2000/svg"
>
  <path
    fill-rule="evenodd"
    clip-rule="evenodd"
    fill="black"
    d="M170.208 2.25696C172.183 3.08196 176.613 3.75696 180.053 3.75696C184.393 3.75696 186.688 4.21596 187.552 5.25696C188.237 6.08196 190.231 6.75696 191.983 6.75696C193.736 6.75696 196.042 7.41798 197.11 8.22498C198.177 9.03298 200.059 9.70798 201.291 9.72498C203.937 9.76298 213.549 13.8009 213.549 14.8739C213.549 15.2829 215.629 16.6559 218.171 17.9259C220.714 19.1949 223.012 20.802 223.278 21.496C223.856 23.002 230.547 23.2109 230.547 21.7219C230.547 19.7349 244.368 7.02101 248.931 4.81201C251.462 3.58701 253.787 2.17292 254.097 1.66992C256.136 -1.62908 265.353 3.27296 265.542 7.75696C265.577 8.58196 266.267 10.131 267.075 11.198C267.881 12.266 268.542 14.3479 268.542 15.8259C268.542 17.3039 269.217 20.1279 270.042 22.1029C270.867 24.0769 271.542 26.9709 271.542 28.5339C271.542 30.0959 272.202 32.2479 273.009 33.3159C273.85 34.4279 274.491 37.479 274.509 40.458C274.527 43.319 275.225 48.269 276.061 51.458C276.896 54.648 277.797 61.6169 278.062 66.9449C278.327 72.2739 278.969 77.752 279.489 79.119C280.008 80.486 280.742 88.5009 281.119 96.9309C281.495 105.36 282.18 112.734 282.637 113.316C283.095 113.899 283.597 119.299 283.754 125.316C284.04 136.257 284.04 136.257 286.54 135.757C295.686 133.928 314.959 135.263 316.399 137.826C318.099 140.85 317.444 144.375 314.541 147.823C305.424 158.652 288.04 176.703 281.54 182.09C276.097 186.602 276.039 186.707 275.866 192.452C275.77 195.645 275.395 200.3 275.033 202.797C274.374 207.338 274.373 207.338 278.707 208.297C284.56 209.594 285.309 213.834 280.528 218.615C277.051 222.093 277.235 223.311 281.373 224.22C285.51 225.129 290.517 230.105 290.659 233.451C290.948 240.238 290.369 248.621 289.309 253.005C288.22 257.515 288.294 257.892 290.78 260.505C292.219 262.019 293.723 264.607 294.122 266.257C294.521 267.907 295.114 269.482 295.442 269.757C299.019 272.758 300.284 279.247 297.943 282.589C296.032 285.317 296.61 288.301 300.024 293.332C301.378 295.326 302.769 298.472 303.116 300.322C303.463 302.172 304.375 304.207 305.142 304.844C305.909 305.481 306.552 307.634 306.57 309.629C306.587 311.625 307.261 314.131 308.069 315.198C308.876 316.266 309.537 318.348 309.537 319.826C309.537 321.303 310.2 323.062 311.011 323.735C311.821 324.408 312.752 326.6 313.082 328.607C313.411 330.615 314.057 333.157 314.516 334.257C316.113 338.076 318.692 346.279 319.547 350.257C320.877 356.453 322.591 362.959 323.762 366.257C324.348 367.907 325.099 372.451 325.431 376.355C325.763 380.259 326.633 384.173 327.363 385.052C328.19 386.046 328.884 390.546 329.2 396.954C329.479 402.621 330.06 407.707 330.492 408.257C330.925 408.807 331.548 414.207 331.877 420.257C332.207 426.307 333.165 433.718 334.005 436.725C334.846 439.732 335.541 444.907 335.549 448.225C335.557 451.543 336.213 456.057 337.005 458.257C338.905 463.53 338.936 471.843 337.066 474.316C336.072 475.629 335.579 478.845 335.541 484.257C335.51 488.657 335.01 494.057 334.427 496.257C331.551 507.112 331.565 510.046 334.507 513.257C336.019 514.907 338.949 519.857 341.02 524.257C343.091 528.657 345.403 533.531 346.158 535.088C346.914 536.645 347.535 538.895 347.538 540.088C347.542 541.281 348.283 543.607 349.187 545.257C350.09 546.907 351.179 550.282 351.607 552.757C352.615 558.586 354.48 565.477 356.074 569.257C357.431 572.476 359.179 580.179 360.385 588.257C360.796 591.007 361.649 594.157 362.282 595.257C362.915 596.357 363.877 600.182 364.419 603.757C364.961 607.332 365.864 612.282 366.424 614.757C366.984 617.232 367.462 621.133 367.486 623.426C367.51 625.719 368.167 628.869 368.945 630.426C369.724 631.983 370.868 635.732 371.49 638.757C372.112 641.782 372.875 645.489 373.186 646.994C374.438 653.048 372.949 655.085 367.725 654.467C363.749 653.996 362.26 654.359 358.03 656.833C355.28 658.441 351.457 660.452 349.532 661.302C347.607 662.151 345.132 663.243 344.033 663.726C342.933 664.21 340.908 664.829 339.533 665.1C330.072 666.97 329.082 667.975 328.396 676.409C328.045 680.726 327.277 686.282 326.689 688.757C326.102 691.232 325.603 696.43 325.579 700.307C325.555 704.185 325.053 707.839 324.465 708.427C323.704 709.188 324.283 710.942 326.465 714.488C332.163 723.751 327.536 734.9 316.271 739.055C315.3 739.413 314.031 740.954 313.452 742.48C312.872 744.005 311.83 745.929 311.137 746.755C309.147 749.125 306.765 756.733 306.052 762.991C305.692 766.145 304.98 768.984 304.468 769.3C303.957 769.616 303.522 770.861 303.503 772.066C303.398 778.855 292.273 793.864 280.224 803.473C272.43 809.687 260.397 807.057 254.197 797.784C252.13 794.693 251.951 782.716 253.889 777.133C254.667 774.89 255.289 768.475 255.365 761.907C255.457 753.969 255.955 749.64 257.019 747.504C257.857 745.824 258.559 742.831 258.578 740.853C258.597 738.875 259.48 735.457 260.543 733.257C262.873 728.433 263.154 719.947 261.075 717.198C255.857 710.298 261.679 697.854 270.156 697.789C274.9 697.752 276.093 694.216 274.865 683.837C274.187 678.115 273.228 676.942 270.845 678.921C269.96 679.656 267.197 680.315 264.707 680.385C262.217 680.455 256.998 681.225 253.112 682.095C219.349 689.655 154.015 693.702 147.884 688.614C146.85 687.756 141.932 687.192 133.195 686.929C125.971 686.713 119.504 686.085 118.824 685.534C114.648 682.155 113.261 696.314 117.313 700.97C118.133 701.912 118.514 703.438 118.16 704.361C117.076 707.184 118.357 709.187 122.805 711.625C130.684 715.945 133.32 725.96 129.175 735.821C127.927 738.791 127.925 739.695 129.164 742.663C137.159 761.8 126.185 790.59 106.042 803.324C103.579 804.881 101.563 806.516 101.563 806.956C101.563 807.397 100.943 807.757 100.185 807.757C99.428 807.757 98.2725 808.403 97.6166 809.193C96.9617 809.982 94.9938 810.932 93.245 811.304C91.4952 811.676 89.2953 812.658 88.3544 813.487C81.1063 819.877 72.6295 802.356 77.8778 791.833C78.7167 790.152 79.6909 787.31 80.0429 785.517C80.3948 783.724 81.1796 781.249 81.7875 780.017C82.6024 778.366 82.5831 776.79 81.7162 774.017C80.3334 769.597 78.5997 758.02 77.8998 748.532C77.4118 741.915 77.3261 741.742 72.4857 737.689C66.7014 732.845 65.8991 728.019 69.6757 720.773C71.9904 716.331 71.7066 710.948 69.0409 708.735C68.23 708.062 67.5673 706.961 67.5673 706.288C67.5673 705.614 66.6671 704.025 65.5673 702.757C64.4674 701.489 63.5678 699.485 63.5678 698.304C63.5678 697.123 63.0906 695.68 62.5087 695.098C61.9257 694.515 61.3637 689.702 61.2587 684.401C61.1027 676.507 60.7912 674.762 59.5414 674.76C58.7005 674.758 57.1257 674.143 56.0419 673.392C54.957 672.641 51.3693 671.698 48.0697 671.296C44.7701 670.893 41.4844 670.083 40.7675 669.494C37.9788 667.204 26.9653 665.954 21.035 667.255C13.019 669.014 13.0572 669.243 13.2152 619.812C13.3062 591.123 13.7297 574.747 14.4276 572.978C15.6005 569.999 16.7006 544.013 15.6727 543.546C13.529 542.572 6.57136 528.5 6.54237 525.082C6.52537 522.978 5.85075 520.383 5.04285 519.316C4.01598 517.958 3.57508 514.786 3.57508 508.757C3.57508 502.728 3.13467 499.556 2.1078 498.198C0.174037 495.642 0.160809 484.184 2.07557 471.757C3.07244 465.289 3.55525 453.798 3.58924 435.757C3.62924 414.352 3.9143 408.893 5.07215 407.363C6.18801 405.889 6.50884 401.601 6.52283 388.002C6.53583 374.414 6.87667 369.858 8.05653 367.492C8.89142 365.819 9.57459 363.448 9.57459 362.225C9.57459 361.001 11.1493 357.384 13.0741 354.187C14.9989 350.99 16.5878 347.223 16.6058 345.816C16.6228 344.408 17.2975 342.383 18.1054 341.316C18.9123 340.248 19.5731 338.166 19.5731 336.688C19.5731 335.211 20.2482 333.442 21.0731 332.757C21.898 332.072 22.5726 330.092 22.5726 328.357C22.5726 326.622 23.3479 324.095 24.2958 322.742C26.5755 319.486 35.5712 301.212 35.5712 299.835C35.5712 299.242 36.0122 298.757 36.5512 298.757C37.951 298.757 41.5702 291.292 41.5702 288.404C41.5702 287.066 42.2453 285.712 43.0702 285.395C43.8951 285.079 44.574 284.243 44.58 283.538C44.592 281.984 48.8024 273.392 51.578 269.257C52.6859 267.607 53.8556 265.501 54.1786 264.576C54.5016 263.652 55.397 262.653 56.1679 262.358C57.7347 261.756 58.0747 256.678 56.6459 255.207C56.1379 254.684 55.2787 252.007 54.7357 249.257C54.1938 246.507 52.5929 241.107 51.1801 237.257C49.7672 233.407 48.6027 229.331 48.5907 228.198C48.5787 227.066 47.9088 225.266 47.1019 224.198C46.294 223.131 45.6189 221.458 45.6019 220.482C45.5839 219.506 44.6701 216.146 43.5702 213.017C42.4703 209.887 41.5702 205.916 41.5702 204.192C41.5702 198.45 35.1449 191.078 26.83 187.281C23.7433 185.871 8.36572 171.954 5.70106 168.159C1.3476 161.959 3.33737 154.137 9.97254 151.364C11.8193 150.592 13.6182 149.495 13.9691 148.926C14.838 147.521 25.3047 145.271 29.3222 145.626C33.0757 145.958 32.7728 147.626 32.4799 128.257C31.9069 90.27 32.5343 63.6479 34.0551 61.4759C34.927 60.2309 35.5712 57.1519 35.5712 54.2259C35.5712 51.3009 36.1951 48.314 37.0389 47.198C37.8468 46.131 38.5238 43.907 38.5448 42.257C38.5658 40.607 39.2556 37.9679 40.0765 36.3929C40.8984 34.8169 41.5702 33.067 41.5702 32.502C41.5702 30.437 45.9597 22.757 47.1395 22.757C47.8085 22.757 48.6146 22.082 48.9315 21.257C49.2475 20.432 50.5906 19.757 51.9154 19.757C53.2402 19.757 54.8838 20.432 55.5687 21.257C56.2536 22.082 57.8284 22.757 59.0682 22.757C60.3081 22.757 61.8828 23.432 62.5678 24.257C63.2527 25.082 64.4305 25.757 65.1874 25.757C65.9433 25.757 68.3052 27.332 70.4349 29.257C72.5657 31.182 74.7044 32.7749 75.1874 32.7959C75.6713 32.8169 77.5433 34.8419 79.348 37.2959C83.3935 42.7969 83.3026 42.7989 88.12 37.0439C96.442 27.0999 107.83 16.757 110.456 16.757C111.064 16.757 111.562 16.3309 111.562 15.8099C111.562 15.2889 113.838 13.7179 116.622 12.3199C119.405 10.9219 122.361 9.09894 123.192 8.26794C124.023 7.43694 125.362 6.75696 126.167 6.75696C126.972 6.75696 128.694 6.06001 129.994 5.20801C131.297 4.35401 135.206 3.50792 138.707 3.32092C142.2 3.13592 146.182 2.51096 147.557 1.93396C151.428 0.307959 166.044 0.516957 170.208 2.25696ZM146.22 12.9259C145.209 13.4919 142.734 13.7469 140.72 13.4929C138.706 13.2389 135.934 13.6109 134.559 14.3209C133.184 15.0299 128.525 17.321 124.207 19.412C119.888 21.504 114.32 25.024 111.833 27.236C105.533 32.839 92.5639 45.672 92.5639 46.303C92.5639 46.59 91.3261 48.059 89.8143 49.567C86.9687 52.406 78.0098 63.198 76.7699 65.281C74.6252 68.886 68.8449 69.6829 67.681 66.5349C66.4572 63.2269 67.5964 60.462 72.3168 55.287C74.6535 52.725 76.5658 50.318 76.5658 49.938C76.5658 46.486 58.0221 31.757 53.6757 31.757C52.2928 31.757 47.5697 41.4 47.5697 44.225C47.5697 45.492 46.8975 47.8169 46.0756 49.3929C45.2547 50.9679 44.5801 54.199 44.5761 56.573C44.5731 58.946 44.168 61.646 43.6781 62.573C41.5094 66.665 40.5214 92.143 41.6732 114.257C42.3031 126.357 42.787 138.127 42.747 140.414C42.679 144.388 47.5289 146.757 55.7308 146.757C56.3068 146.757 54.9436 137.32 53.4188 130.757C50.2722 117.214 50.6752 90.909 54.0687 88.309C58.7132 84.751 60.0204 86.434 60.6273 96.757C60.9343 101.982 61.2709 105.335 61.3768 104.207C61.6358 101.434 63.4877 99.757 66.2924 99.757C69.568 99.757 70.8797 103.634 69.4379 109.056C68.823 111.367 67.9741 119.107 67.5502 126.257C67.1262 133.407 66.4763 140.607 66.1054 142.257C65.7344 143.907 65.8673 147.184 66.4003 149.539C67.0832 152.558 67.0073 155.214 66.1434 158.539C63.5748 168.429 64.7844 189.307 68.119 192.643C71.4726 195.997 73.4462 194.771 73.5702 189.257C73.6072 187.607 74.2804 185.132 75.0663 183.757C75.8522 182.382 76.5145 180.132 76.5375 178.757C76.5605 177.382 77.1767 175.11 77.9086 173.708C78.6395 172.306 79.5231 169.09 79.869 166.562C80.216 164.033 81.1474 160.456 81.9393 158.611C82.7312 156.766 84.1418 152.332 85.0726 148.757C87.8703 138.018 88.1386 137.589 91.8212 137.944C95.7057 138.319 97.1147 145.704 94.119 149.982C93.2641 151.203 92.5791 153.114 92.5971 154.23C92.648 157.316 95.9194 153.056 98.1561 146.991C99.116 144.387 100.501 141.547 101.232 140.678C101.964 139.81 102.563 138.394 102.563 137.531C102.563 136.668 103.858 133.329 105.439 130.11C107.021 126.891 108.651 123.132 109.061 121.757C109.471 120.382 110.151 118.807 110.571 118.257C110.992 117.707 111.668 115.232 112.074 112.757C112.48 110.282 113.431 107.369 114.186 106.284C114.942 105.2 115.576 102.95 115.594 101.284C115.611 99.6189 116.285 97.3829 117.093 96.3159C117.917 95.2259 118.561 92.238 118.561 89.5C118.561 86.819 119.049 83.711 119.648 82.593C120.246 81.476 120.918 76.018 121.142 70.465C121.597 59.154 121.922 58.479 126.683 58.934C130.795 59.327 131.922 70.4699 129.102 82.8669C128.254 86.5989 127.557 90.913 127.554 92.454C127.55 93.996 126.875 96.546 126.054 98.121C125.232 99.697 124.544 102.622 124.525 104.621C124.505 106.621 123.846 109.382 123.06 110.757C122.275 112.132 121.616 114.271 121.596 115.511C121.577 116.75 120.66 119.443 119.56 121.496C118.461 123.548 117.561 125.769 117.561 126.431C117.561 127.092 116.272 130.024 114.696 132.945C109.491 142.598 109.756 146.443 115.408 143.264C116.867 142.443 119.186 141.319 120.56 140.766C123.107 139.743 123.81 139.336 131.359 134.507C133.723 132.994 135.858 131.757 136.099 131.757C136.517 131.757 144.92 125.709 147.057 123.871C157.077 115.248 160.649 109.706 159.982 103.816C158.663 92.1589 162.581 85.789 166.015 94.007C166.762 95.794 168.249 98.382 169.319 99.757C170.39 101.132 171.583 103.987 171.972 106.103C172.632 109.686 174.656 112.295 180.431 117.007C181.611 117.97 182.972 118.757 183.456 118.757C183.941 118.757 184.597 119.432 184.914 120.257C185.297 121.256 186.919 121.772 189.771 121.801C192.125 121.825 195.825 122.477 197.992 123.249C202.252 124.767 217.548 126.427 217.548 125.371C217.548 125.017 216.158 122.263 214.459 119.251C210.09 111.511 210.051 102.757 214.386 102.757C217.742 102.757 220.548 105.693 220.548 109.207C220.548 111.25 221.129 112.766 222.048 113.119C222.873 113.435 223.548 114.833 223.548 116.226C223.548 117.618 223.915 118.757 224.363 118.757C224.811 118.757 225.928 120.332 226.846 122.257C229.565 127.96 230.491 126.484 230.268 116.8C230.04 106.888 230.9 104.805 234.439 106.7C235.676 107.362 236.546 108.81 236.546 110.209C236.546 111.519 237.037 112.754 237.638 112.954C238.237 113.154 239.081 116.517 239.51 120.426C239.939 124.335 240.536 127.933 240.837 128.42C241.93 130.188 243.835 148.622 245.654 175.018C246.643 189.365 247.001 191.525 248.145 190.018C248.88 189.049 249.495 187.201 249.512 185.911C249.53 184.621 250.167 182.371 250.928 180.911C253.037 176.865 254.896 167.101 255.145 158.757C255.495 147.031 256.24 141.217 257.688 138.896C258.758 137.182 258.779 136.364 257.789 134.78C257.097 133.67 256.308 127.637 255.993 121.03C255.433 109.322 253.51 97.441 251.093 90.757C247.912 81.957 247.296 79.978 246.443 75.813C244.553 66.587 252.268 63.356 254.884 72.278C255.365 73.917 256.356 76.607 257.088 78.257C257.82 79.907 258.711 83.167 259.068 85.502C259.425 87.836 260.128 89.9999 260.63 90.3109C261.132 90.6209 261.543 92.548 261.543 94.594C261.543 96.639 262.174 99.212 262.944 100.313C264.339 102.304 266.168 121.222 265.727 129.095C265.219 138.182 269.22 143.679 273.341 139.557C275.035 137.863 274.95 114.22 273.232 109.133C272.487 106.924 271.827 99.7159 271.697 92.3729C271.572 85.2879 271.055 78.7149 270.548 77.7679C270.041 76.8209 269.13 70.919 268.524 64.652C267.917 58.385 267.001 51.682 266.487 49.757C265.973 47.832 265.548 44.457 265.541 42.257C265.535 40.057 264.858 36.9679 264.037 35.3929C263.215 33.8169 262.543 31.205 262.543 29.588C262.543 27.971 261.691 24.7589 260.649 22.4519C259.608 20.1449 258.595 17.405 258.399 16.364C257.695 12.624 254.881 12.0599 251.776 15.0349C250.213 16.5319 248.603 17.757 248.197 17.757C246.761 17.757 236.546 28.4339 236.546 29.9349C236.546 30.7729 237.85 32.457 239.443 33.678C241.596 35.329 242.515 37.072 243.025 40.475C243.403 42.992 244.102 45.7719 244.58 46.6539C248.865 54.5669 249.974 61.7549 247.32 64.4099C243.989 67.7409 239.188 62.2189 236.574 52.0489C235.979 49.7349 235.054 47.571 234.519 47.24C233.984 46.91 233.546 45.107 233.546 43.235C233.546 40.181 224.401 31.757 221.087 31.757C220.773 31.757 217.711 29.7139 214.283 27.2159C210.854 24.7189 206.925 22.407 205.55 22.078C204.175 21.75 202.6 21.174 202.05 20.799C201.5 20.424 199.026 19.542 196.551 18.84C194.076 18.137 191.226 17.1279 190.217 16.5979C183.819 13.2359 150.613 10.4649 146.22 12.9259ZM161.056 124.372C158.306 127.356 153.806 131.382 151.057 133.318C148.307 135.254 143.808 138.658 141.058 140.881C138.308 143.105 134.709 145.575 133.059 146.37C129.103 148.277 123.301 151.71 122.11 152.849C121.537 153.397 123.986 153.757 128.288 153.757C132.889 153.757 135.888 154.229 136.746 155.088C137.479 155.821 139.311 156.729 140.818 157.107C142.325 157.486 143.557 158.201 143.557 158.697C143.557 159.192 144.908 159.895 146.557 160.257C149.775 160.964 150.099 162.028 149.591 170.213C148.714 184.309 124.116 191.205 117.378 179.244C115.513 175.934 114.396 175.159 110.226 174.276C108.666 173.946 106.304 172.589 104.976 171.262C100.496 166.781 102.846 156.988 107.41 161.119C109.962 163.429 112.059 163.154 113.34 160.344C113.944 159.016 115.325 157.649 116.408 157.306C117.49 156.962 118.648 155.973 118.98 155.108C119.437 153.917 119.156 153.705 117.822 154.235C116.854 154.62 113.49 155.309 110.348 155.765C103.612 156.744 102.563 157.271 102.563 159.681C102.563 160.675 101.733 162.56 100.719 163.872C99.7038 165.184 98.0555 168.43 97.0536 171.086C96.0517 173.742 93.9556 177.676 92.3978 179.828C90.839 181.979 89.5643 184.351 89.5643 185.098C89.5643 185.846 88.2047 188.335 86.5419 190.63C83.8182 194.39 83.6951 194.867 85.2919 195.457C88.1195 196.5 101.567 210.035 102.192 212.466C102.504 213.681 103.39 215.199 104.161 215.838C104.931 216.478 105.562 217.876 105.562 218.944C105.562 221.65 115.125 230.757 117.967 230.757C119.421 230.757 120.649 231.658 121.378 233.257C122.593 235.924 124.462 236.455 126.27 234.647C128.567 232.35 176.435 233.293 179.69 235.7C182.469 237.755 182.469 237.755 185.261 234.256C186.796 232.332 188.813 230.757 189.743 230.757C190.673 230.757 191.694 230.336 192.012 229.822C193.59 227.267 204.004 223.757 210.003 223.757C217.669 223.757 229.547 212.982 229.547 206.027C229.547 204.998 229.943 203.73 230.426 203.207C232.47 200.997 233.728 194.047 233.726 184.967C233.724 179.626 234.138 174.755 234.645 174.142C235.225 173.44 235.009 171.956 234.063 170.142C233.235 168.555 232.557 166.312 232.553 165.156C232.547 163.209 230.665 156.757 230.103 156.757C227.511 156.757 223.548 160.348 223.548 162.695C223.548 165.332 221.752 168.281 217.087 173.306C212.528 178.216 201.106 177.614 195.142 172.149C183.259 161.262 197.61 144.934 218.216 145.894C227.356 146.32 228.379 145.208 223.629 140.007C220.99 137.118 220.072 136.758 215.355 136.767C208.153 136.78 188.408 133.682 186.552 132.247C185.727 131.608 183.478 130.491 181.553 129.763C179.628 129.035 177.153 127.624 176.054 126.628C174.954 125.631 172.576 123.452 170.77 121.786C166.657 117.993 167.024 117.895 161.056 124.372ZM288.789 146.463C286.385 146.926 285.855 148.215 287.62 149.307C291.344 151.608 285.805 158.329 279.577 159.066C267.797 160.462 265.78 162.681 260.547 180.007C259.141 184.662 264.173 182.995 270.971 176.553C272.582 175.027 274.666 173.535 275.602 173.238C277.061 172.775 294.539 156.135 294.539 155.21C294.539 155.029 295.889 153.402 297.538 151.596C302.508 146.154 299.512 144.397 288.789 146.463ZM21.0531 157.789C20.8011 158.197 19.0156 158.827 17.0848 159.189C12.2864 160.089 12.6031 161.115 19.8812 168.252C27.9582 176.173 37.8217 182.757 41.6112 182.757C43.673 182.757 45.1511 183.623 46.7279 185.757C49.9505 190.117 57.2683 190.315 55.9325 186.007C55.4626 184.494 55.1046 180.669 55.1366 177.507C55.2006 171.029 56.0097 171.483 44.8871 171.745C31.7907 172.052 31.7688 161.649 44.8632 160.71C52.7692 160.143 55.0339 159.281 52.5902 157.77C50.8814 156.714 21.707 156.731 21.0531 157.789ZM204.8 159.341C201.119 162.242 200.908 162.972 203.121 165.186C205.413 167.477 208.687 167.112 211.809 164.217C218.136 158.349 211.72 153.886 204.8 159.341ZM127.06 164.658C124.192 165.292 122.817 170.347 124.936 172.467C125.958 173.488 136.499 173.217 137.574 172.142C139.416 170.299 133.15 163.036 130.441 163.875C130.231 163.94 128.71 164.292 127.06 164.658ZM263.123 193.628C262.827 194.107 261.22 194.772 259.553 195.105C256.621 195.691 256.138 196.347 253.544 203.257C253.131 204.357 252.287 206.516 251.669 208.054C251.05 209.592 250.544 211.055 250.544 211.304C250.544 212.289 254.211 211.679 256.071 210.385C257.156 209.63 259.468 208.703 261.209 208.324C262.951 207.945 264.612 207.018 264.901 206.263C267.509 199.467 266.026 188.93 263.123 193.628ZM68.7352 201.412C68.0023 203.147 67.5622 205.622 67.7572 206.912C68.3251 210.672 70.7748 205.574 70.3768 201.461C70.0669 198.257 70.0671 198.257 68.7352 201.412ZM50.5692 202.102C50.5692 202.841 51.4585 206.104 52.5443 209.352C53.6312 212.6 54.5308 216.183 54.5438 217.316C54.5578 218.448 55.2296 220.248 56.0365 221.316C56.8444 222.383 57.519 224.858 57.536 226.816C57.554 228.773 58.2291 231.248 59.036 232.316C59.8439 233.383 60.519 235.314 60.536 236.606C60.554 237.898 61.1897 240.373 61.9506 242.106C62.7105 243.839 64.3142 248.298 65.5131 252.014C66.7119 255.731 68.337 260.006 69.1239 261.514C69.9108 263.023 70.5569 265.276 70.5609 266.521C70.5639 267.766 70.9836 269.566 71.4926 270.521C72.9744 273.302 75.6522 281.89 76.4911 286.556C76.916 288.92 77.782 291.373 78.4149 292.006C79.0478 292.639 79.5687 294.53 79.5717 296.207C79.5757 297.885 80.2716 300.587 81.1185 302.212C81.9664 303.838 82.9254 307.213 83.2504 309.712C83.5753 312.212 84.1778 314.707 84.5897 315.257C85.0017 315.807 85.654 318.169 86.0399 320.507C86.4379 322.923 87.292 324.757 88.018 324.757C90.3497 324.757 94.4808 328.802 95.4677 332.052C97.0135 337.14 99.527 343.986 101.108 347.408C101.908 349.141 102.563 351.681 102.563 353.051C102.563 354.422 103.237 355.802 104.062 356.119C105.261 356.579 105.571 355.749 105.606 351.976C105.63 349.38 106.298 345.457 107.091 343.257C107.995 340.747 108.538 335.345 108.547 328.757C108.555 322.982 109.248 314.673 110.087 310.292C111.923 300.692 111.763 300.157 106.62 298.773C97.0417 296.193 92.0998 285.947 92.7987 270.113C93.2297 260.333 93.0562 258.533 91.4364 256.076C90.4135 254.525 89.5604 251.682 89.5394 249.757C89.5184 247.832 88.8405 245.383 88.0326 244.316C86.5048 242.295 86.0428 234.125 87.3417 232.084C87.7516 231.438 90.9031 230.592 94.3436 230.202C100.599 229.495 100.599 229.495 97.9183 224.876C96.4435 222.335 94.921 220.032 94.535 219.757C94.1491 219.482 93.539 218.313 93.1801 217.159C92.8201 216.005 91.4091 214.552 90.0453 213.93C88.6805 213.309 87.5648 212.377 87.5648 211.86C87.5648 211.343 85.9331 209.912 83.9393 208.679C79.4029 205.875 76.6258 208.411 76.5878 215.393C76.5758 217.667 75.894 220.817 75.0722 222.393C74.2513 223.968 73.5762 226.783 73.5722 228.647C73.5652 232.452 69.9798 240.384 67.9081 241.18C65.2284 242.208 61.9227 234.844 61.2958 226.447C60.9758 222.151 60.1791 217.993 59.5272 217.207C58.8743 216.421 58.1484 212.984 57.9135 209.57C57.6785 206.156 56.9996 202.777 56.4047 202.06C54.9808 200.344 50.5692 200.376 50.5692 202.102ZM191.121 210.178C192.797 216.857 188.579 219.348 173.912 220.341C161.652 221.172 158.826 220.596 157.455 216.991C155.792 212.618 159.01 210.757 168.237 210.757C173.535 210.757 176.132 210.322 177.197 209.257C179.934 206.519 190.377 207.21 191.121 210.178ZM248.243 224.773C242.349 227.014 240.546 228.444 240.546 230.879C240.546 233.142 241.328 233.211 245.183 231.288C252.142 227.816 257.906 234.353 252.341 239.405C249.961 241.566 238.708 245.733 235.102 245.789C233.972 245.806 232.173 246.481 231.106 247.289C230.038 248.096 227.927 248.757 226.415 248.757C223.028 248.757 222.432 249.67 221.95 255.588C221.741 258.156 221.121 264.698 220.573 270.126C219.39 281.846 219.164 281.316 225.717 282.185C228.585 282.566 231.408 283.178 231.99 283.546C236.112 286.154 251.71 284.032 261.371 279.547C264.19 278.239 266.731 277.745 268.658 278.13C270.925 278.584 271.742 278.316 272.152 276.99C272.446 276.037 273.098 274.488 273.598 273.547C274.235 272.349 274.069 271.592 273.043 271.018C268.871 268.683 271.62 258.699 275.976 260.371C277.009 260.767 277.63 260.078 278.028 258.098C278.341 256.535 279.056 253.907 279.615 252.257C284.509 237.821 281.975 233.873 267.25 232.998C257.576 232.422 255.544 231.127 255.544 225.534C255.544 222.327 254.863 222.256 248.243 224.773ZM230.797 232.788C228.774 233.601 227.601 235.757 229.181 235.757C231.846 235.757 237.425 233.297 236.332 232.603C234.745 231.596 233.674 231.631 230.797 232.788ZM198.551 238.212C188.465 243.505 185.654 250.266 185.588 269.385C185.551 280.077 187.056 285.969 190.128 287.148C192.403 288.021 203.049 283.992 205.798 281.218C211.121 275.846 211.031 276.22 211.393 257.947C211.842 235.343 209.85 232.281 198.551 238.212ZM97.9452 244.053C98.2702 245.265 98.5422 246.976 98.5492 247.854C98.5572 248.732 99.463 250.489 100.563 251.757C101.663 253.025 102.563 254.425 102.563 254.868C102.563 255.311 104.588 256.859 107.062 258.31C112.065 261.242 112.209 261.605 110.036 265.807C108.866 268.071 107.819 268.757 105.537 268.757C101.303 268.757 101.025 279.051 105.113 284.413C110.451 291.413 112.623 289.371 112.224 277.727C111.994 271.007 112.295 266.898 113.136 265.276C117.086 257.661 116.024 250.404 110.404 246.608C103.673 242.062 97.0463 240.703 97.9452 244.053ZM131.202 245.232C126.591 246.578 124.644 249.614 124.595 255.539C124.576 257.894 123.885 261.437 123.06 263.411C121.095 268.117 120.978 287.789 122.893 291.603C123.627 293.063 124.871 295.589 125.66 297.218C129.119 304.365 146.29 303.453 162.555 295.259C165.03 294.012 168.171 292.651 169.536 292.234C170.899 291.817 173.374 290.528 175.035 289.37C176.694 288.211 178.187 287.203 178.352 287.128C179.035 286.819 177.265 281.757 176.474 281.757C175.545 281.757 166.999 287.423 164.704 289.561C162.018 292.063 158.092 290.634 157.744 287.027C157.434 283.811 160.014 278.871 162.056 278.771C162.605 278.744 164.145 277.573 165.478 276.169C166.811 274.764 170.064 272.519 172.709 271.178C177.517 268.742 177.518 268.742 177.405 263.749C177.293 258.757 177.292 258.757 163.674 258.742C149.14 258.725 148.219 258.515 147.109 254.958C145.367 249.379 148.413 247.764 160.828 247.687C172.471 247.614 178.524 246.539 173.554 245.427C168.334 244.259 135.06 244.106 131.202 245.232ZM62.6747 275.832C62.6157 277.249 60.5349 281.026 58.0502 284.226C52.8228 290.958 52.7888 292.729 57.6952 302.859C59.275 306.12 60.5682 309.051 60.5682 309.371C60.5682 310.54 68.8118 326.79 69.6757 327.324C70.1656 327.627 70.5668 328.606 70.5668 329.5C70.5668 331.449 74.3604 339.512 75.6532 340.31C76.1551 340.621 76.5658 341.55 76.5658 342.376C76.5658 343.202 78.141 345.94 80.0658 348.461C81.9906 350.982 83.5805 353.992 83.5985 355.151C83.6295 357.116 86.6872 361.757 87.9511 361.757C88.261 361.757 88.0769 360.603 87.5399 359.192C87.004 357.781 86.562 355.644 86.559 354.442C86.555 353.24 85.8799 350.968 85.059 349.393C84.2371 347.817 83.5653 345.555 83.5653 344.365C83.5653 343.175 82.9543 341.314 82.2074 340.23C81.4605 339.145 80.5205 336.457 80.1176 334.257C79.7156 332.057 79.0367 329.807 78.6097 329.257C78.1818 328.707 77.5219 325.822 77.143 322.846C76.764 319.871 75.805 316.508 75.0101 315.374C74.2162 314.24 73.5501 311.95 73.5311 310.284C73.5111 308.619 72.8527 306.132 72.0668 304.757C71.2809 303.382 70.6219 301.042 70.6019 299.557C70.5829 298.072 69.9586 296.497 69.2167 296.057C68.4738 295.617 67.5903 292.847 67.2514 289.901C66.9134 286.955 66.215 284.03 65.7011 283.401C65.1871 282.772 64.3197 280.232 63.7748 277.757C63.1099 274.744 62.7467 274.108 62.6747 275.832ZM279.74 280.81C279.046 281.921 277.322 283.27 275.908 283.808C274.34 284.404 273.544 285.321 273.867 286.161C274.21 287.055 273.456 287.728 271.718 288.085C266.789 289.094 265.763 290.744 265.083 298.757C264.445 306.257 264.445 306.257 267.009 303.257C268.419 301.607 270.168 299.582 270.895 298.757C271.623 297.932 274.202 294.612 276.629 291.379C284.513 280.875 284.025 281.814 282.43 280.218C281.192 278.98 280.833 279.059 279.74 280.81ZM206.55 293.057C199.168 297.386 194.102 299.037 190.577 298.262C187.747 297.641 187.681 297.711 188.546 300.439C190.814 307.592 192.344 310.858 194.848 313.88C196.335 315.674 197.551 317.588 197.551 318.132C197.551 319.527 213.433 334.645 216.641 336.305C220.459 338.28 220.547 337.944 220.556 321.34C220.562 309.395 220.959 304.957 222.464 300.007C223.779 295.682 224.008 293.747 223.206 293.723C222.569 293.704 220.248 292.82 218.048 291.757C212.908 289.274 213.024 289.261 206.55 293.057ZM230.321 294.316C229.925 294.712 229.901 295.521 230.268 296.114C230.634 296.707 230.809 307.622 230.656 320.37C230.35 345.801 230.994 354.757 233.126 354.757C235.055 354.757 236.546 358.034 236.546 362.275C236.546 369.631 240.449 363.426 242.662 352.549C243.189 349.959 244.276 346.584 245.077 345.049C245.877 343.513 246.535 340.621 246.539 338.621C246.542 336.622 247.217 333.697 248.039 332.121C248.86 330.546 249.534 327.435 249.538 325.207C249.541 322.98 249.958 320.73 250.463 320.207C250.969 319.685 251.87 316.578 252.467 313.303C253.063 310.029 254 306.901 254.548 306.353C255.096 305.805 255.544 302.747 255.544 299.557C255.544 293.757 255.544 293.757 250.603 293.757C247.886 293.757 245.358 294.25 244.986 294.853C244.584 295.503 242.934 295.706 240.927 295.353C239.067 295.025 236.082 294.496 234.293 294.176C232.505 293.857 230.717 293.92 230.321 294.316ZM286.526 296.039C281.548 300.046 267.075 321.225 261.394 332.817C259.29 337.111 257.112 340.905 256.556 341.249C256 341.593 255.529 343.311 255.51 345.066C255.491 346.821 254.607 350.057 253.544 352.257C252.481 354.457 251.597 357.054 251.578 358.029C251.559 359.004 250.194 362.778 248.544 366.417C246.895 370.056 245.545 373.544 245.545 374.167C245.545 376.486 239.474 382.632 236.877 382.942C234.594 383.216 234.205 383.784 233.924 387.257C232.595 403.688 230.99 408.757 227.115 408.757C221.471 408.757 220.548 404.564 220.548 378.923C220.548 353.739 219.778 349.533 214.944 348.32C211.108 347.357 189.955 326.251 186.977 320.417C185.529 317.579 183.049 312.782 181.466 309.757C179.882 306.732 178.579 303.47 178.57 302.507C178.532 298.6 171.766 302.584 167.5 309.025C165.833 311.542 162.743 315.161 160.634 317.068C158.524 318.974 156.63 321.003 156.426 321.577C154.855 325.999 125.37 355.348 119.908 357.926C115.755 359.886 115.756 359.886 115.409 368.787C114.993 379.45 113.641 381.678 108.648 379.937C105.562 378.861 105.562 378.861 105.443 425.559C105.118 553.172 105.281 578.381 106.457 583.296C107.11 586.025 108.047 592.757 108.539 598.257C109.031 603.757 109.676 609.382 109.973 610.757C110.269 612.132 110.987 616.757 111.568 621.035C112.149 625.312 113.71 631.837 115.036 635.535C116.361 639.232 117.915 646.757 118.488 652.257C119.062 657.757 119.781 663.832 120.089 665.757C120.396 667.682 120.861 670.652 121.121 672.357C121.594 675.458 121.595 675.458 131.095 676.082C136.319 676.425 141.507 677.194 142.623 677.792C146.977 680.122 216.947 679.331 219.854 676.918C220.612 676.289 221.466 676.008 221.751 676.294C222.037 676.579 223.408 676.381 224.798 675.852C228.091 674.6 228.396 672.446 229.561 642.257C230.07 629.057 230.969 616.682 231.558 614.757C232.147 612.832 232.558 609.007 232.469 606.257C232.381 603.507 232.562 594.507 232.874 586.257C233.185 578.007 233.464 570.502 233.493 569.578C233.573 567.038 236.251 564.867 238.56 565.471C241.672 566.285 242.736 569.277 242.52 576.601C242.25 585.736 242.377 585.957 244.632 580.257C245.719 577.507 247.215 573.907 247.954 572.257C251.734 563.828 251.852 562.552 252.021 528.716C252.167 499.551 252.408 494.736 253.867 491.812C254.932 489.677 255.544 486.02 255.544 481.794C255.544 477.491 256.062 474.453 257.011 473.198C258.917 470.678 258.934 465.735 257.049 462.121C256.228 460.546 255.538 458.357 255.515 457.257C255.492 456.157 254.83 454.132 254.044 452.757C253.258 451.382 252.599 448.885 252.579 447.207C252.56 445.53 252.077 443.69 251.506 443.119C250.936 442.549 249.923 439.906 249.256 437.246C248.59 434.587 247.439 432.212 246.7 431.969C245.054 431.428 245.741 532.079 247.398 534.086C248.28 535.155 248.893 546.125 248.644 556.386C248.556 560.009 248.17 560.67 245.479 561.784C240.01 564.05 239.334 562.247 239.043 544.596C238.904 536.16 238.328 522.507 237.763 514.257C236.067 489.492 236.266 414.507 238.034 412.17C239.919 409.678 239.9 407.775 237.949 403.864C235.343 398.64 239.977 390.788 243.554 394.366C245.686 396.498 250.818 407.604 252.053 412.757C254.31 422.173 257.69 432.871 259.953 437.757C261.608 441.334 264.863 441.466 267.405 438.061C272.641 431.047 277.817 428.004 279.633 430.872C281.084 433.162 280.653 438.976 278.888 440.926C277.979 441.93 277.09 444.857 276.913 447.43C276.541 452.835 275.564 453.721 269.959 453.742C264.062 453.764 264.134 453.385 267.715 465.552C268.807 469.264 268.739 470.524 267.211 474.828C266.238 477.567 265.197 482.159 264.897 485.032C264.598 487.906 263.751 491.612 263.015 493.269C261.151 497.458 260.749 527.095 262.526 529.236C264.361 531.448 276.561 531.213 283.54 528.831C289.835 526.684 317.722 512.508 320.992 509.793C322.855 508.246 324.702 498.301 325.548 485.257C325.941 479.207 326.772 472.685 327.397 470.764C328.784 466.502 328.883 459.506 327.576 458.198C327.048 457.67 326.166 453.418 325.616 448.748C325.065 444.078 324.18 437.782 323.648 434.757C323.116 431.732 322.649 425.29 322.609 420.441C322.567 415.356 322.006 410.701 321.286 409.441C320.599 408.24 319.775 402.532 319.458 396.757C319.14 390.982 318.382 384.907 317.772 383.257C317.161 381.607 316.217 377.557 315.674 374.257C314.132 364.898 312.449 357.462 311.449 355.593C310.946 354.653 310.312 352.11 310.039 349.941C309.767 347.773 308.87 344.707 308.047 343.128C307.223 341.549 306.547 339.3 306.543 338.129C306.54 336.959 305.862 335.442 305.037 334.757C304.213 334.072 303.521 332.555 303.502 331.385C303.482 330.214 302.824 328.132 302.038 326.757C301.252 325.382 300.593 322.555 300.573 320.476C300.551 318.062 299.995 316.486 299.038 316.119C298.214 315.802 297.538 314.516 297.538 313.26C297.538 312.004 295.964 307.79 294.039 303.894C292.114 299.999 290.539 296.35 290.539 295.785C290.539 294.402 288.391 294.538 286.526 296.039ZM42.9374 308.257C41.4056 311.282 39.7966 313.757 39.3617 313.757C38.9268 313.757 38.5707 314.259 38.5707 314.872C38.5707 315.486 36.9959 319.351 35.0712 323.461C33.1464 327.572 31.5717 331.534 31.5717 332.265C31.5717 332.996 30.8966 334.981 30.0717 336.676C29.2468 338.371 27.897 341.143 27.0722 342.838C26.2473 344.533 25.5726 346.797 25.5726 347.87C25.5726 350.823 21.7249 361.736 19.0702 366.311C16.2965 371.093 15.1301 383.395 13.5253 424.757C12.9813 438.782 12.0261 452.057 11.4032 454.257C9.74341 460.121 10.0581 500.559 11.7899 503.794C14.8835 509.573 16.9656 511.72 21.1381 513.436C23.5728 514.438 25.5667 515.54 25.5687 515.887C25.5737 516.646 36.1922 524.757 37.181 524.757C37.564 524.757 40.7344 526.107 44.226 527.757C47.7175 529.407 51.1794 530.757 51.9193 530.757C52.6582 530.757 54.3009 531.657 55.5687 532.757C59.7272 536.364 68.3715 535.586 72.599 531.224C76.4265 527.274 75.5682 532.813 80.0316 483.257C80.8245 474.457 81.9165 463.882 82.4574 459.757C82.9983 455.632 83.4693 448.824 83.5033 444.629C83.5403 440.103 84.2019 435.477 85.1307 433.252C87.0345 428.695 86.2309 422.184 83.5902 420.77C80.2886 419.003 80.2187 415.042 83.3973 409.875C84.9971 407.275 86.637 404.106 87.0409 402.834C87.6888 400.791 88.2616 400.575 91.9462 400.991C96.1177 401.461 96.1172 401.461 96.2811 389.859C96.4721 376.447 95.2138 373.93 89.4115 376.121C84.7421 377.884 81.5484 375.222 78.5658 367.08C76.1441 360.469 73.9022 355.786 72.6664 354.757C71.3885 353.692 67.5673 347.789 67.5673 346.879C67.5673 345.989 66.6974 344.063 62.7719 336.257C56.5506 323.887 53.8076 318.101 49.3832 308.007C46.5295 301.498 46.356 301.505 42.9374 308.257ZM119.974 310.896C119.588 311.522 118.647 317.71 117.885 324.646C117.122 331.582 116.224 339.713 115.888 342.714C115.195 348.927 116.516 348.631 125.06 340.657C127.26 338.605 130.297 335.784 131.809 334.389C133.321 332.994 134.559 331.644 134.559 331.389C134.559 330.931 137.753 327.282 144.557 319.967C151.456 312.55 151.889 313.061 138.801 313.164C129.126 313.241 126.625 312.949 124.587 311.507C121.689 309.456 120.927 309.355 119.974 310.896ZM125.626 371.792C127.903 373.011 128.257 377.933 126.192 379.648C125.044 380.6 125.118 381.385 126.649 384.52C132.041 395.561 130.608 404.757 123.495 404.757C114.172 404.757 112.396 374.165 121.56 371.436C122.385 371.19 123.202 370.937 123.376 370.873C123.549 370.809 124.562 371.223 125.626 371.792ZM99.7924 372.944C100.29 374.439 102.563 375.262 102.563 373.947C102.563 373.41 101.85 372.698 100.979 372.363C100.006 371.99 99.5484 372.213 99.7924 372.944ZM94.1229 428.887C93.752 431.29 93.1367 440.232 92.7557 448.757C92.3398 458.07 91.5652 465.129 90.8143 466.441C89.9994 467.865 89.5643 472.928 89.5643 480.981C89.5643 487.859 88.9747 495.757 88.2347 498.797C87.5028 501.8 86.8087 507.632 86.6928 511.757C86.5758 515.882 86.0768 521.732 85.5829 524.757C85.088 527.782 84.1551 533.857 83.5092 538.257C82.8632 542.657 81.9873 547.157 81.5634 548.257C79.5886 553.377 79.0057 562.735 80.3046 568.445C83.2842 581.537 83.7241 585.819 83.3241 597.814C82.8902 610.825 81.4185 615.841 77.642 617.169C76.7751 617.474 73.2975 619.499 69.9139 621.669C62.3709 626.507 51.4712 629.596 49.0585 627.581C45.132 624.301 43.2383 622.032 41.9774 619.099C41.2315 617.362 40.2715 615.787 39.8456 615.599C38.4778 614.996 35.5712 608.671 35.5712 606.298C35.5712 605.035 34.8961 603.442 34.0712 602.757C33.2463 602.072 32.5717 600.891 32.5717 600.131C32.5717 599.371 31.6715 597.071 30.5717 595.018C29.4718 592.966 28.5722 590.342 28.5722 589.188C28.5722 588.034 28.2351 586.754 27.8222 586.342C27.4092 585.93 26.6183 583.979 26.0624 582.005C25.5075 580.032 24.4958 578.231 23.8129 578.004C22.505 577.568 21.6936 614.67 22.4525 640.233C22.8875 654.866 23.3329 655.263 43.3314 658.846C49.4227 659.937 54.9826 661.357 69.5668 665.547C78.7946 668.198 94.162 671.356 107.312 673.303C112.14 674.018 112.63 672.626 110.493 664.257C109.931 662.057 109.083 656.657 108.607 652.257C107.653 643.431 106.045 636.659 103.94 632.603C103.173 631.125 102.563 626.994 102.563 623.287C102.563 619.623 102.057 615.679 101.438 614.523C100.351 612.493 98.2925 592.443 98.3295 584.257C98.3395 582.057 97.9084 579.716 97.3734 579.055C96.7625 578.302 96.3542 549.668 96.2792 502.288C96.1672 431.478 95.7767 418.163 94.1229 428.887ZM228.94 440.339C229.274 441.209 229.547 443.027 229.547 444.379C229.547 445.732 230.497 448.123 231.658 449.693C238.528 458.987 230.205 478.188 222.377 471.102C219.853 468.818 219.633 444.508 222.105 440.98C223.904 438.41 228.051 438.021 228.94 440.339ZM123.36 461.957C124.02 462.617 124.56 464.275 124.56 465.643C124.56 467.01 125.398 469.057 126.421 470.193C133.843 478.424 130.7 498.075 122.469 494.899C112.811 491.171 110.065 460.757 119.387 460.757C120.913 460.757 122.7 461.297 123.36 461.957ZM233.103 524.507C239.512 532.85 235.963 547.757 227.57 547.757C224.357 547.757 221.319 543.72 221.988 540.339C222.306 538.734 222.848 534.234 223.194 530.339C224.27 518.205 227.02 516.586 233.103 524.507ZM15.5736 525.366C15.5736 531.093 40.6815 550.757 47.9926 550.757C48.9684 550.757 51.308 551.488 53.1908 552.382C57.5123 554.433 65.2956 553.827 68.3612 551.201C71.7088 548.335 71.0416 547.052 65.8173 546.306C60.06 545.485 55.4197 544.116 49.9594 541.629C47.6996 540.599 45.409 539.757 44.868 539.757C44.3271 539.757 41.9016 538.64 39.4779 537.274C37.0542 535.908 34.1715 534.322 33.0717 533.75C31.9718 533.178 29.2719 531.618 27.0722 530.285C24.8724 528.951 22.1041 527.414 20.9203 526.87C19.7364 526.326 18.4722 525.403 18.1112 524.819C17.1193 523.213 15.5736 523.547 15.5736 525.366ZM327.766 527.007C327.158 528.244 326.346 530.382 325.961 531.757C325.576 533.132 324.198 535.529 322.898 537.084C321.598 538.638 320.539 540.888 320.545 542.084C320.555 544.387 315.465 559.908 314.421 560.757C314.082 561.032 313.489 562.382 313.102 563.757C312.715 565.132 311.778 567.607 311.02 569.257C305.418 581.449 303.537 585.943 303.537 587.137C303.537 587.893 302.892 589.048 302.102 589.704C301.313 590.359 300.355 592.315 299.974 594.05C299.593 595.785 298.122 599.016 296.705 601.23C295.289 603.445 293.362 606.735 292.424 608.543C288.649 615.814 268.542 624.547 268.542 618.915C268.542 618.452 266.797 617.551 264.664 616.912C260.537 615.675 254.599 610.765 252.611 606.946C251.95 605.675 250.877 604.815 250.226 605.035C249.577 605.255 247.594 604.831 245.822 604.094C240.579 601.912 239.753 604.794 239.445 626.307C239.278 637.998 238.716 645.734 237.832 648.494C235.132 656.928 236.483 673.193 239.918 673.585C241.497 673.766 243.274 673.428 243.867 672.835C244.46 672.242 246.767 671.763 248.995 671.77C253.203 671.783 264.488 669.61 272.918 667.164C275.6 666.386 281.578 665.458 286.201 665.103C290.823 664.748 294.843 664.074 295.132 663.607C295.421 663.139 296.954 662.757 298.538 662.757C300.123 662.757 301.661 662.366 301.957 661.889C302.252 661.411 305.295 660.703 308.722 660.316C312.148 659.928 316.487 658.969 318.365 658.184C320.243 657.399 323.605 656.757 325.837 656.757C333.262 656.757 346.737 651.664 351.418 647.089C352.731 645.807 354.798 644.757 356.012 644.757C360.882 644.757 363.395 636.865 360.048 632.084C359.232 630.92 358.294 626.657 357.962 622.612C357.631 618.567 356.724 613.56 355.946 611.487C355.168 609.413 354.531 605.752 354.531 603.351C354.531 600.95 353.859 597.697 353.037 596.121C352.217 594.546 351.539 592.132 351.532 590.757C351.525 589.382 350.847 586.968 350.026 585.393C349.204 583.817 348.532 580.532 348.532 578.093C348.532 575.654 347.91 572.443 347.15 570.957C346.39 569.472 345.439 566.232 345.037 563.757C344.636 561.282 343.959 558.807 343.535 558.257C343.111 557.707 342.458 555.682 342.085 553.757C341.711 551.832 340.809 548.907 340.08 547.257C336.421 538.976 335.534 536.527 335.534 534.723C335.534 533.642 335.151 532.757 334.685 532.757C334.218 532.757 333.13 530.957 332.266 528.757C330.481 524.211 329.355 523.774 327.766 527.007ZM312.786 527.004C310.999 527.577 309.537 528.341 309.537 528.701C309.537 529.27 299.306 534.299 290.039 538.285C281.11 542.127 269.074 544.169 265.593 542.432C262.478 540.878 259.543 540.249 259.543 541.135C259.543 542.051 262.628 548.406 263.776 549.856C267.433 554.473 282.072 552.549 296.438 545.563C304.641 541.573 307.358 539.409 314.286 531.346C319.04 525.813 318.787 525.079 312.786 527.004ZM127.356 540.76C128.292 542.411 129.852 544.018 130.821 544.33C134.961 545.667 137.48 554.604 135.074 559.426C129.924 569.752 119.49 564.199 118.729 550.727C118.167 540.783 123.726 534.361 127.356 540.76ZM26.6932 554.983C27.3492 556.208 28.236 558.571 28.6649 560.233C29.4628 563.326 35.3406 580.006 37.4174 585.072C38.0523 586.62 38.5707 588.413 38.5707 589.056C38.5707 589.698 39.9626 593.156 41.6644 596.741C47.4057 608.832 48.5697 611.473 48.5697 612.401C48.5697 617.928 60.0258 616.468 68.7557 609.829C73.4522 606.257 73.4522 606.257 73.5092 592.129C73.5512 581.727 73.1706 577.055 72.0668 574.411C71.2419 572.437 70.5668 569.74 70.5668 568.418C70.5668 566.117 70.2207 565.994 62.5306 565.549C58.1112 565.293 53.9718 564.56 53.3319 563.92C52.692 563.28 51.0299 562.757 49.6381 562.757C46.3195 562.757 37.1802 559.072 31.7719 555.554C26.5425 552.152 25.0914 551.989 26.6932 554.983ZM301.291 555.797C298.68 557.425 295.981 558.76 295.292 558.763C294.603 558.767 292.689 559.513 291.039 560.422C288.837 561.636 284.58 562.194 275.023 562.525C259.942 563.046 262.122 560.999 254.551 581.757C251.897 589.033 252.059 592.414 255.134 593.907C256.715 594.675 258.225 596.433 258.636 597.986C259.927 602.861 268.094 607.757 274.935 607.757C280.633 607.757 290.539 595.962 290.539 589.18C290.539 588.452 291.106 587.497 291.8 587.057C292.493 586.617 294.136 583.782 295.45 580.757C296.762 577.732 299.12 572.55 300.688 569.241C302.255 565.931 303.537 562.319 303.537 561.213C303.537 560.107 304.247 558.19 305.113 556.954C307.774 553.152 306.264 552.695 301.291 555.797ZM309.127 671.489C307.526 671.726 305.189 672.594 303.932 673.418C302.677 674.241 300.611 674.829 299.343 674.725C285.111 673.555 284.361 674.211 284.186 687.977C284.086 695.84 283.623 699.952 282.716 701.045C280.481 703.737 280.774 715.803 283.115 717.495C299.181 729.107 311.236 728.861 313.037 716.885C313.338 714.89 314.039 711.907 314.595 710.257C315.15 708.607 315.876 702.757 316.208 697.257C316.541 691.757 317.426 686.042 318.175 684.557C318.923 683.071 319.536 679.359 319.536 676.307C319.536 670.266 319.007 670.022 309.127 671.489ZM70.5668 685.324C70.5668 691.694 70.9377 693.394 72.9144 696.074C74.2053 697.825 77.8989 704.554 81.1205 711.028C88.9195 726.695 89.5698 727.257 99.8915 727.257C109.27 727.257 110.557 725.507 106.992 717.599C105.378 714.019 105.372 713.626 106.91 711.926C109.005 709.61 109.092 702.002 107.068 698.121C106.247 696.546 105.572 692.953 105.568 690.137C105.562 685.017 105.562 685.017 100.813 683.803C98.2002 683.136 95.0298 682.177 93.767 681.673C92.5041 681.169 89.8047 680.737 87.768 680.713C85.7312 680.689 82.2655 680.021 80.0658 679.228C71.4779 676.134 70.5668 676.718 70.5668 685.324ZM118.561 724.726C118.561 729.891 114.677 735.523 109.829 737.388C104.995 739.247 90.3353 738.928 88.3275 736.92C87.6876 736.28 86.8117 735.757 86.3798 735.757C85.3289 735.757 86.324 746.8 88.0468 754.257C88.8087 757.557 89.6893 763.156 90.0033 766.699C90.3173 770.242 91.1144 774.637 91.7753 776.465C92.7891 779.268 92.7102 780.24 91.2704 782.677C90.3325 784.266 89.5615 786.171 89.5585 786.911C89.5545 787.651 88.9406 789.428 88.1937 790.86C85.3711 796.271 85.2522 806.309 88.0648 801.757C88.4048 801.207 89.6273 800.757 90.7821 800.757C94.5466 800.757 112.498 785.782 112.603 782.554C112.627 781.841 113.978 780.153 115.603 778.804C117.23 777.455 118.561 775.822 118.561 775.176C118.561 774.53 119.293 773.393 120.189 772.65C122.171 771.005 121.706 744.639 119.684 743.965C118.036 743.415 118.315 736.133 120.118 732.647C120.973 730.991 121.537 728.011 121.368 726.024C120.978 721.429 118.561 720.311 118.561 724.726ZM273.151 724.635C272.266 725.614 271.539 727.279 271.536 728.336C271.532 729.392 270.857 731.546 270.036 733.121C269.214 734.697 268.542 738.084 268.542 740.649C268.542 743.214 267.932 746.2 267.187 747.284C266.385 748.452 265.553 753.702 265.147 760.149C264.769 766.139 263.999 771.905 263.433 772.962C261.69 776.219 261.138 791.983 262.696 793.999C267.203 799.829 280.057 793.63 287.757 781.914C289.802 778.802 292.165 775.378 293.007 774.304C293.85 773.229 294.539 771.568 294.539 770.613C294.539 769.657 294.925 768.636 295.397 768.344C295.869 768.052 296.548 764.988 296.904 761.535C297.487 755.867 301.393 742.569 302.924 741.037C304.272 739.689 303.419 737.757 301.476 737.757C295.83 737.757 279.541 729.604 279.541 726.778C279.541 724.443 274.772 722.844 273.151 724.635ZM78.0658 728.757C78.4058 729.307 78.8819 729.757 79.1249 729.757C79.3679 729.757 79.5658 729.307 79.5658 728.757C79.5658 728.207 79.0886 727.757 78.5067 727.757C77.9248 727.757 77.7258 728.207 78.0658 728.757Z"
  />
</svg>
