<svg
  width="473"
  height="822"
  viewBox="0 0 473 822"
  fill="none"
  xmlns="http://www.w3.org/2000/svg"
>
  <path
    fill-rule="evenodd"
    clip-rule="evenodd"
    fill="black"
    d="M232.217 0.903825C234.577 0.903825 243.981 9.32682 247.291 14.4038C250.374 19.1328 251.646 21.2888 252.304 22.9038C252.64 23.7288 253.335 25.0788 253.849 25.9038C254.364 26.7288 255.335 28.5288 256.007 29.9038C256.679 31.2788 257.518 32.6288 257.872 32.9038C258.713 33.5588 262.769 42.5218 262.769 43.7268C262.769 44.2398 263.444 45.2188 264.269 45.9038C265.094 46.5888 265.783 48.5558 265.801 50.2758C265.818 51.9968 266.493 54.2779 267.301 55.3449C268.108 56.4129 268.769 58.8519 268.769 60.7659C268.769 62.6799 269.39 64.9568 270.151 65.8248C270.912 66.6938 272.002 69.8788 272.571 72.9038C273.141 75.9288 274.344 81.5538 275.244 85.4038C277.443 94.8098 278.723 103.431 278.747 109C278.758 111.528 279.489 115.045 280.372 116.815C281.69 119.457 281.914 122.781 281.622 135.388C281.198 153.725 280.709 154.645 269.632 157.944C260.189 160.757 258.928 162.59 259.543 172.602C260.121 182.005 259.853 181.643 264.283 179.028C266.263 177.86 268.771 176.904 269.857 176.904C270.942 176.904 272.09 176.229 272.406 175.404C272.723 174.579 273.585 173.904 274.322 173.904C275.059 173.904 278.634 171.654 282.267 168.904C285.899 166.154 289.157 163.904 289.505 163.904C290.257 163.904 306.648 146.954 308.658 144.096C310.855 140.974 310.272 140.684 301.513 140.54C293.371 140.406 293.261 140.37 292.958 137.751C292.631 134.929 295.688 131.904 298.865 131.904C299.775 131.904 301.079 131.229 301.764 130.404C302.675 129.307 305.091 128.904 310.763 128.904C316.547 128.904 318.845 128.51 319.803 127.354C320.672 126.307 322.413 125.902 325.175 126.104C331.051 126.535 331.701 132.261 326.503 137.792C324.635 139.778 321.571 143.429 319.694 145.904C317.817 148.379 315.934 150.854 315.51 151.404C315.086 151.954 313.481 154.044 311.945 156.049C309.434 159.323 306.381 162.3 295.578 172.008C293.757 173.645 290.241 176.182 287.766 177.646C281.496 181.356 279.931 185.604 282.836 191.032C283.423 192.131 284.132 197.823 284.41 203.682C284.978 215.676 285.043 215.906 287.665 215.22C293.387 213.724 296.031 222.768 291.079 226.894C283.141 233.505 285.771 234.807 301.063 231.836C313.988 229.325 323.02 235.016 318.174 242.619C317.309 243.977 316.762 247.506 316.762 251.743C316.762 255.543 316.088 260.566 315.263 262.904C311.934 272.339 313.427 281.183 319.447 287.693C320.648 288.992 322.737 292.159 324.087 294.73C329.431 304.902 330.286 306.422 330.948 306.924C331.327 307.21 332.113 308.561 332.695 309.924C333.278 311.288 334.174 313.079 334.685 313.904C335.197 314.729 335.879 316.079 336.201 316.904C336.523 317.729 337.905 320.387 339.273 322.811C340.641 325.235 341.759 327.753 341.759 328.406C341.759 329.06 342.659 330.409 343.759 331.404C344.859 332.399 345.759 333.724 345.759 334.348C345.759 335.742 348.454 341.005 352.053 346.634C353.541 348.961 354.758 351.718 354.758 352.762C354.758 353.805 355.416 355.205 356.218 355.872C357.022 356.539 357.981 358.035 358.35 359.198C358.719 360.36 359.636 361.926 360.389 362.679C361.141 363.431 361.757 365.14 361.757 366.475C361.757 367.811 362.13 368.904 362.586 368.904C363.327 368.904 364.846 371.994 369.368 382.688C370.131 384.494 370.756 388.701 370.756 392.037C370.756 395.373 371.406 399.52 372.202 401.253C375.278 407.954 378.432 479.75 375.723 481.423C373.877 482.565 374.772 485.977 378.241 491.02C380.159 493.808 382.227 497.947 382.838 500.217C383.45 502.488 384.581 505.247 385.352 506.347C386.123 507.448 386.77 509.486 386.789 510.877C386.809 512.267 387.468 514.529 388.254 515.904C389.04 517.279 389.698 519.236 389.718 520.253C389.737 521.27 390.388 523.52 391.165 525.253C391.942 526.986 392.856 530.059 393.197 532.081C393.538 534.104 394.276 535.912 394.838 536.099C395.399 536.286 396.245 538.006 396.717 539.922C397.982 545.048 400.079 550.221 401.502 551.725C402.19 552.452 402.766 554.027 402.784 555.225C402.801 556.424 403.476 558.278 404.284 559.345C405.091 560.413 405.752 562.27 405.752 563.473C405.752 564.675 406.426 566.219 407.251 566.904C408.076 567.589 408.766 568.656 408.785 569.276C408.804 569.897 409.688 572.204 410.751 574.404C411.814 576.604 412.713 579.979 412.749 581.904C412.785 583.829 413.475 586.278 414.282 587.345C416.119 589.775 416.215 598.762 414.432 601.431C413.707 602.516 412.287 605.654 411.277 608.404C410.267 611.154 408.61 614.477 407.595 615.789C406.582 617.101 405.752 618.611 405.752 619.145C405.752 619.679 404.339 621.899 402.613 624.078C399.425 628.105 396.973 632.284 392.337 641.59C389.271 647.743 389.271 647.746 391.797 650.778C395.689 655.45 401.798 654.924 404.633 649.672C408.703 642.133 420.092 638.276 425.262 642.687C427.903 644.94 433.671 653.748 434.395 656.634C434.821 658.329 435.685 658.904 437.811 658.904C442.48 658.904 455.721 669.259 457.311 674.154C457.624 675.117 458.299 675.904 458.812 675.904C459.325 675.904 459.745 676.402 459.745 677.01C459.745 677.618 460.858 679.438 462.217 681.055C463.578 682.671 465.179 685.886 465.775 688.199C466.371 690.512 467.5 694.654 468.283 697.404C472.342 711.665 474.11 737.394 471.228 740.276C467.435 744.07 456.302 741.245 449.246 734.697C447.596 733.166 445.786 731.911 445.222 731.909C444.658 731.906 440.849 728.534 436.759 724.415C429.321 716.926 429.32 716.926 426.285 719.682C417.019 728.093 406.633 726.615 402.723 716.329C401.832 713.984 401.303 713.722 398.478 714.231C386.116 716.458 382.403 716.893 375.705 716.898C371.278 716.902 367.672 717.388 366.986 718.075C366.342 718.719 363.585 719.196 360.86 719.134C356.274 719.029 354.778 718.457 345.308 713.186C344.105 712.516 341.891 710.829 340.388 709.436C336.681 705.999 335.016 706.232 329.761 710.922C319.219 720.329 312.296 723.164 308.843 719.489C305.847 716.299 306.847 713.185 311.491 711.244C313.436 710.432 316.466 708.335 318.226 706.586C323.324 701.517 327.715 697.904 328.778 697.904C329.319 697.904 329.761 697.273 329.761 696.503C329.761 695.732 331.223 694.218 333.01 693.138C336.904 690.786 358.758 671.11 358.758 669.957C358.758 669.513 358.082 668.589 357.258 667.904C356.433 667.219 355.758 665.962 355.758 665.11C355.758 664.258 355.132 662.851 354.367 661.983C353.602 661.114 351.015 656.644 348.617 652.048C342.829 640.95 338.139 632.507 333.161 624.224C330.908 620.473 327.769 614.929 326.187 611.904C320.375 600.788 318.982 599.542 315.573 602.411C313.943 603.782 312.302 604.904 311.926 604.904C311.55 604.904 310.055 606.006 308.603 607.352C298.765 616.474 273.892 617.648 257.77 609.751C252.318 607.081 246.076 604.809 243.118 604.42C237.419 603.671 236.812 602.805 236.787 595.386C236.772 591.22 239.382 586.421 244.931 580.404C246.453 578.754 249.627 575.239 251.984 572.592C254.341 569.946 259.273 564.706 262.945 560.948C270.426 553.291 273.148 540.904 267.349 540.904C260.377 540.904 255.72 529.928 259.199 521.69C261.723 515.711 268.103 513.807 271.051 518.154C273.08 521.145 274.391 519.671 275.019 513.694C275.413 509.944 275.132 508.638 273.641 507.289C272.611 506.357 271.765 504.876 271.762 503.999C271.758 503.122 271.083 501.115 270.262 499.54C269.44 497.964 268.769 495.917 268.769 494.99C268.769 494.063 268.345 492.877 267.826 492.354C267.308 491.832 266.448 489.604 265.915 487.404C264.773 482.691 263.046 477.576 261.188 473.404C260.453 471.754 259.55 468.604 259.181 466.404C258.145 460.235 257.011 459.464 254.087 462.939C247.789 470.424 242.124 465.199 238.077 448.172C237.253 444.706 238.563 441.088 241.288 439.302C243.99 437.531 243.245 437.269 250.654 442.608C253.518 444.672 253.419 443.237 249.694 428.904C248.043 422.548 247.427 416.999 247.252 406.904C247.088 397.45 246.556 392.302 245.476 389.725C244.628 387.702 243.62 383.545 243.238 380.487C242.252 372.585 240.301 367.467 238.119 367.057C236.17 366.69 230.773 362.067 230.773 360.764C230.773 360.342 228.798 357.839 226.383 355.201C223.968 352.563 220.311 348.154 218.255 345.404C216.2 342.654 213.329 339.279 211.874 337.904C210.419 336.529 207.515 333.154 205.421 330.404C201.613 325.404 201.613 325.404 195.946 325.725C190.622 326.027 184.779 329.755 184.779 332.85C184.779 333.221 183.51 334.847 181.96 336.464C180.408 338.081 177.639 341.611 175.806 344.308C173.972 347.005 171.755 349.942 170.877 350.833C169.999 351.725 167.706 355.526 165.781 359.279C163.668 363.401 161.391 366.451 160.032 366.979C155.685 368.67 156.894 397.283 161.68 405.937C164.74 411.471 163.971 419.568 160.297 420.49C154.602 421.919 147.784 412.046 147.784 402.372C147.784 398.81 147.312 396.734 146.38 396.204C145.608 395.764 144.821 394.279 144.63 392.904C144.21 389.868 142.684 389.845 141.151 392.85C140.527 394.072 139.515 395.574 138.901 396.188C138.287 396.802 137.785 398.303 137.785 399.523C137.785 400.743 137.101 403.016 136.265 404.573C135.429 406.13 134.315 408.641 133.79 410.154C133.204 411.841 132.108 412.904 130.954 412.904C127.797 412.904 126.337 473.277 128.876 498.904C129.393 504.129 130.247 513.354 130.772 519.404C131.298 525.454 132.416 535.211 133.257 541.086C134.097 546.961 134.788 555.061 134.791 559.086C134.795 563.371 135.372 567.506 136.185 569.063C136.948 570.526 137.887 574.013 138.272 576.812C138.657 579.612 139.367 582.146 139.85 582.444C140.332 582.742 141.023 585.228 141.387 587.968C141.75 590.707 142.438 593.19 142.916 593.485C143.393 593.781 143.777 595.458 143.77 597.213C143.757 600.032 145.912 608.442 148.945 617.404C149.502 619.054 150.334 621.922 150.793 623.776C151.252 625.631 152.113 627.634 152.705 628.226C153.298 628.819 153.783 631.634 153.783 634.482C153.783 637.864 154.303 640.091 155.283 640.904C156.108 641.589 156.782 643.458 156.782 645.059C156.782 646.659 157.458 649.584 158.282 651.558C159.107 653.533 159.782 655.887 159.782 656.791C159.782 657.694 160.682 660.113 161.782 662.165C162.882 664.218 163.782 666.579 163.782 667.414C163.782 668.248 164.204 669.713 164.718 670.668C165.234 671.623 166.651 674.654 167.865 677.404C169.08 680.154 171.643 685.779 173.559 689.904C178.172 699.828 178.518 700.706 179.744 705.538C180.879 710.008 183.147 712.735 184.249 710.953C185.462 708.991 189.682 709.827 191.341 712.358C193.523 715.69 203.613 718.543 220.775 720.679C230.317 721.866 266.181 721.095 275.768 719.496C293.935 716.466 304.366 717.836 303.571 723.148C302.982 727.092 297.51 728.649 281.817 729.34C273.585 729.702 268.101 730.367 267.677 731.052C266.445 733.046 219.09 732.786 214.776 730.762C207.537 727.367 198.664 727.784 199.359 731.487C200.238 736.173 198.006 745.479 195.205 748.808C192.651 751.844 192.104 754.37 193.778 755.404C195.004 756.162 195.117 765.577 193.909 766.323C193.431 766.618 192.726 770.462 192.342 774.865C191.958 779.267 191.225 783.128 190.712 783.446C190.199 783.763 189.779 784.894 189.779 785.959C189.779 788.209 185.925 799.882 184.644 801.509C184.166 802.117 182.64 804.748 181.255 807.356C174.123 820.768 166.708 824.617 160.782 817.983C155.452 812.014 154.948 811.32 152.218 806.182C150.822 803.554 149.253 800.977 148.732 800.454C148.21 799.932 147.784 798.427 147.784 797.112C147.784 795.796 146.89 793.583 145.798 792.194C144.705 790.805 144.07 789.252 144.384 788.742C144.699 788.233 144.214 786.683 143.307 785.299C142.367 783.864 141.411 779.69 141.085 775.593C140.77 771.639 140.111 767.891 139.619 767.265C138.868 766.309 138.473 763.134 137.862 753.154C137.819 752.467 136.975 751.904 135.986 751.904C132.2 751.904 131.786 750.053 131.786 733.133C131.786 719.914 131.497 716.472 130.286 715.261C129.461 714.436 128.786 712.522 128.786 711.007C128.786 707.883 126.096 705.136 120.622 702.669C118.608 701.761 116.665 700.092 116.306 698.961C115.819 697.428 114.806 696.904 112.324 696.904C109.009 696.904 106.005 694.348 101.789 687.939C100.964 686.685 99.7286 685.073 99.0436 684.357C98.3587 683.641 97.347 682.008 96.7961 680.729C95.6802 678.136 94.1484 675.602 91.5407 672.031C90.5788 670.713 89.7907 668.789 89.7907 667.756C89.7907 666.722 89.3691 665.095 88.8542 664.14C87.9023 662.377 84.4347 654.641 83.3688 651.904C83.0479 651.079 81.494 648.136 79.9152 645.363C77.4035 640.951 77.1367 639.725 77.7736 635.526C78.3736 631.577 78.2185 630.644 76.8977 630.245C76.0148 629.978 74.6181 629.356 73.7932 628.862C72.9683 628.369 70.3804 627.077 68.0436 625.991C65.7069 624.905 63.7942 623.429 63.7932 622.71C63.7932 621.992 62.2692 619.693 60.4084 617.601C56.8938 613.652 51.7956 604.674 51.7956 602.434C51.7956 601.727 51.1671 600.627 50.3972 599.988C49.6283 599.35 48.7889 597.157 48.5319 595.116C48.035 591.16 46.6952 587.028 43.6706 580.127C42.6397 577.775 41.7971 574.378 41.7971 572.577C41.7971 570.777 41.3489 568.856 40.8019 568.309C40.254 567.761 39.5191 563.734 39.1682 559.359C38.8172 554.984 37.9964 550.729 37.3435 549.904C34.5428 546.365 33.7588 540.656 35.6315 537.449C38.0152 533.367 39.9624 533.22 42.1682 536.955C45.7197 542.967 69.7882 547.647 75.3825 543.413C76.4334 542.618 79.3346 541.953 81.8312 541.936C84.3349 541.918 88.126 541.008 90.2907 539.904C92.4484 538.804 94.7182 537.904 95.3361 537.904C95.9531 537.904 98.558 535.686 101.124 532.976C106.261 527.55 107.33 524.186 103.539 525.379C102.301 525.769 99.1871 526.687 96.6174 527.419C94.0477 528.151 91.0406 529.235 89.9338 529.827C88.8279 530.42 86.9773 530.904 85.8225 530.904C84.6666 530.904 82.6713 531.593 81.3864 532.434C77.8119 534.777 49.5258 534.875 46.9611 532.553C45.8963 531.59 43.4467 530.904 41.069 530.904C36.8836 530.904 32.8588 526.164 32.7658 521.123C32.7488 520.178 32.0737 518.53 31.2658 517.463C29.58 515.234 29.3199 507.062 30.7717 501.998C31.3066 500.131 32.2063 486.493 32.7702 471.691C33.3341 456.889 34.2361 443.953 34.7761 442.945C35.315 441.937 35.8225 434.428 35.9045 426.258C36.0005 416.677 36.5106 410.339 37.3405 408.404C38.0494 406.754 38.9263 399.554 39.2902 392.404C39.6542 385.254 40.3673 378.976 40.8742 378.454C41.3822 377.931 41.808 374.556 41.821 370.954C41.834 367.351 42.3211 362.604 42.904 360.404C43.4869 358.204 44.3999 353.479 44.9338 349.904C45.4677 346.329 46.5554 342.21 47.3503 340.75C48.1452 339.29 48.7961 336.954 48.7961 335.559C48.7961 334.164 49.1892 332.779 49.6691 332.482C52.7837 330.557 55.5402 321.1 55.6652 311.904C55.8172 300.859 59.9581 286.897 65.5344 278.634C69.0899 273.364 68.9997 272.331 64.3942 265.61C62.9644 263.523 61.7946 261.624 61.7946 261.39C61.7946 260.467 51.2889 243.193 48.7263 239.904C47.2265 237.979 45.6935 235.377 45.3205 234.122C44.3976 231.021 41.013 227.694 36.7976 225.744C29.7384 222.479 25.6987 220.904 24.3879 220.904C23.649 220.904 22.5205 220.273 21.8806 219.502C21.2416 218.731 19.5016 217.795 18.0158 217.422C15.0772 216.684 8.40335 212.777 3.73994 209.065C-3.07121 203.643 0.832918 194.369 12.3005 188.73C13.9503 187.919 17.189 186.276 19.4977 185.08C21.8065 183.883 24.5633 182.904 25.6252 182.904C26.6861 182.904 28.1136 182.229 28.7985 181.404C29.4834 180.579 31.3521 179.904 32.9519 179.904C36.8494 179.904 37.3466 177.999 34.8669 172.557C33.729 170.058 32.7909 166.527 32.7829 164.709C32.7749 162.891 32.1577 159.604 31.4118 157.404C30.6649 155.204 29.7487 148.021 29.3737 141.442C28.9988 134.863 28.2942 129.001 27.8083 128.416C26.3825 126.698 26.1598 75.8088 27.5666 73.2648C28.2175 72.0888 29.0104 67.8569 29.3283 63.8599C29.6463 59.8639 30.5573 55.3368 31.3522 53.7988C32.1471 52.2608 32.798 49.9598 32.798 48.6858C32.798 41.6758 37.4052 38.6478 47.406 39.0858C52.8503 39.3238 57.292 40.0008 57.9909 40.6998C58.6528 41.3618 60.3738 41.9038 61.8146 41.9038C63.2545 41.9038 65.3828 42.9168 66.5436 44.1538C69.3443 47.1388 71.9559 49.0139 78.0852 52.4389C80.6758 53.8869 93.7902 46.7879 93.7902 43.9389C93.7902 43.6199 95.4785 42.4838 97.5402 41.4138C99.603 40.3438 102.362 38.6668 103.674 37.6858C104.986 36.7058 106.843 35.9038 107.801 35.9038C108.76 35.9038 110.103 35.2288 110.788 34.4038C111.473 33.5788 113.215 32.8898 114.66 32.8718C116.106 32.8548 118.161 32.1798 119.228 31.3718C120.296 30.5648 122.333 29.9038 123.756 29.9038C125.178 29.9038 127.279 29.2468 128.425 28.4448C130.676 26.8678 169.262 25.8468 171.616 27.3018C173.654 28.5618 172.873 32.0438 170.055 34.2598C167.574 36.2118 166.028 36.4159 152.807 36.5369C136.123 36.6889 122.495 39.1938 114.901 43.5038C112.364 44.9428 107.814 47.4708 104.789 49.1198C101.765 50.7678 98.485 52.9699 97.5012 54.0109C96.5173 55.0519 95.3694 55.9038 94.9494 55.9038C94.5295 55.9038 89.7919 60.1788 84.4216 65.4038C73.7019 75.8328 74.1689 75.5558 71.0163 73.3468C68.2926 71.4398 68.2304 69.8789 70.7121 65.7979C73.2478 61.6269 72.808 60.8458 64.9689 55.6178C58.5937 51.3658 56.6488 50.6748 47.111 49.2728C42.1107 48.5388 40.1821 51.6989 39.1223 62.3659C38.7923 65.6869 38.0223 69.0348 37.4103 69.8058C35.4546 72.2688 35.2949 129.189 37.2297 134.024C38.1816 136.406 38.7976 140.989 38.7976 145.702C38.7976 150.639 39.2953 154.176 40.1662 155.431C40.9181 156.516 41.7779 159.708 42.0759 162.524C42.3738 165.34 43.1078 168.49 43.7067 169.524C44.3057 170.558 45.2428 172.662 45.7897 174.201C46.7236 176.831 51.1687 177.379 54.8723 175.321C55.9121 174.743 54.5863 152.439 53.4265 151.003C51.4687 148.577 51.2989 106.03 53.2287 101.411C54.0906 99.3478 54.7951 96.4648 54.7951 95.0038C54.7951 88.9628 61.3546 85.3448 63.8503 90.0088C65.0231 92.2008 64.3369 98.5289 62.7131 100.496C61.2583 102.257 60.2649 136.458 61.6437 137.31C62.2767 137.702 62.7941 137.618 62.7941 137.124C62.7941 136.629 63.9924 135.679 65.4562 135.012C70.5666 132.684 71.1501 134.665 70.9411 153.606C70.8041 165.986 71.1374 171.587 72.2072 174.904C73.659 179.404 73.6593 179.404 73.7263 172.854C73.8962 156.259 82.6278 161.924 83.7497 179.356C84.6026 192.588 86.2011 195.735 87.258 186.263C88.3909 176.118 88.7549 152.912 87.883 146.482C86.9121 139.331 88.1983 136.404 92.3107 136.404C96.0213 136.404 96.5081 138.272 96.6721 153.154C96.7871 163.629 98.4182 167.644 100.428 162.404C100.745 161.579 101.58 160.904 102.286 160.904C102.992 160.904 106.206 158.984 109.428 156.638C112.651 154.292 116.412 151.652 117.787 150.773C129.172 143.486 150.783 114.572 150.783 106.628C150.783 98.1138 159.068 99.7298 160.495 108.521C160.84 110.647 161.721 112.985 162.452 113.717C163.184 114.448 163.782 115.709 163.782 116.519C163.782 118.565 174.74 128.904 176.909 128.904C177.883 128.904 179.04 129.524 179.48 130.282C179.92 131.04 182.304 132.131 184.779 132.706C187.254 133.281 191.528 134.442 194.278 135.286C197.028 136.129 201.302 137.348 203.777 137.995C206.251 138.641 209.195 139.587 210.319 140.095C219.518 144.261 225.422 142.368 222.362 136.235C221.585 134.678 220.121 131.604 219.112 129.404C218.102 127.204 216.881 125.117 216.399 124.767C215.917 124.417 215.467 122.392 215.399 120.267C215.242 115.368 221.844 113.658 223.792 118.094C224.351 119.364 225.925 122.387 227.291 124.811C228.657 127.235 229.774 129.762 229.774 130.426C229.774 131.091 230.673 132.778 231.773 134.177C232.873 135.575 233.773 137.796 233.773 139.112C233.773 140.427 234.191 141.931 234.703 142.454C235.719 143.492 237.013 146.816 242.863 163.404C244.997 169.454 246.749 175.446 246.757 176.72C246.765 177.993 247.266 179.961 247.871 181.091C248.476 182.222 249.264 185.191 249.621 187.689C249.979 190.187 250.721 192.27 251.271 192.318C252.994 192.467 253.036 180.983 251.325 177.376C250.275 175.163 249.76 171.071 249.736 164.753C249.712 158.54 249.221 154.565 248.271 152.904C247.485 151.529 246.826 148.702 246.806 146.622C246.787 144.542 246.097 141.224 245.272 139.25C244.447 137.275 243.772 134.322 243.772 132.686C243.772 131.051 243.124 128.518 242.332 127.058C241.54 125.598 240.628 122.762 240.306 120.754C239.983 118.747 239.056 116.555 238.246 115.882C237.435 115.209 236.773 113.583 236.773 112.268C236.773 110.953 236.359 109.095 235.853 108.14C229.693 96.5048 228.009 90.4059 230.27 87.9079C232.855 85.0509 235.473 85.4228 237.273 88.9038C238.932 92.1148 241.1 93.0658 240.12 90.1538C238.678 85.8698 235.514 79.9038 234.684 79.9038C234.183 79.9038 233.773 78.8149 233.773 77.4849C233.773 75.9709 231.863 72.9748 228.671 69.4818C222.159 62.3568 221.331 57.5908 226.517 57.0908C230.65 56.6918 240.037 65.0648 241.84 70.7578C242.475 72.7628 243.599 75.3689 244.337 76.5479C246.385 79.8209 249.771 90.4888 249.771 93.6718C249.771 95.2298 250.318 97.0508 250.986 97.7188C252.485 99.2188 253.285 104.965 256.398 136.654C256.97 142.477 258.571 143.3 263.906 140.516C266.314 139.259 266.771 139.351 269.156 141.562C271.769 143.985 271.768 143.985 271.768 129.503C271.768 121.539 271.381 114.783 270.908 114.49C270.435 114.198 269.734 110.009 269.349 105.181C268.965 100.354 268.002 94.4758 267.209 92.1188C266.417 89.7618 265.769 85.6549 265.769 82.9909C265.769 79.9069 265.224 77.6968 264.269 76.9038C263.444 76.2188 262.769 74.2078 262.769 72.4348C262.769 70.6608 261.932 68.2439 260.908 67.0629C259.793 65.7769 259.227 63.9658 259.497 62.5508C259.746 61.2508 259.008 58.1229 257.86 55.5999C256.71 53.0779 255.77 50.1438 255.77 49.0808C255.77 48.0178 255.134 46.6208 254.356 45.9758C253.579 45.3298 252.002 42.9128 250.851 40.6028C249.701 38.2938 248.241 35.5038 247.608 34.4038C246.974 33.3038 246.105 31.7288 245.676 30.9038C245.249 30.0788 243.682 27.0659 242.198 24.2089C240.715 21.3519 238.887 18.7779 238.136 18.4899C237.387 18.2019 236.773 17.4038 236.773 16.7168C236.773 14.9968 231.925 10.9798 228.946 10.2318C226.399 9.59283 217.775 17.6579 217.775 20.6789C217.775 21.3869 217.1 22.2258 216.275 22.5418C215.45 22.8588 214.776 23.7878 214.776 24.6068C214.776 25.4248 213.987 27.4328 213.026 29.0668C211.359 31.8968 211.359 32.0848 213.026 33.0208C216.882 35.1858 214.01 42.6168 209.682 41.6708C206.668 41.0128 194.867 36.9579 192.542 35.7819C191.587 35.2989 189.652 34.9038 188.242 34.9038C183.955 34.9038 179.779 32.1778 179.779 29.3778C179.779 27.9428 180.359 26.9038 181.157 26.9038C181.914 26.9038 183.094 26.2288 183.779 25.4038C185.195 23.6968 188.89 23.4148 190.374 24.8988C193.4 27.9258 204.08 26.4998 205.025 22.9428C205.53 21.0388 207.255 17.8238 208.859 15.7988C210.464 13.7728 211.791 11.5058 211.809 10.7598C211.878 7.90478 223.911 -0.319211 227.09 0.316789C228.703 0.639789 231.011 0.903825 232.217 0.903825ZM151.926 127.332C150.711 129.768 149.392 131.905 148.999 132.082C148.121 132.477 143.784 138.588 143.784 139.43C143.784 143.263 113.798 168.156 102.938 173.338C96.307 176.502 94.4164 179.904 99.2897 179.904C100.665 179.904 101.789 180.407 101.789 181.023C101.789 181.638 103.335 180.963 105.222 179.523C107.111 178.082 109.304 176.904 110.099 176.904C110.893 176.904 112.103 176.229 112.788 175.404C113.575 174.456 115.781 173.904 118.787 173.904C121.794 173.904 124 174.456 124.787 175.404C125.472 176.229 126.877 176.904 127.911 176.904C130.155 176.904 141.784 183.036 141.784 184.22C141.784 184.675 142.509 185.772 143.395 186.658C146.09 189.353 144.499 196.655 140.303 200.853C131.27 209.887 115.788 203.507 115.788 190.751C115.788 183.763 112.538 185.109 106.19 194.726C106.073 194.904 104.024 194.153 101.635 193.058C96.3371 190.628 96.781 190.136 95.7521 199.58C94.3383 212.558 92.4914 219.1 89.9797 220.03C84.0624 222.219 89.1742 224.904 99.26 224.904C104.873 224.904 106.921 226.265 108.29 230.904C111.456 241.641 123.308 254.513 131.419 256.026C134.095 256.525 136.429 257.36 136.606 257.881C137.562 260.706 143.718 263.064 145.988 261.474C149.21 259.217 179.891 259.158 182.136 261.404C184.275 263.543 185.471 263.265 186.173 260.469C187.784 254.053 195.151 250.419 206.928 250.23C218.337 250.048 220.775 249.154 220.775 245.156C220.775 244.116 221.933 242.257 223.35 241.025C224.766 239.793 226.573 237.35 227.364 235.595C228.155 233.84 229.21 231.729 229.707 230.904C232.598 226.098 234.012 217.376 233.556 207.141C233.026 195.204 234.479 191.606 238.881 193.962C240.015 194.569 241.084 194.917 241.257 194.735C241.961 193.991 239.813 183.883 238.347 181.05C237.481 179.374 236.773 176.907 236.773 175.568C236.773 174.229 236.1 171.844 235.279 170.268C234.458 168.693 233.783 166.222 233.779 164.776C233.776 163.331 233.125 161.611 232.332 160.953C231.54 160.296 230.753 158.553 230.582 157.081C230.343 155.013 229.704 154.378 227.774 154.289C223.705 154.103 213.495 152.156 210.461 150.988C208.913 150.392 206.566 149.904 205.246 149.904C203.925 149.904 201.367 149.271 199.561 148.497C197.755 147.723 193.353 146.309 189.779 145.354C175.659 141.583 156.782 129.347 156.782 123.966C156.782 121.336 153.935 123.31 151.926 127.332ZM213.846 162.441C216.533 163.83 217.143 163.823 220.213 162.366C225.087 160.053 229.201 160.731 229.545 163.904C229.885 167.045 226.325 172.947 223.673 173.641C222.473 173.955 221.445 175.304 221.103 177.012C220.79 178.578 219.912 180.374 219.154 181.004C218.396 181.634 217.775 182.751 217.775 183.486C217.775 189.736 205.05 195.057 198.778 191.429C197.403 190.634 195.153 189.412 193.778 188.714C187.007 185.276 187.875 178.346 196.168 169.633C204.56 160.817 208 159.417 213.846 162.441ZM203.95 176.218C201.423 178.91 201.24 180.214 203.168 181.814C205.203 183.503 211.375 177.331 209.686 175.295C208.038 173.31 206.441 173.567 203.95 176.218ZM74.9108 189.095C75.0768 195.115 76.1628 199.677 77.0837 198.218C77.4946 197.566 77.4088 195.148 76.8908 192.845C76.3739 190.542 76.1707 188.084 76.4396 187.382C76.7086 186.68 76.4485 185.809 75.8605 185.446C75.1606 185.013 74.8338 186.269 74.9108 189.095ZM43.2966 188.104C32.181 191.401 29.1254 192.444 27.7985 193.398C26.9736 193.991 23.253 196.01 19.5305 197.884C15.8079 199.758 12.9153 201.766 13.1022 202.347C13.6672 204.106 20.4365 207.733 28.2985 210.49C31.0482 211.454 33.9731 212.804 34.798 213.489C35.6229 214.174 37.9896 215.049 40.0583 215.433C42.127 215.817 44.0654 216.53 44.3664 217.017C44.6674 217.505 46.5754 217.907 48.6052 217.91C50.6349 217.914 53.6453 218.624 55.2951 219.489C58.4547 221.146 69.0684 221.949 70.3942 220.631C70.8222 220.206 70.4096 217.731 69.4777 215.131C68.5468 212.531 67.7867 208.829 67.7897 206.904C67.7967 203.404 67.7965 203.404 56.3869 203.738C43.9165 204.103 41.202 203.365 40.1901 199.335C38.9103 194.233 41.7539 192.904 53.9504 192.904C64.0171 192.904 64.7941 192.765 64.7941 190.963C64.7941 187.559 51.2206 185.754 43.2966 188.104ZM124.956 189.516C125.265 192.217 125.607 192.424 130.251 192.718C135.214 193.031 135.215 193.031 132.449 190.468C130.928 189.058 129.293 187.904 128.816 187.904C128.34 187.904 127.202 187.617 126.288 187.266C124.938 186.748 124.688 187.169 124.956 189.516ZM266.769 189.904C264.844 190.958 262.54 191.839 261.648 191.862C260.267 191.898 259.919 193.981 259.305 205.902C258.908 213.602 258.176 220.153 257.677 220.462C256.293 221.317 256.597 224.904 258.055 224.904C259.708 224.904 269.38 221.481 273.268 219.52C276.268 218.007 276.268 218.007 275.615 205.321C274.732 188.165 273.587 186.17 266.769 189.904ZM243.379 215.404C243.027 218.154 241.91 223.441 240.896 227.154C239.15 233.541 239.145 233.904 240.798 233.904C242.161 233.904 242.78 232.529 243.613 227.654C245.46 216.828 245.648 214.458 244.821 212.404C244.199 210.855 243.874 211.531 243.379 215.404ZM183.284 229.92C184.555 233.925 181.976 238.754 177.962 239.885C166.639 243.074 160.782 241.575 160.782 235.485C160.782 231.558 161.919 230.904 168.74 230.904C171.783 230.904 173.991 230.356 174.78 229.404C176.693 227.099 182.501 227.451 183.284 229.92ZM65.0441 231.647C57.3941 232.011 55.1441 234.459 59.2946 237.904C60.1195 238.589 60.7946 239.939 60.7946 240.904C60.7946 241.869 61.4716 243.221 62.2985 243.907C64.1853 245.473 70.7932 256.275 70.7932 257.793C70.7932 258.414 72.1434 260.785 73.7932 263.063C75.443 265.34 76.7927 267.742 76.7927 268.399C76.7927 269.056 77.6705 270.389 78.7434 271.36C80.9121 273.323 81.379 256.215 79.2473 252.885C78.7263 252.07 77.7217 248.929 77.0158 245.904C76.3089 242.879 75.2345 238.266 74.6286 235.654C74.0237 233.042 73.2503 230.993 72.9103 231.103C72.5714 231.212 69.0316 231.457 65.0441 231.647ZM260.696 235.807C258.182 236.706 254.807 238.326 253.197 239.406C251.588 240.487 248.533 242.166 246.408 243.139C244.284 244.112 239.777 246.843 236.393 249.209C233.008 251.575 229.459 253.81 228.507 254.176C226.096 255.101 226.325 256.834 228.774 256.194C229.873 255.906 230.773 255.273 230.773 254.787C230.773 254.302 231.358 253.904 232.073 253.904C232.788 253.904 233.899 253.378 234.541 252.736C236.518 250.758 256.593 243.904 260.409 243.904C261.708 243.904 262.769 243.47 262.769 242.939C262.769 242.408 264.119 240.436 265.769 238.557C270.372 233.314 269.296 232.731 260.696 235.807ZM90.5407 236.563C89.5788 236.831 88.786 237.805 88.78 238.727C88.774 239.649 88.4982 242.045 88.1662 244.05C87.6573 247.128 87.8792 247.797 89.593 248.341C93.8344 249.688 94.5482 258.079 91.0876 265.904C87.3391 274.377 87.3171 274.404 83.9885 274.394C82.2307 274.389 80.7922 274.578 80.7922 274.813C80.7922 275.868 87.402 286.806 90.7966 291.369C96.0929 298.488 97.015 300.605 96.277 303.963C94.6013 311.592 86.6086 305.602 77.7927 290.111C74.6321 284.557 70.7932 283.74 70.7932 288.622C70.7932 289.432 70.1708 291.29 69.4099 292.75C65.3784 300.485 63.7942 317.032 66.9548 318.404C68.2216 318.954 69.755 320.413 70.364 321.647C70.9719 322.88 72.3862 324.684 73.5051 325.654C75.7068 327.564 81.1683 334.586 84.1989 339.404C85.2368 341.054 86.7232 343.079 87.5021 343.904C88.281 344.729 90.3519 347.538 92.1037 350.147C103.078 366.483 108.079 373.175 114.31 379.865C118.17 384.012 122.611 389.092 124.177 391.154C127.768 395.885 128.272 395.847 130.88 390.654C132.054 388.316 134.087 384.972 135.399 383.221C139.146 378.222 138.139 374.485 130.116 363.604C128.007 360.744 125.203 356.379 123.883 353.904C122.564 351.429 119.865 347.447 117.885 345.056C115.907 342.665 113.316 339.29 112.127 337.556C110.938 335.822 107.228 331.561 103.88 328.085C97.5499 321.514 96.1415 318.627 97.2014 314.404C98.1872 310.476 101.563 311.238 106.547 316.514C108.941 319.05 111.184 320.842 111.529 320.498C111.873 320.153 111.622 319.338 110.971 318.687C108.666 316.381 109.582 312.809 112.788 311.598C116.181 310.317 116.365 309.739 114.376 306.619C112.343 303.43 110.662 290.829 111.415 284.421C111.883 280.435 111.681 278.48 110.675 277.267C109.685 276.073 109.268 272.365 109.216 264.275C109.16 255.518 108.79 252.551 107.583 251.178C106.448 249.888 100.717 240.17 99.364 237.243C99.117 236.708 91.9915 236.159 90.5407 236.563ZM292.266 244.026C276.684 246.396 274.921 247.006 270.523 251.543C266.651 255.54 265.88 255.906 261.285 255.924C255.16 255.948 242.257 260.352 233.816 265.3C230.434 267.282 227.043 268.904 226.28 268.904C225.108 268.904 225.116 269.332 226.327 271.654C227.351 273.617 227.763 278.018 227.768 287.033C227.774 299.662 227.774 299.662 232.523 298.667C235.136 298.12 237.847 297.21 238.549 296.644C239.251 296.078 241.901 295.436 244.439 295.218C246.975 295 249.988 294.165 251.133 293.363C252.278 292.56 255.385 291.904 258.037 291.904C260.688 291.904 265.65 291.249 269.063 290.449C272.476 289.648 278.3 288.713 282.006 288.37C285.712 288.028 289.001 287.332 289.314 286.826C289.628 286.319 291.32 285.896 293.074 285.887C296.812 285.866 300.298 282.679 301.34 278.328C301.724 276.72 302.369 274.954 302.771 274.404C303.174 273.854 303.818 271.604 304.203 269.404C304.588 267.204 305.547 263.476 306.334 261.119C307.12 258.762 307.764 254.851 307.764 252.428C307.764 250.005 308.213 247.744 308.763 247.404C314.097 244.107 304.562 242.155 292.266 244.026ZM200.277 261.614C196.165 263.716 193.006 266.741 191.253 270.256C189.553 273.664 189.211 287.936 190.791 289.516C191.348 290.073 192.003 293.941 192.248 298.111C192.635 304.692 194.667 310.925 197.361 313.796C198.593 315.111 211.314 306.997 213.653 303.404C215.085 301.204 216.7 299.09 217.241 298.705C218.587 297.751 218.251 274.563 216.885 274.107C216.309 273.915 215.564 272.104 215.229 270.081C213.679 260.724 208.147 257.591 200.277 261.614ZM118.672 266.654C118.29 269.142 119.368 271.853 122.14 275.372C126.714 281.183 129.874 284.721 132.295 286.746C137.421 291.035 131.773 297.513 125.762 294.237C121.787 292.07 121.787 292.07 121.793 296.237C121.797 298.529 122.472 301.693 123.293 303.268C124.115 304.844 124.787 306.89 124.787 307.815C124.787 311.603 132.011 316.904 137.171 316.904C142.334 316.904 143.117 311.732 139.327 302.66C138.425 300.5 137.926 294.729 137.848 285.553C137.722 270.72 137.162 268.938 132.607 268.869C131.331 268.849 129.161 268.19 127.786 267.404C125.15 265.896 118.868 265.379 118.672 266.654ZM152.783 271.17C148.283 273.404 148.284 273.404 148.006 287.103C147.549 309.632 152.156 320.048 164.281 323.896C166.481 324.594 168.759 325.541 169.343 326C171.78 327.919 185.707 318.204 185.747 314.558C185.792 310.52 182.818 305.904 180.171 305.904C176.01 305.904 175.472 298.308 179.28 293.315C182.252 289.419 182.455 287.253 179.928 286.451C178.911 286.128 175.525 283.882 172.406 281.46C169.288 279.037 166.304 276.909 165.776 276.73C165.248 276.551 164.647 274.829 164.441 272.904C163.96 268.426 159.613 267.78 152.783 271.17ZM298.11 295.959C297.53 296.539 293.952 297.443 290.161 297.967C278.539 299.575 277.819 300.15 273.316 311.404C272.436 313.604 271.052 316.678 270.242 318.235C269.431 319.792 268.766 322.492 268.763 324.235C268.759 325.978 268.084 328.693 267.263 330.268C266.441 331.844 265.769 334.865 265.769 336.983C265.769 339.101 265.143 342.762 264.377 345.119C259.95 358.755 261.334 368.252 268.777 375.273C276.254 382.327 277.439 382.922 278.501 380.154C278.87 379.191 280.399 376.587 281.897 374.366C283.395 372.145 284.929 369.103 285.305 367.607C285.68 366.11 286.388 364.638 286.877 364.336C287.366 364.033 287.766 362.704 287.766 361.382C287.766 360.06 288.666 356.695 289.766 353.904C290.866 351.113 291.766 347.327 291.766 345.489C291.766 343.652 292.396 341.625 293.168 340.985C293.939 340.345 294.794 337.927 295.067 335.612C295.34 333.298 296.031 329.604 296.602 327.404C301.519 308.467 302.32 291.749 298.11 295.959ZM311.445 296.654C311.206 297.066 310.698 300.399 310.318 304.06C309.937 307.72 308.981 312.854 308.195 315.469C307.408 318.083 306.764 322.406 306.764 325.076C306.764 327.747 306.335 330.713 305.81 331.668C305.285 332.623 304.433 335.879 303.916 338.904C303.399 341.929 302.509 345.754 301.939 347.404C301.368 349.054 299.887 353.906 298.647 358.186C297.407 362.466 295.802 366.459 295.079 367.058C294.356 367.658 293.765 369.437 293.765 371.012C293.765 372.586 292.368 376.694 290.659 380.139C286.723 388.077 286.89 387.791 282.936 393.333C279.941 397.528 279.714 398.313 280.686 401.101C281.281 402.807 281.767 405.17 281.767 406.353C281.767 407.536 282.293 409.03 282.935 409.672C284.108 410.845 286.158 415.823 287.767 421.404C288.242 423.054 289.33 426.429 290.184 428.904C291.038 431.379 291.977 434.641 292.271 436.154C293.028 440.057 293.988 439.669 300.49 432.834C309.786 423.062 314.742 420.97 316.151 426.223C317.274 430.411 316.725 431.673 311.263 437.449C304.784 444.301 304.821 444.161 309.12 445.716C313.961 447.466 316.218 450.394 316.218 454.923C316.218 459.898 315.4 460.603 311.475 459.013C303.62 455.832 299.597 455.691 296.669 458.496C295.174 459.928 293.572 460.943 293.108 460.752C292.645 460.56 291.943 464.679 291.549 469.904C291.155 475.129 290.397 480.754 289.866 482.404C289.334 484.054 288.604 488.104 288.243 491.404C287.882 494.704 286.99 499.654 286.259 502.404C280.411 524.426 280.547 527.85 287.507 533.8C290.073 535.994 293.319 538.068 294.719 538.408C296.119 538.748 298.943 540.123 300.993 541.465C303.043 542.806 305.019 543.904 305.383 543.904C305.747 543.904 307.894 544.749 310.154 545.781C319.416 550.012 332.381 551.522 341.472 549.428C344.789 548.664 347.711 544.232 349.355 537.471C349.747 535.857 350.671 533.382 351.406 531.971C352.143 530.559 352.748 528.617 352.752 527.654C352.755 526.691 353.157 525.904 353.644 525.904C354.132 525.904 354.849 523.766 355.238 521.154C355.627 518.542 356.301 515.954 356.736 515.404C357.17 514.854 357.846 512.911 358.237 511.087C358.626 509.262 359.575 506.562 360.345 505.087C361.115 503.611 361.747 501.447 361.751 500.276C361.754 499.106 362.432 497.589 363.257 496.904C364.276 496.057 364.757 493.79 364.757 489.817C364.757 486.603 365.467 481.883 366.335 479.327C368.353 473.38 368.102 429.032 366.027 424.904C365.288 423.436 364.766 418.571 364.762 413.119C364.758 406.427 364.324 403.173 363.208 401.47C362.334 400.135 361.532 396.337 361.368 392.747C361.106 387.039 360.527 385.069 357.594 379.904C357.126 379.079 356.237 377.279 355.619 375.904C352.522 369.011 351.027 366.048 348.508 361.809C346.997 359.265 345.759 356.64 345.759 355.977C345.759 355.313 344.701 353.338 343.409 351.587C341.389 348.851 337.672 341.525 330.886 326.904C329.992 324.979 328.162 321.604 326.82 319.404C325.477 317.204 323.306 313.405 321.996 310.962C319.388 306.099 312.773 295.904 312.225 295.904C312.036 295.904 311.685 296.242 311.445 296.654ZM258.27 303.649C248.793 304.228 246.742 306.781 246.871 317.841C246.93 322.948 247.251 325.395 247.666 323.904C248.939 319.326 254.794 320.353 256.214 325.404C257.489 329.94 258.394 329.196 259.37 322.809C259.74 320.386 260.444 317.893 260.933 317.27C261.423 316.646 262.423 313.946 263.155 311.27C263.888 308.593 264.824 305.617 265.235 304.654C265.647 303.691 265.597 302.989 265.126 303.093C264.655 303.197 261.569 303.447 258.27 303.649ZM232.773 310.212C230.848 310.75 227.326 311.18 224.946 311.168C221.128 311.15 220.01 311.721 215.466 316.01C210.314 320.874 210.314 320.874 215.544 326.17C218.421 329.083 220.775 331.815 220.775 332.24C220.775 332.665 222.122 334.451 223.769 336.208C225.417 337.966 226.767 339.718 226.769 340.102C226.772 340.487 227.786 341.903 229.024 343.25C230.261 344.597 232.283 346.87 233.516 348.301C237.235 352.615 237.435 351.682 237.341 330.476C237.24 307.631 237.524 308.887 232.773 310.212ZM128.252 329.654C128.627 331.167 129.347 332.553 129.852 332.735C130.356 332.916 132.616 336.741 134.875 341.235C137.133 345.728 140.279 351.879 141.865 354.904C143.452 357.929 144.758 360.915 144.767 361.54C144.776 362.164 145.483 363.964 146.338 365.54C147.875 368.375 147.887 368.348 147.442 362.904C146.952 356.908 144.135 345.971 142.689 344.454C142.191 343.931 141.784 342.865 141.784 342.085C141.784 339.443 134.871 329.264 132.274 328.08C128.297 326.268 127.49 326.584 128.252 329.654ZM145.784 327.282C145.784 327.796 148.608 334.046 149.678 335.904C151.255 338.639 153.793 347.363 153.788 350.032C153.785 351.477 154.458 353.219 155.283 353.904C156.108 354.589 156.782 354.747 156.782 354.255C156.782 353.763 159.032 350.275 161.782 346.503C167.152 339.135 167.777 337.169 165.031 336.266C164.07 335.949 161.864 335.063 160.131 334.297C158.398 333.531 156.518 332.904 155.953 332.904C155.388 332.904 154.331 332.323 153.604 331.613C150.52 328.599 145.784 325.976 145.784 327.282ZM61.6745 334.26C60.2347 335.538 58.5142 338.225 57.8522 340.23C57.1913 342.235 56.2318 344.134 55.7219 344.449C55.2119 344.764 54.7951 346.766 54.7951 348.898C54.7951 351.03 54.3175 354.032 53.7326 355.571C52.0618 359.966 49.7247 375.279 48.7228 388.404C48.2189 395.004 47.371 401.304 46.84 402.404C46.3081 403.504 45.6226 411.379 45.3156 419.904C45.0087 428.429 44.3454 439.904 43.8425 445.404C42.0107 465.418 41.0019 483.506 41.4728 487.904C41.7668 490.655 41.3401 494.105 40.3752 496.78C38.6404 501.59 38.2773 508.464 39.7102 509.351C40.2131 509.661 41.614 511.961 42.8249 514.461C48.5262 526.241 70.9671 525.999 101.789 513.826C106.289 512.049 106.289 512.049 106.524 505.727C107.126 489.503 104.283 462.148 101.762 459.904C100.567 458.84 96.7902 451.726 96.7902 450.537C96.7902 449.848 95.5231 447.961 93.9743 446.344C90.8457 443.078 83.7917 431.771 83.7917 430.023C83.7917 429.408 83.1166 428.904 82.2917 428.904C81.4668 428.904 80.7922 428.284 80.7922 427.526C80.7922 426.769 80.1171 425.589 79.2922 424.904C77.4484 423.373 77.3855 418.023 79.1843 415.654C81.227 412.963 84.6394 413.46 86.0422 416.654C86.7071 418.167 87.4862 419.629 87.7731 419.904C88.0611 420.179 89.6079 422.336 91.2097 424.698C94.2803 429.224 96.7182 431.506 94.9475 428.198C93.1317 424.805 92.3965 416.084 93.7844 414.411C96.893 410.665 102.789 415.416 102.789 421.665C102.789 423.549 108.238 415.592 111.19 409.395C112.236 407.2 113.698 404.21 114.44 402.75C116.517 398.658 116.159 397.611 110.786 392.095C108.036 389.271 103.506 383.467 100.719 379.198C97.9333 374.93 95.3212 371.205 94.9152 370.921C93.5444 369.961 86.7912 360.624 86.7912 359.689C86.7912 359.179 86.2296 358.145 85.5417 357.392C79.8364 351.143 76.8808 347.323 72.4094 340.412C66.6801 331.559 65.49 330.876 61.6745 334.26ZM246.771 354.404C246.771 355.229 247.207 355.904 247.74 355.904C248.272 355.904 248.449 355.229 248.133 354.404C247.816 353.579 247.38 352.904 247.164 352.904C246.948 352.904 246.771 353.579 246.771 354.404ZM249.958 367.084C250.371 371.258 252.771 372.12 252.771 368.094C252.771 366.318 252.141 364.876 251.208 364.518C249.96 364.039 249.708 364.555 249.958 367.084ZM259.406 387.434C259.04 391.268 258.789 398.069 258.848 402.547C258.929 408.704 258.536 411.332 257.235 413.318C255.649 415.737 255.636 416.277 257.068 420.174C257.923 422.501 258.928 426.807 259.302 429.745C259.677 432.682 260.607 436.282 261.37 437.745C262.133 439.207 262.759 441.59 262.763 443.04C262.766 444.489 263.441 446.964 264.263 448.54C265.084 450.115 265.759 452.84 265.763 454.595C265.766 456.35 266.18 458.04 266.682 458.35C267.184 458.661 267.905 460.749 268.284 462.991C268.662 465.233 269.599 468.268 270.364 469.736C271.129 471.203 271.762 473.304 271.771 474.404C271.793 477.465 276.347 490.264 277.557 490.667C278.165 490.87 278.904 488.947 279.269 486.214C279.623 483.568 280.303 480.279 280.78 478.904C281.257 477.529 281.947 472.689 282.312 468.148C282.677 463.608 283.379 459.644 283.872 459.339C285.405 458.391 284.929 442.445 283.273 439.268C282.452 437.693 281.777 435.599 281.773 434.614C281.77 433.63 280.836 430.999 279.697 428.767C278.56 426.536 277.839 424.499 278.098 424.24C278.774 423.564 275.182 413.444 271.724 406.281C269.684 402.055 268.769 398.64 268.769 395.254C268.769 390.89 268.289 389.804 264.42 385.407C260.072 380.464 260.072 380.464 259.406 387.434ZM115.593 421.34C114.11 423.796 112.589 427.514 112.212 429.604C111.835 431.694 111.092 433.953 110.559 434.625C109.003 436.588 111.41 453.856 114.035 459.563C114.581 460.75 114.75 463.45 114.409 465.563C113.545 470.929 113.546 470.944 114.703 475.404C119.149 492.548 115.422 532.527 108.57 541.18C105.46 545.107 105.46 545.107 105.695 568.256C105.884 586.877 105.605 592.831 104.268 598.702C102.868 604.851 102.797 606.898 103.813 611.702C108.448 633.609 104.108 642.166 91.0788 636.814C86.6614 634.999 86.1927 636.01 89.0993 641.075C90.4651 643.456 91.8856 646.529 92.2546 647.904C93.3434 651.956 100.011 667.011 103.013 672.198C104.54 674.835 105.789 677.334 105.789 677.752C105.789 678.17 107.364 680.038 109.289 681.904C111.214 683.77 112.788 685.635 112.788 686.049C112.788 688.04 117.684 691.655 121.118 692.198C123.225 692.532 129.299 694.923 134.616 697.513C145.488 702.807 145.72 702.901 155.004 705.784C163.273 708.352 169.779 709.452 169.786 708.282C169.795 706.622 166.485 697.398 164.169 692.626C162.893 689.998 159.99 683.023 157.719 677.126C155.449 671.229 152.959 665.21 152.187 663.75C151.415 662.29 150.769 659.815 150.751 658.25C150.734 656.685 150.059 654.53 149.251 653.463C148.444 652.395 147.784 649.834 147.784 647.772C147.784 645.709 147.364 643.763 146.851 643.446C146.338 643.129 145.415 640.289 144.799 637.137C144.184 633.984 143.28 630.504 142.79 629.404C142.301 628.304 141.607 625.911 141.248 624.087C140.889 622.262 139.967 619.562 139.197 618.087C138.427 616.611 137.78 614.054 137.759 612.404C137.738 610.754 137.061 608.53 136.253 607.463C135.446 606.395 134.785 603.863 134.785 601.835C134.785 599.807 134.11 596.533 133.285 594.558C132.46 592.584 131.786 589.88 131.786 588.55C131.786 587.221 131.149 584.905 130.371 583.405C129.593 581.905 128.643 577.916 128.26 574.541C127.877 571.166 127.176 567.923 126.702 567.334C126.228 566.746 125.384 560.671 124.825 553.834C124.266 546.998 123.377 538.254 122.849 534.404C122.321 530.554 121.867 522.762 121.838 517.088C121.807 510.759 121.304 505.928 120.537 504.588C119.614 502.975 119.156 491.233 118.787 459.64C118.287 416.876 118.288 416.876 115.593 421.34ZM147.855 460.407C149.471 467.737 148.711 477.89 146.4 479.808C144.023 481.781 139.832 482.189 139.187 480.51C138.848 479.627 138 478.904 137.303 478.904C134.802 478.904 133.594 458 135.85 453.782C139.108 447.695 145.874 451.43 147.855 460.407ZM371.174 503.654C370.888 504.617 370.002 506.678 369.205 508.235C368.408 509.792 367.753 511.817 367.75 512.735C367.746 513.653 367.072 515.693 366.251 517.268C365.429 518.844 364.757 520.705 364.757 521.404C364.757 522.103 364.084 523.964 363.262 525.54C362.441 527.115 361.764 529.304 361.757 530.404C361.75 531.504 361.136 533.571 360.392 534.997C359.647 536.423 358.714 539.325 358.316 541.446C357.918 543.567 356.954 546.212 356.174 547.325C355.396 548.438 354.758 550.572 354.758 552.067C354.758 553.563 354.308 555.064 353.758 555.404C352.445 556.216 352.479 560.515 353.819 563.019C356.45 567.934 349.012 577.509 340.759 579.83C324.049 584.532 323.261 589.032 335.76 608.404C336.825 610.054 338.393 612.754 339.244 614.404C340.095 616.054 342.312 619.957 344.172 623.078C346.032 626.199 348.062 630.295 348.684 632.181C349.307 634.067 350.928 636.655 352.287 637.931C353.646 639.208 354.758 641.019 354.758 641.956C354.758 642.893 355.386 644.18 356.153 644.817C356.92 645.454 357.84 647.534 358.198 649.44C358.555 651.345 359.228 652.904 359.694 652.904C360.159 652.904 360.849 654.141 361.227 655.654C362.731 661.684 368.756 662.96 368.756 657.249C368.756 656.509 369.176 655.904 369.689 655.904C370.202 655.904 370.881 655.083 371.199 654.08C371.517 653.077 372.756 651.207 373.952 649.923C376.706 646.967 382.516 638.544 383.813 635.627C384.356 634.405 385.894 631.604 387.229 629.404C388.565 627.204 390.2 624.391 390.865 623.154C391.53 621.917 392.452 620.904 392.914 620.904C393.375 620.904 393.753 620.468 393.753 619.935C393.753 619.402 395.778 615.836 398.253 612.01C400.727 608.184 402.752 604.079 402.752 602.887C402.752 601.695 403.652 599.575 404.752 598.177C405.852 596.778 406.751 594.895 406.751 593.991C406.751 593.088 405.852 591.578 404.752 590.636C403.348 589.433 402.74 587.655 402.716 584.664C402.696 582.321 402.038 579.279 401.252 577.904C400.466 576.529 399.807 574.474 399.787 573.337C399.768 572.2 398.402 568.63 396.753 565.404C395.103 562.178 393.753 558.747 393.753 557.78C393.753 556.813 393.349 555.773 392.856 555.468C392.363 555.163 390.694 551.424 389.149 547.159C387.603 542.894 385.759 538.279 385.052 536.904C384.345 535.529 383.764 533.893 383.76 533.268C383.757 532.644 383.082 530.844 382.26 529.268C381.44 527.693 380.75 525.054 380.729 523.404C380.708 521.754 380.03 519.53 379.222 518.463C378.415 517.395 377.755 515.538 377.755 514.335C377.755 513.133 377.136 511.635 376.38 511.008C375.623 510.38 374.718 508.075 374.368 505.885C373.707 501.753 372.075 500.614 371.174 503.654ZM278.767 544.558C278.767 548.057 293.231 559.506 304.264 564.74C315.795 570.211 334.435 570.452 338.493 565.182C340.974 561.959 340.974 561.959 334.617 562.516C330.126 562.91 326.978 562.608 323.886 561.489C321.48 560.617 318.33 559.901 316.886 559.898C315.444 559.894 312.974 559.219 311.4 558.398C309.824 557.576 308 556.904 307.345 556.904C306.691 556.904 304.039 555.562 301.452 553.921C298.866 552.281 295.572 550.643 294.133 550.281C292.694 549.92 289.22 548.112 286.414 546.264C280.747 542.532 278.767 542.09 278.767 544.558ZM151.149 545.977C152.597 547.116 153.783 549.055 153.783 550.285C153.783 551.515 154.444 553.395 155.251 554.463C158.791 559.144 155.538 567.957 149.74 569.389C145.901 570.337 142.122 566.89 141.258 561.65C140.874 559.315 140.132 556.875 139.611 556.228C137.174 553.205 139.117 546.461 142.784 545.21C147.603 543.567 148.149 543.617 151.149 545.977ZM91.7907 551.066C83.5847 554.441 55.7683 557.277 53.4645 554.973C50.8069 552.315 45.8035 553.691 47.3493 556.654C48.1382 558.167 48.7862 561.055 48.7902 563.073C48.7932 565.091 49.418 568.016 50.1779 569.573C52.1227 573.557 54.7951 582.293 54.7951 584.666C54.7951 585.762 55.4142 587.173 56.1701 587.8C56.927 588.428 57.8162 590.621 58.1462 592.673C59.733 602.538 70.8605 617.042 77.7927 618.283C79.7174 618.628 82.8669 619.903 84.7917 621.116C95.5184 627.879 100.227 625.501 95.3742 615.772C93.2765 611.566 93.2375 598.874 95.3102 594.865C97.111 591.382 97.093 550.782 95.2902 550.304C94.7403 550.157 93.1655 550.501 91.7907 551.066ZM268.371 570.379C263.09 575.601 258.77 580.292 258.77 580.805C258.77 581.318 258.415 581.887 257.982 582.071C257.548 582.254 255.244 584.538 252.863 587.146C248.609 591.803 249.186 595.685 254.159 595.871C254.649 595.889 257.124 597.155 259.659 598.685C276.012 608.549 296.692 605.859 310.786 592.036C320.609 582.403 320.969 579.556 312.492 578.56C306.756 577.886 300.331 575.63 299.274 573.919C298.929 573.361 297.886 572.897 296.956 572.889C294.703 572.87 288.892 569.328 280.619 562.933C277.972 560.886 277.972 560.886 268.371 570.379ZM316.281 617.49C319.944 621.263 320.189 622.02 319.799 628.338C318.855 643.57 303.764 641.309 303.764 625.935C303.764 614.351 309.485 610.491 316.281 617.49ZM170.551 629.974C177.153 632.275 178.883 644.299 173.349 649.428C166.343 655.921 157.621 644.229 160.835 632.654C161.987 628.505 164.416 627.835 170.551 629.974ZM415.417 652.571C414.179 653.809 414.74 654.684 417.157 655.291C418.481 655.624 420.281 656.171 421.157 656.507C422.287 656.94 422.749 656.537 422.749 655.118C422.749 652.456 417.393 650.595 415.417 652.571ZM377.923 662.53C375.631 665.624 373.756 668.774 373.756 669.53C373.756 670.286 373.369 670.904 372.896 670.904C372.424 670.904 370.511 672.524 368.646 674.505C361.647 681.94 352.856 690.517 348.877 693.795C343.467 698.25 345.276 704.771 351.968 704.936C352.677 704.953 354.132 705.628 355.199 706.436C357.494 708.171 364.579 708.306 373.756 706.789C377.33 706.198 382.504 705.572 385.254 705.398C388.004 705.223 392.278 704.381 394.753 703.526C397.227 702.672 401.787 701.257 404.884 700.382C407.982 699.507 412.001 697.467 413.814 695.848C415.626 694.229 417.479 692.904 417.93 692.904C420.512 692.904 422.749 688.657 422.749 683.755C422.749 677.332 417.25 665.457 414.765 666.516C411.413 667.944 408.405 668.116 404.919 667.078C402.902 666.478 399.225 665.732 396.749 665.421C393.274 664.984 391.333 663.959 388.25 660.929C383.081 655.849 382.844 655.886 377.923 662.53ZM428.764 668.532C428.756 669.152 429.423 671.275 430.248 673.25C432.516 678.678 432.209 689.557 429.651 694.419C427.082 699.303 419.893 706.892 417.792 706.937C413.508 707.03 410.469 712.147 413.679 713.865C415.608 714.898 418.259 713.287 424.083 707.544C428.127 703.556 433.048 705.86 444.186 716.951C449.682 722.425 454.927 726.904 455.84 726.904C456.753 726.904 458.06 727.579 458.745 728.404C463.012 733.547 466.444 720.856 462.277 715.345C461.469 714.278 460.794 711.276 460.777 708.674C460.759 706.073 460.106 702.248 459.325 700.174C458.543 698.101 457.623 694.717 457.279 692.654C456.936 690.592 456.225 688.904 455.7 688.904C455.175 688.904 454.745 688.419 454.745 687.825C454.745 686.101 442.898 672.081 440.985 671.541C440.029 671.271 437.222 670.737 434.748 670.355C432.273 669.972 429.918 669.152 429.514 668.532C428.969 667.695 428.776 667.695 428.764 668.532ZM138.794 711.547C138.799 712.018 139.91 714.654 141.262 717.404C142.615 720.154 143.737 722.997 143.754 723.721C143.771 724.445 144.983 726.609 146.448 728.53C151.291 734.881 180.779 731.65 180.779 724.768C180.779 724.335 178.867 723.47 176.53 722.845C174.193 722.22 171.831 721.347 171.281 720.905C170.731 720.463 167.82 719.873 164.812 719.595C161.805 719.317 159.181 718.598 158.981 717.997C158.78 717.396 157.64 716.901 156.449 716.898C155.258 716.894 152.933 716.165 151.283 715.277C149.634 714.39 146.934 713.319 145.284 712.899C143.634 712.478 141.497 711.809 140.535 711.412C139.573 711.015 138.789 711.076 138.794 711.547ZM185.013 735.933C183.217 737.567 181.065 738.904 180.229 738.904C179.393 738.904 177.604 739.628 176.253 740.514C169.898 744.678 140.784 741.999 140.784 737.249C140.784 736.509 140.335 735.904 139.785 735.904C138.148 735.904 138.649 739.766 140.535 741.681C147.458 748.71 147.784 749.507 147.784 759.422C147.784 764.572 148.207 769.048 148.725 769.368C149.243 769.689 149.938 772.078 150.268 774.677C150.834 779.125 152.165 782.854 155.399 789.058C156.16 790.518 156.782 792.417 156.782 793.277C156.782 795.686 160.593 802.447 164.113 806.286C167.936 810.453 170.543 808.977 174.608 800.345C175.887 797.628 177.574 794.13 178.357 792.573C179.14 791.016 179.782 788.541 179.785 787.073C179.789 785.605 180.464 783.115 181.285 781.54C182.107 779.964 182.779 776.687 182.779 774.258C182.779 771.828 183.454 768.224 184.279 766.25C186.253 761.525 186.178 756.761 184.071 753.09C182.22 749.864 182.077 750.407 187.266 740.904C191.505 733.137 190.507 730.935 185.013 735.933Z"
  />
</svg>
