<svg
  width="558"
  height="787"
  viewBox="0 0 558 787"
  fill="none"
  xmlns="http://www.w3.org/2000/svg"
>
  <path
    fill-rule="evenodd"
    clip-rule="evenodd"
    fill="black"
    d="M226.569 5.00431C229.91 7.16631 232.643 9.29932 232.643 9.74332C232.643 10.1883 233.238 10.5523 233.966 10.5523C238.147 10.5523 250.164 26.2493 257.699 41.5523C265.376 57.1453 267.638 62.1983 267.638 63.7593C267.638 64.6103 268.313 65.8673 269.138 66.5523C269.963 67.2373 270.638 69.2623 270.638 71.0523C270.638 72.8423 271.312 74.8673 272.137 75.5523C272.962 76.2373 273.64 77.3042 273.643 77.9242C273.647 78.5452 274.278 80.2573 275.046 81.7303C275.925 83.4133 276.709 89.7233 277.16 98.7303C277.555 106.607 278.221 113.502 278.642 114.052C279.061 114.602 279.706 116.461 280.074 118.184C280.73 121.255 280.819 121.298 284.699 120.427C297.727 117.499 311.633 118.858 311.633 123.059C311.633 126.508 305.306 139.442 301.691 143.387C300.347 144.853 298.322 147.667 297.191 149.64C294.724 153.945 289.993 160.125 286.851 163.148C284.635 165.28 284.553 166.009 284.148 187.309C283.917 199.389 283.596 209.816 283.433 210.481C283.244 211.248 284.724 211.82 287.487 212.046C291.865 212.405 302.634 218.459 302.634 220.562C302.634 221.107 303.401 221.552 304.339 221.552C306.21 221.552 337.629 252.326 337.629 254.16C337.629 254.785 340.166 257.716 343.266 260.674C346.365 263.632 349.627 266.912 350.515 267.963C351.402 269.015 355.165 273.204 358.877 277.273C362.588 281.342 365.626 285.062 365.626 285.54C365.626 286.018 366.19 287.004 366.88 287.731C373.091 294.275 382.627 305.417 382.64 306.144C382.655 306.986 386.546 311.937 390.101 315.636C390.938 316.507 391.623 317.891 391.623 318.712C391.623 319.532 392.805 321.294 394.251 322.628C395.697 323.961 397.503 326.402 398.266 328.052C399.028 329.702 400.04 331.727 400.515 332.552C402.226 335.524 404.621 341.65 404.621 343.055C404.621 344.796 408.714 352.919 409.825 353.385C410.262 353.569 410.623 354.469 410.626 355.385C410.63 356.302 411.244 358.223 411.991 359.655C412.738 361.087 413.677 364.462 414.078 367.155C414.479 369.848 415.228 372.565 415.743 373.192C416.259 373.818 416.912 379.668 417.195 386.192C417.476 392.715 418.171 400.527 418.736 403.552C419.477 407.517 419.439 410.308 418.599 413.552C417.958 416.027 417.347 420.977 417.241 424.552C417.083 429.905 416.481 431.986 413.835 436.346C409.341 443.746 407.947 441.077 426.814 461.177C427.911 462.345 429.328 464.229 429.963 465.362C431.866 468.759 438.548 478.34 440.09 479.882C440.879 480.672 442.73 483.508 444.203 486.185C445.676 488.862 448.792 493.977 451.129 497.552C453.466 501.127 456.566 506.302 458.018 509.052C459.47 511.802 461.783 515.852 463.157 518.052C464.531 520.252 466.376 523.627 467.256 525.552C468.136 527.477 469.261 529.727 469.756 530.552C470.252 531.377 472.436 535.652 474.611 540.052C479.768 550.485 483.558 556.06 487.96 559.688C493.314 564.102 493.918 577.991 489.056 584.932C488.261 586.068 487.611 587.742 487.611 588.652C487.611 589.562 486.935 590.867 486.111 591.552C485.286 592.237 484.611 593.651 484.611 594.694C484.611 595.738 483.373 598.454 481.862 600.73C480.35 603.006 477.987 606.793 476.611 609.145C475.235 611.498 472.962 614.689 471.558 616.237C470.155 617.785 467.78 620.896 466.28 623.149C464.78 625.402 462.442 627.841 461.084 628.568C459.725 629.295 458.612 630.376 458.609 630.971C458.607 631.566 457.032 633.765 455.11 635.858C449.543 641.919 451.595 648.738 459.407 650.145C461.446 650.512 463.564 651.151 464.113 651.564C467.553 654.15 484.215 653.706 486.161 650.978C493.88 640.162 503.433 642.445 507.387 656.052C508.11 658.543 509.78 659.815 517.228 663.552C522.16 666.027 527.525 668.952 529.15 670.052C530.775 671.152 533.58 672.759 535.382 673.624C549.896 680.586 560.88 696.953 556.352 704.868C555.6 706.182 554.85 713.028 554.471 722.052C552.991 757.225 547.219 767.41 533.081 759.801C529.182 757.703 515.133 741.936 512.147 736.307C510.479 733.165 509.541 732.515 505.884 731.966C503.519 731.611 501.338 730.923 501.038 730.437C500.737 729.95 499.28 729.552 497.8 729.552C496.319 729.552 492.083 728.919 488.384 728.145C484.148 727.258 478.766 726.936 473.837 727.274C461.346 728.13 458.632 725.798 458.604 714.177C458.594 710.052 458.594 710.052 447.516 709.85C440.782 709.728 435.882 709.187 435.021 708.472C434.241 707.825 431.02 707.087 427.861 706.832C419.179 706.133 410.482 699.325 402.5 686.981C397.73 679.603 395.595 679.07 390.185 683.903C386.815 686.912 381.8 689.146 375.393 690.493C373.341 690.924 371.045 691.788 370.292 692.413C369.539 693.038 366.837 693.835 364.286 694.185C361.736 694.535 359.139 695.435 358.515 696.186C357.892 696.937 356.364 697.552 355.119 697.552C353.874 697.552 351.567 698.224 349.991 699.046C348.417 699.867 345.72 700.542 344.001 700.546C342.281 700.549 339.356 701.173 337.501 701.931C335.646 702.69 331.43 703.635 328.131 704.032C324.831 704.429 321.456 705.109 320.632 705.543C319.807 705.976 316.113 706.535 312.424 706.785C308.735 707.034 305.135 707.697 304.425 708.257C303.715 708.817 300.929 709.563 298.235 709.915C295.541 710.267 292.757 711.036 292.049 711.623C289.647 713.617 257.048 710.689 255.536 708.344C255.205 707.829 251.111 707.06 246.441 706.634C241.77 706.208 237.459 705.557 236.859 705.186C235.533 704.367 220.3 701.656 219.759 702.143C219.547 702.334 220.185 703.728 221.177 705.242C223.558 708.878 223.585 721.854 221.217 724.471C220.352 725.427 219.644 726.721 219.644 727.346C219.644 727.971 218.359 729.961 216.789 731.767C212.942 736.195 210.925 740.957 210.105 747.552C209.729 750.577 209.078 753.502 208.659 754.052C208.24 754.602 207.601 757.302 207.237 760.052C204.709 779.159 196.658 787.536 181.649 786.678C178.191 786.48 171.65 780.095 171.65 776.918C171.65 775.538 170.975 773.734 170.15 772.909C169.325 772.084 168.636 770.429 168.618 769.231C168.601 768.032 167.926 766.178 167.119 765.111C166.228 763.933 165.651 760.935 165.651 757.483C165.651 753.863 165.149 751.38 164.268 750.649C163.275 749.825 162.753 745.918 162.412 736.777C161.874 722.319 160.856 719.189 154.712 713.119C146.124 704.634 149.567 693.105 161.075 691.808C165.651 691.292 165.651 691.292 165.801 686.922C165.884 684.518 165.996 682.135 166.051 681.624C166.17 680.52 158.156 674.552 156.555 674.552C155.941 674.552 153.735 673.202 151.653 671.552C149.57 669.902 147.402 668.552 146.835 668.552C146.269 668.552 140.709 663.61 134.481 657.569C123.468 646.889 121.442 645.472 120.156 647.552C117.454 651.925 111.658 645.751 111.658 638.5C111.658 634.766 111.162 632.386 110.223 631.606C109.434 630.952 107.811 628.534 106.617 626.234C105.422 623.934 103.144 620.117 101.552 617.752C99.9611 615.387 98.6591 612.497 98.6591 611.331C98.6591 610.164 97.8722 608.335 96.9093 607.266C95.4435 605.638 95.2055 603.707 95.4445 595.362C95.6515 588.167 95.3264 584.591 94.2756 582.484C91.8519 577.625 91.284 567.723 93.1318 562.562C94.0166 560.092 94.9856 555.367 95.2865 552.062C95.5865 548.756 96.4674 544.355 97.2453 542.282C98.0232 540.208 98.6591 537.451 98.6591 536.154C98.6591 534.858 99.2742 533.287 100.025 532.664C100.776 532.04 101.666 529.52 102.002 527.063C102.339 524.606 103.057 521.798 103.596 520.824C104.136 519.849 105.045 516.914 105.618 514.302C108.235 502.35 108.898 499.85 110.233 496.901C111.016 495.168 111.658 492.566 111.658 491.119C111.658 489.672 112.338 486.858 113.17 484.866C115.203 480.002 114.586 479.783 109.165 483.443C106.631 485.153 104.2 486.552 103.763 486.552C103.325 486.552 101.516 487.276 99.7431 488.16C92.717 491.665 66.2872 492.034 62.9277 488.673C58.4072 484.152 50.6652 469.414 50.6652 465.329C50.6652 464.047 50.0274 462.087 49.2485 460.974C48.4696 459.861 47.6135 456.227 47.3486 452.897C46.8996 447.286 45.8799 444.355 43.0502 440.552C42.4363 439.727 41.6644 436.321 41.3344 432.982C41.0044 429.644 40.0476 425.594 39.2067 423.982C38.3668 422.371 37.6718 419.027 37.6618 416.552C37.6528 414.077 36.9748 409.843 36.1559 407.143C35.337 404.443 34.6672 399.031 34.6672 395.116C34.6672 390.237 34.1683 387.285 33.0824 385.734C31.1547 382.982 30.0376 335.341 31.7924 330.719C33.0412 327.429 53.8887 307.116 57.5903 305.583C60.2649 304.475 63.6635 299.925 63.6635 297.452C63.6635 296.742 64.8043 294.971 66.1982 293.515C68.9428 290.65 68.6028 287.407 65.2673 284.638C64.3854 283.906 63.6635 282.517 63.6635 281.552C63.6635 280.587 62.9886 279.237 62.1637 278.552C61.3388 277.867 60.664 276.703 60.664 275.964C60.664 275.226 59.314 273.084 57.6642 271.205C56.0144 269.326 54.6647 267.387 54.6647 266.897C54.6647 266.407 53.2017 263.767 51.415 261.029C49.6282 258.292 47.6185 254.927 46.9496 253.552C37.3918 233.904 30.6275 226.998 18.934 224.95C13.6107 224.017 0.650276 211.058 0.70427 206.721C0.749264 203.166 3.90105 199.552 6.95866 199.552C8.31549 199.552 9.9752 198.889 10.6481 198.078C11.321 197.268 13.4009 196.318 15.2697 195.967C19.1842 195.233 19.8541 192.052 17.1755 186.916C16.3546 185.341 15.6797 182.575 15.6757 180.77C15.6727 178.965 14.9945 175.872 14.1696 173.898C13.3447 171.923 12.6698 168.293 12.6698 165.831C12.6698 163.369 12.004 159.936 11.1901 158.203C6.50469 148.231 6.54667 89.1283 11.2431 81.8373C12.028 80.6193 12.6838 77.6943 12.7018 75.3373C12.7188 72.9803 13.3937 70.1782 14.2016 69.1112C15.0085 68.0432 15.6696 66.1863 15.6696 64.9833C15.6696 63.7813 16.3445 62.2373 17.1694 61.5523C17.9943 60.8673 18.6691 58.8032 18.6691 56.9652C18.6691 51.3352 26.7092 49.9363 34.8542 54.1493C36.347 54.9213 38.3279 55.5523 39.2568 55.5523C40.1856 55.5523 43.1801 56.9273 45.9118 58.6083C51.7051 62.1743 55.5494 62.1993 57.2922 58.6833C58.9 55.4403 64.6754 49.9863 67.413 49.1253C68.6509 48.7363 69.6628 48.0303 69.6628 47.5573C69.6628 46.1493 84.5879 34.4813 88.4594 32.8633C90.4272 32.0403 93.6317 30.2842 95.5805 28.9602C97.5292 27.6352 100.567 26.5523 102.332 26.5523C104.096 26.5523 105.799 26.1332 106.115 25.6222C106.431 25.1102 109.27 24.3913 112.424 24.0243C115.577 23.6563 120.163 22.6983 122.616 21.8943C128.167 20.0753 164.516 19.4392 166.737 21.1222C170.977 24.3332 183.502 25.3653 184.461 22.5823C184.92 21.2513 191.19 13.1633 194.917 9.09427C203.592 -0.375727 215.817 -1.95469 226.569 5.00431ZM209.107 10.9543C204.309 13.0443 197.425 20.3953 193.73 27.3733C192.6 29.5093 192.907 30.0783 197.574 34.4833C203.139 39.7363 203.747 41.8623 200.493 44.6853C197.613 47.1843 196.768 47.0593 193.195 43.6103C186.88 37.5133 181.669 34.7183 178.702 35.8383C176.444 36.6903 174.881 36.3333 169.277 33.6863C160.894 29.7243 149.01 27.6603 144.33 29.3523C142.55 29.9963 137.056 30.9643 132.124 31.5033C127.192 32.0423 120.681 32.7702 117.657 33.1222C110.215 33.9872 88.6603 42.5103 88.6603 44.5883C88.6603 45.0283 86.9754 46.4303 84.9157 47.7033C75.9858 53.2233 62.0567 66.3683 60.0509 71.1673C57.4483 77.3993 53.6526 77.9983 48.0973 73.0533C45.9346 71.1283 43.8628 69.5533 43.4928 69.5533C43.1219 69.5523 41.4842 68.4293 39.8534 67.0553C32.0144 60.4593 21.7868 65.5993 21.7018 76.1803C21.6838 78.4503 21.0527 80.8192 20.2988 81.4442C16.5322 84.5702 16.3843 151.934 20.1308 157.961C20.8467 159.111 21.6936 162.977 22.0136 166.552C22.3346 170.127 23.1248 174.627 23.7707 176.552C28.5631 190.849 28.0969 190.082 31.7504 189.703C33.5982 189.512 36.0111 188.724 37.111 187.953C38.2669 187.144 41.5523 186.552 44.8888 186.552C51.0081 186.552 52.744 184.522 49.1655 181.552C48.3406 180.867 47.6655 179.843 47.6655 179.276C47.6655 178.71 46.3157 175.388 44.6659 171.896C43.0161 168.404 41.6662 164.759 41.6662 163.796C41.6662 162.833 40.7663 158.898 39.6664 155.052C36.7758 144.943 36.6511 106.028 39.4977 102.512C42.1004 99.2982 46.6228 100.424 46.7668 104.321C46.9677 109.718 46.4846 114.069 45.5837 115.002C44.3788 116.249 44.392 132.873 45.5988 134.102C46.1117 134.624 46.7287 136.852 46.9687 139.052C47.2096 141.252 47.3518 137.783 47.2858 131.342C47.1398 117.097 48.2984 114.73 53.5798 118.491C56.6644 120.688 56.6645 120.688 56.6645 132.67C56.6645 140.831 57.1012 145.512 58.0331 147.352C58.787 148.837 59.4681 153.202 59.547 157.052C59.759 167.27 62.6727 181.442 65.3893 185.465C66.7422 187.467 67.453 189.637 67.111 190.715C66.6881 192.05 67.0381 192.552 68.3959 192.552C73.8312 192.552 74.3461 201.581 69.0268 203.604C66.3531 204.621 66.0703 206.891 68.163 210.552C68.9489 211.927 69.6107 214.177 69.6337 215.552C69.6567 216.927 70.3477 219.341 71.1686 220.916C71.9905 222.492 72.6625 225.204 72.6625 226.944C72.6625 228.684 73.3004 231.018 74.0793 232.131C74.8592 233.244 75.8182 235.931 76.2111 238.103C76.6041 240.275 77.5229 243.177 78.2538 244.552C80.3396 248.478 80.1995 227.312 78.1008 221.428C76.8049 217.795 76.7479 216.413 77.7648 213.292C78.6887 210.453 78.7096 208.982 77.8527 207.292C73.9412 199.583 73.4252 196.047 72.9323 173.601C71.9114 127.137 73.4062 116.749 80.7763 119.088C83.038 119.807 82.888 117.572 82.6711 147.303C82.5111 169.065 82.6562 171.491 84.0771 170.946C85.7679 170.297 86.1766 165.22 85.6967 150.81C85.5007 144.94 85.7587 143.452 87.0575 142.953C88.4084 142.435 88.6603 140.397 88.6603 130.01C88.6603 116.219 89.4344 113.068 93.2489 111.329C97.8714 109.223 98.9361 112.078 98.3632 125.052C98.0962 131.102 97.4033 137.253 96.8234 138.722C95.7095 141.546 94.9327 163.159 95.9115 164.137C97.0064 165.232 104.567 160.051 105.126 157.822C105.459 156.497 106.744 155.317 108.273 154.934C110.769 154.307 117.657 148.28 117.657 146.722C117.657 146.303 119.22 143.505 121.131 140.506C123.041 137.506 124.616 133.841 124.63 132.361C124.644 130.881 125.055 129.423 125.543 129.122C126.03 128.821 126.742 126.905 127.125 124.864C127.508 122.824 128.459 120.244 129.238 119.131C130.017 118.018 130.655 115.497 130.655 113.529C130.655 111.562 131.195 109.412 131.854 108.753C132.514 108.093 133.526 106.091 134.104 104.303C135.917 98.6913 142.654 99.6432 142.654 105.512C142.654 108.003 149.324 116.552 151.268 116.552C151.65 116.552 153.459 117.693 155.288 119.088C161.433 123.776 186.093 127.877 188.148 124.552C188.488 124.002 189.864 123.552 191.207 123.552C194.078 123.552 194.152 122.97 192.078 116.631C191.215 113.993 190.654 110.084 190.829 107.944C191.565 98.9502 200.646 104.841 200.646 114.313C200.646 116.607 201.184 118.547 201.896 118.824C202.584 119.092 204.026 121.598 205.102 124.394C206.924 129.131 215.153 140.043 218.267 141.852C220.221 142.987 220.11 138.184 218.144 136.552C217.319 135.867 216.644 134.744 216.644 134.057C216.644 132.347 212.694 123.4 211.123 121.552C204.1 113.29 203.307 105.552 209.483 105.552C211.709 105.552 217.57 112.575 220.333 118.552C221.73 121.577 224.171 126.788 225.758 130.131C227.345 133.474 228.643 136.76 228.643 137.433C228.643 138.105 229.506 140.32 230.561 142.354C236.928 154.634 238.953 159.316 238.808 161.423C238.718 162.727 240.218 166.386 242.142 169.554C244.067 172.722 245.655 176.605 245.673 178.183C245.69 179.761 246.365 181.926 247.173 182.993C249.083 185.52 249.342 178.728 247.467 175.236C246.057 172.608 243.823 163.282 242.632 155.052C242.155 151.752 241.062 147.379 240.204 145.334C239.345 143.289 238.628 140.364 238.61 138.834C238.593 137.304 237.918 135.178 237.11 134.111C236.303 133.043 235.642 131.131 235.642 129.861C235.642 128.591 235.228 127.552 234.721 127.552C234.215 127.552 233.516 126.089 233.168 124.302C232.334 120.023 228.606 110.332 225.057 103.221C224.28 101.664 223.643 100.049 223.643 99.6313C223.643 98.3083 228.797 96.4663 230.758 97.0883C233.852 98.0713 231.118 82.2053 227.484 78.1023C227.022 77.5803 226.643 76.5423 226.643 75.7973C226.643 71.5373 216.71 55.0253 213.543 54.0203C210.251 52.9753 209.399 46.5083 212.176 43.6383C213.479 42.2923 220.615 45.6753 220.637 47.6503C220.641 47.9783 222.66 50.4533 225.122 53.1503C227.586 55.8463 230.497 59.9293 231.59 62.2233C232.683 64.5173 234.043 66.6823 234.61 67.0323C235.178 67.3833 235.642 69.4173 235.642 71.5523C235.642 73.6873 236.032 75.6752 236.509 75.9702C237.757 76.7412 241.407 89.1903 242.075 94.9513C242.388 97.6463 243.049 100.346 243.544 100.951C244.039 101.557 244.748 105.202 245.119 109.052C245.49 112.902 246.464 118.171 247.284 120.761C248.639 125.045 248.619 125.795 247.06 129.079C244.474 134.531 246.763 136.593 251.984 133.512C253.995 132.325 255.64 131.004 255.64 130.575C255.64 130.146 257.327 129.314 259.389 128.725C271.039 125.399 270.64 125.761 270.623 118.557C270.615 114.979 269.959 110.252 269.167 108.052C268.374 105.852 267.706 100.55 267.682 96.2703C267.656 91.7133 267.016 87.0002 266.138 84.8982C265.313 82.9232 264.638 80.5453 264.638 79.6133C264.638 78.6813 263.289 75.2783 261.639 72.0523C259.989 68.8263 258.639 65.6543 258.639 65.0043C258.639 64.3543 257.739 62.6783 256.639 61.2793C255.539 59.8813 254.64 58.0752 254.64 57.2672C254.64 56.4582 253.965 55.2373 253.14 54.5523C252.315 53.8673 251.64 52.2373 251.64 50.9303C251.64 49.6223 251.199 48.5523 250.659 48.5523C250.12 48.5523 249.372 47.3303 248.997 45.8373C246.875 37.3803 234.135 22.0542 223.226 14.8352C214.666 9.17024 213.768 8.92326 209.107 10.9543ZM138.223 121.125C137.36 121.989 136.651 123.675 136.648 124.873C136.644 126.072 135.97 128.341 135.149 129.916C134.327 131.492 133.655 133.768 133.655 134.975C133.655 136.182 132.994 138.043 132.187 139.111C131.379 140.178 130.689 141.727 130.653 142.552C130.617 143.377 129.731 145.852 128.684 148.052C127.349 150.86 126.946 153.268 127.332 156.133C127.946 160.691 125.601 166.552 123.164 166.552C122.372 166.552 120.111 167.321 118.141 168.261C115.302 169.615 114.167 169.727 112.686 168.802C111.102 167.812 110.057 168.238 105.844 171.593C103.11 173.77 100.444 175.552 99.9211 175.552C97.1124 175.552 95.2976 179.494 97.1593 181.552C99.634 184.287 100.027 184.181 106.607 179.011C115.435 172.074 122.969 172.024 129.973 178.855C133.017 181.825 134.151 183.394 136.74 188.225C142.875 199.669 121.294 205.439 112.668 194.662C109.922 191.23 108.201 190.759 106.9 193.084C105.361 195.833 98.9231 196.149 96.2175 193.607C89.7123 187.494 87.7304 192.592 88.6603 213.052C89.1603 224.052 89.1604 224.052 96.0566 224.552C101.304 224.932 103.158 225.471 103.806 226.802C104.275 227.765 105.109 229.339 105.66 230.302C106.212 231.265 107.071 232.952 107.571 234.052C108.924 237.031 115.168 243.262 117.563 244.022C118.715 244.388 119.656 245.071 119.656 245.54C119.656 246.009 121.119 246.71 122.906 247.098C124.693 247.486 126.417 248.213 126.737 248.713C127.056 249.213 129.081 249.889 131.236 250.214C135.591 250.871 142.654 256.737 142.654 259.696C142.654 262.327 144.464 262.906 147.162 261.138C148.493 260.266 150.472 259.552 151.559 259.552C152.645 259.552 153.781 259.153 154.082 258.665C154.383 258.178 156.322 257.465 158.391 257.081C160.46 256.697 162.839 255.767 163.679 255.013C164.629 254.162 168.219 253.532 173.167 253.348C180.211 253.086 181.171 252.822 181.504 251.052C182.051 248.149 189.336 241.776 193.002 240.993C194.732 240.623 196.741 239.842 197.466 239.257C198.191 238.672 202.24 238.097 206.465 237.981C213.062 237.799 214.195 237.507 214.497 235.91C214.691 234.888 216.603 232.4 218.746 230.38C220.89 228.361 222.647 226.111 222.651 225.38C222.654 224.65 223.551 222.702 224.643 221.052C225.736 219.402 226.633 217.094 226.636 215.924C226.64 214.754 227.336 212.138 228.183 210.111C229.132 207.839 229.749 203.164 229.793 197.913C229.862 189.571 229.931 189.339 233.204 186.359C236.778 183.107 237.078 179.034 234.005 175.473C233.255 174.605 232.643 173.007 232.643 171.923C232.643 170.839 232.144 169.454 231.536 168.845C230.927 168.236 230.132 166.287 229.769 164.515C229.234 161.896 228.083 160.745 223.627 158.366C220.612 156.756 216.994 154.339 215.59 152.995C212.549 150.087 211.294 149.869 212.093 152.389C212.437 153.473 211.712 155.648 210.324 157.694C208.756 160.003 207.754 163.313 207.32 167.606C206.189 178.799 196.982 184.737 188.012 180.058C186.437 179.237 184.225 178.562 183.099 178.558C172.6 178.527 181.781 154.474 193.753 150.645C196.342 149.817 198.144 149.79 200.143 150.55C202.365 151.396 203.286 151.283 204.714 149.99C205.83 148.981 207.282 148.619 208.573 149.029C211.48 149.952 211.178 149.137 207.027 144.862C205.037 142.812 202.303 139.385 200.953 137.246C198.993 134.14 198.061 133.475 196.323 133.941C195.126 134.262 192.684 134.531 190.898 134.538C188.754 134.547 187.648 135.038 187.648 135.981C187.648 136.766 187.06 138.004 186.342 138.731C185.624 139.457 184.204 141.47 183.186 143.203C181.697 145.737 174.653 150.552 172.436 150.552C168.464 150.552 165.108 142.084 166.986 136.802C167.67 134.875 167.444 134.552 165.408 134.552C161.875 134.552 149.593 128.166 146.153 124.541C141.842 119.997 140.101 119.247 138.223 121.125ZM290.635 130.688C283.278 131.538 282.465 131.97 280.136 136.262C278.056 140.099 273.003 143.714 263.639 148.07C260.614 149.476 257.358 151.06 256.403 151.59C255.448 152.119 253.986 152.552 253.154 152.552C251.149 152.552 251.117 158.479 253.108 161.111C253.98 162.264 254.589 165.32 254.608 168.635C254.655 176.778 256.792 176.925 265.115 169.357C267.351 167.324 270.703 164.624 272.564 163.357C274.426 162.089 276.442 160.18 277.043 159.114C277.645 158.049 279.356 156.111 280.846 154.809C282.336 153.507 285.702 149.214 288.324 145.268C290.947 141.322 293.917 137.27 294.925 136.262C298.733 132.453 296.824 129.972 290.635 130.688ZM47.6655 148.434C47.6655 150.084 48.1155 151.712 48.6655 152.052C49.2474 152.412 49.6652 151.415 49.6652 149.67C49.6652 148.02 49.2154 146.392 48.6655 146.052C48.0835 145.692 47.6655 146.689 47.6655 148.434ZM192.953 163.991C189.669 166.847 190.623 170.052 194.756 170.052C196.854 170.052 197.185 169.531 197.454 165.802C197.808 160.918 196.905 160.555 192.953 163.991ZM273.207 177.438C272.862 177.999 272.408 184.217 272.202 191.255C271.996 198.293 271.496 207.373 271.091 211.433C270.483 217.522 270.597 218.733 271.746 218.353C273.262 217.851 274.251 207.772 274.695 188.287C274.931 177.944 274.561 175.248 273.207 177.438ZM119.253 185.289C118.394 186.148 121.693 189.552 123.384 189.552C125.531 189.552 124.458 186.389 122.004 185.483C120.821 185.047 119.583 184.959 119.253 185.289ZM260.777 185.688C258.744 186.448 258.505 187.022 259.064 189.811C259.422 191.594 260.24 195.977 260.884 199.552C262.053 206.052 262.053 206.052 262.856 198.052C264.023 186.416 263.715 184.591 260.777 185.688ZM17.8525 206.575C15.4768 207.649 13.8216 208.988 14.1706 209.554C15.5524 211.79 22.9697 214.61 28.9059 215.157C32.3495 215.474 36.6688 216.19 38.5046 216.749C40.3403 217.308 45.2896 218.097 49.5031 218.503C53.7166 218.909 57.8434 219.543 58.6723 219.911C59.9221 220.466 60.1249 219.763 59.8539 215.816C59.423 209.531 57.0103 204.205 54.9506 204.996C50.2322 206.807 34.908 207.852 30.6296 206.654C23.1485 204.56 22.3189 204.555 17.8525 206.575ZM238.222 210.819C238.033 211.497 237.302 213.967 236.598 216.307C235.057 221.432 235.819 222.513 239.432 220.328C242.392 218.537 243.129 216.634 242.238 213.083C241.591 210.504 238.756 208.905 238.222 210.819ZM180.615 221.011C185.487 226.883 166.534 239.864 161.068 234.398C159.689 233.019 158.728 227.035 159.748 226.192C163.305 223.258 179.204 219.311 180.615 221.011ZM280.636 224.438C280.636 224.925 281.308 226.612 282.13 228.188C282.951 229.763 283.641 232.177 283.662 233.552C283.683 234.927 284.36 236.926 285.168 237.993C286.238 239.408 286.645 242.799 286.669 250.493C286.703 261.052 286.703 261.052 288.617 258.552C289.67 257.177 291.118 255.366 291.833 254.528C292.549 253.689 294.035 251.279 295.135 249.172C296.235 247.064 299.234 243.44 301.8 241.119C304.365 238.797 306.165 236.476 305.799 235.961C304.762 234.503 294.94 226.552 294.175 226.552C293.799 226.552 292.817 225.877 291.992 225.052C290.366 223.426 280.636 222.9 280.636 224.438ZM45.3739 230.177C44.553 230.999 47.6753 236.592 51.6488 241.416C52.7197 242.715 54.5926 245.865 55.8114 248.416C57.0293 250.966 58.2933 253.277 58.6203 253.552C58.9462 253.827 60.3259 256.19 61.6867 258.802C63.0465 261.414 64.4136 263.552 64.7236 263.552C65.0325 263.552 67.0581 267 69.2238 271.214C71.3905 275.427 74.4002 280.253 75.912 281.936C77.4238 283.62 78.6615 285.302 78.6615 285.674C78.6615 286.047 80.2505 288.759 82.1933 291.702C84.135 294.644 86.2716 297.881 86.9426 298.895C87.6125 299.909 88.9474 301.665 89.9103 302.798C90.9772 304.054 91.6601 306.511 91.6601 309.094C91.6601 313.089 91.846 313.364 94.9416 313.945C96.7473 314.284 98.8842 315.541 99.6911 316.739C104.045 323.202 109.191 326.418 106.332 320.889C105.302 318.897 104.884 315.034 104.943 308.046C105.002 301.051 104.523 296.616 103.344 293.267C102.151 289.879 101.659 285.226 101.659 277.333C101.659 266.394 99.809 258.999 96.5724 256.999C96.0705 256.688 95.6596 255.081 95.6596 253.427C95.6596 250.042 94.4138 247.306 91.5842 244.476C86.7398 239.631 90.8813 236.473 95.8447 241.229C99.0383 244.29 100.516 243.728 98.8551 240.084C97.5823 237.288 93.1597 235.748 90.7551 237.262C88.4793 238.696 87.8745 267.395 90.0492 270.797C91.3631 272.854 92.1341 278.773 91.7941 284.195C91.3282 291.637 79.6615 283.053 79.6615 275.268C79.6615 274.569 79.0548 273.109 78.3139 272.025C77.572 270.94 76.678 268.563 76.3271 266.744C75.9761 264.925 75.0081 262.755 74.1752 261.923C73.3433 261.09 72.6625 259.143 72.6625 257.595C72.6625 256.047 71.9905 253.492 71.1686 251.916C70.3477 250.341 69.6729 248.129 69.6689 247.002C69.6659 245.874 69.132 244.421 68.4831 243.772C67.8342 243.123 67.0463 240.67 66.7333 238.322C65.9974 232.804 49.1645 226.386 45.3739 230.177ZM241.098 231.622C240.734 232.211 239.619 232.998 238.62 233.372C235.483 234.546 219.644 248.598 219.644 250.208C219.644 251.411 220.668 251.142 224.393 248.958C227.006 247.426 230.472 245.471 232.097 244.613C233.721 243.754 235.666 242.49 236.418 241.802C240.522 238.048 247.284 241.346 246.143 246.545C245.4 249.928 244.657 250.499 233.427 256.332C222.093 262.22 222.406 261.679 223.014 274.304C223.532 285.052 223.532 285.052 242.835 285.052C255.735 285.052 263.134 284.647 265.138 283.83C266.788 283.159 269.34 282.372 270.808 282.081C272.834 281.681 273.648 280.771 274.185 278.303C274.574 276.515 275.51 274.164 276.265 273.079C277.019 271.995 277.637 269.462 277.637 267.452C277.637 265.441 278.321 262.16 279.156 260.161C280.479 256.995 280.49 256.171 279.253 253.776C278.471 252.263 277.513 248.782 277.126 246.039C275.589 235.169 273.714 231.308 270.243 231.867C264.455 232.797 259.564 234.354 254.245 236.957C246.78 240.61 244.641 239.755 244.641 233.118C244.641 230.504 242.379 229.549 241.098 231.622ZM202.646 249.541C190.005 251.855 182.773 267.398 189.148 278.552C189.934 279.927 190.593 282.489 190.613 284.246C190.712 293.209 201.031 295.195 209.561 287.892C211.807 285.969 213.645 283.811 213.645 283.097C213.645 282.382 214.308 281.247 215.119 280.574C216.417 279.496 216.417 279.012 215.119 276.501C214.308 274.934 213.645 272.14 213.645 270.293C213.645 268.446 212.984 266.061 212.177 264.993C211.369 263.926 210.694 261.545 210.677 259.703C210.608 252.419 207.615 248.632 202.646 249.541ZM304.133 254.214C301.676 256.779 299.403 259.704 299.082 260.714C298.762 261.725 298.128 262.552 297.675 262.552C297.222 262.552 296.565 263.689 296.217 265.079C295.869 266.469 294.22 269.821 292.554 272.529C290.08 276.549 289.647 278.099 290.189 280.986C290.688 283.646 290.33 285.403 288.743 288.093C287.584 290.058 286.636 293.02 286.636 294.675C286.636 296.33 286.08 298.666 285.401 299.868C284.113 302.146 282.313 312.712 280.601 328.052C280.048 333.002 279.123 338.156 278.545 339.505C277.967 340.855 277.286 350.511 277.031 360.965C276.507 382.487 276.154 383.552 269.542 383.552C267.46 383.552 265.485 383.114 265.155 382.579C264.527 381.562 256.705 379.153 256.076 379.783C255.365 380.494 259.121 391.258 263.201 400.203C263.992 401.936 264.638 403.984 264.638 404.753C264.638 405.523 265.02 406.579 265.486 407.102C265.953 407.624 268.05 411.877 270.147 416.552C272.242 421.227 275.009 427.384 276.294 430.234C279.329 436.963 281.827 437.86 286.032 433.732C304.873 415.234 315.632 403.604 315.632 401.737C315.632 401.113 316.982 399.905 318.632 399.052C321.456 397.591 322.939 393.552 320.651 393.552C320.112 393.552 319.366 392.315 318.995 390.802C318.624 389.289 317.041 386.729 315.477 385.112C313.912 383.495 312.633 381.65 312.633 381.012C312.633 380.374 311.283 377.988 309.633 375.711C307.983 373.433 306.633 371.176 306.633 370.696C306.633 370.216 305.289 368.3 303.647 366.438C298.308 360.383 297.237 353.535 301.216 350.906C303.609 349.326 308.633 352.616 308.633 355.762C308.633 356.668 309.236 358.012 309.972 358.748C310.709 359.485 311.496 360.541 311.722 361.096C311.948 361.651 315.879 367.764 320.458 374.682C329.342 388.103 330.036 388.44 336.96 382.693C341.543 378.889 364.303 377.572 365.62 381.035C368.386 388.314 366.184 390.552 356.252 390.552C347.687 390.552 347.263 391.795 354.896 394.53C364.112 397.833 368.379 403.406 365.629 408.547C364.323 410.987 360.078 410.681 358.017 407.997C357.406 407.202 356.255 406.552 355.458 406.552C354.661 406.552 353.136 405.891 352.069 405.084C351.002 404.276 349.172 403.601 348.004 403.584C346.835 403.566 343.941 402.868 341.572 402.032C337.131 400.465 328.287 402.08 327.444 404.612C327.272 405.13 324.971 407.916 322.331 410.803C319.692 413.69 314.232 419.77 310.199 424.314C306.165 428.858 300.556 434.415 297.732 436.663C289.656 443.094 289.657 443.11 298.137 451.956C304.851 458.961 311.633 468.251 311.633 470.445C311.633 470.919 312.263 471.831 313.034 472.471C313.805 473.11 314.703 474.698 315.029 475.999C315.356 477.299 317.2 480.758 319.127 483.685C321.054 486.612 322.631 489.558 322.631 490.232C322.631 495.225 334.256 495.038 341.242 489.933C342.955 488.682 345.654 487.343 347.241 486.957C348.829 486.571 351.84 484.726 353.931 482.858C356.023 480.989 358.925 478.918 360.381 478.256C361.836 477.594 365.176 474.993 367.801 472.475C370.427 469.958 374.725 466.432 377.35 464.64C379.977 462.847 383.463 459.507 385.096 457.216C389.759 450.68 389.888 450.521 394.315 445.838C398.808 441.086 406.886 428.661 408.154 424.552C409.755 419.363 408.478 377.451 406.646 375.052C406.226 374.502 405.584 372.252 405.22 370.052C404.569 366.121 402.272 359.503 400.533 356.552C397.634 351.629 395.622 346.893 395.622 344.987C395.622 343.782 394.947 342.237 394.122 341.552C393.297 340.867 392.622 339.628 392.622 338.799C392.622 337.97 391.048 335.099 389.123 332.419C387.198 329.74 385.623 327.199 385.623 326.773C385.623 326.346 384.386 324.637 382.874 322.973C381.362 321.309 378.928 318.171 377.465 316C376.003 313.829 372.517 309.584 369.716 306.568C366.916 303.552 364.626 300.707 364.626 300.245C364.626 299.783 363.061 297.75 361.149 295.728C356.185 290.478 350.628 283.901 350.628 283.276C350.628 282.285 338.152 269.999 335.335 268.216C333.798 267.243 332.085 265.248 331.528 263.782C329.741 259.082 328.538 258.238 326.922 260.546C325.493 262.587 319.632 260.813 319.632 258.339C319.632 256.626 312.279 249.552 310.5 249.552C309.455 249.552 306.589 251.65 304.133 254.214ZM108.658 257.75C108.658 260.147 121.925 275.763 125.608 277.701C129.479 279.738 130.613 279 130.64 274.424C130.648 272.979 131.33 271.237 132.155 270.552C135.627 267.67 132.346 262.552 127.027 262.552C125.393 262.552 123.514 262.01 122.852 261.348C122.19 260.686 119.739 259.604 117.403 258.943C115.068 258.283 112.145 257.422 110.908 257.031C109.291 256.519 108.658 256.721 108.658 257.75ZM174.463 265.235C175.183 265.524 176.046 265.488 176.378 265.156C176.71 264.824 176.12 264.588 175.067 264.631C173.902 264.679 173.665 264.916 174.463 265.235ZM146.653 273.051C145.278 273.859 143.386 274.8 142.447 275.141C138.337 276.638 137.639 294.557 141.321 304.052C147.828 320.834 149.805 322.618 157.391 318.552C159.443 317.452 161.639 316.552 162.272 316.552C168.361 316.552 186.238 298.594 184.157 294.569C182.027 290.449 179.808 291.63 173.857 300.052C168.064 308.249 160.623 302.929 165.16 293.834C166.589 290.97 173.63 284.023 178.788 280.389C184.928 276.062 176.403 276.268 162.49 280.783C154.078 283.514 152.169 282.528 152.923 275.841C153.469 270.994 151.582 270.154 146.653 273.051ZM110.867 284.15C110.707 286.585 111.236 290.034 112.042 291.815C112.848 293.595 113.807 296.538 114.173 298.354C115.337 304.13 123.084 310.552 128.888 310.552C134.025 310.552 134.812 309.464 132.187 305.993C131.309 304.832 130.706 301.774 130.687 298.384C130.647 291.311 129.99 289.552 127.387 289.552C125.692 289.552 116.447 284.492 114.657 282.585C111.785 279.523 111.154 279.784 110.867 284.15ZM271.638 293.135C270.263 293.898 268.339 294.529 267.363 294.537C266.386 294.545 265.15 295.706 264.612 297.12C264.076 298.533 262.409 301.298 260.909 303.264C257.993 307.088 255.777 312.191 254.924 317.052C254.634 318.702 253.825 320.727 253.126 321.552C252.427 322.377 251.54 325.414 251.154 328.301C250.768 331.188 250.045 333.802 249.546 334.11C249.048 334.418 248.637 335.881 248.634 337.361C248.63 338.841 247.983 341.287 247.196 342.797C242.964 350.912 244.393 356.009 253.012 363.542C256 366.154 265.276 371.552 266.776 371.552C267.25 371.552 267.638 365.455 267.638 358.002C267.638 348.494 268.047 343.647 269.011 341.752C269.785 340.229 270.593 334.539 270.864 328.702C271.127 323.01 271.781 318.06 272.316 317.702C272.852 317.345 273.775 312.552 274.368 307.052C274.96 301.552 275.766 295.815 276.158 294.302C276.969 291.169 275.748 290.854 271.638 293.135ZM218.78 294.231C218.378 297.715 205.907 303.188 196.824 303.867C185.357 304.723 185.73 309.421 198.574 325.929C213.74 345.422 216.644 344.812 216.644 322.136C216.644 314.131 217.201 307.54 218.21 303.602C219.071 300.241 219.582 296.493 219.346 295.272C219.11 294.051 218.855 293.582 218.78 294.231ZM229.31 298.219C228.943 298.585 228.643 300.16 228.643 301.719C228.643 303.277 228.286 304.552 227.849 304.552C224.733 304.552 221.69 356.998 224.635 359.944C225.189 360.498 225.643 364.032 225.643 367.796C225.643 371.561 226.404 377.658 227.335 381.346C229.027 388.052 229.027 388.052 230.407 381.552C231.166 377.977 232.025 371.357 232.316 366.841C232.655 361.581 233.347 358.212 234.243 357.468C235.077 356.776 235.642 354.416 235.642 351.621C235.642 349.043 236.303 346.061 237.11 344.993C237.918 343.926 238.593 341.015 238.61 338.525C238.628 336.034 239.252 333.109 239.997 332.025C240.742 330.94 241.667 327.617 242.052 324.641C242.437 321.666 243.402 318.303 244.197 317.169C244.991 316.035 245.641 314.299 245.641 313.311C245.641 312.323 246.991 308.984 248.64 305.892C252.393 298.859 252.422 297.552 248.824 297.552C245.608 297.552 240.621 308.188 238.726 319.089C237.808 324.366 236.993 325.552 234.283 325.552C229.76 325.552 227.929 317.8 230.815 310.867C232.658 306.439 234.504 299.138 233.991 298.307C233.414 297.374 230.215 297.313 229.31 298.219ZM73.3293 301.219C71.9234 302.624 72.7634 307.416 75.1572 311.645C76.529 314.069 78.1476 317.289 78.7546 318.802C79.3605 320.315 80.2194 321.552 80.6613 321.552C81.1032 321.552 81.9612 322.789 82.5661 324.302C83.172 325.815 84.55 328.402 85.6279 330.052C86.7067 331.702 88.7334 335.302 90.1322 338.052C92.6729 343.049 100.886 352.524 107.851 358.494C111.544 361.659 111.544 361.659 109.566 355.856C108.478 352.664 107.163 349.152 106.643 348.052C106.124 346.952 105.241 344.927 104.681 343.552C104.121 342.177 103.099 340.163 102.411 339.076C97.1332 330.746 93.5919 325.773 91.7822 324.147C90.2373 322.76 89.6603 321.06 89.6603 317.897C89.6603 314.248 89.3464 313.552 87.6996 313.552C86.6218 313.552 85.2948 312.99 84.7509 312.302C84.207 311.615 82.1643 309.197 80.2116 306.931C78.2598 304.664 76.6618 302.302 76.6618 301.681C76.6618 300.454 74.4061 300.142 73.3293 301.219ZM60.164 317.677C58.5142 319.334 55.2527 322.029 52.915 323.668C50.5773 325.307 48.6655 327.015 48.6655 327.464C48.6655 327.913 46.8396 329.546 44.6078 331.092C40.5493 333.905 40.5494 333.905 40.8583 360.577C41.0623 378.245 41.5423 387.722 42.2812 388.65C42.8941 389.421 43.691 393.753 44.0519 398.275C45.0858 411.231 45.5188 411.562 54.5837 406.333C61.1878 402.524 83.653 400.816 94.6596 403.286C97.6842 403.965 100.7 404.528 101.362 404.536C102.948 404.557 101.892 394.826 100.011 392.079C99.2672 390.995 98.6591 388.217 98.6591 385.906C98.6591 381.231 96.9515 378.735 87.8437 370.095C84.92 367.321 81.6352 363.613 80.5444 361.854C79.4545 360.095 77.636 358.361 76.5021 358.001C75.3693 357.642 73.3373 356.387 71.9875 355.212C70.6366 354.038 67.5669 352.505 65.1662 351.804C60.3838 350.41 59.3533 348.32 60.9721 343.302C61.945 340.289 65.1834 339.659 70.0978 341.527C72.4855 342.435 72.6625 342.303 72.6625 339.599C72.6625 338.002 73.3374 336.02 74.1623 335.195C75.7651 333.592 76.1679 331.552 74.881 331.552C74.4521 331.552 73.5453 330.315 72.8664 328.802C66.2882 314.143 64.8984 312.925 60.164 317.677ZM117.657 322.846C117.657 324.768 118.354 326.885 119.223 327.607C120.609 328.758 120.752 328.409 120.472 324.557C120.084 319.22 117.657 317.745 117.657 322.846ZM178.055 322.802C173.462 328.124 165.651 340.102 165.651 341.825C165.651 342.64 164.929 343.906 164.047 344.638C163.165 345.371 162.033 346.888 161.532 348.011C161.031 349.134 159.734 351.402 158.648 353.052C157.562 354.702 156.353 356.727 155.96 357.552C155.568 358.377 153.958 360.962 152.383 363.296C149.372 367.758 148.68 371.823 150.375 375.094C151.047 376.392 151.069 379.721 150.441 384.969C149.798 390.34 149.831 393.555 150.543 394.969C151.12 396.114 152.002 399.752 152.502 403.052C153.41 409.042 153.411 409.045 153.531 404.476C153.825 393.345 165.137 392.654 169.626 403.494C172.059 409.367 166.971 422.552 162.272 422.552C160.471 422.552 153.859 417.38 153.324 415.552C153.082 414.727 152.832 420.845 152.768 429.148C152.676 441.155 152.98 444.901 154.252 447.451C155.565 450.083 155.637 451.174 154.655 453.544C153.586 456.126 153.725 456.718 155.973 459.142C161.725 465.347 158.527 480.552 151.468 480.552C148.245 480.552 145.653 482.484 145.653 484.887C145.653 486.133 145.191 487.614 144.626 488.179C144.062 488.743 143.321 491.646 142.979 494.629C142.637 497.611 141.749 500.94 141.006 502.025C140.262 503.109 139.64 505.809 139.622 508.025C139.605 510.24 138.93 512.926 138.122 513.993C135.752 517.128 136.16 524.552 138.702 524.552C141.071 524.552 145.65 529.091 145.659 531.448C145.663 532.33 146.302 534.272 147.079 535.762C148.71 538.888 148.399 554.289 146.639 557.578C141.353 567.457 130.676 550.396 134.779 538.625C135.568 536.362 135.589 535.086 134.848 534.345C133.512 533.009 130.674 539.427 130.611 543.924C130.587 545.644 129.897 548.852 129.078 551.052C126.484 558.018 123.801 584.02 123.248 607.552C123.022 617.177 122.528 626.461 122.151 628.183C121.521 631.052 121.995 631.848 127.809 637.695C144.062 654.038 151.731 659.944 169.085 669.485C173.521 671.923 177.968 674.96 178.97 676.233C180.388 678.035 181.193 678.331 182.611 677.572C184.336 676.648 187.903 677.719 192.647 680.585C199.502 684.725 215.231 689.963 225.643 691.572C229.768 692.21 235.513 693.401 238.412 694.219C241.309 695.036 244.234 695.52 244.911 695.294C245.587 695.067 248.492 695.708 251.365 696.717C254.239 697.726 257.894 698.552 259.488 698.552C261.083 698.552 264.3 699.227 266.638 700.052C272.154 701.998 281.993 701.955 292.635 699.939C297.309 699.053 303.384 697.96 306.133 697.51C308.883 697.06 313.157 696.204 315.632 695.607C318.107 695.011 323.258 694.043 327.081 693.458C330.902 692.872 336.077 691.696 338.579 690.844C341.081 689.992 348.978 687.576 356.127 685.473C374.924 679.945 385.612 675.949 387.122 673.885C388.361 672.19 388.557 672.182 390.301 673.76C392.064 675.356 392.28 675.266 394.519 671.997C395.817 670.102 397.481 668.552 398.216 668.552C398.951 668.552 401.03 667.266 402.836 665.693C404.643 664.121 411.295 659.346 417.619 655.081C423.944 650.816 430.468 646.109 432.117 644.62C433.767 643.131 436.355 641.146 437.867 640.209C439.379 639.272 440.616 637.881 440.616 637.118C440.616 636.354 441.854 634.677 443.366 633.391C444.878 632.105 447.896 628.802 450.07 626.052C452.245 623.302 455.858 619.252 458.098 617.052C460.34 614.852 463.933 610.127 466.083 606.552C468.232 602.977 470.298 599.827 470.676 599.552C471.936 598.633 475.612 591.103 475.612 589.439C475.612 588.536 476.287 587.237 477.112 586.552C477.937 585.867 478.612 584.742 478.612 584.052C478.612 583.362 479.229 582.285 479.984 581.658C483.736 578.544 481.761 567.322 476.801 563.574C476.421 563.287 475.068 561.027 473.794 558.552C472.52 556.077 470.35 552.477 468.973 550.552C467.595 548.627 466.223 545.825 465.921 544.324C465.62 542.824 464.751 541.082 463.992 540.452C463.234 539.822 462.613 538.517 462.613 537.552C462.613 536.587 461.939 535.237 461.114 534.552C460.289 533.867 459.614 532.494 459.614 531.501C459.614 530.508 458.964 529.044 458.169 528.249C457.374 527.454 455.069 523.71 453.047 519.928C451.025 516.146 448.751 512.342 447.993 511.473C447.235 510.605 446.616 509.367 446.616 508.723C446.616 508.079 446.21 507.552 445.714 507.552C445.218 507.552 444.324 506.315 443.728 504.802C443.132 503.289 442.188 501.265 441.631 500.302C441.074 499.339 440.279 497.914 439.866 497.134C438.706 494.939 431.729 484.818 430.35 483.328C428.459 481.286 424.618 475.71 424.618 475.006C424.618 474.373 420.824 469.994 414.87 463.756C413.082 461.884 411.62 459.782 411.62 459.085C411.62 458.388 409.827 456.631 407.635 455.18C403.649 452.542 403.649 452.542 399.386 457.162C395.522 461.349 392.306 464.584 381.624 475.031C379.699 476.914 376.42 479.599 374.339 480.998C369.845 484.016 368.052 485.45 365.833 487.802C364.925 488.765 363.693 489.552 363.097 489.552C362.5 489.552 360.55 490.789 358.763 492.302C356.975 493.815 353.401 496.281 350.82 497.783C339.321 504.474 336.679 505.552 331.78 505.552C327.6 505.552 325.888 506.22 320.362 510.004C316.786 512.453 312.683 514.752 311.247 515.113C309.809 515.474 308.633 516.028 308.633 516.345C308.633 517.694 312.854 525.492 314.182 526.594C314.98 527.255 315.632 528.648 315.632 529.688C315.632 530.728 316.041 532.361 316.542 533.316C319.209 538.408 325.631 552.642 325.631 553.462C325.631 553.985 326.904 557.256 328.461 560.732C330.016 564.208 332.109 569.077 333.11 571.552C334.11 574.027 335.803 578.077 336.87 580.552C337.937 583.027 339.259 586.177 339.81 587.552C340.36 588.927 341.67 591.716 342.719 593.75C343.769 595.784 344.629 597.931 344.629 598.521C344.629 599.111 345.926 602.397 347.512 605.823C349.098 609.249 351.208 614.077 352.199 616.552C353.191 619.027 354.508 621.727 355.127 622.552C356.382 624.226 359.136 630.721 360.215 634.552C360.601 635.927 361.9 638.627 363.101 640.552C372.385 655.444 376.352 673.552 370.33 673.552C367.726 673.552 363.627 668.515 363.583 665.262C363.559 663.496 362.437 660.252 361.089 658.052C359.742 655.852 358.375 653.377 358.052 652.552C357.729 651.727 356.602 649.203 355.546 646.942C354.491 644.682 353.627 642.383 353.627 641.833C353.627 641.283 352.277 638.304 350.628 635.212C348.978 632.12 347.628 629.084 347.628 628.466C347.628 627.848 346.352 625.449 344.791 623.136C343.229 620.823 341.669 617.194 341.325 615.072C340.981 612.95 340.29 610.952 339.79 610.633C339.29 610.313 338.563 608.589 338.175 606.802C337.787 605.015 337.064 603.552 336.57 603.552C336.074 603.552 335.359 602.319 334.98 600.812C334.602 599.305 333.694 597.473 332.961 596.74C332.229 596.008 331.63 594.402 331.63 593.172C331.63 591.941 330.969 590.061 330.162 588.993C329.354 587.926 328.68 586.271 328.663 585.317C328.645 584.362 327.307 580.987 325.691 577.817C324.073 574.646 321.775 569.577 320.582 566.552C317.953 559.885 315.636 554.57 314.479 552.552C314.006 551.727 313.368 550.377 313.062 549.552C312.755 548.727 311.814 546.477 310.97 544.552C310.125 542.627 308.843 539.702 308.121 538.052C300.806 521.329 298.443 519.249 290.966 522.955C287.844 524.503 275.865 527.557 272.973 527.543C268.774 527.523 245.641 504.175 245.641 499.957C245.641 499.184 245.274 498.552 244.827 498.552C243.458 498.552 239.671 490.592 238.978 486.258C238.618 484.01 237.724 481.019 236.99 479.611C236.255 478.204 235.652 476.514 235.648 475.857C235.645 475.199 234.404 474.07 232.892 473.348C230.073 472.001 228.352 462.838 230.384 459.986C234.891 453.657 244.855 450.481 262.139 449.864C275.625 449.382 276.947 448.815 273.971 444.79C272.842 443.263 271.601 441.01 271.211 439.783C270.822 438.556 270.119 437.552 269.65 437.552C269.181 437.552 268.507 436.233 268.153 434.621C267.799 433.009 266.863 431.154 266.074 430.499C265.285 429.843 264.638 428.517 264.638 427.552C264.638 426.587 263.964 425.237 263.139 424.552C262.314 423.867 261.639 422.659 261.639 421.868C261.639 420.564 256.544 409.025 253.043 402.398C252.271 400.938 251.64 398.63 251.64 397.27C251.64 395.91 250.965 394.237 250.14 393.552C249.315 392.867 248.64 390.996 248.64 389.394C248.64 387.792 247.889 385.336 246.972 383.935C245.93 382.344 245.346 379.545 245.415 376.475C245.566 369.856 242.192 367.275 241.293 373.322C238.237 393.892 237.301 405.056 238.926 401.552C240.984 397.116 243.214 397.589 251.437 404.204C257.444 409.036 253.679 424.31 247.011 422.16C242.687 420.766 238.642 415.614 238.642 411.501C238.642 407.123 237.8 406.615 235.237 409.447C230.71 414.45 225.598 411.441 223.05 402.272C222.405 399.951 221.411 396.702 220.842 395.052C218.166 387.3 217.21 380.954 216.698 367.552C216.243 355.638 215.877 353.035 214.645 352.954C213.82 352.901 212.429 352.788 211.554 352.704C210.679 352.621 208.188 350.865 206.02 348.802C203.851 346.74 200.935 344.112 199.54 342.963C198.145 341.815 195.497 338.777 193.656 336.213C191.815 333.65 189.935 331.552 189.478 331.552C189.022 331.552 188.648 330.969 188.648 330.255C188.648 328.21 182.473 320.552 180.823 320.552C180.369 320.552 179.124 321.565 178.055 322.802ZM133.45 322.264C129.929 322.8 128.492 376.352 131.905 379.841C132.868 380.825 133.655 382.25 133.655 383.008C133.655 390.434 138.89 379.687 139.967 370.052C140.274 367.302 141.662 363.027 143.051 360.552C145.371 356.422 148.398 350.756 152.402 343.052C153.259 341.402 154.284 339.827 154.68 339.552C155.819 338.759 160.651 331.364 160.651 330.412C160.651 329.205 151.905 329.333 151.153 330.552C149.187 333.733 139.654 327.487 139.654 323.017C139.654 321.57 138.736 321.458 133.45 322.264ZM107.658 328.93C107.658 329.137 108.445 329.925 109.408 330.68C110.994 331.923 111.029 331.888 109.786 330.302C108.479 328.636 107.658 328.107 107.658 328.93ZM126.656 393.481C126.656 395.409 123.4 397.552 120.468 397.552C118.043 397.552 117.527 397.908 117.929 399.302C118.207 400.265 118.97 403.302 119.626 406.052C120.282 408.802 121.283 412.402 121.851 414.052C122.42 415.702 123.121 418.402 123.41 420.052C123.7 421.702 124.773 424.125 125.796 425.437C126.818 426.749 127.655 428.61 127.655 429.573C127.655 430.536 128.327 432.612 129.149 434.188C131.408 438.52 131.139 452.226 128.655 459.292C127.556 462.422 126.656 466.227 126.656 467.747C126.656 469.268 126.04 472.208 125.286 474.282C124.005 477.806 121.53 487.869 120.116 495.302C119.775 497.089 119.083 498.552 118.578 498.552C118.071 498.552 117.657 499.941 117.657 501.638C117.657 506.09 114.782 517.438 112.561 521.75C111.515 523.784 110.658 527.272 110.658 529.5C110.658 531.729 110.294 533.552 109.848 533.552C109.403 533.552 108.533 536.14 107.914 539.302C105.178 553.285 103.791 558.819 102.763 559.848C100.989 561.622 101.322 579.028 103.159 580.552C104.308 581.506 104.658 584.125 104.658 591.77C104.658 598.282 105.135 602.665 106.034 604.398C106.791 605.858 108.392 609.179 109.593 611.779C113.717 620.714 113.755 620.642 114.752 602.052C116.34 572.435 117.716 556.974 119.174 552.364C119.99 549.786 120.66 546.636 120.663 545.364C120.667 544.092 121.293 541.855 122.056 540.393C122.819 538.93 123.771 535.348 124.172 532.432C124.573 529.517 125.278 526.439 125.738 525.592C126.616 523.977 127.937 518.435 130.036 507.552C130.726 503.977 131.823 500.069 132.473 498.868C133.123 497.666 133.658 495.416 133.661 493.868C133.665 492.319 134.34 489.763 135.161 488.188C135.983 486.612 136.654 483.545 136.654 481.372C136.654 479.199 137.216 476.438 137.903 475.236C138.591 474.035 139.682 469.452 140.329 465.052C140.975 460.652 142.107 454.973 142.843 452.432C143.787 449.176 143.982 445.189 143.505 438.932C143.133 434.048 142.789 422.934 142.741 414.235C142.658 399.093 142.572 398.443 140.727 399.029C138.304 399.798 132.753 397.499 130.25 394.69C128.251 392.446 126.656 391.91 126.656 393.481ZM63.6635 414.259C56.7814 416.546 49.7113 421.878 49.6823 424.802C49.6613 426.92 52.919 427.156 54.5778 425.157C55.2147 424.389 57.4071 423.449 59.4499 423.067C61.4926 422.685 63.6596 421.963 64.2665 421.462C66.5192 419.601 88.7864 419.194 93.6598 420.925C103.14 424.292 108.753 422.884 103.909 418.355C100.187 414.876 70.8046 411.885 63.6635 414.259ZM68.163 432.471C56.6934 434.542 51.2472 440.213 55.0917 446.081C55.9566 447.402 56.6645 449.951 56.6645 451.747C56.6645 454.639 59.304 462.913 61.7807 467.788C62.2666 468.743 62.6637 470.175 62.6637 470.969C62.6637 479.949 76.2999 483.291 91.1601 477.953C95.0096 476.57 99.6451 475.056 101.46 474.589C105.358 473.586 108.658 470.131 108.658 467.053C108.658 465.846 109.363 463.446 110.224 461.719C112.058 458.042 111.736 440.23 109.8 438.294C109.172 437.666 108.658 436.382 108.658 435.441C108.658 432.886 78.2238 430.654 68.163 432.471ZM117.663 436.611C117.667 437.953 118.342 440.341 119.163 441.916C119.985 443.492 120.656 445.459 120.656 446.289C120.656 447.508 120.94 447.561 122.138 446.567C123.446 445.481 123.446 445.091 122.138 443.222C121.323 442.059 120.642 440.42 120.624 439.579C120.563 436.634 117.656 433.719 117.663 436.611ZM285.469 455.345C283.859 459.173 277.35 460.829 262.973 461.065C253.889 461.214 248.071 461.722 247.366 462.427C246.747 463.046 245.206 463.552 243.941 463.552C241.062 463.552 240.941 465.847 243.641 469.279C244.741 470.678 245.641 472.999 245.642 474.437C245.642 477.895 249.096 486.858 252.176 491.391C253.531 493.385 254.64 495.557 254.64 496.219C254.64 496.88 258.589 501.5 263.416 506.486C272.987 516.374 273.937 516.769 281.636 514.052C283.974 513.227 286.808 512.552 287.933 512.552C289.057 512.552 292.938 511.175 296.555 509.493C300.173 507.81 304.708 505.736 306.633 504.883C312.433 502.313 312.956 501.985 314.058 500.239C314.822 499.027 314.771 498.004 313.875 496.569C313.192 495.475 312.633 493.728 312.633 492.688C312.633 491.648 311.957 490.237 311.133 489.552C310.308 488.867 309.633 487.646 309.633 486.837C309.633 486.029 308.733 484.223 307.633 482.825C306.533 481.426 305.633 479.691 305.633 478.969C305.633 478.246 304.509 476.441 303.134 474.957C301.759 473.474 300.634 471.857 300.634 471.365C300.634 469.829 293.92 460.891 289.739 456.861C287.231 454.443 286.028 454.016 285.469 455.345ZM291.077 532.168C299.774 535.506 303.631 555.701 296.117 558.558C292.543 559.918 292.423 559.889 289.614 557.019C288.251 555.626 286.349 553.726 285.386 552.797C282.663 550.169 284.258 537.646 287.933 532.802C289.031 531.352 288.978 531.363 291.077 532.168ZM439.977 651.054C439.66 651.88 437.538 653.818 435.259 655.361C427.071 660.907 420.095 665.938 418.799 667.233C418.072 667.958 417.078 668.552 416.591 668.552C416.105 668.552 413.806 670.307 411.483 672.452C406.665 676.902 406.889 677.873 414.501 685.513C416.49 687.511 418.794 690.07 419.619 691.201C421.712 694.071 425.027 695.629 430.996 696.548C433.812 696.982 438.817 697.88 442.116 698.543C447.575 699.641 453.663 699.556 463.806 698.24C469.586 697.491 478.446 692.499 483.044 687.4C486.732 683.311 494.39 669.88 493.457 669.136C491.186 667.327 485.374 665.551 481.708 665.546C479.18 665.542 475.823 664.867 474.248 664.046C472.665 663.22 468.782 662.552 465.568 662.552C459.43 662.552 448.033 657.734 446.823 654.628C445.256 650.607 441.001 648.386 439.977 651.054ZM502.224 673.017C501.336 674.372 500.609 676.135 500.609 676.935C500.609 678.313 496.966 685.863 494.332 689.945C493.017 691.982 489.002 696.685 485.513 700.275C483.069 702.791 475.797 706.552 473.379 706.552C469.611 706.552 468.613 707.726 468.613 712.159C468.613 716.552 468.613 716.552 477.419 716.552C487.126 716.552 505.975 719.638 510.329 721.94C514.955 724.386 522.575 732.356 522.638 734.813C522.673 736.201 527.113 741.552 528.229 741.552C528.624 741.552 531.034 743.883 533.586 746.732C539.626 753.477 541.111 752.983 542.083 743.902C542.484 740.157 543.441 736.196 544.208 735.1C545.169 733.729 545.603 730.096 545.603 723.455C545.603 717.432 546.167 712.205 547.103 709.552C550.002 701.335 549.37 699.25 541.638 691.518C537.807 687.686 534.228 684.552 533.684 684.552C533.139 684.552 530.986 683.382 528.899 681.952C524.424 678.885 507.074 670.552 505.164 670.552C504.435 670.552 503.112 671.661 502.224 673.017ZM175.65 693.493C175.65 698.411 176.041 702.676 176.52 702.972C176.999 703.268 177.663 704.871 177.995 706.533C179.19 712.508 191.103 716.011 199.614 712.889C210.494 708.899 214.532 697.552 205.071 697.552C204.218 697.552 197.794 694.627 190.796 691.052C174.673 682.815 175.65 682.658 175.65 693.493ZM160.092 702.648C159.719 703.25 160.706 704.999 162.283 706.535C163.86 708.07 165.918 710.389 166.856 711.689C168.557 714.047 168.561 714.042 168.605 709.359C168.662 703.361 162.603 698.584 160.092 702.648ZM169.987 716.525C171.276 718.442 171.663 721.474 171.71 730.025C171.742 736.09 172.211 743.302 172.75 746.052C173.29 748.802 174.115 753.343 174.583 756.143C175.051 758.943 176.158 762.633 177.041 764.344C177.925 766.054 178.649 768.439 178.649 769.644C178.649 775.587 187.079 778.942 191.779 774.87C193.788 773.129 197.647 761.986 197.647 757.923C197.647 756.279 198.308 754.061 199.115 752.993C199.923 751.926 200.597 749.575 200.614 747.77C200.632 745.965 201.321 742.872 202.146 740.898C202.971 738.923 203.646 735.938 203.646 734.264C203.646 732.59 204.302 730.507 205.104 729.636C213.221 720.817 217.59 712.991 210.973 719.124C209.503 720.486 207.172 721.884 205.791 722.231C204.409 722.577 202.124 723.464 200.713 724.2C195.055 727.153 178.298 722.843 171.237 716.619C168.325 714.052 168.325 714.052 169.987 716.525Z"
  />
</svg>
