<svg
  width="573"
  height="786"
  viewBox="0 0 573 786"
  fill="none"
  xmlns="http://www.w3.org/2000/svg"
>
  <path
    fill-rule="evenodd"
    clip-rule="evenodd"
    fill="black"
    d="M237.853 3.6466C239.458 5.2816 241.496 6.6316 242.383 6.6466C243.271 6.6616 245.521 8.01756 247.383 9.65856C249.245 11.2996 251.331 12.6496 252.018 12.6586C252.706 12.6676 253.268 13.3296 253.268 14.1306C253.268 14.9316 254.618 17.8766 256.268 20.6746C257.917 23.4726 259.267 26.3915 259.267 27.1595C259.267 27.9275 259.689 28.8176 260.204 29.1356C260.719 29.4536 262.323 32.2926 263.768 35.4446C265.213 38.5956 267.716 43.7686 269.331 46.9396C270.945 50.1096 272.265 53.7956 272.265 55.1306C272.265 56.4646 272.655 57.7975 273.132 58.0925C273.609 58.3875 274.997 61.9016 276.217 65.9016C277.437 69.9016 279.108 75.0846 279.93 77.4186C281.332 81.3996 282.361 87.9846 284.058 103.846C284.899 111.697 285.38 112.407 288.421 110.277C289.801 109.311 292.753 108.675 295.863 108.675C299.224 108.675 301.45 108.153 302.262 107.175C304.03 105.045 315.53 105.09 317.31 107.235C319.503 109.877 317.341 113.902 312.509 116.175C308.914 117.866 308.083 118.835 307.136 122.442C306.519 124.789 305.62 126.953 305.138 127.251C304.656 127.549 304.262 128.574 304.262 129.528C304.262 131.941 296.991 145.943 291.952 153.237C287.763 159.3 287.764 159.3 288.536 170.237C289.612 185.463 289.733 200.479 288.815 204.923C288.042 208.672 288.042 208.672 290.902 207.179C298.169 203.389 309.914 207.906 326.646 220.928C328.233 222.164 329.977 223.344 330.52 223.55C332.154 224.17 335.012 226.73 344.786 236.326C354.842 246.2 356.738 249.802 355.605 256.885C355.037 260.439 355.207 260.767 358.378 262.242C364.602 265.138 367.254 266.777 367.254 267.73C367.254 268.25 367.874 268.675 368.631 268.675C369.388 268.675 370.568 269.35 371.253 270.175C371.938 271 373.117 271.675 373.873 271.675C375.199 271.675 384.704 277.891 386.751 280.098C387.301 280.69 389.472 282.052 391.576 283.123C396.112 285.434 398.67 287.584 399.478 289.767C399.801 290.643 401.614 292.095 403.508 292.993C406.637 294.479 413.586 301.108 415.84 304.758C416.339 305.567 418.659 307.717 420.997 309.536C424.823 312.514 425.246 313.271 425.246 317.137C425.246 326.53 422.627 325.69 408.517 311.777C403.44 306.771 398.867 302.675 398.353 302.675C397.84 302.675 395.637 300.65 393.459 298.175C391.281 295.7 389.241 293.675 388.925 293.675C388.609 293.675 386.416 292.438 384.052 290.925C381.687 289.412 378.852 287.609 377.752 286.918C376.652 286.227 373.839 284.427 371.499 282.918C369.161 281.409 364.969 278.825 362.185 277.175C359.401 275.525 355.241 272.717 352.94 270.935C350.639 269.153 348.337 267.69 347.825 267.685C347.314 267.679 342.521 265.428 337.173 262.681C325.056 256.456 315.635 258.271 308.556 268.195C307.569 269.58 305.788 271.897 304.599 273.345C303.411 274.794 301.846 277.148 301.122 278.577C300.399 280.006 298.765 282.884 297.491 284.974C294.264 290.269 289.333 303.022 287.749 310.175C285.468 320.47 284.19 325.058 283.305 326.136C282.835 326.707 282.153 329.425 281.789 332.175C281.425 334.925 280.756 338.075 280.302 339.175C279.269 341.677 277.265 353.499 277.265 357.09C277.265 361.28 274.642 365.347 271.158 366.562C267.501 367.837 267.438 375.222 271.019 382.939C273.083 387.387 294.275 388.596 295.096 384.312C295.566 381.858 306.132 371.778 309.011 371.037C310.249 370.719 311.261 370.138 311.261 369.747C311.261 368.816 327.667 357.675 329.037 357.675C333.641 357.675 322.715 348.608 310.52 342.307C303.211 338.531 301.886 330.413 308.49 329.866C310.541 329.696 312.79 330.035 313.489 330.621C314.669 331.608 320.299 335.304 331.258 342.285C342.573 349.493 343.123 349.418 353.853 339.191C358.749 334.525 363.092 330.7 363.504 330.691C363.916 330.682 365.251 329.678 366.47 328.459C368.824 326.104 378.506 324.769 383.726 326.079C390.089 327.676 385.984 335.675 378.801 335.675C376.41 335.675 373.947 336.776 368.753 340.169C363.516 343.591 362.855 345.673 367.004 345.679C374.509 345.69 379.752 348.953 379.752 353.613C379.752 358.051 376.647 361.967 375.541 358.925C374.653 356.483 359.295 357.289 356.487 359.925C354.535 361.758 352.943 362.175 347.905 362.175C342.428 362.175 341.072 362.605 336.07 365.925C332.962 367.988 329.961 369.675 329.4 369.675C328.841 369.675 326.892 371.054 325.071 372.74C323.249 374.426 320.41 376.393 318.76 377.111C315.491 378.534 310.221 383.675 312.031 383.675C313.642 383.675 319.74 389.544 322.685 393.931C325.859 398.659 333.258 412.973 333.258 414.386C333.258 414.969 333.93 416.735 334.752 418.311C335.572 419.886 336.248 422.586 336.252 424.311C336.255 426.035 336.929 428.735 337.751 430.311C338.572 431.886 339.247 435.763 339.251 438.925C339.258 445.623 339.462 445.697 347.116 441.812C350.218 440.24 353.88 438.424 355.255 437.78C356.63 437.135 360.454 434.832 363.754 432.662C367.054 430.492 371.553 427.799 373.753 426.677C377.807 424.608 385.967 419.06 389.912 415.689C391.101 414.674 394.7 411.73 397.911 409.147C406.864 401.946 418.825 387.576 423.995 377.811C425.491 374.984 425.649 362.567 424.25 357.69C423.703 355.781 422.964 350.723 422.608 346.45C422.224 341.847 421.407 338.223 420.604 337.556C418.808 336.066 418.843 328.255 420.651 326.754C422.933 324.861 427.178 326.504 427.838 329.536C428.154 330.987 429.057 333.525 429.844 335.175C431.325 338.278 432.469 345.443 434.444 363.948C435.636 375.115 433.996 383.009 429.554 387.496C428.835 388.223 428.246 389.274 428.246 389.831C428.246 390.968 420.408 401.458 415.861 406.407C412.34 410.238 413.173 413.04 419.18 417.58C421.069 419.007 423.769 421.471 425.179 423.054C427.638 425.812 451.44 450.225 470.147 469.175C475.033 474.125 479.322 479.148 479.674 480.337C480.028 481.526 482.325 484.143 484.778 486.154C487.232 488.164 489.238 490.231 489.238 490.747C489.238 491.263 491.375 493.841 493.988 496.477C499.452 501.99 502.237 505.365 502.237 506.471C502.237 506.896 503.361 508.579 504.735 510.21C509.46 515.815 518.235 527.666 518.235 528.442C518.235 528.869 519.65 530.936 521.379 533.035C524.656 537.011 525.335 556.974 522.296 560.013C521.712 560.597 521.231 562.897 521.228 565.124C521.224 567.352 520.549 570.464 519.728 572.039C518.907 573.615 518.231 576.09 518.228 577.539C518.224 578.989 517.55 581.464 516.729 583.039C515.907 584.615 515.242 586.64 515.249 587.539C515.266 589.45 511.561 601.819 509.668 606.175C508.951 607.825 508.113 609.85 507.806 610.675C507.5 611.5 506.849 612.85 506.361 613.675C504.645 616.573 501.237 624.405 501.237 625.449C501.237 627.266 512.248 641.136 514.291 641.892C515.36 642.287 516.235 643.05 516.235 643.588C516.235 648.28 524.752 650.256 530.978 647.01C543.761 640.346 556.23 645.581 556.23 657.61C556.23 658.584 557.395 662.485 558.818 666.278C560.241 670.071 561.871 674.863 562.439 676.925C563.007 678.988 563.806 680.675 564.215 680.675C564.623 680.675 565.222 682.607 565.546 684.969C565.87 687.331 566.828 690.593 567.675 692.219C568.522 693.844 569.218 696.356 569.222 697.799C569.225 699.243 569.903 702.337 570.728 704.675C572.432 709.505 572.823 728.695 571.276 731.585C570.752 732.564 570.087 734.673 569.798 736.27C568.639 742.688 568.031 744.675 567.228 744.675C566.766 744.675 566.071 746.119 565.683 747.884C563.202 759.18 555.443 765.607 547.797 762.699C544.378 761.399 528.233 745.03 528.233 742.863C528.233 741.924 527.333 740.593 526.234 739.906C525.134 739.219 524.234 738.239 524.234 737.729C524.234 737.218 522.238 733.885 519.799 730.321C517.359 726.757 514.37 721.535 513.158 718.717C510.458 712.439 509.741 712.069 499.737 711.774C489.848 711.483 489.816 711.451 489.387 701.164C489.006 692.025 489.094 692.173 481.739 688.22C478.99 686.743 475.39 684.702 473.74 683.684C470.402 681.624 462.675 677.721 457.076 675.267C453.463 673.684 441.852 677.875 437.749 682.244C434.226 685.995 419.474 689.43 403.773 690.157C396.087 690.513 389.338 691.168 388.775 691.612C388.212 692.056 378.077 692.727 366.254 693.103C354.43 693.479 343.407 694.208 341.757 694.722C338.548 695.723 294.318 697.812 275.265 697.863C262.508 697.897 251.194 696.664 249.122 695.014C248.377 694.421 246.127 693.64 244.12 693.279C242.113 692.918 239.079 691.928 237.378 691.079C231.341 688.067 228.069 692.106 232.013 697.702C234.761 701.601 234.258 710.953 230.961 717.292C228.785 721.475 228.179 724.307 227.646 732.792C227.287 738.502 226.381 744.389 225.632 745.874C224.884 747.36 224.268 749.61 224.265 750.874C224.261 752.139 223.662 754.319 222.932 755.718C222.202 757.117 221.334 759.616 221.002 761.272C219.846 767.053 211.331 778.126 204.474 782.766C192.998 790.53 176.445 780.978 176.245 766.479C176.228 765.211 175.554 763.301 174.746 762.234C173.939 761.166 173.278 758.858 173.278 757.105C173.278 755.353 172.603 753.36 171.778 752.675C170.753 751.824 170.278 749.55 170.278 745.487C170.278 742.218 169.738 738.561 169.078 737.359C168.339 736.011 167.783 729.56 167.626 720.508C167.408 707.949 167.077 705.29 165.325 702.021C161.808 695.46 163.209 686.512 168.313 682.938C171.063 681.011 171.239 668.909 168.528 668.071C167.566 667.774 166.104 667.112 165.279 666.6C164.454 666.089 162.879 665.259 161.779 664.756C160.679 664.253 158.29 662.454 156.468 660.758C154.647 659.062 152.701 657.675 152.142 657.675C150.697 657.675 138.282 645.136 138.282 643.676C138.282 643.008 137.169 641.587 135.81 640.517C134.449 639.447 132.167 636.233 130.738 633.373C129.31 630.514 127.105 627.05 125.839 625.675C124.573 624.3 122.842 621.825 121.993 620.175C116.349 609.212 112.285 600.053 112.285 598.296C112.285 597.469 111.871 596.536 111.363 596.223C110.855 595.909 110.128 594.195 109.747 592.414C109.367 590.632 108.432 587.938 107.671 586.425C106.909 584.912 105.663 582.438 104.901 580.925C104.141 579.412 103.206 576.718 102.826 574.936C102.445 573.155 101.718 571.441 101.21 571.127C100.702 570.814 100.287 569.468 100.287 568.138C100.287 566.807 98.7122 562.355 96.7874 558.243C92.466 549.012 93.0708 540.275 98.2791 536.675C98.6771 536.4 99.9041 534.15 101.005 531.675C102.107 529.2 104.65 524.704 106.656 521.683C108.663 518.663 111.071 514.163 112.007 511.683C112.943 509.204 114.176 506.692 114.747 506.101C115.844 504.967 115.985 504.697 124.876 486.675C127.997 480.35 131.61 473.15 132.906 470.675C134.202 468.2 135.268 465.725 135.276 465.175C135.284 464.625 136.637 462.15 138.282 459.675C141.675 454.571 142.377 446.707 139.75 443.234C138.911 442.125 138.279 439.125 138.276 436.234C138.272 433.451 137.671 430.028 136.94 428.626C136.209 427.224 135.316 423.265 134.957 419.83C134.598 416.394 133.849 412.733 133.294 411.695C132.738 410.656 132.283 408.014 132.283 405.823C132.283 399.343 129.821 396.293 127.584 399.999C127.144 400.727 125.209 402.415 123.284 403.749C121.359 405.083 119.56 406.438 119.285 406.759C113.862 413.089 99.1991 416.381 90.4122 413.239C88.0065 412.379 85.242 411.675 84.2701 411.675C83.2982 411.675 82.2443 411 81.9273 410.175C81.6113 409.35 80.6675 408.675 79.8297 408.675C78.0249 408.675 71.2816 403.643 66.0743 398.41C64.0305 396.356 61.9799 394.675 61.5169 394.675C61.054 394.675 59.352 392.886 57.7342 390.699C56.1164 388.512 54.3638 386.712 53.8409 386.699C52.4561 386.664 46.2938 380.487 46.2938 379.134C46.2938 378.502 45.3939 377.17 44.294 376.175C43.1941 375.18 42.2943 373.811 42.2943 373.134C42.2943 372.457 41.6225 370.615 40.8006 369.039C39.9797 367.464 39.3048 365.443 39.3008 364.547C39.2978 363.652 38.6196 362.36 37.7947 361.675C36.9698 360.99 36.295 359.338 36.295 358.003C36.295 356.668 35.645 354.319 34.8511 352.783C34.0572 351.248 33.0944 346.532 32.7115 342.305C32.3285 338.078 31.6278 334.38 31.1558 334.088C27.9072 332.08 30.3568 314.428 34.5452 309.662C39.7496 303.739 53.0289 293.365 59.7921 289.939C62.5417 288.546 66.6721 286.116 68.9708 284.54C71.2695 282.964 74.1192 281.675 75.304 281.675C77.8687 281.675 77.6769 280.894 74.0313 276.5C65.5084 266.228 55.2925 248.856 55.2925 244.634C55.2925 241.919 50.6433 240.07 40.7945 238.868C27.9191 237.297 5.3879 228.177 1.54938 222.984C-2.24215 217.853 3.58129 210.496 15.9507 204.791C17.1346 204.245 18.3981 203.321 18.7591 202.737C19.1201 202.153 20.6829 201.675 22.2337 201.675C23.7835 201.675 25.6113 201 26.2962 200.175C26.9811 199.35 28.611 198.675 29.9178 198.675C33.0204 198.675 33.0084 196.299 29.8868 192.206C26.7652 188.113 24.5166 182.656 23.3238 176.283C22.7979 173.473 21.9139 168.925 21.359 166.175C17.5754 147.426 15.8964 102.148 18.7601 96.1106C19.606 94.3296 20.2969 91.4186 20.2969 89.6416C20.2969 80.1536 26.0313 77.1746 44.294 77.1746C59.4701 77.1746 60.6889 76.6375 65.1544 67.9895C66.2382 65.8915 68.062 63.6085 69.2078 62.9165C70.3537 62.2235 71.2906 61.1625 71.2906 60.5565C71.2906 59.2875 75.4072 54.7175 76.574 54.6915C77.005 54.6825 78.6768 53.3246 80.2896 51.6746C81.9024 50.0246 83.6611 48.6746 84.199 48.6746C84.736 48.6746 85.7638 47.8855 86.4818 46.9215C88.6705 43.9845 98.0221 39.5656 104.07 38.6106C107.214 38.1136 113.835 36.7596 118.785 35.6016C135.285 31.7396 183.207 30.1976 186.428 33.4246C187.114 34.1126 188.38 34.6746 189.241 34.6746C190.101 34.6746 192.484 35.5746 194.536 36.6746C200.024 39.6156 202.274 39.3415 202.274 35.7335C202.274 34.1155 202.668 32.5496 203.149 32.2516C203.631 31.9546 205.838 28.6645 208.055 24.9425C211.827 18.6065 224.862 3.67455 226.62 3.67455C227.057 3.67455 228.089 2.99955 228.914 2.17455C231.253 -0.164449 234.665 0.397597 237.853 3.6466ZM228.521 14.6025C227.558 15.6635 226.321 17.1255 225.771 17.8525C225.22 18.5795 222.409 21.8515 219.522 25.1245C216.634 28.3965 214.273 31.6745 214.273 32.4095C214.273 33.1435 213.565 34.8245 212.7 36.1455C209.777 40.6075 211.128 44.2135 215.623 43.9425C218.794 43.7515 219.364 43.9936 218.857 45.3146C218.478 46.2996 219.218 47.8925 220.777 49.4525C223.894 52.5695 224.799 55.8195 223.322 58.5815C221.851 61.3295 217.197 61.3856 215.504 58.6746C214.818 57.5746 213.733 56.6746 213.093 56.6746C212.454 56.6746 211.22 56.0586 210.352 55.3046C209.055 54.1786 199.752 49.8386 189.776 45.7056C178.803 41.1596 162.314 39.0365 157.464 41.5455C156.538 42.0245 149.792 42.6986 142.473 43.0426C135.153 43.3866 128.403 44.0596 127.474 44.5386C126.545 45.0176 121.959 45.9686 117.285 46.6516C112.611 47.3346 107.661 48.2575 106.286 48.7025C104.911 49.1475 102.534 49.7866 101.002 50.1216C96.6336 51.0766 80.0514 63.9495 76.7899 68.9165C76.2399 69.7545 73.3945 73.9255 70.4669 78.1865C67.5392 82.4475 64.7384 86.9996 64.2425 88.3036C63.1576 91.1576 58.5534 91.5466 54.8199 89.1006C51.5383 86.9496 42.4393 84.6305 41.7383 85.7655C41.4294 86.2655 40.0557 86.6746 38.6859 86.6746C34.8623 86.6746 30.5178 89.3635 28.5631 92.9415C26.2913 97.0985 25.4456 133.494 27.3543 144.952C28.0162 148.924 29.1469 156.225 29.8668 161.175C31.3866 171.614 33.4154 179.675 34.5223 179.675C34.9472 179.675 35.2952 180.265 35.2952 180.986C35.2952 181.708 36.14 183.204 37.1729 184.312C38.2048 185.421 39.3845 187.419 39.7945 188.752C41.4833 194.248 44.9609 194.083 56.1595 187.975C56.3605 187.865 55.2075 185.615 53.5977 182.975C45.7227 170.066 44.294 164.049 44.294 143.785C44.294 119.122 47.3098 105.675 52.8402 105.675C56.2337 105.675 59.2223 114.363 56.4246 116.093C55.9467 116.388 55.2118 119.003 54.7899 121.903C54.3679 124.802 53.7706 128.75 53.4637 130.675C52.1688 138.787 53.6759 164.392 55.5596 166.275C55.9626 166.679 56.2925 165.149 56.2925 162.877C56.2925 156.609 63.6408 153.63 64.8077 159.425C65.1116 160.938 65.7595 163.525 66.2454 165.175C66.7324 166.825 67.4312 170.085 67.7982 172.42C68.1651 174.754 68.8369 176.894 69.2908 177.175C69.7448 177.456 70.4315 179.596 70.8165 181.93C71.2014 184.265 71.8537 186.625 72.2657 187.175C72.6776 187.725 73.3373 189.52 73.7313 191.165C74.1262 192.809 74.8742 194.418 75.3931 194.739C75.9121 195.06 76.761 197.924 77.2779 201.104C77.7958 204.283 78.6587 207.414 79.1946 208.061C79.7316 208.708 80.3993 210.5 80.6793 212.043C80.9592 213.586 81.5994 215.372 82.1014 216.012C82.6033 216.652 83.2991 218.3 83.648 219.675C85.1378 225.543 88.0205 227.382 87.3336 222.027C86.9906 219.353 86.2799 216.493 85.754 215.671C84.4951 213.703 82.4481 204.901 81.2203 196.175C80.6793 192.325 79.7747 187.748 79.2117 186.004C78.6478 184.26 77.8087 177.285 77.3467 170.504C76.8848 163.723 76.0331 156.39 75.4551 154.209C74.1543 149.303 75.3812 147.45 79.6507 147.874C83.2802 148.234 85.6457 154.617 86.7166 166.931C88.0764 182.574 88.5184 185.675 89.3863 185.675C90.7841 185.675 90.3832 170.926 88.7884 163.675C85.7638 149.924 87.4496 143.155 93.1619 146.11C96.8715 148.028 98.5683 156.245 98.5963 172.425C98.6162 183.826 99.327 187.275 100.74 182.822C101.064 181.802 102.557 179.844 104.057 178.47C105.558 177.097 107.354 175.118 108.048 174.074C114.174 164.855 116.285 161.328 116.285 160.311C116.285 159.656 117.635 157.643 119.285 155.836C120.935 154.03 122.311 151.792 122.343 150.863C122.375 149.935 123.478 147.15 124.794 144.675C129.305 136.184 130.113 134.237 133.293 124.175C136.512 113.986 141.12 112.259 149.008 118.284C156.68 124.144 161.857 127.365 164.773 128.091C166.42 128.501 168.385 129.347 169.139 129.973C171.176 131.664 177.268 133.837 181.533 134.395C183.599 134.664 185.537 135.289 185.841 135.781C186.145 136.273 187.605 136.68 189.085 136.687C191.678 136.698 199.908 138.683 203.524 140.17C205.596 141.021 206.028 138.257 204.024 136.975C203.337 136.535 202.324 135.424 201.774 134.507C201.224 133.59 199.04 130.292 196.919 127.178C190.623 117.933 190.924 110.116 197.526 111.385C199.52 111.768 205.281 121.134 205.275 123.984C205.275 124.429 207.186 126.83 209.523 129.319C211.861 131.809 214.185 134.595 214.688 135.511C215.828 137.587 217.344 138.64 219.222 138.66C220.35 138.672 220.405 138.408 219.472 137.475C217.756 135.759 217.942 127.193 219.728 125.711C222.171 123.684 225.267 126.766 230.243 136.175C230.825 137.275 232.179 139.525 233.253 141.175C237.892 148.299 246.269 167.216 246.269 170.565C246.269 171.467 247.169 173.884 248.269 175.936C249.368 177.989 250.268 181.218 250.268 183.112C250.268 185.007 250.718 186.835 251.268 187.175C251.818 187.515 252.283 189.229 252.302 190.984C252.334 193.992 256.033 203.319 256.344 201.175C256.9 197.334 255.859 185.902 254.842 184.675C252.725 182.124 251.004 176.793 251.582 174.581C251.885 173.422 251.742 171.506 251.263 170.324C250.784 169.142 249.441 164.8 248.278 160.675C247.115 156.55 245.768 152.443 245.285 151.548C244.801 150.653 244.11 148.346 243.749 146.42C243.332 144.195 242.232 142.458 240.734 141.656C237.888 140.133 236.956 138.058 238.156 135.915C239.033 134.347 237.888 129.347 236.133 127.083C230.616 119.962 228.261 110.899 231.231 108.211C234.76 105.017 240.27 108.614 240.27 114.114C240.27 114.854 240.944 115.72 241.769 116.037C242.594 116.353 243.269 117.682 243.269 118.989C243.269 120.296 244.231 122.222 245.407 123.27C248.946 126.426 247.557 113.305 243.414 104.467C241.684 100.777 240.27 97.2895 240.27 96.7165C240.27 96.1435 239.923 95.6746 239.499 95.6746C239.075 95.6746 237.676 93.7626 236.389 91.4246C235.102 89.0866 232.36 85.9845 230.296 84.5305C224.026 80.1145 224.057 73.6746 230.346 73.6746C233.443 73.6746 243.269 82.4785 243.269 85.2535C243.269 86.0695 243.944 86.9965 244.769 87.3125C245.594 87.6295 246.269 88.9795 246.269 90.3125C246.269 91.6465 246.944 92.9965 247.769 93.3125C248.594 93.6295 249.268 94.3535 249.268 94.9215C249.268 95.4905 250.127 97.8046 251.177 100.065C255.648 109.694 256.268 111.757 256.268 117.006C256.268 122.853 259.188 123.705 264.154 119.308C265.041 118.523 267.791 117.206 270.266 116.381C274.765 114.881 274.765 114.881 275.053 105.111C275.242 98.6976 274.957 95.1025 274.224 94.6495C273.609 94.2695 272.737 91.0825 272.287 87.5665C271.836 84.0505 270.972 79.9076 270.367 78.3596C269.761 76.8116 269.266 74.2786 269.266 72.7316C269.266 71.1846 268.591 69.3596 267.766 68.6746C266.941 67.9896 266.263 66.6976 266.26 65.8026C266.256 64.9066 265.581 62.8855 264.76 61.3105C263.938 59.7345 263.267 57.7985 263.267 57.0085C263.267 56.2175 262.416 53.9066 261.376 51.8726C255.562 40.5006 253.268 35.3326 253.268 33.6066C253.268 32.5436 252.837 31.6746 252.31 31.6746C251.783 31.6746 250.141 29.5366 248.66 26.9246C242.384 15.8536 232.741 9.95253 228.521 14.6025ZM291.078 120.622C286.592 121.495 280.791 125.757 278.771 129.662C277.248 132.608 268.143 140.037 262.797 142.697C261.164 143.509 259.027 144.962 258.047 145.925C257.069 146.888 255.593 147.675 254.768 147.675C253.943 147.675 253.268 148.07 253.268 148.553C253.268 149.035 253.943 149.99 254.768 150.675C255.593 151.36 256.281 153.326 256.299 155.046C256.316 156.767 256.991 159.049 257.799 160.116C258.606 161.184 259.267 163.096 259.267 164.366C259.267 168.023 262.021 167.18 268.688 161.48C283.999 148.392 290.873 139.261 295.667 125.642C298.017 118.962 298.257 119.225 291.078 120.622ZM140.825 131.298C140.451 133.291 139.776 135.653 139.326 136.548C138.875 137.443 137.303 140.65 135.832 143.675C133.191 149.105 132.828 149.825 130.319 154.603C129.154 156.821 129.315 157.253 132.184 159.603C139.256 165.397 136.547 172.675 127.316 172.675C121.128 172.675 121.398 172.5 114.966 180.675C109.547 187.563 109.396 192.631 114.787 186.673C119.444 181.527 131.851 177.549 133.735 180.598C134.049 181.106 135.593 181.804 137.168 182.15C146.721 184.248 148.099 200.791 139.231 206.925C132.394 211.654 125.339 210.97 121.178 205.175C118.123 200.922 117.684 200.675 113.174 200.675C110.551 200.675 108.108 200.196 107.746 199.61C107.316 198.915 106.407 199.161 105.131 200.315C103.505 201.788 102.84 201.877 101.19 200.846C99.3752 199.713 99.0333 200.016 97.2005 204.39C96.0986 207.021 94.7667 209.956 94.2418 210.911C92.8939 213.365 93.0558 215.238 94.7386 216.634C95.5365 217.297 96.4874 219.827 96.8524 222.257C97.5143 226.675 97.5142 226.675 102.24 226.675C106.401 226.675 107.389 227.122 110.522 230.425C115.421 235.59 119.966 239.675 120.814 239.675C121.203 239.675 124.115 241.25 127.284 243.175C130.452 245.1 133.886 246.689 134.914 246.707C135.942 246.724 137.656 247.399 138.723 248.207C139.791 249.014 141.674 249.675 142.908 249.675C144.142 249.675 146.418 250.183 147.966 250.804C152.636 252.677 160.836 252.762 164.998 250.981C167.698 249.826 172.408 249.301 181.472 249.146C190.592 248.989 194.593 248.54 195.685 247.551C200.892 242.836 209.983 237.596 214.121 236.925C217.828 236.323 224.673 230.066 225.88 226.175C226.222 225.075 227.282 223.275 228.237 222.175C231.981 217.863 235.474 203.889 234.614 196.671C234.138 192.675 234.425 191.772 237.158 188.671C240.176 185.245 241.416 179.502 239.407 178.26C238.933 177.966 237.946 175.589 237.214 172.976C234.853 164.542 225.294 156.927 223.344 161.925C222.861 163.162 220.847 165.975 218.87 168.175C216.892 170.375 215.274 172.962 215.274 173.925C215.273 174.888 214.451 176.497 213.447 177.501C212.442 178.506 211.332 180.078 210.98 180.996C207.447 190.206 189.467 187.17 186.817 176.916C185.782 172.909 192.585 160.743 195.89 160.692C196.503 160.683 198.149 159.775 199.548 158.675C201.347 157.259 203.604 156.675 207.274 156.675C214.031 156.675 219.292 153.329 214.151 152.301C212.455 151.961 210.621 151.959 210.075 152.296C209.529 152.634 208.114 152.439 206.929 151.864C201.681 149.318 190.24 148.691 186.418 150.739C180.197 154.074 173.278 151.623 173.278 146.084C173.278 144.006 172.113 143.105 165.529 140.086C155.002 135.26 152.386 133.82 148.137 130.512C143.245 126.702 141.655 126.873 140.825 131.298ZM274.215 170.32C270.563 173.341 270.323 173.529 266.016 176.758C263.333 178.771 262.27 182.941 264.145 184.1C264.628 184.399 265.266 187.238 265.562 190.409C265.858 193.58 266.732 198.97 267.505 202.386C268.802 208.116 268.764 208.918 267.016 212.73C264.793 217.581 265.256 218.567 268.7 216.31C270.072 215.411 272.033 214.675 273.056 214.675C278.475 214.675 279.27 211.558 279.195 190.611C279.11 167.087 278.944 166.41 274.215 170.32ZM200.497 170.232C197.772 172.141 197.514 175.675 200.1 175.675C202.102 175.675 206.274 171.747 206.274 169.861C206.274 168.187 203.128 168.389 200.497 170.232ZM125.677 192.093C124.835 194.286 128.214 198.675 130.743 198.675C134.771 198.675 136.863 195.255 134.364 192.756C131.973 190.365 126.5 189.947 125.677 192.093ZM53.5477 210.171C43.163 215.729 39.4617 215.327 37.004 208.374C36.697 207.505 35.7382 207.658 33.5335 208.925C31.8577 209.888 29.9369 210.675 29.264 210.675C27.3932 210.675 15.2977 216.836 15.2977 217.789C15.2977 218.977 19.0011 221.139 24.5465 223.19C27.1591 224.156 29.296 225.336 29.296 225.811C29.296 226.286 30.5357 226.675 32.0526 226.675C33.5684 226.675 36.3801 227.157 38.3018 227.746C42.8423 229.137 55.9944 228.857 71.0965 227.046C75.465 226.522 76.2841 226.124 75.7332 224.792C75.3643 223.903 74.8193 222.275 74.5213 221.175C74.2233 220.075 73.3745 218.287 72.6356 217.202C71.8957 216.118 71.2906 214.381 71.2906 213.343C71.2906 206.545 63.0705 205.074 53.5477 210.171ZM242.036 213.971C238.316 221.246 238.625 224.585 242.661 220.729C246.367 217.189 247.262 213.745 244.972 211.843C243.982 211.022 243.286 211.525 242.036 213.971ZM291.076 241.627C290.847 259.901 290.428 266.913 289.513 267.827C288.826 268.513 288.263 269.915 288.263 270.942C288.263 273.75 283.535 279.385 280.204 280.546C278.29 281.214 277.265 282.26 277.265 283.546C277.265 284.633 276.198 286.794 274.894 288.348C273.591 289.903 272.207 292.632 271.819 294.414C271.43 296.195 270.697 297.909 270.189 298.223C269.681 298.536 269.266 299.645 269.266 300.686C269.266 301.727 267.871 306.538 266.166 311.377C264.462 316.216 262.84 321.622 262.562 323.39C262.284 325.158 261.429 327.126 260.662 327.762C259.895 328.399 259.267 330.579 259.267 332.606C259.267 334.634 258.606 337.166 257.799 338.234C256.991 339.301 256.314 341.525 256.293 343.175C256.272 344.825 255.642 347.349 254.895 348.783C254.146 350.217 253.206 354.042 252.805 357.283C252.403 360.524 251.723 363.625 251.292 364.175C250.861 364.725 250.184 368.775 249.788 373.175C249.392 377.575 248.708 381.625 248.266 382.175C247.427 383.22 246.97 386.614 247.158 390.395C247.269 392.615 247.269 392.615 250.781 390.231C252.714 388.919 256.088 387.543 258.28 387.173C260.473 386.802 262.267 386.369 262.267 386.209C262.267 386.05 261.592 384.304 260.767 382.329C259.942 380.355 259.253 376.812 259.235 374.457C259.218 372.102 258.543 369.301 257.735 368.234C254.243 363.616 258.632 354.675 264.391 354.675C267.411 354.675 269.266 351.012 269.266 345.046C269.266 343.214 269.903 340.019 270.681 337.945C271.459 335.872 272.378 332.172 272.724 329.725C273.07 327.277 273.724 324.802 274.178 324.225C274.632 323.647 275.238 320.982 275.525 318.301C275.812 315.621 276.502 313.146 277.058 312.801C277.614 312.457 278.399 309.971 278.803 307.278C279.206 304.585 280.146 301.21 280.893 299.778C281.64 298.346 282.254 296.154 282.258 294.905C282.261 293.657 283.313 290.957 284.595 288.905C285.876 286.854 288.372 282.25 290.142 278.675C291.912 275.1 293.916 271.275 294.595 270.175C301.284 259.335 302.538 257.882 308.458 254.112C319.909 246.821 320.335 246.675 330.162 246.675C335.165 246.675 339.25 246.337 339.241 245.925C339.213 244.558 322.804 229.675 321.325 229.675C320.918 229.675 318.103 227.897 315.069 225.724C293.329 210.154 291.456 211.395 291.076 241.627ZM191.816 223.74C193.247 226.055 191.266 231.249 188.281 233.013C175.239 240.717 163.51 238.751 169.173 229.81C171.614 225.957 190.12 220.996 191.816 223.74ZM274.265 225.464C272.34 226.291 268.516 228.094 265.766 229.469C263.017 230.845 259.015 232.845 256.874 233.915C252.573 236.064 249.295 235.241 247.621 231.589C246.873 229.96 245.996 230.524 240.453 236.204C234.136 242.675 234.136 242.675 237.503 242.675C239.355 242.675 241.332 242.212 241.897 241.647C242.462 241.082 245.815 240.156 249.346 239.589C252.878 239.023 256.195 238.135 256.717 237.617C258.284 236.063 269.846 236.464 271.22 238.12C275.784 243.62 267.888 248.061 247.269 251.591C244.794 252.014 241.644 252.853 240.27 253.454C238.895 254.056 236.083 254.822 234.02 255.157C229.133 255.95 228.974 258.587 232.798 275.425C233.339 277.809 251.434 278.993 253.818 276.801C255.74 275.033 262.976 274.813 264.634 276.472C266.072 277.91 266.393 277.642 268.238 273.471C270.326 268.75 272.849 267.23 276.854 268.278C280.408 269.207 281.47 264.722 282.029 246.425C282.412 233.882 282.243 229.675 281.355 229.675C280.702 229.675 279.628 228.389 278.967 226.817C277.775 223.984 277.735 223.972 274.265 225.464ZM75.2901 236.803C73.3653 237.831 70.1299 238.673 68.1002 238.673C62.4709 238.676 62.5027 239.116 69.1119 252.602C73.0114 260.56 93.5499 284.675 96.4285 284.675C97.4744 284.675 124.284 311.625 124.284 312.677C124.284 313.114 126.504 315.74 129.218 318.512C134.151 323.551 134.151 323.551 134.797 320.613C135.415 317.798 140.282 316.019 140.282 318.608C140.282 319.121 141.182 319.826 142.282 320.175C143.466 320.551 144.291 321.701 144.304 322.992C144.328 325.292 148.22 331.101 148.259 328.893C148.271 328.188 147.606 325.995 146.781 324.021C145.956 322.046 145.281 319.574 145.281 318.528C145.281 317.226 144.361 316.441 142.365 316.042C140.761 315.721 138.202 314.157 136.679 312.567C135.155 310.976 132.929 309.675 131.731 309.675C129.784 309.675 126.019 307.362 122.552 304.036C121.874 303.385 120.974 302.701 120.553 302.514C119.098 301.871 112.285 292.836 112.253 291.507C112.236 290.774 111.562 289.301 110.754 288.234C109.947 287.166 109.286 284.301 109.286 281.866C109.286 278.373 108.653 276.718 106.286 274.022C104.636 272.143 103.287 270.001 103.287 269.263C103.287 268.524 102.651 267.392 101.874 266.747C101.097 266.102 100.157 263.367 99.7862 260.668C99.2413 256.702 98.4003 255.13 95.4017 252.468C93.3619 250.657 89.0495 246.025 85.8199 242.175C78.9877 234.031 79.7515 234.421 75.2901 236.803ZM107.286 244.675C108.343 246.65 110.286 247.427 110.286 245.875C110.286 244.823 108.114 242.675 107.051 242.675C106.591 242.675 106.697 243.575 107.286 244.675ZM214.387 248.399C206.727 249.847 202.79 254.874 202.482 263.601C202.31 268.478 202.632 272.401 203.267 273.166C203.859 273.88 204.604 276.662 204.922 279.35C206.434 292.121 222.005 290.896 222.43 277.973C222.777 267.378 219.049 246.636 217.01 247.811C216.879 247.886 215.699 248.15 214.387 248.399ZM113.035 260.367C107.424 261.825 119.773 272.675 127.043 272.675C129.53 272.675 132.283 276.168 132.283 279.326C132.283 283.168 129.986 284.449 124.108 283.884C118.796 283.374 118.796 283.374 121.586 286.774C123.121 288.645 124.605 290.855 124.885 291.688C125.475 293.442 130.254 296.495 135.283 298.326C137.207 299.026 139.51 300.493 140.4 301.585C141.29 302.677 143.267 303.884 144.794 304.267C147.856 305.036 147.82 305.531 145.374 296.175C144.799 293.975 144.287 288.8 144.236 284.675C144.184 280.55 143.835 276.418 143.461 275.492C142.123 272.18 126.555 262.498 120.784 261.391C119.135 261.074 117.11 260.612 116.285 260.364C115.46 260.116 113.998 260.117 113.035 260.367ZM170.262 261.145C167.228 261.81 163.771 262.877 162.578 263.515C161.386 264.153 158.897 264.675 157.046 264.675C151.151 264.675 149.024 274.828 152.752 285.175C153.544 287.375 154.212 291.087 154.236 293.425C154.26 295.763 154.71 297.675 155.235 297.675C155.76 297.675 156.466 299.151 156.805 300.955C157.262 303.391 158.357 304.741 161.062 306.205C163.27 307.399 164.932 309.16 165.283 310.675C166.338 315.239 168.688 314.798 184.776 307.017C197.903 300.667 200.83 297.448 199.119 291.242C197.836 286.592 192.275 284.867 192.275 289.12C192.275 289.841 191.527 291.048 190.613 291.803C189.699 292.557 188.118 295.053 187.101 297.348C185.672 300.57 184.547 301.676 182.165 302.2C173.011 304.21 176.221 291.159 187.86 279.043C193.452 273.222 193.884 271.89 192.356 265.175C191.673 262.175 191.673 262.175 189.463 266.409C188.113 268.993 186.335 270.873 184.899 271.234C183.606 271.558 180.593 273.815 178.204 276.25C173.499 281.044 170.016 281.922 168.314 278.741C166.801 275.914 167.05 271.944 168.831 270.464C173.984 266.186 179.108 260.84 178.571 260.302C177.816 259.547 177.312 259.598 170.262 261.145ZM262.824 285.257C261.758 286.037 260.026 286.675 258.977 286.675C257.928 286.675 255.652 287.319 253.919 288.107C252.186 288.895 249.934 289.682 248.915 289.857C246.155 290.331 243.304 298.865 243.132 307.169C243.052 311.022 242.375 315.692 241.628 317.547C239.87 321.909 239.711 355.187 241.427 359.36C242.563 362.123 242.601 362.076 243.429 356.856C243.893 353.931 244.696 350.746 245.213 349.779C245.731 348.812 246.47 345.581 246.856 342.598C247.241 339.615 248.168 336.287 248.912 335.202C249.658 334.118 250.268 331.585 250.268 329.575C250.268 327.546 250.935 325.366 251.768 324.675C252.593 323.99 253.268 322.091 253.268 320.454C253.268 318.817 253.9 316.059 254.673 314.326C255.445 312.593 256.302 309.575 256.577 307.619C257.036 304.364 258.895 299.457 261.102 295.675C262.085 293.992 265.285 284.36 264.967 284.043C264.855 283.931 263.89 284.477 262.824 285.257ZM229.063 289.673C228.352 290.832 225.408 293.571 222.522 295.76C219.635 297.949 217.272 300.21 217.272 300.786C217.272 301.946 225.007 309.675 226.167 309.675C226.571 309.675 227.668 311.284 228.606 313.252C231.803 319.956 233.961 314.986 234.182 300.411C234.231 297.241 234.821 293.765 235.495 292.686C236.864 290.494 236.074 289.293 232.563 288.233C230.939 287.743 230.014 288.124 229.063 289.673ZM77.2899 293.613C75.915 294.035 72.0907 295.814 68.7911 297.566C44.6951 310.363 35.3111 321.363 40.3914 330.857C40.9953 331.984 41.7193 336.117 42.0023 340.041C42.2842 343.965 43.1412 348.39 43.9051 349.875C44.669 351.361 45.294 353.696 45.294 355.066C45.294 356.436 45.7108 357.815 46.2208 358.13C46.7307 358.445 47.7016 360.384 48.3785 362.439C50.3082 368.297 57.4053 377.675 59.909 377.675C60.5919 377.675 62.1907 375.595 63.4605 373.052C64.7294 370.509 66.3362 368.211 67.0301 367.945C67.723 367.679 68.2911 366.816 68.2911 366.028C68.2911 362.905 82.4662 345.68 85.0389 345.677C85.7268 345.676 87.0777 344.886 88.0425 343.921C89.0074 342.956 92.494 341.284 95.7916 340.204C103.226 337.769 102.821 338.103 101.591 335.423C96.7165 324.805 95.8926 323.517 92.961 321.935C88.0546 319.288 81.0052 316.677 78.7625 316.676C70.7815 316.673 70.1469 307.878 77.9759 305.784C79.6107 305.347 80.9315 304.223 81.1295 303.103C81.4904 301.052 85.0389 297.734 86.9107 297.697C88.3375 297.669 97.5254 307.09 100.867 312.007C102.471 314.368 104.46 315.96 106.256 316.319C109.415 316.951 110.931 321.258 109.708 326.128C109.342 327.587 109.569 329.311 110.233 330.111C110.877 330.887 111.939 333.693 112.595 336.348C113.785 341.175 113.785 341.175 122.158 341.719C131.023 342.295 135.283 344.855 135.283 349.608C135.283 350.61 135.958 351.99 136.783 352.675C137.804 353.523 138.282 355.793 138.282 359.797C138.282 366.36 139.254 367.076 142.87 363.175C149.624 355.886 154.621 365.822 148.022 373.422C143.392 378.755 137.909 390.105 138.609 392.907C138.92 394.154 139.678 397.425 140.293 400.175C140.909 402.925 142.02 407.2 142.764 409.675C143.507 412.15 144.388 416.81 144.72 420.03C145.052 423.25 145.725 426.636 146.215 427.553C146.706 428.469 147.404 432.118 147.767 435.66C148.129 439.202 148.731 442.567 149.103 443.137C149.476 443.708 150.319 448.225 150.978 453.175C151.636 458.125 152.68 465.31 153.297 469.141C154.721 477.962 153.953 482.411 150.757 483.868C147.245 485.468 145.633 483.637 144.82 477.132C144.032 470.826 143.064 470.903 140.169 477.504C139.042 480.073 137.719 482.85 137.228 483.675C136.737 484.5 134.46 489 132.167 493.675C129.874 498.35 127.05 504.087 125.893 506.425C124.735 508.763 123.449 510.675 123.036 510.675C122.622 510.675 122.277 511.462 122.268 512.425C122.259 513.388 121.158 515.975 119.823 518.175C118.487 520.375 115.993 524.875 114.28 528.175C110.877 534.734 110.076 536.113 106.016 542.405C102.973 547.121 102.529 551.059 104.786 553.317C105.611 554.142 106.286 555.911 106.286 557.246C106.286 558.582 106.686 559.675 107.175 559.675C107.663 559.675 108.376 561.34 108.757 563.374C109.139 565.408 110.089 567.983 110.869 569.096C111.648 570.209 112.285 571.904 112.285 572.863C112.285 573.822 112.923 576.084 113.701 577.89C114.478 579.696 116.106 583.65 117.316 586.675C118.527 589.7 120.814 594.809 122.4 598.028C123.986 601.247 125.284 604.586 125.284 605.449C125.284 606.312 126.039 607.852 126.963 608.872C128.619 610.702 132.126 606.168 132.249 602.039C132.268 601.415 132.955 599.615 133.777 598.039C134.598 596.464 135.272 594.217 135.276 593.046C135.279 591.876 135.958 590.36 136.783 589.675C137.607 588.99 138.285 587.698 138.288 586.803C138.292 585.907 138.967 583.886 139.788 582.311C140.61 580.735 141.282 578.698 141.282 577.783C141.282 576.868 141.943 575.177 142.75 574.024C143.557 572.872 144.529 569.986 144.908 567.611C145.287 565.236 146.199 562.141 146.933 560.733C147.668 559.326 148.271 557.667 148.275 557.046C148.278 556.426 148.907 555.399 149.672 554.764C150.437 554.129 151.286 552.388 151.558 550.893C152.096 547.933 153.785 542.892 155.819 538.175C156.531 536.525 157.384 533.243 157.715 530.881C158.047 528.52 158.756 525.82 159.291 524.881C161.253 521.442 164.279 512.534 164.279 510.197C164.279 508.875 164.67 507.551 165.148 507.256C165.625 506.961 166.313 504.862 166.676 502.592C167.039 500.322 167.998 497.184 168.807 495.619C169.616 494.054 170.294 491.514 170.313 489.975C170.333 488.435 170.992 486.05 171.778 484.675C173.913 480.94 173.913 447.447 171.778 445.675C170.632 444.724 170.278 442.126 170.278 434.675C170.278 427.224 169.924 424.626 168.778 423.675C167.816 422.875 167.263 420.596 167.235 417.303C167.211 414.482 166.738 410.15 166.184 407.675C165.629 405.2 164.735 400.7 164.196 397.675C163.658 394.65 162.556 390.757 161.748 389.024C160.94 387.291 160.28 384.845 160.28 383.588C160.28 382.332 159.419 380.375 158.367 379.239C155.915 376.595 155.667 374.887 157.192 371.175C159.512 365.531 158.074 363.186 143.027 348.062C129.759 334.729 125.686 330.37 114.043 317.047C111.579 314.227 107.588 310.177 105.174 308.047C102.762 305.918 100.623 303.796 100.423 303.334C97.0793 295.599 85.9978 290.943 77.2899 293.613ZM202.959 308.508C201.961 309.425 199.077 312.313 196.549 314.925C194.021 317.537 191.382 319.675 190.682 319.675C189.983 319.675 189.157 320.462 188.846 321.425C188.535 322.388 187.036 324.525 185.515 326.175C181.639 330.379 176.277 337.329 176.277 338.151C176.277 339.857 168.772 347.764 166.647 348.297C165.345 348.624 164.279 349.278 164.279 349.749C164.279 351.585 167.868 358.335 170.505 361.46C174.039 365.647 174.418 372.718 171.253 375.428C168.971 377.383 169.199 382.913 171.854 389.945C172.637 392.019 173.311 395.169 173.352 396.945C173.42 399.918 177.035 409.487 177.203 407.141C177.244 406.572 178.668 405.284 180.369 404.28C185.18 401.437 192.282 409.617 192.272 417.99C192.264 425.316 184.734 430.733 180.477 426.475C178.952 424.95 178.922 432.074 180.412 442.175C180.98 446.025 181.745 453.9 182.111 459.675C182.757 469.855 182.852 470.186 185.237 470.522C190.351 471.244 196.207 482.757 194.027 487.805C193.227 489.659 192.161 492.525 191.657 494.175C190.246 498.79 183.669 499.173 181.995 494.738C180.563 490.945 179.654 490.85 179.005 494.425C178.73 495.938 178.004 498.638 177.391 500.425C174.519 508.804 174.031 510.424 173.299 514.004C172.869 516.111 172.013 518.34 171.398 518.955C170.782 519.571 170.278 521.228 170.278 522.639C170.278 524.049 169.378 526.884 168.279 528.936C167.179 530.989 166.279 533.742 166.279 535.056C166.279 536.37 165.607 538.735 164.785 540.311C163.964 541.886 163.274 544.075 163.253 545.175C163.232 546.275 162.555 548.049 161.747 549.116C160.94 550.184 160.28 552.04 160.28 553.243C160.28 554.445 159.604 555.99 158.78 556.675C157.955 557.36 157.28 558.808 157.28 559.895C157.28 560.982 156.65 563.291 155.879 565.024C155.109 566.757 154.239 569.075 153.946 570.175C153.1 573.346 150.325 580.885 148.736 584.326C147.936 586.059 147.281 588.11 147.281 588.884C147.281 589.658 146.62 591.165 145.813 592.233C145.005 593.3 144.329 594.85 144.309 595.675C144.269 597.341 139.939 608.351 138.926 609.364C138.572 609.718 138.282 611.1 138.282 612.436C138.282 613.772 137.536 616.129 136.626 617.671C134.864 620.654 135.019 621.172 140.796 631.712C142.781 635.331 160.958 652.675 162.767 652.675C163.599 652.675 164.279 653.078 164.279 653.57C164.279 654.626 179.705 662.675 181.728 662.675C182.491 662.675 184.389 663.308 185.945 664.082C191.074 666.633 193.711 667.542 199.075 668.615C201.989 669.197 205.814 670.421 207.574 671.332C209.333 672.243 215.723 674.221 221.772 675.729C234.07 678.793 241.375 680.949 248.768 683.691C251.518 684.712 255.568 686.022 257.767 686.604C262.803 687.937 283.307 687.994 290.163 686.694C293.008 686.154 305.47 685.489 317.858 685.215C330.246 684.94 340.888 684.403 341.507 684.02C342.41 683.462 382.308 680.843 394.75 680.525C412.11 680.081 425.119 676.943 437.245 670.274C442.469 667.401 448.318 664.444 450.243 663.703C452.168 662.962 454.868 661.375 456.242 660.175C457.617 658.975 460.317 657.386 462.242 656.644C464.166 655.901 467.718 653.804 470.135 651.984C472.55 650.164 474.841 648.675 475.223 648.675C475.606 648.675 476.459 647.663 477.119 646.425C478.418 643.988 479.422 642.318 483.284 636.175C487.54 629.403 487.977 628.592 495.21 614.024C499.075 606.241 502.24 598.816 502.243 597.524C502.247 596.232 502.879 593.968 503.649 592.492C504.419 591.017 505.372 588.332 505.769 586.525C506.166 584.719 506.83 582.55 507.246 581.707C508.432 579.298 510.32 571.735 511.371 565.175C511.899 561.875 512.985 556.401 513.784 553.011C515.846 544.253 515.659 542.773 511.736 536.815C509.811 533.892 508.236 531.127 508.236 530.671C508.236 530.215 507.841 529.692 507.358 529.508C506.875 529.325 505.267 527.375 503.785 525.175C502.303 522.975 499.382 519.351 497.294 517.123C495.206 514.894 493.188 512.093 492.809 510.899C492.43 509.704 490.989 507.837 489.607 506.749C488.225 505.662 485.465 502.638 483.473 500.03C481.481 497.421 478.252 493.613 476.296 491.567C474.34 489.521 468.916 483.509 464.241 478.206C452.542 464.932 406.227 418.675 404.636 418.675C403.924 418.675 398.576 422.275 392.751 426.675C386.925 431.075 381.842 434.679 381.455 434.685C381.069 434.69 378.77 436.27 376.348 438.195C373.927 440.121 366.503 444.357 359.85 447.609C334.383 460.062 331.38 460.584 330.059 452.787C329.15 447.416 328.701 446.917 326.2 448.48C325.118 449.155 321.426 449.988 317.997 450.33C314.567 450.671 310.861 451.436 309.761 452.028C308.661 452.621 301.912 453.347 294.763 453.641C281.764 454.175 281.764 454.175 282.083 459.104C282.258 461.816 283.046 464.953 283.833 466.077C284.62 467.201 285.264 470.018 285.264 472.338C285.264 474.659 285.688 476.819 286.206 477.139C286.724 477.46 287.425 479.848 287.763 482.447C288.1 485.047 289.026 488.369 289.82 489.829C290.613 491.289 291.277 493.989 291.295 495.829C291.312 497.669 291.987 500.049 292.795 501.116C293.602 502.184 294.263 504.235 294.263 505.675C294.263 507.115 294.924 509.165 295.731 510.233C296.538 511.3 297.214 513.537 297.231 515.202C297.249 516.868 297.881 519.118 298.637 520.202C299.393 521.287 300.349 524.2 300.762 526.675C301.175 529.15 302.131 532.063 302.887 533.148C303.643 534.232 304.262 536.004 304.262 537.087C304.262 538.169 305.56 541.781 307.148 545.114C308.736 548.447 310.803 553.2 311.74 555.675C312.677 558.15 314.076 561.525 314.848 563.175C315.621 564.825 316.534 567.627 316.877 569.403C317.22 571.178 318.122 573.145 318.881 573.775C319.639 574.405 320.26 575.488 320.26 576.183C320.26 576.878 320.931 578.735 321.753 580.311C322.574 581.886 323.249 583.875 323.253 584.733C323.256 585.59 323.92 587.165 324.727 588.233C325.535 589.3 326.21 591.452 326.227 593.014C326.248 594.893 327.275 596.747 329.258 598.488C330.908 599.936 332.258 601.886 332.258 602.821C332.258 605.039 339.918 619.455 342.808 622.675C344.042 624.05 345.97 626.918 347.094 629.048C348.217 631.178 352.199 636.549 355.945 640.983C365.769 652.614 371.844 659.756 374.78 663.122C378.401 667.276 377.994 673.032 374.046 673.487C372.268 673.692 370.734 673.092 369.574 671.737C368.603 670.603 367.317 669.675 366.716 669.675C366.114 669.675 364.67 667.979 363.506 665.908C362.342 663.837 357.987 658.55 353.827 654.158C349.668 649.767 346.262 645.69 346.26 645.098C346.258 644.506 344.203 641.806 341.694 639.098C339.184 636.39 336.485 632.825 335.695 631.175C333.513 626.62 329.281 619.298 328.211 618.227C327.687 617.703 327.259 616.565 327.259 615.697C327.259 614.829 326.359 613.349 325.259 612.407C324.159 611.465 323.259 609.844 323.259 608.806C323.259 607.768 322.584 606.36 321.759 605.675C320.934 604.99 320.26 603.64 320.26 602.675C320.26 601.71 319.585 600.36 318.76 599.675C317.935 598.99 317.26 597.392 317.26 596.124C317.26 594.856 316.585 593.142 315.76 592.317C314.935 591.492 314.26 590.16 314.26 589.356C314.26 588.551 313.37 585.932 312.283 583.534C311.195 581.137 310.295 578.31 310.283 577.254C310.271 576.197 309.625 574.622 308.847 573.754C308.069 572.885 306.479 569.332 305.314 565.858C304.149 562.384 302.8 558.784 302.317 557.858C301.834 556.932 299.835 551.766 297.876 546.379C295.918 540.991 293.629 535.898 292.789 535.058C291.873 534.142 291.263 531.733 291.263 529.032C291.263 526.365 290.652 523.921 289.763 523.032C288.938 522.207 288.25 519.876 288.232 517.853C288.215 515.829 287.54 513.3 286.732 512.233C285.925 511.165 285.264 509.354 285.264 508.206C285.264 507.059 284.58 505.143 283.743 503.949C282.391 502.018 281.428 498.649 279.587 489.425C278.919 486.078 278.951 486.08 275.856 489.175C269.132 495.9 262.767 489.983 262.767 477.008C262.767 467.206 265.31 463.034 270.637 464.099C273.407 464.653 273.492 464.558 272.89 461.55C272.546 459.831 272.255 456.119 272.242 453.3C272.219 448.329 272.004 447.949 265.114 440.675C260.734 436.05 256.873 430.78 255.046 426.926C253.415 423.489 251.673 420.425 251.174 420.117C250.676 419.809 250.268 418.031 250.268 416.166C250.268 414.004 249.647 412.427 248.556 411.816C247.26 411.09 246.747 409.133 246.442 403.739C246.138 398.351 245.749 396.862 244.842 397.615C242.905 399.222 237.27 393.446 237.27 389.853C237.27 388.24 236.536 385.177 235.639 383.047C234.593 380.566 233.829 375.045 233.512 367.675C233.24 361.35 232.606 355.655 232.101 355.02C231.597 354.385 231.091 348.83 230.978 342.675C230.779 331.915 230.67 331.402 228.138 329.33C226.69 328.145 225.217 326.223 224.864 325.059C224.07 322.44 207.845 306.644 206.068 306.758C205.356 306.804 203.957 307.592 202.959 308.508ZM154.22 318.591C155.362 320.195 156.58 323.007 156.927 324.841C157.273 326.675 158.119 329.3 158.805 330.675C159.492 332.05 160.576 334.482 161.215 336.079C162.376 338.983 162.376 338.983 165.255 335.579C171.405 328.307 172.813 324.675 169.482 324.675C167.874 324.675 164.967 323.595 163.022 322.275C161.077 320.955 158.581 319.588 157.476 319.237C156.37 318.886 155.212 317.941 154.904 317.137C154.595 316.333 153.848 315.675 153.243 315.675C152.639 315.675 153.078 316.987 154.22 318.591ZM93.7049 352.96C86.5658 357.123 74.6412 371.414 71.2056 379.925C70.5947 381.438 69.6889 382.675 69.1929 382.675C62.9427 382.675 79.7686 399.443 86.2098 399.633C86.9917 399.656 88.3875 400.359 89.3113 401.196C92.6959 404.259 103.236 403.558 108.955 399.888C111.708 398.121 114.461 396.675 115.073 396.675C115.685 396.675 116.545 396.079 116.985 395.351C117.425 394.623 119.355 392.935 121.273 391.601C125.841 388.424 127.214 386.662 127.252 383.925C127.27 382.688 128.184 380.775 129.284 379.675C131.348 377.61 132.14 370.322 130.415 369.256C129.937 368.961 129.241 366.021 128.868 362.722C127.962 354.702 126.419 353.241 119.854 354.18C110.895 355.46 106.568 355.24 104.536 353.401C102.341 351.414 96.7475 351.186 93.7049 352.96ZM257.281 399.633C256.003 400.451 255.984 401.048 257.138 403.88C257.877 405.692 258.798 408.996 259.185 411.222C259.922 415.461 265.79 426.675 267.272 426.675C267.745 426.675 268.385 427.462 268.696 428.425C270.108 432.798 278.823 440.105 284.641 441.794C288.735 442.983 312.019 440.872 314.975 439.044C316.193 438.291 318.519 437.675 320.144 437.675C326.573 437.675 331.35 432.656 327.759 429.675C326.934 428.99 326.259 426.965 326.259 425.175C326.259 423.385 325.584 421.36 324.759 420.675C323.934 419.99 323.259 418.341 323.259 417.01C323.259 415.679 322.785 414.047 322.206 413.383C321.626 412.719 320.389 410.6 319.457 408.675C318.245 406.175 316.2 404.389 312.305 402.425C305.424 398.957 305.638 398.922 304.883 403.643C303.662 411.278 296 409.871 295.071 401.842C294.746 399.031 261.274 397.074 257.281 399.633ZM289.013 533.46C291.915 536.718 292.422 554.373 289.692 557.103C283.184 563.611 277.844 556.557 278.77 542.675C279.681 529.007 282.66 526.327 289.013 533.46ZM177.381 538.081C182.42 543.141 182.693 543.86 183.081 553.11C183.625 566.087 175.288 574.118 168.414 567.238C166.01 564.831 166.099 549.163 168.536 545.702C169.494 544.343 170.278 542.07 170.278 540.652C170.278 535.547 173.644 534.328 177.381 538.081ZM488.581 646.801C483.242 656.056 482.137 657.325 475.74 661.551C466.787 667.465 467.296 670.039 478.24 674.206C479.065 674.52 481.089 675.509 482.739 676.405C504.693 688.328 505.451 688.572 511.205 685.573C520.807 680.567 532.661 663.675 526.571 663.675C522.114 663.675 509.331 652.942 499.334 640.806C494.872 635.391 495.303 635.151 488.581 646.801ZM540.031 660.267C540.496 665.878 538.127 672.885 534.544 676.496C533.823 677.223 533.233 678.27 533.233 678.822C533.233 680.608 519.707 693.117 515.661 695.072C513.502 696.116 510.955 697.353 510 697.822C507.614 698.994 501.492 698.897 500.737 697.675C499.5 695.673 498.237 696.75 498.237 699.807C498.237 702.938 498.237 702.937 502.487 702.207C507.725 701.308 512.971 701.427 514.869 702.489C516.373 703.33 517.602 705.395 523.987 717.798C532.058 733.476 549.773 755.54 552.273 753.029C554.204 751.088 560.229 738.358 560.229 736.217C560.229 734.944 560.841 732.723 561.589 731.282C563.266 728.048 563.583 716.566 562.144 711.175C561.556 708.975 560.649 704.475 560.126 701.175C559.604 697.875 558.797 694.485 558.331 693.642C557.865 692.799 557.145 690.549 556.729 688.642C556.314 686.735 555.357 684.287 554.602 683.202C553.848 682.118 553.23 680.484 553.23 679.574C553.23 678.664 552.555 677.36 551.73 676.675C550.906 675.99 550.231 674.235 550.231 672.775C550.231 671.315 549.613 669.231 548.859 668.147C548.104 667.062 547.178 664.6 546.801 662.675C544.869 652.82 539.248 650.82 540.031 660.267ZM179.972 680.925C180.29 684.913 180.938 688.933 181.413 689.859C181.888 690.786 182.277 692.535 182.277 693.749C182.277 710.08 209.835 713.539 217.288 698.143C218.474 695.692 219.856 693.432 220.359 693.122C224.322 690.671 217.13 683.675 210.646 683.675C209.236 683.675 206.888 683.065 205.428 682.32C201.804 680.471 192.922 677.675 190.642 677.667C189.616 677.664 187.426 676.768 185.776 675.675C180.161 671.955 179.317 672.718 179.972 680.925ZM218.819 711.625C213.544 717.132 195.727 720.745 190.749 717.317C189.664 716.57 187.094 715.651 185.038 715.274C182.774 714.859 180.866 713.776 180.197 712.525C179.452 711.133 178.762 710.789 178.081 711.47C177.411 712.14 177.404 713.078 178.056 714.245C178.598 715.214 178.716 717.17 178.318 718.591C176.932 723.538 178.529 741.571 181.081 749.777C181.662 751.646 182.433 755.087 182.795 757.425C183.157 759.763 183.842 761.675 184.319 761.675C184.795 761.675 185.479 763.234 185.836 765.139C186.193 767.045 187.113 769.124 187.881 769.761C188.648 770.398 189.276 771.377 189.276 771.936C189.276 776.692 199.247 776.565 203.02 771.761C207.539 766.008 211.208 759.538 211.83 756.225C212.228 754.1 213.163 751.194 213.908 749.768C214.652 748.342 215.263 746.65 215.267 746.008C215.27 745.367 215.808 744.663 216.461 744.445C217.262 744.178 217.791 739.993 218.083 731.612C218.481 720.174 218.75 718.753 221.424 713.925C224.739 707.939 223.446 706.796 218.819 711.625Z"
  />
</svg>
