<svg
  width="580"
  height="780"
  viewBox="0 0 580 780"
  fill="none"
  xmlns="http://www.w3.org/2000/svg"
>
  <path
    fill-rule="evenodd"
    clip-rule="evenodd"
    fill="black"
    d="M223.387 2.16889C224.925 2.84789 226.784 4.21496 227.518 5.20796C228.252 6.19996 229.553 7.55685 230.41 8.22285C234.695 11.5528 256.68 34.262 256.68 35.359C256.68 36.054 258.93 39.1939 261.679 42.3369C264.429 45.4789 266.679 48.6989 266.679 49.4919C266.679 50.2849 267.08 50.9339 267.571 50.9339C268.061 50.9339 268.74 52.0399 269.078 53.3919C269.417 54.7429 270.788 57.0289 272.124 58.4709C273.461 59.9119 274.849 62.4369 275.21 64.0809C275.571 65.7239 276.499 67.312 277.271 67.609C278.09 67.923 278.677 69.5399 278.677 71.4819C278.677 73.3159 279.098 75.0759 279.612 75.3939C281.179 76.3629 285.231 86.0509 286.949 92.9339C291.043 109.341 291.676 113.426 291.676 123.456C291.676 134.067 291.676 134.067 298.432 133.791C302.147 133.64 305.8 133.894 306.549 134.357C308.263 135.416 307.381 143.086 305.184 146.223C304.353 147.409 303.674 149.006 303.674 149.773C303.674 150.539 301.513 153.927 298.873 157.3C292.222 165.797 292.353 165.382 294.79 170.15C297.817 176.071 299.021 225.789 296.295 232.306C293.038 240.092 294.004 245.431 299.118 247.906C304.843 250.678 323.672 269.05 323.672 271.865C323.672 273.181 324.319 273.934 325.449 273.934C326.427 273.934 327.997 274.834 328.939 275.934C329.881 277.034 331.494 277.934 332.524 277.934C333.552 277.934 336.094 279.284 338.17 280.934C340.246 282.584 342.535 283.934 343.257 283.934C343.979 283.934 344.929 284.54 345.369 285.28C346.207 286.691 356.181 293.934 357.285 293.934C357.636 293.934 359.554 295.3 361.545 296.97C365.779 300.519 380.399 311.279 386.164 315.09C388.364 316.544 392.17 319.578 394.623 321.834C397.075 324.089 399.64 325.934 400.322 325.934C401.004 325.934 401.922 326.519 402.362 327.234C402.802 327.949 405.308 329.773 407.933 331.289C417.705 336.931 421.367 342.603 417.959 346.813C415.235 350.177 407.922 346.027 387.864 329.737C384.949 327.371 381.997 325.209 381.304 324.934C380.612 324.659 379.396 323.881 378.605 323.204C375.467 320.523 363.928 312.118 359.883 309.567C357.527 308.082 354.797 306.094 353.815 305.15C351.063 302.504 345.862 298.934 344.759 298.934C344.214 298.934 343.409 298.334 342.969 297.6C336.909 287.488 312.671 282.064 310.076 290.239C309.72 291.362 308.608 293.162 307.605 294.239C305.654 296.333 300.674 305.964 300.674 307.643C300.674 308.198 299.325 311.182 297.675 314.274C296.025 317.366 294.675 320.586 294.675 321.429C294.675 322.272 294.265 323.743 293.764 324.698C292.838 326.462 289.278 334.355 286.312 341.218C285.412 343.299 284.677 345.646 284.677 346.434C284.677 347.874 282.682 353.006 280.079 358.265C279.308 359.822 278.677 362.209 278.677 363.57C278.677 365.807 276.124 372.705 273.643 377.17C271.569 380.902 272.445 383.934 275.597 383.934C277.201 383.934 279.789 384.567 281.346 385.341C286.059 387.685 289.019 388.787 292.357 389.44C294.105 389.782 296.073 390.709 296.728 391.498C298.704 393.879 300.416 393.128 301.079 389.587C301.494 387.378 302.533 385.863 304.138 385.132C305.474 384.523 307.33 382.863 308.26 381.443C309.806 379.082 318.856 373.934 321.459 373.934C323.268 373.934 324.028 371.774 322.55 370.838C321.792 370.357 319.521 369.958 317.503 369.949C315.486 369.941 312.561 369.314 311.004 368.556C304.655 365.466 301.033 363.97 298.425 363.36C296.912 363.007 295.675 362.356 295.675 361.913C295.675 361.471 293.869 360.805 291.663 360.432C286.959 359.637 285.428 357.447 285.868 352.142C286.347 346.379 289.372 346.624 304.674 353.663C321.462 361.387 335.911 362.87 341.669 357.461C343.044 356.17 345.969 354.144 348.169 352.958C350.368 351.773 354.868 349.038 358.167 346.88C361.467 344.721 365.135 342.528 366.319 342.006C367.503 341.484 368.767 340.58 369.128 339.996C371.651 335.913 392.462 341.645 396.282 347.475C399.952 353.077 395.989 358.739 390.618 355.566C386.757 353.285 385.616 354.19 388.492 357.252C391.267 360.206 391.333 364.505 388.625 365.954C386.73 366.969 382.81 366.459 381.664 365.049C380.79 363.973 375.28 360.303 371.966 358.589C368.409 356.75 362.129 356.378 361.158 357.949C360.813 358.507 358.977 359.613 357.079 360.406C355.181 361.2 351.471 363.668 348.834 365.891C346.198 368.115 343.703 369.934 343.29 369.934C338.732 369.934 330.768 381.624 334.637 382.636C335.719 382.918 336.868 383.981 337.19 384.998C337.513 386.014 339.553 388.994 341.722 391.621C343.893 394.248 345.669 396.742 345.669 397.163C345.669 397.585 347.919 401.981 350.668 406.934C353.418 411.887 355.668 417.011 355.668 418.322C355.668 419.633 356.34 421.994 357.161 423.57C358.106 425.382 358.657 429.259 358.661 434.125C358.667 441.75 359.719 444.282 361.954 442.047C362.566 441.435 364.047 440.934 365.244 440.934C366.442 440.934 371.003 438.953 375.379 436.533C379.755 434.112 385.772 431.101 388.749 429.841C396.106 426.729 401.358 423.37 402.654 420.949C403.339 419.67 404.748 418.934 406.516 418.934C410.57 418.934 424.839 408.092 426.127 404.034C426.517 402.807 428.06 400.37 429.556 398.618C432.15 395.584 432.806 393.287 435.252 378.684C436.378 371.965 434.977 368.194 429.37 362.846C422.458 356.252 421.91 346.292 428.576 348.408C431.089 349.206 441.802 359.509 443.742 362.995C445.718 366.547 445.367 385.802 443.249 390.05C442.374 391.805 441.643 394.185 441.626 395.338C441.57 399.051 432.392 415.141 429.21 417.103C428.614 417.471 426.986 418.821 425.594 420.103C424.201 421.385 421.399 423.559 419.368 424.934C414.162 428.457 414.043 428.104 424.409 439.96C426.197 442.004 427.659 444.113 427.659 444.646C427.659 445.179 429.346 447.391 431.408 449.562C433.471 451.732 435.833 454.564 436.657 455.855C437.482 457.146 438.752 458.704 439.479 459.318C440.206 459.932 441.488 461.176 442.329 462.084C448.684 468.946 450.656 471.189 450.656 471.555C450.656 471.787 452.826 474.78 455.477 478.205C461.669 486.205 472.719 503.324 478.861 514.434C479.47 515.534 480.35 517.109 480.817 517.934C481.284 518.759 482.173 520.559 482.791 521.934C488.435 534.479 489.971 537.788 491.215 540.088C492.005 541.548 492.651 543.441 492.651 544.294C492.651 545.147 493.786 547.52 495.175 549.566C496.564 551.613 497.945 554.446 498.244 555.861C500.065 564.49 503.547 568.241 506.911 565.197C511.505 561.038 513.708 575.097 509.648 582.673C508.549 584.725 507.649 587.031 507.649 587.796C507.649 590.67 494.167 618.156 491.634 620.45C490.543 621.436 489.651 623.244 489.651 624.467C489.651 625.689 488.976 627.249 488.151 627.934C487.326 628.619 486.651 629.922 486.651 630.829C486.651 631.737 485.076 634.871 483.152 637.794C479.244 643.728 478.783 645.934 481.452 645.934C482.442 645.934 483.71 646.392 484.269 646.951C486.447 649.13 501.802 649.446 503.328 647.344C514.465 631.99 527.782 629.567 533.692 641.82C535.521 645.61 539.723 650.238 543.465 652.583C544.938 653.506 548.843 657.335 552.143 661.091C555.443 664.848 559.567 669.476 561.309 671.378C563.051 673.279 564.791 675.869 565.177 677.134C565.831 679.274 567.896 684.258 571.103 691.434C573.331 696.42 575.64 705.396 575.64 709.072C575.64 710.976 576.152 713.046 576.777 713.671C579.785 716.68 580.443 764.559 577.516 767.486C575.231 769.771 563.79 769.851 560.582 767.605C559.27 766.686 557.604 765.934 556.88 765.934C555.342 765.934 549.508 762.005 548.343 760.184C547.903 759.497 547.076 758.934 546.503 758.934C545.25 758.934 531.688 745.803 531.663 744.566C531.653 744.089 530.296 742.16 528.646 740.281C526.996 738.402 525.646 736.142 525.646 735.259C525.646 725.176 510.375 718.272 494.451 721.155C486.979 722.508 479.596 718.059 477.334 710.839C476.954 709.627 474.907 709.096 468.788 708.624C456.06 707.642 448.543 704.757 441.51 698.153C436.857 693.785 435.323 694.085 421.565 702.044C415.843 705.355 409.586 708.785 407.661 709.666C405.736 710.548 403.487 711.794 402.662 712.436C400.288 714.282 389.64 717.734 384.164 718.433C381.414 718.784 378.265 719.491 377.165 720.005C376.065 720.518 366.391 721.401 355.668 721.967C344.944 722.533 333.112 723.245 329.375 723.549C325.6 723.856 322.044 723.674 321.376 723.139C320.714 722.61 317.059 721.853 313.256 721.458C309.452 721.063 305.403 720.326 304.257 719.822C302.224 718.926 292.206 716.871 280.211 714.889C276.93 714.347 273.804 713.46 273.262 712.918C272.721 712.377 270.988 711.934 269.412 711.934C267.837 711.934 265.565 711.379 264.363 710.7C262.167 709.46 255.968 707.662 247.757 705.886C245.324 705.36 242.59 704.256 241.68 703.432C240.769 702.608 239.117 701.934 238.008 701.934C235.828 701.934 223.197 697.763 214.901 694.303C210.131 692.314 208.686 692.563 208.686 695.375C208.686 696.718 209.11 698.078 209.628 698.398C212.642 700.261 211.901 710.703 207.6 726.934C207.09 728.859 206.212 732.625 205.649 735.302C205.085 737.979 203.289 742.863 201.656 746.154C200.023 749.446 198.673 752.881 198.655 753.787C198.638 754.693 197.963 756.308 197.155 757.375C196.349 758.443 195.688 759.901 195.688 760.616C195.688 761.332 194.226 763.885 192.438 766.29C190.65 768.696 188.337 771.85 187.299 773.299C186.259 774.748 184.797 775.934 184.049 775.934C183.301 775.934 182.689 776.285 182.689 776.715C182.689 778.024 176.855 779.787 174.451 779.205C170.029 778.135 163.692 769.783 163.692 765.026C163.692 764.01 163.017 762.619 162.192 761.934C161.367 761.249 160.676 759.732 160.657 758.562C160.637 757.391 159.978 755.309 159.192 753.934C158.406 752.559 157.747 749.353 157.727 746.81C157.708 744.266 157.017 740.272 156.193 737.934C155.345 735.529 154.693 730.248 154.693 725.776C154.693 721.01 154.097 716.444 153.193 714.28C149.306 704.977 152.212 695.948 159.746 693.92C163.692 692.857 163.692 692.857 163.692 686.03C163.692 680.638 164.128 678.65 165.764 676.569C167.082 674.893 167.38 673.934 166.583 673.934C165.894 673.934 162.076 671.684 158.098 668.934C154.121 666.184 150.4 663.934 149.829 663.934C149.259 663.934 148.434 663.372 147.994 662.684C146.878 660.941 138.49 656.69 136.684 656.954C133.893 657.361 132.695 656.936 132.695 655.538C132.695 654.77 130.901 652.633 128.708 650.788C119.376 642.938 108.25 631.222 106.583 627.487C106.078 626.358 104.548 623.451 103.182 621.027C101.816 618.603 100.699 616.047 100.699 615.348C100.699 614.649 99.9116 613.289 98.9497 612.325C96.787 610.16 96.309 584.311 98.3857 581.811C99.0376 581.026 99.8845 578.023 100.268 575.137C100.649 572.25 101.34 569.656 101.802 569.37C102.263 569.085 102.938 566.61 103.302 563.87C103.665 561.131 104.341 558.655 104.804 558.369C105.266 558.083 106.124 556.069 106.71 553.892C107.297 551.715 108.209 549.934 108.737 549.934C109.265 549.934 109.701 548.921 109.704 547.684C109.708 546.447 110.383 544.145 111.204 542.57C112.026 540.994 112.698 538.632 112.698 537.32C112.698 536.008 113.598 534.034 114.698 532.934C115.798 531.834 116.697 530.257 116.697 529.429C116.697 528.601 117.822 525.592 119.197 522.742C120.572 519.892 121.697 517.131 121.697 516.606C121.697 516.082 122.597 513.691 123.697 511.294C124.796 508.896 126.649 504.796 127.815 502.184C135.302 485.396 143.606 470.187 147.444 466.234C152.574 460.95 152.245 459.765 142.965 450.113C142.266 449.386 141.676 448.261 141.653 447.613C141.631 446.964 140.282 444.876 138.654 442.972C137.027 441.068 135.695 438.887 135.695 438.126C135.695 437.365 135.039 435.548 134.236 434.088C131.732 429.531 128.696 422.111 128.696 420.548C128.696 419.725 128.281 418.795 127.773 418.482C127.265 418.168 126.549 416.539 126.18 414.863C125.74 412.856 124.635 411.481 122.946 410.839C121.535 410.302 118.941 408.642 117.181 407.149C109.695 400.795 110.684 401.101 97.5349 401.074C82.0708 401.042 80.435 400.943 79.2021 399.961C78.6522 399.523 76.6604 398.835 74.7757 398.431C67.3136 396.833 55.946 387.984 50.9906 379.917C49.8028 377.983 47.6851 375.323 46.2843 374.007C44.8834 372.691 43.4586 370.127 43.1176 368.31C42.7767 366.492 41.8698 364.484 41.1019 363.847C40.335 363.21 39.7071 361.899 39.7071 360.934C39.7071 359.969 39.0821 358.66 38.3172 358.026C27.9175 349.393 33.5519 321.255 48.206 308.639C57.5079 300.631 66.8897 293.934 68.8055 293.934C70.2603 293.934 77.6853 289.565 77.6943 288.704C77.7073 287.534 60.4345 264.934 59.5276 264.934C59.0747 264.934 58.7047 264.436 58.7047 263.828C58.7047 263.22 57.4148 261.082 55.839 259.078C54.2622 257.074 52.6265 254.309 52.2046 252.934C51.7816 251.559 51.1597 250.209 50.8207 249.934C50.4828 249.659 49.5309 248.128 48.706 246.533C47.8811 244.937 46.5312 243.317 45.7063 242.932C28.1705 234.749 14.3693 227.156 10.2528 223.426C7.52612 220.956 4.91643 218.934 4.45248 218.934C3.46461 218.934 0.711914 212.697 0.711914 210.46C0.711914 207.147 10.8787 200.934 16.299 200.934C18.0398 200.934 19.9765 200.317 20.6015 199.564C21.2274 198.81 23.5501 197.95 25.7628 197.654C31.5751 196.874 32.9029 195.521 31.1902 192.127C28.2645 186.332 26.7087 182.028 26.7087 179.733C26.7087 178.413 26.2527 176.878 25.6968 176.322C25.1399 175.765 23.9601 171.737 23.0752 167.372C21.4864 159.54 21.0764 157.224 18.8287 143.434C18.2008 139.584 17.2529 129.009 16.722 119.934C16.191 110.859 15.4752 101.286 15.1312 98.6599C14.7732 95.9329 14.9372 93.3609 15.5141 92.6599C16.0691 91.9859 16.8389 89.3109 17.2249 86.7159C17.6108 84.1209 18.5537 81.4789 19.3186 80.8439C20.0835 80.2089 20.7094 79.1549 20.7094 78.5009C20.7094 75.9629 28.9484 72.8608 31.4081 74.4728C32.634 75.2768 35.3407 75.9369 37.4224 75.9409C39.5151 75.9439 42.5477 76.8349 44.2065 77.9339C45.8563 79.0269 47.9951 79.9239 48.9599 79.9269C49.9238 79.9309 52.3535 80.8139 54.3592 81.8889C58.5147 84.1159 61.7043 83.2379 61.7043 79.8669C61.7043 78.7699 62.3792 77.612 63.2041 77.296C64.029 76.979 64.7039 76.2999 64.7039 75.7869C64.7039 74.9649 72.5379 66.9339 73.3388 66.9339C73.5098 66.9339 75.6746 64.9089 78.1493 62.4339C80.624 59.9589 82.9997 57.9339 83.4286 57.9339C83.8576 57.9339 86.4233 56.3589 89.1299 54.4339C91.8376 52.5089 94.8502 50.9339 95.826 50.9339C96.8019 50.9339 97.9998 50.2209 98.4878 49.3489C99.1547 48.1559 101.444 47.6629 107.722 47.3569C112.313 47.1339 116.323 46.5549 116.633 46.0709C117.536 44.6609 126.368 40.9369 128.891 40.9019C130.159 40.8849 132.07 40.2099 133.136 39.4019C135.977 37.2539 169.923 37.2849 174.054 39.4399C180.731 42.9229 187.285 41.4669 188.71 36.1839C189.415 33.5719 190.599 30.7239 191.34 29.8549C192.081 28.9869 192.688 27.683 192.688 26.958C192.688 23.056 214.886 1.03096 218.888 0.962961C219.825 0.946961 221.849 1.48989 223.387 2.16889ZM210.055 20.6839C202.644 28.1969 198.819 34.4259 197.28 41.4869C196.309 45.9479 203.078 51.457 208.459 50.583C212.826 49.875 214.685 51.2089 214.685 55.0539C214.685 58.2909 220.593 65.5689 224.395 67.0139C227.872 68.3359 227.715 75.5069 224.174 77.1199C222.075 78.0769 221.298 77.9449 219.425 76.3149C218.193 75.2429 214.895 72.3558 212.097 69.8998C193.273 53.3778 187.912 51.1559 160.263 48.4179C157.003 48.0949 153.96 47.5989 153.501 47.3149C153.042 47.0319 150.31 47.4619 147.431 48.2709C144.551 49.0799 139.698 49.7209 136.647 49.6949C133.596 49.6689 129.547 50.3239 127.648 51.1509C120.534 54.2469 118.836 54.7899 114.078 55.4929C100.078 57.5619 74.9607 74.6109 69.2324 85.9339C68.2595 87.8589 66.9027 90.1089 66.2177 90.9339C65.5328 91.7589 64.652 93.7839 64.26 95.4339C63.8691 97.0839 62.4582 99.8659 61.1264 101.617C59.7945 103.368 58.7017 105.618 58.6987 106.617C58.6947 107.616 58.0198 109.723 57.1989 111.298C56.377 112.874 55.7021 114.899 55.6991 115.798C55.6951 116.698 55.0631 118.641 54.2932 120.117C52.0715 124.376 51.3756 128.829 51.5426 137.734C51.6816 145.217 51.4666 146.264 49.3529 148.378C46.8122 150.919 47.1182 156.585 50.2488 164.934C50.9697 166.859 51.8666 169.784 52.2405 171.434C52.8984 174.337 52.9484 174.361 53.7893 172.162C56.164 165.945 60.9644 168.54 61.8793 176.537C62.8872 185.342 65.0329 194.44 66.5227 196.225C67.5036 197.4 67.5676 198.319 66.7727 199.804C65.2079 202.729 65.4269 203.487 68.2035 204.752C70.9272 205.993 71.6251 210.342 69.6833 213.971C68.4805 216.219 71.1601 232.095 73.3418 235.649C74.0907 236.867 74.7027 239.175 74.7027 240.777C74.7027 242.379 75.3777 245.305 76.2026 247.28C77.0275 249.254 77.7023 252.148 77.7023 253.711C77.7023 255.273 78.3633 257.425 79.1702 258.493C79.978 259.56 80.653 262.026 80.67 263.973C80.688 265.919 81.6018 269.276 82.7017 271.434C83.8016 273.592 84.7015 275.937 84.7015 276.645C84.7015 277.354 85.1484 277.934 85.6933 277.934C86.8092 277.934 86.6202 220.147 85.4993 218.385C85.1324 217.809 84.5595 209.04 84.2265 198.898C83.8306 186.86 83.1136 178.968 82.1608 176.162C78.8232 166.33 80.643 155.934 85.7013 155.934C89.8448 155.934 90.6947 158.244 90.7357 169.618C90.7597 176.237 91.2367 180.248 92.2005 181.934C93.4804 184.173 93.6303 182.604 93.6333 166.934C93.6363 153.091 93.3304 149.028 92.1686 147.493C89.05 143.369 90.9597 138.934 95.8531 138.934C99.8496 138.934 102.232 144.916 102.975 156.812C103.296 161.934 103.739 166.308 103.962 166.53C106.142 168.711 135.302 140.731 139.098 132.816C139.594 131.781 140.382 130.934 140.847 130.934C141.313 130.934 141.694 130.12 141.694 129.125C141.694 128.13 142.355 126.443 143.162 125.375C143.97 124.308 144.645 122.827 144.662 122.085C144.691 120.85 146.232 116.948 148.964 111.184C150.869 107.166 157.692 111.857 157.692 117.185C157.692 119.311 158.694 120.965 161.378 123.269C163.406 125.01 166.893 128.04 169.127 130.003C176.844 136.78 193.443 145.173 201.437 146.338C206.188 147.031 206.597 146.362 203.687 142.661C201.336 139.672 201.147 137.055 203.09 134.398C204.881 131.947 209.566 133.309 211.299 136.785C211.934 138.059 212.955 139.604 213.569 140.218C214.183 140.832 214.685 142.299 214.685 143.479C214.685 145.466 217.447 148.934 219.03 148.934C219.408 148.934 219.621 147.684 219.505 146.155C219.185 141.96 222.568 138.878 225.376 140.807C227.127 142.009 230.683 148.685 230.683 150.768C230.683 151.922 231.334 154.344 232.131 156.15C232.927 157.956 233.853 161.561 234.188 164.161C234.524 166.76 235.202 169.137 235.695 169.441C236.187 169.746 236.895 172.691 237.267 175.987C237.64 179.282 238.336 182.22 238.814 182.515C239.291 182.811 239.682 183.949 239.682 185.045C239.682 186.141 240.539 188.702 241.587 190.736C242.635 192.77 244.181 196.009 245.022 197.934C246.553 201.434 246.553 201.434 246.617 192.884C246.652 188.181 246.244 183.897 245.709 183.362C245.175 182.828 244.437 179.025 244.071 174.912C243.705 170.799 242.792 166.219 242.043 164.734C241.295 163.248 240.668 160.323 240.65 158.234C240.633 156.144 239.958 153.56 239.15 152.493C238.343 151.425 237.682 149.545 237.682 148.314C237.682 147.084 237.117 145.482 236.426 144.755C233.395 141.566 230.538 129.805 232.184 127.291C234.389 123.927 238.407 124.133 239.816 127.684C240.416 129.197 241.532 131.628 242.295 133.088C243.058 134.548 243.696 136.798 243.714 138.088C243.731 139.378 244.405 141.308 245.213 142.375C246.02 143.443 246.681 145.393 246.681 146.708C246.681 148.176 247.164 148.941 247.931 148.687C249.884 148.041 250.088 133.898 248.223 128.406C247.375 125.908 246.681 121.714 246.681 119.087C246.681 114.352 244.364 108.186 240.553 102.78C237.227 98.0619 238.589 92.9339 243.168 92.9339C245.472 92.9339 252.307 102.337 253.291 106.862C253.599 108.277 254.487 111.131 255.265 113.204C256.136 115.526 256.68 120.786 256.68 126.895C256.68 132.352 257.095 137.073 257.603 137.386C258.111 137.7 258.822 139.302 259.183 140.945C259.966 144.514 260.534 144.582 265.981 141.758C274.3 137.446 275.516 136.934 277.426 136.934C282.311 136.934 285.047 112.701 280.749 107.52C280.193 106.85 279.427 103.657 279.047 100.423C278.667 97.1889 277.756 93.394 277.023 91.989C276.29 90.584 275.688 88.908 275.684 88.265C275.681 87.622 275.054 85.822 274.291 84.265C264.254 63.77 261.791 59.1949 259.436 56.6729C257.92 55.0499 256.68 53.1409 256.68 52.4309C256.68 51.1439 254.54 48.362 247.431 40.406C245.369 38.099 243.682 35.8008 243.682 35.3008C243.682 32.7878 221.46 12.9339 218.648 12.9339C218.127 12.9339 214.26 16.4209 210.055 20.6839ZM27.2657 87.1569C26.4098 88.3789 25.7088 89.9539 25.7088 90.6569C25.7088 91.3589 25.2589 91.9339 24.709 91.9339C23.4151 91.9339 23.3721 111.197 24.664 112.489C25.1889 113.014 25.9368 120.167 26.3248 128.385C26.7587 137.563 27.5447 144.311 28.3636 145.88C29.0965 147.285 29.6984 150.29 29.7024 152.558C29.7054 154.827 30.3833 158.596 31.2082 160.934C32.0331 163.272 32.708 166.829 32.708 168.837C32.708 170.846 33.3179 173.377 34.0628 174.461C34.8087 175.546 36.4205 179.357 37.6464 182.929C40.2921 190.642 42.1218 192.673 45.9223 192.116C49.0939 191.65 49.1249 191.582 47.5311 188.618C46.8852 187.417 46.0113 184.859 45.5893 182.934C45.1674 181.009 43.6706 175.222 42.2647 170.073C39.0951 158.473 38.9092 152.432 41.6748 150.951C43.2996 150.082 43.4736 149.452 42.6747 147.349C41.3959 143.986 42.5757 122.031 44.1735 119.434C44.8504 118.334 45.7293 115.688 46.1253 113.554C46.5212 111.419 47.8721 108.044 49.1269 106.054C55.5341 95.8879 54.0193 93.0239 39.7071 88.2419C37.2324 87.4149 34.7797 86.3319 34.2577 85.8359C32.5349 84.1999 28.8485 84.8959 27.2657 87.1569ZM150.73 132.337C150.227 133.658 149.339 135.035 148.755 135.396C148.172 135.757 147.688 136.813 147.682 137.743C147.675 138.673 145.878 141.363 143.689 143.72C141.5 146.077 139.077 149.228 138.304 150.723C137.531 152.218 134.783 155.367 132.198 157.72C128.031 161.513 127.588 162.309 128.304 164.717C131.337 174.906 129.077 177.318 115.924 177.934C103.884 178.498 102.744 179.302 102.714 187.255C102.706 189.359 102.001 191.775 101.146 192.63C95.2631 198.513 108.3 201.097 114.698 195.315C127.442 183.8 147.084 193.773 140.207 208.267C138.382 212.114 130.799 217.852 127.275 218.052C123.067 218.292 123.513 218.448 108.698 211.584C106.774 210.692 104.24 209.262 103.069 208.406C101.028 206.914 100.827 207.039 98.2778 211.392C96.8139 213.89 95.1852 215.934 94.6582 215.934C94.1313 215.934 93.7004 219.015 93.7004 222.78C93.7004 231.001 95.7321 235.934 99.1177 235.934C102.098 235.934 104.393 238.456 108.742 246.513C109.748 248.378 114.701 250.897 118.696 251.575C119.52 251.715 120.942 252.753 121.856 253.882C122.77 255.011 124.178 255.934 124.984 255.934C125.791 255.934 127.011 256.609 127.696 257.434C128.381 258.259 129.956 258.934 131.196 258.934C132.437 258.934 135.066 259.609 137.041 260.434C139.066 261.28 143.666 261.934 147.597 261.934C155.764 261.934 159.271 263.034 160.174 265.877C161.396 269.727 173.358 268.891 173.471 264.947C173.595 260.56 174.086 260.198 180.937 259.435C186.631 258.801 188.915 257.849 197.787 252.414C206.469 247.096 209.956 243.734 218.135 232.798C223.103 226.154 227.684 218.136 227.684 216.081C227.684 215.11 228.345 213.443 229.151 212.375C229.959 211.308 230.634 208.776 230.651 206.749C230.669 204.722 231.088 201.999 231.583 200.696C233.127 196.635 228.614 180.934 225.902 180.934C225.501 180.934 224.612 179.669 223.927 178.122C223.243 176.575 221.895 174.438 220.933 173.372C219.972 172.306 218.133 169.281 216.848 166.65C213.606 160.013 211.592 158.969 201.462 158.679C194.243 158.472 192.573 158.731 190.805 160.33C183.195 167.211 170.609 160.657 175.678 152.453C177.744 149.11 177.342 147.868 173.845 146.786C172.538 146.382 171.395 145.43 159.595 134.919C153.275 129.288 152.027 128.925 150.73 132.337ZM286.702 146.075C283.692 146.574 280.79 147.421 280.253 147.958C279.716 148.495 278.129 148.986 276.727 149.05C275.034 149.127 274.765 149.32 275.927 149.623C278.127 150.198 279.244 154.426 278.071 157.737C277.333 159.82 275.512 160.817 267.608 163.466C253.142 168.312 253.366 168.132 253.896 174.53C254.523 182.088 258.064 182.608 264.679 176.112C266.054 174.761 268.344 173.157 269.768 172.545C272.665 171.302 279.669 165.422 279.692 164.215C279.7 163.785 282.441 160.519 285.782 156.957C292.385 149.92 295.65 144.849 293.451 145.051C292.75 145.115 289.713 145.576 286.702 146.075ZM217.711 172.503C219.161 176.317 215.39 186.934 212.586 186.934C212.092 186.934 211.686 187.413 211.686 187.998C211.686 198.246 199.092 206.753 190.735 202.149C185.738 199.396 184.187 188.255 188.322 184.822C189.073 184.199 189.69 183.182 189.693 182.562C189.712 177.768 197.201 174.218 206.333 174.675C207.514 174.734 209.505 173.691 210.757 172.358C213.725 169.198 216.477 169.255 217.711 172.503ZM276.305 181.184C272.562 184.072 266.729 188.064 263.34 190.056C257.18 193.678 257.18 193.678 256.9 206.306C256.667 216.832 256.863 218.934 258.079 218.934C260.314 218.934 262.679 221.799 262.679 224.505C262.679 227.217 264.766 227.739 266.629 225.494C267.286 224.702 268.803 223.915 270.001 223.744C272.117 223.443 272.192 222.955 272.678 206.434C273.23 187.664 274.171 185.572 279.508 191.254C282.622 194.569 283.34 230.186 280.403 235.634C278.116 239.875 277.95 254.086 280.165 255.924C281.382 256.934 281.763 256.82 282.256 255.297C282.587 254.272 283.217 252.534 283.654 251.434C287.945 240.652 290.305 183.648 286.685 178.184C284.619 175.064 284.007 175.241 276.305 181.184ZM197.722 188.868C196.379 191.38 196.417 191.936 197.937 191.926C198.625 191.922 199.707 190.797 200.343 189.426C201.787 186.312 199.366 185.796 197.722 188.868ZM123.947 201.965C120.708 203.267 120.918 206.934 124.231 206.934C128.515 206.934 132.346 203.882 130.112 202.249C128.055 200.745 127.092 200.701 123.947 201.965ZM51.7056 203.729C50.3308 203.942 48.531 204.682 47.7061 205.373C45.1834 207.487 42.7977 207.933 40.242 206.768C38.2862 205.877 36.6475 206.07 32.005 207.738C28.8164 208.884 24.8589 210.093 23.2091 210.425C17.0629 211.662 14.7582 216.934 20.3635 216.934C21.1384 216.934 22.0233 217.588 22.3302 218.388C22.6372 219.188 24.7599 220.785 27.0476 221.937C29.3364 223.09 31.8831 224.394 32.708 224.837C37.3374 227.32 41.6098 228.999 44.7065 229.552C46.6312 229.896 49.1289 230.75 50.2578 231.449C51.3856 232.148 54.5352 232.881 57.2569 233.077C62.2042 233.434 62.2043 233.434 61.8583 227.934C61.2844 218.823 59.0157 217.559 49.2609 220.915C42.7187 223.166 40.1411 222.512 39.0922 218.331C38.1113 214.423 40.147 210.94 43.4356 210.9C44.9594 210.881 48.0061 209.997 50.2058 208.934C52.4055 207.871 54.7682 206.987 55.4551 206.968C56.143 206.949 56.7049 206.539 56.7049 206.056C56.7049 204.475 54.2533 203.333 51.7056 203.729ZM236.682 220.178C236.682 222.512 230.817 233.197 227.773 236.408C226.196 238.072 224.6 240.447 224.227 241.684C223.854 242.921 223.178 243.934 222.724 243.934C222.27 243.934 221.637 244.613 221.319 245.443C220.673 247.125 226.584 243.368 227.964 241.219C228.393 240.552 231.45 237.921 234.76 235.375C240.776 230.745 240.776 230.745 240.479 225.099C240.208 219.954 236.682 215.383 236.682 220.178ZM191.488 234.134C194.639 237.285 192.029 242.877 186.689 244.42C185.314 244.817 183.289 245.706 182.189 246.394C174.69 251.088 164.968 248.617 165.573 242.17C165.691 240.907 175.396 235.962 177.876 235.902C178.599 235.885 180.064 235.21 181.13 234.402C183.471 232.631 189.821 232.467 191.488 234.134ZM267.679 237.707C267.679 238.132 266.217 239.271 264.429 240.238C258.892 243.235 250.681 251.352 250.681 253.83C250.681 255.07 249.668 256.946 248.431 257.999C241.633 263.782 232.035 270.924 231.055 270.928C227.517 270.946 227.326 274.033 230.478 280.245C232.905 285.025 233.698 288.021 233.963 293.407C234.339 301.05 236.889 302.761 242.858 299.373C244.136 298.648 246.585 297.4 248.3 296.6C252.268 294.75 256.273 291.312 265.386 281.934C273.302 273.788 275.278 263.555 271.178 251.934C270.353 249.596 269.678 245.264 269.678 242.308C269.678 239.352 269.228 236.934 268.678 236.934C268.129 236.934 267.679 237.282 267.679 237.707ZM237.182 247.062C229.595 253.132 222.684 259.724 222.684 260.891C222.684 263.062 225.796 261.779 231.191 257.385C234.263 254.882 237.542 252.505 238.479 252.102C243.538 249.925 246.669 247.281 246.675 245.184C246.684 241.704 242.959 242.441 237.182 247.062ZM59.7086 245.684C59.7106 246.096 60.7064 248.009 61.9213 249.934C63.1361 251.859 64.597 254.284 65.1669 255.322C68.1255 260.71 69.5084 255.592 66.7377 249.509C64.8589 245.384 59.6926 242.573 59.7086 245.684ZM103.699 257.816C103.699 258.366 104.149 259.094 104.699 259.434C105.249 259.774 105.699 259.602 105.699 259.052C105.699 258.502 105.249 257.774 104.699 257.434C104.149 257.094 103.699 257.266 103.699 257.816ZM290.271 262.362C288.844 264.798 287.676 267.236 287.676 267.781C287.676 268.326 287.024 270.046 286.227 271.603C285.43 273.16 284.533 275.109 284.234 275.934C283.935 276.759 283.286 278.109 282.793 278.934C282.3 279.759 281.06 282.234 280.037 284.434C279.014 286.634 277.389 289.239 276.427 290.223C275.237 291.441 274.678 293.596 274.678 296.973C274.678 299.702 274.228 301.934 273.678 301.934C273.128 301.934 272.678 303.032 272.678 304.375C272.678 305.718 272.225 307.096 271.671 307.439C269.706 308.653 266.8 316.119 266.105 321.736C265.717 324.87 264.787 329.178 264.039 331.31C263.263 333.521 262.648 339.534 262.606 345.31C262.566 350.878 262.089 357.909 261.546 360.934C259.653 371.491 259.314 382.934 260.894 382.934C262.171 382.934 266.733 371.421 266.693 368.298C266.686 367.674 267.351 365.874 268.173 364.298C268.993 362.723 269.668 360.683 269.672 359.765C269.675 358.847 270.431 356.597 271.352 354.765C272.272 352.933 273.622 350.24 274.352 348.78C275.081 347.32 275.692 344.845 275.71 343.28C275.727 341.715 276.402 339.56 277.209 338.493C278.016 337.425 278.677 335.613 278.677 334.465C278.677 333.318 279.285 331.491 280.028 330.407C280.771 329.322 281.689 327.159 282.068 325.601C282.447 324.043 283.878 320.992 285.247 318.822C286.617 316.652 288.003 313.549 288.327 311.928C288.652 310.306 289.538 308.464 290.297 307.834C291.055 307.204 291.676 306.046 291.676 305.26C291.676 303.603 295.814 295.595 296.925 295.101C297.338 294.917 297.675 293.712 297.675 292.422C297.675 291.132 298.263 289.482 298.981 288.755C299.699 288.029 301.377 285.409 302.71 282.934C304.044 280.459 306.433 276.729 308.019 274.646C310.901 270.858 310.901 270.858 307.038 267.325C295.389 256.674 293.867 256.224 290.271 262.362ZM205.69 266.176C202.286 268.375 201.148 269.319 195.438 274.684C192.098 277.821 191.101 300.372 194.188 302.934C195.013 303.619 195.688 304.574 195.688 305.056C195.688 311.847 220.034 310.61 224.397 303.597C225.482 301.853 224.661 288.638 223.37 287.068C222.296 285.762 220.204 280.695 218.978 276.434C218.662 275.334 217.83 273.759 217.129 272.934C216.429 272.109 215.454 269.859 214.962 267.934C213.843 263.545 210.69 262.947 205.69 266.176ZM99.6996 275.596C99.6996 281.347 105.826 288.726 111.694 290.045C120.785 292.087 125.338 299.599 118.957 302.025C116.355 303.015 110.372 302.501 108.207 301.101C105.223 299.173 100.699 298.204 100.699 299.493C100.699 300.221 101.149 301.094 101.699 301.434C102.249 301.774 102.699 302.748 102.699 303.599C102.699 305.442 108.441 312.934 109.852 312.934C110.394 312.934 112.8 314.284 115.198 315.934C117.973 317.844 120.81 318.934 123.005 318.934C124.9 318.934 127.011 319.609 127.696 320.434C129.011 322.019 131.696 322.489 131.696 321.134C131.696 320.694 131.134 319.773 130.446 319.087C129.571 318.213 129.046 312.085 128.696 298.637C128.196 279.434 128.196 279.434 125.196 279.43C123.547 279.428 121.724 279.119 121.145 278.743C115.405 275.017 99.6996 272.712 99.6996 275.596ZM141.992 280.654C138.811 281.051 136.85 283.758 138.183 285.914C138.522 286.463 138.05 288.492 137.134 290.422C136.018 292.774 135.691 295.006 136.144 297.183C136.516 298.971 137.129 303.379 137.508 306.979C138.234 313.899 140.412 318.392 143.516 319.377C145.412 319.979 147.694 323.84 147.694 326.446C147.694 330.157 157.203 330.79 162.041 327.402C163.194 326.595 164.916 325.934 165.869 325.934C168.308 325.934 187.803 315.717 188.439 314.106C189.594 311.176 185.981 309.33 182.784 311.219C173.878 316.48 170.809 308.13 178.786 300.341C185.473 293.81 184.589 292.934 171.313 292.934C158.605 292.934 157.333 292.352 157.874 286.789C158.258 282.834 159.995 282.177 170.441 282.034C174.54 281.977 177.69 281.5 177.69 280.934C177.69 279.969 149.26 279.746 141.992 280.654ZM79.7021 300.931C78.8772 301.415 75.9526 302.851 73.2029 304.122C63.1232 308.783 45.7063 324.102 45.7063 328.307C45.7063 329.542 45.0454 331.425 44.2385 332.493C42.1658 335.233 42.1418 347.503 44.2065 348.296C45.3954 348.752 45.7063 347.985 45.7063 344.594C45.7063 339.954 47.7041 336.197 49.5608 337.345C51.4876 338.535 53.9103 344.043 53.3874 346.043C52.8334 348.161 54.7112 354.933 57.0999 359.434C57.9758 361.084 58.6977 363.559 58.7037 364.934C58.7177 368.177 63.5861 374.487 63.7191 371.434C64.194 360.487 65.6938 347.544 66.5897 346.648C67.2026 346.035 67.7036 344.88 67.7036 344.08C67.7036 341.861 72.631 331.934 73.7318 331.934C74.2658 331.934 74.7027 331.07 74.7027 330.014C74.7027 325.58 86.4023 315.934 91.7806 315.934C97.046 315.934 97.7899 314.959 95.1682 311.493C94.3613 310.425 93.7004 308.738 93.7004 307.743C93.7004 306.748 92.9774 305.934 92.0945 305.934C91.2116 305.934 88.784 304.584 86.7012 302.934C82.6617 299.734 82.0448 299.558 79.7021 300.931ZM260.878 302.16C259.797 303.428 252.372 307.395 245.649 310.297C237.514 313.807 237.392 314.116 237.39 331.177C237.389 343.436 237.711 347.023 239.029 349.434C239.931 351.084 240.672 353.225 240.676 354.193C240.679 355.16 242.032 357.815 243.682 360.093C245.331 362.37 246.691 364.729 246.703 365.334C246.746 367.464 250.534 371.475 251.52 370.434C252.041 369.884 252.737 361.784 253.069 352.434C253.401 343.084 254.103 333.634 254.628 331.434C255.154 329.234 255.89 323.937 256.263 319.662C256.637 315.387 257.294 311.672 257.725 311.406C258.871 310.698 262.99 301.912 262.436 301.358C262.176 301.098 261.475 301.459 260.878 302.16ZM225.184 316.245C221.635 318.654 213.35 321.16 206.799 321.805C200.413 322.434 200.413 322.434 203.273 325.684C204.844 327.471 206.555 328.934 207.074 328.934C207.592 328.934 210.778 331.522 214.153 334.684C227.711 347.385 227.145 347.218 227.475 338.616C228.126 321.651 227.417 314.729 225.184 316.245ZM104.307 324.759C103.971 325.302 101.335 326.07 98.4488 326.465C85.3454 328.257 76.4105 339.843 74.2418 357.854C73.4459 364.462 76.2645 363.523 77.3363 356.823C77.6743 354.705 78.5702 352.458 79.3271 351.83C80.083 351.203 80.702 350.08 80.702 349.335C80.702 344.616 98.3978 332.016 105.801 331.464C111.309 331.053 114.26 328.751 111.949 326.667C109.692 324.634 105.094 323.486 104.307 324.759ZM184.689 329.434C184.004 330.259 182.776 330.934 181.96 330.934C181.144 330.934 179.574 332.083 178.47 333.487C177.366 334.891 176.25 335.827 175.991 335.568C173.938 333.515 166.691 340.254 166.691 344.216C166.691 345.026 166.016 346.249 165.191 346.934C164.366 347.619 163.692 348.969 163.692 349.934C163.692 350.899 163.017 352.249 162.192 352.934C161.367 353.619 160.676 355.361 160.657 356.806C160.637 358.252 159.978 360.559 159.192 361.934C158.406 363.309 157.744 366.009 157.721 367.934C157.698 369.859 157.024 372.692 156.223 374.228C154.864 376.834 154.965 377.392 157.728 382.501C159.358 385.514 160.692 388.783 160.692 389.765C160.692 390.748 161.353 392.425 162.16 393.493C162.968 394.56 163.643 396.41 163.66 397.603C163.678 398.796 164.317 401.046 165.08 402.603C167.394 407.319 168.857 412.127 169.898 418.434C170.443 421.734 171.242 424.884 171.674 425.434C172.106 425.984 172.754 428.009 173.114 429.934C176.765 449.46 178.982 455.026 182.802 454.261C186.054 453.611 193.943 460.828 195.123 465.533C196.558 471.251 190.523 478.769 185.816 477.128C181.848 475.745 180.386 477.057 178.223 483.934C177.272 486.959 175.863 490.708 175.092 492.265C174.321 493.822 173.69 496.605 173.69 498.45C173.69 500.295 173.171 503.071 172.538 504.619C171.905 506.167 171.051 509.684 170.64 512.434C170.23 515.184 169.547 518.54 169.122 519.891C168.35 522.348 168.35 522.348 171.155 520.141C178.122 514.66 184.689 520.373 184.689 531.915C184.689 548.038 169.608 551.077 167.222 535.434C166.315 529.489 165.445 530.94 163.615 541.454C162.994 545.023 162.082 548.193 161.588 548.498C161.095 548.803 160.689 550.713 160.686 552.743C160.682 554.773 160.007 557.723 159.186 559.298C158.364 560.874 157.692 563.988 157.692 566.22C157.692 568.451 157.008 571.033 156.172 571.957C155.336 572.881 154.232 576.517 153.72 580.036C153.208 583.555 152.139 589.134 151.346 592.434C150.552 595.734 149.436 600.459 148.865 602.934C148.295 605.409 147.264 609.684 146.576 612.434C145.887 615.184 145.07 621.53 144.759 626.535C144.434 631.774 143.638 636.305 142.883 637.211C139.278 641.542 141.721 646.966 149.028 650.853C152.788 652.852 156.298 655.263 156.827 656.211C157.357 657.159 158.332 657.946 158.992 657.96C159.652 657.974 162.646 659.549 165.645 661.46C168.644 663.371 171.907 664.934 172.894 664.934C173.882 664.934 174.69 665.34 174.69 665.835C174.69 667.078 180.537 670.416 185.27 671.876C189.287 673.115 191.147 673.884 200.687 678.246C203.712 679.629 208.313 681.051 210.913 681.405C213.511 681.76 215.879 682.438 216.173 682.914C216.466 683.389 219.739 684.738 223.445 685.91C227.151 687.083 230.955 688.462 231.899 688.975C232.843 689.489 235.318 690.331 237.398 690.848C239.479 691.365 243.657 692.681 246.681 693.774C256.111 697.181 267.113 700.415 268.674 700.241C269.498 700.149 271.523 700.694 273.174 701.453C277.154 703.28 287.786 705.934 291.125 705.934C292.586 705.934 297.696 707.026 302.478 708.36C315.394 711.964 326.618 713.323 336.574 712.488C341.301 712.092 350.67 711.456 357.393 711.075C371.194 710.293 372.651 709.617 370.375 705.053C369.538 703.375 368.54 700.15 368.158 697.886C367.776 695.623 366.836 692.57 366.07 691.102C365.305 689.635 364.676 687.673 364.672 686.743C364.669 685.813 364.256 684.798 363.754 684.488C363.252 684.177 362.542 682.152 362.176 679.986C361.81 677.821 360.871 675.518 360.089 674.869C359.307 674.22 358.667 672.671 358.667 671.426C358.667 670.181 357.995 667.874 357.173 666.298C356.353 664.723 355.678 662.283 355.674 660.875C355.671 659.468 355.007 657.443 354.2 656.375C353.392 655.308 352.717 653.174 352.7 651.634C352.682 650.095 352.032 647.604 351.254 646.1C350.476 644.596 349.507 641.592 349.1 639.425C348.695 637.257 347.756 634.878 347.016 634.138C346.275 633.397 345.669 632.142 345.669 631.349C345.669 630.556 345.235 629.125 344.704 628.17C343.437 625.89 339.67 617.186 339.67 616.539C339.67 616.261 338.32 614.034 336.67 611.589C335.02 609.144 333.67 606.599 333.67 605.933C333.67 605.267 332.392 603.082 330.831 601.078C329.269 599.074 326.906 595.21 325.581 592.492C324.256 589.774 321.935 586.186 320.422 584.519C318.909 582.852 317.672 580.715 317.672 579.77C317.672 578.825 317.234 577.782 316.701 577.451C316.166 577.121 313.866 572.932 311.59 568.142C309.314 563.353 307.049 558.759 306.557 557.934C306.064 557.109 305.407 555.759 305.095 554.934C304.784 554.109 304.131 552.759 303.643 551.934C302.105 549.33 297.675 540.083 297.675 539.476C297.675 539.156 296.619 537.216 295.329 535.164C294.038 533.113 292.429 529.747 291.752 527.684C291.075 525.622 290.106 523.934 289.598 523.934C289.091 523.934 288.676 523.219 288.676 522.346C288.676 521.472 287.287 517.76 285.59 514.096C283.894 510.432 281.586 504.734 280.462 501.434C279.339 498.134 277.802 494.724 277.048 493.855C276.294 492.987 275.678 491.681 275.678 490.952C275.678 489.601 270.434 477.651 268.649 474.934C267.658 473.425 266.673 471.361 263.885 464.959C263.052 463.047 261.766 460.878 261.025 460.137C260.286 459.397 259.68 458.203 259.68 457.485C259.68 456.767 259.005 455.619 258.18 454.934C256.896 453.869 256.68 454.183 256.68 457.112C256.68 466.506 241.023 464.483 240.553 455.028C240.004 443.988 241.894 437.934 245.89 437.934C247.079 437.934 249.155 438.947 250.504 440.184C252.233 441.771 253.088 442.06 253.406 441.166C253.655 440.469 254.583 439.173 255.469 438.287C256.95 436.806 256.762 436.425 253.135 433.555C248.059 429.539 243.682 424.806 243.682 423.334C243.682 422.699 243.007 421.619 242.182 420.934C240.074 419.185 240.043 403.709 242.143 401.966C242.947 401.299 243.913 399.782 244.288 398.594C244.665 397.406 246.044 394.738 247.352 392.665C249.929 388.582 249.843 388.133 245.323 382.083C242.82 378.733 242.82 378.733 243.001 385.083C243.171 391.037 243.036 391.455 240.85 391.764C237.918 392.18 234.683 389.339 234.683 386.35C234.683 385.1 234.067 383.461 233.315 382.709C232.562 381.956 231.632 380.237 231.246 378.887C230.408 375.954 227.437 369.637 226.563 368.934C226.221 368.659 223.85 364.557 221.294 359.818C217.824 353.382 215.09 349.847 210.489 345.844C203.559 339.816 201.79 338.223 195.315 332.184C190.528 327.72 186.892 326.779 184.689 329.434ZM136.018 334.535C135.68 335.415 135.83 336.428 136.352 336.785C136.874 337.142 138.326 339.122 139.579 341.184C140.832 343.247 142.066 344.934 142.321 344.934C143.221 344.934 141.373 337.404 139.929 335.184C138.205 332.535 136.87 332.314 136.018 334.535ZM108.258 342.446C107.19 343.264 105.108 343.934 103.63 343.934C102.153 343.934 100.42 344.565 99.7806 345.336C99.1416 346.107 97.6238 347.006 96.409 347.335C93.9973 347.987 86.7102 357.394 86.6862 359.886C86.6782 360.738 86.0223 363.234 85.2304 365.434C82.5817 372.787 83.1457 375.154 88.834 380.558C91.6566 383.24 94.8872 386.447 96.013 387.684C98.7487 390.69 99.9216 390.557 108.641 386.248C126.882 377.233 137.025 361.436 130.024 352.941C120.552 341.447 113.804 338.193 108.258 342.446ZM153.763 344.184C153.822 346.908 153.973 347.11 154.693 345.434C155.88 342.671 155.88 340.934 154.693 340.934C154.143 340.934 153.725 342.397 153.763 344.184ZM73.4718 367.89C72.7809 370.351 73.1939 371.776 74.2837 370.687C74.6027 370.367 74.7067 369.055 74.5127 367.77C74.1618 365.434 74.1617 365.434 73.4718 367.89ZM225.439 373.184C225.989 373.872 226.773 375.559 227.18 376.934C227.587 378.309 228.608 380.218 229.449 381.175C232.279 384.4 231.741 397.616 228.683 399.967C219.465 407.056 207.83 390.04 215.644 380.896C217.272 378.992 218.622 376.497 218.644 375.351C218.713 371.836 223.212 370.401 225.439 373.184ZM239.768 373.934C239.737 374.759 240.149 376.109 240.682 376.934C241.863 378.762 241.863 377.183 240.682 374.434C240.115 373.115 239.804 372.945 239.768 373.934ZM141.225 384.016C139.737 386.446 137.659 389.653 136.607 391.144C135.555 392.634 134.681 394.434 134.663 395.144C134.646 395.853 133.971 397.308 133.163 398.375C132.357 399.443 131.696 401.269 131.696 402.434C131.696 403.599 132.357 405.425 133.163 406.493C133.971 407.56 134.646 409.571 134.663 410.961C134.681 412.352 135.336 414.405 136.12 415.524C136.904 416.643 138.474 420.201 139.609 423.431C140.743 426.66 142.051 429.557 142.514 429.868C142.976 430.179 144.444 432.684 145.775 435.434C147.105 438.184 148.717 440.884 149.356 441.434C149.996 441.984 151.35 443.784 152.365 445.434C154.182 448.386 156.009 450.62 162.442 457.749C164.23 459.73 165.691 461.712 165.691 462.153C165.691 464.184 170.05 471.934 171.193 471.934C173.265 471.934 174.016 466.952 172.24 464.988C171.388 464.047 170.691 462.09 170.691 460.64C170.691 459.19 170.066 456.076 169.302 453.719C168.537 451.362 167.659 447.389 167.349 444.889C167.039 442.39 166.092 439.015 165.244 437.389C164.397 435.764 163.702 433.169 163.698 431.622C163.695 430.075 163.056 426.7 162.279 424.122C156.022 403.353 154.224 397.836 152.357 393.684C151.182 391.072 149.926 388.934 149.565 388.934C149.205 388.934 148.638 387.921 148.305 386.684C146.561 380.203 144.124 379.284 141.225 384.016ZM173.578 382.824C179.247 388.367 178.718 400.979 172.82 400.898C167.726 400.828 164.381 396.795 163.901 390.142C163.17 380.04 167.433 376.817 173.578 382.824ZM319.672 387.384C319.672 388.182 320.247 389.194 320.949 389.634C325.226 392.313 334.805 409.798 336.264 417.589C336.66 419.704 337.588 422.882 338.327 424.652C339.066 426.422 339.67 431.233 339.67 435.343C339.67 439.453 340.12 443.094 340.669 443.434C341.219 443.774 341.669 445.375 341.669 446.993C341.669 450.51 341.598 450.498 346.247 447.755C349.939 445.576 349.939 445.576 349.396 435.719C349.097 430.297 348.404 425.315 347.853 424.648C347.303 423.98 345.913 420.752 344.763 417.475C343.614 414.198 341.997 411.138 341.171 410.675C340.346 410.213 339.67 408.748 339.67 407.419C339.67 406.087 338.835 404.557 337.807 404.007C336.783 403.459 335.354 401.531 334.633 399.722C333.912 397.914 332.539 395.664 331.582 394.724C330.624 393.783 329.24 392.186 328.506 391.174C325.457 386.971 319.672 384.489 319.672 387.384ZM121.361 391.881C118.559 394.738 118.55 394.785 120.611 395.888C122.305 396.794 122.697 396.716 122.697 395.469C122.697 394.625 123.075 393.934 123.536 393.934C123.998 393.934 124.888 392.809 125.514 391.434C127.111 387.929 125.015 388.154 121.361 391.881ZM256.215 397.774C255.854 399.42 254.981 400.988 254.276 401.259C247.458 403.875 250.149 420.342 257.956 423.776C258.384 423.965 261.309 426.323 264.456 429.018C267.604 431.712 270.578 433.92 271.067 433.925C271.557 433.93 274.058 435.227 276.626 436.808C281.296 439.681 281.296 439.681 290.001 435.382C297.886 431.488 299.011 431.187 301.94 432.195C305.325 433.359 310.309 433.404 322.422 432.382C330.18 431.727 332.322 428.023 328.139 422.493C327.332 421.425 326.671 419.378 326.671 417.943C326.671 416.508 326.203 414.866 325.631 414.294C325.059 413.722 323.526 411.27 322.222 408.844C319.373 403.545 313.809 402.92 310.34 407.509C308.012 410.589 306.22 410.571 303.083 407.434C301.708 406.059 300.042 404.928 299.38 404.921C298.717 404.914 295.524 403.564 292.285 401.921C289.045 400.278 285.402 398.934 284.191 398.934C282.979 398.934 281.263 398.134 280.378 397.156C277.115 393.55 257.03 394.064 256.215 397.774ZM398.662 437.056C395.088 438.75 391.488 440.519 390.663 440.987C384.979 444.212 366.684 452.94 365.553 452.966C364.791 452.983 363.293 453.658 362.226 454.466C361.158 455.273 359.239 455.934 357.961 455.934C356.683 455.934 353.246 457.284 350.322 458.934C337.802 466.001 322.802 460.53 316.97 446.77C315.212 442.617 301.926 442.522 293.612 446.602C283.674 451.479 277.933 451.129 269.151 445.11C260.978 439.508 259.033 441.818 265.811 449.075C267.388 450.764 268.678 452.918 268.678 453.862C268.678 454.805 270.015 457.345 271.65 459.506C273.285 461.666 274.635 463.835 274.65 464.324C274.677 465.194 276.003 468.22 281.707 480.434C283.249 483.734 285.249 488.234 286.154 490.434C287.058 492.634 288.446 495.708 289.237 497.265C290.029 498.822 290.691 500.622 290.71 501.265C290.729 501.908 291.613 504.234 292.675 506.434C293.738 508.634 294.622 511.166 294.641 512.062C294.66 512.957 295.35 514.249 296.175 514.934C297 515.619 297.675 516.708 297.675 517.354C297.675 518 299.325 521.658 301.34 525.482C305.264 532.925 308.996 540.51 313.866 550.934C315.537 554.509 317.288 558.109 317.76 558.934C318.232 559.759 320.451 564.147 322.692 568.684C324.932 573.221 327.194 576.934 327.718 576.934C328.242 576.934 328.671 577.544 328.671 578.29C328.671 579.036 330.246 581.709 332.171 584.23C334.095 586.751 335.67 589.204 335.67 589.68C335.67 590.156 336.826 592.095 338.239 593.99C339.653 595.884 341.452 598.784 342.238 600.434C343.025 602.084 344.693 605.234 345.945 607.434C347.197 609.634 349.055 613.684 350.075 616.434C351.095 619.184 352.77 622.837 353.798 624.552C354.827 626.267 355.668 628.578 355.668 629.688C355.668 630.797 356.34 632.994 357.161 634.57C357.982 636.145 358.657 638.155 358.661 639.037C358.664 639.919 359.835 643.744 361.262 647.537C362.689 651.33 364.202 656.113 364.623 658.166C365.045 660.218 365.862 662.468 366.439 663.166C367.015 663.863 367.803 666.126 368.19 668.195C368.576 670.264 369.279 672.195 369.75 672.486C370.222 672.778 370.909 675.286 371.277 678.06C371.649 680.863 372.551 683.336 373.305 683.626C374.053 683.913 374.679 685.112 374.697 686.291C374.714 687.47 375.389 689.308 376.197 690.375C377.004 691.443 377.679 693.693 377.697 695.375C377.714 697.058 378.389 699.308 379.197 700.375C380.004 701.443 380.664 703.58 380.664 705.125C380.664 708.017 384.678 709.338 386.164 706.934C386.504 706.384 387.704 705.934 388.829 705.934C390.669 705.934 398.056 702.87 407.614 698.142C409.514 697.203 412.214 695.486 413.613 694.327C415.014 693.168 418.185 691.325 420.659 690.231C431.619 685.388 453.763 666.2 458.556 657.392C459.741 655.215 462.938 650.284 465.664 646.434C468.389 642.584 470.626 639.019 470.635 638.513C470.645 638.006 471.283 636.881 472.052 636.013C473.196 634.723 477.362 627.374 481.735 618.934C495.17 593.004 499.68 581.787 497.687 579.253C496.566 577.829 495.65 576.05 495.65 575.299C495.65 574.548 495.22 573.934 494.695 573.934C494.17 573.934 493.431 572.247 493.053 570.184C492.676 568.122 491.756 565.546 491.009 564.461C490.262 563.377 489.651 561.744 489.651 560.834C489.651 559.924 488.976 558.619 488.151 557.934C487.326 557.249 486.651 555.801 486.651 554.716C486.651 553.631 486.044 551.548 485.303 550.088C484.561 548.628 483.249 545.859 482.384 543.934C479.074 536.56 469.405 517.299 467.576 514.434C466.522 512.784 465.165 510.197 464.559 508.684C463.954 507.171 463.083 505.934 462.624 505.934C462.164 505.934 461.474 504.942 461.089 503.731C460.705 502.519 459.849 500.985 459.186 500.322C458.523 499.659 456.446 496.713 454.57 493.776C452.693 490.838 449.945 487.402 448.461 486.14C446.977 484.878 445.46 482.891 445.09 481.725C444.72 480.558 443.121 478.513 441.537 477.18C439.953 475.847 438.657 474.317 438.657 473.781C438.657 473.244 437.307 471.669 435.658 470.281C434.008 468.892 432.658 467.135 432.658 466.375C432.658 465.615 431.313 463.999 429.668 462.783C428.025 461.568 426.422 459.762 426.107 458.77C425.792 457.779 423.705 455.064 421.469 452.736C419.234 450.409 416.224 446.692 414.782 444.476C412.485 440.945 406.229 433.897 405.444 433.955C405.289 433.966 402.237 435.362 398.662 437.056ZM327.152 443.964C326.764 444.593 326.898 445.561 327.452 446.115C328.873 447.536 332.171 446.701 332.171 444.92C332.171 443.122 328.147 442.356 327.152 443.964ZM157.109 472.289C156.73 473.278 155.389 474.479 154.128 474.959C152.868 475.438 151.097 477.388 150.194 479.291C149.29 481.195 147.684 483.538 146.623 484.498C145.562 485.458 144.694 486.866 144.694 487.625C144.694 488.385 142.396 493.828 139.587 499.72C136.778 505.613 133.914 511.784 133.222 513.434C130.712 519.422 128.941 523.523 126.957 527.934C125.845 530.409 124.152 534.684 123.194 537.434C120.895 544.037 118.912 548.839 117.143 552.088C116.349 553.548 115.684 555.798 115.666 557.088C115.649 558.378 114.974 560.308 114.166 561.375C113.359 562.443 112.695 564.018 112.692 564.875C112.688 565.733 112.013 567.723 111.192 569.298C110.37 570.874 109.695 573.574 109.692 575.298C109.688 577.023 108.978 579.784 108.114 581.434C103.651 589.95 105.839 608.703 112.432 618.453C122.474 633.302 132.695 642.816 132.695 637.313C132.695 636.486 133.872 633.322 135.311 630.28C137.565 625.515 137.954 623.274 138.116 614.092C138.254 606.287 138.759 602.577 140 600.234C140.931 598.473 141.694 595.899 141.694 594.512C141.694 590.903 145.757 572.616 146.81 571.484C147.296 570.961 147.694 569.252 147.694 567.684C147.694 566.117 148.315 563.62 149.076 562.134C149.836 560.649 150.792 556.959 151.2 553.934C151.608 550.909 152.561 547.546 153.317 546.461C154.074 545.377 154.693 542.425 154.693 539.903C154.693 537.38 155.354 534.443 156.161 533.375C156.968 532.308 157.643 529.383 157.66 526.875C157.678 524.368 158.353 521.443 159.16 520.375C159.968 519.308 160.643 517.182 160.66 515.652C160.678 514.122 161.367 511.254 162.192 509.28C163.017 507.305 163.695 504.057 163.698 502.062C163.702 500.067 164.33 497.233 165.095 495.766C167.711 490.753 168.094 485.22 165.906 484.049C164.842 483.48 163.021 480.858 161.858 478.224C158.675 471.012 157.948 470.103 157.109 472.289ZM277.686 509.595C279.426 511.059 281.28 513.197 281.806 514.345C282.332 515.494 283.412 517.559 284.205 518.934C286.789 523.415 286.131 532.431 283.042 534.861C275.272 540.974 266.459 533.882 266.554 521.591C266.655 508.443 270.892 503.877 277.686 509.595ZM520.259 646.502C519.844 647.585 520.505 649 522.132 650.508C525.218 653.368 525.999 672.763 523.179 676.493C522.371 677.56 521.696 679.616 521.679 681.062C521.661 682.507 520.972 684.249 520.147 684.934C519.322 685.619 518.647 687.188 518.647 688.422C518.647 689.655 517.747 691.808 516.647 693.207C515.548 694.605 514.648 696.141 514.648 696.619C514.648 697.098 513.861 698.221 512.898 699.115C502.866 708.433 502.049 710.881 508.955 710.919C521.802 710.989 536.645 723.991 536.645 735.174C536.645 740.139 563.834 760.225 568.257 758.528C570.257 757.76 570.237 723.815 568.232 717.719C567.457 715.362 566.543 711.859 566.2 709.934C564.941 702.857 561.171 691.613 558.489 686.934C558.016 686.109 557.32 684.759 556.942 683.934C556.563 683.109 555.667 681.839 554.949 681.113C554.231 680.386 553.643 679.171 553.643 678.412C553.643 677.654 553.064 676.674 552.356 676.234C551.647 675.794 549.157 673.137 546.822 670.329C544.486 667.521 540.453 663.714 537.861 661.869C535.267 660.024 532.976 658.102 532.77 657.599C532.564 657.096 531.643 655.932 530.725 655.013C529.806 654.094 528.133 651.562 527.008 649.388C524.808 645.136 521.351 643.658 520.259 646.502ZM470.166 658.582C467.352 662.041 465.656 664.598 464.029 667.833C463.642 668.603 459.272 673.226 454.317 678.106C445.308 686.98 445.308 686.98 448.626 690.403C454.043 695.993 463.051 698.23 480.152 698.23C501.483 698.23 505.174 696.17 510.625 681.218C511.859 677.833 513.494 674.823 514.258 674.53C515.259 674.146 515.648 672.062 515.648 667.082C515.648 658.965 515.222 658.657 506.037 660.151C499.883 661.151 487.828 660.529 484.872 659.058C483.158 658.205 477.503 656.146 474.653 655.337C473.794 655.093 471.877 656.479 470.166 658.582ZM171.148 677.864C176.06 685.815 172.571 702.851 166.007 702.966C161.416 703.046 160.231 705.448 162.033 711.026C162.961 713.9 163.692 719.397 163.692 723.502C163.692 727.538 164.149 731.874 164.706 733.137C165.264 734.4 166.366 738.809 167.154 742.934C170.234 759.049 171.16 762.337 173.251 764.594C174.444 765.881 176.098 766.934 176.927 766.934C178.766 766.934 186.689 758.529 186.689 756.579C186.689 755.809 187.364 754.619 188.189 753.934C189.013 753.249 189.688 751.674 189.688 750.434C189.688 749.194 190.363 747.619 191.188 746.934C192.013 746.249 192.688 744.8 192.688 743.713C192.688 742.626 193.319 740.318 194.089 738.585C199.357 726.736 201.654 710.575 200.152 695.919C199.419 688.775 197.397 686.897 188.688 685.272C186.764 684.913 184.964 684.299 184.689 683.908C183.143 681.706 169.858 675.777 171.148 677.864ZM490.401 709.64C491.638 709.878 493.663 709.878 494.9 709.64C496.137 709.401 495.125 709.206 492.651 709.206C490.176 709.206 489.164 709.401 490.401 709.64Z"
  />
</svg>
