<svg
  width="585"
  height="780"
  viewBox="0 0 585 780"
  fill="none"
  xmlns="http://www.w3.org/2000/svg"
>
  <path
    fill-rule="evenodd"
    clip-rule="evenodd"
    fill="black"
    d="M230.121 2.99174C237.977 6.91974 259.525 33.9738 259.525 39.9108C259.525 40.6768 260.2 41.8638 261.025 42.5488C261.85 43.2338 262.525 44.5838 262.525 45.5488C262.525 46.5138 263.2 47.8638 264.025 48.5488C264.85 49.2338 265.525 50.6868 265.525 51.7798C265.525 54.0738 269.682 63.5488 270.689 63.5488C271.061 63.5488 271.678 65.0118 272.06 66.7988C272.442 68.5858 273.094 70.4988 273.509 71.0488C273.923 71.5988 274.559 73.6907 274.92 75.6987C275.281 77.7057 276.239 79.8978 277.049 80.5708C277.86 81.2438 278.539 83.4257 278.558 85.4207C278.578 87.4167 279.237 90.1737 280.023 91.5487C280.809 92.9237 281.482 95.6237 281.519 97.5487C281.556 99.4737 282.247 101.923 283.054 102.99C283.861 104.058 284.522 105.915 284.522 107.118C284.522 108.321 285.138 110.822 285.89 112.677C286.643 114.532 287.554 119.398 287.915 123.49C288.713 132.539 288.347 132.164 294.435 130.172C297.18 129.274 303.286 128.36 308.004 128.14C312.746 127.919 317.247 127.189 318.069 126.507C319.27 125.51 319.936 125.617 321.537 127.066C324.81 130.029 324.097 134.989 319.268 142.85C316.931 146.654 314.344 151.015 313.519 152.541C311.253 156.733 299.242 172.549 298.324 172.549C297.882 172.549 297.521 173.052 297.521 173.667C297.521 174.282 296.171 176.323 294.521 178.202C291.04 182.167 290.414 189.889 292.992 197.049C294.038 199.952 294.445 205.988 294.477 219.049C294.521 237.049 294.521 237.049 300.77 238.922C306.631 240.678 308.711 241.491 317.518 245.469C321.408 247.225 330.659 256.021 334.516 261.628C340.968 271.009 342.357 273.388 342.674 275.598C342.916 277.285 343.886 278.185 346.014 278.697C351.955 280.127 359.07 282.914 362.01 284.961C363.659 286.11 367.259 288.186 370.009 289.575C376.102 292.651 379.909 295.07 384.51 298.79C386.435 300.346 388.553 302.053 389.217 302.584C389.881 303.115 390.883 303.549 391.443 303.549C392.002 303.549 393.934 305.218 395.735 307.257C397.535 309.297 406.32 318.237 415.256 327.123C424.193 336.01 431.504 343.715 431.504 344.246C431.504 344.777 432.53 345.76 433.782 346.431C438.975 349.21 443.629 372.498 439.503 375.049C438.953 375.389 438.492 378.453 438.479 381.858C438.451 389.257 436.259 398.558 433.367 403.549C432.889 404.374 432.057 406.073 431.517 407.325C430.976 408.577 428.266 412.402 425.493 415.825C422.722 419.248 420.016 422.593 419.48 423.257C417.65 425.526 419.728 429.842 425.259 435.256C426.5 436.47 428.659 439.616 430.058 442.246C431.456 444.876 433.704 448.267 435.051 449.78C436.4 451.293 437.503 452.879 437.503 453.304C437.503 453.728 439.078 456.414 441.003 459.273C442.927 462.131 444.502 464.783 444.502 465.165C444.502 465.547 445.551 467.253 446.833 468.955C448.116 470.657 450.359 474.597 451.82 477.712C453.281 480.826 454.82 483.526 455.238 483.712C456.582 484.307 460.06 489.842 463.934 497.549C466.007 501.674 469.67 507.929 472.075 511.45C474.481 514.971 477.224 519.921 478.172 522.45C479.12 524.979 480.165 527.274 480.495 527.549C480.824 527.824 482.391 530.292 483.975 533.034C485.56 535.776 488.801 540.098 491.176 542.638C493.552 545.178 495.496 547.497 495.496 547.791C495.496 548.598 503.974 556.896 506.035 558.109C508.595 559.614 509.212 569.74 507.169 576.729C506.314 579.655 505.368 584.217 505.065 586.866C504.763 589.515 503.835 592.653 503.005 593.838C502.174 595.024 501.495 597.608 501.495 599.58C501.495 601.553 500.834 604.04 500.028 605.108C499.22 606.175 498.545 607.994 498.528 609.149C498.51 610.304 497.146 613.113 495.496 615.39C493.846 617.668 492.496 620.215 492.496 621.05C492.496 621.885 491.596 623.339 490.496 624.281C489.396 625.223 488.497 626.513 488.497 627.149C488.497 627.784 487.822 628.864 486.997 629.549C483.354 632.573 487.245 642.17 493.272 645.028C495.32 645.999 498.27 647.414 499.826 648.171C504.66 650.524 508.23 649.959 509.985 646.566C510.834 644.925 512.939 642.852 514.666 641.96C516.392 641.067 518.72 639.484 519.837 638.443C528.027 630.812 539.596 639.016 545.073 656.34C546.337 660.338 547.481 662.01 549.751 663.185C552.103 664.401 573.759 685.497 583.268 695.835C585.099 697.826 585.219 707.309 583.455 710.605C582.91 711.624 582.183 715.29 581.841 718.753C581.498 722.216 580.654 725.724 579.966 726.549C579.277 727.374 578.496 729.624 578.229 731.549C577.532 736.564 574.247 748.958 573.457 749.549C573.09 749.824 572.502 751.89 572.151 754.14C570.234 766.43 558.85 779.549 550.103 779.549C546.155 779.549 539.242 773.441 536.383 767.43C530.926 755.952 530.491 754.595 530.491 749.01C530.491 745.81 530.058 741.809 529.527 740.12C528.996 738.431 528.312 735.812 528.008 734.299C527.563 732.091 526.906 731.549 524.674 731.549C523.144 731.549 521.389 731.045 520.773 730.429C520.158 729.814 517.93 728.968 515.823 728.55C513.718 728.132 510.382 727.087 508.412 726.226C505.222 724.833 504.515 724.825 501.957 726.153C491.401 731.63 480.951 726.34 479.773 714.924C479.275 710.101 478.932 709.455 476.606 708.955C475.172 708.646 473.099 708.007 471.999 707.534C470.899 707.061 468.874 706.356 467.499 705.966C460.403 703.953 448.98 693.363 447.906 687.799C446.99 683.05 444.416 683.622 437.782 690.049C434.659 693.074 431.745 695.549 431.304 695.549C430.864 695.549 429.6 696.453 428.496 697.557C425.463 700.591 414.429 708.549 413.256 708.549C412.006 708.549 403.213 712.776 402.496 713.721C401.768 714.68 393.741 717.547 388.951 718.559C386.719 719.031 383.795 719.872 382.452 720.427C381.109 720.983 376.527 721.726 372.268 722.078C368.01 722.43 364.272 723.13 363.961 723.634C363.249 724.786 321.824 724.854 321.114 723.704C320.827 723.24 314.237 722.588 306.47 722.255C298.704 721.923 291.825 721.218 291.185 720.688C290.545 720.158 286.647 719.248 282.523 718.665C267.816 716.588 257.628 714.675 255.658 713.62C254.558 713.031 251.356 712.549 248.543 712.549C245.73 712.549 242.214 711.935 240.728 711.185C239.243 710.435 235.163 709.573 231.663 709.269C228.162 708.966 224.811 708.23 224.214 707.633C220.6 704.018 217.531 709.956 217.531 720.565C217.531 723.892 216.856 728.229 216.031 730.203C215.206 732.178 214.531 734.666 214.531 735.733C214.531 738.59 211.721 747.502 209.483 751.747C208.41 753.781 207.532 755.955 207.532 756.578C207.532 758.284 200.459 768.734 197.568 771.298C191.093 777.042 178.119 769.811 171.638 756.846C170.32 754.208 168.832 751.227 168.333 750.223C167.833 749.218 167.152 746.091 166.818 743.273C166.484 740.455 165.612 737.002 164.88 735.599C164.135 734.171 163.547 729.89 163.543 725.872C163.537 719.25 163.326 718.528 160.81 716.548C153.287 710.63 155.173 696.77 164.051 692.725C166.268 691.715 166.537 690.986 166.537 685.999C166.537 679.772 166.109 679.131 159.288 675.139C156.675 673.61 154.538 671.952 154.538 671.454C154.538 670.956 153.933 670.549 153.194 670.549C152.454 670.549 150.992 669.585 149.944 668.406C148.896 667.227 146.866 665.538 145.431 664.652C143.995 663.766 140.846 661.345 138.432 659.272C136.017 657.199 131.791 653.824 129.042 651.772C123.805 647.864 116.593 640.818 112.823 635.928C111.603 634.345 109.691 631.853 108.574 630.391C107.458 628.93 106.545 627.242 106.545 626.641C106.545 626.041 106.124 625.549 105.612 625.549C105.099 625.549 104.416 624.761 104.094 623.799C103.774 622.837 101.901 620.265 99.9353 618.084C96.2158 613.96 94.9018 590.553 98.1594 586.451C98.7713 585.68 99.5722 582.379 99.9392 579.115C100.306 575.851 100.979 572.701 101.435 572.115C101.891 571.529 102.546 569.56 102.891 567.741C103.236 565.922 104.199 563.752 105.031 562.92C105.863 562.087 106.545 560.495 106.545 559.382C106.545 558.269 107.141 556.163 107.87 554.703C108.6 553.243 109.95 550.55 110.87 548.718C111.791 546.886 112.544 544.71 112.544 543.882C112.544 543.055 114.118 539.181 116.043 535.274C117.968 531.366 119.543 527.355 119.543 526.359C119.543 525.364 119.993 524.549 120.543 524.549C121.093 524.549 121.558 523.987 121.577 523.299C121.596 522.612 122.479 520.249 123.542 518.049C124.605 515.849 125.489 513.523 125.508 512.88C125.527 512.237 126.184 510.437 126.968 508.88C129.653 503.546 134.541 492.804 134.541 492.235C134.541 491.044 145.852 467.921 147.716 465.302C149.78 462.401 149.123 458.148 145.823 453.076C145.117 451.992 144.54 450.036 144.54 448.731C144.54 447.426 143.933 445.163 143.192 443.703C142.45 442.243 141.061 439.249 140.105 437.049C139.149 434.849 137.731 431.775 136.954 430.218C136.177 428.661 135.541 426.859 135.541 426.215C135.541 425.57 133.966 422.827 132.041 420.12C130.116 417.412 128.542 414.617 128.542 413.908C128.542 410.98 125.063 410.655 120.187 413.127C117.559 414.459 114.82 415.549 114.099 415.549C113.379 415.549 112.229 416.224 111.544 417.049C110.859 417.874 108.667 418.563 106.673 418.581C104.677 418.598 102.171 419.273 101.104 420.081C96.9418 423.229 86.4179 422.044 82.4934 417.985C79.8617 415.262 78.4578 414.534 76.5481 414.902C72.4456 415.692 68.6665 414.496 67.9446 412.18C67.5786 411.008 66.9876 409.824 66.6306 409.549C65.1958 408.444 58.5505 399.788 58.5505 399.025C58.5505 398.575 57.9424 397.496 57.1994 396.628C55.6666 394.836 53.0511 387.003 51.9983 381.049C51.6093 378.849 50.7865 376.417 50.1716 375.645C47.5649 372.378 48.742 336.486 51.5867 332.476C54.4253 328.475 68.088 315.537 77.1199 308.298C80.3795 305.685 83.7051 302.985 84.51 302.298C86.2888 300.78 89.2775 298.983 92.2961 297.617C95.2968 296.258 95.5211 296.77 87.3391 286.285C75.4336 271.029 66.0006 258.081 61.7522 251.162C61.0383 250 59.5703 247.699 58.4905 246.049C57.4106 244.399 56.2721 242.326 55.9602 241.442C55.4992 240.138 53.2012 239.73 43.7234 239.274C32.5658 238.737 30.0264 238.148 20.9045 233.987C19.1717 233.196 17.3017 232.549 16.7488 232.549C16.1968 232.549 13.8268 230.947 11.4831 228.988C9.13943 227.029 6.00699 224.799 4.52318 224.031C-1.13912 221.103 -0.114532 212.889 6.18968 210.681C8.31641 209.936 13.5962 207.576 17.9216 205.438C22.2471 203.299 26.4235 201.549 27.2014 201.549C27.9803 201.549 28.8762 200.874 29.1921 200.049C29.5091 199.224 30.9841 198.549 32.47 198.549C39.1701 198.549 39.6105 194.064 33.9592 183.395C33.1863 181.935 32.5539 180.074 32.5539 179.259C32.5539 178.444 31.8817 176.489 31.0598 174.913C30.2389 173.338 29.5638 170.901 29.5598 169.499C29.5568 168.096 29.0412 166.436 28.4153 165.81C21.5891 158.983 21.3524 85.9948 28.1326 78.4698C28.9145 77.6018 29.5539 76.1738 29.5539 75.2968C29.5539 69.5658 34.1004 67.5488 47.0178 67.5488C56.7206 67.5488 59.5672 67.8648 60.55 69.0488C62.4278 71.3118 66.2948 70.9038 67.6496 68.2988C68.2936 67.0608 69.5474 65.3227 70.4353 64.4357C71.3232 63.5487 73.8365 60.6918 76.0222 58.0878C78.2069 55.4838 81.4168 52.6098 83.1535 51.7018C88.1979 49.0618 97.7846 44.3938 101.045 42.9888C102.695 42.2788 105.687 40.9888 107.695 40.1228C109.703 39.2568 112.426 38.5488 113.745 38.5488C115.065 38.5488 116.591 38.1008 117.138 37.5538C119.042 35.6498 179.899 35.0777 181.453 36.9507C182.183 37.8297 183.795 38.5488 185.035 38.5488C186.275 38.5488 187.849 39.2238 188.534 40.0488C190.782 42.7568 195.533 41.9837 195.533 38.9097C195.533 37.4577 196.83 34.1627 198.415 31.5867C199.999 29.0107 201.627 25.3618 202.033 23.4757C202.438 21.5907 204.067 18.1137 205.651 15.7487C207.236 13.3837 208.532 11.0557 208.532 10.5757C208.532 10.0967 210.894 7.61274 213.781 5.05674C219.541 -0.0442562 223.139 -0.498259 230.121 2.99174ZM217.635 15.0838C215.928 17.0278 214.531 19.6797 214.531 20.9767C214.531 22.2737 213.898 23.5777 213.125 23.8737C212.352 24.1707 211.423 25.7628 211.061 27.4118C210.699 29.0608 209.756 30.9467 208.968 31.6017C208.178 32.2577 207.532 33.5487 207.532 34.4707C207.532 35.3937 207.117 36.5758 206.61 37.0988C202.831 40.9928 205.41 48.5488 210.518 48.5488C211.367 48.5488 213.302 49.7868 214.82 51.2988C220.798 57.2588 226.525 63.9588 227.047 65.6028C227.349 66.5548 228.368 67.5357 229.312 67.7827C230.256 68.0307 231.694 69.5417 232.506 71.1407C233.318 72.7407 235.801 76.5238 238.021 79.5488C241.731 84.6008 248.23 96.7707 251.105 104.049C251.757 105.699 253.242 109.199 254.408 111.826C255.573 114.453 256.526 117.625 256.526 118.876C256.526 120.126 257.078 121.701 257.753 122.376C258.437 123.06 259.211 127.46 259.503 132.326C260.06 141.615 261.218 142.875 265.604 138.959C266.472 138.183 267.816 137.549 268.592 137.549C275.703 137.549 278.515 134.211 278.519 125.764C278.522 120.364 278.034 116.707 277.119 115.264C276.347 114.046 275.408 111.139 275.032 108.804C274.656 106.47 273.939 104.306 273.437 103.995C272.935 103.685 272.524 102.085 272.524 100.44C272.524 98.7948 271.888 96.2187 271.11 94.7147C270.332 93.2107 269.397 90.1947 269.032 88.0137C268.667 85.8327 267.771 82.6988 267.04 81.0488C266.308 79.3988 264.939 76.0238 263.997 73.5488C258.741 59.7318 252.235 45.0768 250.012 42.0488C248.802 40.3988 246.614 36.6858 245.152 33.7988C243.69 30.9118 242.051 28.5488 241.51 28.5488C240.97 28.5488 240.528 27.9517 240.528 27.2227C240.528 26.4937 239.36 24.8067 237.933 23.4727C236.506 22.1397 234.699 19.8178 233.916 18.3128C233.133 16.8088 231.394 15.3017 230.052 14.9647C228.709 14.6277 227.087 13.7217 226.448 12.9507C224.42 10.5057 220.906 11.3558 217.635 15.0838ZM163.318 45.5508C162.303 46.1778 152.882 46.7738 140.321 47.0058C117.354 47.4298 113.388 48.1418 100.872 54.0858C97.6677 55.6078 94.1009 57.2747 92.9451 57.7897C89.6235 59.2717 81.3383 65.8578 80.1384 67.9698C78.8296 70.2758 76.9821 72.7347 73.2986 77.0737C71.7868 78.8547 70.5491 80.8297 70.5491 81.4617C70.5491 82.0947 69.874 82.8708 69.0491 83.1868C68.2242 83.5038 67.5495 84.3478 67.5495 85.0638C67.5495 85.7788 65.5247 90.6977 63.05 95.9947C59.6655 103.24 58.5505 106.823 58.5505 110.462C58.5505 113.121 57.8882 117.173 57.0803 119.465C55.8945 122.824 55.7925 125.515 56.5544 133.341C57.0734 138.68 57.5425 147.099 57.5945 152.049C57.7204 163.816 58.4472 165.753 60.9739 161.06C65.6433 152.388 67.5495 156.547 67.5495 175.408C67.5495 186.124 67.9152 190.638 68.9021 192.076C69.646 193.161 70.5172 197.27 70.8362 201.207C71.1561 205.144 71.8488 209.194 72.3767 210.207C72.9046 211.22 73.7948 214.299 74.3557 217.049C75.4366 222.36 80.3387 236.581 82.3464 240.233C83.0073 241.435 83.5476 243.321 83.5476 244.424C83.5476 245.528 83.9583 246.685 84.4602 246.996C85.4581 247.612 88.9845 254.76 89.9924 258.209C90.3394 259.397 91.2813 260.914 92.0852 261.581C94.1569 263.301 94.2188 241.753 92.1521 237.749C91.3862 236.264 90.4258 231.469 90.0168 227.094C89.6079 222.719 88.6593 217.671 87.9094 215.876C85.7837 210.786 86.1279 201.968 88.5466 199.549C90.1534 197.942 90.5458 196.221 90.5398 190.799C90.5338 184.049 90.5334 184.049 88.6067 186.972C82.0445 196.928 77.5481 188.585 77.5481 166.449C77.5481 152.356 77.8988 150.549 80.6355 150.549C82.4803 150.549 82.8285 151.342 83.9333 158.049C87.3449 178.776 91.5396 183.661 90.4797 165.674C89.4059 147.452 98.4252 145.13 100.071 163.205C100.845 171.704 101.771 173.773 104.368 172.806C107.497 171.64 112.544 167.057 112.544 165.381C112.544 161.994 113.772 160.549 116.65 160.549C118.876 160.549 119.543 160.088 119.543 158.549C119.543 157.22 120.21 156.549 121.53 156.549C123.619 156.549 128.542 149.872 128.542 147.037C128.542 146.184 129.217 145.227 130.042 144.911C130.867 144.594 131.541 143.344 131.541 142.133C131.541 140.922 132.202 139.058 133.009 137.99C133.817 136.923 134.492 135.077 134.509 133.888C134.594 128.092 139.809 117.549 142.591 117.549C148.42 117.549 148.572 121.989 143.242 136.549C137.641 151.852 136.938 153.552 135.709 154.781C133.801 156.689 134.356 159.485 137.595 164.284C143.382 172.86 141.938 175.022 130.313 175.188C122.169 175.304 119.972 175.692 116.814 177.575C108.251 182.68 104.577 184.549 103.103 184.549C102.246 184.549 101.51 184.886 101.468 185.299C100.122 198.387 100.362 199.383 104.721 198.798C107.48 198.428 109.845 197.287 111.624 195.467C116.081 190.906 122.021 188.361 126.328 189.166C130.686 189.98 137.541 194.239 137.541 196.132C137.541 196.857 138.155 197.809 138.906 198.249C141.237 199.616 143.747 205.586 143.091 208.203C140.189 219.764 121.79 222.605 116.758 212.269C115.381 209.442 104.11 209.187 100.678 211.906C96.3275 215.351 100.877 240.549 105.848 240.549C107.933 240.549 114.524 244.47 114.537 245.717C114.572 249.101 132.621 262.549 137.129 262.549C138.211 262.549 139.983 263.165 141.067 263.919C142.152 264.672 144.615 265.505 146.539 265.77C148.464 266.035 152.18 266.863 154.798 267.61C159.039 268.821 159.872 268.783 162.451 267.259C167.883 264.05 173.536 265.473 173.536 270.049C173.536 272.917 175.401 274.549 178.676 274.549C180.184 274.549 181.704 275.013 182.054 275.58C182.414 276.162 184.105 276.345 185.946 276C190.866 275.077 192.526 278.276 192.566 288.764C192.588 294.459 193.057 297.656 194.066 298.99C194.873 300.058 195.533 301.944 195.533 303.181C195.533 304.419 195.945 305.685 196.447 305.996C196.949 306.306 198.339 308.583 199.536 311.055C202.27 316.703 204.234 316.826 211.42 311.799C214.367 309.737 217.791 307.49 219.027 306.806C224.495 303.781 226.326 294.544 222.651 288.516C221.489 286.609 220.536 284.255 220.534 283.285C220.532 282.315 220.112 280.74 219.602 279.785C219.091 278.83 217.702 275.912 216.513 273.299C215.325 270.686 214.159 268.549 213.922 268.549C212.677 268.549 205.587 273.797 202.587 276.94C198.466 281.256 194.124 281.882 193.163 278.299C192.041 274.113 192.525 272.397 196.025 268.125C197.944 265.782 199.182 263.526 198.774 263.112C198.367 262.698 198.708 262.51 199.533 262.694C201.206 263.068 208.532 258.867 208.532 257.534C208.532 257.065 212.132 252.879 216.531 248.23C220.93 243.582 224.53 239.357 224.53 238.842C224.53 238.327 225.867 236.138 227.502 233.977C229.136 231.817 230.486 229.317 230.501 228.421C230.516 227.526 231.204 226.234 232.029 225.549C232.854 224.864 233.529 223.243 233.529 221.947C233.529 220.65 234.151 217.893 234.909 215.819C235.669 213.746 236.745 209.349 237.301 206.049C237.857 202.749 238.623 199.094 239.003 197.928C239.874 195.254 234.685 189.956 226.879 185.551C223.915 183.878 220.639 181.658 219.597 180.616C217.74 178.758 217.692 178.767 217.098 181.136C216.684 182.783 215.785 183.55 214.262 183.553C209.107 183.561 205.881 186.923 205.163 193.035C203.474 207.4 186.138 213.857 183.002 201.29C182.623 199.772 181.913 198.283 181.424 197.981C180.193 197.22 180.297 185.549 181.535 185.549C182.085 185.549 182.537 184.987 182.54 184.299C182.557 179.687 189.33 175.549 196.861 175.549C202.243 175.549 204.63 175.136 205.532 174.049C206.217 173.224 207.879 172.549 209.227 172.549C213.957 172.549 211.413 169.322 205.032 167.226C201.732 166.143 198.252 164.872 197.297 164.403C196.342 163.933 192.825 163.549 189.482 163.549C181.872 163.549 180.224 162.666 178.59 157.713C177.749 155.166 174.923 151.446 170.66 147.275C159.916 136.763 159.275 136.113 153.789 130.181C146.934 122.769 146.814 118.549 153.462 118.549C154.43 118.549 158.03 121.474 161.463 125.049C164.894 128.624 167.891 131.549 168.121 131.549C168.351 131.549 171.271 134.439 174.611 137.97C177.951 141.502 182.176 145.1 184 145.966C185.825 146.831 187.576 148.217 187.894 149.044C188.211 149.872 189.299 150.549 190.311 150.549C191.324 150.549 193.025 151.21 194.093 152.017C195.159 152.825 196.673 153.5 197.454 153.517C198.236 153.535 199.633 154.235 200.56 155.073C203.101 157.374 205.532 155.904 205.532 152.064C205.532 148.085 207.491 146.25 210.842 147.091C213.311 147.711 214.49 149.984 214.517 154.177C214.525 155.347 215.162 156.828 215.933 157.468C216.704 158.107 217.64 159.846 218.011 161.33C218.384 162.814 218.991 164.258 219.36 164.539C219.729 164.819 220.524 165.949 221.127 167.049C222.562 169.664 229.923 174.703 230.391 173.39C230.591 172.831 230.253 171.873 229.641 171.261C226.84 168.46 229.122 163.549 233.224 163.549C235.599 163.549 246.527 184.015 246.527 188.463C246.527 189.476 247.202 190.864 248.027 191.549C248.851 192.234 249.527 193.661 249.527 194.721C249.527 195.781 250.21 197.968 251.044 199.581C251.878 201.195 252.84 204.56 253.182 207.059C253.889 212.211 255.049 213.612 255.862 210.292C256.704 206.85 255.794 180.375 254.735 177.549C254.22 176.174 253.484 172.909 253.1 170.294C252.716 167.678 251.758 164.303 250.97 162.794C250.184 161.284 249.522 158.924 249.501 157.549C249.48 156.174 248.802 154.175 247.994 153.108C247.187 152.04 246.527 149.939 246.527 148.439C246.527 146.939 245.774 144.212 244.853 142.38C243.933 140.548 242.584 137.855 241.854 136.395C241.125 134.935 240.528 133.229 240.528 132.604C240.528 131.979 239.619 130.238 238.508 128.736C234.718 123.609 234.629 115.549 238.363 115.549C240.796 115.549 241.808 116.191 242.994 118.486C243.829 120.101 244.966 121.702 245.52 122.045C247.14 123.046 246.696 116.86 245.027 115.192C244.202 114.367 243.528 112.683 243.528 111.449C243.528 110.216 242.936 108.496 242.216 107.628C241.494 106.759 240.079 104.024 239.072 101.549C235.277 92.2257 233.679 89.4708 227.44 81.5058C216.16 67.1068 206.639 57.6547 202.216 56.4637C200.045 55.8787 197.54 55.0078 196.652 54.5278C195.762 54.0488 191.884 52.4888 188.034 51.0628C184.185 49.6368 179.86 47.8238 178.424 47.0338C174.956 45.1278 165.503 44.1998 163.318 45.5508ZM39.7981 78.6898C38.0083 79.8168 36.3585 81.7078 36.1316 82.8938C35.9046 84.0788 35.0063 88.5487 34.1365 92.8267C32.0127 103.266 31.8886 141.845 33.9553 149.117C34.7262 151.83 35.6605 155.849 36.0325 158.049C36.8923 163.14 39.5821 171.76 40.698 172.999C41.1679 173.522 41.5406 174.647 41.5266 175.499C41.5126 176.352 43.187 180.311 45.2478 184.299C51.9979 197.361 54.4998 191.643 49.9324 173.589C47.8646 165.413 47.9385 104.742 50.0193 101.99C50.8272 100.923 51.5175 99.3737 51.5534 98.5487C51.5894 97.7237 52.4881 95.2487 53.551 93.0487C54.6139 90.8487 55.4978 88.6788 55.5168 88.2278C55.5358 87.7758 56.2256 86.7307 57.0505 85.9057C61.438 81.5177 59.2693 79.8637 45.552 77.1367C44.0262 76.8337 41.7848 77.4388 39.7981 78.6898ZM246.527 124.549C246.527 125.099 247.004 125.549 247.586 125.549C248.168 125.549 248.367 125.099 248.027 124.549C247.687 123.999 247.211 123.549 246.968 123.549C246.725 123.549 246.527 123.999 246.527 124.549ZM221.443 135.746C223.141 138.054 224.53 140.778 224.53 141.799C224.53 142.82 225.655 145.311 227.03 147.334C231.663 154.154 227.308 164.953 222.319 159.014C221.61 158.17 220.468 156.852 219.781 156.086C219.094 155.319 218.531 154.091 218.531 153.356C218.531 152.621 217.631 150.34 216.531 148.288C215.431 146.235 214.531 143.799 214.531 142.874C214.531 141.948 214.011 139.753 213.376 137.996C210.689 130.564 216.452 128.957 221.443 135.746ZM296.644 140.599C289.095 142.472 283.665 146.642 283.563 150.644C283.497 153.212 280.319 155.4 273.448 157.604C262.487 161.12 260.353 162.36 261.517 164.534C262.071 165.57 262.539 169.26 262.557 172.733C262.576 176.553 263.142 179.779 263.988 180.896C264.757 181.912 265.145 183.375 264.849 184.146C264.146 185.979 265.414 189.298 266.329 188.018C266.712 187.482 269.049 185.701 271.524 184.06C281.787 177.254 298.563 158.319 305.79 145.382C309.954 137.927 309.137 137.499 296.644 140.599ZM103.545 140.549C103.545 141.099 103.068 141.549 102.486 141.549C101.904 141.549 101.705 141.099 102.045 140.549C102.385 139.999 102.861 139.549 103.104 139.549C103.347 139.549 103.545 139.999 103.545 140.549ZM191.211 189.353C189.175 191.603 189.095 192.94 190.907 194.444C193.263 196.399 195.678 194.657 195.338 191.248C194.97 187.557 193.462 186.865 191.211 189.353ZM278.974 191.805C277.848 192.489 275.402 193.949 273.538 195.049C265.432 199.834 263.519 207.414 266.852 221.549C267.176 222.924 267.773 226.299 268.18 229.049C269.078 235.124 269.97 230.124 271.408 210.931C272.361 198.225 272.617 197.549 276.46 197.549C281.069 197.549 281.869 199.501 281.079 208.806C280.693 213.34 280.231 219.074 280.053 221.549C279.875 224.024 279.396 228.412 278.987 231.299C278.244 236.549 278.244 236.549 281.384 236.549C284.522 236.549 284.522 236.549 284.522 215.66C284.522 192.546 283.685 188.943 278.974 191.805ZM123.5 201.099C121.882 203.05 125.795 207.549 129.109 207.549C133.782 207.549 132.504 203.594 126.897 200.699C125.212 199.829 124.484 199.915 123.5 201.099ZM24.0549 214.348C20.2054 216.375 16.8641 218.154 16.6291 218.301C14.0245 219.938 31.6806 227.547 38.2698 227.627C41.4504 227.666 45.5394 228.158 47.3572 228.719C57.5999 231.885 70.2618 226.72 66.0173 221.108C65.2104 220.04 64.5495 217.94 64.5495 216.44C64.5495 211.254 59.4008 208.033 56.2102 211.223C55.8402 211.594 54.527 212.011 53.2942 212.151C52.0603 212.29 49.0267 212.938 46.552 213.589C38.456 215.721 33.1061 215.415 32.7341 212.799C32.3312 209.96 32.4209 209.944 24.0549 214.348ZM244.166 217.243C243.815 217.595 243.512 219.045 243.493 220.466C243.474 221.886 242.59 224.849 241.528 227.049C240.465 229.249 239.581 231.541 239.562 232.142C239.532 233.121 238.389 235.337 233.008 244.852C232.136 246.394 230.547 248.531 229.476 249.602C224.956 254.122 227.33 254.611 232.861 250.299C237.461 246.711 240.016 245.026 243.028 243.592C248.872 240.808 250.153 238.881 248.277 235.702C247.027 233.587 246.527 230.586 246.527 225.204C246.527 218.242 245.759 215.651 244.166 217.243ZM256.153 220.799C257.044 226.623 257.526 226.769 257.526 221.216C257.526 218.649 257.07 216.549 256.513 216.549C255.887 216.549 255.751 218.17 256.153 220.799ZM68.7991 238.211C67.0473 238.918 67.2363 243.215 69.0491 243.911C69.874 244.227 70.5491 245.144 70.5491 245.948C70.5491 247.826 74.6643 254.278 76.2981 254.962C78.4318 255.857 77.6962 252.532 74.0666 244.885C72.1519 240.85 70.4651 237.585 70.3171 237.628C70.1701 237.671 69.487 237.934 68.7991 238.211ZM188.852 245.656C190.404 251.593 187.152 253.969 175.084 255.714C166.386 256.972 166.29 256.962 164.422 254.655C160.668 250.018 163.079 245.56 169.358 245.534C171.381 245.525 173.711 245.082 174.536 244.549C177.684 242.514 188.244 243.331 188.852 245.656ZM275.159 250.055C273.584 250.877 271.102 251.549 269.644 251.549C268.186 251.549 264.976 252.637 262.51 253.967C257.875 256.467 257.792 256.691 259.094 263.21C259.912 267.305 257.544 268.878 248.027 270.565C233.961 273.058 226.867 276.497 228.766 279.901C229.425 281.082 230.921 284.749 232.09 288.049C234.438 294.677 238.672 295.645 252.526 292.72C255.551 292.082 260.5 291.29 263.525 290.961C266.549 290.632 270.442 289.73 272.175 288.956C273.907 288.182 276.02 287.549 276.867 287.549C280.73 287.549 281.523 283.847 281.523 265.826C281.523 246.727 281.526 246.734 275.159 250.055ZM291.473 249.299C291.447 249.712 291.275 258.149 291.091 268.049C290.73 287.568 290.127 290.33 284.701 297.289C283.089 299.357 281.527 301.949 281.231 303.049C280.934 304.149 279.706 307.524 278.502 310.549C277.297 313.574 275.991 317.849 275.6 320.049C275.209 322.249 274.367 324.949 273.729 326.049C272.596 328 271.562 335.243 269.383 356.485C268.397 366.094 268.455 367.025 270.109 368.235C275.646 372.284 278.521 368.696 278.529 357.728C278.533 351.985 279.041 348.08 280.029 346.185C280.85 344.609 281.523 342.305 281.523 341.065C281.523 338.378 284.867 327.473 287.202 322.549C288.114 320.624 289.526 317.474 290.338 315.549C291.15 313.624 292.199 311.374 292.67 310.549C293.141 309.724 293.978 307.924 294.53 306.549C297.129 300.082 304.588 288.613 309.674 283.266C311.706 281.129 313.618 278.733 313.922 277.942C314.225 277.151 315.27 276.249 316.245 275.939C320.619 274.545 327.443 270.956 327.478 270.031C327.687 264.561 307.864 250.918 301.247 251.977C298.486 252.418 297.575 252.27 298.076 251.461C298.461 250.836 298.157 249.933 297.399 249.453C295.705 248.38 291.539 248.272 291.473 249.299ZM103.212 253.216C101.905 254.522 102.574 257.622 104.295 258.232C105.257 258.574 106.719 259.399 107.544 260.067C110.32 262.313 115.158 263.003 113.468 260.912C108.024 254.174 104.728 251.7 103.212 253.216ZM240.293 258.076C236.143 261.934 236.9 262.323 243.912 259.934C247.313 258.774 248.494 257.904 248.09 256.852C247.78 256.045 247.527 255.197 247.527 254.967C247.527 253.407 243.413 255.174 240.293 258.076ZM93.5461 266.99C93.5461 267.847 93.9962 268.549 94.5461 268.549C95.0961 268.549 95.5456 268.126 95.5456 267.608C95.5456 267.09 95.0961 266.389 94.5461 266.049C93.9962 265.709 93.5461 266.133 93.5461 266.99ZM105.945 276.648C106.305 278.903 107.262 281.41 108.072 282.22C108.881 283.029 109.544 284.097 109.544 284.591C109.544 286.269 115.92 294.549 117.212 294.549C119.427 294.549 121.699 299.08 120.96 302.023C119.905 306.226 116.112 307.432 113.038 304.543C109.782 301.485 108.655 302.757 111.012 306.83C116.349 316.057 135.909 326.289 132.937 318.299C132.477 317.061 132.08 308.399 132.056 299.049C132.011 282.049 132.011 282.049 124.527 278.345C119.618 275.915 115.601 274.625 112.853 274.595C110.548 274.57 108.384 274.099 108.044 273.549C106.488 271.031 105.322 272.752 105.945 276.648ZM163.537 286.132C162.163 286.895 159.402 287.526 157.404 287.534C153.56 287.55 143.925 290.224 141.75 291.879C139.938 293.257 141.053 315.787 143.159 320.35C143.997 322.166 144.945 325.316 145.266 327.35C146.887 337.625 169.263 331.41 185.285 316.235C191.53 310.319 189.019 308.665 181.967 314.049C176.936 317.89 174.497 318.367 172.107 315.978C169.311 313.18 170.205 309.975 174.786 306.397C177.123 304.572 179.63 302.509 180.356 301.813C181.083 301.118 182.124 300.549 182.67 300.549C183.215 300.549 183.521 299.087 183.348 297.299C182.976 293.432 179.037 292.335 175.007 294.976C173.686 295.841 171.938 296.549 171.121 296.549C170.304 296.549 169.277 297.116 168.837 297.809C167.593 299.767 156.967 303.73 153.923 303.371C147.586 302.624 150.56 291.549 157.097 291.549C157.721 291.549 159.27 290.649 160.538 289.549C161.806 288.449 163.562 287.535 164.44 287.517C165.318 287.5 166.911 286.825 167.978 286.017C170.664 283.985 167.247 284.074 163.537 286.132ZM317.018 290.93C310.618 297.63 310.027 298.544 301.986 314.19C299.119 319.767 296.382 324.942 295.904 325.69C293.925 328.782 289.664 346.822 290.258 349.592C290.44 350.441 291.811 351.662 293.305 352.306C294.799 352.95 296.696 353.91 297.521 354.441C298.346 354.971 299.695 355.664 300.52 355.981C301.345 356.298 304.27 357.91 307.019 359.562C309.769 361.215 313.451 363.231 315.2 364.043C316.95 364.855 318.664 365.976 319.009 366.534C319.354 367.092 320.525 367.549 321.612 367.549C322.699 367.549 324.585 368.201 325.802 368.997C329.975 371.726 340.953 372.136 344.076 369.68C345.566 368.508 347.404 367.549 348.162 367.549C348.921 367.549 350.323 367.116 351.278 366.587C359.831 361.847 379.169 360.797 382.055 364.916C386.126 370.73 382.824 373.549 371.941 373.549C364.18 373.549 363.512 373.707 363.512 375.549C363.512 376.809 364.179 377.549 365.315 377.549C366.306 377.549 370.83 379.345 375.369 381.54C383.62 385.53 383.62 385.53 383.315 390.29C382.868 397.26 378.574 396.76 362.012 387.808C350.429 381.547 340.329 383.38 328.975 393.802C326.248 396.305 322.942 399.217 321.63 400.272C319.241 402.192 319.241 402.192 322.413 403.506C328.605 406.071 342.443 426.98 342.547 433.927C342.564 435.094 343.239 436.923 344.047 437.99C344.854 439.058 345.522 441.533 345.53 443.49C345.538 445.448 346.194 448.849 346.986 451.049C347.803 453.318 348.445 458.801 348.47 463.717C348.532 475.91 348.719 476.171 354.35 471.934C356.914 470.004 361.825 466.347 365.262 463.806C368.7 461.265 371.511 458.623 371.511 457.935C371.511 457.247 372.447 456.387 373.59 456.024C375.657 455.368 384.51 447.459 384.51 446.268C384.51 445.925 386.712 443.326 389.406 440.493C392.099 437.66 395.48 433.926 396.921 432.196C398.362 430.465 403.723 424.737 408.835 419.468C413.946 414.198 419.159 407.898 420.42 405.468C421.682 403.037 423.342 400.689 424.109 400.249C424.877 399.809 425.505 398.433 425.505 397.19C425.505 395.948 426.165 394.058 426.972 392.99C427.799 391.898 428.454 388.846 428.472 386.009C428.49 383.237 429.179 378.378 430.004 375.21C433.806 360.612 434.032 361.049 410.257 336.941C398.571 325.092 386.985 314.018 384.51 312.334C382.035 310.649 379.56 308.747 379.01 308.106C376.252 304.894 356.104 293.549 353.157 293.549C352.498 293.549 349.458 292.251 346.402 290.665C343.345 289.08 338.521 287.462 335.682 287.072C332.842 286.681 330.266 285.954 329.958 285.455C328.158 282.543 322.906 284.766 317.018 290.93ZM128.225 302.737C127.906 303.534 127.669 303.297 127.621 302.132C127.578 301.078 127.814 300.488 128.146 300.82C128.478 301.152 128.514 302.015 128.225 302.737ZM259.026 303.252C246.101 303.738 246.272 303.638 246.821 310.34C247.274 315.878 248.596 321.879 250.721 328.049C251.29 329.699 251.971 332.399 252.236 334.049C252.501 335.699 254.12 340.632 255.833 345.011C258.948 352.974 258.948 352.974 259.986 348.831C260.558 346.552 261.362 344.357 261.775 343.952C262.188 343.547 262.545 340.253 262.569 336.632C262.593 333.011 263.261 328.249 264.053 326.049C264.845 323.849 265.504 320.924 265.516 319.549C265.528 318.174 266.231 315.719 267.078 314.094C269.333 309.77 270.187 302.492 268.41 302.75C267.648 302.861 263.425 303.087 259.026 303.252ZM92.5461 310.024C90.0714 311.924 86.0831 314.957 83.6824 316.764C81.2827 318.571 78.5827 320.772 77.6828 321.657C76.784 322.541 72.7837 326.052 68.7932 329.459C58.1195 338.572 57.4017 340.44 57.8786 357.859C58.3326 374.453 59.6266 378.597 62.7502 373.46C63.7401 371.832 64.5495 370.025 64.5495 369.443C64.5495 368.861 66.1248 366.464 68.0495 364.114C69.9743 361.765 71.5491 359.483 71.5491 359.042C71.5491 358.602 73.2368 356.59 75.2986 354.571C77.3613 352.552 80.8146 349.022 82.9734 346.725C85.1321 344.428 87.7185 342.549 88.7224 342.549C89.7253 342.549 90.5466 342.127 90.5466 341.612C90.5466 341.096 93.4882 339.226 97.0827 337.456C100.678 335.686 103.854 333.858 104.141 333.393C104.428 332.929 107.591 332.549 111.17 332.549C119.047 332.549 119.205 330.852 111.988 323.812C109.598 321.481 106.42 317.431 104.925 314.812C99.4992 305.307 98.9603 305.098 92.5461 310.024ZM228.15 312.061C225.465 315.039 220.179 319.313 216.401 321.557C208.002 326.547 207.98 325.799 216.787 335.257C220.778 339.543 224.94 344.193 226.036 345.591C228.821 349.144 241.48 358.549 243.477 358.549C244.385 358.549 245.615 359.037 246.212 359.634C249.33 362.752 251.671 360.221 249.528 356.049C247.488 352.08 244.852 343.81 243.789 338.049C243.485 336.399 242.678 334.149 241.997 333.049C241.315 331.949 240.451 328.585 240.078 325.574C239.704 322.563 238.903 319.501 238.296 318.769C237.689 318.038 237.233 314.989 237.283 311.994C237.407 304.581 234.874 304.6 228.15 312.061ZM194.569 326.808C194.55 327.775 193.184 330.43 191.534 332.708C189.884 334.985 188.528 337.569 188.521 338.449C188.514 339.329 187.164 342.7 185.521 345.94C183.878 349.18 182.535 352.242 182.535 352.745C182.535 353.773 179.714 360.175 175.418 368.902C173.833 372.121 172.536 375.347 172.536 376.071C172.536 376.795 171.861 378.773 171.036 380.468C170.211 382.163 168.837 384.979 167.981 386.728C166.721 389.302 166.673 390.05 167.731 390.66C177.773 396.455 182.283 405.706 178.144 412.023C174.642 417.369 165.381 413.021 163.838 405.306C163.318 402.703 163.099 402.559 161.734 403.924C160.452 405.207 160.423 405.705 161.549 407.062C163.206 409.059 166.46 418.308 166.504 421.145C166.522 422.298 167.186 424.548 167.98 426.145C168.773 427.742 169.901 431.749 170.486 435.049C171.503 440.787 173.481 450.063 175.285 457.549C176.106 460.959 176.243 461.042 180.581 460.775C186.364 460.418 189.273 463.127 191.62 471.049C193.167 476.273 187.324 485.549 182.486 485.549C179.95 485.549 179.789 485.855 179.18 491.799C178.828 495.237 178.017 500.414 177.378 503.305C175.992 509.572 176.545 510.474 180.072 507.699C183.004 505.393 185.905 506.377 189.762 510.985C191.54 513.109 192.217 519.549 190.662 519.549C190.182 519.549 189.508 521.311 189.164 523.464C188.106 530.078 179.29 535.577 174.55 532.579C172.694 531.406 169.678 538.159 169.593 543.677C169.562 545.672 168.862 547.864 168.037 548.549C167.094 549.332 166.537 551.535 166.537 554.48C166.537 557.058 165.876 560.04 165.07 561.108C164.262 562.175 163.587 564.751 163.57 566.831C163.552 568.911 162.862 572.229 162.037 574.203C161.212 576.178 160.535 578.976 160.532 580.421C160.528 581.866 159.906 584.237 159.149 585.688C158.391 587.14 157.486 590.672 157.137 593.537C156.788 596.403 156.112 599.49 155.635 600.398C155.159 601.306 154.45 604.524 154.059 607.549C153.668 610.574 152.715 614.046 151.944 615.264C151.133 616.542 150.526 620.137 150.507 623.764C150.487 627.698 149.926 630.775 149.007 631.99C148.081 633.215 147.539 636.232 147.539 640.169C147.539 644.695 147.076 646.87 145.847 648.099C144.069 649.877 150.383 656.87 157.788 661.326C159.3 662.236 160.538 663.333 160.538 663.765C160.538 664.196 161.132 664.549 161.857 664.549C162.583 664.549 165.62 666.387 168.606 668.633C171.592 670.88 177.186 674.499 181.035 676.677C184.885 678.855 188.709 681.035 189.534 681.522C192.057 683.012 199.714 686.318 206.032 688.647C209.332 689.863 212.931 691.427 214.031 692.123C217.997 694.632 249.119 702.258 264.525 704.496C267.549 704.936 272.632 706.027 275.822 706.922C279.011 707.817 283.21 708.549 285.154 708.549C287.098 708.549 292.138 709.421 296.354 710.486C307.963 713.419 359.085 714.908 363.697 712.448C364.623 711.953 367.253 711.549 369.541 711.549C373.939 711.549 384.355 708.941 385.96 707.438C386.482 706.949 387.719 706.549 388.709 706.549C389.699 706.549 390.509 706.304 390.509 706.005C390.509 705.388 381.474 692.975 379.077 690.299C378.215 689.337 377.51 688.099 377.51 687.549C377.51 686.999 377.112 686.549 376.625 686.549C376.138 686.549 373.803 683.286 371.438 679.299C369.072 675.312 366.594 671.502 365.931 670.833C365.267 670.165 363.737 667.58 362.531 665.089C361.327 662.598 359.929 660.306 359.426 659.996C358.924 659.685 358.513 658.543 358.513 657.459C358.513 656.374 357.838 655.227 357.013 654.911C356.189 654.594 355.513 653.562 355.513 652.618C355.513 651.674 353.939 648.686 352.014 645.978C350.089 643.271 348.514 640.543 348.514 639.917C348.514 639.29 347.842 637.489 347.02 635.913C346.199 634.338 345.524 632.317 345.52 631.421C345.517 630.526 344.84 629.234 344.015 628.549C343.19 627.864 342.515 626.486 342.515 625.486C342.515 624.485 342.03 623.367 341.437 623.001C340.254 622.269 332.516 606.317 332.516 604.61C332.516 604.026 332.11 603.549 331.614 603.549C331.119 603.549 330.217 602.312 329.612 600.799C329.006 599.286 327.725 596.851 326.764 595.387C325.803 593.923 323.71 590.548 322.113 587.887C320.515 585.226 318.04 581.472 316.613 579.545C313.586 575.457 312.574 573.809 308.935 567.049C307.455 564.299 304.374 559.349 302.087 556.049C299.801 552.749 297.152 548.381 296.199 546.341C295.247 544.302 294.042 542.371 293.521 542.049C293 541.727 291.836 539.908 290.934 538.007C289.015 533.96 287.964 533.649 287.152 536.887C284.771 546.374 274.693 547.426 271.144 538.558C267.08 528.398 269.863 520.99 277.473 521.716C281.983 522.146 282.374 521.41 280.029 516.913C279.208 515.338 278.533 512.642 278.529 510.921C278.526 509.201 277.848 507.234 277.023 506.549C276.198 505.864 275.523 504.496 275.523 503.508C275.523 499.899 274.339 498.549 271.167 498.545C267.895 498.541 261.609 495.315 260.225 492.928C259.785 492.17 258.549 491.549 257.476 491.549C256.404 491.549 255.519 491.212 255.51 490.799C255.501 490.386 254.156 488.474 252.521 486.549C248.424 481.726 248.178 481.382 246.777 478.549C246.098 477.174 245.152 475.374 244.676 474.549C241.967 469.852 240.634 466.639 240.008 463.299C239.622 461.237 238.94 459.549 238.494 459.549C237.045 459.549 235.354 452.624 236.04 449.501C236.752 446.255 240.512 441.549 242.393 441.549C243.017 441.549 243.528 440.959 243.528 440.237C243.528 439.515 244.896 437.913 246.57 436.675C249.614 434.425 249.614 434.425 247.378 430.737C246.149 428.709 244.829 426.374 244.446 425.549C242.438 421.228 240.625 416.583 239.398 412.622C237.799 407.455 236.31 406.612 233.855 409.482C228.77 415.421 218.51 409.871 218.563 401.21C218.617 392.283 222.404 389.182 228.529 393.049C230.707 394.424 232.723 395.549 233.009 395.549C234.127 395.549 233.379 387.911 232.029 385.549C231.243 384.174 230.584 381.656 230.564 379.953C230.545 378.25 229.816 375.427 228.945 373.681C227.839 371.464 227.565 369.297 228.036 366.506C228.712 362.508 228.712 362.508 217.371 350.984C204.252 337.652 197.536 330.241 195.819 327.199C194.801 325.396 194.599 325.333 194.569 326.808ZM131.168 332.344C130.898 332.781 132.206 335.368 134.073 338.094C135.942 340.819 137.486 343.605 137.506 344.284C137.525 344.964 138.857 348.114 140.466 351.284C142.076 354.455 144.213 358.849 145.216 361.049C147.756 366.621 148.45 361.479 146.156 354.079C145.298 351.313 144.371 347.895 144.096 346.484C143.794 344.939 142.093 342.95 139.817 341.48C137.439 339.943 135.913 338.116 135.695 336.544C135.158 332.669 132.494 330.197 131.168 332.344ZM171.133 339.049C168.547 340.424 165.667 341.552 164.734 341.555C163.801 341.559 161.749 342.234 160.174 343.055C158.598 343.877 156.637 344.549 155.814 344.549C154.675 344.549 154.457 345.322 154.9 347.799C155.22 349.587 156.057 354.874 156.76 359.549C157.463 364.224 158.462 368.709 158.981 369.515C159.499 370.321 160.219 372.571 160.581 374.515C161.239 378.049 161.239 378.049 162.933 374.049C163.864 371.849 165.033 369.149 165.528 368.049C169.094 360.128 170.541 356.483 170.569 355.354C170.586 354.636 171.261 353.175 172.069 352.108C172.875 351.04 173.536 349.448 173.536 348.569C173.536 347.691 174.436 345.207 175.536 343.049C179.137 335.984 178.31 335.232 171.133 339.049ZM113.044 343.549C111.944 344.022 109.839 344.44 108.365 344.479C106.892 344.517 105.092 345.112 104.365 345.799C103.64 346.487 100.795 348.14 98.0456 349.473C92.4543 352.184 81.5337 362.174 78.2961 367.54C77.1313 369.47 75.1374 372.321 73.8635 373.876C72.5907 375.43 71.5491 377.507 71.5491 378.491C71.5491 379.474 70.6489 381.423 69.5491 382.822C67.2034 385.804 66.8206 389.766 68.9563 388.946C69.7302 388.649 72.2739 385.401 74.6106 381.728C76.9463 378.054 79.9125 374.097 81.2024 372.933C82.4922 371.769 83.5476 370.291 83.5476 369.648C83.5476 368.473 96.4509 355.549 97.6247 355.549C97.9707 355.549 99.4614 354.429 100.938 353.061C102.414 351.692 106.089 349.365 109.103 347.889C116.155 344.435 119.466 340.789 113.044 343.549ZM121.543 354.268C120.168 354.533 118.818 355.07 118.543 355.461C118.268 355.852 114.669 357.982 110.544 360.195C103.461 363.994 96.6501 370.037 87.0403 381.049C83.5227 385.08 81.9764 393.46 84.466 394.999C84.972 395.311 85.8902 397.92 86.5061 400.795C88.5498 410.326 93.553 412.746 101.26 407.932C102.478 407.171 104.462 406.549 105.669 406.549C106.875 406.549 111.052 405.01 114.953 403.13C118.852 401.249 122.717 399.432 123.542 399.091C135.533 394.133 140.854 383.975 136.139 375.049C135.267 373.399 134.548 370.924 134.541 369.549C134.534 368.174 133.856 365.76 133.035 364.185C132.213 362.609 131.541 360.302 131.541 359.057C131.541 355.305 127.125 353.19 121.543 354.268ZM287.188 364.799C284.256 382.03 283.542 383.487 278.334 382.836C275.963 382.539 273.596 381.903 273.073 381.423C271.173 379.675 269.816 380.632 268.642 384.549C267.983 386.749 266.827 388.549 266.073 388.549C264.093 388.549 259.531 382.776 259.493 380.222C259.476 379.027 258.801 377.175 257.993 376.108C257.186 375.04 256.526 373.353 256.526 372.358C256.526 371.363 256.076 370.549 255.526 370.549C254.976 370.549 254.526 370.999 254.526 371.549C254.526 373.467 242.564 371.657 238.633 369.144C237.116 368.174 237.065 367.766 239.881 379.049C240.705 382.349 242.053 387.749 242.876 391.049C244.3 396.754 245.845 402.119 248.635 411.049C249.322 413.249 250.48 415.759 251.206 416.628C251.933 417.496 252.526 418.704 252.526 419.311C252.526 419.919 253.972 422.809 255.739 425.733C257.507 428.657 259.009 431.163 259.077 431.303C259.145 431.443 260.624 430.848 262.363 429.98C264.938 428.695 267.059 428.555 273.775 429.225C289.057 430.751 290.52 430.316 290.533 424.242C290.556 413.61 291.227 412.064 299.439 403.772C303.645 399.524 310.129 394.024 313.849 391.549C325.206 383.99 328.482 379.591 322.798 379.53C321.819 379.519 316.743 377.21 311.519 374.397C306.294 371.585 300.67 368.592 299.02 367.745C297.37 366.898 295.796 365.91 295.521 365.549C295.086 364.978 288.62 361.549 287.978 361.549C287.847 361.549 287.492 363.011 287.188 364.799ZM146.618 394.132C146.666 395.297 146.903 395.534 147.222 394.737C147.511 394.015 147.475 393.152 147.143 392.82C146.811 392.488 146.575 393.078 146.618 394.132ZM139.733 401.479C135.667 404.994 135.495 405.354 136.662 407.915C138.068 411.001 140.825 411.073 141.382 408.038C141.582 406.944 142.409 405.301 143.218 404.387C147.154 399.944 144.281 397.546 139.733 401.479ZM307.641 410.427C305.432 412.637 305.431 412.637 311.068 418.843C314.167 422.256 317.579 426.624 318.648 428.549C319.718 430.474 321.69 433.849 323.03 436.049C324.372 438.249 325.757 440.837 326.11 441.799C326.462 442.761 327.104 443.549 327.536 443.549C327.968 443.549 328.818 444.786 329.424 446.299C330.031 447.812 331.649 451.032 333.021 453.456C334.393 455.88 335.516 458.49 335.516 459.256C335.516 460.849 338.486 466.912 339.009 466.389C339.332 466.065 338.637 460.706 336.566 447.549C335.598 441.408 332.377 432.01 330.646 430.279C330.024 429.657 329.517 428.339 329.517 427.349C329.517 426.359 329.116 425.549 328.625 425.549C328.135 425.549 327.477 424.524 327.162 423.271C326.305 419.854 321.218 415.492 317.549 415.028C313.861 414.561 311.622 413 310.574 410.167C309.871 408.269 309.793 408.275 307.641 410.427ZM149.173 413.753C146.722 418.925 146.441 429.223 148.658 432.607C149.548 433.966 150.595 436.529 150.985 438.302C151.374 440.075 152.108 441.783 152.616 442.097C153.124 442.41 153.554 443.428 153.573 444.358C153.592 445.288 154.475 447.849 155.538 450.049C156.601 452.249 157.485 454.574 157.504 455.216C157.523 455.857 157.895 456.532 158.331 456.716C160.229 457.514 163.537 464.589 163.537 467.849C163.537 470.667 164.164 471.86 166.537 473.549C170.158 476.128 170.637 474.426 168.037 468.203C167.212 466.229 166.523 462.461 166.505 459.831C166.488 457.201 165.813 454.175 165.005 453.108C164.198 452.04 163.521 449.34 163.502 447.108C163.482 444.875 162.823 441.924 162.037 440.549C161.251 439.174 160.593 436.458 160.573 434.514C160.542 431.348 157.972 422.384 155.566 417.049C155.07 415.949 154.393 414.078 154.063 412.891C153.053 409.266 151.14 409.604 149.173 413.753ZM300.076 425.459C299 427.201 300.75 429.549 303.127 429.549C305.895 429.549 306.182 428.354 303.949 426.12C302.171 424.343 300.9 424.126 300.076 425.459ZM407.886 435.443C406.756 436.358 404.21 439.233 402.227 441.83C393.012 453.904 361.52 482.266 352.018 487.049C349.833 488.149 347.443 489.612 346.708 490.299C345.973 490.987 344.604 491.549 343.666 491.549C342.728 491.549 341.01 492.215 339.848 493.028C338.524 493.956 335.739 494.444 332.377 494.336C325.599 494.12 317.468 495.441 315.518 497.075C314.592 497.851 310.574 498.391 305.02 498.484C289.897 498.739 280.749 502.48 286.522 506.049C287.072 506.389 287.522 507.71 287.522 508.986C287.522 510.261 288.197 511.864 289.022 512.549C289.847 513.234 290.529 514.526 290.537 515.421C290.545 516.317 291.185 518.174 291.96 519.549C292.736 520.924 294.253 523.903 295.332 526.17C296.411 528.436 297.737 530.564 298.278 530.899C298.817 531.233 300.518 533.991 302.053 537.028C303.59 540.064 305.223 542.549 305.684 542.549C306.144 542.549 306.519 543.123 306.519 543.825C306.519 545.169 311.674 553.761 321.954 569.549C333.059 586.605 332.774 586.143 336.878 593.747C338.451 596.663 340.363 599.759 341.127 600.628C341.89 601.496 342.515 602.591 342.515 603.062C342.515 604.426 346.595 612.481 347.601 613.102C348.103 613.413 348.514 614.71 348.514 615.986C348.514 617.261 349.135 618.819 349.893 619.449C350.652 620.079 351.52 621.821 351.822 623.321C352.124 624.822 353.745 628.074 355.424 630.549C357.103 633.024 358.485 635.511 358.495 636.077C358.542 638.729 373.309 665.307 375.958 667.505C376.812 668.214 377.51 669.228 377.51 669.758C377.51 670.288 378.938 672.821 380.683 675.386C388.036 686.195 400.662 702.549 401.655 702.549C405.874 702.549 441.057 675.49 441.399 671.982C441.456 671.395 444.54 667.96 448.252 664.348C454.768 658.009 460.417 651.135 465.547 643.306C466.895 641.247 468.336 639.56 468.749 639.556C469.162 639.552 469.499 638.87 469.499 638.039C469.499 637.209 470.399 635.759 471.499 634.817C472.754 633.742 473.499 631.867 473.499 629.78C473.499 627.18 474.116 626.102 476.328 624.832C479.008 623.294 482.497 618.53 482.497 616.409C482.497 615.872 483.819 613.771 485.435 611.74C488.577 607.793 491.074 601.799 492.581 594.59C493.094 592.138 493.96 589.685 494.505 589.14C495.05 588.595 495.516 586.552 495.54 584.599C495.564 582.646 496.232 579.249 497.025 577.049C498.857 571.961 498.902 566.919 497.12 566.235C496.363 565.945 494.385 563.693 492.724 561.232C491.064 558.771 488.982 555.923 488.099 554.903C481.662 547.471 479.498 544.674 479.498 543.785C479.498 543.223 478.927 542.544 478.229 542.276C477.53 542.008 475.211 538.343 473.074 534.131C470.936 529.92 468.807 526.239 468.343 525.953C467.88 525.666 467.499 524.778 467.499 523.98C467.499 523.182 465.924 520.288 464 517.549C462.075 514.81 460.5 511.72 460.5 510.682C460.5 509.643 459.825 508.234 459 507.549C458.175 506.864 457.501 505.861 457.501 505.32C457.501 504.779 456.151 502.632 454.501 500.549C452.851 498.466 451.501 496.296 451.501 495.727C451.501 495.157 450.914 494.097 450.197 493.37C449.479 492.644 447.117 488.674 444.947 484.549C442.777 480.424 440.652 476.894 440.222 476.705C439.793 476.517 438.272 474.042 436.841 471.205C435.411 468.369 433.907 465.824 433.498 465.549C433.089 465.274 431.9 463.474 430.855 461.549C427.814 455.946 425.276 452.259 422.291 449.109C420.759 447.492 419.506 445.796 419.506 445.34C419.506 444.222 412.273 434.808 410.973 434.234C410.405 433.984 409.017 434.528 407.886 435.443ZM263.008 441.987C261.917 442.811 260.179 443.5 259.144 443.517C257.138 443.551 250.51 447.24 249.301 448.996C248.163 450.65 249.64 463.873 251.159 465.628C251.911 466.496 252.526 467.733 252.526 468.376C252.526 472.488 266.943 486.503 271.253 486.581C272.227 486.598 273.898 487.273 274.965 488.081C277.593 490.069 290.047 490.044 293.885 488.043C295.653 487.121 299.507 486.549 303.952 486.549C311.756 486.549 323.977 483.788 328.083 481.098C330.644 479.419 330.928 469.141 328.456 467.536C328.022 467.254 326.675 464.329 325.463 461.036C324.25 457.743 322.643 454.339 321.889 453.47C321.135 452.602 320.518 451.571 320.518 451.178C320.518 450.184 314.161 441.636 313.386 441.588C313.037 441.567 312.517 442.449 312.229 443.549C311.54 446.184 308.044 446.136 306.174 443.466C304.212 440.664 266.469 439.37 263.008 441.987ZM153.332 474.799C152.542 476.036 150.887 479.299 149.656 482.049C148.424 484.799 146.796 488.399 146.039 490.049C145.281 491.699 143.709 495.299 142.546 498.049C141.383 500.799 140.015 503.949 139.506 505.049C138.997 506.149 138.124 508.174 137.564 509.549C137.004 510.924 136.141 512.724 135.645 513.549C135.15 514.374 133.944 517.074 132.966 519.549C129.525 528.254 127.537 532.434 126.545 533.047C125.993 533.388 125.542 534.767 125.542 536.112C125.542 537.456 124.642 540.235 123.542 542.288C122.442 544.34 121.543 546.758 121.543 547.662C121.543 548.565 120.868 549.864 120.043 550.549C119.218 551.234 118.543 552.809 118.543 554.049C118.543 555.289 117.868 556.864 117.043 557.549C116.218 558.234 115.543 559.809 115.543 561.049C115.543 562.289 114.917 563.824 114.153 564.459C113.388 565.094 112.539 566.836 112.267 568.331C111.995 569.826 111.31 572.399 110.744 574.049C101.576 600.804 103.107 608.427 122.221 631.164C134.865 646.207 138.645 646.741 139.099 633.549C139.248 629.238 140.518 623.476 142.737 617.049C143.306 615.399 144.112 611.543 144.526 608.481C144.94 605.418 145.752 601.368 146.332 599.481C147.512 595.638 149.174 587.758 150.515 579.649C151.006 576.679 151.819 573.979 152.321 573.649C152.824 573.319 153.537 571.12 153.905 568.762C154.273 566.404 155.234 562.579 156.041 560.262C156.848 557.945 157.519 554.474 157.531 552.549C157.542 550.624 158.223 547.76 159.044 546.185C159.866 544.609 160.541 542.134 160.544 540.685C160.548 539.235 161.222 536.76 162.043 535.185C162.865 533.609 163.537 530.806 163.537 528.955C163.537 527.104 164.175 523.893 164.955 521.819C165.734 519.746 166.66 515.124 167.011 511.549C167.88 502.716 168.056 501.696 168.85 500.903C170.511 499.241 169.589 488.549 167.784 488.549C164.842 488.549 160.542 483.135 160.506 479.389C160.447 473.18 156.129 470.418 153.332 474.799ZM475.877 647.388C474.71 648.363 473.444 650.148 473.061 651.355C472.678 652.562 472.004 653.549 471.564 653.549C471.125 653.549 469.637 655.237 468.259 657.299C466.881 659.362 462.974 664.069 459.575 667.76C453.749 674.087 453.435 674.679 454.078 678.107C457.771 697.795 502.821 709.346 513.237 693.275C514.743 690.951 516.349 688.777 516.806 688.445C517.263 688.113 518.08 686.088 518.622 683.945C519.163 681.802 520.02 678.474 520.526 676.549C521.529 672.732 521.795 664.504 520.985 662.381C520.607 661.391 518.526 661.134 512.881 661.382C501.678 661.872 491.376 657.759 482.191 649.126C480.098 647.158 478.299 645.564 478.192 645.582C478.085 645.601 477.044 646.413 475.877 647.388ZM524.031 648.488C523.712 649.004 524.136 649.809 524.972 650.278C530.07 653.131 533.077 676.749 529.024 682.108C528.216 683.175 527.541 685.516 527.524 687.309C527.473 692.495 518.513 704.454 511.084 709.252C507.772 711.39 505.787 711.824 498.111 712.087C488.925 712.403 487.154 713.226 489.525 716.083C491.21 718.114 494.167 717.915 498.058 715.51C501.731 713.24 506.874 714.115 525.844 720.233C535.817 723.449 536.726 724.567 538.124 735.325C540.406 752.889 540.812 755.086 542.138 757.022C542.882 758.106 543.49 759.706 543.49 760.575C543.49 762.602 549.589 768.549 551.668 768.549C553.721 768.549 559.488 762.65 559.488 760.55C559.488 759.66 560.148 758.058 560.955 756.99C561.763 755.923 562.438 753.912 562.455 752.522C562.473 751.131 563.121 749.09 563.895 747.986C564.668 746.881 565.619 743.851 566.009 741.251C566.399 738.651 567.116 736.278 567.602 735.978C568.089 735.677 568.487 734.573 568.487 733.525C568.487 732.477 569.158 729.643 569.977 727.229C570.797 724.815 571.911 719.511 572.453 715.444C572.996 711.377 573.726 706.347 574.076 704.266C574.723 700.422 571.049 695.517 560.552 686.208C559.213 685.021 555.636 681.687 552.604 678.799C548.001 674.417 546.482 673.549 543.413 673.549C538.849 673.549 537.847 672.37 537.035 666.049C535.266 652.258 527.871 642.273 524.031 648.488ZM175.536 692.115C175.536 699.04 174.474 701.084 170.133 702.517C168.253 703.138 166.464 704.296 166.16 705.09C165.604 706.538 165.934 706.944 170.493 710.426C172.822 712.205 172.961 712.893 173.158 723.647C173.288 730.735 173.774 735.128 174.451 735.354C175.048 735.553 175.536 736.801 175.536 738.128C175.536 749.236 187.301 764.713 192.938 761.02C196.13 758.928 201.34 748.898 202.011 743.55C202.299 741.259 203.21 738.421 204.033 737.244C204.858 736.067 205.548 733.967 205.567 732.576C205.587 731.186 206.246 728.924 207.032 727.549C207.925 725.987 208.474 722.115 208.497 717.233C208.516 712.935 209.028 708.491 209.634 707.358C211.022 704.763 209.159 700.853 206.122 699.986C201.403 698.64 193.533 695.126 193.533 694.365C193.533 693.916 193.016 693.549 192.384 693.549C190.835 693.549 180.635 688.52 179.957 687.422C177.951 684.175 175.536 686.738 175.536 692.115Z"
  />
</svg>
