<svg
  width="573"
  height="771"
  viewBox="0 0 573 771"
  fill="none"
  xmlns="http://www.w3.org/2000/svg"
>
  <path
    fill-rule="evenodd"
    clip-rule="evenodd"
    fill="black"
    d="M234.521 2.05932C235.084 2.70832 236.404 3.71832 237.454 4.30532C238.505 4.89232 239.843 6.15131 240.43 7.10431C241.017 8.05731 243.394 10.8853 245.712 13.3883C248.029 15.8923 250.201 18.8093 250.538 19.8713C250.875 20.9333 252.227 22.9633 253.542 24.3823C254.855 25.8003 256.23 27.9233 256.597 29.0993C256.963 30.2763 258.456 32.8133 259.915 34.7383C261.373 36.6633 263.847 40.8353 265.411 44.0093C266.975 47.1843 268.646 50.0233 269.124 50.3183C269.603 50.6143 269.994 51.8993 269.994 53.1753C269.994 54.4503 270.668 56.0533 271.493 56.7383C272.318 57.4233 272.993 58.7733 272.993 59.7383C272.993 60.7033 273.668 62.0533 274.493 62.7383C275.318 63.4233 275.993 64.6383 275.993 65.4393C275.993 66.2393 277.568 70.1693 279.492 74.1713C281.417 78.1733 283.008 82.3013 283.027 83.3433C283.047 84.3853 283.706 86.3633 284.492 87.7383C285.278 89.1133 285.937 91.8353 285.957 93.7883C285.976 95.7403 286.488 97.8353 287.095 98.4423C288.283 99.6303 290.531 108.553 292.082 118.238C292.61 121.538 293.481 125.019 294.017 125.974C294.553 126.929 294.99 129.067 294.99 130.724C294.99 133.588 296.262 134.727 297.4 132.884C297.69 132.414 302.007 131.722 306.995 131.345C311.981 130.969 317.21 130.223 318.616 129.689C322.054 128.382 326.373 130.46 326.824 133.639C327.844 140.826 306.172 173.798 297.49 178.268C296.39 178.834 295.528 180.071 295.573 181.018C295.619 181.964 295.732 195.548 295.823 211.204C295.99 239.669 295.99 239.669 300.973 240.33C303.712 240.694 306.467 241.609 307.094 242.365C307.721 243.12 308.872 243.738 309.651 243.738C310.901 243.738 316.132 246.302 320.874 249.238C321.763 249.788 324.276 251.986 326.461 254.122C328.645 256.258 332.222 259.183 334.407 260.622C336.592 262.061 339.742 264.476 341.405 265.988C343.069 267.5 344.994 268.738 345.684 268.738C350.724 268.738 350.951 279.145 345.975 282.084C342.298 284.257 343.254 287.199 347.974 288.236C349.628 288.599 353.569 290.149 356.732 291.679C359.895 293.21 364.282 295.329 366.482 296.388C369.97 298.068 374.756 300.821 380.128 304.238C393.98 313.049 425.753 345.426 426.707 351.702C427.103 354.308 428.511 356.365 432.062 359.526C435.22 362.335 436.678 364.34 436.295 365.341C435.939 366.269 436.971 368.173 438.921 370.184C442.62 374.001 442.898 383.565 439.637 394.738C438.754 397.763 437.33 402.938 436.472 406.238C435.614 409.538 434.476 413.019 433.942 413.974C433.41 414.929 432.973 416.376 432.973 417.189C432.973 418.003 432.254 420.784 431.376 423.371C430.498 425.958 429.578 429.236 429.331 430.656C429.084 432.076 428.364 434.692 427.733 436.469C426.457 440.063 428.573 446.263 431.451 447.368C433.248 448.057 439.685 457.345 443.928 465.368C445.636 468.597 448.143 472.435 449.501 473.898C450.86 475.361 451.971 477.042 451.971 477.633C451.971 478.224 453.321 480.902 454.97 483.584C456.62 486.265 457.97 489.165 457.97 490.027C457.97 490.89 458.636 492.261 459.449 493.074C460.262 493.888 462.012 496.592 463.337 499.084C464.661 501.576 466.637 504.88 467.726 506.426C468.815 507.973 470.051 510.363 470.474 511.738C470.896 513.113 472.47 516.038 473.968 518.238C475.467 520.438 477.02 523.28 477.419 524.554C477.818 525.827 480.129 529.769 482.555 533.313C484.981 536.858 486.966 540.473 486.966 541.347C486.966 542.221 489.103 545.04 491.716 547.611C494.329 550.182 497.365 554.075 498.465 556.262C499.565 558.449 500.724 560.463 501.04 560.738C502.746 562.223 509.963 577.798 509.963 579.995C509.963 580.889 510.414 581.898 510.963 582.238C511.513 582.578 511.963 584.153 511.963 585.738C511.963 587.323 512.335 588.849 512.787 589.129C513.24 589.409 513.431 593.373 513.213 597.938C512.816 606.238 512.815 606.238 517.373 611.238C519.879 613.988 521.938 616.625 521.946 617.098C521.995 619.761 548.889 644.623 553.731 646.481C558.299 648.234 566.953 662.228 566.963 667.878C566.967 669.726 567.641 672.527 568.462 674.102C569.284 675.678 569.963 678.828 569.971 681.102C569.979 683.377 570.592 686.977 571.332 689.103C573.279 694.697 573.317 724.139 571.381 727.882C570.597 729.398 569.956 732.6 569.956 734.997C569.956 737.394 569.295 740.229 568.488 741.297C567.681 742.364 567.006 743.78 566.989 744.443C566.827 750.554 553.456 753.051 546.43 748.283C542.518 745.628 534.97 738.204 534.944 736.987C534.936 736.575 532.912 733.991 530.445 731.245C527.979 728.498 525.955 725.798 525.949 725.245C525.942 724.691 524.094 722.253 521.842 719.828C519.589 717.402 517.302 714.14 516.757 712.578C516.213 711.016 515.402 709.738 514.954 709.738C514.507 709.738 513.139 707.6 511.916 704.988C507.917 696.458 501.239 691.484 492.125 690.249C489.188 689.851 485.589 688.901 484.126 688.138C482.664 687.375 480.32 686.748 478.918 686.744C474.817 686.734 473.968 684.994 473.968 676.601C473.968 669.433 473.766 668.68 471.218 666.365C469.707 664.99 466.102 661.699 463.208 659.052C460.315 656.404 457.278 653.658 456.459 652.949C453.1 650.04 455.561 641.738 459.783 641.738C462.281 641.738 464.33 640.949 479.263 634.24C487.709 630.445 497.965 619.348 497.965 614.003C497.965 613.307 498.318 612.738 498.749 612.738C499.999 612.738 502.964 607.138 502.964 604.779C502.964 603.596 503.918 600.537 505.082 597.981C506.721 594.38 506.942 592.984 506.061 591.786C505.436 590.934 504.251 588.888 503.429 587.238C502.607 585.588 501.538 583.563 501.052 582.738C500.566 581.913 499.486 579.438 498.652 577.238C497.817 575.038 496.874 572.563 496.556 571.738C496.238 570.913 495.557 569.563 495.045 568.738C494.531 567.913 493.856 566.563 493.545 565.738C492.565 563.142 490.587 560.541 486.77 556.831C482.378 552.563 477.968 546.231 477.968 544.194C477.968 543.393 477.507 542.738 476.943 542.738C476.38 542.738 475.469 541.725 474.92 540.488C474.37 539.251 472.853 536.438 471.548 534.238C470.244 532.038 467.5 527.088 465.452 523.238C463.403 519.388 461.16 515.563 460.467 514.738C459.774 513.913 458.873 512.148 458.466 510.815C457.762 508.511 457.088 507.472 454.221 504.275C453.534 503.508 452.971 502.596 452.971 502.248C452.971 501.56 448.535 492.48 446.615 489.238C445.964 488.138 444.315 485.437 442.952 483.235C441.588 481.034 439.348 477.042 437.973 474.364C436.598 471.687 434.259 468.177 432.774 466.566C431.29 464.955 429.831 462.862 429.53 461.916C429.23 460.969 427.674 458.761 426.073 457.008C423.091 453.742 419.975 456.412 419.975 462.235C419.975 463.167 419.35 465.124 418.586 466.584C417.823 468.044 416.645 471.713 415.968 474.738C415.292 477.763 413.667 482.412 412.358 485.07C411.048 487.728 409.976 490.521 409.976 491.276C409.976 492.754 405.353 500.958 401.845 505.702C399.095 509.424 396.124 510.524 387.589 510.981C379.909 511.393 379.663 511.582 372.28 522.738C368.354 528.67 344.852 552.738 342.985 552.738C342.362 552.738 340.288 553.931 338.376 555.389C336.074 557.145 333.228 558.201 329.944 558.516C325.22 558.97 323.837 559.909 325.96 561.221C327.138 561.95 327.901 563.61 336.985 585.238C340.913 594.588 344.769 603.656 345.555 605.389C346.341 607.122 346.984 608.952 346.984 609.456C346.984 609.96 348.334 613.012 349.983 616.238C351.633 619.464 352.983 622.549 352.983 623.092C352.983 623.636 353.568 624.791 354.282 625.659C354.996 626.528 356.678 629.713 358.02 632.738C359.36 635.763 361.7 639.993 363.22 642.138C364.739 644.283 365.982 646.815 365.982 647.766C365.982 648.716 366.657 650.053 367.482 650.738C368.306 651.423 368.988 653.165 368.996 654.61C369.046 663.526 376.287 665.738 392.478 661.785C394.678 661.248 399.458 660.183 403.1 659.419C406.743 658.655 410.779 657.289 412.072 656.384C413.364 655.479 415.293 654.738 416.36 654.738C418.844 654.738 427.786 652.155 435.473 649.216C446.202 645.115 448.971 645.615 448.971 651.654C448.971 656.238 438.666 661.751 424.474 664.76C418.463 666.034 411.723 667.894 409.476 668.898C408.376 669.39 405.227 670.207 402.477 670.714C396.51 671.815 383.63 674.878 383.118 675.318C382.918 675.489 383.41 677.566 384.211 679.934C387.578 689.889 376.44 689.578 372.743 679.613C371.66 676.695 334.251 676.372 329.486 679.239C328.131 680.055 320.725 680.513 306.489 680.66C294.94 680.78 285.064 681.296 284.542 681.808C283.186 683.136 225.467 682.996 220.629 681.652C212.499 679.394 211.989 687.333 219.802 694.555C225.471 699.795 226.903 705.839 223.532 710.297C222.707 711.388 222.05 714.44 222.032 717.265C222.014 720.031 221.391 723.181 220.649 724.265C219.906 725.35 218.998 727.475 218.63 728.988C218.263 730.5 217.52 731.738 216.981 731.738C216.441 731.738 216.001 732.569 216.001 733.585C216.001 734.601 215.1 736.47 214.001 737.738C212.901 739.006 212.001 740.454 212.001 740.955C212.001 744.026 192.781 761.76 186.004 764.943C168.134 773.335 159.65 771.72 158.389 759.686C158.075 756.69 157.235 752.888 156.521 751.238C154.941 747.584 155.099 726.548 156.722 724.564C159.139 721.607 159.419 706.14 157.122 702.422C153.321 696.273 155.22 688.501 160.991 686.577C162.128 686.198 162.076 685.245 160.686 680.991C159.763 678.17 159.007 675.034 159.007 674.023C159.007 673.011 158.268 671.126 157.363 669.834C156.458 668.542 155.445 664.967 155.113 661.889C154.659 657.691 154.008 656.033 152.508 655.253C142.952 650.286 127.011 633.494 127.011 628.396C127.011 627.619 126.337 626.423 125.512 625.738C124.687 625.053 124.012 623.703 124.012 622.738C124.012 621.773 123.337 620.423 122.512 619.738C120.293 617.896 120.576 612.042 122.946 610.773C126.154 609.056 128.82 609.547 129.548 611.988C134.514 628.627 148.601 643.802 164.187 649.301C166.361 650.068 169.346 651.533 170.822 652.557C172.298 653.58 176.205 655.481 179.505 656.781C182.805 658.08 186.179 659.649 187.004 660.265C199.934 669.936 255.241 675.201 295.99 670.64C306.107 669.508 329.329 667.894 344.984 667.236C364.46 666.417 366.841 664.644 360.233 655.878C355.725 649.898 349.983 639.281 349.983 636.925C349.983 636.407 349.309 635.423 348.484 634.738C347.659 634.053 346.984 632.703 346.984 631.738C346.984 630.773 346.309 629.423 345.484 628.738C344.659 628.053 343.984 626.703 343.984 625.738C343.984 624.773 343.309 623.423 342.484 622.738C341.66 622.053 340.97 620.761 340.951 619.866C340.932 618.97 340.048 616.438 338.985 614.238C337.922 612.038 337.039 609.477 337.02 608.547C337.001 607.617 336.585 606.609 336.096 606.306C335.607 606.004 334.909 604.573 334.546 603.127C334.184 601.68 333.234 599.844 332.437 599.046C331.639 598.248 330.986 596.668 330.986 595.535C330.986 594.401 330.145 592.071 329.116 590.356C328.088 588.641 326.453 585.101 325.482 582.488C324.51 579.876 323.362 577.738 322.931 577.738C322.499 577.738 321.856 576.419 321.503 574.807C321.149 573.195 320.212 571.34 319.423 570.685C318.634 570.029 317.987 568.738 317.987 567.816C317.987 566.893 317.486 565.636 316.872 565.022C315.51 563.66 313.244 559.856 312.39 557.499C312.044 556.543 310.238 554.819 308.375 553.668C306.513 552.517 304.989 551.197 304.989 550.736C304.989 550.274 303.689 549.611 302.1 549.262C299.263 548.639 292.738 541.914 290.029 536.822C288.577 534.093 289.096 524.254 290.856 521.15C294.4 514.901 294.991 511.738 292.617 511.738C290.202 511.738 285.992 504.971 285.992 501.09C285.992 498.904 283.448 493.592 280.254 489.106C279.071 487.443 277.45 484.317 276.654 482.16C273.424 473.411 272.437 471.179 271.243 469.917C270.556 469.19 269.994 467.764 269.994 466.748C269.994 465.731 269.355 463.626 268.574 462.069C267.26 459.452 266.379 457.17 263.039 447.738C262.357 445.813 261.463 442.663 261.052 440.738C260.641 438.813 259.448 435.586 258.4 433.567C251.894 421.03 247.996 412.53 247.996 410.88C247.996 407.406 245.176 406.135 244.048 409.101C242.805 412.373 238.572 413.57 235.113 411.629C232.256 410.025 226.654 400.079 227.446 398.015C227.732 397.269 227.458 395.845 226.836 394.849C223.88 390.116 228.779 385.144 235.144 386.417C238.977 387.184 238.655 384.647 233.333 372.087C232.599 370.354 231.999 368.094 231.999 367.066C231.999 366.037 230.986 364.229 229.749 363.047C213.894 347.9 200.003 333.137 200.003 331.435C200.003 330.721 199.46 329.596 198.798 328.934C197.503 327.638 190.004 333.933 190.004 336.319C190.004 336.965 189.329 338.053 188.504 338.738C187.679 339.423 187.004 341.061 187.004 342.379C187.004 343.697 185.654 347.306 184.004 350.398C182.355 353.49 181.005 356.469 181.005 357.018C181.005 357.567 179.667 360.192 178.031 362.85C176.395 365.509 174.762 368.858 174.402 370.292C174.042 371.726 173.132 373.136 172.377 373.426C171.623 373.715 171.006 374.852 171.006 375.951C171.006 377.051 169.716 379.59 168.14 381.594C166.563 383.598 164.977 386.191 164.615 387.356C164.253 388.521 163.067 390.278 161.981 391.261C159.187 393.79 159.163 404.396 161.945 407.932C163.011 409.287 164.171 411.71 164.523 413.317C164.875 414.924 165.561 417.138 166.049 418.238C167.855 422.307 171.006 432.737 171.006 434.647C171.006 435.732 171.418 436.875 171.921 437.186C172.883 437.78 177.001 449.723 177.011 451.947C177.015 452.657 177.694 454.535 178.521 456.12C179.347 457.706 180.304 460.856 180.647 463.12C181.399 468.082 183.494 470.738 186.659 470.738C191.712 470.738 194.84 477.464 193.708 485.9C193.044 490.854 189.623 494.738 185.926 494.738C182.859 494.738 183.167 493.4 181.168 515.464C180.609 521.639 179.591 528.241 178.906 530.136C177.724 533.405 177.829 533.773 180.96 537.34C186.614 543.78 183.178 560.953 175.947 562.4C172.272 563.135 171.747 563.943 170.865 570.238C169.86 577.403 167.546 586.876 166.179 589.422C165.534 590.624 165.007 592.957 165.007 594.607C165.007 596.258 164.496 598.875 163.872 600.423C162.651 603.452 160.349 614.434 159.404 621.738C158.206 630.998 154.134 635.721 150.49 632.078C148.556 630.142 148.565 622.249 150.508 616.738C151.333 614.4 152.008 610.954 152.008 609.08C152.008 607.207 152.683 604.058 153.508 602.084C154.333 600.109 155.008 596.285 155.008 593.584C155.008 590.143 155.457 588.503 156.508 588.1C157.333 587.783 158.007 586.487 158.007 585.22C158.007 583.953 158.901 580.064 159.994 576.577C161.087 573.091 161.987 568.761 161.994 566.956C162.001 565.151 162.682 562.058 163.507 560.084C164.332 558.109 165.023 554.861 165.042 552.866C165.062 550.871 165.721 548.113 166.506 546.738C167.292 545.363 167.951 542.506 167.971 540.389C167.99 538.272 168.645 535.122 169.426 533.389C170.206 531.656 171.148 525.288 171.517 519.238C171.887 513.188 172.318 506.08 172.476 503.443C172.633 500.806 173.042 498.369 173.384 498.027C174.397 497.013 174.092 492.738 173.006 492.738C172.456 492.738 172.006 492.11 172.006 491.342C172.006 490.574 170.431 488.562 168.506 486.872C162.598 481.684 164.433 475.896 171.617 477.062C175.21 477.646 175.21 477.646 174.549 474.119C173.719 469.691 170.469 464.18 169.557 465.655C168.567 467.258 164.443 466.968 162.969 465.193C161.862 463.858 161.451 464.233 159.956 467.943C159.004 470.305 156.147 477.188 153.608 483.238C151.069 489.288 148.995 494.6 149 495.043C149.005 495.486 148.157 497.736 147.115 500.043C144.326 506.219 139.883 518.791 139.269 522.238C138.976 523.888 138.122 526.126 137.373 527.211C136.623 528.295 136.01 530.649 136.01 532.44C136.01 534.232 135.374 537.394 134.597 539.468C133.819 541.541 132.92 545.443 132.596 548.137C132.273 550.832 131.616 553.532 131.137 554.137C130.658 554.743 130.003 558.388 129.681 562.238C129.36 566.088 128.586 572.388 127.962 576.238C127.337 580.088 126.831 584.363 126.84 585.738C126.883 592.892 124.683 602.707 122.912 603.27C117.133 605.104 115.62 597.37 118.012 578.238C118.493 574.388 119.296 567.851 119.795 563.711C120.294 559.572 121.214 555.231 121.837 554.066C122.46 552.901 123.266 549.313 123.627 546.093C123.989 542.873 124.684 539.728 125.173 539.105C125.662 538.483 126.23 535.783 126.435 533.105C126.64 530.428 127.526 526.888 128.402 525.238C129.28 523.588 130.016 520.663 130.037 518.738C130.058 516.813 130.735 514.364 131.543 513.297C132.35 512.229 133.011 510.597 133.011 509.669C133.011 508.742 133.685 507.423 134.51 506.738C135.335 506.053 136.01 504.519 136.01 503.328C136.01 502.137 137.585 497.372 139.51 492.738C141.435 488.104 143.009 483.728 143.009 483.012C143.009 482.296 143.428 480.929 143.938 479.974C144.449 479.019 145.82 475.988 146.986 473.238C148.153 470.488 149.759 466.964 150.557 465.407C152.688 461.249 152.357 460.633 149.015 462.535C147.369 463.471 146.019 464.543 146.015 464.916C146.005 466.035 134.389 472.738 132.459 472.738C131.474 472.738 129.799 473.526 128.736 474.488C125.779 477.166 107.167 477 100.989 474.239C95.1546 471.633 83.935 459.744 81.9322 454.047C81.4673 452.725 74.5389 444.657 68.6436 438.572C65.0911 434.904 64.8162 434.227 65.3302 430.405C65.7081 427.593 65.424 425.607 64.4552 424.297C63.6653 423.229 63.0196 421.278 63.0196 419.961C63.0196 418.644 62.2667 414.741 61.3468 411.288C59.801 405.486 59.795 404.335 61.2628 396.124C62.1357 391.237 62.8597 383.188 62.8707 378.238C62.8837 372.654 63.4843 367.577 64.4552 364.862C65.3151 362.456 66.022 358.631 66.025 356.362C66.029 354.094 66.6433 351.067 67.3902 349.635C68.1371 348.203 69.0596 344.951 69.4405 342.408C69.8225 339.865 70.5588 337.523 71.0768 337.202C71.5947 336.882 72.0281 334.509 72.0401 331.929C72.0521 329.349 72.9523 325.276 74.0401 322.879C75.128 320.481 76.0196 317.781 76.0216 316.879C76.0236 315.976 77.3719 312.538 79.0177 309.238C81.0594 305.144 82.0113 301.748 82.0133 298.547C82.0153 295.967 82.3922 293.624 82.8512 293.341C90.3832 288.685 89.448 284.971 77.8604 273.51C66.5009 262.276 64.5872 260.137 60.4957 254.108C53.7145 244.113 51.342 242.291 44.2169 241.605C21.8297 239.448 6.51278 232.369 0.984467 221.624C-1.24625 217.287 4.21651 209.475 10.3687 208.204C12.1045 207.845 16.3394 206.243 19.7779 204.645C23.2165 203.046 26.8161 201.723 27.7769 201.705C33.5242 201.595 34.9498 197.212 31.0953 191.5C29.4855 189.114 27.8609 185.937 27.485 184.441C27.11 182.944 26.4277 181.488 25.9708 181.205C25.5139 180.923 24.8326 178.564 24.4566 175.965C24.0797 173.365 23.2745 170.616 22.6666 169.857C22.0587 169.097 21.2459 164.147 20.859 158.857C20.473 153.566 19.6911 146.313 19.1212 142.738C17.9463 135.362 18.6852 105.241 20.106 102.587C20.611 101.642 21.025 97.5513 21.025 93.4953C21.025 88.5593 21.5094 85.4783 22.4923 84.1793C23.3002 83.1123 23.9753 80.9993 23.9923 79.4843C24.0103 77.9703 24.9242 75.0523 26.024 72.9993C27.1239 70.9473 28.034 68.3613 28.046 67.2533C28.146 58.2183 44.3261 55.9593 55.4937 63.4203C56.5776 64.1453 58.0703 64.7383 58.8092 64.7383C61.2029 64.7383 67.277 70.1113 68.6798 73.4693C70.3286 77.4173 72.0182 77.7273 72.0182 74.0823C72.0182 70.7433 76.503 64.7383 78.9967 64.7383C80.0295 64.7383 81.4695 64.1733 82.1964 63.4833C85.132 60.6943 94.6366 54.7383 96.1515 54.7383C97.0423 54.7383 98.3303 54.0633 99.0152 53.2383C99.7001 52.4133 101.015 51.7383 101.937 51.7383C102.859 51.7383 104.107 51.2453 104.709 50.6433C106.745 48.6073 122.479 42.6943 127.511 42.0743C130.261 41.7353 133.726 40.8463 135.211 40.0983C136.696 39.3503 139.396 38.7313 141.21 38.7233C143.025 38.7153 146.309 38.0593 148.509 37.2673C154.096 35.2543 173.784 35.2563 176.446 37.2703C177.514 38.0773 179.776 38.7383 181.474 38.7383C183.171 38.7383 185.561 39.4403 186.786 40.2983C191.103 43.3223 196.451 41.8633 196.809 37.5643C196.977 35.5433 197.765 33.3513 198.559 32.6923C199.353 32.0323 200.003 30.7033 200.003 29.7383C200.003 28.7733 200.677 27.4233 201.502 26.7383C202.327 26.0533 203.002 24.6753 203.002 23.6753C203.002 22.6743 203.459 21.5743 204.017 21.2293C204.575 20.8843 205.678 19.0573 206.465 17.1703C207.254 15.2823 208.372 13.7383 208.95 13.7383C209.528 13.7383 210.001 13.2703 210.001 12.6983C210.001 4.59532 229.412 -3.82668 234.521 2.05932ZM224 11.4443C221.97 12.1863 218 15.8673 218 17.0073C218 17.5133 215.975 20.9453 213.501 24.6343C211.026 28.3233 209.001 32.0163 209.001 32.8403C209.001 33.6643 208.614 34.7653 208.14 35.2883C207.666 35.8103 206.816 38.1383 206.254 40.4603C205.087 45.2673 205.367 45.6473 211.501 47.5843C223.219 51.2853 225.252 52.8033 224.727 57.4583C224.262 61.5863 225.454 63.3213 226.637 60.2383C228.221 56.1113 238.714 64.1623 243.123 72.8883C244.333 75.2803 246.074 78.1383 246.993 79.2383C249.895 82.7113 253.725 90.1053 254.504 93.7383C254.916 95.6633 256.268 99.5373 257.507 102.347C259.87 107.705 261.995 124.13 261.995 137.041C261.995 143.098 262.919 145.286 264.44 142.825C264.751 142.323 266.905 141.591 269.227 141.199C271.549 140.806 274.359 139.911 275.471 139.21C276.583 138.508 278.926 137.636 280.677 137.271C284.446 136.486 285.591 133.209 284.005 127.745C283.448 125.823 282.976 122.223 282.957 119.745C282.937 117.266 282.278 114.113 281.492 112.738C280.706 111.363 280.047 108.606 280.027 106.61C280.008 104.615 279.33 102.433 278.519 101.76C277.709 101.087 276.763 98.8953 276.417 96.8883C275.281 90.3023 272.786 82.2683 271.376 80.6593C270.616 79.7913 269.994 78.3223 269.994 77.3963C269.994 76.4693 269.56 74.9293 269.029 73.9743C268.498 73.0193 267.121 69.9883 265.968 67.2383C262.895 59.9033 260.994 56.1383 256.135 47.7583C253.738 43.6223 251.356 39.3383 250.843 38.2383C248.378 32.9503 243.743 26.2033 238.271 19.9343C236.496 17.9013 235.034 15.7273 235.021 15.1023C234.972 12.7013 227.419 10.1943 224 11.4443ZM156.672 46.1633C154.562 46.9323 150.063 47.8763 146.673 48.2613C143.283 48.6463 140.06 49.3023 139.51 49.7193C138.96 50.1363 136.71 50.7953 134.51 51.1843C125.901 52.7053 106.023 60.3113 100.033 64.3763C98.118 65.6753 96.0182 66.7383 95.3663 66.7383C94.7154 66.7383 94.0327 67.0763 93.8487 67.4883C93.6657 67.9003 91.4909 69.5683 89.0162 71.1933C86.5415 72.8193 83.3649 75.3403 81.9571 76.7963C80.5503 78.2533 78.8834 79.6233 78.2545 79.8413C77.6256 80.0593 76.9277 81.9123 76.7047 83.9593C76.3767 86.9713 72.8645 93.2083 70.0719 95.7393C68.85 96.8453 66.0193 103.005 66.0133 104.569C66.0093 105.487 65.3342 107.529 64.5113 109.106C63.6884 110.684 62.7817 114.959 62.4957 118.606C62.2097 122.254 61.6756 127.038 61.3097 129.238C60.5628 133.72 60.781 148.709 61.6559 153.097C62.2268 155.956 62.2267 155.956 63.3966 153.597C67.1081 146.111 73.0352 151.973 71.3204 161.434C69.9446 169.026 71.6565 202.136 73.6202 205.936C74.3891 207.423 75.0182 210.006 75.0182 211.677C75.0182 217.251 79.5876 232.469 83.5431 240.069C84.354 241.626 85.0167 243.678 85.0167 244.628C85.0167 245.578 85.6776 247.229 86.4845 248.297C87.2924 249.364 87.967 251.073 87.984 252.094C88.002 253.115 89.3213 255.598 90.9161 257.612C92.5109 259.626 94.0249 262.39 94.2799 263.756C94.5348 265.121 94.7845 259.938 94.8355 252.238C94.8865 244.538 94.4897 236.213 93.9527 233.738C93.4158 231.263 92.4848 225.863 91.8839 221.738C91.283 217.613 90.3923 213.742 89.9044 213.136C86.0339 208.328 88.5693 195.827 93.1207 197.271C94.7985 197.804 95.0199 197.322 95.0479 193.055C95.0649 190.406 95.7396 187.364 96.5475 186.297C98.3142 183.96 98.4762 174.043 96.8414 168.238C94.6687 160.521 95.1627 152.288 97.8204 151.911C102.407 151.261 106.608 158.346 105.574 164.988C105.141 167.772 105.341 168.738 106.353 168.738C108.657 168.738 114.457 166.457 115.513 165.136C116.063 164.448 118.403 162.918 120.712 161.737C131.646 156.143 146.278 137.859 148.721 126.738C149.023 125.363 149.817 123.563 150.487 122.738C151.156 121.913 151.996 120.419 152.353 119.418C153.269 116.843 157.148 117.651 158.69 120.738C159.376 122.113 160.619 124.588 161.452 126.238C162.285 127.888 163.525 130.476 164.206 131.988C164.888 133.5 165.814 134.738 166.266 134.738C167.07 134.738 172.374 138.258 174.552 140.238C175.966 141.524 181.286 144.093 187.004 146.254C189.479 147.189 192.697 148.58 194.157 149.346C195.617 150.112 198.375 150.738 200.285 150.738C202.195 150.738 204.317 151.413 205.002 152.238C205.695 153.074 207.874 153.738 209.923 153.738C211.946 153.738 214.122 154.26 214.76 154.898C216.198 156.336 222.067 156.691 223.736 155.44C228.363 151.977 231.688 159.223 228.391 165.581C225.123 171.879 229.018 178.487 236.093 178.653C239.786 178.74 239.932 176.347 236.699 168.738C236.348 167.913 235.316 164.988 234.405 162.238C233.494 159.488 231.905 156.165 230.875 154.853C229.843 153.541 228.999 151.779 228.999 150.936C228.999 148.4 222.067 136.49 218.339 132.621C214.195 128.32 213.783 122.483 217.587 121.94C220.106 121.58 227.999 126.534 227.999 128.476C227.999 129.236 229.574 131.921 231.499 134.442C233.423 136.963 234.998 140.059 234.998 141.323C234.998 142.586 235.414 143.878 235.924 144.193C236.434 144.508 237.404 146.447 238.079 148.502C238.753 150.557 240.36 153.917 241.651 155.968C242.941 158.02 243.99 160.27 243.983 160.968C243.962 162.792 247.992 175.78 249.497 178.738C250.197 180.113 251.085 183.148 251.47 185.483C251.855 187.817 252.581 189.981 253.083 190.292C253.585 190.602 253.996 192.482 253.996 194.468C253.996 196.455 254.723 198.883 255.61 199.865C256.498 200.846 257.349 203.132 257.5 204.944C257.652 206.756 257.825 208.827 257.885 209.547C257.946 210.267 258.445 210.578 258.995 210.238C260.232 209.474 260.368 173.086 259.136 172.325C258.664 172.034 258.022 168.975 257.71 165.528C257.239 160.339 256.675 158.859 254.431 156.928C252.071 154.899 251.654 153.663 251.221 147.417C250.905 142.86 250.225 139.946 249.359 139.438C248.61 138.998 247.996 138 247.996 137.219C247.996 135.314 244.224 128.171 242.432 126.684C241.643 126.029 240.997 124.952 240.997 124.29C240.997 123.628 239.872 122.03 238.498 120.738C235.954 118.348 235.266 114.443 236.927 111.819C238.33 109.603 246.805 113.124 247.588 116.249C247.912 117.538 248.811 118.837 249.586 119.134C251.512 119.873 251.445 112.147 249.496 108.738C248.71 107.363 248.051 105.056 248.031 103.61C248.012 102.165 247.322 100.423 246.497 99.7383C245.672 99.0533 244.997 97.6293 244.997 96.5733C244.997 94.2073 238.774 82.5183 234.918 77.6423C224.917 64.9953 218.111 60.4863 202.002 55.8343C190.121 52.4033 177.809 48.5873 174.005 47.1573C168.363 45.0353 160.932 44.6093 156.672 46.1633ZM35.7101 72.9883C33.4333 78.2473 31.0235 87.1843 31.0235 90.3663C31.0235 91.9893 30.3356 95.9603 29.4947 99.1893C27.568 106.585 27.2508 149.101 29.1046 151.336C29.7355 152.096 30.4614 155.76 30.7174 159.478C30.9743 163.196 31.8227 167.935 32.6036 170.008C33.3845 172.082 34.023 174.857 34.023 176.175C34.023 177.493 34.3601 178.721 34.773 178.905C36.1269 179.506 40.0226 185.624 40.0226 187.148C40.0226 187.968 40.6259 188.998 41.3648 189.438C42.1027 189.878 43.4454 191.385 44.3473 192.786C45.8291 195.088 46.4455 195.281 50.754 194.786C55.5204 194.238 55.5206 194.238 55.8155 186.342C56.0225 180.776 55.6544 177.486 54.5655 175.191C53.4957 172.937 53.0206 168.892 53.0206 162.037C53.0206 156.592 52.5891 151.706 52.0602 151.177C50.6213 149.738 50.0181 135.879 51.171 130.738C51.7259 128.263 52.5448 122.484 52.9918 117.897C53.4377 113.309 54.3028 109.056 54.9117 108.447C55.5216 107.837 56.0235 106.415 56.0265 105.288C56.0305 104.16 56.6414 102.071 57.3853 100.645C58.1303 99.2193 59.0394 96.4503 59.4063 94.4923C59.7743 92.5333 60.7366 90.6773 61.5465 90.3663C62.5124 89.9953 63.0196 88.3893 63.0196 85.7013C63.0196 75.2123 39.4886 64.2583 35.7101 72.9883ZM154.228 139.603C153.014 142.345 148.843 149.19 144.877 154.948C142.871 157.858 142.48 160.292 143.879 161.157C145.232 161.994 146.045 168.957 145.171 172.228C143.8 177.354 136.905 178.752 129.566 175.392C123.75 172.729 118.02 173.68 115.522 177.724C115.177 178.282 114.134 178.753 113.204 178.771C108.974 178.855 105.014 184.608 105.014 190.672C105.014 195.503 105.904 195.797 108.217 191.732C109.213 189.982 110.746 188.738 111.907 188.738C113.001 188.738 114.165 188.301 114.495 187.766C118.984 180.505 139.152 183.675 141.381 191.993C142.446 195.968 142.05 201.302 140.542 203.297C139.734 204.364 139.059 205.888 139.042 206.683C138.866 214.681 121.121 216.847 114.013 209.738C111.814 207.538 109.856 205.738 109.662 205.738C108.814 205.738 103.015 211.852 103.015 212.747C103.015 213.292 102.565 213.738 102.015 213.738C101.437 213.738 101.015 216.905 101.015 221.238C101.015 225.363 101.434 228.738 101.945 228.738C102.457 228.738 103.019 229.748 103.194 230.982C103.415 232.529 104.373 233.382 106.28 233.732C109.225 234.271 112.149 238.135 113.402 243.144C114.175 246.232 123.152 255.738 125.295 255.738C125.994 255.738 127.454 256.346 128.538 257.089C131.023 258.791 143.612 262.738 146.555 262.738C147.77 262.738 149.323 263.413 150.008 264.238C150.693 265.063 151.887 265.738 152.662 265.738C153.437 265.738 154.288 266.301 154.553 266.988C155.316 268.968 179.646 269.36 181.838 267.428C182.755 266.621 185.07 265.627 186.984 265.219C188.899 264.811 193.221 262.736 196.592 260.608C199.961 258.479 203.163 256.738 203.707 256.738C204.619 256.738 206.192 255.549 211.501 250.845C216.266 246.623 223 237.508 223 235.278C223 234.431 223.344 233.738 223.764 233.738C225.5 233.738 229.783 221.618 231.995 210.448C232.928 205.736 232.982 205.684 237.732 205.047C249.264 203.5 248.196 192.657 236.365 191.178C231.82 190.61 230.494 189.843 225.056 184.636C217.651 177.545 215.769 177.229 214.101 182.8C210.858 193.624 199.16 198.674 192.226 192.243C189.031 189.28 188.61 180.238 191.406 174.633C193.39 170.654 193.419 169.641 191.525 170.368C188.761 171.429 184.004 165.398 184.004 160.832C184.004 156.935 183.793 156.666 178.755 154.136C169.958 149.72 164.495 145.815 160.612 141.17C156.244 135.943 155.887 135.856 154.228 139.603ZM304.489 142.437C297.07 143.423 291.915 145.898 289.582 149.593C287.251 153.286 278.93 157.421 270.166 159.24C266.837 159.931 266.837 159.931 267.318 166.585C267.927 175.011 270.384 185.532 271.371 183.936C271.778 183.277 272.872 182.72 273.802 182.697C274.732 182.675 277.05 181.325 278.954 179.697C280.858 178.07 282.975 176.738 283.658 176.738C285.343 176.738 295.99 166.618 295.99 165.017C295.99 164.314 296.565 163.738 297.268 163.738C299.236 163.738 308.989 151.123 308.989 148.577C308.989 147.927 309.708 146.601 310.587 145.63C311.465 144.659 311.888 143.386 311.527 142.801C310.87 141.736 310.071 141.694 304.489 142.437ZM91.7569 158.988C93.9567 161.777 94.1395 179.614 91.9908 181.763C87.1804 186.574 85.0167 183.154 85.0167 170.738C85.0167 159.174 87.9164 154.118 91.7569 158.988ZM201.657 177.567C199.608 179.83 199.502 182.738 201.467 182.738C203.073 182.738 205.002 179.772 205.002 177.304C205.002 175.221 203.686 175.324 201.657 177.567ZM284.992 188.73C284.992 189.341 283.53 190.499 281.742 191.304C279.955 192.109 277.818 193.163 276.993 193.646C276.168 194.129 274.343 194.973 272.938 195.521C269.955 196.684 267.812 205.697 267.472 218.502C267.336 223.623 266.794 226.301 265.636 227.581C263.36 230.097 263.432 233.193 265.744 232.204C266.706 231.792 268.732 231.243 270.244 230.983C272.938 230.52 274.053 225.049 273.144 216.738C272.368 209.636 277.647 198.392 280.814 200.406C282.259 201.325 282.492 203.496 282.492 216.055C282.492 226.386 282.856 231.001 283.742 231.887C285.328 233.474 285.353 236.976 283.792 238.538C282.859 239.471 282.97 239.738 284.292 239.738C285.226 239.738 286.028 239.176 286.072 238.488C286.115 237.801 286.595 233.413 287.139 228.738C289.152 211.432 289.25 201.982 287.462 197.301C286.546 194.899 286.083 192.028 286.434 190.92C286.786 189.813 286.605 188.617 286.033 188.263C285.46 187.909 284.992 188.119 284.992 188.73ZM121.762 195.818C117.538 198.279 121.18 202.738 127.416 202.738C130.394 202.738 132.312 198.87 130.536 196.442C129.16 194.56 124.492 194.228 121.762 195.818ZM35.273 210.459C32.9363 211.267 31.0235 212.335 31.0235 212.833C31.0235 213.331 29.7407 213.738 28.1729 213.738C25.8702 213.738 19.8729 216.277 14.7105 219.438C13.6707 220.074 16.9372 223.738 18.545 223.738C19.2109 223.738 20.8986 224.638 22.2975 225.738C23.7293 226.864 26.3545 227.738 28.3062 227.738C30.213 227.738 33.5163 228.345 35.6471 229.087C41.1334 230.997 56.9873 231.068 61.4518 229.202C63.4085 228.384 65.2373 227.72 65.5143 227.727C69.0548 227.807 69.2296 227.657 68.7066 224.988C67.2038 217.317 65.6303 214.666 62.9337 215.257C47.8486 218.567 37.6684 215.974 41.4869 209.795C42.3248 208.438 40.5794 208.625 35.273 210.459ZM244.786 215.333C244.077 216.211 242.505 218.011 241.292 219.333C240.08 220.656 238.788 223.426 238.423 225.488C238.057 227.551 236.521 231.288 235.008 233.793C233.495 236.298 231.917 239.448 231.503 240.793C231.087 242.138 229.454 245.173 227.873 247.538C226.292 249.903 224.999 252.033 224.999 252.272C224.999 253.055 232.833 248.642 234.052 247.173C234.707 246.384 235.933 245.738 236.775 245.738C237.618 245.738 239.813 244.59 241.653 243.187C243.493 241.784 246.623 239.956 248.61 239.126C252.222 237.617 252.222 237.617 251.552 228.927C250.362 213.488 248.805 210.36 244.786 215.333ZM185.804 237.938C187.383 239.517 187.348 246.226 185.754 247.463C181.225 250.977 171.037 252.46 167.471 250.123C161.815 246.416 165.239 239.758 172.827 239.706C175.4 239.689 178.379 239.014 179.446 238.206C181.8 236.426 184.191 236.325 185.804 237.938ZM67.2691 239.091C62.0008 240.246 62.0058 240.394 67.5191 246.527C69.9938 249.28 72.0324 251.916 72.0504 252.385C72.1514 255.11 82.0172 262.965 82.0172 260.32C82.0172 259.515 81.606 258.602 81.1041 258.291C80.0952 257.668 76.0385 249.654 75.9815 248.172C75.7756 242.764 71.3856 238.188 67.2691 239.091ZM256.545 248.657C256.178 249.251 254.874 249.738 253.648 249.738C250.107 249.738 230.999 260.802 230.999 262.852C230.999 263.879 236.764 262.861 239.498 261.352C240.598 260.744 241.947 260.22 242.497 260.188C243.047 260.155 245.222 259.788 247.33 259.372C254.374 257.983 258.444 263.257 254.224 268.304C253.117 269.627 250.22 270.815 246.164 271.61C235.121 273.773 231.449 277.548 236.393 281.651C237.161 282.288 238.068 284.299 238.41 286.121C239.304 290.884 241.297 291.371 261.004 291.637C278.905 291.879 285.86 289.857 286.026 284.361C286.045 283.743 286.928 281.438 287.991 279.238C289.054 277.038 289.938 274.281 289.957 273.11C289.976 271.94 290.666 270.423 291.491 269.738C292.316 269.053 292.991 267.025 292.991 265.23C292.991 263.435 293.663 260.678 294.485 259.102C296.469 255.298 296.381 252.796 294.241 252.134C293.279 251.836 291.801 251.232 290.958 250.792C287.368 248.919 283.126 248.702 278.892 250.177C276.472 251.019 273.4 251.715 272.064 251.723C270.728 251.731 268.089 252.297 266.199 252.981C262.896 254.176 262.657 254.096 259.989 250.899C258.303 248.88 256.951 248 256.545 248.657ZM105.206 255.817C105.514 261.238 105.514 261.238 109.264 261.548C113.65 261.911 113.958 260.974 110.514 257.738C109.139 256.446 108.014 254.848 108.014 254.186C108.014 253.524 107.313 252.401 106.456 251.69C105.072 250.542 104.932 251.004 105.206 255.817ZM305.382 255.494C305.086 256.453 304.34 258.138 303.724 259.238C303.109 260.338 302.28 263.263 301.881 265.738C300.716 272.961 298.988 279.07 297.434 281.453C296.64 282.671 295.99 284.759 295.99 286.092C295.99 287.454 294.466 290.21 292.514 292.378C290.602 294.501 289.027 296.506 289.014 296.832C289.001 297.159 287.832 298.734 286.416 300.332C281.448 305.937 280.618 308.026 279.162 318.589C277.122 333.381 276.465 367.786 278.201 368.888C280.926 370.617 282.828 369.76 283.528 366.488C283.91 364.7 284.561 362.788 284.974 362.238C285.388 361.688 286.033 358.825 286.408 355.877C287.297 348.889 289.729 339.467 291.541 335.994C292.332 334.478 292.996 332.113 293.017 330.738C293.038 329.363 293.715 327.364 294.523 326.297C295.329 325.229 295.99 323.684 295.99 322.863C295.99 321.465 298.791 314.701 301.202 310.276C301.79 309.197 303.353 306.272 304.675 303.776C307.668 298.126 315.642 287.738 316.987 287.738C317.538 287.738 317.987 287.11 317.987 286.342C317.987 284.195 324.25 279.185 329.381 277.225C335.13 275.029 335.154 275.193 328.236 269.45C311.799 255.804 306.321 252.458 305.382 255.494ZM219 270.238C217.625 271.024 215.691 271.683 214.701 271.703C213.712 271.722 211.28 273.313 209.298 275.238C207.316 277.163 205.202 278.756 204.599 278.777C198.401 278.997 193.741 300.243 198.424 306.929C199.292 308.169 200.003 309.967 200.003 310.925C200.003 319.205 228.332 310.227 230.589 301.232C231.564 297.346 229.619 287.254 227.4 284.694C226.664 283.845 225.961 281.595 225.837 279.694C225.662 277.019 222.428 268.588 221.649 268.773C221.567 268.793 220.375 269.452 219 270.238ZM112.263 272.769C107.027 274.874 110.639 288.825 117.601 293.387C122.636 296.687 123.092 304.178 118.33 305.373C116.437 305.848 115.125 305.27 112.643 302.864C108.248 298.603 107.665 298.894 108.396 304.988C109.97 318.131 110.17 318.847 112.492 319.73C113.733 320.202 116.01 321.757 117.552 323.187C119.095 324.617 121.516 326.05 122.934 326.372C124.352 326.694 127.44 327.583 129.796 328.348C132.153 329.112 134.515 329.738 135.046 329.738C135.636 329.738 136.01 321.183 136.01 307.672C136.01 293.313 136.402 284.876 137.129 283.516C139.915 278.309 119.948 269.68 112.263 272.769ZM146.045 288.672C145.443 289.798 145.009 298.062 145.009 308.45C145.009 328.32 145.672 330.907 150.524 329.98C153.753 329.362 157.541 332.659 158.371 336.808C159.263 341.267 164.065 340.117 175.505 332.704C177.155 331.635 179.068 330.482 179.755 330.142C180.443 329.802 181.005 328.753 181.005 327.811C181.005 324.807 186.319 319.746 188.794 320.393C191.684 321.149 192.522 318.841 191.018 314.279C189.622 310.052 189.742 310.073 185.503 313.306C180.876 316.836 175.645 316.45 175.194 312.546C174.771 308.882 177.427 305.161 182.647 302.102C193.02 296.022 182.061 292.506 170.142 298.091C168.841 298.7 165.242 299.207 162.143 299.218C152.448 299.252 153.725 288.935 163.597 287.47C165.197 287.232 162.135 286.97 156.793 286.888C148.126 286.754 146.968 286.946 146.045 288.672ZM96.2833 292.988C93.2107 296.917 92.9383 301.02 95.504 304.722C96.8848 306.715 98.0152 308.691 98.0152 309.113C98.0152 309.535 98.6898 310.556 99.5147 311.381C101.685 313.552 101.6 306.019 99.4185 302.904C98.3637 301.398 97.9424 299.119 98.1764 296.182C98.5373 291.643 98.0181 290.768 96.2833 292.988ZM323.277 295.513C317.338 301.92 312.131 309.467 310.015 314.738C308.801 317.763 307.173 321.432 306.398 322.892C305.623 324.352 304.989 326.405 304.989 327.454C304.989 328.504 304.089 331.225 302.989 333.502C301.889 335.779 300.325 340.193 299.513 343.309C298.702 346.426 297.62 349.485 297.11 350.107C296.601 350.729 295.858 353.938 295.462 357.238C295.065 360.538 294.356 363.979 293.886 364.884C293.417 365.789 292.838 369.365 292.601 372.832C292.063 380.69 291.076 381.511 283.081 380.746C277.276 380.192 274.926 381.343 277.993 383.238C280.797 384.971 278.358 396.369 274.642 398.895C272.46 400.379 263.251 390.517 260.191 383.42C259.361 381.496 257.38 379.91 253.947 378.42C250.058 376.733 248.784 375.614 248.332 373.488C247.707 370.555 245.304 369.773 244.373 372.2C244.065 373.004 244.492 375.024 245.323 376.69C246.154 378.355 247.138 381.103 247.51 382.795C247.881 384.488 248.814 387.08 249.584 388.555C250.354 390.031 250.986 391.749 250.99 392.374C250.993 392.998 251.668 394.798 252.49 396.374C253.311 397.949 253.986 399.989 253.99 400.907C253.996 402.476 254.637 404.011 258.617 411.988C259.509 413.776 261.132 417.038 262.222 419.238C263.313 421.438 265.507 425.832 267.099 429.003C268.691 432.173 269.994 436.281 269.994 438.13C269.994 439.98 270.668 442.053 271.493 442.738C272.318 443.423 272.995 444.715 272.997 445.61C273.004 447.948 277.596 460.742 278.896 462.042C279.499 462.645 279.992 463.893 279.992 464.816C279.992 465.738 280.667 467.053 281.492 467.738C282.317 468.423 283.006 469.94 283.024 471.11C283.041 472.281 283.716 474.112 284.524 475.179C285.331 476.247 285.992 477.934 285.992 478.929C285.992 479.924 286.411 480.738 286.924 480.738C287.437 480.738 288.167 481.751 288.548 482.988C288.928 484.225 290.083 486.043 291.115 487.027C292.147 488.011 292.991 489.672 292.991 490.718C292.991 491.764 293.415 492.882 293.933 493.202C294.451 493.523 295.163 495.912 295.516 498.511C296.711 507.312 298.291 509.415 299.631 503.988C300.004 502.475 302.246 499.015 304.612 496.297C308.842 491.441 308.915 491.232 308.878 484.141C308.854 479.466 309.394 475.854 310.414 473.882C311.28 472.207 311.988 469.705 311.988 468.322C311.988 465.92 313.541 461.557 316.586 455.407C317.357 453.85 318.003 451.375 318.022 449.907C318.041 448.439 318.925 445.438 319.987 443.238C321.05 441.038 321.934 438.826 321.953 438.323C321.989 437.343 326.659 424.96 330.597 415.405C333.37 408.674 333.473 408.958 325.701 401.774C322.449 398.769 318.53 394.494 316.989 392.274C315.449 390.054 312.351 386.213 310.104 383.738C303.413 376.37 304.791 368.811 312.304 371.668C313.722 372.207 315.684 373.906 316.663 375.443C317.641 376.98 318.692 378.463 318.999 378.738C319.305 379.013 321.325 381.488 323.489 384.238C334.347 398.039 337.155 399.399 343.106 393.738C345.417 391.538 347.911 389.738 348.647 389.738C349.382 389.738 349.983 389.378 349.983 388.937C349.983 387.578 358.865 383.738 362.009 383.738C368.458 383.738 371.233 390.891 366.232 394.623C363.482 396.675 363.482 396.675 367.008 396.706C372.345 396.754 374.981 399.079 374.981 403.736C374.981 408.836 374.381 409.093 362.019 409.273C350.496 409.44 344.884 411.306 342.055 415.912C339.278 420.434 334.117 431.274 333.445 433.997C333.071 435.515 332.364 437.004 331.875 437.306C331.386 437.609 330.983 439.067 330.98 440.547C330.976 442.027 330.367 444.401 329.626 445.823C326.167 452.45 324.536 459.906 326.325 460.908C327.251 461.426 329.017 462.907 330.248 464.198C332.931 467.012 349.026 472.699 357.483 473.821C360.782 474.259 366.857 475.355 370.981 476.257C380.737 478.39 395.013 477.767 400.594 474.965C402.73 473.893 404.938 473.182 405.502 473.385C406.065 473.589 407.581 470.264 408.87 465.996C413.787 449.721 415.295 445.222 416.002 444.738C416.403 444.463 416.94 442.438 417.195 440.238C417.844 434.646 419.9 426.775 421.611 423.338C422.405 421.743 423.33 418.368 423.668 415.838C424.005 413.308 424.571 411.013 424.925 410.738C425.822 410.042 428.979 399.164 429.858 393.738C430.259 391.263 431.124 388.255 431.78 387.054C433.487 383.929 433.301 378.078 431.473 377.376C430.648 377.06 429.974 375.902 429.974 374.804C429.974 373.706 428.624 371.27 426.974 369.391C424.679 366.777 423.974 365.006 423.974 361.856C423.974 359.031 423.544 357.738 422.602 357.738C421.846 357.738 419.034 355.214 416.352 352.129C411.112 346.101 391.167 325.738 390.504 325.738C390.283 325.738 388.612 324.362 386.791 322.681C382.548 318.764 370.788 310.775 364.982 307.865C362.507 306.625 358.908 304.78 356.983 303.765C355.058 302.751 351.683 301.39 349.483 300.742C345.396 299.537 341.462 297.972 335.72 295.269C329.117 292.159 326.337 292.213 323.277 295.513ZM255.124 303.659C253.645 304.573 254.3 327.58 255.952 332.738C256.568 334.663 257.254 338.488 257.475 341.238C258.075 348.698 260.9 361.873 262.546 364.892C263.342 366.352 264.008 368.377 264.026 369.392C264.056 371.145 264.133 371.14 265.526 369.297C266.615 367.856 266.994 364.445 266.994 356.067C266.994 348.691 267.49 343.472 268.426 341.008C269.349 338.579 269.992 332.023 270.234 322.572C270.504 312.043 270.998 307.438 271.986 306.246C274.416 303.319 259.4 301.015 255.124 303.659ZM241.064 306.061C238.839 311.915 222.807 322.795 212.751 325.276C211.239 325.65 210.001 326.424 210.001 326.999C210.001 328.634 216.321 336.628 218.09 337.23C218.964 337.528 220.299 338.928 221.055 340.341C221.812 341.754 224.245 344.311 226.464 346.022C228.683 347.733 231.174 349.731 231.999 350.462C235.881 353.9 243.012 358.738 244.197 358.738C244.923 358.738 246.749 359.881 248.256 361.278C250.996 363.819 250.996 363.819 250.996 358.893C250.996 356.183 250.324 352.678 249.502 351.102C248.52 349.218 248.006 345.319 248.002 339.711C247.998 333.845 247.539 330.53 246.531 329.09C245.503 327.622 244.98 323.621 244.781 315.699C244.491 304.177 243.126 300.637 241.064 306.061ZM86.8316 314.452C85.6478 315.871 84.5179 320.176 82.1642 332.238C81.7342 334.438 80.883 337.138 80.2721 338.238C78.5353 341.366 76.0369 350.249 75.4229 355.482C75.116 358.098 74.2543 362.938 73.5094 366.238C72.7635 369.538 71.8657 378.538 71.5138 386.238C71.1618 393.938 70.4463 401.623 69.9244 403.316C69.2275 405.58 69.3788 407.356 70.4977 410.034C71.3345 412.036 72.0182 415.038 72.0182 416.706C72.0182 419.94 74.2575 420.915 75.7184 418.316C76.5153 416.899 85.438 409.738 86.4068 409.738C86.6868 409.738 88.8517 408.445 91.2164 406.864C93.5811 405.283 96.6404 403.647 98.0152 403.229C99.3901 402.811 101.403 401.854 102.488 401.103C105.961 398.698 129.533 399.24 136.441 401.884C139.526 403.065 142.351 403.729 142.72 403.36C143.819 402.261 140.005 379.567 137.994 375.238C129.46 356.869 126.935 352.512 120.728 345.441C117.585 341.86 115.013 338.025 115.013 336.918C115.013 333.995 107.25 328.243 98.7374 324.859C97.2096 324.252 95.6714 322.964 95.3204 321.997C93.7696 317.727 88.2175 312.792 86.8316 314.452ZM132.011 342.665C132.011 343.656 133.354 345.99 134.996 347.852C136.638 349.715 138.473 352.7 139.074 354.488C139.674 356.276 140.58 357.738 141.088 357.738C141.595 357.738 142.01 358.681 142.01 359.834C142.01 360.986 142.686 363.124 143.514 364.584C144.342 366.044 146.12 370.163 147.465 373.738C150.188 380.973 150.251 380.763 150.068 365.241C149.927 353.334 148.965 350.79 142.24 344.537C138.711 341.255 132.011 340.029 132.011 342.665ZM169.577 348.817C167.417 349.874 164.885 350.738 163.951 350.738C163.016 350.738 161.839 351.301 161.333 351.988C160.314 353.373 159.452 371.738 160.407 371.738C162.596 371.738 174.709 350.237 173.856 347.868C173.661 347.327 171.766 347.747 169.577 348.817ZM181.067 399.97C187.98 409.136 189.204 416.628 184.549 421.283C180.228 425.606 176.662 424.344 173.4 417.336C167.168 403.952 173.409 389.816 181.067 399.97ZM113.148 410.277C111.298 411.081 108.768 411.738 107.526 411.738C102.923 411.738 84.7071 422.124 82.2784 426.133C81.8595 426.824 80.7291 427.678 79.7672 428.032C77.4975 428.866 77.4405 434.016 79.6803 435.866C80.9561 436.92 81.4385 436.952 81.7574 436.007C82.6443 433.37 99.3221 423.194 105.321 421.629C114.895 419.131 125.785 420.35 129.05 424.285C129.713 425.084 131.037 425.738 131.992 425.738C132.947 425.738 136.149 427.988 139.109 430.738C147.253 438.305 151.766 436.955 146.185 428.621C144.571 426.21 142.239 421.988 141.002 419.238C138.294 413.216 137.995 413.003 131.02 412.14C127.99 411.765 123.768 410.846 121.636 410.098C116.989 408.467 117.335 408.459 113.148 410.277ZM106.014 433.508C100.164 435.481 88.0162 443.575 88.0162 445.5C88.0162 446.323 89.4784 448.682 91.2662 450.743C95.5767 455.714 98.0152 458.993 98.0152 459.818C98.0152 460.189 100.351 461.497 103.207 462.726C111.461 466.277 134.011 463.994 134.011 459.607C134.011 459.214 135.57 458.378 137.477 457.749C143.585 455.733 148.168 448.484 144.259 447.02C143.297 446.66 139.36 444.024 135.51 441.163C122.532 431.518 116.531 429.961 106.014 433.508ZM156.258 445.875C154.752 447.397 154.59 451.738 156.039 451.738C157.403 451.738 158.245 449.401 157.837 446.748C157.573 445.032 157.262 444.861 156.258 445.875ZM267.326 471.34C271.299 475.626 273.784 484.244 271.968 487.443C267.215 495.814 258.504 491.073 257.306 479.462C256.307 469.78 261.771 465.35 267.326 471.34ZM320.137 473.502C317.63 479.848 317.763 481.118 321.532 486.842C325.224 492.449 329.122 495.145 337.196 497.676C343.005 499.497 373.017 499.581 376.381 497.786C378.546 496.631 379.498 496.58 381.027 497.536C386.283 500.819 395.385 498.104 398.858 492.217C401.648 487.487 401.556 486.567 398.413 487.763C394.27 489.338 369.944 488.932 366.982 487.238C365.607 486.452 362.621 485.793 360.348 485.773C356.39 485.74 352.88 484.88 339.415 480.646C336.077 479.597 332.659 478.738 331.82 478.738C330.982 478.738 329.439 477.789 328.391 476.63C323.628 471.359 321.328 470.487 320.137 473.502ZM314.988 499.82C314.988 500.415 313.483 502.777 311.643 505.07C309.803 507.362 307.999 509.913 307.633 510.738C307.267 511.563 306.077 513.588 304.989 515.238C303.901 516.888 302.746 518.913 302.422 519.738C302.097 520.563 301.193 522.432 300.412 523.892C297.601 529.141 300.059 537.738 304.37 537.738C304.784 537.738 306.648 538.902 308.513 540.324C317.08 546.859 327.195 548.733 334.285 545.097C343.638 540.301 366.982 516.218 366.982 511.365C366.982 511.105 361.02 510.689 353.733 510.439C335.161 509.802 322.028 505.938 318.688 500.129C317.745 498.488 314.988 498.258 314.988 499.82ZM307.912 558.198C309.464 559.001 311.024 560.463 311.378 561.448C311.731 562.432 312.681 564.363 313.489 565.738C317.8 573.073 313.868 583.718 306.843 583.734C304.522 583.74 298.99 577.13 298.99 574.352C298.99 573.079 298.506 570.648 297.915 568.952C295.289 561.421 301.411 554.836 307.912 558.198ZM507.755 619.469C506.9 620.442 505.908 622.2 505.55 623.377C505.193 624.553 503.857 626.641 502.582 628.017C501.307 629.393 499.274 632.12 498.065 634.077C496.855 636.034 494.991 637.912 493.921 638.252C492.853 638.591 491.332 639.515 490.542 640.305C488.134 642.713 475.834 648.738 473.326 648.738C467.945 648.738 470.98 653.751 478.717 657.642C481.054 658.817 482.967 660.185 482.967 660.681C482.967 661.931 489.704 664.04 491.88 663.471C492.86 663.214 494.743 663.604 496.064 664.336C500.428 666.755 508.932 666.066 515.802 662.738C519.207 661.088 522.6 659.738 523.342 659.738C524.083 659.738 525.762 658.683 527.075 657.394C528.387 656.105 530.699 654.254 532.211 653.279C537.199 650.066 536.082 647.098 525.962 636.683C521.012 631.59 516.963 627.138 516.963 626.79C516.963 623.997 509.199 617.824 507.755 619.469ZM540.374 659.713C538.221 662.449 534.551 665.638 532.217 666.8C529.882 667.961 527.718 669.322 527.408 669.825C527.097 670.327 526.025 670.738 525.025 670.738C524.025 670.738 522.676 671.378 522.027 672.16C521.378 672.942 519.058 673.884 516.871 674.253C514.684 674.623 511.581 675.581 509.975 676.382C506.832 677.95 498.725 677.73 495.379 675.986C494.327 675.438 490.795 674.665 487.531 674.268C476.667 672.949 482.055 677.791 493.384 679.528C500.919 680.682 502.784 681.389 507.275 684.795C510.129 686.959 512.788 688.731 513.185 688.734C513.581 688.736 515.091 691.246 516.541 694.31C517.99 697.375 519.804 700.123 520.569 700.417C521.335 700.711 521.962 701.52 521.962 702.215C521.962 703.608 529.95 715.169 534.845 720.86C536.558 722.851 537.96 724.985 537.96 725.601C537.96 726.217 538.86 727.283 539.96 727.97C541.06 728.657 541.96 729.517 541.96 729.882C541.96 735.218 555.298 742.541 558.742 739.097C561.805 736.033 564.631 711.329 563.167 700.401C561.181 685.57 559.81 678.276 558.437 675.214C557.69 673.551 557.12 670.696 557.172 668.869C557.224 667.042 556.809 665.253 556.248 664.893C555.687 664.533 554.945 663.338 554.6 662.238C554.081 660.585 546.417 654.738 544.768 654.738C544.503 654.738 542.526 656.977 540.374 659.713ZM165.007 663.574C165.007 664.675 165.637 666.85 166.408 668.407C169.542 674.738 171.006 678.954 171.006 681.649C171.006 683.213 171.652 685.029 172.442 685.685C173.231 686.34 174.154 688.139 174.493 689.682C176.35 698.138 199.073 704.14 203.521 697.349C207.427 691.388 205.737 677.738 201.094 677.738C198.995 677.738 182.188 670.287 176.005 666.616C175.181 666.126 173.831 665.467 173.006 665.15C171.641 664.627 167.615 662.843 165.756 661.937C165.343 661.736 165.007 662.472 165.007 663.574ZM168.645 707.488C168.342 710.1 167.818 714.818 167.481 717.972C167.143 721.126 166.449 723.965 165.937 724.281C164.152 725.384 164.818 751.636 166.739 755.995C168.998 761.115 180.469 758.915 187.925 751.932C188.92 751 192.045 748.082 194.868 745.447C197.692 742.812 200.011 740.337 200.02 739.947C200.03 739.557 201.102 738.228 202.405 736.993C206.316 733.285 211.937 720.883 212.943 713.738C213.447 710.163 214.004 706.386 214.18 705.346C214.357 704.305 213.938 703.255 213.251 703.012C212.564 702.77 211.998 703.171 211.994 703.905C211.954 711.746 176.367 711.606 171.511 703.745C170.187 701.603 169.173 702.928 168.645 707.488Z"
  />
</svg>
