<svg
  width="556"
  height="771"
  viewBox="0 0 556 771"
  fill="none"
  xmlns="http://www.w3.org/2000/svg"
>
  <path
    fill-rule="evenodd"
    clip-rule="evenodd"
    fill="black"
    d="M221.542 1.69473C228.343 2.81973 241.85 14.3427 241.85 19.0197C241.85 19.3267 243.143 21.5127 244.724 23.8777C246.304 26.2427 247.939 29.2817 248.355 30.6307C248.772 31.9807 249.728 33.6997 250.481 34.4527C251.233 35.2047 251.849 36.6617 251.849 37.6897C251.849 38.7187 252.259 39.8137 252.761 40.1247C253.773 40.7487 257.848 48.8037 257.848 50.1777C257.848 50.9747 260.89 58.0717 262.791 61.7107C263.232 62.5537 263.932 64.8037 264.348 66.7107C264.763 68.6177 265.72 71.0657 266.475 72.1507C267.228 73.2347 267.847 75.5117 267.847 77.2087C267.847 78.9067 268.508 81.1687 269.314 82.2367C270.122 83.3037 270.803 85.3027 270.829 86.6777C270.854 88.0527 271.503 90.9787 272.27 93.1797C273.037 95.3807 273.988 100.886 274.383 105.414C275.136 114.043 276.625 116.936 279.209 114.791C281.65 112.765 293.982 113.159 295.624 115.316C299.478 120.376 292.498 156.678 287.672 156.678C287.217 156.678 286.844 157.31 286.844 158.083C286.844 158.856 285.269 161.374 283.345 163.678C277.339 170.867 278.802 186.678 285.472 186.678C286.16 186.678 289.787 188.251 293.532 190.173C297.278 192.095 300.885 193.67 301.548 193.673C302.211 193.676 305.044 195.028 307.842 196.678C310.639 198.328 313.627 199.678 314.481 199.678C315.334 199.678 317.226 200.334 318.686 201.137C320.146 201.939 323.461 203.518 326.054 204.646C335.764 208.868 344.352 214.916 356.004 225.736C358.111 227.693 359.835 229.647 359.835 230.078C359.835 230.51 360.735 232.007 361.835 233.405C365.157 237.63 364.493 242.665 359.835 248.559C354.922 254.775 354.78 253.871 361.342 258.227C364.372 260.238 367.643 262.891 368.611 264.122C369.58 265.353 371.487 266.936 372.852 267.64C374.217 268.344 377.808 271.364 380.832 274.352C394.463 287.815 407.399 299.678 408.449 299.678C409.841 299.678 416.828 307.25 416.828 308.758C416.828 309.349 418.178 311.182 419.827 312.832C421.478 314.482 423.107 317.035 423.447 318.505C423.787 319.975 424.715 322.219 425.51 323.491C427.546 326.749 430.774 339.4 430.802 344.228C430.815 346.455 431.356 348.808 432.004 349.456C432.652 350.104 433.373 354.579 433.606 359.406C434.029 368.178 434.028 368.178 439.355 373.678C445.179 379.692 453.178 390.527 459.287 400.678C461.439 404.253 463.504 407.403 463.876 407.678C464.248 407.953 464.891 409.303 465.305 410.678C465.72 412.053 466.596 413.853 467.253 414.678C467.909 415.503 469.291 418.203 470.322 420.678C471.352 423.153 472.787 425.888 473.509 426.757C474.23 427.625 474.821 428.906 474.821 429.602C474.821 430.299 475.466 432.064 476.253 433.524C479.251 439.08 483.688 449.476 484.759 453.452C485.372 455.73 486.311 457.864 486.846 458.195C487.381 458.525 487.819 459.862 487.819 461.166C487.819 462.469 488.479 464.195 489.285 465.001C491.118 466.834 493.45 472.928 494.328 478.178C494.696 480.378 495.445 482.721 495.993 483.384C496.541 484.047 497.398 489.298 497.898 495.053C498.397 500.808 499.259 506.708 499.812 508.163C500.371 509.633 500.819 520.221 500.822 531.993C500.827 554.115 500.342 557.46 495.717 567.178C494.669 569.378 493.814 572.1 493.815 573.228C493.817 574.355 493.36 575.737 492.798 576.299C491.315 577.782 490.604 589.145 491.525 596.665C492.559 605.124 498.717 609.287 504.304 605.306C516.514 596.606 525.814 599.043 525.814 610.944C525.814 614.923 526.22 615.665 530.064 618.719C532.4 620.575 534.901 622.901 535.62 623.886C536.338 624.872 537.463 625.685 538.12 625.693C538.776 625.701 542.788 629.213 547.037 633.497C554.761 641.286 554.761 641.286 555.332 648.232C556.19 658.663 553.044 693.709 550.244 704.913C549.456 708.067 548.811 711.824 548.811 713.262C548.811 714.699 548.2 717.294 547.453 719.027C546.705 720.76 545.585 723.422 544.966 724.943C542.305 731.48 535.006 729.504 527.314 720.164C525.664 718.161 523.302 715.366 522.065 713.954C520.827 712.541 519.815 711.11 519.815 710.772C519.815 710.434 518.678 708.931 517.288 707.433C515.898 705.934 512.746 700.763 510.282 695.943C504.363 684.362 504.122 684.107 498.318 683.269C495.568 682.872 491.069 682.211 488.319 681.801C479.413 680.469 472.821 673.83 472.821 666.191C472.821 663.253 471.585 662.384 464.322 660.214C461.022 659.228 457.895 658.029 457.373 657.549C456.85 657.07 455.655 656.678 454.716 656.678C448.979 656.678 440.913 650.025 435.793 641.071C433.636 637.298 429.826 635.845 429.826 638.795C429.826 639.28 429.223 639.678 428.487 639.678C427.75 639.678 424.33 641.085 420.887 642.806C417.446 644.526 413.211 646.295 411.48 646.738C409.747 647.18 406.529 648.228 404.329 649.066C402.13 649.904 399.119 650.61 397.639 650.634C396.16 650.658 394.671 651.128 394.331 651.678C393.971 652.261 388.332 652.678 380.807 652.678C371.681 652.678 366.941 653.104 364.619 654.133C353.485 659.069 258.635 659.515 248.849 654.679C240.193 650.401 236.387 651.332 234.972 658.074C231.456 674.832 231.455 675.006 234.795 680.924C237.993 686.594 238.494 689.982 236.889 695.107C236.359 696.796 235.207 701.778 234.328 706.178C233.449 710.578 232.082 715.452 231.29 717.009C230.499 718.566 229.851 720.323 229.851 720.913C229.851 722.965 224.577 733.21 220.977 738.151C218.984 740.887 216.228 744.767 214.853 746.776C213.478 748.784 210.104 752.277 207.354 754.539C204.605 756.801 201.005 759.798 199.355 761.198C197.705 762.598 195.231 764.014 193.856 764.345C192.481 764.676 190.681 765.484 189.856 766.141C181.017 773.178 159.901 770.431 159.854 762.238C159.85 761.655 159.09 759.828 158.165 758.178C156.279 754.816 155.687 740.625 157.289 737.178C157.801 736.078 158.772 732.028 159.448 728.178C160.997 719.347 163.26 710.667 164.727 707.925C165.349 706.762 165.859 704.485 165.859 702.866C165.859 701.247 166.478 699.409 167.234 698.782C169.336 697.037 169.995 690.437 168.822 682.876C167.492 674.303 168.663 668.407 172.258 665.578C174.88 663.516 176.566 626.678 174.038 626.678C173.587 626.678 171.707 625.328 169.859 623.678C168.011 622.028 165.966 620.678 165.315 620.678C164.664 620.678 160.583 617.089 156.247 612.702C151.91 608.316 147.837 604.716 147.196 604.702C143.884 604.633 133.863 589.686 133.863 584.814C133.863 579.102 130.795 576.691 123.516 576.684C112.67 576.674 101.227 567.827 96.3432 555.678C96.0123 554.853 95.1074 552.828 94.3335 551.178C91.5968 545.346 89.5338 538.124 89.3488 533.727C89.2458 531.278 88.6721 529.112 88.0732 528.913C86.5574 528.407 83.2047 520.955 82.4018 516.305C82.0339 514.175 81.3348 511.7 80.8479 510.805C80.3599 509.91 79.4669 506.478 78.862 503.178C78.2571 499.878 77.0904 493.803 76.2685 489.678C73.3619 475.076 72.88 471.059 72.726 460.143C72.568 448.923 73.562 444.678 76.3466 444.678C78.3944 444.678 79.2353 446.498 80.0432 452.678C80.4381 455.703 81.2089 460.878 81.7558 464.178C84.1755 478.773 85.1474 485.558 85.5783 490.869C86.1343 497.708 86.9482 498.378 98.4877 501.489C119.211 507.076 146.862 501.521 146.862 491.77C146.862 489.73 147.523 487.187 148.33 486.119C150.437 483.333 150.463 447.356 148.362 443.678C147.576 442.303 146.901 438.928 146.862 436.178C146.823 433.428 146.148 430.053 145.362 428.678C144.576 427.303 143.917 425.041 143.897 423.651C143.878 422.26 143.244 420.235 142.49 419.151C141.735 418.066 140.777 415.61 140.36 413.693C139.942 411.776 138.944 409.206 138.142 407.981C135.306 403.653 136.466 394.709 139.863 394.709C142.11 394.709 148.492 405.078 149.783 410.828C151.204 417.152 153.204 418.63 155.488 415.044C156.492 413.467 157.659 411.928 158.08 411.623C158.502 411.318 159.09 402.446 159.387 391.907C160.003 370.089 160.935 372.771 149.942 364.732C146.598 362.286 143.862 359.904 143.862 359.439C143.862 358.974 141.865 356.475 139.425 353.885C136.984 351.296 134.074 348.053 132.958 346.678C130.931 344.178 130.931 344.178 130.897 350.863C130.817 366.988 125.615 368.749 117.562 355.378C115.255 351.546 112.583 347.233 111.627 345.794C110.671 344.355 109.575 342.503 109.194 341.678C107.654 338.354 92.5404 316.673 92.0815 317.132C91.8105 317.403 91.6776 328.409 91.7856 341.59C91.9506 361.603 91.7266 366.053 90.4257 368.567C89.1049 371.122 88.8689 376.803 88.8689 406.057C88.8689 445.03 88.3669 447.434 81.3107 442.253C78.993 440.551 78.901 392.207 81.2077 388.197C82.0206 386.785 82.466 374.403 82.6879 347.026C83.0059 307.873 83.0058 307.873 78.3894 304.348C75.8497 302.409 72.789 299.552 71.5871 298C70.3853 296.448 69.0515 294.728 68.6225 294.178C62.6543 286.53 56.289 276.383 52.3125 268.178C51.2466 265.978 49.8119 263.818 49.124 263.378C48.4371 262.938 47.874 261.903 47.874 261.076C47.874 259.366 43.7616 251.35 42.6247 250.845C42.2128 250.661 41.8747 249.755 41.8747 248.83C41.8747 247.905 41.0439 245.58 40.028 243.663C39.0132 241.746 37.8813 238.947 37.5134 237.443C37.0684 235.622 35.9824 234.492 34.2636 234.061C23.277 231.303 2.97356 216.042 2.90157 210.487C2.88957 209.557 2.42977 208.518 1.87984 208.178C-2.05867 205.744 5.17435 195.502 11.8515 194.058C13.2413 193.757 15.9531 192.761 17.8779 191.844C19.8026 190.928 21.4944 190.136 21.6364 190.086C21.7784 190.035 20.5415 187.456 18.8867 184.355C17.0479 180.908 15.8781 177.228 15.8781 174.888C15.8781 172.783 15.217 170.187 14.4101 169.119C13.6022 168.052 12.9274 166.136 12.9104 164.862C12.8924 163.589 12.3435 161.564 11.6906 160.362C11.0367 159.161 9.8888 155.253 9.1379 151.678C8.38799 148.103 7.36701 143.378 6.87007 141.178C6.37314 138.978 5.94231 135.153 5.91231 132.678C5.88231 130.203 5.18751 125.969 4.36861 123.269C1.70794 114.496 2.23181 64.0217 5.04146 58.4587C7.86511 52.8687 10.7816 49.6777 13.0664 49.6777C14.0772 49.6777 15.7989 49.1197 16.8918 48.4367C18.4726 47.4497 19.2827 47.4497 20.8635 48.4367C21.9563 49.1197 23.7011 49.6777 24.7409 49.6777C25.7808 49.6777 27.1918 50.3527 27.8767 51.1777C28.5616 52.0027 29.7394 52.6777 30.4963 52.6777C31.2522 52.6777 33.6139 54.2527 35.7436 56.1777C37.8743 58.1027 40.0131 59.6897 40.4961 59.7037C40.98 59.7177 43.5695 61.9677 46.2522 64.7037C52.0594 70.6267 52.3086 70.6717 54.4443 66.1687C55.3602 64.2397 57.173 61.6517 58.4738 60.4187C59.7737 59.1867 60.8575 57.7277 60.8825 57.1777C61.0315 53.7947 78.7003 39.3617 82.0749 39.8657C88.1821 40.7777 86.7552 47.1027 79.1372 52.8937C69.9103 59.9077 53.6972 83.3057 53.8442 89.3967C53.8692 90.4397 51.9376 94.8777 48.917 100.716C48.479 101.563 47.7902 104.263 47.3852 106.716C46.9793 109.17 46.3101 111.628 45.8962 112.178C45.4823 112.728 44.9135 114.978 44.6315 117.178C43.4687 126.255 37.6833 131.368 34.3437 126.27C32.7329 123.811 34.4718 113.915 36.9865 111.228C37.4755 110.705 37.8752 108.6 37.8752 106.549C37.8752 104.499 38.4812 102.215 39.2221 101.474C39.962 100.734 40.8961 98.3787 41.2971 96.2407C41.698 94.1037 43.1166 90.0927 44.4504 87.3287C47.443 81.1247 47.4541 81.4417 44.1245 77.9387C42.6127 76.3467 39.968 73.4847 38.2482 71.5777C24.534 56.3697 11.8786 55.8497 11.8786 70.4937C11.8786 73.6747 11.3766 76.7797 10.7617 77.3947C9.65481 78.5017 9.68582 79.6207 11.6826 111.178C12.0655 117.228 12.8894 123.078 13.5144 124.178C14.1383 125.278 14.9822 129.542 15.3881 133.654C15.7941 137.766 16.746 142.885 17.5019 145.03C18.2588 147.175 18.8776 150.171 18.8776 151.689C18.8776 153.207 19.5494 155.738 20.3713 157.314C21.1922 158.889 21.8835 161.528 21.9065 163.178C21.9294 164.828 22.5913 167.303 23.3772 168.678C24.1631 170.053 24.822 172.396 24.842 173.884C24.861 175.372 26.0018 178.247 27.3767 180.273C28.7515 182.299 29.8764 185.244 29.8764 186.818C29.8764 189.454 30.1704 189.679 33.6259 189.692C35.6887 189.699 38.2753 189.93 39.3752 190.205C42.6318 191.018 44.4784 189.232 43.2126 186.493C40.8409 181.362 37.8752 173.044 37.8752 171.523C37.8752 170.634 37.2034 168.618 36.3815 167.042C35.5607 165.467 34.8858 163.313 34.8818 162.257C34.8788 161.2 34.1597 159.545 33.2858 158.578C31.0161 156.071 30.6772 137.057 32.8759 135.644C35.3206 134.074 37.2744 135.001 38.2382 138.188C38.7352 139.832 39.51 142.078 39.9599 143.178C40.4099 144.278 40.967 147.428 41.197 150.178C41.5799 154.759 43.2225 160.365 46.4721 168.178C47.158 169.828 48.029 172.42 48.4079 173.937C49.7308 179.248 50.5647 177.546 50.1447 170.393C49.5758 160.725 50.7896 155.275 53.6013 154.867C57.0238 154.37 59.1637 158.557 58.3288 164.12C57.9329 166.766 58.0629 169.22 58.6389 169.937C59.1868 170.62 59.9557 175.133 60.3466 179.966C60.9716 187.681 61.3463 188.942 63.415 190.298C65.4787 191.651 65.7527 192.561 65.6127 197.617C65.4758 202.547 65.8428 203.855 68.1235 206.565C71.0141 210.001 72.8569 215.34 72.8649 220.306C72.8679 222.026 73.4889 223.946 74.2439 224.573C74.9998 225.2 75.9127 227.937 76.2727 230.654C76.6336 233.372 77.3654 235.866 77.8994 236.196C78.4333 236.526 78.8701 238.244 78.8701 240.015C78.8701 241.785 79.5542 244.21 80.3911 245.404C81.227 246.598 82.3087 249.511 82.7946 251.876C83.7085 256.326 85.3313 261.345 87.257 265.678C88.8348 269.226 89.395 249.363 87.8251 245.571C87.2082 244.082 86.2654 234.609 85.7304 224.521C85.1955 214.432 84.5565 204.153 84.3105 201.678C81.4839 173.222 82.8966 162.104 88.7868 166.459C91.8684 168.738 91.8686 168.738 91.8686 162.408C91.8686 158.926 91.3805 155.59 90.7846 154.994C88.7859 152.995 88.4121 142.277 90.2758 140.414C94.2173 136.472 98.8287 141.825 98.8527 150.369C98.8607 153.224 99.3177 155.838 99.8676 156.178C100.418 156.518 100.867 158.569 100.867 160.737C100.867 162.905 101.279 164.678 101.782 164.678C104.696 164.678 121.338 139.898 124.05 131.523C124.645 129.683 125.48 127.463 125.906 126.589C126.332 125.715 127.001 122.43 127.393 119.29C128.053 114.011 128.326 113.536 131.006 113C132.601 112.681 134.147 112.028 134.443 111.549C136.06 108.932 141.714 110.698 142.862 114.178C143.497 116.103 144.424 117.678 144.921 117.678C145.417 117.678 146.106 118.803 146.451 120.178C146.796 121.553 147.413 122.678 147.821 122.678C148.229 122.678 151.535 124.928 155.167 127.678C158.799 130.428 162.205 132.678 162.735 132.678C163.264 132.678 165.083 133.353 166.778 134.178C168.473 135.003 171.245 136.353 172.939 137.178C174.634 138.003 176.546 138.681 177.189 138.684C177.832 138.688 179.666 139.372 181.264 140.206C185.075 142.194 201.284 143.41 202.289 141.785C202.688 141.14 202.078 139.026 200.934 137.088C197.766 131.719 198.537 129.678 203.734 129.678C205.921 129.678 212.404 136.399 213.379 139.678C213.788 141.053 214.399 142.403 214.738 142.678C215.891 143.615 219.852 149.594 219.852 150.397C219.852 150.837 220.752 151.759 221.852 152.446C223.045 153.191 223.852 153.287 223.852 152.683C223.852 152.126 222.952 149.992 221.852 147.939C220.752 145.887 219.852 143.685 219.852 143.045C219.852 142.406 218.549 139.25 216.954 136.031C213.644 129.346 211.479 122.091 212.367 120.655C214.041 117.946 222.852 122.217 222.852 125.737C222.852 126.372 224.153 129.656 225.742 133.035C227.331 136.414 228.967 140.303 229.376 141.678C229.785 143.053 230.735 145.066 231.486 146.151C232.237 147.235 232.851 149.177 232.851 150.466C232.851 151.755 233.371 153.782 234.007 154.97C234.643 156.159 235.58 158.717 236.088 160.654C239.242 172.689 241.085 181.041 241.939 187.178C242.475 191.028 243.417 195.067 244.03 196.154C244.645 197.241 245.352 201.291 245.601 205.154C246.414 217.764 248.751 222.213 248.766 211.178C248.774 205.189 248.3 201.342 247.349 199.678C246.563 198.303 245.871 194.703 245.811 191.678C245.752 188.653 245.267 183.703 244.732 180.678C244.198 177.653 243.147 171.128 242.398 166.178C241.648 161.228 240.341 154.703 239.492 151.678C236.335 140.418 235.265 137.123 234.073 134.994C233.401 133.792 232.851 131.97 232.851 130.944C232.851 129.918 232.365 128.592 231.772 127.999C230.096 126.323 228.729 118.846 229.422 115.15C230.271 110.625 232.535 110.001 236.014 113.334C239.287 116.47 240.046 114.394 237.35 109.678C236.564 108.303 235.905 106.166 235.885 104.928C235.866 103.69 235.437 102.678 234.93 102.678C234.424 102.678 233.697 101.215 233.315 99.4277C232.933 97.6407 232.066 95.0527 231.389 93.6777C226.696 84.1487 225.302 81.6777 224.623 81.6777C224.199 81.6777 223.852 81.0197 223.852 80.2167C223.852 78.4777 214.56 64.6487 210.053 59.6777C202.503 51.3527 200.2 49.5757 194.861 47.9517C191.45 46.9147 188.196 45.0577 186.307 43.0697C184.513 41.1837 181.423 39.3717 178.808 38.6727C176.36 38.0177 173.846 37.0627 173.22 36.5507C172.506 35.9647 171.094 36.0687 169.422 36.8307C167.41 37.7477 165.979 37.7697 163.561 36.9207C150.066 32.1847 111.161 31.9827 106.52 36.6247C105.941 37.2037 104.712 37.6777 103.789 37.6777C102.867 37.6777 101.524 38.3857 100.806 39.2507C95.99 45.0547 88.8689 45.0897 88.8689 39.3087C88.8689 34.8887 99.3715 26.6777 105.026 26.6777C105.947 26.6777 106.85 26.2657 107.034 25.7627C107.332 24.9447 120.678 23.3587 138.863 21.9797C145.8 21.4537 160.172 23.8617 162.721 25.9767C163.517 26.6377 167.334 27.2057 171.258 27.2457C175.163 27.2867 179.766 27.6487 181.485 28.0517C184.278 28.7047 184.683 28.5087 185.254 26.2307C185.607 24.8267 186.337 23.6777 186.876 23.6777C187.416 23.6777 187.857 23.0297 187.857 22.2387C187.857 21.4467 189.627 18.7537 191.791 16.2527C193.955 13.7517 196.475 10.4617 197.391 8.94174C199.414 5.58474 205.192 1.68373 208.173 1.66273C209.373 1.65373 211.029 1.20873 211.853 0.672726C212.678 0.136726 214.028 -0.0452725 214.853 0.267727C215.678 0.580727 218.689 1.22273 221.542 1.69473ZM205.191 15.9277C200.133 21.1407 192.856 31.0887 192.856 32.7897C192.856 33.2777 194.624 33.6777 196.784 33.6777C200.879 33.6777 203.854 35.6567 203.854 38.3797C203.854 39.2377 207.258 43.1817 211.419 47.1447C215.578 51.1077 219.741 55.4967 220.667 56.8977C221.594 58.2997 224.494 62.6317 227.113 66.5247C229.73 70.4187 232.317 74.6337 232.859 75.8907C234.047 78.6437 235.903 81.6037 237.6 83.4567C238.288 84.2067 238.85 85.5887 238.85 86.5267C238.85 87.4647 239.46 89.1207 240.204 90.2047C240.949 91.2897 241.818 93.3027 242.135 94.6777C242.937 98.1647 245.793 106.564 247.457 110.329C248.222 112.062 248.849 114.641 248.849 116.059C248.849 119.352 251.754 126.678 253.06 126.678C253.608 126.678 257.159 125.047 260.951 123.054C268.107 119.293 269.013 117.805 266.315 114.237C265.34 112.948 264.847 109.879 264.847 105.101C264.847 100.664 264.274 96.8087 263.353 95.0417C262.532 93.4667 261.855 91.2777 261.849 90.1777C261.837 87.9857 257.948 76.4707 256.044 72.9937C255.386 71.7917 254.848 69.9307 254.848 68.8577C254.848 67.7847 254.176 65.6177 253.354 64.0417C252.534 62.4667 251.859 60.4457 251.855 59.5497C251.852 58.6547 251.174 57.3627 250.349 56.6777C249.524 55.9927 248.849 54.1647 248.849 52.6147C248.849 51.0637 248.429 49.5367 247.916 49.2187C247.403 48.9017 245.716 46.0627 244.166 42.9097C242.618 39.7577 241.125 36.9527 240.85 36.6777C240.575 36.4027 239.225 33.9357 237.85 31.1957C236.475 28.4557 234.901 25.6737 234.351 25.0157C233.801 24.3567 231.776 21.5547 229.851 18.7877C226.568 14.0687 225.938 13.6637 219.655 12.2177C210.534 10.1197 210.924 10.0197 205.191 15.9277ZM238.921 119.678C238.921 120.503 239.564 122.303 240.35 123.678C241.176 125.123 241.779 125.545 241.779 124.678C241.779 123.853 241.136 122.053 240.35 120.678C239.524 119.233 238.921 118.811 238.921 119.678ZM134.919 127.453C134.265 130.052 133.116 133.528 132.365 135.178C131.615 136.828 130.683 139.291 130.294 140.652C129.905 142.013 126.768 147.863 123.323 153.652C117.073 164.152 117.063 164.183 119.075 166.073C120.719 167.617 121.005 168.865 120.625 172.823C120.159 177.678 120.159 177.678 124.184 177.678C139.928 177.678 144.869 193.377 133.074 205.928C128.11 211.211 115.592 208.815 114.683 202.408C114.417 200.538 113.559 200.083 109.366 199.589C106.617 199.265 103.58 198.654 102.617 198.232C101.048 197.544 100.867 198.156 100.867 204.137C100.867 207.807 100.479 211.567 100.004 212.494C97.035 218.283 97.9509 225.436 101.739 226.041C105.742 226.682 107.01 227.717 113.866 235.941C119.024 242.129 126.426 247.318 131.439 248.258C133.334 248.614 135.132 249.304 135.433 249.791C135.734 250.279 137.204 250.678 138.7 250.678C140.194 250.678 142.436 251.392 143.682 252.265C145.587 253.599 146.205 253.639 147.56 252.515C148.747 251.53 153.347 251.16 165.009 251.108C180.845 251.039 180.846 251.039 183.844 246.512C187.608 240.829 198.074 235.013 202.558 236.113C208.987 237.691 210.854 237.862 210.854 236.873C210.854 236.305 212.366 234.907 214.213 233.764C217.671 231.627 223.852 220.88 223.852 217.005C223.852 215.945 224.337 214.593 224.93 214C225.968 212.962 226.78 210.321 229.026 200.678C229.603 198.203 230.742 195.42 231.559 194.493C235.623 189.881 231.308 176.407 223.36 168.889C217.641 163.48 217.641 163.48 214.674 167.079C213.042 169.058 210.88 170.678 209.869 170.678C208.509 170.678 207.857 171.698 207.369 174.591C205.027 188.45 188.057 191.625 183.273 179.098C177.948 165.152 193.091 150.515 206.529 156.617C210.159 158.266 210.779 158.316 211.282 157.005C213.14 152.16 190.67 151.878 185.204 156.678C178.931 162.187 171.859 159.621 171.859 151.836C171.859 148.022 171.809 147.975 165.109 145.34C157.27 142.257 143.751 132.539 139.236 126.741C136.109 122.727 136.109 122.727 134.919 127.453ZM280.725 125.546C276.73 126.509 272.175 132.269 274.854 132.97C276.418 133.379 276.845 134.337 276.845 137.429C276.845 142.331 275.438 143.612 266.247 147.068C262.342 148.537 258.299 150.359 257.262 151.117C256.042 152.01 254.799 152.187 253.738 151.619C251.09 150.201 248.042 154.156 249.717 156.838C250.42 157.965 251.476 163.114 252.063 168.282C252.947 176.062 253.424 177.678 254.839 177.678C259.619 177.678 283.845 148.573 283.845 142.83C283.845 141.891 284.453 140.235 285.197 139.151C286.612 137.083 287.938 128.076 287.141 125.928C286.651 124.608 285.02 124.511 280.725 125.546ZM260.612 135.002C257.46 136.749 254.872 138.484 254.863 138.858C254.828 140.397 268.064 134.754 269.342 132.685C270.55 130.73 266.278 131.864 260.612 135.002ZM193.511 169.507C191.541 171.684 191.382 174.04 193.109 175.473C195.113 177.137 197.855 174.447 197.855 170.818C197.855 167.232 196.06 166.69 193.511 169.507ZM103.829 181.417C100.372 183.838 101.25 187.678 105.26 187.678C107.362 187.678 108.872 187.104 109.231 186.169C109.549 185.34 110.959 184.137 112.364 183.497C113.769 182.857 114.777 181.911 114.605 181.395C114.104 179.893 105.98 179.91 103.829 181.417ZM265.488 183.318C262.195 186.378 261.133 186.824 258.239 186.354C254.848 185.804 254.848 185.804 254.848 198.276C254.848 215.253 256.611 218.11 264.29 213.579C267.745 211.541 267.848 211.304 267.882 205.329C267.902 201.894 268.549 198.074 269.346 196.678C270.838 194.069 271.474 179.655 270.096 179.705C269.684 179.72 267.611 181.346 265.488 183.318ZM124.053 189.454C120.941 189.965 120.399 191.876 122.315 195.582C124.412 199.638 127.864 198.029 127.864 192.996C127.864 189.393 127.348 188.914 124.053 189.454ZM278.507 196.428C278.256 196.841 277.892 199.878 277.698 203.178C277.345 209.178 277.345 209.178 281.332 209.502C288.736 210.105 289.23 216.624 282.345 222.89C276.708 228.02 277.417 229.589 286.532 232.157C291.061 233.433 292.408 262.153 288.221 268.151C287.464 269.235 286.844 271.744 286.844 273.726C286.844 278.704 283.801 281.249 276.845 282.089C267.293 283.243 264.847 284.404 264.847 287.788C264.847 289.413 264.148 292.414 263.295 294.457C262.367 296.678 261.539 302.599 261.237 309.175C260.959 315.227 260.309 323.766 259.791 328.152C258.308 340.693 258.541 349.678 260.348 349.678C261.173 349.678 261.847 349.228 261.847 348.678C261.847 345.263 275.043 354.578 276.868 359.282C277.925 362.005 284.759 366.166 285.299 364.416C285.509 363.735 285.964 360.028 286.311 356.178C286.658 352.328 287.197 348.15 287.51 346.893C288.153 344.308 293.365 341.096 294.345 342.682C295.391 344.374 296.843 343.783 296.843 341.664C296.843 340.557 297.281 338.869 297.817 337.914C298.353 336.959 299.956 332.688 301.38 328.422C302.802 324.156 304.611 319.431 305.398 317.922C306.186 316.413 306.832 314.616 306.836 313.928C306.839 313.241 307.248 312.678 307.744 312.678C308.24 312.678 309.133 311.44 309.729 309.928C310.325 308.416 311.199 306.503 311.671 305.678C312.144 304.853 312.982 303.278 313.533 302.178C317.108 295.048 323.289 283.94 324.383 282.678C325.097 281.853 327.14 278.323 328.923 274.834C330.706 271.345 332.767 268.259 333.502 267.977C334.237 267.695 334.838 266.892 334.838 266.193C334.838 265.495 335.513 264.363 336.338 263.678C337.163 262.993 337.838 261.013 337.838 259.278C337.838 255.884 340.211 251.678 342.127 251.678C343.649 251.678 353.836 240.835 353.836 239.216C353.836 238.178 345.52 229.892 340.624 226.052C335.122 221.738 328.883 217.673 327.72 217.646C326.96 217.629 325.466 216.954 324.399 216.146C323.331 215.339 321.792 214.678 320.978 214.678C320.164 214.678 318.788 214.061 317.92 213.307C317.051 212.553 313.866 211.021 310.841 209.903C307.817 208.784 303.092 206.751 300.342 205.384C284.89 197.705 279.16 195.355 278.507 196.428ZM20.8774 202.33C20.0525 202.602 18.4777 203.201 17.3779 203.66C16.278 204.12 14.5913 204.748 13.6284 205.056C8.03707 206.843 24.0309 219.817 34.6926 222.143C36.5174 222.541 39.217 223.496 40.6919 224.266C43.8815 225.93 63.872 226.282 63.872 224.674C63.872 224.122 62.9721 221.992 61.8723 219.939C60.7724 217.887 59.8725 215.488 59.8725 214.609C59.8725 213.73 59.5347 212.68 59.1228 212.275C58.7108 211.87 57.9097 209.691 57.3427 207.432C56.0199 202.155 53.8732 201.252 53.8732 205.972C53.8732 207.876 53.3114 209.882 52.6235 210.431C50.7737 211.909 27.1887 212.651 25.5 211.285C23.4482 209.624 22.8831 205.918 24.4799 204.592C27.3276 202.229 25.2129 200.902 20.8774 202.33ZM235.29 213.315C234.968 214.34 234.288 215.959 233.778 216.914C231.904 220.424 232.635 222.564 235.601 222.254C238.031 221.999 238.385 221.504 238.65 217.985C238.991 213.447 236.385 209.826 235.29 213.315ZM182.113 229.678C181.606 234.878 180.799 236.241 176.936 238.428C169.882 242.422 165.859 241.06 165.859 234.678C165.859 230.282 167.308 228.683 171.309 228.663C172.986 228.654 175.033 228.2 175.858 227.654C178.755 225.734 182.383 226.909 182.113 229.678ZM258.432 228.928C256.244 236.661 254.848 243.207 254.848 245.729C254.848 247.423 254.382 249.68 253.813 250.744C251.992 254.147 245.849 252.653 245.849 248.807C245.849 247.998 245.122 246.531 244.232 245.547C243.342 244.564 242.384 241.723 242.103 239.235C241.381 232.827 240.19 232.205 233.464 234.721C227.241 237.05 225.883 239.138 231.246 238.132C235.845 237.269 238.85 239.01 238.85 242.539C238.85 246.289 235.353 249.267 229.996 250.077C220.432 251.523 217.457 255.862 221.352 262.678C223.037 265.626 223.283 272.004 221.817 274.744C220.482 277.24 248.808 277.776 252.376 275.322C253.461 274.576 257.723 273.664 261.847 273.296C278.594 271.803 280.081 270.333 280.925 254.427C281.668 240.429 281.726 240.678 277.737 240.678C276.092 240.678 273.371 239.966 271.689 239.097C270.007 238.227 267.664 237.758 266.481 238.055C262.697 239.005 259.179 234.481 260.282 230.085C260.892 227.653 259.108 226.537 258.432 228.928ZM47.874 237.699C47.874 238.261 49.185 241.523 50.7868 244.949C52.3876 248.375 53.9802 251.853 54.3252 252.678C55.0111 254.321 56.094 256.134 59.9965 262.178C61.4174 264.378 62.901 267.19 63.2929 268.428C63.6859 269.666 64.3781 270.678 64.831 270.678C65.284 270.678 65.9439 271.827 66.2959 273.232C66.9678 275.91 73.4049 284.578 79.4101 290.89C82.5377 294.178 83.2155 294.478 85.3322 293.513C88.1479 292.23 87.7789 290.771 81.2478 277.347C80.4899 275.79 79.8701 273.937 79.8701 273.23C79.8701 271.927 76.4326 262.598 74.7998 259.472C74.3098 258.533 73.6039 255.86 73.2309 253.531C72.859 251.202 71.9529 248.145 71.2189 246.737C70.484 245.33 69.8814 242.956 69.8774 241.463C69.8734 239.807 69.1173 238.345 67.9375 237.713C65.3958 236.353 47.874 236.34 47.874 237.699ZM96.8679 238.633C96.8679 239.158 98.1058 240.743 99.6176 242.156C101.129 243.568 103.08 245.389 103.951 246.201C104.822 247.013 106.004 247.678 106.578 247.678C107.152 247.678 108.181 248.353 108.866 249.178C110.206 250.793 111.866 251.18 111.866 249.878C111.866 248.135 100.706 237.678 98.8466 237.678C97.7588 237.678 96.8679 238.108 96.8679 238.633ZM196.675 249.214C191.507 252.02 192.742 258.319 201.137 271.978C207.861 282.917 218 274.076 212.264 262.274C211.488 260.677 210.854 258.293 210.854 256.975C210.854 250.794 202.342 246.136 196.675 249.214ZM108.866 264.013C108.866 264.89 109.85 266.134 111.053 266.778C112.256 267.422 114.129 268.777 115.216 269.79C116.303 270.802 118.678 272.121 120.495 272.721C126.214 274.609 126.203 283.623 120.48 285.06C113.906 286.71 116.587 297.579 124.039 299.478C137.38 302.88 140.591 301.077 135.211 293.205C134.47 292.121 133.863 289.813 133.863 288.078C133.863 286.343 133.235 284.402 132.467 283.765C131.556 283.007 130.948 279.875 130.714 274.722C130.29 265.385 130.659 265.887 123.251 264.578C110.76 262.37 108.866 262.296 108.866 264.013ZM147.306 264.079C146.206 264.85 144.193 265.638 142.834 265.829C139.017 266.368 139.491 276.056 143.966 288.996C147.335 298.737 147.385 298.81 150.254 298.243C154.597 297.384 155.861 299.088 155.861 305.8C155.861 311.059 156.077 311.678 157.91 311.678C159.037 311.678 161.32 312.382 162.983 313.241C168.594 316.143 174.187 312.953 189.856 297.912C193.431 294.481 197.367 291.401 198.605 291.067C199.843 290.734 200.855 289.89 200.855 289.192C200.855 287.402 197.858 285.091 197.029 286.242C196.198 287.397 190.154 291.678 189.354 291.678C188.687 291.678 187.876 292.29 182.357 296.966C173.434 304.525 168.859 304.764 168.859 297.671C168.859 295.118 176.958 285.678 179.148 285.678C179.951 285.678 184.789 282.164 189.979 277.812C191.601 276.452 191.425 272.678 189.739 272.678C189.255 272.678 188.856 272.003 188.856 271.178C188.856 269.328 188.455 269.317 185.057 271.073C183.572 271.84 179.715 272.499 176.488 272.537C170.646 272.605 166.7 274.222 164.22 277.563C161.821 280.792 155.861 275.474 155.861 270.106C155.861 268.13 160.404 264.315 163.673 263.546C165.185 263.191 162.635 262.863 157.833 262.796C151.973 262.715 148.68 263.116 147.306 264.079ZM347.837 265.17C347.837 265.991 346.437 267.904 344.726 269.42C343.015 270.937 341.196 273.078 340.684 274.178C339.716 276.256 338.991 277.482 334.782 284.178C333.399 286.378 331.717 289.303 331.043 290.678C330.369 292.053 328.949 294.528 327.888 296.178C326.827 297.828 324.808 301.428 323.404 304.178C321.999 306.928 318.147 314.349 314.844 320.669C311.543 326.989 308.842 333.003 308.842 334.035C308.842 335.066 308.066 338.094 307.118 340.765C305.393 345.62 305.393 345.62 308.617 348.946C310.39 350.776 311.849 352.927 311.858 353.726C311.868 354.524 313.016 356.26 314.409 357.582C315.802 358.904 317.585 361.379 318.371 363.082C319.849 366.282 324.876 373.547 329.879 379.712C331.455 381.655 333.797 384.805 335.082 386.712C338.103 391.194 340.038 391.128 341.132 386.504C342.024 382.725 344.419 380.86 346.152 382.593C347.368 383.81 350.256 380.304 351.191 376.475C353.233 368.107 360.833 366.153 360.838 373.995C360.84 377.749 360.079 379.911 355.203 390.009C354.451 391.566 353.836 393.756 353.836 394.875C353.836 396.936 351.433 405.102 349.479 409.678C348.892 411.053 347.821 416.003 347.098 420.678C342.036 453.401 343.047 481.678 349.28 481.678C349.902 481.678 351.97 483.01 353.874 484.637C355.778 486.265 357.941 487.615 358.681 487.637C359.421 487.66 361.221 488.308 362.681 489.079C369.472 492.664 387.45 495.729 403.943 496.114C415.059 496.373 425.177 505.253 418.828 509.178C418.278 509.518 417.819 510.782 417.809 511.987C417.75 518.823 409.417 526.332 403.022 525.312C398.099 524.527 396.83 525.392 396.829 529.535C396.826 538.482 392.756 552.786 387.683 561.678C387.212 562.503 386.377 564.224 385.826 565.503C385.275 566.782 384.151 568.502 383.328 569.325C381.441 571.213 381.431 575.433 383.308 578.678C384.103 580.053 385.032 581.853 385.371 582.678C385.711 583.503 386.629 585.372 387.41 586.832C388.192 588.292 388.831 590.234 388.831 591.148C388.831 592.062 389.386 593.792 390.065 594.994C391.896 598.235 393.869 606.254 394.808 614.275C395.266 618.178 396.407 623.578 397.343 626.275C399.466 632.383 398.282 636.678 394.478 636.678C391.612 636.678 390.232 635.211 389.302 631.172C388.923 629.525 387.987 626.25 387.222 623.893C386.458 621.536 385.832 617.914 385.832 615.843C385.832 613.772 385.356 611.602 384.774 611.02C384.193 610.439 383.455 607.427 383.135 604.327C382.816 601.228 381.941 598.184 381.193 597.562C380.444 596.941 379.833 595.602 379.833 594.586C379.833 589.481 373.383 580.313 370.774 581.71C366.548 583.972 346.662 582.332 340.988 579.254C339.531 578.463 336.988 577.164 335.338 576.366C331.365 574.446 318.84 562.238 318.84 560.284C318.84 559.439 317.828 558.225 316.591 557.585C310.707 554.542 308.629 549.24 311.27 544.009C318.134 530.411 318.8 528.459 317.301 526.319C315.631 523.933 315.274 511.297 316.767 507.37C318.557 502.661 326.111 502.955 328.139 507.812C329.339 510.686 329.339 510.686 332.568 508.71C336.201 506.485 336.152 505.935 331.654 498.567C330.106 496.032 328.839 492.63 328.839 491.009C328.839 489.387 328.178 487.187 327.371 486.119C326.563 485.052 325.886 483.278 325.865 482.178C325.844 481.078 325.155 478.889 324.334 477.314C322.006 472.851 322.369 467.788 325.09 466.777C328.469 465.521 329.749 466.449 332.376 472.062C334.768 477.178 334.768 477.178 335 451.678C335.128 437.653 335.125 424.297 334.993 421.998C334.861 419.699 335.447 416.157 336.295 414.126C338.706 408.356 338.333 403.049 335.381 401.114C333.101 399.62 323.972 389.378 321.073 385.064C317.831 380.238 311.24 370.326 310.341 368.926C309.791 368.07 307.879 365.086 306.092 362.296C304.305 359.506 302.842 356.065 302.842 354.649C302.842 352.41 302.402 352.062 299.465 351.979C296.178 351.885 293.378 358.499 295.353 361.694C296.422 363.423 292.769 377.189 290.847 378.678C288.956 380.142 289.717 388.678 291.738 388.678C292.095 388.678 293.098 390.14 293.966 391.928C298.279 400.81 302.777 410.338 303.29 411.678C303.606 412.503 304.754 414.528 305.842 416.178C306.93 417.828 308.079 419.853 308.395 420.678C309.564 423.733 312.061 429.267 313.582 432.178C325.403 454.803 326.036 456.572 323.804 460.744C321.313 465.4 318.387 463.201 313.4 452.928C307.996 441.793 303.31 432.462 301.846 429.92C301.294 428.962 300.394 427.053 299.845 425.678C299.296 424.303 298.397 422.39 297.845 421.428C297.294 420.466 296.413 418.89 295.887 417.928C294.723 415.796 287.967 401.953 286.736 399.178C286.248 398.078 285.442 396.503 284.944 395.678C284.446 394.853 282.974 391.963 281.672 389.255C279.038 383.776 277.365 382.581 276.572 385.613C275.394 390.121 266.804 390.369 265.127 385.943C264.76 384.972 263.926 383.638 263.274 382.978C261.622 381.304 260.678 373.779 261.666 370.178C262.831 365.941 265.546 365.811 268.979 369.829C270.553 371.671 271.842 372.58 271.844 371.849C271.845 371.118 269.49 367.743 266.612 364.349C263.733 360.955 261.22 357.953 261.026 357.678C260.833 357.403 259.854 358.19 258.852 359.428C256.269 362.613 253.053 362.37 252.23 358.928C251.869 357.416 251.24 355.728 250.834 355.178C250.427 354.628 249.754 353.072 249.338 351.72C248.922 350.367 242.42 343.167 234.889 335.72C227.358 328.272 219.559 319.703 217.558 316.678C215.557 313.653 212.667 309.828 211.136 308.178C209.604 306.528 207.254 303.543 205.914 301.545C203.624 298.132 200.887 298.03 200.844 301.357C200.838 301.808 199.316 303.652 197.462 305.453C195.494 307.367 191.072 314.787 186.832 323.296C182.839 331.308 178.614 339.059 177.441 340.52C173.614 345.288 172.535 348.207 173.756 350.487C174.362 351.62 174.858 353.296 174.858 354.211C174.858 355.127 175.495 357.294 176.274 359.027C177.052 360.76 177.978 364.305 178.331 366.905C178.685 369.504 179.398 371.893 179.916 372.214C180.434 372.534 180.857 373.943 180.857 375.344C180.857 377.389 181.202 377.744 182.607 377.144C191.213 373.463 201.939 383.9 200.367 394.425C199.36 401.174 192.881 402.992 187.662 397.991C184.857 395.304 184.857 395.304 184.857 399.369C184.857 401.605 185.532 405.049 186.357 407.024C187.182 408.998 187.857 413.277 187.857 416.532C187.857 419.836 188.516 423.714 189.35 425.314C190.171 426.889 190.846 429.91 190.85 432.027C190.853 434.144 191.521 437.294 192.334 439.027C193.147 440.76 194.16 443.881 194.584 445.963C195.508 450.494 197.229 451.281 197.676 447.378C198.435 440.769 208.915 440.127 210.337 446.602C210.706 448.281 211.422 449.912 211.93 450.226C213.931 451.462 212.982 464.584 210.666 467.718C207.229 472.367 197.965 469.96 197.825 464.383C197.807 463.679 197.417 463.822 196.888 464.726C196.389 465.578 195.468 477.436 194.84 491.079C194.139 506.318 193.154 517.676 192.288 520.531C191.512 523.087 190.873 529.029 190.867 533.737C190.859 539.7 190.411 542.884 189.388 544.237C188.536 545.363 187.892 548.488 187.853 551.678C187.816 554.703 187.143 558.303 186.357 559.678C185.571 561.053 184.918 563.978 184.905 566.178C184.883 570.114 183.65 576.785 179.805 593.782C178.734 598.515 177.858 603.027 177.858 603.81C177.858 604.592 176.595 606.615 175.052 608.304C172.195 611.434 172.885 615.678 176.252 615.678C176.885 615.678 178.967 616.967 180.879 618.543C184.326 621.383 191.654 625.678 193.053 625.678C193.452 625.678 197.958 627.625 203.067 630.005C208.174 632.385 216.628 635.351 221.852 636.595C227.077 637.84 233.601 639.482 236.351 640.244C243.499 642.224 253.613 644.763 258.848 645.89C269.667 648.22 339.121 646.711 360.927 643.673C368.346 642.639 375.745 641.936 386.832 641.212C394.248 640.728 405.482 637.546 415.813 633.003C433.59 625.186 444.117 619.202 453.557 611.545C457.536 608.318 461.052 605.678 461.371 605.678C462.608 605.678 472.821 592.415 472.821 590.809C472.821 590.322 473.539 589.327 474.415 588.6C478.121 585.524 481.801 577.269 481.811 572.01C481.823 565.343 482.52 563.678 485.299 563.678C487.186 563.678 487.675 562.978 488.235 559.478C488.604 557.167 489.449 554.62 490.113 553.818C491.679 551.921 491.685 510.451 490.119 508.492C489.541 507.769 488.756 502.903 488.373 497.678C487.451 485.084 483.102 470.207 479.733 468.125C479.231 467.814 478.82 466.562 478.82 465.341C478.82 464.121 478.202 462.235 477.448 461.151C476.694 460.066 475.742 457.603 475.333 455.678C474.925 453.753 474.254 451.728 473.843 451.178C473.433 450.628 472.798 448.928 472.433 447.401C472.068 445.874 470.431 442.449 468.796 439.79C467.16 437.132 465.822 434.515 465.822 433.975C465.822 433.435 464.724 431.009 463.381 428.585C460.116 422.688 455.823 413.948 455.823 413.198C455.823 412.865 455.352 412.05 454.776 411.386C452.837 409.149 446.824 399.511 446.824 398.64C446.824 398.166 446.221 397.418 445.482 396.978C444.744 396.538 443.312 394.828 442.3 393.178C440.003 389.432 435.719 384.678 434.639 384.678C434.192 384.678 433.826 391.442 433.826 399.71C433.826 410.81 433.434 415.681 432.326 418.332C431.381 420.595 430.826 425.156 430.826 430.669C430.826 435.48 430.195 443.187 429.425 447.797C428.655 452.407 427.723 459.074 427.355 462.614C426.987 466.155 426.042 470.295 425.256 471.815C424.47 473.335 423.827 476.857 423.827 479.642C423.827 482.427 423.377 485.487 422.827 486.442C422.278 487.397 421.389 489.415 420.852 490.928C418.801 496.713 412.076 493.302 413.26 487.078C413.668 484.933 414.345 481.244 414.764 478.879C415.183 476.515 416.044 474.062 416.677 473.429C417.317 472.789 417.828 469.288 417.828 465.54C417.828 461.834 418.457 455.962 419.226 452.49C419.994 449.018 420.906 441.033 421.253 434.746C421.601 428.458 422.298 422.815 422.803 422.207C426.383 417.893 426.762 355.473 423.231 351.572C422.425 350.681 421.528 347.528 421.237 344.565C420.323 335.257 413.456 316.121 410.57 314.842C408.309 313.84 397.724 304.509 377.402 285.603C373.514 281.987 369.518 278.387 368.521 277.603C367.524 276.819 365.509 274.909 364.044 273.357C362.578 271.806 359.232 269.331 356.609 267.857C353.985 266.384 351.838 264.841 351.837 264.428C351.836 264.015 350.936 263.678 349.836 263.678C348.729 263.678 347.837 264.345 347.837 265.17ZM98.8676 274.213C98.8676 276.708 99.5035 279.745 100.281 280.963C102.531 284.487 101.94 300.837 99.4646 303.572C97.5758 305.658 97.6048 305.736 103.464 314.239C110.538 324.506 111.409 325.848 115.689 333.07C118.539 337.881 120.865 340.137 120.865 338.092C120.865 336.181 117.444 323.72 116.269 321.347C115.497 319.79 114.866 316.934 114.866 315.001C114.866 311.7 112.993 307.189 110.135 303.608C107.734 300.598 106.923 292.598 108.334 285.832C109.657 279.494 109.657 279.494 104.775 274.586C98.8246 268.603 98.8676 268.606 98.8676 274.213ZM251.849 286.678C251.024 287.211 248.662 287.654 246.599 287.663C242.893 287.678 241.211 290.719 243.6 293.088C244.012 293.497 244.884 297.285 245.538 301.505C248.759 322.305 251.062 324.691 251.901 308.098C252.205 302.092 252.991 296.195 253.65 294.994C254.964 292.599 255.297 285.669 254.098 285.693C253.686 285.702 252.673 286.145 251.849 286.678ZM216.603 291.162C213.267 294.097 213.195 295.096 216.103 298.069C219.153 301.187 222.852 306.383 222.852 307.549C222.852 308.072 224.09 309.561 225.602 310.857C227.114 312.154 229.933 315.509 231.866 318.314C237.444 326.405 241.85 329.72 241.85 325.826C241.85 324.159 241.431 322.537 240.92 322.221C240.408 321.905 239.674 319.115 239.287 316.02C238.9 312.926 237.972 309.22 237.223 307.786C236.475 306.352 235.846 302.253 235.825 298.678C235.773 289.679 234.803 288.67 226.242 288.71C220.403 288.736 218.933 289.111 216.603 291.162ZM123.864 312.162C123.864 312.481 124.54 314.358 125.364 316.332C126.189 318.307 126.864 320.657 126.864 321.556C126.864 322.454 128.552 325.064 130.614 327.355C132.676 329.646 136.163 333.876 138.363 336.754C154.06 357.295 155.693 358.137 160.426 348.131C161.785 345.257 164.234 341.393 165.867 339.542C168.096 337.017 174.875 325.554 174.855 324.342C174.854 324.252 170.864 324.168 165.988 324.156C157.123 324.134 157.123 324.134 152.424 320.156C143.416 312.53 143.968 312.765 133.613 312.156C128.251 311.84 123.864 311.843 123.864 312.162ZM168.859 392.921C168.859 417.148 169.006 416.387 163.171 422.46C161.233 424.477 160.677 430.786 159.364 465.678C159.146 471.453 158.269 478.86 157.414 482.138C156.559 485.416 155.847 491.491 155.829 495.638C155.808 500.677 155.31 503.822 154.329 505.119C153.522 506.187 152.861 509.124 152.861 511.647C152.861 514.169 152.242 517.121 151.486 518.205C150.73 519.29 149.781 522.203 149.377 524.678C148.974 527.153 147.94 529.975 147.078 530.95C145.655 532.56 145.665 533.042 147.186 536.234C148.107 538.165 148.862 540.629 148.862 541.708C148.862 542.787 149.812 546.417 150.974 549.775C154.579 560.191 152.029 572.678 146.298 572.678C137.258 572.678 140.534 583.656 153.262 596.007C158.265 600.864 163.108 605.246 164.022 605.745C166.57 607.139 171.857 593.83 171.865 585.998C171.869 582.797 172.476 579.018 173.216 577.6C173.955 576.182 174.864 572.357 175.236 569.1C175.607 565.843 176.554 561.378 177.34 559.178C178.127 556.978 178.79 553.13 178.814 550.628C178.838 548.125 179.414 545.522 180.094 544.842C180.815 544.121 181.596 539.346 181.967 533.392C182.318 527.774 183.087 520.253 183.676 516.678C184.266 513.103 184.991 501.049 185.287 489.891C185.584 478.733 186.283 468.75 186.842 467.707C188.198 465.172 188.145 454.941 186.774 454.484C186.179 454.285 185.366 451.435 184.968 448.15C184.57 444.866 183.707 441.195 183.051 439.994C182.394 438.792 181.857 435.32 181.857 432.278C181.857 429.235 181.229 425.268 180.461 423.462C179.136 420.344 178.625 417.787 175.312 397.678C174.541 393.003 173.469 387.153 172.928 384.678C172.387 382.203 171.927 378.546 171.903 376.55C171.879 374.555 171.184 372.363 170.359 371.678C169.033 370.578 168.859 373.045 168.859 392.921ZM296.234 435.255C296.535 436.038 297.357 436.692 298.062 436.71C301.534 436.795 308.842 447.493 308.842 452.491C308.842 456.853 300.076 460.655 296.343 457.913C292.538 455.117 287.15 441.579 288.191 437.432C289.207 433.385 294.923 431.838 296.234 435.255ZM344.467 495.776C342.845 503.888 346.588 505.497 377.833 510.122C383.057 510.896 389.332 511.984 391.777 512.541C394.223 513.098 396.543 513.356 396.934 513.114C397.325 512.872 398.697 513.063 399.982 513.539C403.484 514.834 407.515 513.016 408.704 509.605C409.725 506.678 409.725 506.678 403.528 506.644C381.637 506.526 371.598 505.133 363.504 501.091C361.947 500.314 360.048 499.678 359.285 499.678C357.406 499.678 350.257 495.89 348.782 494.113C346.856 491.791 345.131 492.456 344.467 495.776ZM139.863 511.352C138.488 512.065 136.63 512.655 135.735 512.663C134.84 512.671 132.493 513.353 130.518 514.178C125.851 516.128 109.844 516.118 104.367 514.162C98.9436 512.225 92.2276 511.289 91.5546 512.376C90.7807 513.63 94.5572 521.726 96.6379 523.272C99.8365 525.647 116.393 528.058 121.141 526.839C123.464 526.243 126.842 525.474 128.648 525.13C130.656 524.747 132.785 523.35 134.127 521.534C135.519 519.652 136.957 518.731 138.056 519.018C140.008 519.529 141.296 518.296 142.716 514.562C144.06 511.027 142.932 509.759 139.863 511.352ZM338.505 513.345C338.138 513.711 337.838 514.564 337.838 515.239C337.838 515.914 336.592 517.8 335.07 519.429C333.548 521.059 331.057 524.819 329.534 527.785C328.011 530.751 325.657 535.161 324.302 537.585C321.507 542.588 321.137 546.85 323.34 548.678C324.164 549.363 324.84 550.453 324.84 551.101C324.84 551.749 327.093 554.807 329.846 557.897C344.734 574.603 372.668 576.267 376.518 560.678C376.858 559.303 378.359 556.378 379.854 554.178C381.35 551.978 382.892 548.716 383.281 546.928C383.672 545.14 384.347 543.678 384.782 543.678C385.218 543.678 385.878 540.992 386.249 537.708C386.621 534.425 387.354 531.474 387.878 531.149C393.233 527.84 386.025 521.678 376.799 521.678C373.996 521.678 370.72 521.132 369.518 520.465C368.317 519.797 364.634 518.928 361.335 518.533C353.207 517.56 342.808 515.049 341.504 513.745C340.273 512.514 339.445 512.404 338.505 513.345ZM205.025 515.333C206.031 516.243 206.868 518.156 206.886 519.583C206.903 521.01 207.578 523.052 208.386 524.119C211.352 528.04 208.812 536.933 204.397 538.087C197.15 539.983 193.821 533.387 196.727 522.896C199.52 512.818 200.879 511.58 205.025 515.333ZM129.364 536.378C126.374 537.475 122.02 537.754 112.116 537.483C104.83 537.284 98.8676 537.42 98.8676 537.785C98.8676 538.15 99.5394 539.738 100.361 541.314C101.182 542.889 101.857 544.966 101.861 545.928C101.864 546.89 102.262 547.678 102.746 547.678C103.229 547.678 104.147 548.939 104.785 550.481C105.424 552.023 107.054 554.478 108.406 555.937C109.759 557.397 110.88 558.948 110.897 559.384C111.025 562.595 123.695 567.281 128.098 565.746C129.783 565.159 133.087 564.678 135.441 564.678C141.069 564.678 143.22 562.577 142.517 557.767C141.482 550.674 139.615 543.129 138.252 540.524C137.488 539.064 136.863 537.151 136.863 536.274C136.863 534.363 134.778 534.392 129.364 536.378ZM479.02 599.878C478.36 600.538 477.821 601.603 477.821 602.245C477.821 605.333 460.188 621.071 448.769 628.178C442.247 632.237 442.365 631.973 444.994 636.632C449.489 644.595 469.049 652.578 484.25 652.654C490.251 652.683 497.818 645.899 497.818 640.49C497.818 638.889 498.436 636.364 499.191 634.878C502.483 628.399 502.193 621.4 498.53 618.928C494.98 616.534 492.819 616.053 492.819 617.659C492.819 619.262 487.934 620.018 486.306 618.667C485.416 617.928 484.82 615.723 484.82 613.17C484.82 610.825 484.147 607.618 483.325 606.042C482.505 604.467 481.83 602.165 481.826 600.928C481.819 598.43 480.836 598.062 479.02 599.878ZM512.052 612.928C511.497 613.616 510.839 618.453 510.591 623.678C510.342 628.903 509.348 635.653 508.384 638.678C506.196 645.532 502.561 653.678 501.689 653.678C501.329 653.678 500.771 654.691 500.451 655.928C499.447 659.808 493.942 662.678 487.507 662.678C472.37 662.678 486.031 672.114 501.817 672.562C508.954 672.764 512.094 674.897 513.466 680.475C513.832 681.962 516.086 686.409 518.473 690.358C520.861 694.307 522.815 697.842 522.815 698.214C522.815 699.403 535.734 715.485 537.048 715.932C538.819 716.535 540.673 707.943 542.173 692.178C542.854 685.028 543.951 678.195 544.611 676.994C545.385 675.584 545.812 669.79 545.812 660.657C545.812 644.624 541.425 638.331 521.391 625.624C516.859 622.75 516.816 622.669 516.816 617.2C516.816 611.504 514.719 609.624 512.052 612.928ZM184.858 652.928C184.859 681.094 185.258 681.922 200.15 684.683C202.787 685.172 205.812 685.847 206.873 686.184C211.454 687.638 219.852 680.678 219.852 675.429C219.852 674.086 220.752 672.173 221.852 671.178C222.952 670.183 223.852 668.178 223.852 666.723C223.852 665.268 224.251 663.65 224.738 663.128C229.938 657.551 225.167 646.678 217.519 646.678C215.044 646.678 210.721 645.148 204.523 642.08C202.967 641.309 201.167 640.676 200.524 640.673C199.881 640.67 196.29 639.095 192.545 637.173C188.799 635.251 185.538 633.678 185.296 633.678C185.055 633.678 184.857 642.341 184.858 652.928ZM222.553 690.311C215.973 697.572 204.755 698.249 187.506 692.427C180.395 690.027 180.201 690.178 176.935 700.678C175.651 704.803 174.122 709.078 173.538 710.178C172.953 711.278 172.164 714.203 171.783 716.678C171.402 719.153 170.62 722.528 170.045 724.178C166.424 734.575 164.796 752.551 167.289 754.62C168.152 755.336 168.859 756.712 168.859 757.675C168.859 763.294 188.493 758.405 195.333 751.083C195.896 750.481 197.93 748.916 199.855 747.605C203.922 744.836 206.53 741.968 207.446 739.263C207.802 738.209 209.39 736.257 210.974 734.924C212.558 733.591 213.853 732.113 213.853 731.639C213.853 731.166 215.203 728.778 216.853 726.333C218.503 723.888 219.852 720.955 219.852 719.814C219.852 718.016 221.645 713.649 224.932 707.442C225.438 706.487 225.852 703.614 225.852 701.058C225.852 698.501 226.356 694.727 226.972 692.67C228.853 686.393 227.001 685.404 222.553 690.311Z"
  />
</svg>
