<svg
  width="487"
  height="792"
  viewBox="0 0 487 792"
  fill="none"
  xmlns="http://www.w3.org/2000/svg"
>
  <path
    fill-rule="evenodd"
    clip-rule="evenodd"
    fill="black"
    d="M238.456 2.13983C243.353 4.65083 247.416 8.42483 247.416 10.4618C247.416 11.4168 247.754 12.3478 248.166 12.5318C250.071 13.3778 253.415 19.5858 253.415 22.2748C253.415 23.9198 254.011 25.6248 254.74 26.0648C256.203 26.9478 256.397 27.3748 260.534 38.8568C262.118 43.2518 263.428 47.9768 263.446 49.3568C263.463 50.7358 264.138 52.7388 264.946 53.8058C265.753 54.8738 266.427 57.1238 266.445 58.8058C266.462 60.4888 267.138 62.7388 267.945 63.8058C268.752 64.8738 269.413 67.4458 269.413 69.5208C269.413 71.5968 270.05 75.2228 270.829 77.5798C271.607 79.9368 272.766 86.5898 273.405 92.3648C276.199 117.655 275.444 114.901 279.502 114.592C287.06 114.016 292.118 127.878 286.879 134.806C286.072 135.874 285.411 137.686 285.411 138.834C285.411 139.981 284.797 141.808 284.046 142.892C283.295 143.977 282.329 145.99 281.901 147.365C281.471 148.74 279.982 151.665 278.59 153.865C276.224 157.606 276.041 158.827 275.748 172.749C275.576 180.935 275.037 188.135 274.551 188.749C273.359 190.257 272.21 203.592 273.158 204.939C273.573 205.529 275.937 206.715 278.412 207.574C287.216 210.628 289.817 211.9 292.817 214.615C294.488 216.127 296.835 217.365 298.032 217.365C302.414 217.365 306.559 230.815 303.209 234.165C302.549 234.825 301.011 235.365 299.791 235.365C293.605 235.365 292.884 237.816 298.038 241.327C305.157 246.177 306.897 250.53 305.437 259.826C303.806 270.2 300.923 282.535 299.515 285.168C298.906 286.304 298.41 288.321 298.41 289.649C298.41 296.341 293.025 300.365 284.072 300.365C275.746 300.365 275.746 300.365 272.58 306.505C268.766 313.9 268.696 315.013 271.883 317.52C273.241 318.588 275.603 321.69 277.132 324.413C278.661 327.135 280.24 329.363 280.642 329.364C281.649 329.365 285.411 336.912 285.411 338.931C285.411 339.837 286.761 342.282 288.411 344.365C290.061 346.448 291.411 348.587 291.411 349.117C291.411 349.647 292.985 353.102 294.91 356.796C296.835 360.489 298.41 364.323 298.41 365.315C298.41 366.308 299.084 367.68 299.909 368.365C300.734 369.05 301.409 370.36 301.409 371.276C301.409 372.192 302.309 374.707 303.409 376.865C304.509 379.023 305.409 381.523 305.409 382.421C305.409 386.388 308.464 387.289 314.908 385.221C325.794 381.726 335.826 382.899 336.221 387.713C336.684 393.347 334.304 395.622 328.811 394.798C321.451 393.695 320.132 395.685 326.189 398.755C332.25 401.827 333.624 403.958 333.211 409.645C332.815 415.092 330.985 415.437 324.971 411.198C321.088 408.46 320.049 408.125 318.618 409.147C314.655 411.98 311.98 412.54 308.035 411.365C305.906 410.73 303.8 410.583 303.356 411.038C301.772 412.661 299.178 420.958 298.525 426.491C298.159 429.586 297.271 432.827 296.551 433.695C295.205 435.317 295.039 434.88 302.986 450.696C304.976 454.656 304.89 464.243 302.858 465.023C300.772 465.823 296.74 461.894 295.361 457.718C293.629 452.469 292.639 453.72 291.879 462.115C291.479 466.539 290.554 470.576 289.725 471.521C286.912 474.725 288.405 479.856 292.169 479.924C293.961 479.956 295.963 480.518 296.619 481.174C297.274 481.829 298.964 482.365 300.374 482.365C301.784 482.365 304.618 483.265 306.67 484.365C308.722 485.465 311.415 486.367 312.654 486.37C313.894 486.373 317.157 488.165 319.907 490.352C322.657 492.539 325.806 494.745 326.906 495.254C328.006 495.763 331.479 498.886 334.626 502.195C342.194 510.154 341.928 510.089 344.453 504.627C349.732 493.203 350.403 491.561 350.403 490.064C350.403 489.195 350.853 488.205 351.403 487.865C351.953 487.525 352.403 486.479 352.403 485.541C352.403 484.603 353.303 482.156 354.402 480.104C355.502 478.051 356.402 475.888 356.402 475.297C356.402 474.706 357.077 473.547 357.902 472.722C358.727 471.897 359.402 469.769 359.402 467.994C359.402 466.218 359.931 464.236 360.578 463.589C361.225 462.942 362.067 460.264 362.449 457.639C363.293 451.833 366.332 440.241 367.371 438.865C367.786 438.315 368.397 435.455 368.729 432.509C369.061 429.563 369.752 426.638 370.267 426.009C370.78 425.38 371.528 421.328 371.928 417.004C372.557 410.212 373.071 408.67 375.71 405.664C378.654 402.312 378.72 402.033 377.521 398.025C376.837 395.737 375.87 391.653 375.373 388.949C374.875 386.245 374.003 383.568 373.434 382.999C372.865 382.43 372.397 380.817 372.394 379.415C372.39 378.012 371.711 375.568 370.884 373.983C370.059 372.397 369.099 369.247 368.753 366.983C368.406 364.718 367.51 361.65 366.762 360.165C366.013 358.679 365.401 356.536 365.401 355.401C365.401 354.266 364.958 352.556 364.416 351.601C363.207 349.47 359.402 337.855 359.402 336.298C359.402 335.676 358.76 333.749 357.974 332.016C354.083 323.425 352.403 319.402 352.403 318.67C352.404 317.923 347.211 306.757 345.285 303.365C344.817 302.54 343.767 300.515 342.952 298.865C339.549 291.977 333.961 282.914 331.147 279.722C330.107 278.543 328.504 276.194 327.582 274.5C324.32 268.509 314.162 254.208 312.795 253.683C312.032 253.39 311.408 252.466 311.408 251.629C311.408 250.792 309.833 248.364 307.908 246.233C304.168 242.093 303.857 240.947 305.384 236.93C307.444 231.509 312.527 234.768 320.096 246.365C322.071 249.39 324.188 252.315 324.801 252.865C326.448 254.343 333.405 264.745 333.405 265.73C333.405 266.196 334.755 268.282 336.405 270.365C338.055 272.448 339.404 274.444 339.404 274.799C339.404 275.435 343.376 281.385 344.454 282.365C346.664 284.374 356.402 303.069 356.402 305.303C356.402 305.887 356.852 306.365 357.402 306.365C357.952 306.365 358.402 306.934 358.402 307.63C358.402 308.325 359.302 310.574 360.402 312.626C361.502 314.679 362.402 316.983 362.402 317.747C362.402 318.511 363.073 320.425 363.895 322.001C364.716 323.576 365.391 325.787 365.395 326.915C365.398 328.042 365.816 329.392 366.322 329.915C367.49 331.119 371.401 342.739 371.401 345.005C371.401 345.941 372.022 347.418 372.783 348.286C373.544 349.155 374.635 352.34 375.208 355.365C375.781 358.39 377.39 364.015 378.783 367.865C380.174 371.715 381.333 375.822 381.357 376.993C381.38 378.163 382.074 379.68 382.899 380.365C383.914 381.208 384.399 383.469 384.399 387.365C384.399 391.261 384.884 393.522 385.899 394.365C389.155 397.068 386.839 405.365 382.828 405.365C381.279 405.365 381.046 407.352 382.024 412.24C382.368 413.959 383.233 415.365 383.946 415.365C387.305 415.365 400.397 436.244 400.397 441.601C400.397 442.437 401.072 443.68 401.897 444.365C402.722 445.05 403.396 446.049 403.396 446.586C403.396 447.123 404.038 448.981 404.824 450.714C409.025 459.987 410.399 463.381 410.428 464.56C410.445 465.278 411.119 466.739 411.927 467.806C412.734 468.874 413.395 470.956 413.395 472.434C413.395 473.911 414.017 475.636 414.778 476.268C415.538 476.899 417.173 480.564 418.41 484.413C419.647 488.262 421.05 491.652 421.527 491.947C422.004 492.242 422.397 493.469 422.401 494.674C422.404 495.879 423.301 498.215 424.394 499.865C425.487 501.515 426.383 504.054 426.386 505.508C426.39 506.962 427.069 508.41 427.893 508.727C428.718 509.043 429.393 510.405 429.393 511.753C429.393 514.078 429.873 515.339 433.75 523.196C434.653 525.028 435.406 527.278 435.424 528.196C435.441 529.114 436.084 530.694 436.851 531.707C437.619 532.72 438.544 535.306 438.907 537.452C439.269 539.598 439.951 541.592 440.421 541.883C442.167 542.962 442.55 550.838 441.076 555.365C440.271 557.84 439.321 561.215 438.967 562.865C438.613 564.515 437.708 567.215 436.957 568.865C436.205 570.515 434.594 575.135 433.375 579.131C432.155 583.128 430.647 586.728 430.023 587.131C429.398 587.535 426.993 590.34 424.678 593.365C422.362 596.39 418.883 600.627 416.947 602.78C412.113 608.153 411.906 609.456 414.889 615.76C421.544 629.83 437.215 637.79 448.671 632.921C457.82 629.032 462.955 631.557 464.117 640.517C464.428 642.908 465.291 645.753 466.035 646.838C466.779 647.922 467.388 649.883 467.388 651.194C467.388 652.505 468.738 655.282 470.388 657.365C472.038 659.448 473.391 661.763 473.395 662.509C473.398 663.255 474.294 665.215 475.387 666.865C476.48 668.515 477.377 671.526 477.38 673.556C477.384 675.586 477.798 677.501 478.3 677.811C478.802 678.122 479.509 680.286 479.871 682.62C480.233 684.955 481.134 690.015 481.873 693.865C482.612 697.715 483.535 704.69 483.924 709.365C484.314 714.04 485.027 718.908 485.51 720.182C487.688 725.932 486.836 753.582 484.421 755.538C476.458 761.987 451.589 748.654 448.922 736.507C448.543 734.779 447.826 733.365 447.331 733.365C446.835 733.365 446.151 732.258 445.812 730.906C445.472 729.554 444.565 727.923 443.794 727.284C443.023 726.644 442.392 725.15 442.392 723.965C442.392 722.78 441.774 720.922 441.02 719.838C440.265 718.753 439.337 716.438 438.958 714.694C437.822 709.474 434.192 706.369 429.191 706.341C417.108 706.274 404.976 700.246 404.234 693.94C403.793 690.192 404.057 690.31 383.656 684.759C380.49 683.898 376.55 682.736 374.9 682.178C373.25 681.619 370.776 680.916 369.401 680.615C368.026 680.314 365.828 679.235 364.516 678.216C363.204 677.198 361.573 676.365 360.89 676.365C360.206 676.365 359.029 675.617 358.274 674.703C357.52 673.789 355.592 672.242 353.991 671.266C352.39 670.289 347.786 666.25 343.761 662.29C338.419 657.035 336.099 655.356 335.173 656.076C334.476 656.619 330.531 658.067 326.406 659.294C322.282 660.521 316.882 662.166 314.408 662.95C311.933 663.734 309.098 664.373 308.108 664.37C307.119 664.367 304.87 665.116 303.109 666.034C299.759 667.781 295.478 668.899 286.609 670.343C283.693 670.818 280.769 671.65 280.11 672.192C279.451 672.734 276.662 673.502 273.913 673.898C271.163 674.293 268.398 675.026 267.769 675.526C267.141 676.025 264.216 676.71 261.27 677.048C258.325 677.386 255.027 678.27 253.942 679.013C252.858 679.757 249.648 680.365 246.808 680.365C243.968 680.365 240.357 681.037 238.781 681.859C237.206 682.68 233.386 683.355 230.29 683.359C226.823 683.363 224.238 683.878 223.555 684.701C222.31 686.201 203.149 688.26 186.923 688.639C174.557 688.927 172.94 692.786 181.871 700.698C186.576 704.865 186.575 704.865 186.562 711.782C186.554 715.587 187.189 720.537 187.972 722.782C190.954 731.341 187.495 745.594 179.766 756.592C177.928 759.206 176.425 761.847 176.425 762.461C176.425 763.075 175.075 765.282 173.425 767.365C171.775 769.448 170.425 771.538 170.423 772.009C170.422 772.48 169.141 773.722 167.578 774.769C166.014 775.817 163.878 777.953 162.83 779.517C161.784 781.08 160.559 782.361 160.11 782.362C159.661 782.364 157.861 783.44 156.111 784.753C143.338 794.337 137.679 794.255 131.084 784.392C128.949 781.199 128.563 733.633 130.656 731.54C131.549 730.647 131.59 729.847 130.809 728.59C128.064 724.164 127.182 716.583 128.893 712.103C130.57 707.712 129.984 703.443 127.493 701.903C126.909 701.542 126.431 700.394 126.431 699.35C126.431 698.307 125.26 695.746 123.83 693.659C120.448 688.726 116.435 679.695 116.423 676.991C116.416 675.423 115.203 674.34 111.796 672.865C109.256 671.765 106.224 670.322 105.057 669.658C103.889 668.994 101.965 668.009 100.781 667.47C99.5973 666.93 98.3338 666.011 97.9728 665.427C97.6119 664.843 96.5548 664.365 95.623 664.365C93.6692 664.365 84.3683 657.994 83.1535 655.825C82.7045 655.022 81.8797 654.365 81.3197 654.365C80.7608 654.365 78.853 652.903 77.0812 651.115C75.3094 649.327 70.6502 644.799 66.7267 641.052C60.7735 635.365 59.4796 633.547 58.9037 630.052C58.5248 627.749 57.7618 625.305 57.2099 624.622C54.6152 621.408 55.859 567.294 58.6657 561.276C61.3963 555.421 60.3744 546.365 56.9828 546.365C55.588 546.365 48.3698 535.501 45.9291 529.728C43.4094 523.771 39.4421 511.313 39.4421 509.359C39.4421 508.397 38.7669 505.994 37.9421 504.019C37.1172 502.045 36.4423 498.671 36.4423 496.523C36.4423 494.374 35.7674 490.703 34.9425 488.365C34.1176 486.027 33.4428 482.46 33.4428 480.439C33.4428 478.418 32.9918 476.314 32.4399 475.762C31.8889 475.211 31.0239 471.466 30.519 467.441C30.013 463.415 29.1141 459.636 28.5212 459.043C27.9282 458.45 27.4435 456.683 27.4435 455.115C27.4435 453.548 26.6915 450.826 25.7716 449.065C21.2242 440.36 23.8359 401.365 28.9662 401.365C30.0731 401.365 30.443 400.104 30.443 396.333C30.443 393.565 31.1179 389.685 31.9428 387.711C32.8437 385.553 33.4567 380.878 33.4777 375.993C33.5007 370.84 34.0367 366.95 34.9425 365.365C35.7914 363.879 36.4204 359.823 36.4914 355.365C36.6104 347.931 37.06 344.327 39.8007 328.865C40.5806 324.465 41.8017 317.49 42.5136 313.365C43.2255 309.24 44.4005 305.155 45.1244 304.286C45.8483 303.418 46.4411 301.313 46.4411 299.608C46.4411 297.903 47.0329 295.913 47.7558 295.186C48.5657 294.373 49.0827 291.365 49.1007 287.365C49.1297 280.922 49.8456 278.807 55.5338 268.365C56.5827 266.44 57.9897 263.627 58.6596 262.115C59.3295 260.602 60.4385 259.365 61.1234 259.365C64.385 259.365 64.3997 255.648 61.1581 250.922C59.3873 248.342 57.4838 245.433 56.9269 244.458C56.37 243.482 54.6732 241.15 53.1554 239.275C46.6862 231.28 39.8078 221.519 38.0461 217.832C37.0032 215.65 35.7674 213.19 35.3004 212.365C34.8345 211.54 33.7307 209.189 32.8488 207.14C31.437 203.859 23.387 197.388 20.6794 197.357C20.2754 197.352 15.6698 194.539 10.4455 191.107C-4.94961 180.991 -2.17375 171.59 17.9447 165.703C22.2152 164.453 22.1812 161.804 17.7758 152.695C13.4323 143.712 11.7515 75.8528 15.662 67.3648C16.5489 65.4398 17.4809 61.4088 17.7328 58.4068C17.9848 55.4058 18.6976 52.7808 19.3175 52.5738C19.9375 52.3668 20.4442 51.5978 20.4442 50.8638C20.4442 48.8228 25.4216 39.3648 26.4965 39.3648C27.0174 39.3648 27.4435 38.7268 27.4435 37.9468C27.4435 35.6388 33.7846 32.3648 38.255 32.3648C44.3303 32.3648 55.911 38.0888 62.2482 44.2248C68.3054 50.0908 68.4755 50.1508 70.4672 47.1458C73.9558 41.8808 83.7074 32.5768 86.609 31.7438C88.3238 31.2518 90.2235 29.9928 90.8315 28.9448C94.9989 21.7558 105.593 17.0588 120.432 15.8208C125.106 15.4308 129.563 14.6068 130.336 13.9888C132.359 12.3698 180.592 12.4278 182.546 14.0508C183.332 14.7028 186.429 15.5618 189.429 15.9598C192.43 16.3578 195.487 17.2868 196.224 18.0238C196.962 18.7618 198.451 19.3648 199.534 19.3648C200.617 19.3648 202.827 20.3448 204.447 21.5418C207.571 23.8518 212.42 22.7738 212.42 19.7698C212.42 17.6278 226.743 3.69083 229.668 2.98783C231.18 2.62383 232.418 1.88483 232.418 1.34583C232.418 -0.127167 234.593 0.158832 238.456 2.13983ZM230.068 14.7268C216.941 28.7408 215.898 31.3278 221.444 36.1148C223.834 38.1768 226.719 40.9248 227.853 42.2208C228.989 43.5168 232.281 47.0638 235.167 50.1038C238.054 53.1428 240.417 56.4018 240.417 57.3448C240.417 58.2878 241.317 60.0968 242.417 61.3648C243.517 62.6328 244.416 64.4028 244.416 65.2968C244.416 66.1908 245.754 70.0598 247.389 73.8938C249.024 77.7278 250.39 81.9898 250.424 83.3648C250.459 84.7398 251.13 86.9898 251.915 88.3648C252.701 89.7398 253.36 92.7618 253.38 95.0798C253.399 97.3978 254.127 101.393 254.998 103.957C255.902 106.621 256.438 110.812 256.248 113.741C255.912 118.919 258.86 120.295 265.164 117.902C266.763 117.295 266.902 101.253 265.321 99.6718C264.721 99.0718 263.864 94.5938 263.417 89.7218C262.971 84.8508 262.144 79.5148 261.58 77.8648C261.016 76.2148 260.061 72.3898 259.457 69.3648C257.321 58.6608 256.412 55.0658 255.565 53.9718C255.093 53.3628 254.233 51.0648 253.653 48.8648C251.971 42.4868 249.019 34.6618 245.794 28.0338C245.036 26.4768 244.416 24.6638 244.416 24.0058C244.416 23.3478 243.517 22.0388 242.417 21.0968C241.317 20.1548 240.417 18.7708 240.417 18.0208C240.417 16.3178 235.914 11.3648 234.366 11.3648C233.734 11.3648 231.801 12.8778 230.068 14.7268ZM141.197 23.3108C139.695 23.7898 134.52 24.4848 129.699 24.8538C118.689 25.6978 106.466 28.8538 101.714 32.0788C99.7085 33.4398 97.0368 34.9458 95.779 35.4238C94.5211 35.9028 93.2091 37.4188 92.8642 38.7938C92.5182 40.1688 91.2684 41.5868 90.0866 41.9458C86.3161 43.0908 69.5132 62.2398 68.0014 67.1148C67.6174 68.3528 66.8847 69.3648 66.3717 69.3648C65.8588 69.3648 65.4237 69.9278 65.4047 70.6148C65.3857 71.3028 64.5017 73.6648 63.4389 75.8648C62.376 78.0648 61.4921 80.4278 61.4731 81.1148C61.4541 81.8028 61.0394 82.3648 60.5504 82.3648C60.0625 82.3648 59.3484 84.0368 58.9655 86.0798C58.5815 88.1238 57.6318 91.0268 56.8539 92.5308C56.076 94.0348 55.4399 97.4518 55.4399 100.124C55.4399 102.848 54.795 105.836 53.9721 106.924C51.4984 110.195 51.8474 134.78 54.4401 139.865C55.54 142.023 56.4399 144.368 56.4399 145.076C56.4399 149.545 58.3027 145.138 58.8766 139.31C59.7055 130.897 62.6141 125.102 65.7787 125.562C67.8235 125.86 67.8614 126.328 67.9714 152.365C68.0753 176.793 68.2544 179.364 70.2611 185.245C71.458 188.754 72.4379 192.665 72.4379 193.936C72.4379 195.207 72.8877 196.525 73.4377 196.865C73.9876 197.205 74.4377 199.637 74.4377 202.269C74.4377 205.858 74.9616 207.529 76.5334 208.952C78.7891 210.994 78.8598 207.737 76.8781 193.091C76.5101 190.374 76.6603 187.789 77.2262 187.091C77.7732 186.417 78.2821 181.874 78.3571 176.996C78.4331 172.118 78.8869 167.392 79.3678 166.495C79.8478 165.597 80.5687 157.804 80.9696 149.175C81.7465 132.471 83.9404 126.81 88.8998 128.713C91.8654 129.851 92.1123 155.058 89.1857 157.956C88.1228 159.008 88.2527 163.365 89.3466 163.365C90.3475 163.365 93.3722 157.115 95.3949 150.865C96.1068 148.665 97.5325 145.093 98.5624 142.927C99.9592 139.988 100.438 136.691 100.449 129.927C100.466 119.899 100.788 118.941 104.627 117.482C108.861 115.872 109.947 118.175 109.85 128.561C109.8 133.877 109.299 137.899 108.6 138.598C107.958 139.24 107.434 141.036 107.434 142.59C107.434 144.144 106.534 147.976 105.434 151.105C104.334 154.235 103.47 157.486 103.513 158.33C103.556 159.174 104.034 158.657 104.574 157.181C105.254 155.324 106.535 154.282 108.73 153.8C111.904 153.103 115.767 151.005 118.253 148.628C118.98 147.933 120.139 147.365 120.829 147.365C122.403 147.365 126.431 143.153 126.431 141.508C126.431 140.832 128.2 137.936 130.361 135.072C135.322 128.499 136.43 125.552 136.43 118.935C136.43 112.743 139.128 108.365 142.943 108.365C144.245 108.365 145.589 107.915 145.929 107.365C147.193 105.317 154.428 108.232 154.428 110.789C154.428 112.176 161.266 117.656 165.635 119.772C168.225 121.026 170.925 122.513 171.634 123.076C174.744 125.541 197.422 125.37 197.422 122.881C197.422 122.218 196.522 120.86 195.423 119.865C194.323 118.87 193.423 117.598 193.423 117.039C193.423 116.48 192.677 115.198 191.764 114.19C189.226 111.385 191.369 107.365 195.402 107.365C198.463 107.365 202.407 110.307 202.439 112.615C202.462 114.276 206.381 117.909 209.063 118.756C210.242 119.127 211.749 120.879 212.413 122.648C214.349 127.8 215.83 130.77 217.17 132.186C217.858 132.913 218.42 134.353 218.42 135.387C218.42 136.42 218.998 137.625 219.705 138.065C220.412 138.505 221.933 140.094 223.084 141.596C225.177 144.327 225.177 144.327 225.768 141.372C226.834 136.042 234.369 136.359 234.45 141.737C234.467 142.908 235.141 144.739 235.949 145.806C236.756 146.874 237.417 148.81 237.417 150.108C237.417 151.406 238.295 154.133 239.367 156.167C240.44 158.201 241.551 160.653 241.836 161.615C242.121 162.577 243.315 163.365 244.492 163.365C246.165 163.365 246.457 162.984 245.833 161.615C245.395 160.653 244.853 157.194 244.628 153.93C244.404 150.666 243.622 147.066 242.892 145.93C242.162 144.794 241.256 142.173 240.878 140.104C240.5 138.035 239.791 136.096 239.304 135.795C238.816 135.494 238.417 132.854 238.417 129.928C238.417 123.695 240.3 121.186 243.485 123.175C244.532 123.83 245.745 124.365 246.18 124.365C247.609 124.365 247.3 109.044 245.812 106.165C245.044 104.679 244.413 101.529 244.41 99.1648C244.406 96.7998 243.803 93.7128 243.069 92.3058C242.335 90.8978 241.443 87.9308 241.088 85.7108C239.325 74.6808 230.707 58.8468 221.74 50.1618C219.089 47.5938 215.584 43.6478 213.951 41.3928C212.318 39.1378 209.844 36.6848 208.452 35.9408C196.562 29.5878 192.382 27.5968 188.923 26.6398C186.724 26.0318 183.124 25.0108 180.924 24.3708C176.004 22.9398 144.957 22.1118 141.197 23.3108ZM33.0617 46.7978C31.6209 48.6868 30.4281 50.5988 30.4091 51.0478C30.3901 51.4968 29.5061 53.6648 28.4433 55.8648C27.3804 58.0648 26.4964 61.0308 26.4775 62.4558C26.4585 63.8808 25.7736 67.2558 24.9547 69.9558C24.1358 72.6558 23.461 77.6038 23.455 80.9518C23.449 84.2998 22.7722 91.4998 21.9504 96.9518C20.2086 108.507 20.0425 121.179 21.5583 126.865C22.1452 129.065 22.975 133.673 23.404 137.106C23.8329 140.538 24.6288 143.913 25.1728 144.606C25.7167 145.298 26.4445 147.354 26.7895 149.173C27.1344 150.992 28.0974 153.162 28.9303 153.994C29.7622 154.827 30.443 156.321 30.443 157.314C30.443 160.734 33.2215 161.799 41.6754 161.619C51.4432 161.41 50.9785 161.899 48.4728 154.461C47.336 151.086 46.127 145.521 45.786 142.095C45.4451 138.668 44.7033 134.969 44.1383 133.873C42.7995 131.275 43.2485 110.582 44.7013 107.919C45.3183 106.789 46.1462 102.265 46.5421 97.8648C47.3281 89.1128 49.3527 81.0528 51.2365 79.1688C51.8984 78.5068 52.4403 76.7748 52.4403 75.3198C52.4403 73.8648 53.3402 71.8598 54.4401 70.8648C55.54 69.8698 56.4399 68.5978 56.4399 68.0388C56.4399 67.4798 57.0817 66.3118 57.8666 65.4438C62.0471 60.8168 60.4482 56.3948 52.1632 49.6738C42.3865 41.7418 37.4801 41.0038 33.0617 46.7978ZM146.467 121.764C145.896 123.266 145.429 124.96 145.429 125.529C145.429 126.73 142.922 132.742 140.911 136.365C140.148 137.74 138.414 140.918 137.056 143.427C135.698 145.936 131.627 150.758 128.009 154.143C120.699 160.982 120.471 161.363 123.681 161.371C136.446 161.402 145.402 173.807 139.679 183.53C134.995 191.489 121.14 193.757 115.537 187.482C112.968 184.604 112.058 184.19 109.448 184.712C105.294 185.543 95.6328 182.9 92.6781 180.124C85.554 173.43 85.2164 198.289 92.2765 209.688C98.4028 219.578 109.203 228.906 115.88 230.073C116.951 230.26 118.561 231.077 119.458 231.889C120.355 232.701 121.394 233.365 121.766 233.365C122.137 233.365 124.777 234.492 127.632 235.869C131.106 237.546 133.154 238.041 133.826 237.369C135.504 235.691 138.229 236.24 139.872 238.588C141.873 241.443 141.866 245.786 139.858 247.794C138.429 249.222 138.614 249.365 141.889 249.365C144.169 249.365 145.703 248.814 146.067 247.865C146.384 247.04 147.088 246.365 147.634 246.365C148.619 246.365 153.183 244.518 158.927 241.795C160.577 241.012 163.501 240.077 165.426 239.717C167.351 239.356 169.813 238.455 170.898 237.713C171.982 236.972 174.513 236.365 176.522 236.365C178.529 236.365 182.127 235.675 184.516 234.832C187.125 233.912 191.518 233.391 195.517 233.529C201.836 233.746 212.42 230.427 212.42 228.229C212.42 227.864 213.883 226.001 215.67 224.088C217.457 222.176 219.498 219.883 220.205 218.992C222.429 216.191 228.418 204.154 228.424 202.473C228.428 201.589 229.06 199.658 229.83 198.182C230.6 196.707 231.532 194.125 231.901 192.444C232.27 190.763 232.987 189.131 233.495 188.817C234.002 188.504 234.418 184.188 234.418 179.228C234.418 170.208 234.418 170.208 229.918 166.017C227.443 163.713 225.419 161.381 225.419 160.836C225.419 160.292 224.484 159.262 223.341 158.548C220.886 157.015 218.42 158.46 218.42 161.43C218.42 174.054 196.302 179.388 186.173 169.207C184.23 167.253 183.857 162.935 185.472 161.073C186.048 160.409 188.184 157.298 190.221 154.16C195.713 145.695 200.651 142.368 206.664 143.08C212.249 143.742 212.516 143.061 208.908 137.345C206.319 133.243 200.505 131.682 197.819 134.368C196.16 136.027 182.927 137.283 178.707 136.182C176.627 135.638 173.35 134.891 171.425 134.522C168.367 133.935 165.596 132.611 157.197 127.726C156.12 127.099 153.499 124.887 151.372 122.81C147.504 119.034 147.505 119.034 146.467 121.764ZM276.412 128.865C276.412 130.24 276.814 131.365 277.305 131.365C278.471 131.365 279.579 128.444 278.856 127.275C277.767 125.512 276.412 126.394 276.412 128.865ZM275.102 133.115C274.658 133.803 273.383 134.365 272.272 134.365C269.519 134.365 256.36 140.141 254.045 142.365C252.338 144.004 252.275 144.742 253.33 150.801C253.966 154.452 254.203 157.899 253.857 158.459C252.851 160.087 254.315 164.365 255.878 164.365C259.232 164.365 273.413 146.603 273.413 142.401C273.413 141.526 274.118 139.803 274.981 138.572C275.843 137.341 276.404 135.329 276.228 134.1C276.007 132.547 275.663 132.247 275.102 133.115ZM199.678 158.178C196.442 161.858 196.923 164.375 200.863 164.361C206.472 164.341 210.481 157.099 205.856 155.34C202.744 154.157 203.534 153.795 199.678 158.178ZM100.183 163.645C94.1213 170.737 99.7434 175.832 106.043 168.955C108.909 165.825 109.078 165.365 107.358 165.365C106.173 165.365 105.005 164.366 104.434 162.865C103.268 159.798 103.509 159.753 100.183 163.645ZM262.516 173.786C260.647 175.167 258.677 176.444 258.138 176.624C257.547 176.821 257.198 183.283 257.259 192.908C257.315 201.684 257.372 211.452 257.388 214.615C257.409 219.047 257.759 220.365 258.914 220.365C260.049 220.365 260.414 219.139 260.414 215.33C260.414 212.56 261.04 209.298 261.804 208.08C262.569 206.862 263.409 202.609 263.67 198.63C263.931 194.65 264.674 190.757 265.32 189.978C266.075 189.068 266.391 185.476 266.204 179.919C265.914 171.275 265.914 171.275 262.516 173.786ZM30.443 173.365C29.6181 173.898 27.9164 174.341 26.6606 174.35C24.2539 174.366 14.9832 178.685 14.0243 180.237C13.3874 181.269 16.7356 183.694 20.3971 184.853C21.747 185.28 23.4658 186.244 24.2187 186.997C24.9706 187.749 26.2256 188.365 27.0065 188.365C27.7874 188.365 30.4892 189.94 33.0109 191.865C35.5326 193.79 38.1992 195.365 38.9381 195.365C39.6761 195.365 41.5537 196.004 43.1105 196.785C57.0448 203.777 63.0771 203.185 62.5822 194.874C62.0603 186.118 59.7315 181.248 56.4699 182.091C46.0162 184.793 36.4423 181.815 36.4423 175.861C36.4423 172.773 33.3497 171.486 30.443 173.365ZM119.432 175.165C119.432 177.928 121.477 179.367 125.381 179.35C130.886 179.326 132.488 177.793 129.569 175.345C126.407 172.692 119.432 172.568 119.432 175.165ZM235.164 210.364C232.554 215.833 230.418 220.771 230.418 221.336C230.418 221.902 230.04 222.365 229.579 222.365C229.117 222.365 228.226 223.49 227.6 224.865C226.134 228.082 228.259 228.25 233.918 225.365C236.075 224.265 238.675 223.365 239.695 223.365C241.393 223.365 241.53 222.53 241.308 213.539C240.953 199.19 240.588 199.001 235.164 210.364ZM187.841 204.972C189.789 205.72 190.049 213.631 188.173 215.097C186.421 216.466 174.192 219.365 170.17 219.365C161.495 219.365 162.402 209.285 171.207 207.829C173.252 207.49 176.05 206.823 177.425 206.345C182.645 204.532 185.66 204.135 187.841 204.972ZM46.4692 211.615C46.4841 212.303 47.8339 214.633 49.4687 216.793C51.1035 218.954 52.4403 221.11 52.4403 221.585C52.4403 222.061 52.9023 222.993 53.4672 223.657C54.0331 224.321 57.0098 228.24 60.0824 232.365C63.156 236.49 65.9896 240.09 66.3786 240.365C67.4604 241.129 78.4372 260.118 78.4372 261.226C78.4372 261.761 78.7911 262.348 79.224 262.532C79.657 262.715 81.5688 264.825 83.4735 267.22C86.9361 271.576 86.9359 271.576 87.6278 267.72C88.8787 260.754 88.5427 255.91 86.686 254.158C84.1383 251.752 83.1834 250.321 80.7997 245.335C79.6239 242.877 77.2622 237.94 75.5514 234.365C72.2468 227.459 68.4723 216.102 68.4513 212.998C68.4403 211.458 67.9584 211.256 65.6886 211.844C59.2474 213.512 53.5524 213.557 51.2697 211.958C48.544 210.048 46.4312 209.897 46.4692 211.615ZM270.413 219.365C270.413 219.915 272.015 220.365 273.972 220.365C276.09 220.365 277.28 219.96 276.912 219.365C276.572 218.815 274.971 218.365 273.354 218.365C271.736 218.365 270.413 218.815 270.413 219.365ZM89.4357 227.033C89.4357 237.588 91.4735 239.864 100.984 239.935C106.167 239.974 110.3 239.929 110.17 239.836C97.5967 230.842 89.4357 225.803 89.4357 227.033ZM252.528 233.729C251.636 234.805 249.554 235.238 245.585 235.172C239.1 235.065 234.418 236.61 234.418 238.856C234.418 240.136 235.575 240.321 241.278 239.955C245.051 239.712 249.663 239.912 251.527 240.399C253.39 240.886 257.033 241.824 259.622 242.484C264.979 243.848 267.129 247.354 265.4 251.902C264.386 254.569 259.155 255.367 255.503 253.412C254.524 252.888 250.294 252.328 246.101 252.167C236.604 251.802 235.643 252.608 234.441 261.943C233.95 265.75 233.25 270.062 232.884 271.524C232.234 274.125 238.455 278.365 242.921 278.365C243.608 278.365 244.731 279.04 245.416 279.865C246.101 280.69 248.081 281.365 249.816 281.365C251.55 281.365 253.858 281.974 254.942 282.718C256.027 283.463 259.533 284.333 262.733 284.653C265.934 284.973 269.118 285.706 269.812 286.281C272.464 288.482 288.292 288.878 288.959 286.761C289.288 285.718 289.96 284.107 290.452 283.18C290.944 282.254 291.772 278.879 292.294 275.68C292.816 272.482 293.73 268.598 294.326 267.05C297.55 258.675 293.868 248.453 287.584 248.333C286.664 248.316 285.037 247.641 283.97 246.833C282.903 246.026 280.866 245.365 279.443 245.365C278.021 245.365 275.969 244.757 274.885 244.014C273.801 243.271 271.711 242.372 270.243 242.015C267.617 241.378 265.47 236.701 266.809 234.534C267.107 234.051 266.129 233.609 264.633 233.552C263.138 233.496 260.09 233.167 257.859 232.821C254.85 232.354 253.475 232.588 252.528 233.729ZM213.92 241.365C212.82 241.838 210.559 242.256 208.893 242.295C204.034 242.408 198.619 249.606 200.986 252.806C201.776 253.874 202.422 256.238 202.422 258.06C202.422 261.275 204.595 266.405 207.226 269.397C207.935 270.205 209.299 272.373 210.257 274.217C213.426 280.315 218.42 281.265 218.42 275.77C218.42 271.893 218.807 271.05 221.218 269.665C225.297 267.324 228.336 247.817 225.46 242.442C224.264 240.207 217.98 239.62 213.92 241.365ZM183.933 246.967C181.738 247.77 178.814 248.468 177.434 248.517C174.043 248.639 166.052 251.114 159.74 253.996C156.887 255.299 154.233 256.365 153.841 256.365C153.094 256.365 145.097 259.955 137.43 263.733C132.432 266.196 130.956 271.694 133.404 278.721C134.005 280.445 134.75 285.233 135.059 289.36C135.368 293.488 136.222 298.665 136.956 300.865C137.69 303.065 138.567 306.146 138.904 307.712C139.636 311.114 142.474 310.849 148.657 306.804C150.707 305.463 153.636 304.365 155.164 304.365C158.239 304.365 166.37 300.379 170.752 296.723C172.306 295.426 173.999 294.365 174.512 294.365C175.025 294.365 177.686 292.79 180.424 290.865C183.163 288.94 185.598 287.365 185.837 287.365C186.075 287.365 187.558 286.127 189.133 284.615C190.709 283.103 193.218 280.855 194.71 279.622C201.131 274.311 196.461 273.941 188.618 279.139C182.251 283.359 176.115 286.365 173.866 286.365C170.13 286.365 170.073 277.145 173.797 275.185C174.968 274.569 176.15 273.795 176.425 273.465C176.7 273.135 179.167 271.74 181.906 270.365C184.646 268.99 187.49 267.303 188.227 266.615C188.963 265.928 190.209 265.365 190.994 265.365C193.984 265.365 192.267 263.359 189.173 263.237C187.386 263.167 184.799 262.987 183.424 262.836C180.647 262.533 169.029 264.972 166.303 266.431C161.883 268.797 156.656 262.353 159.244 257.727C160.649 255.217 170.75 252.289 179.924 251.731C191.518 251.026 192.423 250.745 192.423 247.846C192.423 244.912 190.18 244.68 183.933 246.967ZM135.43 251.424C135.43 252.006 135.88 252.205 136.43 251.865C136.98 251.525 137.43 251.049 137.43 250.806C137.43 250.563 136.98 250.365 136.43 250.365C135.88 250.365 135.43 250.842 135.43 251.424ZM103.74 255.7C109.073 262.693 106.61 273.013 100.715 268.367C97.9346 266.176 97.9347 266.176 97.6408 274.503C97.4788 279.084 97.8005 283.739 98.3554 284.848C98.9103 285.957 99.7444 288.44 100.21 290.365C101.055 293.865 101.055 293.865 108.994 294.176C125.859 294.837 128.385 291.771 124.551 275.287C124.072 273.227 124.146 269.058 124.725 265.464C126.157 256.568 122.384 253.839 106.989 252.633C101.046 252.168 101.046 252.168 103.74 255.7ZM66.8485 268.078C58.7546 280.151 57.2037 286.154 61.5412 288.623C63.24 289.591 64.8646 291.278 65.1506 292.373C65.4375 293.469 66.3405 294.365 67.1584 294.365C67.9753 294.365 70.8959 296.39 73.6486 298.865C76.4013 301.34 79.024 303.365 79.4779 303.365C79.9309 303.365 80.5877 304.265 80.9367 305.365C81.2856 306.465 82.1195 307.365 82.7904 307.365C83.4604 307.365 89.3917 312.228 95.9709 318.172C108.631 329.61 112.065 331.931 110.901 328.265C110.01 325.458 104.833 317.727 100.752 313.112C98.5946 310.671 97.4347 308.329 97.4347 306.412C97.4347 304.791 96.8249 303.105 96.079 302.665C94.7242 301.865 92.1673 296.859 90.9474 292.615C90.5675 291.293 89.5139 290.365 88.391 290.365C87.0562 290.365 84.0364 286.675 78.3661 278.115C69.1133 264.146 69.3472 264.351 66.8485 268.078ZM204.502 286.315C203.444 286.969 203.601 287.391 205.225 288.26C207.58 289.52 209.081 288.158 207.126 286.536C206.399 285.932 205.275 285.837 204.502 286.315ZM221.205 290.454C218.873 292.195 217.962 292.332 214.706 291.428C206.913 289.263 207.386 290.266 220.419 303.544C230.819 314.139 231.418 314.586 231.418 311.749C231.418 310.098 230.757 307.874 229.95 306.806C229.142 305.739 228.467 303.833 228.45 302.572C228.412 299.857 225.141 288.354 224.419 288.398C224.144 288.415 222.698 289.34 221.205 290.454ZM235.552 291.525C236.128 293.362 237.012 296.871 237.517 299.324C238.022 301.776 238.881 304.229 239.426 304.774C239.971 305.319 240.417 306.394 240.417 307.164C240.417 307.933 241.052 309.981 241.827 311.714C242.602 313.447 243.43 315.54 243.665 316.365C244.427 319.033 247.066 312.199 247.333 306.865C247.471 304.115 248.221 301.155 249 300.286C252.805 296.043 249.211 291.778 240.417 290.099C239.042 289.837 237.149 289.299 236.211 288.903C234.692 288.263 234.62 288.548 235.552 291.525ZM190.923 296.805C178.765 304.946 167.713 311.688 162.179 314.34C155.907 317.344 153.226 319.655 149.428 325.327C147.31 328.49 137.711 341.602 136.36 343.178C135.506 344.173 135.681 344.984 137.082 346.53C138.635 348.243 139.035 350.989 139.595 363.717C139.961 372.048 140.72 383.815 141.282 389.865C141.843 395.915 142.331 405.866 142.366 411.979C142.401 418.091 142.869 425.41 143.406 428.242C143.943 431.075 144.442 444.074 144.516 457.129C144.649 480.865 144.649 480.865 146.914 475.77C151.068 466.424 162.416 468.378 164.881 478.865C166.38 485.236 166.635 489.365 165.531 489.365C164.923 489.365 164.426 490.535 164.426 491.965C164.426 499.223 153.068 504.016 147.064 499.292C144.429 497.22 144.429 497.22 144.429 512.592C144.429 523.216 144.058 528.336 143.229 529.165C141.417 530.977 136.752 530.645 135.986 528.651C135.419 527.173 135.159 527.277 134.104 529.401C133.431 530.756 131.836 532.014 130.559 532.197C128.464 532.497 128.305 532.885 128.92 536.197C130.002 542.033 132.027 543.716 135.499 541.665C139.059 539.562 141.104 540.991 142.007 546.215C144.465 560.428 148.37 561.305 148.417 547.654C148.438 541.577 155.52 537.85 157.442 542.905C157.973 544.301 159.644 546.508 161.156 547.808C164.608 550.778 165.958 564.849 163.023 567.285C162.145 568.014 161.427 569.214 161.427 569.952C161.427 571.589 158.316 573.365 155.447 573.365C152.651 573.365 148.432 569.044 148.413 566.16C148.404 564.898 147.954 563.19 147.413 562.365C145.079 558.809 144.302 563.757 144.822 578.865C145.637 602.577 142.286 647.471 139.169 654.615C137.454 658.543 136.497 659.006 133.458 657.38C131.147 656.143 131.625 633.513 134.043 629.65C135.088 627.981 135.43 623.122 135.43 609.925C135.43 592.415 135.43 592.415 132.18 593.14C126.46 594.416 100.67 594.001 99.2795 592.61C98.5945 591.925 96.8017 591.365 95.2939 591.365C93.786 591.365 92.2474 590.869 91.8725 590.263C91.4975 589.657 89.7787 588.571 88.0529 587.849C83.9974 586.155 75.4374 578.622 75.4374 576.749C75.4374 575.953 74.7626 575.043 73.9377 574.727C73.1128 574.41 72.4379 573.51 72.4379 572.727C72.4379 571.943 71.7799 571.05 70.976 570.741C70.1721 570.433 69.2423 569.322 68.9093 568.273C66.0677 559.319 63.4531 589.028 65.0219 612.445C65.8788 625.242 68.2755 629.535 80.172 639.588C84.4425 643.196 89.5107 647.54 91.4355 649.241C93.3602 650.942 95.442 652.34 96.0629 652.349C96.6828 652.358 97.7496 653.04 98.4345 653.865C99.1194 654.69 100.555 655.365 101.626 655.365C102.697 655.365 105.455 656.643 107.754 658.205C116.619 664.228 128.33 668.673 143.429 671.746C146.453 672.361 149.459 673.21 150.108 673.631C157.321 678.312 210.081 677.799 225.828 672.894C228.527 672.053 232.097 671.365 233.761 671.365C235.424 671.365 239.29 670.741 242.351 669.978C251.22 667.768 261.562 665.534 266.159 664.836C268.493 664.481 270.64 663.806 270.931 663.336C271.222 662.865 273.587 662.197 276.185 661.85C278.785 661.504 282.037 660.855 283.412 660.409C284.786 659.962 287.936 659.046 290.411 658.374C292.885 657.701 296.485 656.556 298.41 655.831C300.334 655.105 302.584 654.52 303.409 654.531C304.234 654.541 306.372 654.058 308.158 653.457C316.137 650.775 318.206 650.106 322.906 648.685C325.656 647.854 329.256 646.93 330.905 646.632C332.555 646.334 334.793 645.477 335.878 644.728C336.962 643.978 338.775 643.365 339.904 643.365C341.034 643.365 342.87 642.727 343.983 641.948C345.096 641.168 347.708 640.211 349.79 639.82C353.542 639.116 358.033 637.149 374.359 629.057C383.14 624.705 395.832 613.452 397.522 608.521C397.728 607.919 401.369 603.7 405.612 599.146C416.461 587.501 421.948 580.581 424.468 575.365C425.664 572.89 427.261 569.671 428.017 568.211C428.774 566.751 429.409 564.051 429.428 562.211C429.448 560.371 430.107 557.74 430.893 556.365C432.718 553.173 432.769 548.335 431.024 544.149C429.003 539.304 427.261 534.198 426.662 531.365C426.371 529.99 425.612 528.19 424.976 527.365C424.34 526.54 422.716 522.568 421.367 518.538C420.017 514.508 418.347 510.74 417.655 510.165C416.962 509.591 416.395 507.877 416.395 506.357C416.395 504.837 415.723 502.305 414.901 500.729C414.08 499.154 413.39 497.19 413.369 496.365C413.348 495.54 412.671 493.991 411.863 492.924C411.057 491.856 410.396 489.767 410.396 488.281C410.396 486.795 409.786 485.345 409.039 485.058C407.722 484.553 404.396 475.951 404.396 473.05C404.396 472.258 403.765 471.086 402.994 470.446C402.223 469.807 401.294 468.09 400.928 466.633C400.562 465.175 398.943 461.322 397.33 458.071C395.717 454.82 394.398 451.151 394.398 449.917C394.398 448.684 393.498 446.86 392.398 445.865C391.298 444.87 390.398 443.334 390.398 442.452C390.398 441.57 388.217 437.104 385.552 432.526C380.259 423.439 380.235 423.45 377.823 436.365C377.463 438.29 376.755 440.38 376.25 441.009C375.744 441.638 375.057 444.464 374.723 447.288C374.388 450.113 373.729 452.662 373.257 452.953C372.786 453.245 372.39 454.919 372.378 456.674C372.366 458.429 371.466 461.827 370.379 464.224C369.291 466.622 368.401 469.194 368.401 469.94C368.401 470.687 367.771 472.775 367.002 474.581C366.232 476.387 364.841 479.89 363.91 482.365C362.979 484.84 361.6 488.215 360.844 489.865C360.089 491.515 359.182 494.102 358.828 495.615C358.475 497.128 357.82 498.365 357.373 498.365C356.926 498.365 356.24 499.826 355.849 501.611C355.186 504.628 354.212 507.221 350.87 514.865C346.3 525.317 345.348 530.19 347.012 534.61C347.894 536.95 348.846 540.44 349.128 542.365C349.409 544.29 350.049 546.376 350.548 546.999C351.402 548.066 353.184 553.766 355.496 562.826C356.052 565.004 356.891 567.254 357.361 567.826C357.831 568.397 358.549 571.108 358.957 573.848C359.365 576.589 360.307 580.287 361.051 582.066C361.794 583.845 362.417 587.228 362.436 589.583C362.456 591.938 363.115 594.99 363.901 596.365C364.687 597.74 365.346 600.197 365.366 601.825C365.385 603.454 366.839 607.56 368.597 610.951C372.056 617.623 371.19 622.365 366.514 622.365C364.161 622.365 359.402 615.552 359.402 612.184C359.402 610.768 358.755 609.073 357.965 608.417C357.175 607.762 356.222 604.776 355.849 601.782C355.475 598.788 354.771 596.093 354.286 595.793C353.8 595.493 353.403 594.207 353.403 592.936C353.403 591.665 352.503 587.808 351.403 584.365C350.303 580.922 349.403 576.865 349.403 575.349C349.403 573.834 348.731 571.305 347.91 569.729C347.089 568.154 346.414 565.492 346.41 563.815C346.407 562.137 345.862 560.223 345.2 559.561C344.106 558.467 342.97 555.104 340.441 545.474C338.822 539.304 336.718 538.338 334.897 542.928C334.037 545.093 332.45 548.714 331.371 550.975C330.29 553.235 329.406 555.502 329.406 556.012C329.406 558.69 316.386 570.096 310.957 572.174C304.287 574.726 294.257 575.064 290.411 572.865C289.036 572.079 286.994 571.42 285.872 571.4C279.365 571.287 260.414 556.978 260.414 552.177C260.414 551.779 259.29 549.796 257.915 547.77C254.397 542.586 255.117 536.869 260.373 528.233C261.501 526.381 263.055 523.515 263.828 521.865C264.6 520.215 266.061 517.74 267.072 516.365C268.085 514.99 270.038 511.683 271.413 509.017C272.788 506.351 275.107 503.153 276.567 501.911C279.987 499.004 281.475 469.834 278.255 468.814C270.576 466.381 273.415 447.365 281.459 447.365C285.411 447.365 285.411 447.365 285.411 442.424C285.411 439.706 284.962 437.205 284.413 436.866C283.864 436.527 282.215 433.688 280.747 430.557C279.279 427.426 277.816 424.64 277.495 424.365C276.359 423.39 269.413 409.606 269.413 408.324C269.413 407.14 265.196 397.549 261.955 391.365C261.234 389.99 260.305 387.29 259.889 385.365C259.002 381.266 257.61 383.39 257.485 389.033C257.368 394.305 256.54 395.367 252.558 395.348C248.202 395.328 239.925 388.302 238.805 383.674C238.431 382.129 237.247 379.29 236.174 377.365C232.496 370.766 239.024 363.691 243.59 369.33C244.91 370.961 246.143 371.459 247.987 371.107C249.934 370.735 251.253 371.368 253.477 373.741C255.666 376.075 256.407 376.438 256.41 375.174C256.413 374.244 256.016 373.236 255.528 372.935C255.041 372.634 254.335 370.752 253.96 368.753C253.585 366.754 252.875 364.387 252.382 363.492C250.359 359.819 247.416 352.372 247.416 350.923C247.416 350.069 245.841 347.627 243.916 345.497C241.786 343.138 240.417 340.594 240.417 338.993C240.417 336.376 233.425 328.365 231.14 328.365C229.894 328.365 206.421 304.588 206.421 303.326C206.421 301.762 202.12 298.377 198.976 297.466C197.296 296.98 195.247 296.331 194.423 296.024C193.598 295.717 192.023 296.069 190.923 296.805ZM258.894 299.758C258.066 301.744 256.956 305.955 256.429 309.117C255.231 316.303 252.778 328.136 251.87 331.115C251.447 332.499 251.605 333.365 252.279 333.365C252.883 333.365 253.663 332.127 254.013 330.615C255.321 324.963 257.786 317.8 259.078 315.892C259.813 314.808 260.417 312.783 260.42 311.392C260.424 310.002 261.147 307.515 262.029 305.865C264.214 301.775 265.457 297.365 264.426 297.365C263.959 297.365 262.863 297.091 261.99 296.756C260.844 296.316 259.984 297.15 258.894 299.758ZM56.1068 300.032C55.7399 300.398 55.4399 301.693 55.4399 302.909C55.4399 304.125 54.765 305.68 53.9401 306.365C52.9592 307.179 52.4403 309.406 52.4403 312.796C52.4403 315.808 51.8245 318.797 50.9726 319.924C50.1527 321.008 49.4875 324.072 49.4665 326.865C49.4465 329.615 48.9907 333.446 48.4538 335.379C47.9168 337.312 46.7769 344.512 45.922 351.379C39.5228 402.746 39.608 402.368 34.5016 402.364C32.5049 402.362 33.1328 441.975 35.2035 446.68C35.8844 448.228 36.4423 450.845 36.4423 452.496C36.4423 454.146 36.9375 456.421 37.5424 457.552C38.1473 458.682 39.2558 463.04 40.0067 467.236C40.7567 471.432 41.8576 477.565 42.4525 480.865C43.0465 484.165 43.9075 487.558 44.3644 488.405C44.8214 489.252 45.5321 492.393 45.944 495.385C46.355 498.377 47.3099 502.578 48.0658 504.721C48.8217 506.863 49.4565 509.797 49.4755 511.241C49.5415 516.125 52.0604 519.372 52.8813 515.633C53.5412 512.631 63.1548 502.365 65.3075 502.365C65.8505 502.365 66.8985 501.802 67.6354 501.115C73.7976 495.364 94.2851 493.065 103.518 497.088C105.947 498.146 109.958 499.858 112.433 500.893C114.907 501.928 118.013 503.589 119.335 504.584C122.08 506.651 123.36 506.188 121.406 503.834C120.663 502.939 119.898 498.7 119.642 494.059C119.393 489.552 118.794 485.369 118.312 484.764C117.829 484.158 117.001 479.883 116.472 475.264C115.263 464.713 113.168 454.524 111.621 451.681C110.968 450.479 110.433 447.693 110.433 445.488C110.433 441.664 107.159 434.365 105.444 434.365C105.008 434.365 104.347 433.154 103.976 431.674C103.212 428.634 99.4645 423.55 91.7275 415.058C86.0112 408.785 85.3593 406.324 88.3739 402.401C90.1517 400.087 90.4346 400.026 93.0143 401.401C95.1281 402.527 95.8579 402.579 96.1779 401.628C98.0147 396.156 106.405 396.022 106.427 401.465C106.43 402.345 107.82 404.978 109.512 407.316C111.206 409.654 112.838 413.089 113.14 414.95C114.339 422.337 116.106 420.766 116.803 411.695C117.17 406.926 117.85 402.538 118.314 401.945C118.779 401.351 119.445 394.611 119.795 386.968C120.145 379.325 120.861 372.552 121.388 371.918C121.914 371.284 122.653 368.837 123.029 366.48C123.764 361.881 125.551 360.389 127.944 362.376C129.194 363.413 129.431 363.204 129.431 361.067C129.431 359.112 128.795 358.379 126.681 357.895C125.169 357.55 121.684 355.039 118.936 352.316C116.189 349.593 113.45 347.365 112.848 347.365C112.247 347.365 110.391 345.903 108.725 344.115C104.983 340.099 90.8996 327.379 88.04 325.432C86.8831 324.645 84.7714 322.812 83.3485 321.361C81.9247 319.909 78.6622 317.215 76.0995 315.374C73.5358 313.532 71.4379 311.742 71.4379 311.395C71.4379 310.759 57.9328 299.365 57.1789 299.365C56.9559 299.365 56.4728 299.665 56.1068 300.032ZM112.027 306.24C109.404 306.804 109.282 306.999 110.777 308.237C111.688 308.992 112.433 310.161 112.433 310.834C112.433 311.508 113.306 313.065 114.371 314.295C116.31 316.531 116.31 316.531 116.964 313.048C118.202 306.448 117.237 305.118 112.027 306.24ZM126.757 315.115C127.638 329.814 129.623 336.547 131.982 332.846C133.028 331.207 134.154 329.64 134.485 329.365C137.161 327.14 138.115 322.503 136.006 321.973C133.329 321.301 129.431 313.909 129.431 309.505C129.431 307.294 128.958 306.365 127.832 306.365C126.447 306.365 126.303 307.543 126.757 315.115ZM264.449 328.299C263.88 329.363 263.414 331.288 263.414 332.577C263.414 333.866 262.793 335.808 262.034 336.892C258.795 341.525 256.957 351.32 258.756 354.366C259.668 355.91 260.414 358.062 260.414 359.147C260.414 360.232 261.089 361.68 261.914 362.365C262.739 363.05 263.414 364.474 263.414 365.529C263.414 366.585 264.764 370.336 266.413 373.865C268.063 377.394 269.413 381.37 269.413 382.701C269.413 384.031 270.038 385.639 270.802 386.273C271.566 386.907 272.429 388.425 272.72 389.646C274.373 396.587 282.67 415.789 284.507 416.924C285.014 417.238 286.306 419.153 287.376 421.18C288.95 424.16 289.331 424.446 289.367 422.674C289.391 421.469 289.861 420.205 290.411 419.865C290.96 419.525 291.429 418.036 291.451 416.556C291.508 412.729 295.62 403.679 298.864 400.242C301.558 397.387 301.583 397.251 300.013 393.943C299.131 392.084 298.41 389.618 298.41 388.464C298.41 387.309 298.043 386.365 297.594 386.365C296.817 386.365 292.41 376.718 292.41 375.018C292.41 374.573 290.836 370.934 288.911 366.932C286.986 362.93 285.411 359.14 285.411 358.51C285.411 357.88 285.01 357.365 284.519 357.365C284.029 357.365 283.329 356.171 282.963 354.711C282.597 353.252 280.973 350.133 279.354 347.781C277.736 345.429 276.412 343.24 276.412 342.917C276.412 342.195 266.278 326.365 265.816 326.365C265.634 326.365 265.019 327.235 264.449 328.299ZM129.206 384.477C128.9 392.513 128.199 399.938 127.648 400.977C127.097 402.015 126.36 406.69 126.011 411.365C125.662 416.04 124.67 422.702 123.807 426.17C122.242 432.453 122.441 460.954 124.068 463.587C124.418 464.154 125.089 468.408 125.559 473.04C126.028 477.672 126.86 482.297 127.406 483.318C127.952 484.339 128.681 488.48 129.024 492.52C129.368 496.56 130.3 501.866 131.095 504.311C132.557 508.811 132.14 515.808 130.344 516.919C128.756 517.9 129.355 520.206 131.362 520.843C132.424 521.181 133.739 522.673 134.283 524.161C134.957 526.004 135.297 508.934 135.351 470.58C135.419 421.961 135.224 413.981 133.919 411.989C132.728 410.171 132.396 406.102 132.351 392.774C132.271 369.018 130.02 363.079 129.206 384.477ZM155.204 392.627C159.715 397.429 161.816 404.133 159.763 407.177C158.767 408.655 157.485 410.765 156.914 411.865C151.854 421.624 142.088 404.467 145.888 392.493C146.838 389.498 152.34 389.578 155.204 392.627ZM155.427 484.365C155.427 486.232 155.694 486.498 156.627 485.565C157.56 484.632 157.56 484.098 156.627 483.165C155.694 482.232 155.427 482.498 155.427 484.365ZM144.624 487.865C144.644 489.515 144.868 490.069 145.122 489.096C145.376 488.123 145.359 486.773 145.085 486.096C144.811 485.419 144.604 486.215 144.624 487.865ZM289.026 495.115C289.76 498.204 292.16 501.35 293.815 501.393C294.417 501.409 296.93 503.219 299.399 505.415C301.866 507.612 305.232 509.961 306.876 510.637C308.52 511.312 314.975 514.414 321.222 517.528C332.495 523.15 332.592 523.178 334.535 521.235C336.477 519.293 336.444 519.229 329.949 512.572C326.351 508.884 323.406 505.528 323.406 505.115C323.406 504.703 322.793 504.365 322.042 504.365C321.291 504.365 319.569 503.494 318.216 502.43C313.75 498.916 306.383 495.484 301.85 494.804C299.394 494.436 297.139 493.736 296.839 493.25C295.248 490.677 288.362 492.321 289.026 495.115ZM74.3556 509.685C71.286 510.884 68.1244 512.54 67.3315 513.365C55.184 525.995 53.1442 536.846 64.2868 529.56C67.3954 527.528 70.0882 525.528 70.2712 525.115C70.4551 524.702 71.6548 524.365 72.9386 524.365C74.2225 524.365 77.5192 523.237 80.2629 521.858C83.0075 520.48 86.7569 519.09 88.5946 518.77C90.4314 518.45 93.6323 517.553 95.705 516.777C100.015 515.163 114.005 514.863 114.933 516.365C115.932 517.984 118.439 517.546 117.794 515.865C117.477 515.04 116.549 514.365 115.73 514.365C114.912 514.365 113.047 513.746 111.587 512.989C101.602 507.813 99.8433 507.364 89.8256 507.435C82.1616 507.49 78.6811 507.996 74.3556 509.685ZM282.465 510.725C281.972 512.023 279.508 516.157 276.99 519.911C274.472 523.666 272.413 527.291 272.413 527.968C272.413 528.645 272.057 529.348 271.622 529.532C264.287 532.623 266.552 549.363 274.924 553.955C276.017 554.554 279.065 556.242 281.697 557.705C284.328 559.168 287.339 560.365 288.387 560.365C289.435 560.365 290.571 560.815 290.911 561.365C292.415 563.8 307.31 562.06 312.486 558.845C314.743 557.443 323.405 546.114 323.405 544.563C323.406 543.847 324.418 541.495 325.656 539.335C327.382 536.323 327.658 535.013 326.839 533.704C325.726 531.925 325.516 531.79 318.73 528.499C316.433 527.385 313.734 526.035 312.731 525.5C311.729 524.964 307.983 523.088 304.409 521.33C300.834 519.571 296.396 516.948 294.546 515.499C284.754 507.831 283.72 507.422 282.465 510.725ZM121.432 516.365C121.432 516.915 121.882 517.365 122.432 517.365C122.981 517.365 123.432 516.915 123.432 516.365C123.432 515.815 122.981 515.365 122.432 515.365C121.882 515.365 121.432 515.815 121.432 516.365ZM97.5368 527.95C96.106 528.547 93.3602 529.336 91.4355 529.704C89.5107 530.071 86.586 531.004 84.9362 531.777C83.2864 532.549 79.9119 533.995 77.4372 534.989C71.2809 537.464 67.4384 540.381 67.4384 542.579C67.4384 544.372 77.867 565.315 79.2738 566.346C79.6638 566.631 80.7707 568.102 81.7326 569.615C82.6955 571.128 84.1472 572.365 84.9591 572.365C85.771 572.365 86.4362 572.825 86.4362 573.386C86.4362 573.948 87.6739 574.935 89.1857 575.58C90.6975 576.224 92.6103 577.282 93.4352 577.93C96.9538 580.693 117.158 585.137 120.179 583.812C121.143 583.389 124.181 582.778 126.931 582.454C132.598 581.786 134.49 575.25 130.982 568.463C130.129 566.814 129.431 564.597 129.431 563.537C129.431 562.477 128.756 561.05 127.931 560.365C127.106 559.68 126.431 558.232 126.431 557.147C126.431 556.062 125.812 553.979 125.055 552.519C121.962 546.551 119.432 540.561 119.432 539.205C119.432 538.413 118.994 537.327 118.458 536.791C117.922 536.255 116.866 534.028 116.112 531.841C114.611 527.49 103.979 525.263 97.5368 527.95ZM402.052 619.194C401.142 620.2 400.397 621.456 400.397 621.986C400.397 626.667 372.023 645.266 364.681 645.397C363.702 645.414 362.028 646.089 360.961 646.897C359.893 647.704 358.261 648.365 357.333 648.365C356.406 648.365 355.087 649.04 354.402 649.865C353.718 650.69 352.313 651.365 351.281 651.365C342.15 651.365 366.121 668.42 381.899 673.15C404.825 680.023 407.733 680.278 417.895 676.306C418.995 675.876 421.523 675.301 423.515 675.029C432.625 673.781 439.613 667.977 446.919 655.591C449.173 651.771 448.185 649.085 444.317 648.516C443.014 648.325 441.048 647.537 439.948 646.766C438.847 645.996 437.157 645.365 436.192 645.365C434.55 645.365 427.448 641.867 419.394 637.093C414.418 634.142 410.456 630.163 410.424 628.084C410.408 627.104 409.726 626.045 408.907 625.731C408.088 625.417 406.945 623.406 406.368 621.262C405.193 616.898 404.45 616.543 402.052 619.194ZM455.479 659.365C451.175 668.269 449.973 669.96 443.39 676.365C436.631 682.94 432.294 685.093 422.133 686.917C420.064 687.288 418.126 687.991 417.825 688.478C417.524 688.966 416.343 689.365 415.201 689.365C409.745 689.365 418.432 693.466 425.608 694.279C440.213 695.932 448.781 704.935 451.98 721.992C452.328 723.847 452.929 725.365 453.316 725.365C453.703 725.365 454.801 727.003 455.755 729.005C460.394 738.734 472.602 749.205 476.498 746.797C477.656 746.081 477.538 730.298 476.326 723.865C475.808 721.115 474.946 714.087 474.412 708.246C473.877 702.406 473.02 696.527 472.508 695.181C471.997 693.836 471.251 690.113 470.85 686.908C470.45 683.703 469.51 679.907 468.761 678.473C468.013 677.039 467.398 674.889 467.394 673.696C467.386 670.836 464.451 665.418 461.651 663.095C460.421 662.074 459.018 659.805 458.534 658.052C457.654 654.865 457.654 654.865 455.479 659.365ZM129.052 683.115C129.415 684.628 130.997 687.8 132.57 690.165C134.143 692.53 135.43 695.05 135.43 695.765C135.43 696.48 136.78 698.929 138.43 701.206C141.842 705.918 142.326 710.639 139.771 714.287C138.223 716.498 138.232 717.001 139.899 721.909C141.057 725.315 141.452 728.343 141.023 730.514C138.807 741.727 138.293 748.609 138.593 763.066C138.805 773.238 139.345 779.682 140.047 780.384C141.312 781.648 148.428 779.208 148.428 777.511C148.428 776.985 150.424 775.386 152.863 773.956C155.302 772.527 158.322 769.897 159.575 768.111C160.828 766.326 162.365 764.415 162.992 763.865C165.006 762.097 174.425 747.77 174.425 746.474C174.425 745.786 175.1 744.547 175.925 743.722C176.75 742.897 177.425 741.325 177.425 740.228C177.425 739.131 177.813 737.476 178.288 736.549C180.858 731.531 180.527 726.481 177.434 723.524C174.186 720.42 173.557 716.762 175.675 713.286C176.759 711.507 176.603 710.971 174.501 709.249C171.34 706.659 167.437 696.982 167.431 691.722C167.425 687.017 167.102 686.803 159.437 686.447C156.417 686.306 152.426 685.555 150.566 684.778C148.706 684.001 146.002 683.349 144.557 683.33C143.112 683.31 140.804 682.651 139.429 681.865C134.619 679.115 128.276 679.879 129.052 683.115Z"
  />
</svg>
