<svg
  width="438"
  height="819"
  viewBox="0 0 438 819"
  fill="none"
  xmlns="http://www.w3.org/2000/svg"
>
  <path
    fill-rule="evenodd"
    clip-rule="evenodd"
    fill="black"
    d="M382.354 2.18089C386.843 5.14089 393.082 13.0327 393.082 15.7497C393.082 16.5697 394.432 19.2408 396.082 21.6858C397.732 24.1308 399.088 27.1908 399.095 28.4858C399.102 29.7808 400.001 33.6939 401.094 37.1799C403.663 45.3769 404.112 110.663 401.683 122.841C398.718 137.708 398.962 141.546 402.741 139.523C407.347 137.058 432.774 137.752 434.981 140.403C437.081 142.926 437.728 146.82 436.206 147.761C435.727 148.057 435.071 149.622 434.748 151.238C434.424 152.855 432.792 155.736 431.119 157.641C429.447 159.546 428.078 161.613 428.078 162.233C428.078 167.063 408.923 186.99 399.616 191.842C398.534 192.405 397.271 194.436 396.809 196.354C396.347 198.272 395.475 201.416 394.871 203.341C394.266 205.265 393.437 209.54 393.028 212.841C392.619 216.141 391.962 219.853 391.567 221.091C390.893 223.206 391.13 223.341 395.531 223.341C401.441 223.341 404.081 224.727 404.081 227.829C404.081 230.614 402.13 235.341 400.981 235.341C400.553 235.341 398.039 237.186 395.393 239.442C392.747 241.697 389.571 244.394 388.333 245.435C385.26 248.02 385.431 251.142 388.713 252.391C397.984 255.916 399.812 259.829 397.01 270.167C395.866 274.388 394.727 278.741 394.477 279.841C394.215 280.997 395.408 284.103 397.303 287.199C399.106 290.146 401.585 294.196 402.811 296.199C404.038 298.202 405.343 300.516 405.712 301.341C406.082 302.166 406.931 303.516 407.599 304.341C408.266 305.166 409.095 307.037 409.441 308.498C409.788 309.96 411.044 313.335 412.232 315.998C415.833 324.073 421.251 339.623 421.758 343.341C422.02 345.266 422.938 348.392 423.796 350.287C426.047 355.253 425.936 419.732 423.654 432.341C422.808 437.016 422.108 443.582 422.097 446.932C422.087 450.282 421.409 455.232 420.59 457.932C419.771 460.632 419.096 465.956 419.09 469.762C419.083 474.338 418.596 477.219 417.653 478.262C416.869 479.131 415.76 482.766 415.188 486.341C412.202 505.01 412.475 504.163 409.328 504.525C406.833 504.812 406.523 505.305 405.962 509.905C405.316 515.209 403.766 520.781 401.533 525.841C400.805 527.491 399.919 530.31 399.563 532.105C399.208 533.9 397.604 537.829 396 540.836C394.395 543.843 393.082 546.878 393.082 547.58C393.082 552.523 384.871 561.341 380.256 561.356C373.435 561.379 372.96 561.931 374.044 568.592C374.55 571.703 375.442 575.14 376.025 576.229C376.607 577.318 377.084 579.836 377.084 581.825C377.084 583.813 377.806 586.837 378.689 588.544C381.437 593.859 381.742 606.343 379.195 609.244C378.034 610.566 377.084 612.183 377.084 612.839C377.084 613.495 376.184 614.846 375.085 615.841C373.985 616.836 373.085 618.024 373.085 618.481C373.085 618.937 371.735 621.505 370.085 624.187C368.435 626.868 367.086 629.656 367.086 630.382C367.086 634.34 348.617 658.134 342.829 661.634C341.047 662.711 339.285 664.072 338.912 664.657C338.199 665.779 333.456 668.482 328.84 670.396C327.329 671.024 326.091 671.84 326.091 672.211C326.091 672.583 324.482 673.752 322.517 674.811C318.887 676.766 318.215 681.747 321.17 684.791C323.144 686.826 320.749 698.507 317.572 702.341C316.888 703.166 316.022 704.849 315.646 706.08C315.271 707.311 312.294 711.586 309.03 715.58C302.759 723.254 302.204 724.783 304.561 727.9C308.762 733.454 304.584 750.341 299.01 750.341C293.977 750.341 292.134 763.494 295.698 773.992C296.949 777.68 297.07 779.491 296.248 782.277C295.67 784.237 294.892 788.316 294.517 791.341C294.143 794.366 293.28 797.516 292.6 798.341C291.92 799.166 291.07 801.079 290.71 802.591C290.351 804.103 289.615 805.341 289.076 805.341C288.536 805.341 288.096 805.993 288.096 806.79C288.096 807.588 286.053 810.4 283.556 813.04C276.587 820.409 255.957 819.61 248.6 811.687C244.823 807.617 243.101 804.931 243.101 803.106C243.101 802.101 242.426 801.019 241.601 800.703C240.583 800.312 240.101 798.716 240.101 795.734C240.101 793.318 239.67 791.341 239.142 791.341C238.614 791.341 237.635 789.428 236.967 787.091C236.299 784.754 235.44 782.391 235.06 781.841C234.679 781.291 234.054 778.377 233.671 775.366C233.287 772.355 232.597 769.43 232.138 768.866C231.678 768.302 231.145 763.724 230.953 758.692C230.622 750.041 230.42 749.316 227.24 745.36C223.627 740.865 222.687 723.357 225.888 720.156C226.556 719.488 227.103 717.906 227.103 716.641C227.103 715.376 227.957 713.553 229.002 712.591C230.046 711.629 232.04 709.81 233.435 708.549C235.573 706.617 238.735 705.727 244.635 705.399C245.204 705.367 246.467 703.991 247.442 702.341C249.615 698.661 247.758 698.384 237.416 700.841C233.943 701.666 228.29 703.008 224.853 703.823C221.417 704.638 215.904 705.737 212.605 706.266C209.305 706.795 204.581 707.688 202.106 708.251C194.745 709.924 146.06 709.545 142.674 707.788C141.14 706.992 138.024 706.334 135.751 706.325C133.476 706.317 128.915 705.619 125.616 704.774C114.68 701.975 106.118 701.453 106.118 703.584C106.118 704.585 105.331 705.647 104.369 705.945C103.406 706.243 101.87 706.884 100.954 707.369C98.935 708.439 97.5654 707.024 96.5655 702.835C95.6316 698.923 93.3259 696.35 90.7152 696.306C89.5633 696.286 87.4955 695.627 86.1207 694.841C81.1823 692.018 77.8347 692.913 75.745 697.617C74.7121 699.94 73.2504 703.148 72.4955 704.745C71.7406 706.342 71.1227 708.479 71.1227 709.494C71.1227 712.903 65.8452 720.864 61.9547 723.322C58.5461 725.477 58.123 726.189 58.118 729.792C58.114 732.019 57.4983 735.017 56.7484 736.454C55.9985 737.891 55.0535 742.616 54.6485 746.954C54.2446 751.292 53.4987 755.1 52.9928 755.416C52.4858 755.733 51.792 758.433 51.4501 761.416C51.1081 764.4 50.2203 767.729 49.4774 768.814C48.7335 769.898 48.1253 771.586 48.1253 772.564C48.1253 773.541 47.6646 774.341 47.1007 774.341C46.5378 774.341 45.6889 775.36 45.2149 776.606C44.0411 779.695 35.2571 789.341 33.6183 789.341C32.8894 789.341 32.1215 789.859 31.9105 790.492C30.7306 794.031 14.1297 791.74 14.1297 788.038C14.1297 787.349 13.2298 786.015 12.13 785.073C11.0301 784.131 10.1162 782.344 10.0982 781.101C10.0812 779.858 9.40639 777.967 8.59849 776.9C7.79159 775.832 7.11649 773.357 7.09849 771.4C7.08149 769.442 6.40663 766.967 5.59873 765.9C3.52099 763.153 3.54698 734.986 5.63072 731.341C8.09341 727.033 7.50866 720.007 4.26206 714.887C0.776499 709.39 -0.479465 682.923 2.62315 680.348C3.45204 679.659 4.13096 678.66 4.13096 678.126C4.13096 671.564 14.8984 666.942 22.9874 670.031C27.7148 671.837 32.1087 668.967 32.1227 664.063C32.1267 662.502 14.6376 644.447 4.64488 635.696C1.92122 633.311 1.03546 631.742 0.974466 629.196C0.695501 617.57 1.03727 613.424 2.51109 610.574C3.40198 608.85 4.12908 606.405 4.12608 605.141C4.12308 603.876 4.7588 600.816 5.5377 598.341C6.3176 595.866 7.46556 591.816 8.08848 589.341C8.7124 586.866 9.6783 583.041 10.2342 580.841C10.7902 578.641 11.6689 576.414 12.1869 575.891C12.7058 575.369 13.1297 573.742 13.1297 572.276C13.1297 570.81 13.9627 568.538 14.9806 567.226C15.9994 565.914 17.0923 563.716 17.4103 562.341C18.5701 557.333 21.3878 550.341 22.2477 550.341C22.7316 550.341 23.1285 549.231 23.1285 547.875C23.1285 545.525 24.0875 542.851 28.159 533.841C31.6926 526.022 34.8742 517.771 35.5602 514.648C35.9421 512.905 36.9019 510.943 37.6908 510.288C38.4807 509.632 39.1266 508.53 39.1266 507.839C39.1266 507.148 40.6933 503.49 42.607 499.711C44.5218 495.933 46.0965 492.06 46.1065 491.106C46.1175 490.152 47.4755 487.177 49.1253 484.495C50.7751 481.814 52.1249 478.937 52.1249 478.103C52.1249 477.269 52.8 476.026 53.6249 475.341C54.4498 474.656 55.1277 473.589 55.1307 472.969C55.1347 472.348 55.7386 470.716 56.4745 469.341C57.2094 467.966 60.1799 462.341 63.0746 456.841C65.9682 451.341 68.8338 446.231 69.4408 445.484C70.5616 444.107 72.4683 440.987 73.7501 438.434C74.1391 437.66 73.7063 434.211 72.7894 430.77C69.8388 419.693 71.4135 400.531 76.0709 390.841C78.2376 386.332 80.1214 380.991 80.1214 379.354C80.1214 378.395 81.0213 376.467 82.1212 375.068C83.2211 373.67 84.1209 371.864 84.1209 371.056C84.1209 370.247 84.7647 369.051 85.5516 368.398C86.3385 367.745 86.9458 365.888 86.8998 364.273C86.8538 362.657 87.4995 360.549 88.3334 359.588C89.1682 358.627 90.1453 356.603 90.5052 355.091C90.8642 353.579 91.6001 352.341 92.139 352.341C92.6789 352.341 93.1228 351.553 93.1268 350.591C93.1298 349.629 94.0266 347.491 95.1195 345.841C96.2123 344.191 97.1092 342.28 97.1122 341.594C97.1162 340.908 98.3992 337.533 99.963 334.094C101.527 330.655 103.637 325.816 104.652 323.341C105.667 320.866 106.961 318.226 107.527 317.475C108.769 315.826 110.764 310.546 112.606 304.035C113.354 301.391 114.497 298.588 115.147 297.805C115.885 296.916 116.283 293.002 116.207 287.374C116.092 278.851 116.248 278.143 119.1 274.204C120.759 271.914 122.116 269.468 122.116 268.768C122.116 268.067 123.779 265.322 125.811 262.668C127.844 260.013 130.992 254.997 132.809 251.521C134.626 248.045 136.674 244.62 137.363 243.91C144.879 236.157 146.397 229.947 142.569 222.608C141.776 221.086 141.124 217.983 141.12 215.713C141.117 213.443 140.439 209.97 139.614 207.995C138.519 205.374 138.114 200.56 138.114 190.157C138.114 173.008 137.144 169.791 129.061 160.134C125.974 156.445 121.531 149.695 119.191 145.134C116.85 140.573 114.296 135.716 113.516 134.341C110.861 129.658 112.071 121.903 115.52 121.51C117.116 121.328 119.061 120.54 119.841 119.76C120.836 118.764 123.717 118.341 129.494 118.341C139.209 118.341 141.114 116.065 141.114 104.455C141.114 101.038 141.727 97.0268 142.476 95.5408C143.225 94.0558 144.096 90.2217 144.411 87.0217C144.725 83.8207 145.422 80.6707 145.958 80.0217C146.495 79.3717 147.234 77.0408 147.601 74.8408C147.968 72.6408 148.867 69.4908 149.598 67.8408C150.33 66.1908 151.681 62.8158 152.599 60.3408C153.519 57.8658 154.91 54.5667 155.692 53.0097C156.473 51.4527 157.112 48.9198 157.112 47.3818C157.112 45.8438 157.787 44.0258 158.612 43.3408C159.437 42.6558 160.111 41.2738 160.111 40.2678C160.111 39.2628 160.727 38.0809 161.481 37.6409C162.234 37.2009 164.067 34.2528 165.553 31.0908C167.039 27.9288 168.673 25.3408 169.183 25.3408C169.693 25.3408 170.11 24.2317 170.11 22.8757C170.11 21.3347 170.953 19.9708 172.36 19.2358C174.265 18.2418 178.612 14.6389 186.192 7.77488C190.561 3.81888 201.033 8.31669 210.169 18.0747C213.38 21.5037 216.279 23.8657 216.614 23.3247C216.948 22.7837 217.9 22.3408 218.728 22.3408C219.556 22.3408 221.369 20.9908 222.757 19.3408C224.208 17.6168 226.254 16.3408 227.569 16.3408C228.828 16.3408 230.378 15.7147 231.013 14.9497C231.647 14.1847 234.166 13.2588 236.611 12.8918C239.055 12.5248 241.316 11.8007 241.637 11.2827C241.957 10.7647 242.987 10.3408 243.925 10.3408C244.863 10.3408 247.309 9.4408 249.361 8.3408C252.284 6.7748 255.003 6.3408 261.904 6.3408C268.104 6.3408 271.291 5.90578 272.656 4.87278C275.381 2.81178 298.5 2.7868 302.094 4.8408C303.468 5.6268 305.874 6.28589 307.439 6.30589C309.004 6.32489 311.479 6.95885 312.938 7.71385C317.793 10.2248 323.141 12.3408 324.635 12.3408C325.446 12.3408 326.88 13.2408 327.822 14.3408C328.764 15.4408 330.747 16.3408 332.229 16.3408C333.711 16.3408 335.072 16.6928 335.256 17.1238C335.74 18.2608 342.974 22.3408 344.506 22.3408C345.222 22.3408 347.391 23.4148 349.324 24.7268C353.229 27.3768 354.477 27.0758 355.411 23.2568C356.131 20.3088 370.063 5.0157 374.585 2.2097C378.296 -0.0933021 378.902 -0.0951108 382.354 2.18089ZM376.25 13.7187C374.527 14.9907 372.103 17.3378 370.865 18.9358C369.626 20.5338 367.652 22.6157 366.477 23.5637C360.786 28.1507 360.565 36.6018 366.01 41.3408C368.387 43.4088 374.085 51.4888 374.085 52.7908C374.085 53.6778 374.716 54.6459 375.485 54.9419C376.256 55.2369 377.151 56.2359 377.474 57.1599C377.797 58.0849 378.961 60.1908 380.061 61.8408C381.162 63.4908 382.33 65.5158 382.658 66.3408C387.645 78.9008 387.845 80.6698 384.633 83.8818C380.114 88.4018 377.424 85.9877 377.184 77.1977C377.121 74.9247 376.511 73.3347 375.559 72.9687C374.719 72.6467 373.16 70.3488 372.094 67.8618C371.028 65.3758 369.691 63.3408 369.122 63.3408C368.552 63.3408 368.086 62.2018 368.086 60.8098C368.086 59.4168 367.41 58.0189 366.586 57.7029C365.761 57.3859 365.086 56.5609 365.086 55.8699C365.086 55.1779 363.735 53.0888 362.083 51.2268C360.431 49.3638 358.122 46.4908 356.95 44.8408C352.052 37.9478 335.853 27.8968 319.091 21.3518C316.067 20.1708 312.692 18.6319 311.592 17.9309C306.232 14.5189 273.469 12.4218 266.098 15.0198C264.173 15.6978 260.799 16.2747 258.599 16.3017C256.169 16.3317 253.031 17.3179 250.6 18.8149C248.4 20.1699 245.431 21.2928 244 21.3098C240.401 21.3528 235.254 23.2289 231.121 26.0039C229.206 27.2889 227.116 28.3408 226.477 28.3408C225.357 28.3408 210.495 41.8018 207.211 45.7908C200.81 53.5648 198.474 54.4719 196.306 50.0249C194.568 46.4589 196.503 42.3738 203.145 35.5898C205.874 32.8028 208.105 30.1178 208.105 29.6218C208.105 28.2738 202.05 22.3408 200.674 22.3408C200.019 22.3408 198.188 20.9908 196.607 19.3408C195.026 17.6908 193.255 16.3427 192.67 16.3447C187.987 16.3637 176.002 29.5488 171.086 40.0908C169.74 42.9778 168.314 45.3408 167.92 45.3408C167.525 45.3408 166.898 47.0288 166.526 49.0908C166.154 51.1538 165.511 53.2908 165.096 53.8408C164.681 54.3908 164.036 56.2717 163.662 58.0217C163.288 59.7707 162.336 61.7388 161.547 62.3938C160.757 63.0498 160.111 64.6879 160.111 66.0349C160.111 67.3819 159.437 69.1589 158.612 69.9839C157.787 70.8089 157.109 72.9138 157.106 74.6618C157.102 76.4108 156.425 79.1348 155.6 80.7168C154.119 83.5568 153.342 87.1177 150.756 102.927C150.029 107.375 149.099 111.554 148.691 112.214C145.485 117.402 149.116 121.042 158.134 121.682C163.025 122.029 167.609 122.432 168.318 122.577C169.252 122.768 169.749 120.706 170.11 115.137C170.385 110.9 171.173 106.873 171.86 106.187C172.548 105.502 173.11 103.511 173.11 101.763C173.11 100.016 173.785 98.0258 174.61 97.3408C175.498 96.6038 176.113 94.4107 176.116 91.9687C176.12 89.6977 176.798 86.5437 177.625 84.9587C178.451 83.3727 179.412 80.2968 179.76 78.1228C180.466 73.7068 182.117 72.5678 185.546 74.1308C188.574 75.5098 189.792 81.3509 187.722 84.5649C186.916 85.8169 185.947 88.5328 185.569 90.6018C185.191 92.6708 184.514 94.5899 184.066 94.8679C183.616 95.1449 182.937 97.9529 182.556 101.107C182.174 104.261 181.525 107.291 181.112 107.841C179.439 110.071 178.915 119.019 180.582 116.9C181.422 115.832 182.109 113.755 182.109 112.285C182.109 110.814 183.009 108.467 184.109 107.068C185.208 105.67 186.108 103.189 186.108 101.556C186.108 99.9219 186.783 98.0258 187.608 97.3408C188.433 96.6558 189.108 94.8359 189.108 93.2949C189.108 90.1639 193.128 84.7858 196.199 83.8118C200.151 82.5568 202.581 87.6347 200.17 92.1047C199.27 93.7717 196.725 99.5118 194.081 105.841C193.392 107.491 192.462 110.416 192.015 112.341C190.445 119.094 188.002 127.86 187.137 129.841C186.656 130.941 185.984 133.844 185.642 136.291C185.3 138.739 184.651 141.214 184.201 141.791C183.751 142.369 183.093 145.412 182.741 148.553C182.389 151.695 181.653 155.295 181.106 156.553C179.806 159.545 178.092 174.491 177.748 185.841C177.598 190.791 177.12 195.629 176.685 196.591C176.12 197.844 176.334 198.341 177.441 198.341C178.532 198.341 179.167 196.944 179.6 193.591C179.938 190.978 180.865 187.363 181.661 185.557C182.458 183.751 183.109 181.219 183.109 179.93C183.109 178.641 183.783 177.026 184.608 176.341C185.433 175.656 186.124 173.689 186.143 171.969C186.163 170.248 186.822 167.716 187.608 166.341C188.394 164.966 189.056 162.491 189.079 160.841C189.102 159.191 190.015 156.491 191.108 154.841C192.2 153.191 193.097 151.054 193.1 150.091C193.104 149.128 193.474 148.341 193.923 148.341C194.777 148.341 199.107 138.614 199.107 136.694C199.107 136.085 199.781 135.026 200.606 134.341C201.431 133.656 202.106 132.261 202.106 131.24C202.106 130.22 203.705 125.887 205.66 121.613C210.72 110.546 210.777 110.415 213.118 104.341C216.875 94.5948 217.415 93.8408 220.642 93.8408C226.474 93.8408 224.375 105.524 215.494 122.495C214.73 123.955 214.105 126.318 214.105 127.745C214.105 129.173 213.685 130.341 213.172 130.341C212.659 130.341 211.931 131.353 211.554 132.591C211.177 133.829 210.304 135.516 209.613 136.341C208.923 137.166 208.076 139.641 207.733 141.841C207.106 145.841 207.106 145.841 208.855 143.341C209.817 141.966 211.617 139.808 212.855 138.546C214.093 137.283 215.105 135.456 215.105 134.485C215.105 133.515 216.349 131.398 217.871 129.781C219.392 128.164 221.674 124.704 222.941 122.091C224.207 119.478 225.649 117.341 226.144 117.341C226.639 117.341 228.209 114.978 229.632 112.091C231.055 109.204 233.087 105.491 234.149 103.841C235.211 102.191 236.401 100.166 236.794 99.3408C237.186 98.5158 238.751 95.9988 240.269 93.7468C241.788 91.4958 243.486 88.4578 244.042 86.9968C245.212 83.9188 246.236 83.7278 249.635 85.9558C252.904 88.0978 252.89 92.6157 249.601 96.9277C248.227 98.7297 246.646 101.248 246.087 102.523C245.529 103.798 244.185 106.191 243.101 107.841C242.017 109.491 240.675 111.741 240.119 112.841C238.935 115.18 237.77 117.02 233.352 123.531C231.566 126.165 230.103 128.826 230.103 129.444C230.103 130.18 231.226 130.342 233.352 129.913C235.139 129.553 239.527 128.864 243.101 128.382C246.676 127.9 252.525 126.119 256.099 124.424C259.674 122.729 263.338 121.342 264.242 121.342C265.145 121.341 266.143 120.666 266.46 119.841C266.776 119.016 267.675 118.341 268.457 118.341C269.238 118.341 272.629 116.316 275.99 113.841C279.352 111.366 282.344 109.341 282.639 109.341C283.568 109.341 289.557 104.9 290.395 103.591C290.835 102.904 291.67 102.341 292.251 102.341C292.832 102.341 295.149 100.878 297.401 99.0908C299.654 97.3038 302.418 95.3778 303.545 94.8118C304.671 94.2458 306.225 92.4458 306.997 90.8118C311.43 81.4338 318.861 85.9917 319.736 98.6247C320.206 105.397 321.302 109.138 324.681 115.495C325.456 116.955 326.091 118.768 326.091 119.523C326.091 120.889 329.475 124.341 330.814 124.341C331.199 124.341 332.558 125.579 333.832 127.091C336.149 129.841 336.148 129.841 335.516 123.218C333.773 104.969 342.027 109.982 345.718 129.414C346.076 131.299 346.7 133.291 347.105 133.841C347.51 134.391 348.864 138.216 350.117 142.341C353.121 152.237 355.087 154.542 355.087 148.17C355.087 145.64 354.415 142.281 353.593 140.705C352.772 139.13 352.097 136.405 352.093 134.65C352.09 132.895 351.637 131.181 351.087 130.841C347.633 128.706 350.614 122.341 355.07 122.341C360.541 122.341 365.776 149.393 364.6 171.591C364.287 177.504 364.421 182.341 364.898 182.341C366.074 182.341 368.083 177.758 368.097 175.044C368.103 173.832 368.777 170.632 369.596 167.932C370.415 165.232 371.085 161.047 371.085 158.632C371.085 156.218 371.794 152.87 372.661 151.193C373.962 148.678 374.235 144.182 374.222 125.493C374.213 113.034 374.434 102.054 374.712 101.091C375.709 97.6498 383.084 99.4488 383.084 103.133C383.084 103.899 383.983 105.67 385.083 107.068C386.745 109.181 387.073 111.067 387.023 118.226C386.97 125.881 386.546 129.37 384.433 139.544C383.883 142.187 383.938 142.222 386.897 141.105C389.899 139.972 389.931 139.882 390.622 130.402C391.005 125.143 391.828 120.209 392.451 119.437C394.543 116.841 393.967 42.5468 391.828 38.8408C390.875 37.1908 390.078 34.2658 390.057 32.3408C390.036 30.4158 389.359 27.9669 388.551 26.8999C387.744 25.8319 387.083 24.3217 387.083 23.5437C387.083 22.7657 385.733 20.4238 384.084 18.3408C382.434 16.2578 381.084 14.0818 381.084 13.5058C381.084 11.3878 379.303 11.4657 376.25 13.7187ZM304.346 106.68C302.283 108.516 298.344 111.23 295.595 112.711C292.845 114.193 289.156 116.628 287.399 118.123C285.64 119.618 281.478 122.556 278.15 124.653C272.098 128.465 272.098 128.465 272.098 134.703C272.098 144.397 266.22 146.507 256.732 140.22C252.02 137.1 252.02 137.1 245.978 138.795C242.654 139.728 239.341 140.263 238.614 139.984C234.748 138.501 222.596 141.556 219.881 144.694C216.821 148.231 216.355 150.341 218.635 150.341C219.478 150.341 220.426 151.016 220.742 151.841C221.092 152.751 222.604 153.341 224.588 153.341C226.386 153.341 228.418 152.666 229.103 151.841C229.788 151.016 231.305 150.334 232.474 150.326C233.645 150.318 236.47 149.661 238.752 148.866C243.891 147.075 250.241 148.949 257.453 154.386C262.593 158.26 263.802 164.55 260.593 170.705C259.771 172.281 259.099 174.148 259.099 174.854C259.099 176.379 251.874 180.341 249.092 180.341C244.787 180.341 242.545 172.046 246.351 170.193C247.314 169.724 248.857 168.973 249.783 168.524C252.982 166.972 253.81 164.371 251.6 162.817C250.5 162.043 249.1 160.984 248.488 160.465C247.435 159.569 244.079 158.989 241.351 159.23C239.621 159.383 239.819 165.384 241.633 167.782C243.445 170.178 243.517 173.39 241.81 175.724C239.669 178.652 235.553 175.988 232.611 169.768C230.129 164.52 230.129 164.52 226.675 165.58C222.786 166.774 218.196 163.832 214.715 157.912C213.029 155.045 208.105 157.501 208.105 161.208C208.105 161.734 206.868 163.237 205.356 164.549C199.502 169.629 196.218 176.341 199.588 176.341C201.436 176.341 201.974 178.727 202.404 188.841C202.591 193.241 203.35 198.416 204.09 200.341C206.84 207.496 208.393 210.881 209.598 212.341C210.279 213.166 211.14 215.115 211.51 216.673C212.227 219.684 222.298 230.149 226.246 231.984C227.542 232.586 230.853 233.99 233.602 235.104C236.352 236.217 240.626 237.951 243.101 238.957C245.576 239.963 247.825 241.068 248.1 241.412C248.375 241.757 255.826 242.329 264.657 242.685C281.02 243.344 289.679 245.093 290.78 247.961C291.071 248.72 292.585 249.341 294.145 249.341C298.765 249.341 300.086 252.246 298.523 258.968C297.373 263.915 296.795 278.56 297.019 297.065C297.108 304.414 305.47 310.394 308.593 305.341C308.933 304.791 310.309 304.341 311.651 304.341C313.676 304.341 314.092 303.849 314.092 301.448C314.092 299.799 314.737 298.307 315.592 297.979C316.759 297.532 317.092 295.558 317.092 289.095C317.092 283.462 317.558 280.121 318.538 278.72C321.375 274.669 320.06 256.572 316.722 253.699C313.386 250.83 311.565 250.756 307.36 253.32C302.239 256.443 299.446 253.832 300.779 247.168C301.651 242.805 306.098 240.23 314.052 239.484C321.628 238.773 336.4 226.791 339.427 218.903C339.757 218.044 340.49 217.341 341.058 217.341C341.625 217.341 342.088 216.541 342.088 215.564C342.088 214.586 342.813 212.75 343.7 211.485C344.587 210.219 345.534 206.631 345.805 203.512C346.348 197.261 347.383 195.341 350.21 195.341C351.319 195.341 352.101 194.625 352.12 193.591C352.137 192.629 352.811 190.967 353.619 189.9C357.076 185.329 355.589 169.223 351.337 165.187C344.894 159.07 343.666 159.251 340.105 166.841C335.21 177.276 330.163 181.606 325.419 179.444C323.506 178.573 322.908 178.654 322.45 179.847C322.055 180.878 320.426 181.341 317.197 181.341C312.034 181.341 305.093 173.588 305.093 167.82C305.093 164.246 314.969 153.355 318.22 153.346C319.114 153.343 320.406 152.666 321.091 151.841C322.044 150.693 324.653 150.341 332.212 150.341C343.183 150.341 343.834 149.838 338.839 145.232C335.224 141.899 334.344 141.914 326.282 145.455C316.596 149.711 311.314 142.187 317.545 133.006C320.736 128.302 320.725 127.945 317.161 120.976C315.549 117.823 313.937 113.911 313.579 112.282C311.598 103.261 309.571 102.031 304.346 106.68ZM178.188 123.924C178.236 125.089 178.473 125.326 178.792 124.529C179.081 123.807 179.045 122.944 178.713 122.612C178.381 122.28 178.145 122.87 178.188 123.924ZM128.615 128.509C121.874 129.958 121.622 130.138 123.48 132.191C124.38 133.185 125.116 134.512 125.116 135.139C125.116 136.988 129.032 143.959 131.672 146.808C133.016 148.258 134.115 149.809 134.115 150.255C134.115 151.961 141.693 160.333 143.242 160.337C144.136 160.339 145.486 161.089 146.241 162.004C146.995 162.918 149.507 164.506 151.821 165.532C154.135 166.558 156.299 167.835 156.63 168.369C156.96 168.904 158.441 169.344 159.921 169.347C161.4 169.351 163.9 170.026 165.475 170.847C169.686 173.044 169.889 172.868 170.402 166.591C170.66 163.428 171.445 159.014 172.146 156.781C174.064 150.676 172.936 147.716 168.369 146.875C166.303 146.494 162.787 145.383 160.557 144.405C158.328 143.427 154.278 142.295 151.558 141.89C144.54 140.845 141.275 135.58 145.205 131.649C147.418 129.436 135.125 127.109 128.615 128.509ZM410.33 149.088C398.106 149.434 398.157 149.416 401.081 152.341C404.447 155.707 403.034 162.341 398.952 162.341C395.576 162.341 383.288 166.39 382.017 167.922C381.369 168.702 380.219 169.341 379.462 169.341C378.655 169.341 378.084 170.388 378.084 171.866C378.084 173.255 377.184 176.952 376.085 180.081C373.091 188.6 373.264 189.255 378.334 188.611C380.671 188.314 383.034 187.74 383.584 187.336C384.134 186.932 386.183 186.087 388.136 185.459C398.004 182.284 419.286 162.567 422.412 153.704C422.871 152.404 423.657 151.341 424.161 151.341C424.665 151.341 425.078 150.666 425.078 149.841C425.078 148.998 424.313 148.435 423.329 148.555C422.367 148.672 416.517 148.912 410.33 149.088ZM390.083 152.341C388.87 153.125 389.014 153.313 390.833 153.326C392.07 153.334 393.082 152.891 393.082 152.341C393.082 151.088 392.021 151.088 390.083 152.341ZM324.091 162.67C316.062 166.898 315.565 167.964 320.347 170.688C323.591 172.535 323.591 172.535 327.84 167.841C333.61 161.468 331.61 158.71 324.091 162.67ZM145.113 177.314C145.113 178.914 145.494 180.458 145.96 180.746C146.425 181.034 147.119 187.883 147.501 195.967C147.883 204.051 148.512 211.155 148.9 211.753C149.288 212.351 150.193 215.316 150.911 218.341C151.628 221.366 153.12 227.666 154.225 232.341C155.331 237.016 156.612 243.146 157.071 245.963C157.529 248.78 158.401 252.013 159.008 253.147C159.615 254.282 160.115 257.377 160.118 260.025C160.122 262.674 160.796 266.13 161.617 267.705C162.439 269.281 163.111 271.389 163.111 272.39C163.111 273.392 163.638 275.478 164.283 277.026C164.927 278.574 166 281.641 166.666 283.841C169.104 291.892 170.709 295.066 178.04 306.341C182.153 312.666 186.504 319.923 187.71 322.468C188.916 325.014 190.399 327.403 191.005 327.777C191.611 328.152 192.108 329.376 192.108 330.496C192.108 331.616 192.727 333.727 193.485 335.187C196.055 340.139 199.107 348.869 199.139 351.36C199.156 352.725 199.83 354.715 200.638 355.782C201.484 356.901 202.106 359.888 202.106 362.832C202.106 365.642 202.669 368.503 203.356 369.19C204.189 370.022 204.725 374.832 204.962 383.605C205.274 395.161 205.489 396.538 206.712 394.865C207.478 393.817 208.112 391.357 208.12 389.4C208.128 387.442 208.866 382.916 209.761 379.341C213.13 365.875 211.845 293.469 208.234 293.314C207.888 293.299 205.356 291.278 202.606 288.823C199.856 286.368 197.269 284.355 196.857 284.35C196.445 284.345 196.107 283.721 196.107 282.963C196.107 282.206 195.444 281.036 194.633 280.363C193.823 279.69 192.866 277.498 192.507 275.491C192.148 273.483 191.124 271.003 190.231 269.979C188.815 268.356 188.641 265.099 188.864 244.479C189.152 217.8 190.192 211.86 194.771 210.711C196.784 210.205 197.137 209.668 196.576 207.962C196.193 206.795 195.659 204.151 195.388 202.085C195.117 200.019 194.493 198.08 194.001 197.776C193.509 197.472 193.1 196.012 193.092 194.532C193.083 193.052 192.684 191.221 192.203 190.463C190.855 188.332 189.112 190.106 189.073 193.65C189.053 195.405 188.394 197.966 187.608 199.341C186.822 200.716 186.163 203.203 186.143 204.868C186.124 206.534 185.499 208.784 184.754 209.868C184.01 210.953 183.147 213.804 182.835 216.203C181.959 222.953 177.794 226.858 173.915 224.567C171.112 222.911 170.764 222.187 169.729 215.841C169.46 214.191 168.74 210.591 168.13 207.841C167.521 205.091 167.126 198.118 167.255 192.345C167.489 181.848 167.49 181.848 162.921 181.195C160.409 180.835 156.161 179.51 153.483 178.25C144.536 174.042 145.113 174.107 145.113 177.314ZM382.084 199.841C380.159 200.582 377.373 201.223 375.894 201.265C374.414 201.307 372.914 201.809 372.56 202.382C372.206 202.954 371.07 203.153 370.034 202.825C368.607 202.372 367.996 202.846 367.51 204.784C367.157 206.19 366.468 207.341 365.978 207.341C365.487 207.341 365.08 207.904 365.073 208.591C365.066 209.279 363.8 212.326 362.259 215.363C357.163 225.411 360.181 228.825 371.085 225.341C374.528 224.241 378.186 223.341 379.214 223.341C380.348 223.341 381.084 222.633 381.084 221.541C381.084 220.551 381.53 219.295 382.074 218.751C382.619 218.206 383.347 215.528 383.693 212.801C384.039 210.073 384.943 206.844 385.703 205.626C387.164 203.282 387.6 198.289 386.333 198.417C385.92 198.459 384.008 199.1 382.084 199.841ZM298.404 208.561C299.601 209.166 300.109 210.35 299.904 212.059C298.701 222.084 270.098 222.279 270.098 212.263C270.098 207.942 291.609 205.129 298.404 208.561ZM199.107 230.876C199.107 235.974 199.605 239.171 200.645 240.76C201.491 242.052 202.113 243.498 202.026 243.975C201.405 247.401 202.549 250.49 205.606 253.638C212.391 260.626 208.122 269.076 200.741 263.268C197.382 260.625 197.43 261.572 201.065 269.59C204.244 276.601 204.428 276.836 211.438 282.777C221.874 291.621 222.275 291.362 224.09 274.613C224.699 268.988 225.849 263.138 226.645 261.613C228.951 257.192 228.555 252.671 225.8 251.98C224.533 251.662 222.172 250.051 220.551 248.399C218.93 246.748 216.832 245.384 215.889 245.369C213.6 245.332 212.111 242.319 212.078 237.657C212.049 233.628 208.485 228.773 202.853 225.091C199.067 222.615 199.107 222.553 199.107 230.876ZM372.585 237.341C372.245 237.891 370.531 238.347 368.776 238.355C363.774 238.376 361.316 239.355 360.74 241.556C360.291 243.273 359.68 243.487 356.78 242.943C353.116 242.256 349.549 243.494 336.671 249.922C327.654 254.423 326.887 255.092 328.111 257.38C329.355 259.704 329.328 265.686 328.052 270.841C327.507 273.041 326.79 280.539 326.457 287.504C325.776 301.771 326.01 302.177 335.835 303.81C338.168 304.198 340.332 304.926 340.643 305.428C340.953 305.93 342.695 306.341 344.512 306.341C346.39 306.341 349.009 307.278 350.574 308.509C352.789 310.252 353.65 310.447 354.959 309.503C358.117 307.225 359.336 307.037 360.259 308.687C362.786 313.201 372.752 310.117 374.615 304.245C375.018 302.974 375.963 301.319 376.716 300.566C377.468 299.814 378.084 298.607 378.084 297.884C378.084 297.161 378.756 295.281 379.578 293.705C380.399 292.13 381.088 289.941 381.109 288.841C381.13 287.741 381.808 285.967 382.616 284.9C383.423 283.832 384.084 281.618 384.084 279.979C384.084 278.34 384.701 276.288 385.456 275.42C389.583 270.674 387.369 261.356 382.11 261.335C381.271 261.331 379.295 260.656 377.72 259.835C376.145 259.013 372.995 258.327 370.721 258.309C364.242 258.259 358.531 249.36 363.841 247.589C364.477 247.377 367.219 245.435 369.933 243.273C372.649 241.11 375.546 239.341 376.371 239.341C377.196 239.341 378.129 238.666 378.446 237.841C379.115 236.096 373.643 235.629 372.585 237.341ZM144.318 252.153C142.477 255.965 142.477 255.965 145.045 257.23C150.02 259.682 150.113 259.671 150.113 256.647C150.113 249.181 146.942 246.722 144.318 252.153ZM243.744 254.405C239.913 255.505 237.103 258.186 237.096 260.746C237.092 261.898 236.468 264.033 235.707 265.49C234.947 266.947 234.01 271.447 233.626 275.49C233.241 279.533 232.328 284.659 231.598 286.88C229.408 293.539 230.855 301.405 234.602 303.216C236.252 304.013 238.492 305.11 239.58 305.655C243.349 307.539 259.758 307.795 262.479 306.012C263.82 305.132 267.19 304.19 269.967 303.918C275.097 303.415 283.096 300.048 283.096 298.39C283.096 297.89 284.108 297.336 285.346 297.161C286.972 296.93 287.5 296.286 287.251 294.841C286.751 291.943 286.453 291.873 283.377 293.932C271.864 301.643 264.098 301.911 264.098 294.598C264.098 292.421 275.775 284.223 282.394 281.753C287.335 279.91 277.8 272.588 272.091 273.842C269.398 274.434 269.098 274.886 269.098 278.355C269.098 286.334 265.623 289.723 261.585 285.684C258.681 282.78 261.054 269.276 265.243 264.859C267.752 262.214 278.223 261.118 279.606 263.356C280.221 264.352 287.203 267.621 287.609 267.104C290.021 264.043 288.749 258.515 285.171 256.503C280.949 254.13 250.135 252.57 243.744 254.405ZM354.266 262.233C363.202 262.495 363.768 274.341 354.844 274.341C353.139 274.341 351.034 273.705 350.167 272.928C348.805 271.71 347.523 271.728 340.854 273.063C330.102 275.215 326.224 271.136 332.738 264.527C335.527 261.697 335.612 261.688 354.266 262.233ZM134.865 274.447C128.115 280.515 128.115 280.515 128.115 286.306C128.115 290.233 127.632 292.497 126.616 293.341C125.791 294.026 125.116 295.795 125.116 297.272C125.116 298.75 124.455 300.832 123.648 301.9C122.84 302.967 122.165 304.673 122.148 305.69C122.116 307.56 121.726 308.552 116.328 320.483C114.676 324.135 113.01 328.553 112.626 330.3C112.242 332.047 111.296 333.719 110.524 334.016C109.751 334.312 109.118 335.207 109.118 336.003C109.118 337.309 107.851 340.49 103.546 349.992C102.761 351.725 102.119 353.381 102.119 353.673C102.119 353.964 100.151 358.396 97.7462 363.522C95.3415 368.647 91.925 376.441 90.1532 380.841C88.3814 385.241 86.2346 390.191 85.3827 391.841C82.2211 397.964 79.7325 426.057 82.0172 429.841C82.3491 430.391 83.1631 434.891 83.826 439.841C85.5118 452.432 87.0947 461.055 88.7245 466.529C89.4924 469.107 90.1202 473.184 90.1202 475.588C90.1202 477.992 90.7811 480.832 91.588 481.9C92.4149 482.994 93.0697 486.046 93.0877 488.891C93.1057 491.669 93.5928 494.414 94.1708 494.992C95.2596 496.081 97.6041 503.648 99.1759 511.143C99.6718 513.508 100.762 516.421 101.598 517.615C102.435 518.809 103.119 520.698 103.119 521.814C103.119 524.631 131.817 525.581 136.937 522.932C138.63 522.057 141.107 521.341 142.442 521.341C143.776 521.341 145.428 520.666 146.113 519.841C146.798 519.016 148.243 518.341 149.324 518.341C151.633 518.341 163.184 513.137 167.159 510.307C168.676 509.226 170.558 508.341 171.34 508.341C177.272 508.341 178.435 498.472 173.622 488.965C171.991 485.743 171.084 481.73 170.601 475.6C170.221 470.783 169.28 465.534 168.51 463.937C167.74 462.34 167.11 460.027 167.11 458.797C167.11 457.566 166.221 454.598 165.133 452.2C164.045 449.803 163.145 446.913 163.133 445.779C163.108 443.397 159.609 435.766 158.119 434.846C157.565 434.503 157.112 433.502 157.112 432.62C157.112 430.304 150.681 424.931 144.204 421.836C141.13 420.367 137.939 418.821 137.114 418.401C136.236 417.954 135.487 415.917 135.308 413.489C135 409.341 135 409.341 140.497 409.341C143.522 409.341 146.29 409.819 146.651 410.403C147.012 410.987 148.276 411.906 149.46 412.446C155.294 415.105 160.111 418.863 160.111 420.755C160.111 424.918 164.045 424.073 165.697 419.556C166.646 416.963 168.701 411.997 170.265 408.521C171.83 405.045 173.11 401.515 173.11 400.676C173.11 399.836 173.764 397.955 174.564 396.495C175.364 395.035 176.46 391.816 177.001 389.341C178.914 380.586 180.224 375.907 181.048 374.88C181.507 374.309 182.198 371.931 182.583 369.596C182.968 367.262 183.693 365.098 184.195 364.787C186.332 363.466 185.016 361.341 182.061 361.341C176.591 361.341 170.144 351.453 170.078 342.964C170.061 340.696 169.386 337.967 168.578 336.9C167.758 335.814 167.11 332.826 167.11 330.118C167.11 327.455 166.436 323.661 165.611 321.687C163.869 317.517 163.614 308.238 165.198 306.654C165.981 305.871 165.981 305.379 165.198 304.895C164.6 304.525 164.105 303.462 164.098 302.532C164.091 301.602 162.734 298.176 161.083 294.919C159.432 291.662 157.813 287.324 157.486 285.279C157.083 282.757 156.123 281.15 154.502 280.282C153.187 279.579 152.112 278.694 152.112 278.316C152.112 276.581 144.836 268.343 143.318 268.36C142.381 268.371 138.577 271.11 134.865 274.447ZM388.406 296.558C387.828 297.814 385.72 302.257 383.72 306.432C381.72 310.608 380.084 314.513 380.084 315.111C380.084 315.709 379.515 316.793 378.82 317.52C375.421 321.072 371.085 327.291 371.085 328.612C371.085 329.428 370.454 330.62 369.683 331.26C368.912 331.899 367.977 333.638 367.605 335.122C367.232 336.606 366.621 338.05 366.246 338.331C362.924 340.818 360.876 349.368 362.014 355.992C362.662 359.759 363.56 366.474 364.01 370.915C365.296 383.621 365.95 384.353 372.825 380.786C383.543 375.225 393.082 376.882 393.082 384.306C393.082 387.905 390.811 389.341 385.117 389.341C374.081 389.341 366.482 396.846 362.236 411.941C361.168 415.736 359.809 420.191 359.216 421.841C356.594 429.141 351.087 448.342 351.087 450.189C351.087 451.308 350.637 452.501 350.087 452.841C348.341 453.921 349.008 456.354 351.337 457.403C352.575 457.96 355.387 459.517 357.587 460.862C359.786 462.207 362.846 463.316 364.386 463.325C365.925 463.334 368.399 463.963 369.885 464.724C371.37 465.485 375.51 466.435 379.084 466.836C382.659 467.236 386.16 468.03 386.864 468.601C388.042 469.554 407.816 468.938 408.837 467.917C409.456 467.299 411.087 456.873 412.604 443.841C413.372 437.241 414.449 429.816 414.997 427.341C415.545 424.866 416.012 414.715 416.036 404.782C416.071 390.503 416.386 386.317 417.547 384.782C419.45 382.266 419.485 376.26 417.611 373.782C416.621 372.472 416.132 369.311 416.111 364.059C416.092 359.474 415.464 354.802 414.58 352.687C413.755 350.712 413.08 348.025 413.08 346.715C413.08 345.405 412.18 342.655 411.08 340.602C409.98 338.55 409.08 335.663 409.08 334.187C409.08 332.711 408.328 330.004 407.407 328.172C406.487 326.34 405.137 323.647 404.407 322.187C403.678 320.727 403.081 318.644 403.081 317.559C403.081 316.474 402.406 315.026 401.581 314.341C400.756 313.656 400.082 312.472 400.082 311.71C400.082 310.947 398.731 308.46 397.082 306.182C395.432 303.905 394.066 301.546 394.046 300.941C393.939 297.67 389.486 294.21 388.406 296.558ZM220.452 309.091C220.803 312.803 221.093 322.054 221.097 329.648C221.105 345.593 221.374 345.676 233.849 333.591C237.398 330.154 240.678 327.341 241.139 327.341C242.149 327.341 249.079 320.152 249.091 319.091C249.096 318.678 246.878 318.341 244.16 318.341C241.442 318.341 238.973 317.942 238.672 317.454C238.371 316.967 236.483 316.26 234.477 315.883C229.456 314.941 225.769 311.965 223.166 306.751C220.179 300.77 219.705 301.179 220.452 309.091ZM285.763 310.008C284.659 311.111 285.011 315.319 286.346 316.987C287.033 317.846 289.732 320.908 292.345 323.791C294.957 326.675 297.101 329.441 297.109 329.938C297.131 331.316 307.688 341.341 309.118 341.341C309.808 341.341 310.921 342.091 311.589 343.007C312.644 344.449 312.905 344.153 313.535 340.791C313.936 338.657 314.9 335.679 315.678 334.175C316.456 332.671 317.092 329.223 317.092 326.513C317.092 323.285 317.626 321.143 318.639 320.301C320.585 318.686 320.127 314.666 318.068 315.283C307.97 318.303 291.364 315.409 291.15 310.591C291.093 309.291 286.93 308.841 285.763 310.008ZM328.797 319.055C328.266 324.232 326.535 331.064 324.545 335.841C323.858 337.491 322.974 341.766 322.582 345.341C322.189 348.916 321.521 352.291 321.096 352.841C320.671 353.391 320.048 357.167 319.712 361.233C319.377 365.298 318.685 369.126 318.176 369.74C317.667 370.353 316.952 378.502 316.586 387.848C315.833 407.092 319.886 405.644 323.603 385.341C324.317 381.439 326.838 374.157 328.796 370.341C329.501 368.966 330.081 366.822 330.085 365.577C330.088 364.332 330.487 362.532 330.973 361.577C332.934 357.719 336.089 348.686 336.089 346.932C336.089 345.904 337.439 342.868 339.089 340.187C340.739 337.505 342.088 334.619 342.088 333.774C342.088 332.929 343.066 330.348 344.259 328.039C348.955 318.961 348.95 318.855 343.847 318.045C340.588 317.527 335.487 316.258 331.439 314.959C329.479 314.331 329.244 314.695 328.797 319.055ZM268.348 316.832C266.561 317.609 265.098 318.705 265.098 319.267C265.098 319.829 263.737 320.994 262.073 321.855C260.408 322.715 254.221 328.241 248.325 334.133C235.045 347.401 230.778 350.918 225.524 352.924C221.401 354.499 221.401 354.499 220.79 365.917C220.453 372.197 219.741 378.15 219.208 379.146C218.675 380.142 217.787 383.856 217.234 387.399C216.032 395.101 214.523 402.128 213.506 404.755C212.988 406.094 213.117 406.452 213.935 405.946C214.579 405.548 215.105 404.434 215.105 403.469C215.105 402.504 216.454 400.422 218.104 398.841C224.056 393.138 230.934 406.892 225.635 413.9C224.827 414.967 224.152 417.052 224.135 418.532C224.117 420.012 223.68 421.485 223.163 421.805C222.645 422.125 221.197 424.438 219.945 426.945C215.928 434.988 208.105 434.598 208.105 426.354C208.105 422.271 208.105 422.271 205.106 425.688C203.456 427.567 202.106 429.552 202.106 430.098C202.106 430.643 199.856 435.523 197.107 440.94C194.357 446.357 192.108 451.489 192.108 452.343C192.108 453.197 191.497 454.784 190.75 455.868C190.003 456.953 189.083 459.529 188.705 461.591C188.327 463.654 187.588 465.341 187.063 465.341C186.538 465.341 186.105 465.904 186.102 466.591C186.098 467.279 185.426 469.125 184.608 470.694C182.497 474.744 182.324 489.183 184.348 492.401C185.193 493.743 186.176 496.513 186.534 498.556C187.328 503.085 189.106 504.528 189.114 500.65C189.118 499.105 189.793 496.552 190.614 494.977C191.436 493.401 192.108 491.468 192.108 490.681C192.108 486.283 201.236 482.383 203.931 485.63C206.388 488.59 207.576 496.145 206.205 500.081C203.351 508.268 196.543 514.778 193.487 512.241C191.477 510.573 191.654 514.566 193.769 518.641C195.993 522.926 195.977 532.364 193.739 535.78C192.126 538.243 192.143 538.715 194.072 544.964C195.191 548.587 196.107 552.608 196.107 553.899C196.107 555.19 196.526 557.281 197.038 558.544C197.55 559.807 198.206 561.966 198.495 563.341C198.785 564.716 200.053 566.291 201.313 566.841C206.807 569.239 208.509 578.751 204.777 586.196C203.497 588.751 202.14 592.394 201.762 594.293C200.964 598.303 197.551 602.341 194.958 602.341C193.968 602.341 192.517 603.579 191.734 605.091C187.777 612.728 186.389 613.341 173.049 613.341C158.841 613.341 146.236 610.661 139.364 606.18C136.089 604.044 135.115 603.76 135.115 604.939C135.115 605.781 134.171 608.804 133.018 611.656C131.865 614.508 130.241 618.641 129.41 620.841C128.579 623.041 127.274 626.035 126.508 627.495C125.742 628.955 125.116 631.077 125.116 632.211C125.116 633.345 124.474 635.751 123.688 637.557C118.928 648.509 115.117 658.85 115.117 660.819C115.117 662.071 114.442 663.656 113.617 664.341C112.792 665.026 112.118 666.685 112.118 668.029C112.118 669.373 111.587 671.455 110.94 672.657C109.47 675.381 107.105 689.611 107.976 690.485C108.329 690.84 110.936 691.4 113.769 691.729C116.603 692.059 119.536 692.565 120.289 692.854C123.004 693.896 138.823 696.401 148.613 697.34C154.112 697.867 161.359 698.827 164.717 699.474C169.354 700.368 171.926 700.373 175.409 699.496C177.931 698.861 184.183 698.324 189.301 698.304C194.419 698.284 201.756 697.591 205.606 696.765C209.455 695.938 215.755 694.64 219.604 693.88C223.454 693.12 228.403 692.018 230.603 691.432C232.802 690.846 238.427 689.417 243.101 688.257C247.776 687.096 253.175 685.544 255.099 684.808C257.024 684.072 260.849 682.98 263.598 682.38C266.348 681.78 273.322 680.124 279.097 678.7C284.871 677.275 292.295 675.539 295.595 674.84C302.665 673.344 309.093 670.719 309.093 669.328C309.093 668.785 309.714 668.341 310.472 668.341C312.323 668.341 322.9 663.458 323.64 662.262C323.963 661.74 325.884 660.429 327.908 659.349C335.99 655.04 336.732 653.756 333.216 650.158C331.508 648.412 329.851 646.164 329.533 645.162C329.215 644.16 328.568 643.341 328.095 643.341C327.621 643.341 326.928 640.896 326.555 637.907C326.155 634.703 325.305 632.253 324.484 631.938C323.718 631.644 323.091 630.784 323.091 630.026C323.091 629.268 322.386 627.234 321.525 625.506C320.207 622.865 320.055 619.693 320.575 605.603C321.317 585.496 321.312 563.432 320.557 517.341C320.087 488.662 320.242 481.913 321.476 477.341C323.102 471.319 324.693 424.341 323.272 424.341C322.84 424.341 321.69 426.555 320.717 429.262C317.282 438.817 310.093 435.483 310.093 424.335C310.093 422.203 309.643 420.181 309.093 419.841C308.543 419.501 308.086 418.462 308.078 417.532C308.043 413.719 306.459 412.908 303.538 415.206C300.893 417.287 300.704 417.303 298.69 415.606C295.261 412.718 295.125 412.227 295.109 402.618C295.086 388.614 300.389 380.036 305.751 385.399C306.496 386.144 306.966 384.51 307.337 379.89C307.627 376.277 308.331 372.759 308.901 372.072C309.471 371.385 310.008 367.902 310.094 364.332C310.323 354.849 310.266 354.531 308.239 353.887C303.744 352.461 280.281 327.256 276.986 320.315C274.461 314.996 273.48 314.601 268.348 316.832ZM356.837 324.811C355.875 326.134 355.087 328.09 355.087 329.157C355.087 330.223 354.404 331.663 353.569 332.356C351.473 334.095 347.116 344.044 345.472 350.841C345.065 352.523 345.275 352.449 346.788 350.378C347.778 349.023 349.376 347.236 350.337 346.406C351.299 345.576 352.087 343.784 352.087 342.423C352.087 341.063 353.188 338.801 354.534 337.396C357.351 334.453 362.086 325.923 362.086 323.788C362.086 321.511 358.766 322.157 356.837 324.811ZM176.144 328.469C176.164 330.873 176.823 333.966 177.609 335.341C178.395 336.716 179.054 339.063 179.074 340.557C179.142 345.799 182.125 350.37 185.032 349.687C189.514 348.635 189.464 347.725 184.342 337.133C178.151 324.328 176.093 322.154 176.144 328.469ZM351.633 362.196C350.497 365.778 348.23 366.815 340.524 367.277C338.984 367.37 336.089 373.914 336.089 377.303C336.089 378.896 335.489 380.799 334.755 381.532C334.022 382.266 333.107 384.83 332.724 387.231C332.34 389.631 331.365 392.538 330.558 393.69C328.92 396.029 328.547 403.341 330.065 403.341C334.158 403.341 335.014 416.655 332.995 448.841C332.408 458.191 331.824 467.641 331.697 469.841C331.571 472.041 330.932 474.824 330.278 476.025C329.521 477.418 329.09 483.3 329.09 492.261C329.09 499.989 328.558 508.301 327.908 510.733C326.992 514.155 327 516.359 327.94 520.497C329.044 525.363 330.359 551.614 330.11 563.841C329.181 609.564 329.602 625.907 331.783 628.679C332.989 630.212 334.514 633.1 335.174 635.097C335.833 637.094 336.774 639.204 337.266 639.785C337.758 640.366 339.225 642.331 340.527 644.153C342.894 647.465 342.893 647.465 345.99 644.437C347.694 642.771 349.088 641.12 349.088 640.769C349.088 640.417 350.326 638.487 351.837 636.481C355.476 631.654 355.771 631.124 363.998 614.649C371.504 599.618 372.781 593.966 369.617 589.782C368.809 588.715 368.135 585.688 368.118 583.056C368.1 580.424 367.433 577.274 366.636 576.056C365.839 574.838 364.693 571.141 364.088 567.841C363.483 564.541 362.731 560.587 362.418 559.055C362.079 557.396 360.754 555.704 359.143 554.87C354.216 552.322 347.657 543.693 345.738 537.233C345.475 536.349 343.802 535.334 342.02 534.977C336.537 533.881 336.089 532.969 336.089 522.91C336.089 516.38 336.514 513.162 337.557 511.782C338.365 510.715 339.04 508.589 339.057 507.059C339.075 505.529 339.764 502.661 340.589 500.687C342.285 496.629 342.606 489.341 341.089 489.341C336.402 489.341 333.646 470.955 337.557 465.782C338.365 464.715 339.04 461.79 339.057 459.282C339.075 456.775 339.75 453.85 340.557 452.782C341.365 451.715 342.042 449.491 342.063 447.841C342.084 446.191 342.756 443.585 343.556 442.049C344.357 440.514 345.454 437.139 345.993 434.549C347.705 426.327 349.237 420.926 350.684 418.01C351.456 416.453 352.087 414.406 352.087 413.462C352.087 412.518 353.428 407.942 355.067 403.293C358.262 394.233 358.688 390.045 357.024 384.054C356.446 381.97 355.661 375.932 355.28 370.634C354.61 361.324 353.053 357.721 351.633 362.196ZM192.073 371.091C192.053 373.154 191.393 375.966 190.608 377.341C189.822 378.716 189.163 380.798 189.143 381.969C189.124 383.139 188.433 384.656 187.608 385.341C186.783 386.026 186.108 387.895 186.108 389.496C186.108 391.096 185.433 394.021 184.608 395.995C183.783 397.97 183.109 400.269 183.109 401.104C183.109 401.939 182.266 404.471 181.237 406.731C177.202 415.587 176.109 418.482 176.109 420.316C176.109 421.365 175.698 422.477 175.196 422.788C171.237 425.235 169.082 436.142 171.604 440.977C172.425 442.552 173.1 444.577 173.104 445.477C173.107 446.376 173.782 448.401 174.604 449.977C175.425 451.552 176.099 454.248 176.103 455.969C176.115 461.921 178.665 462.003 180.567 456.112C181.503 453.213 183.181 448.816 184.296 446.341C185.411 443.866 186.874 440.491 187.546 438.841C188.219 437.191 189.489 434.266 190.37 432.341C191.25 430.416 192.265 427.801 192.625 426.53C192.986 425.259 194.366 423.724 195.694 423.12C198.432 421.872 199.437 406.071 196.937 403.571C196.165 402.799 195.664 396.764 195.462 385.816C195.294 376.694 194.894 368.805 194.573 368.285C193.291 366.211 192.106 367.542 192.073 371.091ZM74.9081 456.038C71.8314 459.463 62.1236 478.163 62.1236 480.664C62.1236 481.438 61.3249 483.144 60.349 484.456C58.1463 487.415 54.1246 495.658 54.1246 497.214C54.1246 498.434 52.3889 501.835 50.4862 504.341C49.8603 505.166 49.0444 507.272 48.6725 509.022C48.3005 510.771 47.3505 512.739 46.5616 513.394C45.7717 514.05 45.1258 515.498 45.1258 516.614C45.1258 517.729 44.045 520.937 42.7252 523.741C36.9399 536.028 35.1271 540.312 35.1271 541.698C35.1271 542.513 34.4703 544.453 33.6664 546.01C30.0398 553.041 26.1283 562.517 26.1283 564.272C26.1283 565.331 25.4532 566.873 24.6283 567.698C23.8034 568.523 23.1285 570.75 23.1285 572.647C23.1285 574.544 22.5097 576.61 21.7538 577.237C20.9969 577.865 20.0849 580.217 19.725 582.465C19.366 584.712 18.4101 587.831 17.6002 589.396C16.7913 590.961 16.1295 593.587 16.1295 595.232C16.1295 596.877 15.7425 598.462 15.2706 598.754C14.7987 599.046 14.1148 601.811 13.7518 604.899C13.3889 607.987 12.479 611.712 11.7291 613.177C8.06956 620.332 8.53529 624.002 13.8846 630.151C21.2067 638.567 34.6963 652.017 37.8619 654.058C39.3827 655.039 41.7142 657.12 43.0431 658.684C45.7727 661.895 54.2056 667.816 62.1236 672.081C64.0484 673.118 68.098 675.328 71.1227 676.992C76.087 679.723 91.3528 685.688 96.7582 687.009C98.7509 687.496 98.947 687.03 99.631 680.186C100.035 676.146 100.985 671.953 101.742 670.868C102.499 669.784 103.119 667.908 103.119 666.7C103.119 665.491 103.75 663.229 104.521 661.672C107.343 655.97 109.118 651.228 109.118 649.388C109.118 648.351 109.769 646.229 110.565 644.672C112.244 641.385 115.046 633.07 115.813 629.091C116.105 627.579 116.722 626.341 117.183 626.341C117.645 626.341 118.467 624.879 119.009 623.091C120.896 616.867 123.262 610.835 124.186 609.891C124.698 609.368 125.116 607.546 125.116 605.841C125.116 604.136 125.532 602.314 126.04 601.791C127.722 600.061 130.94 590.351 130.019 589.782C129.522 589.474 129.115 588.506 129.115 587.629C129.115 586.752 127.738 583.121 126.056 579.56C124.374 575.999 122.511 570.555 121.916 567.463C121.321 564.371 120.448 561.414 119.975 560.891C119.503 560.368 119.117 559.183 119.117 558.258C119.117 556.527 116.407 555.379 112.267 555.355C109.435 555.338 103.119 549.323 103.119 546.641C103.119 545.596 102.611 544.233 101.989 543.611C100.83 542.452 97.4504 533.806 96.4105 529.341C96.0905 527.966 95.2186 525.953 94.4737 524.868C93.7298 523.784 93.1197 522.289 93.1197 521.547C93.1197 520.805 92.4449 519.523 91.62 518.698C90.7951 517.873 90.1043 515.768 90.0853 514.02C90.0653 512.271 89.4064 509.716 88.6205 508.341C87.8346 506.966 87.1754 504.124 87.1554 502.025C87.1364 499.927 86.5875 497.227 85.9366 496.025C85.2847 494.824 84.4269 492.041 84.0289 489.841C79.3985 464.226 76.6618 454.086 74.9081 456.038ZM301.505 467.418C307.892 475.009 301.907 492.502 293.957 489.479C288.331 487.339 288.681 468.3 294.398 465.538C297.824 463.882 298.732 464.122 301.505 467.418ZM346.008 467.992C345.149 477.158 345.325 479.487 346.91 479.973C347.833 480.256 349.368 480.904 350.323 481.414C351.278 481.924 352.628 482.343 353.323 482.346C354.018 482.349 357.652 483.924 361.397 485.846C365.143 487.768 369.474 489.341 371.023 489.341C372.573 489.341 374.4 490.016 375.085 490.841C375.769 491.666 377.286 492.341 378.457 492.341C379.627 492.341 383.735 493.008 387.583 493.824C402.016 496.881 406.081 494.725 406.081 484.013C406.081 480.341 406.08 480.341 396.832 480.189C391.745 480.105 387.133 479.961 386.583 479.87C379.459 478.683 376.417 477.988 375.585 477.354C375.035 476.936 372.335 476.273 369.585 475.88C363.269 474.98 354.334 472.009 349.678 469.262C347.704 468.097 346.052 467.525 346.008 467.992ZM352.082 495.591C352.078 496.279 351.45 498.038 350.688 499.5C349.925 500.963 348.972 504.563 348.57 507.5C348.168 510.438 347.22 513.729 346.464 514.814C343.799 518.634 344.691 523.148 348.416 524.705C351.504 525.995 355.087 531.155 355.087 534.312C355.087 536.895 361.134 544.112 364.286 545.294C366.101 545.974 369.246 547.219 371.275 548.061C378.814 551.187 381.085 550.086 385.127 541.341C389.437 532.018 389.924 530.755 390.507 527.407C390.836 525.518 391.69 523.268 392.404 522.407C394.238 520.196 397.325 509.544 396.514 508.23C395.26 506.202 389.181 504.341 383.807 504.341C380.659 504.341 377.669 503.738 376.525 502.873C375.459 502.065 373.46 501.376 372.085 501.341C370.71 501.306 368.711 500.617 367.645 499.809C366.577 499.002 364.888 498.341 363.891 498.341C362.894 498.341 360.4 497.441 358.348 496.341C354.059 494.042 352.091 493.806 352.082 495.591ZM177.994 516.568C174.357 520.23 163.347 526.341 160.387 526.341C159.394 526.341 156.903 527.241 154.851 528.341C152.798 529.441 150.274 530.341 149.239 530.341C148.204 530.341 146.798 531.016 146.113 531.841C145.428 532.666 143.784 533.341 142.459 533.341C141.134 533.341 138.434 534.016 136.46 534.841C132.589 536.459 121.795 536.745 113.867 535.44C108.464 534.55 108.03 535.25 110.868 540.281C113.725 545.348 127.655 548.125 136.543 545.399C138.232 544.881 142.089 544.02 145.113 543.485C153.087 542.075 164.988 537.622 168.354 534.789C169.954 533.443 171.598 532.341 172.007 532.341C174.779 532.341 183.114 521.903 183.094 518.456C183.064 513.39 181.667 512.873 177.994 516.568ZM179.916 540.169C177.261 543.883 160.187 552.327 155.312 552.336C154.048 552.339 151.783 552.977 150.28 553.755C148.777 554.532 143.921 555.698 139.492 556.346C128.92 557.892 128.129 558.401 130.378 562.208C131.337 563.832 131.867 565.825 131.555 566.637C131.244 567.448 131.917 569.845 133.052 571.962C134.187 574.079 135.115 576.59 135.115 577.541C135.115 578.493 136.464 580.809 138.114 582.688C140.148 585.005 141.125 587.189 141.147 589.473C141.185 593.341 143.63 596.741 147.169 597.847C148.513 598.267 149.903 599.062 150.258 599.614C150.612 600.166 157.261 601.289 165.033 602.109C180.812 603.775 183.109 603.173 183.109 597.373C183.109 594.148 188.053 589.058 190.736 589.519C192.773 589.869 193.035 577.169 191.043 574.764C190.552 574.171 189.7 570.512 189.149 566.633C188.599 562.753 187.69 558.371 187.128 556.895C186.567 555.419 186.108 552.242 186.108 549.835C186.108 547.428 185.693 545.202 185.185 544.889C184.677 544.575 183.967 542.973 183.606 541.33C182.853 537.9 181.779 537.562 179.916 540.169ZM299.645 550.672C299.675 550.765 300.469 552.072 301.411 553.577C303.998 557.715 304.734 567.417 302.73 570.967C301.838 572.548 300.663 575.087 300.119 576.609C297.878 582.881 289.999 582.547 287.053 576.056C284.732 570.943 284.631 568.461 286.589 564.705C287.41 563.13 288.085 560.704 288.089 559.314C288.103 553.323 298.084 545.859 299.645 550.672ZM37.6019 673.962C36.1331 675.888 32.2453 680.184 28.9637 683.508C22.9955 689.551 22.9956 689.551 24.5614 693.466C25.4233 695.62 26.1283 698.24 26.1283 699.289C26.1283 710.228 60.2088 704.158 62.2826 692.849C62.5185 691.56 63.6743 690.677 65.5531 690.349C69.6026 689.641 69.8197 687.78 66.0072 686.451C64.2444 685.836 61.3289 684.21 59.5301 682.837C57.7304 681.464 55.5384 680.341 54.6595 680.341C53.7806 680.341 52.8029 679.666 52.4869 678.841C52.17 678.016 51.2841 677.341 50.5182 677.341C49.7523 677.341 49.1253 676.868 49.1253 676.289C49.1253 675.71 47.7754 674.766 46.1256 674.191C44.4758 673.616 43.1261 672.788 43.1261 672.35C43.1261 669.925 39.9806 670.843 37.6019 673.962ZM13.1297 681.758C13.1297 682.537 12.6229 683.343 12.004 683.55C9.21535 684.479 10.7192 706.303 13.7938 709.512C16.8324 712.685 17.7191 726.502 15.1864 731.235C13.9005 733.637 13.7447 764.985 15.0145 765.77C15.5004 766.07 16.1336 767.56 16.4195 769.079C18.1423 778.216 21.3659 782.744 25.5514 781.906C28.399 781.337 36.1271 774.914 36.1271 773.117C36.1271 772.666 37.2436 770.61 38.6095 768.546C41.6621 763.933 44.7 752.317 45.4369 742.443C45.7398 738.373 46.4147 734.773 46.9356 734.443C47.4566 734.112 48.2025 731.501 48.5914 728.641C48.9804 725.781 49.9351 722.914 50.712 722.269C51.4889 721.624 52.1249 720.42 52.1249 719.595C52.1249 718.769 54.1497 716.311 56.6244 714.132C59.0991 711.954 61.1239 709.773 61.1239 709.287C61.1239 708.352 57.9723 709.216 57.1244 710.384C56.2275 711.619 48.7103 715.106 44.5028 716.24C36.0708 718.51 20.129 713.11 20.129 707.983C20.129 707.441 19.4579 706.257 18.638 705.351C17.5082 704.102 17.1252 700.873 17.0563 692.022C16.9733 681.204 16.8242 680.341 15.0484 680.341C13.9926 680.341 13.1297 680.978 13.1297 681.758ZM303.611 683.463C301.421 683.982 299.193 684.842 298.661 685.374C298.129 685.906 295.963 686.341 293.845 686.341C291.728 686.341 288.556 687.1 286.796 688.027C285.036 688.955 281.571 690.067 279.097 690.498C257.528 694.259 259.659 693.475 259.043 697.872C258.545 701.428 257.838 703.232 254.936 708.341C254.468 709.166 253.535 710.966 252.863 712.341C252.191 713.716 251.373 715.066 251.045 715.341C241.62 723.253 251.765 731.994 271.063 732.59C280.429 732.879 283.761 731.08 291.059 721.792C293.847 718.244 296.57 715.341 297.111 715.341C297.652 715.341 298.094 714.684 298.094 713.88C298.094 713.076 298.921 711.614 299.932 710.63C307.702 703.069 312.926 691.668 311.291 685.841C310.341 682.455 309.27 682.123 303.611 683.463ZM235.19 720.735C232.383 724.117 232.98 736.563 236.187 741.519C238.68 745.371 239.06 747.092 239.684 757.341C240.109 764.308 240.921 769.619 241.743 770.814C242.49 771.898 243.099 773.698 243.096 774.814C243.09 777.469 245.728 785.454 248.886 792.341C250.273 795.366 252.016 799.293 252.758 801.067C255.939 808.675 278.097 811.261 278.097 804.024C278.097 803.703 279.45 801.437 281.102 798.988C282.755 796.538 284.398 793.028 284.753 791.188C285.109 789.347 285.999 786.963 286.733 785.89C288.164 783.795 287.612 773.681 285.968 771.891C281.275 766.78 286.399 744.985 293.191 741.167C295.837 739.679 297.094 738.281 297.094 736.824C297.094 733.248 296.011 733.232 291.2 736.739C281.649 743.698 269.397 746.543 264.598 742.916C263.491 742.079 260.495 741.39 257.88 741.373C249.841 741.319 240.101 734.962 240.101 729.769C240.101 728.525 239.596 727.339 238.979 727.133C238.361 726.927 237.573 725.021 237.227 722.897C236.661 719.41 236.463 719.201 235.19 720.735Z"
  />
</svg>
