<svg
  width="595"
  height="780"
  viewBox="0 0 595 780"
  fill="none"
  xmlns="http://www.w3.org/2000/svg"
>
  <path
    fill-rule="evenodd"
    clip-rule="evenodd"
    fill="black"
    d="M379.4 2.90456C381.847 4.12756 384.738 6.37756 385.826 7.90456C386.914 9.43256 388.445 10.6826 389.228 10.6826C390.565 10.6826 393.148 14.7466 395.694 20.8526C397.259 24.6076 398.966 24.9126 402.76 22.1126C404.572 20.7766 406.587 19.6826 407.238 19.6826C407.888 19.6826 408.98 19.0076 409.665 18.1826C410.35 17.3576 412.393 16.6826 414.206 16.6826C416.018 16.6826 418.776 16.0487 420.333 15.2737C437.711 6.6197 504.635 8.75053 509.881 18.1245C510.36 18.9815 511.364 19.6826 512.112 19.6826C512.86 19.6826 515.826 21.5946 518.703 23.9326C528.936 32.2496 528.686 32.1895 537.031 28.3325C556.385 19.3895 572.316 22.6777 574.756 36.1187C575.162 38.3537 575.981 41.9826 576.578 44.1826C577.886 49.0076 577.733 95.7616 576.394 100.183C575.895 101.833 575.096 106.737 574.619 111.08C574.142 115.423 573.277 119.451 572.698 120.03C572.119 120.609 571.645 123.664 571.645 126.818C571.645 129.972 571.147 133.82 570.539 135.368C569.93 136.916 569.051 141.452 568.586 145.447C568.12 149.442 567.044 153.704 566.193 154.918C565.342 156.133 564.646 158.843 564.646 160.94C564.646 163.037 563.947 165.821 563.092 167.126C560.885 170.494 562.538 171.025 569.559 169.205C585.493 165.076 598.198 171.301 594.07 181.215C593.161 183.397 592.108 185.408 591.729 185.683C591.352 185.958 589.615 188.533 587.87 191.404C584.202 197.441 570.832 213.683 569.53 213.683C569.046 213.683 566.908 215.258 564.778 217.183C562.647 219.108 560.451 220.683 559.897 220.683C559.345 220.683 558.332 221.358 557.647 222.183C556.962 223.008 555.512 223.683 554.425 223.683C551.722 223.683 545.648 229.959 545.648 232.753C545.648 234.002 544.903 235.848 543.993 236.854C542.454 238.556 542.454 238.81 543.993 240.512C547.323 244.191 546.149 249.061 540.654 254.364C535.038 259.784 534.655 260.683 537.961 260.683C543.315 260.683 545.096 265.892 542.695 274.516C541.521 278.733 540.187 283.599 539.733 285.331C539.278 287.062 538.173 289.524 537.277 290.803C535.191 293.782 535.142 297.683 537.189 297.683C538.872 297.683 543.548 300.71 547.951 304.65C551.362 307.701 557.243 318.966 558.209 324.293C558.597 326.432 559.529 329.398 560.281 330.883C561.031 332.369 561.646 335.421 561.646 337.668C561.646 339.914 562.361 342.845 563.236 344.18C564.11 345.514 564.846 348.761 564.872 351.394C564.898 354.028 565.47 357.308 566.143 358.683C568.18 362.842 570.587 374.453 572.26 388.183C574.267 404.663 574.272 404.902 572.727 412.683C572.017 416.258 571.275 420.083 571.077 421.183C570.88 422.283 569.352 424.673 567.683 426.495C566.013 428.316 564.617 430.116 564.581 430.495C564.484 431.534 557.883 437.305 551.172 442.218C544.671 446.977 536.319 449.753 534.369 447.802C532.757 446.19 532.427 446.314 528.094 450.169C519.25 458.038 498.972 458.811 485.832 451.777C484.708 451.175 482.015 450.683 479.85 450.683C477.684 450.683 473.745 449.725 471.098 448.554C466.037 446.315 462.659 447.832 462.659 452.346C462.659 453.138 461.8 455.45 460.75 457.484C453.497 471.536 454.072 478.123 463.561 489.683C466.838 493.676 474.628 506.023 478.581 513.49C479.363 514.969 481.275 517.935 482.83 520.081C484.384 522.227 485.656 524.539 485.656 525.219C485.656 525.898 486.328 527.743 487.149 529.319C487.97 530.894 488.645 533.436 488.649 534.968C488.652 536.5 489.276 538.75 490.035 539.968C493.168 544.995 493.559 556.448 490.679 558.83C488.959 560.253 488.837 560.906 489.785 563.625C491.347 568.108 488.888 592.85 486.658 595.08C486.107 595.632 485.641 597.006 485.622 598.133C485.603 599.261 484.719 601.983 483.656 604.183C482.593 606.383 481.682 608.858 481.631 609.683C481.473 612.231 472.873 627.589 469.973 630.503C469.25 631.23 468.658 632.372 468.658 633.042C468.658 636.9 443.364 661.683 439.427 661.683C437.441 661.683 433.668 665.452 433.63 667.472C433.613 668.413 432.938 670.057 432.13 671.124C430.268 673.587 430.259 676.662 432.106 679.3C435.954 684.793 434.321 700.006 429.565 702.976C428.519 703.63 427.663 704.731 427.663 705.424C427.663 706.116 427.136 706.683 426.492 706.683C422.704 706.683 420.329 713.274 422.615 717.447C426.726 724.95 432.319 741.828 433.626 750.683C435.149 760.992 432.365 774.198 427.935 777.684C424.778 780.167 411.7 780.489 407.666 778.183C406.291 777.397 404.209 776.738 403.038 776.718C401.868 776.699 400.351 776.008 399.667 775.183C398.982 774.358 397.384 773.683 396.116 773.683C394.848 773.683 393.198 773.071 392.45 772.324C391.704 771.576 389.084 770.048 386.63 768.929C382.117 766.87 379.61 764.78 374.17 758.54C370.011 753.77 364.671 745.859 364.671 744.468C364.671 743.832 363.804 742.383 362.744 741.247C358.589 736.796 356.404 719.654 359.153 713.075C360.433 710.008 360.369 694.683 359.074 694.683C357.684 694.683 347.189 697.825 346.304 698.506C343.963 700.308 330.67 702.74 318.151 703.656C311.016 704.178 301.935 705.153 297.97 705.823C287.554 707.583 282.918 704.843 286.959 699.317C289.083 696.41 309.053 692.728 322.837 692.7C328.7 692.689 333.221 692.078 336.835 690.808C339.771 689.777 343.973 688.384 346.173 687.713C348.373 687.043 352.949 685.411 356.343 684.088C359.735 682.765 364.01 681.675 365.842 681.667C369.638 681.65 376.168 679.584 377.901 677.851C378.543 677.209 380.017 676.683 381.175 676.683C384.113 676.683 395.837 672.695 397.746 671.046C398.614 670.296 400.041 669.683 400.918 669.683C401.795 669.683 403.785 668.635 405.339 667.355C407.684 665.424 430.734 653.683 432.178 653.683C433.869 653.683 444.626 645.636 448.935 641.148C456.834 632.922 459.659 629.679 459.659 628.836C459.659 628.415 460.804 626.521 462.203 624.626C466.124 619.318 472.329 607.551 473.11 603.944C473.495 602.163 474.226 600.449 474.734 600.135C476.718 598.909 475.693 594.647 473.185 593.694C471.825 593.177 469.239 591.38 467.436 589.7C458.933 581.779 453.591 576.04 453.007 574.2C452.656 573.091 451.374 570.608 450.16 568.683C448.946 566.758 447.62 564.058 447.213 562.683C445.853 558.096 443.286 552.683 442.469 552.683C442.024 552.683 441.661 552.103 441.661 551.394C441.661 550.686 440.761 548.341 439.661 546.183C438.562 544.025 437.662 541.541 437.662 540.663C437.662 539.784 437.001 538.192 436.194 537.124C435.386 536.057 434.709 533.833 434.688 532.183C434.667 530.533 434.013 527.962 433.235 526.47C431.079 522.337 429.15 509.006 430.477 507.407C431.288 506.429 431.072 505.795 429.612 504.883C428.54 504.214 427.663 502.837 427.663 501.824C427.663 497.151 425.569 493.663 423.446 494.8C416.885 498.311 412.803 485.184 417.567 475.893C419.997 471.154 423.94 467.468 426.312 467.718C430.149 468.123 430.663 467.676 430.669 463.933C430.673 461.871 431.33 458.926 432.131 457.391C432.932 455.855 433.889 452.93 434.258 450.891C434.627 448.851 435.544 445.967 436.296 444.482C437.047 442.996 437.662 440.605 437.662 439.167C437.662 437.728 438.217 435.569 438.896 434.367C440.036 432.347 440.794 429.87 443.533 419.201C444.095 417.01 445.029 415.06 445.608 414.867C446.187 414.674 446.661 413.496 446.661 412.249C446.661 408.83 448.654 403.563 451.298 400C453.938 396.442 454.23 394.653 452.46 392.883C450.543 390.966 449.66 391.475 449.66 394.496C449.66 402.684 440.407 412.621 435.571 409.625C432.989 408.026 433.866 391.146 436.814 385.683C438.867 381.881 439.076 380.718 438.174 378.183C436.969 374.798 433.698 368.441 432.772 367.683C430.947 366.187 423.733 356.725 422.292 353.933C421.368 352.145 420.174 350.683 419.638 350.683C419.102 350.683 418.649 349.671 418.63 348.433C418.611 347.195 417.727 344.383 416.664 342.183C415.601 339.983 414.717 337.036 414.698 335.633C414.679 334.231 414.167 332.585 413.558 331.976C412.949 331.367 412.124 329.363 411.725 327.525C410.999 324.182 410.999 324.183 406.054 329.261C403.334 332.054 398.952 335.602 396.317 337.147C393.681 338.692 390.573 341.245 389.409 342.82C388.244 344.395 386.538 345.683 385.616 345.683C383.922 345.683 382.669 350.889 382.669 357.917C382.669 359.543 382.051 362.069 381.296 363.529C378.53 368.876 376.669 373.799 376.669 375.771C376.669 377.592 375.581 380.438 371.098 390.333C370.312 392.066 369.67 393.915 369.67 394.442C369.67 394.969 368.326 398.052 366.684 401.292C365.041 404.532 363.691 408.169 363.684 409.374C363.677 410.579 363.26 411.818 362.758 412.129C361.749 412.752 358.233 419.901 357.197 423.433C356.834 424.671 356.153 425.683 355.684 425.683C355.215 425.683 354.536 427.027 354.175 428.67C353.814 430.313 352.435 433.576 351.113 435.92C349.789 438.264 348.294 441.083 347.79 442.183C347.286 443.283 345.703 445.89 344.273 447.977C342.844 450.064 341.674 452.146 341.674 452.604C341.674 453.062 341.026 453.976 340.234 454.633C335.244 458.776 338.85 461.018 355.89 464.367C357.385 464.66 359.127 465.527 359.761 466.292C360.396 467.057 361.873 467.708 363.043 467.738C368.748 467.887 372.523 479.873 368.325 484.512C366.729 486.276 366.617 487.193 367.498 491.326C368.13 494.288 368.166 496.756 367.594 497.826C367.087 498.775 366.671 500.275 366.671 501.159C366.671 503.221 361.496 510.446 355.422 516.866C352.809 519.627 350.673 522.29 350.673 522.784C350.673 523.279 350.182 523.683 349.582 523.683C348.982 523.683 346.651 525.258 344.402 527.183C342.154 529.108 339.595 530.683 338.717 530.683C337.838 530.683 336.06 531.424 334.768 532.331C332.925 533.622 329.587 534.028 319.352 534.211C305.654 534.456 302.679 535.552 302.679 540.35C302.679 541.145 301.329 544.516 299.679 547.842C298.029 551.167 296.679 554.56 296.679 555.381C296.679 556.203 296.074 558.069 295.334 559.529C290.451 569.171 286.681 577.618 286.681 578.917C286.681 579.754 286.006 580.998 285.181 581.683C284.356 582.368 283.681 583.718 283.681 584.683C283.681 585.648 283.006 586.998 282.181 587.683C281.356 588.368 280.681 589.727 280.681 590.703C280.681 591.679 279.392 595.111 277.819 598.33C276.244 601.549 274.66 605.421 274.3 606.933C273.939 608.445 273.202 609.683 272.663 609.683C272.123 609.683 271.667 610.471 271.648 611.433C271.629 612.395 270.745 614.983 269.683 617.183C268.62 619.383 267.736 621.915 267.717 622.811C267.698 623.706 267.058 624.957 266.294 625.591C265.53 626.225 264.421 628.641 263.829 630.962C263.238 633.283 261.839 636.966 260.719 639.144C259.6 641.323 258.684 643.825 258.684 644.703C258.684 645.582 258.023 647.174 257.216 648.242C256.408 649.309 255.731 650.858 255.71 651.683C255.689 652.508 254.999 654.471 254.178 656.046C253.357 657.622 252.675 660.097 252.663 661.546C252.651 662.996 251.751 666.145 250.663 668.542C249.405 671.315 248.685 675.059 248.685 678.832C248.685 682.826 248.02 686.067 246.647 688.757C243.71 694.517 244.117 694.683 261.22 694.683C279.115 694.683 282.596 696.305 277.975 702.49C275.119 706.313 228.601 705.674 219.189 701.683C218.089 701.217 214.05 700.553 210.212 700.208C206.375 699.863 202.55 699.018 201.713 698.33C200.876 697.642 197.754 696.963 194.774 696.821C191.796 696.678 188.433 695.914 187.303 695.122C186.173 694.331 184.561 693.673 183.72 693.661C181.942 693.635 175.901 690.757 170.195 687.216C167.995 685.851 162.962 683.082 159.01 681.062C155.058 679.043 150.418 676.107 148.7 674.537C146.981 672.967 145.177 671.683 144.692 671.683C144.206 671.683 142.098 670.107 140.005 668.181C134.571 663.179 127.434 662.685 123.803 667.06C123.181 667.809 120.542 669.193 117.938 670.136C112.96 671.938 107.989 674.079 103.55 676.334C102.09 677.075 100.052 677.683 99.0222 677.683C95.0217 677.683 93.0167 680.329 92.4258 686.39C91.2739 698.212 83.948 706.659 74.8071 706.707C72.2775 706.72 68.408 707.216 66.2083 707.809C64.0085 708.402 60.409 709.119 58.2092 709.403C56.0095 709.686 53.8496 710.54 53.4097 711.301C52.9697 712.061 51.974 712.683 51.1951 712.683C48.8884 712.683 47.7105 716.144 47.7105 722.926C47.7105 726.983 47.1766 730.007 46.2427 731.242C45.4348 732.309 44.7598 733.972 44.7428 734.937C44.7248 735.901 43.8109 738.368 42.7111 740.421C41.6112 742.473 40.7113 744.654 40.7113 745.265C40.7113 748.729 28.3268 757.601 23.4085 757.661C20.8948 757.692 13.3248 754.122 11.668 752.125C0.886321 739.133 -3.44508 690.384 5.23084 679.683C5.89976 678.858 6.72166 677.022 7.05762 675.604C7.39258 674.186 8.74435 671.865 10.0602 670.445C11.376 669.025 12.7319 666.809 13.0729 665.522C13.4148 664.235 15.1016 661.608 16.8234 659.683C18.5442 657.758 21.5698 654.219 23.5465 651.819C25.5233 649.419 30.4187 645.243 34.4262 642.539C38.4327 639.835 41.7112 636.965 41.7112 636.162C41.7112 634.042 45.9397 624.683 46.8976 624.683C47.3445 624.683 47.7105 624 47.7105 623.167C47.7105 616.675 64.9574 616.211 72.0405 622.513C75.924 625.968 86.9156 618.321 86.1177 612.719C85.7627 610.224 85.0748 607.754 84.5889 607.232C83.0911 605.62 83.551 595.98 85.2058 594.326C86.2037 593.328 86.7056 590.831 86.7056 586.869C86.7056 583.529 87.3613 579.652 88.1992 578.046C89.0201 576.471 89.6952 574.271 89.6992 573.156C89.7022 572.04 90.3192 570.24 91.0701 569.156C91.821 568.071 92.7688 566.058 93.1758 564.683C93.5837 563.308 95.1535 559.483 96.6643 556.183C101.833 544.895 102.704 542.613 102.704 540.349C102.704 539.103 103.12 537.656 103.629 537.133C104.138 536.611 106.402 532.583 108.661 528.183C112.25 521.193 118.864 510.312 125.151 501.055C126.224 499.475 128.811 496.407 130.9 494.236C132.99 492.065 134.7 489.859 134.7 489.336C134.7 488.813 136.713 485.865 139.174 482.784C141.635 479.704 144.327 476.283 145.158 475.183C148.056 471.345 163.252 453.16 165.963 450.287C167.466 448.694 168.695 446.976 168.695 446.469C168.695 445.963 170.921 443.216 173.642 440.366C189.968 423.259 191.385 420.291 187.092 412.183C182.399 403.316 184.384 375.683 189.716 375.683C191.302 375.683 191.692 375.003 191.692 372.236C191.692 368.88 194.436 362.691 198.449 356.995C199.538 355.448 200.73 353.211 201.098 352.024C201.466 350.838 202.425 349.615 203.229 349.307C204.033 348.998 204.691 347.91 204.691 346.889C204.691 345.867 205.867 343.94 207.302 342.606C208.739 341.273 211.585 337.708 213.626 334.683C222.564 321.435 222.41 321.618 240.686 302.617C249.196 293.769 260.972 280.873 263.599 277.524C264.995 275.743 265.683 273.411 265.683 270.451C265.683 266.172 279.265 249.683 282.79 249.683C283.734 249.683 284.981 248.794 288.365 245.71C289.87 244.34 291.001 243.661 296.179 241.016C297.279 240.455 299.185 239.474 300.415 238.838C301.645 238.202 303.526 237.683 304.594 237.683C308.037 237.683 309.678 234.94 309.678 229.183C309.678 225.852 310.223 223.281 311.118 222.385C312.167 221.336 312.67 217.575 312.966 208.563C313.19 201.754 313.857 194.158 314.448 191.683C317.477 179.005 316.493 173.731 309.82 166.862C306.442 163.386 303.678 159.699 303.678 158.67C303.678 157.642 303.241 156.53 302.706 156.2C302.171 155.869 301.245 153.705 300.648 151.391C300.05 149.077 298.913 145.765 298.12 144.032C292.8 132.397 297.434 125.356 310.757 124.834C319.676 124.484 319.677 124.484 319.677 119.784C319.677 117.198 320.126 114.633 320.676 114.083C321.226 113.533 322.16 107.05 322.751 99.6765C323.342 92.3035 324.242 85.4937 324.751 84.5427C325.26 83.5917 325.676 81.4436 325.676 79.7686C325.676 78.0936 326.315 75.0267 327.095 72.9527C327.877 70.8797 328.811 67.3826 329.173 65.1826C329.956 60.4136 332.55 52.1656 334.362 48.6826C335.076 47.3076 335.664 45.3427 335.668 44.3167C335.674 42.3177 338.368 33.3585 339.86 30.3745C340.871 28.3515 346.529 17.6847 348.361 14.3467C354.643 2.90469 368.887 -2.34644 379.4 2.90456ZM359.429 16.9326C354.198 22.2336 351.673 25.8846 351.673 28.1436C351.673 28.8216 350.773 30.4146 349.673 31.6826C348.573 32.9506 347.673 35.1835 347.673 36.6445C347.673 38.1055 347.012 40.1737 346.205 41.2417C345.397 42.3087 344.722 44.0148 344.705 45.0318C344.687 46.0488 344.062 48.2988 343.315 50.0318C341.355 54.5778 338.12 66.0056 336.338 74.6826C333.07 90.6016 332.443 94.4455 331.817 102.385C331.461 106.897 330.609 111.149 329.923 111.835C329.19 112.568 328.675 115.683 328.675 119.383C328.675 125.683 328.675 125.683 334.061 125.683C337.022 125.683 340.734 126.355 342.31 127.177C346.846 129.543 347.668 129.126 347.717 124.433C347.741 122.095 348.409 118.383 349.202 116.183C349.994 113.983 350.665 111.508 350.692 110.683C350.719 109.858 351.609 107.383 352.672 105.183C353.735 102.983 354.619 99.7686 354.638 98.0396C354.658 96.1926 355.291 94.6596 356.172 94.3206C356.997 94.0046 357.672 92.6925 357.672 91.4055C357.672 90.1175 358.333 88.1916 359.14 87.1236C359.948 86.0566 360.622 84.2027 360.639 83.0037C360.657 81.8057 361.277 80.2195 362.018 79.4785C362.758 78.7385 363.672 76.4887 364.049 74.4807C364.426 72.4717 365.077 70.6826 365.496 70.5056C365.916 70.3276 367.303 67.7297 368.578 64.7317C373.902 52.2247 376.328 49.9907 379.601 54.5867C382.36 58.4637 382.31 58.9786 378.507 65.6826C378.039 66.5076 377.39 67.8576 377.064 68.6826C376.738 69.5076 375.198 72.8826 373.643 76.1826C372.087 79.4826 370.512 83.4016 370.144 84.8916C369.775 86.3816 368.843 88.1247 368.073 88.7637C367.302 89.4037 366.657 90.8847 366.639 92.0547C366.622 93.2257 365.947 95.0566 365.139 96.1236C364.332 97.1916 363.671 98.9237 363.671 99.9727C363.671 101.022 363.065 103.299 362.325 105.032C359.06 112.675 356.655 123.43 358.461 122.314C359.047 121.951 360.078 119.974 360.752 117.919C361.427 115.864 363.26 111.81 364.825 108.91C366.39 106.011 367.67 102.973 367.67 102.16C367.67 101.348 368.111 100.683 368.651 100.683C369.19 100.683 369.924 99.5196 370.28 98.0986C371.249 94.2396 375.52 90.4615 379.085 90.3115C383.763 90.1155 384.275 97.7177 379.846 101.597C378.221 103.019 376.586 105.195 376.213 106.433C375.84 107.671 375.116 108.683 374.603 108.683C374.09 108.683 373.67 109.497 373.67 110.492C373.67 111.487 373.009 113.174 372.202 114.242C371.394 115.309 370.719 116.764 370.702 117.475C370.684 118.185 369.269 121.785 367.557 125.475C365.846 129.164 363.343 134.658 361.996 137.683C360.649 140.708 359.126 143.963 358.61 144.918C358.094 145.873 357.672 147.339 357.672 148.173C357.672 149.008 356.772 151.368 355.672 153.421C354.572 155.473 353.672 157.666 353.672 158.294C353.672 158.922 352.394 162.755 350.832 166.81C347.291 176.001 345.975 180.169 345.135 184.864C344.773 186.888 343.903 188.765 343.202 189.034C342.5 189.303 341.604 191.247 341.211 193.353C340.817 195.46 340.142 197.633 339.711 198.183C339.279 198.733 338.612 201.352 338.228 204.004C337.53 208.826 337.53 208.826 339.602 206.754C340.742 205.614 341.674 204.233 341.674 203.683C341.674 203.133 342.06 202.683 342.531 202.683C343.26 202.683 348.69 195.244 352.155 189.497C352.714 188.57 354.923 185.195 357.063 181.997C359.202 178.799 363.139 172.907 365.812 168.903C368.483 164.899 370.67 161.016 370.67 160.275C370.67 159.533 371.345 158.368 372.17 157.683C372.995 156.998 373.67 155.85 373.67 155.132C373.67 154.414 374.285 153.21 375.036 152.459C375.787 151.708 378.112 147.964 380.204 144.139C382.295 140.313 385.049 135.383 386.324 133.183C387.599 130.983 388.916 128.508 389.252 127.683C393.929 116.173 396.16 112.683 398.839 112.683C405.834 112.683 404.285 121.462 394.463 137.486C393.35 139.302 392.682 141.031 392.979 141.328C393.608 141.958 403.959 131.994 405.295 129.472C405.794 128.531 409.568 124.254 413.683 119.968C417.797 115.681 422.064 110.269 423.164 107.94C424.263 105.611 425.477 103.701 425.86 103.694C426.717 103.68 431.663 93.9817 431.663 92.3157C431.663 89.6597 437.817 87.1746 439.317 89.2256C442.582 93.6916 435.372 112.458 428.459 117.49C427.471 118.208 426.663 119.329 426.663 119.979C426.663 121.194 425.922 122.053 416.294 131.997C413.198 135.195 410.665 138.008 410.665 138.247C410.665 139.427 420.676 138.527 421.972 137.231C422.77 136.434 424.713 135.473 426.292 135.096C427.871 134.72 430.288 133.846 431.663 133.154C433.037 132.463 436.412 130.788 439.162 129.431C457.22 120.525 468.342 112.404 470.11 106.833C471.719 101.761 478.076 103.994 479.56 110.152C481.965 120.132 482.679 122.497 484.113 125.248C484.955 126.862 485.646 128.658 485.65 129.238C485.657 130.433 496.007 143.259 499.118 145.93C507.891 153.459 507.524 153.627 507.867 141.933C508.153 132.183 508.153 132.183 510.903 131.867C512.414 131.693 513.652 132.001 513.652 132.551C513.652 133.102 514.128 134.804 514.709 136.334C515.888 139.434 517.608 138.095 517.637 134.055C517.664 130.216 520.176 129.209 523.616 131.658C526.651 133.819 526.651 133.818 526.651 146.628C526.651 156.794 526.961 159.695 528.15 160.683C530.298 162.466 530.322 204.233 528.179 210.183C525.784 216.834 526.108 223.023 528.65 219.183C529.743 217.533 530.64 215.211 530.643 214.025C530.647 212.839 532 208.861 533.65 205.183C535.299 201.505 536.649 197.439 536.649 196.148C536.649 194.857 537.099 193.523 537.649 193.183C538.199 192.843 538.669 191.579 538.693 190.374C538.717 189.169 539.419 186.383 540.253 184.183C542.877 177.26 546.735 160.003 548.711 146.355C549.255 142.6 549.801 132.257 549.924 123.369C550.169 105.699 550.604 104.588 555.628 108.799C558.953 111.585 560.43 122.965 559.186 136.183C558.373 144.817 560.458 139.556 561.685 129.878C562.196 125.843 563.297 120.532 564.13 118.077C564.964 115.622 565.646 111.469 565.646 108.848C565.646 106.227 566.172 103.557 566.814 102.914C568.927 100.801 568.57 44.0666 566.414 39.5706C563.753 34.0186 562.438 33.3456 555.371 33.9126C546.483 34.6256 533.931 40.9247 538.399 42.4287C539.087 42.6597 539.649 43.4866 539.649 44.2656C539.649 45.0456 540.055 45.6826 540.551 45.6826C541.047 45.6826 541.961 46.9206 542.582 48.4326C544.027 51.9536 546.11 55.5446 547.532 56.9666C548.146 57.5806 548.648 59.0566 548.648 60.2476C548.648 61.4386 549.548 63.5566 550.648 64.9556C551.748 66.3536 552.661 68.3266 552.679 69.3406C552.696 70.3536 553.371 72.0566 554.179 73.1236C557.373 77.3466 555.746 96.9397 552.084 98.3447C548.956 99.5457 547.384 96.1937 546.592 86.6267C546.173 81.5727 545.162 76.0296 544.345 74.3096C542.774 71.0026 541.357 67.7926 539.655 63.6826C539.085 62.3076 537.731 59.8326 536.646 58.1826C535.56 56.5326 534.372 54.5076 534.006 53.6826C533.077 51.5886 526.524 43.4196 524.673 42.0476C523.831 41.4236 521.087 38.9486 518.577 36.5476C510.624 28.9446 497.589 22.0455 489.333 21.0715C465.472 18.2565 432.01 20.4736 421.325 25.5777C419.037 26.6707 415.815 27.8806 414.165 28.2666C408.836 29.5136 402.288 33.4337 397.088 38.4907C394.294 41.2077 391.015 43.9616 389.801 44.6116C383.565 47.9496 380.852 39.4255 386.626 34.6355C390.46 31.4555 390.398 29.6357 386.22 22.8137C378.243 9.78573 368.576 7.66363 359.429 16.9326ZM469.69 123.144C469.023 123.948 467.525 124.908 466.361 125.277C465.196 125.647 463.113 127.239 461.729 128.816C460.346 130.393 458.751 131.691 458.186 131.7C456.874 131.721 445.387 137.493 440.161 140.756C430.745 146.637 420.41 149.759 408.665 150.274C399.166 150.691 399.166 150.692 394.917 155.184C387.877 162.625 391.612 166.36 400.991 161.257C410.959 155.834 426.152 157.121 429.666 163.688C433.328 170.532 429.265 185.683 423.767 185.683C423.059 185.683 421.335 186.583 419.937 187.683C413.569 192.693 399.667 186.494 399.667 178.646C399.667 176.168 399.378 175.997 395.359 176.086C390.841 176.187 385.504 172.862 383.062 168.424C382.328 167.092 381.717 166.796 381.252 167.548C380.867 168.172 379.715 168.683 378.694 168.683C375.126 168.683 365.829 186.426 368.523 188.092C368.993 188.382 369.633 191.895 369.946 195.9C370.68 205.283 373.447 211.353 380.237 218.477C383.225 221.611 385.668 224.457 385.668 224.801C385.668 225.145 387.918 227.747 390.668 230.585C393.417 233.423 395.667 236.626 395.667 237.701C395.667 239.014 396.895 240.169 399.403 241.217C401.457 242.076 404.045 243.598 405.152 244.601C406.26 245.603 409.168 246.726 411.615 247.097C414.063 247.467 416.711 248.306 417.5 248.961C419.8 250.87 475.351 251.011 478.058 249.114C479.181 248.327 481.189 247.683 482.519 247.683C485.906 247.683 493.767 243.662 496.151 240.712C497.248 239.353 498.972 237.553 499.982 236.712C500.992 235.87 503.433 232.771 505.405 229.824C508.85 224.677 509.139 224.485 512.718 224.965C516.888 225.524 517.616 224.109 517.684 215.308C517.701 213.039 518.376 210.309 519.184 209.242C521.953 205.579 521.124 192.787 517.875 189.057C514.421 185.092 502.313 185.033 501.062 188.974C499.925 192.555 496.034 196.016 493.803 195.432C492.19 195.01 491.636 195.491 491.141 197.746C490.173 202.153 478.183 203.066 474.156 199.04C469.588 194.47 473.833 172.683 479.292 172.683C479.916 172.683 481.716 172.01 483.292 171.188C488.705 168.365 495.016 169.192 498.52 173.183C501.718 176.826 515.792 179.03 512.888 175.433C512.332 174.746 511.563 172.27 511.177 169.933C510.793 167.596 509.948 165.683 509.302 165.683C505.129 165.683 489.516 152.29 483.789 143.798C478.935 136.602 479.25 137.164 475.478 128.974C471.925 121.26 471.559 120.891 469.69 123.144ZM306.71 140.385C306.727 142.474 307.402 145.057 308.21 146.124C309.017 147.192 309.678 148.831 309.678 149.767C309.678 150.703 310.353 151.727 311.177 152.044C312.002 152.36 312.677 153.145 312.677 153.787C312.677 154.429 313.689 155.914 314.927 157.088C316.165 158.263 318.584 160.856 320.303 162.849C326.995 170.604 341.662 173.029 341.68 166.383C341.684 165.173 342.295 163.016 343.039 161.59C344.184 159.394 345.726 153.425 345.775 150.995C345.791 150.188 340.395 148.39 329.862 145.694C321.697 143.605 319.938 142.529 319.487 139.359C318.828 134.731 306.671 135.707 306.71 140.385ZM411.665 169.574C407.415 170.744 407.628 175.962 412.013 178.043C416.439 180.144 417.969 180.108 420.009 177.854C422.701 174.879 422.216 169.683 419.246 169.683C417.916 169.683 416.228 169.504 415.497 169.284C414.764 169.065 413.04 169.195 411.665 169.574ZM572.395 179.349C571.073 179.712 570.645 180.885 570.645 184.141C570.645 189.844 567.98 191.683 559.716 191.683C552.253 191.683 546.799 194.059 546.056 197.633C545.764 199.036 544.878 201.661 544.087 203.467C543.297 205.273 542.649 207.549 542.649 208.525C542.649 209.501 541.988 211.174 541.181 212.242C535.614 219.602 550.972 216.056 559.177 208.087C561.105 206.214 563.237 204.662 563.914 204.637C564.592 204.611 566.496 202.82 568.146 200.657C569.795 198.493 572.871 194.802 574.98 192.453C577.09 190.105 579.472 187.451 580.275 186.557C584.895 181.405 580.281 177.185 572.395 179.349ZM324.403 189.433C323.496 194.796 322.53 202.832 322.257 207.293C321.984 211.754 321.283 216.479 320.7 217.793C317.907 224.087 316.656 272.257 318.962 284.683C322.505 303.759 324.891 318.579 325.515 325.384C325.879 329.344 326.739 333.145 327.426 333.833C328.261 334.668 328.675 338.452 328.675 345.261C328.675 352.203 329.169 356.621 330.229 359.158C331.153 361.37 331.918 366.793 332.115 372.531C332.573 385.844 335.669 392.275 335.679 379.933C335.683 375.003 336.087 373.753 338.511 371.167C340.458 369.089 341.546 366.632 342.007 363.268C342.375 360.582 343.092 357.883 343.6 357.271C344.108 356.659 344.669 346.67 344.848 335.072C345.057 321.53 345.572 313.483 346.289 312.583C346.903 311.813 347.702 305.322 348.064 298.158C348.777 284.063 348.649 283.579 343.34 280.285C341.782 279.318 339.876 277.018 339.106 275.174C338.335 273.329 337.307 271.573 336.821 271.273C336.335 270.973 335.641 268.486 335.278 265.747C334.914 263.007 334.18 260.495 333.646 260.165C333.109 259.833 332.675 254.406 332.675 248.013C332.675 236.46 332.675 236.46 329.273 237.099C323.099 238.257 319.869 227.22 324.176 219.683C324.962 218.308 325.621 215.357 325.641 213.124C325.66 210.892 326.337 208.192 327.144 207.124C327.951 206.057 328.641 204.058 328.677 202.683C328.713 201.308 329.612 198.383 330.675 196.183C331.738 193.983 332.622 191.671 332.641 191.046C332.66 190.422 333.347 188.622 334.168 187.046C336.361 182.841 336.051 181.683 332.734 181.683C331.116 181.683 329.515 181.233 329.175 180.683C327.347 177.723 325.951 180.282 324.403 189.433ZM484.656 181.971C481.043 183.789 480.402 190.679 483.846 190.688C485.116 190.692 487.355 191.32 488.818 192.084C491.482 193.474 491.482 193.475 491.845 187.829C492.307 180.638 490.396 179.081 484.656 181.971ZM348.873 218.883C346.075 221.681 347.346 241.43 350.673 246.836C352.322 249.518 353.673 252.044 353.675 252.448C353.676 252.852 354.999 254.067 356.613 255.149C361.603 258.493 362.866 262.985 359.859 266.699C356.736 270.557 348.284 264.731 343.878 255.683C342.174 252.183 342.174 252.183 341.856 255.498C341.681 257.322 341.966 259.347 342.49 259.998C343.013 260.65 343.756 262.653 344.141 264.45C344.585 266.529 345.81 268.238 347.506 269.149C348.973 269.937 352.394 272.855 355.107 275.633C361.724 282.405 362.438 282.215 367.112 272.432C369.279 267.895 372.316 262.543 373.861 260.539C375.405 258.535 376.669 256.419 376.669 255.838C376.669 255.257 377.322 254.417 378.12 253.97C381.694 251.97 385.633 241.567 383.874 238.78C381.089 234.371 370.76 224.922 367.955 224.218C366.492 223.851 364.817 222.961 364.233 222.241C361.77 219.202 350.925 216.831 348.873 218.883ZM443.109 222.599C443.421 223.103 445.135 223.313 446.918 223.067C460.622 221.172 462.659 221.569 462.659 226.131C462.659 233.446 437.819 236.721 432.94 230.048C431.586 228.196 431.21 223.468 432.329 222.35C433.338 221.34 442.462 221.552 443.109 222.599ZM534.9 230.824C534.213 231.517 533.65 232.607 533.65 233.248C533.65 233.889 532.765 235.539 531.683 236.914C530.601 238.29 529.997 239.697 530.341 240.04C531.125 240.824 533.65 238.801 533.65 237.389C533.65 236.812 534.364 235.55 535.238 234.585C537.186 232.431 536.864 228.846 534.9 230.824ZM512.441 237.427C510.526 239.623 508.367 243.73 508.866 244.229C510.366 245.729 513.485 243.1 514.004 239.898C514.711 235.546 514.446 235.129 512.441 237.427ZM305.178 249.374C302.002 250.084 294.679 253.62 294.69 254.438C294.696 254.848 296.467 255.925 298.625 256.831C301.926 258.217 302.661 259.077 303.254 262.238C303.642 264.306 304.568 267.164 305.313 268.59C306.057 270.016 306.668 272.844 306.672 274.874C306.688 284.511 308.552 278.206 309.186 266.371C310.123 248.887 309.984 248.3 305.178 249.374ZM390.394 255.236C388.879 256.641 385.581 260.916 383.064 264.736C380.548 268.557 378.079 271.683 377.579 271.683C377.078 271.683 376.669 272.731 376.669 274.012C376.669 275.292 375.361 278.33 373.761 280.762C372.161 283.193 370.349 287.077 369.734 289.391C369.119 291.705 368.178 293.869 367.643 294.2C363.264 296.907 369.651 303.168 379.803 306.12C387.03 308.221 408.552 307.708 413.665 305.312C416.703 303.888 416.802 303.742 414.415 304.197C404.397 306.107 401.248 295.16 411.08 292.602C413.327 292.017 416.439 290.897 417.995 290.111C419.552 289.326 422.365 288.683 424.244 288.683C427.184 288.683 427.684 288.333 427.813 286.183C427.896 284.808 428.008 283.121 428.063 282.433C428.129 281.614 426.612 281.156 423.664 281.104C421.189 281.061 416.555 280.273 413.366 279.354C410.177 278.435 405.331 277.683 402.596 277.683C396.504 277.683 394.477 274.971 396.648 269.728C398.595 265.026 422.489 266.609 428.237 271.821C430.673 274.029 431.663 273.392 431.663 269.615C431.663 266.833 426.519 262.683 423.072 262.683C422.259 262.683 420.471 261.947 419.099 261.048C417.727 260.149 414.481 259.019 411.885 258.537C409.289 258.055 404.871 256.54 402.066 255.171C395.654 252.041 393.827 252.052 390.394 255.236ZM520.996 254.226C520.239 256.198 520.944 256.89 522.931 256.128C525.429 255.17 525.903 252.683 523.588 252.683C522.488 252.683 521.322 253.377 520.996 254.226ZM507.653 257.683C506.828 258.216 504.661 258.658 502.838 258.667C501.015 258.675 498.54 259.21 497.338 259.855C495.33 260.934 488.326 262.778 479.656 264.511C477.119 265.018 476.072 265.799 475.85 267.354C475.445 270.172 479.617 271.133 488.236 270.21C500.914 268.852 510.63 271.757 508.978 276.41C507.208 281.397 506.214 281.683 490.622 281.683C473.256 281.683 473.447 281.572 472.553 292.084C472.222 295.988 471.322 300.693 470.554 302.538C468.93 306.441 471.777 309.634 480.59 313.787C491.401 318.883 510.445 321.694 512.056 318.433C512.396 317.746 513.548 315.833 514.616 314.183C515.684 312.533 517.406 309.383 518.442 307.183C519.479 304.983 521.074 302.565 521.988 301.811C522.903 301.056 523.651 299.648 523.651 298.683C523.651 297.718 524.326 296.368 525.151 295.683C525.976 294.998 526.651 293.548 526.651 292.461C526.651 291.374 527.302 289.066 528.097 287.333C530.365 282.395 533.671 272.371 533.19 271.889C532.95 271.65 531.494 271.348 529.952 271.218C518.71 270.27 515.759 268.025 517.19 261.509C517.764 258.894 517.585 258.683 514.79 258.683C513.129 258.683 511.493 258.233 511.153 257.683C510.386 256.441 509.574 256.441 507.653 257.683ZM455.16 263.211C452.96 264.003 450.454 264.659 449.592 264.667C447.392 264.688 440.661 270.888 440.661 272.893C440.661 273.806 440.132 275.82 439.487 277.368C436.814 283.768 433.801 298.427 433.722 305.414C433.642 312.365 436.305 313.12 453.91 311.143C459.659 310.498 459.659 310.498 459.665 306.84C459.669 304.829 460.284 302.008 461.034 300.572C461.783 299.136 462.726 294.861 463.131 291.072C463.535 287.283 464.216 283.958 464.644 283.683C465.071 283.408 465.74 279.095 466.132 274.098C467.104 261.697 465.042 259.65 455.16 263.211ZM284.556 272.433C276.353 279.901 252.312 303.946 250.593 306.403C249.738 307.623 245.473 312.364 241.113 316.936C236.754 321.509 231.613 327.224 229.688 329.637C227.763 332.049 224.911 335.37 223.352 337.017C221.791 338.664 220.097 340.95 219.587 342.097C219.077 343.244 217.878 345.336 216.924 346.745C215.97 348.154 213.291 352.204 210.971 355.745C208.65 359.286 206.064 362.896 205.222 363.767C204.38 364.638 203.691 365.944 203.691 366.669C203.691 369.319 198.476 378.927 196.8 379.365C194.196 380.046 192.265 389.902 193.602 395.683C194.175 398.158 194.654 402.715 194.668 405.811C194.684 409.569 195.19 411.852 196.192 412.683C197.017 413.368 197.692 414.673 197.692 415.583C197.692 416.493 198.3 418.125 199.043 419.209C199.786 420.294 200.718 422.533 201.115 424.183C202.218 428.778 207.725 439.481 209.294 440.084C210.062 440.378 210.69 441.552 210.69 442.692C210.69 443.833 211.619 445.76 212.754 446.975C213.89 448.189 216.222 451.658 217.937 454.683C219.653 457.708 221.312 460.408 221.623 460.683C222.588 461.536 225.782 467.091 226.366 468.933C226.672 469.895 227.264 470.683 227.683 470.683C228.102 470.683 229.005 472.033 229.688 473.683C230.371 475.333 231.326 476.683 231.809 476.683C232.293 476.683 232.688 477.246 232.688 477.933C232.691 480.048 246.177 494.116 247.448 493.33C248.086 492.935 248.913 490.983 249.287 488.991C249.661 486.999 250.575 484.201 251.32 482.775C252.064 481.349 252.675 479.613 252.679 478.918C252.723 469.911 282.666 441.683 292.176 441.683C293.003 441.683 293.68 441.161 293.68 440.524C293.68 439.027 285.712 428.683 284.559 428.683C284.076 428.683 283.681 428.089 283.681 427.363C283.681 426.637 282.106 424.203 280.181 421.954C278.257 419.705 276.682 417.397 276.682 416.825C276.682 411.52 262.912 403.319 255.626 404.285C248.956 405.17 245.981 399.388 250.685 394.683C251.785 393.583 252.685 392.441 252.685 392.146C252.685 390.919 242.865 387.38 238.935 387.192C231.713 386.845 228.183 381.26 232.637 377.228C237.345 372.968 255.727 379.141 265.89 388.396C270.438 392.537 273.897 393.761 275.182 391.683C275.522 391.133 276.638 390.683 277.663 390.683C278.687 390.683 283.278 387.871 287.864 384.433C292.449 380.996 298.109 376.938 300.44 375.418C305.084 372.389 305.203 372.104 303.532 367.998C302.753 366.083 302.354 353.835 302.283 329.683C302.182 295.236 301.582 287.056 298.649 280.183C298.18 279.083 297.491 276.608 297.119 274.683C295.451 266.055 292.202 265.473 284.556 272.433ZM420.664 301.742C420.664 302.324 421.114 302.523 421.664 302.183C422.214 301.843 422.664 301.367 422.664 301.124C422.664 300.881 422.214 300.683 421.664 300.683C421.114 300.683 420.664 301.16 420.664 301.742ZM356.35 307.933C356.072 310.82 355.382 315.433 354.817 318.183C353.388 325.146 353.35 348.683 354.768 348.683C355.37 348.683 357.058 348.06 358.518 347.299C359.977 346.538 362.746 345.235 364.671 344.404C372.155 341.173 373.54 340.369 379.752 335.64C383.281 332.954 386.645 330.739 387.228 330.719C389.019 330.658 399.217 320.947 398.387 320.093C397.959 319.652 395.034 319.181 391.887 319.048C385.72 318.786 376.399 317.056 373.17 315.575C367.098 312.79 361.235 308.622 359.476 305.843C356.906 301.783 356.947 301.756 356.35 307.933ZM525.862 313.945C515.419 331.568 514.831 332.032 503.635 331.496C496.272 331.144 494.695 331.334 494.25 332.627C493.955 333.482 493.279 334.858 492.747 335.683C488.018 343.029 486.271 353.683 489.793 353.683C490.859 353.683 500.4 346.11 502.205 343.831C504.205 341.306 512.334 341.106 513.114 343.564C514.128 346.756 512.872 349.461 509.225 351.945C506.151 354.038 497.654 361.371 497.654 361.93C497.654 362.069 502.717 362.183 508.903 362.183C519.876 362.183 523.884 363.061 529.65 366.732C530.475 367.257 532.162 368.126 533.4 368.661C534.638 369.196 535.649 370.004 535.649 370.456C535.649 370.909 538.356 373.003 541.665 375.112C553.141 382.424 562.129 396.867 561.5 406.988C561.115 413.183 561.463 413.806 563.495 410.554C565.366 407.557 565.703 399.694 564.093 396.58C563.348 395.14 562.456 389.737 562.109 384.573C561.763 379.408 560.842 373.486 560.063 371.413C559.285 369.339 558.647 365.453 558.647 362.777C558.647 360.101 557.975 356.622 557.153 355.046C556.332 353.471 555.641 351.058 555.618 349.683C555.595 348.308 554.933 346.058 554.147 344.683C553.361 343.308 552.702 340.596 552.682 338.656C552.663 336.715 552.04 334.24 551.3 333.156C550.558 332.071 549.688 329.833 549.365 328.183C547.636 319.337 542.742 312.278 535.939 308.822C530.301 305.957 530.722 305.743 525.862 313.945ZM312.409 310.308C312.08 310.84 311.78 317.508 311.742 325.128C311.704 332.748 311.254 340.603 310.742 342.583C308.333 351.9 309.682 358.857 313.764 358.167C315.834 357.818 318.402 358.001 319.47 358.573C322.13 359.996 322.68 359.105 321.457 355.357C320.887 353.611 319.828 347.683 319.104 342.183C315.802 317.093 313.878 307.931 312.409 310.308ZM420.765 316.061C419.952 317.041 419.917 318.217 420.643 320.125C421.204 321.603 421.671 324.246 421.679 325.998C421.702 331.184 427.993 345.884 432.276 350.762C433.038 351.63 433.662 352.715 433.662 353.173C433.662 353.63 434.936 355.17 436.494 356.594C438.051 358.018 439.647 359.858 440.041 360.683C440.434 361.508 441.842 363.983 443.168 366.183C444.494 368.383 446.235 371.609 447.036 373.353C448.29 376.086 451.243 378.683 453.094 378.683C453.405 378.683 453.66 377.078 453.66 375.117C453.66 373.156 454.125 370.684 454.692 369.623C455.26 368.562 456.107 363.753 456.573 358.938C457.041 354.122 457.926 348.916 458.541 347.368C459.156 345.82 459.67 341.995 459.683 338.868C459.696 335.741 460.177 331.383 460.752 329.183C463.131 320.083 463.354 320.819 458.503 321.756C443.799 324.598 428.659 322.282 425.692 316.737C424.421 314.361 422.405 314.085 420.765 316.061ZM470.888 326.433C470.293 328.496 469.491 333.783 469.109 338.183C468.726 342.583 467.949 347.071 467.381 348.156C466.813 349.242 466.005 353.292 465.586 357.156C465.166 361.021 464.346 367.68 463.762 371.954C462.673 379.944 463.253 389.052 464.792 388.101C465.268 387.806 465.673 386.579 465.692 385.374C465.711 384.169 466.595 381.383 467.658 379.183C468.721 376.983 469.605 374.221 469.624 373.046C469.643 371.872 470.329 369.622 471.151 368.046C471.972 366.471 472.647 363.901 472.651 362.336C472.654 360.771 473.332 358.184 474.157 356.586C474.982 354.989 476.332 352.376 477.157 350.779C477.982 349.181 478.656 346.665 478.656 345.186C478.656 343.708 479.556 341.354 480.656 339.956C481.756 338.557 482.656 336.375 482.656 335.106C482.656 333.838 483.106 332.523 483.656 332.183C485.684 330.929 484.664 327.643 481.906 326.549C480.394 325.949 477.963 324.833 476.503 324.07C472.64 322.052 472.089 322.283 470.888 326.433ZM371.17 353.683C370.83 354.233 369.711 354.683 368.682 354.683C367.655 354.683 366.152 355.344 365.344 356.153C363.754 357.743 356.18 360.644 353.558 360.667C352.412 360.678 351.769 361.958 351.342 365.079C351.011 367.497 350.089 370.984 349.294 372.829C348.499 374.674 347.321 378.883 346.677 382.183C346.033 385.483 344.643 391.005 343.59 394.454C342.536 397.903 341.674 401.783 341.674 403.077C341.674 406.996 337.883 414.293 334.139 417.581C326.633 424.172 325.637 422.131 324.558 397.938C323.415 372.306 322.912 368.242 321.072 369.769C320.304 370.406 319.677 371.438 319.677 372.062C319.677 372.686 318.165 374.543 316.318 376.189C309.817 381.982 289.864 396.683 288.501 396.683C288.004 396.683 287.053 397.122 286.389 397.658C279.166 403.491 279.364 403.222 280.582 405.497C281.225 406.699 282.186 407.683 282.716 407.683C283.247 407.683 283.681 408.513 283.681 409.528C283.681 410.543 284.632 412.23 285.794 413.278C288.173 415.424 296.679 426.383 296.679 427.303C296.679 428.247 301.175 433.17 319.717 452.531C321.113 453.99 322.877 456.421 323.635 457.933C325.704 462.059 328.288 461.502 329.046 456.767C329.39 454.613 330.029 452.7 330.466 452.517C331.931 451.901 335.675 444.97 335.675 442.874C335.675 441.734 336.152 440.506 336.736 440.145C337.32 439.784 338.226 438.519 338.751 437.335C339.275 436.151 340.561 433.833 341.61 432.183C344.74 427.255 348.651 419.133 355.811 402.683C356.888 400.208 358.423 396.909 359.221 395.352C360.019 393.795 360.671 391.712 360.671 390.724C360.671 389.736 361.288 388.416 362.043 387.789C362.797 387.163 363.67 385.079 363.982 383.157C364.293 381.235 365.251 378.96 366.11 378.101C366.968 377.243 367.67 375.463 367.67 374.145C367.67 371.844 369.396 367.137 372.297 361.529C374.639 357.001 373.598 349.755 371.17 353.683ZM503.154 373.764C493.019 375.069 482.656 380.807 482.656 385.114C482.656 386.261 483.35 386.327 486.406 385.469C492.598 383.73 505.74 384.064 512.289 386.127C526.265 390.53 533.177 394.166 535.04 398.093C535.92 399.95 538.331 402.943 540.395 404.745C548.518 411.834 551.594 416.194 552.394 421.753C553.116 426.778 553.237 426.95 554.9 425.287C556.235 423.952 556.5 422.614 556.02 419.617C555.612 417.065 555.838 415.157 556.667 414.159C557.72 412.89 557.595 412.239 555.946 410.404C554.849 409.182 552.601 405.258 550.95 401.683C548.248 395.827 537.854 383.683 535.546 383.683C535.131 383.683 534.186 383.121 533.444 382.433C525.537 375.102 515.369 372.192 503.154 373.764ZM496.336 396.479C489.842 396.762 489.471 396.913 488.521 399.638C487.875 401.491 486.578 402.734 484.84 403.168C479.745 404.439 475.985 408.228 475.249 412.83C474.875 415.17 474.185 417.556 473.715 418.133C472.581 419.528 471.956 435.838 472.976 437.433C473.466 438.2 476.042 438.683 479.645 438.683C483.528 438.683 486.021 439.19 487.012 440.183C487.837 441.008 489.614 441.683 490.961 441.683C492.308 441.683 493.97 442.358 494.655 443.183C496.67 445.612 515.058 445.28 520.071 442.724C525.536 439.937 532.117 429.768 531.252 425.445C530.745 422.909 531.141 421.779 533.343 419.48C536.058 416.645 536.058 416.646 534.163 413.415C527.303 401.722 513.886 395.714 496.336 396.479ZM377.63 397.662C380.265 399.072 382.188 407.755 380.768 411.829C380.164 413.563 379.669 415.843 379.669 416.898C379.669 423.98 367.26 429.265 364.558 423.333C361.185 415.932 368.333 398.55 375.485 396.762C375.658 396.719 376.624 397.124 377.63 397.662ZM453.833 418.202C453.188 419.618 452.66 421.604 452.66 422.616C452.66 423.627 451.988 425.743 451.166 427.319C450.345 428.894 449.67 431.104 449.666 432.232C449.663 433.36 449.257 434.71 448.765 435.232C448.273 435.755 447.417 438.208 446.861 440.683C446.305 443.158 445.375 446.533 444.794 448.183C442.538 454.591 440.659 461.661 440.626 463.871C440.606 465.143 439.948 467.308 439.162 468.683C438.376 470.058 437.717 473.028 437.697 475.284C437.678 477.539 437.212 480.689 436.663 482.284C436.113 483.878 435.263 489.008 434.773 493.683C434.283 498.358 433.559 502.971 433.165 503.933C432.669 505.144 432.914 505.683 433.96 505.683C436.504 505.683 440.661 513.977 440.661 519.052C440.661 521.534 441.098 523.835 441.632 524.165C442.166 524.495 442.895 526.969 443.253 529.663C443.615 532.397 444.512 534.796 445.282 535.091C446.04 535.382 446.661 536.352 446.661 537.247C446.661 538.142 447.267 540.069 448.008 541.529C450.418 546.274 452.507 551.129 453.237 553.683C453.631 555.058 454.934 557.758 456.135 559.683C457.334 561.608 459.404 565.383 460.734 568.071C462.331 571.3 464.057 573.275 465.823 573.89C467.293 574.403 469.495 576.28 470.718 578.064C477.106 587.389 479.544 585.387 481.55 569.163C482.096 564.752 482.815 560.432 483.149 559.562C484.607 555.764 480.243 533.609 477.293 529.826C476.187 528.409 474.48 525.577 472.686 522.183C472.104 521.083 470.73 518.833 469.632 517.183C468.533 515.533 467.362 513.395 467.03 512.433C465.958 509.334 464.766 510.571 465.35 514.175C466.372 520.471 461.174 522.93 456.347 518.433C452.654 514.992 447.943 505.369 447.158 499.663C446.644 495.927 446.086 494.69 445.087 495.073C439.487 497.223 440.006 475.938 445.694 470.25C446.226 469.718 446.661 468.225 446.661 466.931C446.661 465.638 447.533 462.915 448.6 460.881C451.43 455.488 453.657 450.077 453.682 448.532C453.694 447.79 454.617 446.058 455.731 444.683C462.622 436.187 464.949 428.683 460.694 428.683C458.258 428.683 456.665 425.855 456.645 421.499C456.622 416.61 455.277 415.033 453.833 418.202ZM541.504 431.683C540.887 435.179 541.143 436.523 542.22 435.446C542.533 435.132 542.64 433.37 542.456 431.529C542.122 428.183 542.122 428.183 541.504 431.683ZM187.595 440.554C184.625 443.782 179.944 449.009 177.194 452.167C174.445 455.326 171.52 458.664 170.695 459.586C169.87 460.509 167.405 463.496 165.217 466.224C163.028 468.951 160.665 471.777 159.968 472.503C159.269 473.23 158.697 474.136 158.697 474.515C158.697 474.893 157.472 476.525 155.974 478.14C152.584 481.798 146.843 488.63 144.198 492.156C143.099 493.623 140.961 496.207 139.449 497.9C137.937 499.593 136.699 501.39 136.699 501.891C136.699 502.747 132.741 508.445 127.506 515.125C126.239 516.743 124.638 519.218 123.95 520.625C123.261 522.032 121.331 525.433 119.661 528.183C115.904 534.369 113.152 540.382 110.51 548.183C109.392 551.483 107.927 554.633 107.256 555.183C106.584 555.733 105.708 557.533 105.31 559.183C104.406 562.928 100.839 570.482 99.6172 571.236C99.1153 571.547 98.6901 572.787 98.6721 573.992C98.6551 575.197 97.9803 577.057 97.1724 578.124C96.3655 579.192 95.7046 582.004 95.7046 584.374C95.7046 587.34 95.0856 589.301 93.7188 590.668C91.637 592.75 91.643 602.372 93.7297 607.183C94.2067 608.283 95.5296 611.433 96.6685 614.183C99.5381 621.11 125.933 646.971 133.535 650.303C135 650.946 137.999 653.303 140.199 655.543C142.399 657.783 144.709 659.631 145.333 659.649C145.957 659.667 148.882 661.669 151.833 664.096C154.783 666.524 161.021 670.415 165.696 672.745C170.37 675.075 175.545 677.962 177.194 679.163C181.664 682.414 196.211 687.13 208.69 689.373C229.97 693.199 236.636 692.903 236.672 688.133C236.68 687.005 237.157 685.613 237.732 685.038C238.307 684.463 239.051 680.732 239.385 676.748C239.777 672.056 240.466 669.321 241.339 668.986C242.098 668.694 242.686 667.003 242.686 665.109C242.686 663.261 243.305 660.273 244.06 658.467C244.816 656.661 246.487 651.808 247.772 647.683C249.059 643.558 250.69 639.473 251.398 638.604C252.106 637.736 252.699 636.161 252.717 635.104C252.734 634.048 253.409 632.309 254.217 631.242C255.023 630.174 255.685 628.501 255.685 627.525C255.685 626.549 256.314 624.273 257.083 622.467C257.853 620.661 259.295 617.158 260.288 614.683C261.281 612.208 262.901 609.11 263.888 607.798C264.875 606.486 265.683 604.403 265.683 603.17C265.683 601.936 266.358 600.368 267.183 599.683C268.008 598.998 268.683 597.368 268.683 596.061C268.683 594.753 269.124 593.683 269.664 593.683C270.203 593.683 270.94 592.445 271.3 590.933C271.66 589.421 272.499 587.058 273.166 585.683C273.833 584.308 275.167 581.383 276.131 579.183C277.094 576.983 278.703 573.383 279.707 571.183C283.531 562.801 284.681 559.831 284.681 558.341C284.681 557.494 285.092 556.547 285.594 556.236C286.841 555.466 290.68 547.405 290.68 545.558C290.68 544.737 291.341 543.192 292.148 542.124C292.956 541.057 293.631 538.972 293.648 537.492C293.666 536.012 294.13 534.523 294.68 534.183C295.23 533.843 295.679 533.245 295.679 532.853C295.679 531.473 278.224 523.683 275.132 523.683C274.426 523.683 273.674 523.16 273.461 522.521C273.248 521.882 270.996 521.242 268.456 521.098C265.398 520.926 263.148 520.146 261.795 518.793C260.671 517.669 257.824 515.547 255.469 514.076C253.113 512.604 249.295 509.776 246.986 507.792C244.676 505.807 241.625 503.223 240.207 502.05C235.885 498.477 223.859 484.401 221.968 480.702C220.99 478.788 218.951 475.458 217.439 473.302C215.927 471.147 214.69 468.845 214.69 468.188C214.69 467.53 213.79 466.178 212.69 465.183C211.59 464.188 210.69 462.543 210.69 461.528C210.69 460.513 210.27 459.683 209.757 459.683C209.244 459.683 208.54 458.785 208.192 457.688C207.844 456.591 207.027 455.11 206.375 454.396C205.022 452.913 204.381 451.902 198.481 441.945C193.33 433.253 194.209 433.366 187.595 440.554ZM293.074 453.12C291.946 453.91 287.404 456.497 282.98 458.87C273.094 464.171 261.684 476.999 261.684 482.812C261.684 483.4 261.074 485.299 260.329 487.032C256.135 496.784 255.649 500.664 258.33 503C263.69 507.669 266.289 506.654 268.09 499.183C269.044 495.223 273.414 485.966 274.705 485.167C275.266 484.821 278.703 479.958 282.343 474.361C285.983 468.763 291.43 461.87 294.449 459.045C300.909 452.997 299.838 448.381 293.074 453.12ZM298.679 468.593C298.679 469.094 296.925 471.724 294.78 474.438C292.634 477.151 289.925 481.242 288.76 483.528C287.594 485.813 286.188 487.683 285.636 487.683C285.083 487.683 284.186 488.695 283.641 489.933C283.097 491.171 281.787 493.533 280.732 495.183C275.703 503.044 274.372 506.734 275.685 509.188C277.215 512.046 288.172 517.671 295.679 519.451C305.462 521.769 319.058 523.752 320.638 523.09C321.484 522.735 324.855 522.311 328.128 522.146C332.134 521.946 334.46 521.33 335.238 520.266C335.874 519.395 336.816 518.683 337.331 518.683C340.971 518.683 358.653 499.089 358.668 495.039C358.67 494.409 357.322 492.449 355.672 490.683C352.192 486.958 351.783 483.002 354.528 479.613C357.181 476.337 352.009 473.703 342.003 473.233C338.058 473.048 334.329 472.587 333.715 472.208C333.1 471.828 326.517 471.171 319.086 470.748C311.275 470.304 305.09 469.495 304.427 468.831C303.065 467.469 298.679 467.287 298.679 468.593ZM456.659 500.471C456.659 502.864 462.562 509.828 462.618 507.501C462.663 505.644 458.596 498.792 457.409 498.725C456.997 498.702 456.659 499.487 456.659 500.471ZM437.319 548.499C443.356 556.436 440.496 571.578 432.947 571.652C428.972 571.69 427.859 569.846 427.021 561.835C425.632 548.545 431.538 540.898 437.319 548.499ZM319.815 571.595C325.255 576 322.099 590.458 314.176 597.433C302.497 607.716 298.625 587.232 309.749 574.01C313.713 569.299 316.234 568.694 319.815 571.595ZM86.2056 629.277C84.0058 630.587 80.9684 632.159 79.4566 632.769C77.9447 633.379 76.7068 634.177 76.7068 634.544C76.7068 634.91 74.5702 636.226 71.9575 637.468C61.5048 642.434 59.844 665.711 69.6348 670.031C73.7453 671.845 83.2259 672.269 84.2058 670.683C84.5458 670.133 85.8098 669.681 87.0147 669.679C90.5772 669.671 109.886 662.82 113.99 660.107C116.073 658.73 118.877 657.187 120.219 656.676C122.552 655.789 122.82 652.683 120.565 652.683C119.437 652.683 109.334 644.815 108.87 643.574C108.686 643.084 107.899 642.683 107.12 642.683C106.34 642.683 105.703 642.008 105.703 641.183C105.703 640.358 105.365 639.675 104.953 639.666C104.541 639.657 101.742 636.732 98.7322 633.166C92.7109 626.031 92.0178 625.816 86.2056 629.277ZM55.1675 629.448C54.5946 629.852 53.5109 632.208 52.759 634.683C50.8433 640.99 45.8287 648.156 41.8152 650.322C38.6666 652.022 24.7134 665.21 24.7134 666.486C24.7134 666.799 23.0026 669.108 20.9109 671.619C16.5714 676.828 12.7148 683.873 12.7148 686.592C12.7148 687.608 11.9839 690.181 11.092 692.311C9.19628 696.833 9.02927 713.826 10.837 718.381C11.448 719.922 12.1529 724.298 12.4028 728.106C13.4027 743.343 22.6696 751.884 29.5117 743.874C34.3241 738.241 38.7095 727.095 38.7435 720.411C38.7635 716.527 39.3275 713.452 40.2434 712.242C41.0503 711.174 41.7112 709.491 41.7112 708.503C41.7112 706.221 47.6126 702.49 54.7097 700.285C57.7343 699.345 60.9899 698.149 61.9448 697.629C62.8997 697.108 66.1922 696.683 69.2598 696.683C75.9319 696.683 77.9076 695.753 81.0442 691.136C84.3388 686.287 83.6141 682.686 79.3396 682.67C69.7238 682.634 60.9079 678.312 56.4595 671.452C54.4737 668.389 53.8698 646.152 55.6846 642.918C56.2205 641.963 57.3364 639.608 58.1643 637.683C58.9912 635.758 60.2398 633.383 60.9387 632.405C62.8595 629.715 58.1841 627.321 55.1675 629.448ZM416.664 673.183C415.979 674.008 414.723 674.683 413.871 674.683C413.019 674.683 411.612 675.307 410.744 676.069C408.135 678.36 397.923 683.468 394.431 684.228C392.636 684.619 390.28 685.556 389.195 686.311C388.111 687.065 386.198 687.683 384.945 687.683C382.586 687.683 381.911 689.94 383.514 692.468C385.528 695.643 397.618 694.548 406.438 690.391C411.482 688.015 416.136 682.067 420.492 672.433C421.12 671.042 417.92 671.669 416.664 673.183ZM421.664 691.213C421.664 692.056 420.946 693.02 420.068 693.357C419.191 693.694 417.115 695.211 415.456 696.727C408.895 702.72 388.774 707.34 382.768 704.233C379.714 702.654 373.67 696.24 373.67 694.579C373.67 694.01 372.658 693.688 371.42 693.863C369.529 694.132 369.202 694.741 369.37 697.683C369.917 707.251 369.528 713.056 368.164 715.695C366.257 719.385 366.262 725.374 368.177 729.046C368.998 730.622 369.67 732.623 369.67 733.494C369.67 735.195 373.761 741.624 377.419 745.673C378.657 747.042 379.669 748.534 379.669 748.987C379.669 749.441 381.019 750.947 382.669 752.335C384.318 753.724 385.668 755.407 385.668 756.074C385.668 757.715 400.952 765.405 409.037 767.831C414.347 769.425 420.385 769.606 422.266 768.231C424.848 766.342 425.573 750.344 423.278 745.904C422.39 744.187 421.664 741.171 421.664 739.201C421.664 737.008 421.106 735.405 420.225 735.067C419.434 734.763 418.482 733.091 418.11 731.349C417.738 729.608 417.11 727.733 416.715 727.183C409.952 717.77 411.169 701.562 418.82 699.134C419.832 698.812 420.93 697.469 421.262 696.149C421.593 694.829 422.371 693.847 422.99 693.966C423.609 694.086 424.27 693.171 424.459 691.933C424.691 690.41 424.296 689.683 423.234 689.683C422.37 689.683 421.664 690.371 421.664 691.213Z"
  />
</svg>
