<svg
  width="640"
  height="740"
  viewBox="0 0 640 740"
  fill="none"
  xmlns="http://www.w3.org/2000/svg"
>
  <path
    fill-rule="evenodd"
    clip-rule="evenodd"
    fill="black"
    d="M422.336 2.67806C424.753 3.61106 427.228 5.24609 427.836 6.31209C428.443 7.37709 430.289 9.40021 431.939 10.8072C437.388 15.4512 445.723 24.6032 448.004 28.4442C449.941 31.7072 452.131 32.4611 454.206 30.5821C455.244 29.6431 456.806 28.8741 457.677 28.8741C458.549 28.8741 461.652 27.2991 464.575 25.3741C467.498 23.4491 470.631 21.8741 471.539 21.8741C472.446 21.8741 473.749 21.1991 474.434 20.3741C475.128 19.5381 477.307 18.8741 479.355 18.8741C481.378 18.8741 483.551 18.3562 484.184 17.7232C485.655 16.2512 493.753 14.625 498.931 14.762C521.781 15.366 531.4 16.1361 532.489 17.4491C533.168 18.2671 535.453 18.8741 537.857 18.8741C540.16 18.8741 542.916 19.5351 543.984 20.3421C545.051 21.1501 547.057 21.8251 548.44 21.8421C549.823 21.8601 552.633 22.7741 554.685 23.8741C556.738 24.9741 559.056 25.8741 559.838 25.8741C561.531 25.8741 567.776 29.043 568.264 30.149C569.666 33.33 579.421 33.9921 579.421 30.9061C579.421 30.4131 580.434 29.6982 581.671 29.3172C582.907 28.9372 584.686 27.8941 585.622 27.0001C588.866 23.9011 590.34 22.8741 591.548 22.8741C592.215 22.8741 593.472 22.234 594.34 21.451C598.451 17.746 611.336 15.1312 612.232 17.8192C612.425 18.3992 613.376 18.8741 614.344 18.8741C618.566 18.8741 622.129 26.5481 622.572 36.5911C623.262 52.2401 622.663 86.8711 621.682 88.1151C621.136 88.8081 620.397 91.977 620.04 95.158C619.683 98.339 618.993 101.714 618.508 102.658C618.023 103.602 616.593 107.974 615.332 112.374C614.07 116.774 611.774 122.15 610.228 124.321C607.719 127.844 607.412 129.134 607.373 136.321C607.349 140.75 606.681 146.174 605.888 148.374C605.097 150.574 604.441 154.23 604.433 156.498C604.425 158.767 603.743 162.536 602.918 164.874C600.889 170.625 600.842 178.597 602.846 176.934C603.954 176.014 604.907 176.057 607.095 177.123C608.948 178.025 614.378 178.58 622.915 178.739C642.977 179.113 644.403 183.815 630.173 202.684C627.556 206.154 625.415 209.417 625.415 209.934C625.415 210.451 624.818 210.874 624.089 210.874C623.36 210.874 621.707 211.999 620.416 213.374C619.124 214.749 617.505 215.874 616.818 215.874C616.131 215.874 614.297 216.937 612.744 218.237C609.654 220.82 594.47 228.321 590.119 229.413C588.625 229.788 587.154 230.496 586.852 230.985C586.549 231.474 584.739 231.874 582.83 231.874C580.4 231.874 579.194 232.399 578.809 233.624C577.913 236.478 574.137 244.333 573.401 244.874C571.422 246.329 571.966 248.466 574.599 249.582C576.168 250.247 577.713 251.597 578.032 252.582C578.351 253.568 579.513 256.585 580.615 259.288C582.414 263.704 582.559 265.703 582.049 279.038C581.531 292.616 581.628 293.875 583.201 293.884C585.487 293.897 595.672 298.675 596.631 300.184C597.048 300.838 597.395 304.382 597.404 308.059C597.412 311.736 597.947 316.011 598.595 317.559C599.242 319.107 600.38 327.574 601.125 336.374C601.869 345.174 602.727 354.904 603.031 357.996C603.573 363.521 599.824 369.85 595.998 369.869C595.491 369.872 594.366 370.491 593.498 371.246C590.612 373.753 580.971 378.617 577.421 379.356C575.496 379.757 572.797 381.09 571.422 382.319C564.375 388.619 556.725 390.145 546.086 387.374C542.919 386.549 538.607 385.874 536.503 385.874C534.399 385.874 530.765 385.199 528.427 384.374C526.089 383.549 522.713 382.874 520.925 382.874C516.743 382.874 515.88 381.718 514.393 374.124C513.72 370.687 512.826 367.874 512.407 367.874C511.604 367.874 508.43 375.152 508.43 376.993C508.43 377.586 507.822 379.49 507.078 381.223C503.739 389.004 500.195 408.5 501.353 412.713C502.704 417.634 501.291 420.337 497.185 420.682C493.795 420.966 493.456 420.746 492.68 417.75C491.673 413.867 489.435 412.691 489.426 416.041C489.422 417.324 488.764 419.631 487.963 421.166C484.514 427.782 484.832 430.375 490.049 438.149C495.098 445.672 498.431 451.655 498.431 453.197C498.431 453.691 500.681 457.821 503.43 462.374C506.18 466.927 508.43 471.097 508.43 471.64C508.43 472.184 509.105 473.189 509.929 473.874C510.754 474.559 511.429 475.786 511.429 476.601C511.429 477.417 512.779 480.084 514.429 482.529C516.079 484.974 517.429 487.37 517.429 487.853C517.429 488.336 518.02 489.326 518.743 490.053C519.467 490.779 521.301 493.498 522.82 496.093C525.026 499.862 526.271 500.942 529.01 501.455C533.933 502.379 537.426 506.894 537.426 512.336C537.426 514.706 538.098 517.934 538.92 519.51C540.827 523.166 540.893 529.481 539.032 530.195C538.266 530.489 536.747 532.675 535.657 535.052C534.567 537.429 532.689 541.511 531.482 544.124C530.274 546.737 528.868 548.874 528.357 548.874C527.845 548.874 527.427 549.748 527.427 550.817C527.427 552.628 523.835 559.754 522.357 560.874C521.995 561.149 521.385 562.374 521.004 563.597C519.975 566.894 511.475 581.827 508.242 586.018C506.695 588.022 505.43 589.971 505.43 590.35C505.43 590.728 503.855 592.959 501.93 595.309C500.006 597.658 498.431 600.005 498.431 600.524C498.431 603.43 485.442 612.874 481.444 612.874C480.583 612.874 478.978 613.505 477.877 614.275C476.778 615.046 474.765 615.834 473.406 616.025C471.096 616.351 470.883 616.889 470.158 624.214C469.67 629.152 468.519 633.753 467.049 636.644C464.748 641.172 464.741 641.279 466.56 644.361C470.469 650.988 468.3 663.291 461.966 670.411C459.338 673.365 458.775 674.638 459.498 675.991C460.014 676.954 460.436 678.688 460.436 679.843C460.436 680.999 461.131 683.005 461.979 684.302C463.97 687.34 464.452 728.105 462.539 731.679C460.311 735.845 457.241 737.066 442.806 739.531C441.036 739.833 439.38 739.589 438.997 738.97C438.625 738.367 436.881 737.874 435.122 737.874C427.62 737.874 408.964 721.263 402.65 708.963C397.457 698.846 395.98 696.218 394.529 694.517C393.271 693.043 392.944 690.15 392.944 680.517C392.944 672.634 392.505 667.608 391.694 666.19C388.116 659.937 391.471 649.446 398.574 644.674C402.744 641.874 402.744 641.874 399.793 641.874C398.171 641.874 396.3 642.418 395.635 643.083C394.521 644.197 381.463 648.615 371.947 651.097C369.747 651.671 367.047 652.509 365.947 652.96C364.848 653.411 362.373 654.215 360.448 654.746C356.181 655.925 350.49 657.881 348.412 658.884C347.565 659.293 344.865 659.951 342.412 660.346C339.959 660.742 336.954 661.698 335.736 662.47C334.518 663.242 332.367 663.874 330.955 663.874C329.543 663.874 326.94 664.478 325.171 665.217C323.401 665.956 320.285 666.873 318.245 667.254C316.207 667.636 313.282 668.604 311.746 669.405C310.211 670.206 307.508 670.864 305.739 670.868C303.97 670.871 301.046 671.526 299.24 672.324C297.434 673.121 293.377 674.053 290.223 674.394C287.069 674.735 284.231 675.432 283.915 675.944C283.599 676.455 281.244 676.874 278.682 676.874C276.122 676.874 272.074 677.619 269.69 678.53C265.926 679.968 264.733 680.014 260.658 678.881C258.074 678.162 248.312 677.266 238.963 676.889C229.614 676.511 218.816 675.651 214.966 674.976C199.04 672.185 196.685 671.744 190.469 670.393C179.985 668.114 173.405 665.922 166.141 662.29C164.585 661.511 162.502 660.874 161.514 660.874C160.526 660.874 159.158 660.199 158.473 659.374C157.788 658.549 156.674 657.874 155.997 657.874C153.516 657.874 137.089 638.727 135.19 633.624C134.073 630.621 132.248 631.37 117.728 640.789C109.48 646.14 109.479 646.14 109.479 656.106C109.479 666.784 107.883 672.294 104.476 673.375C103.48 673.691 102.412 674.608 102.104 675.412C101.795 676.216 100.517 676.888 99.2618 676.906C98.0079 676.923 96.1071 677.598 95.0403 678.406C93.9724 679.213 91.9327 679.874 90.5059 679.874C89.08 679.874 85.3525 680.774 82.2229 681.874C79.0943 682.974 75.5097 683.884 74.2589 683.896C69.8924 683.939 67.7687 686.847 67.2058 693.553C64.4511 726.383 31.7742 741.17 14.8153 717.26C12.5196 714.023 10.6068 710.635 10.5658 709.731C10.5249 708.827 9.81695 707.829 8.99205 707.512C8.16716 707.196 7.47822 705.91 7.46022 704.655C7.44323 703.401 6.76831 701.5 5.96041 700.433C5.15351 699.365 4.4926 697.43 4.4926 696.133C4.4926 694.836 3.76171 692.361 2.86882 690.634C-1.49663 682.191 0.165157 657.088 5.21853 655.149C6.11041 654.807 7.59025 653.817 8.50713 652.95C9.42502 652.083 14.5533 647.211 19.9037 642.124C25.254 637.037 30.1614 632.869 30.8104 632.863C31.4583 632.857 33.556 631.24 35.4717 629.268C37.3875 627.297 40.3121 624.999 41.9709 624.161C50.3719 619.919 51.4867 618.359 51.4867 610.846C51.4867 593.138 63.5732 583.181 72.6951 593.374C78.0664 599.376 79.9592 598.464 90.4049 584.839C92.2876 582.383 94.3124 579.919 94.9043 579.364C101.411 573.26 103.419 568.14 100.981 563.874C100.195 562.499 99.5357 560.163 99.5157 558.683C99.4967 557.203 99.0308 555.714 98.4809 555.374C96.5671 554.191 97.296 547.068 99.3988 546.4C101.027 545.883 101.182 545.318 100.422 542.667C98.8138 537.063 100.43 533.813 111.729 519.92C114.342 516.709 116.479 513.785 116.479 513.423C116.479 513.062 117.826 511.327 119.473 509.57C121.121 507.812 122.471 506.037 122.473 505.624C122.476 505.211 123.161 504.086 123.995 503.124C127.852 498.674 131.218 494.269 131.58 493.198C131.798 492.55 134.226 489.667 136.976 486.789C139.726 483.911 142.653 480.546 143.482 479.312C144.916 477.175 162.018 458.966 178.721 441.791C182.982 437.408 186.47 433.497 186.469 433.098C186.469 432.7 187.839 431.024 189.515 429.374C200.972 418.091 209.775 408.16 209.863 406.42C209.935 405.005 210.661 404.365 212.218 404.346C213.62 404.328 216.493 402.21 219.848 398.719C222.805 395.64 225.843 392.872 226.596 392.568C227.564 392.178 226.939 391.129 224.465 388.987C220.966 385.957 220.966 385.957 222.715 382.834C223.88 380.756 224.477 377.482 224.5 373.043C224.521 369.158 225.132 365.33 225.965 363.874C226.751 362.499 227.41 360.394 227.43 359.195C227.449 357.997 228.053 356.422 228.771 355.695C229.489 354.969 230.379 353.573 230.75 352.593C231.56 350.455 244.429 330.587 245.465 329.874C245.865 329.599 246.534 328.282 246.951 326.947C247.368 325.612 249.341 322.762 251.336 320.614C253.33 318.466 255.571 315.508 256.317 314.041C257.063 312.574 258.743 310.249 260.05 308.874C261.357 307.499 264.277 304.124 266.541 301.374C273.042 293.475 278.474 287.356 285.111 280.458C288.494 276.941 291.582 273.055 291.973 271.823C292.749 269.379 297.286 264.956 299.07 264.906C299.683 264.888 301.422 263.088 302.933 260.905C304.446 258.722 306.568 256.655 307.65 256.312C308.731 255.969 311.83 253.593 314.539 251.031C323.402 242.648 342.439 228.18 346.7 226.59C348.673 225.854 349.279 216.103 347.466 214.29C346.924 213.748 346.073 210.621 345.575 207.34C345.076 204.058 344.201 200.024 343.63 198.374C341.556 192.38 340.202 184.175 339.757 174.887C339.507 169.669 338.835 164.836 338.263 164.147C336.458 161.973 336.203 121.066 337.979 118.531C338.789 117.375 339.451 114.423 339.451 111.972C339.451 107.685 342.87 95.3872 344.609 93.4242C345.071 92.9012 345.45 91.662 345.45 90.67C345.45 89.678 346.35 87.1881 347.45 85.1351C348.55 83.0831 349.45 80.3071 349.45 78.9681C349.45 77.6281 350.04 75.8212 350.761 74.9532C351.483 74.0842 352.869 71.3491 353.841 68.8741C354.813 66.3991 356.247 63.1001 357.029 61.5431C357.81 59.9861 358.448 58.084 358.448 57.315C358.448 55.729 363.965 45.1492 365.979 42.8722C366.71 42.0462 367.794 40.2462 368.388 38.8722C374.45 24.8512 396.213 2.87411 404.034 2.87411C405.843 2.87411 407.602 2.42411 407.942 1.87411C408.903 0.320106 417.462 0.798061 422.336 2.67806ZM412.442 11.4041C411.617 11.5891 409.182 12.0301 407.03 12.3831C402.27 13.1651 383.341 31.4291 379.575 38.8741C378.323 41.3491 376.77 43.8251 376.122 44.3761C375.475 44.9261 373.821 47.6261 372.447 50.3761C371.072 53.1251 369.577 55.6461 369.125 55.9781C368.672 56.3101 367.915 58.1101 367.443 59.9781C365.937 65.9261 363.694 71.2922 362.553 71.6722C361.945 71.8752 361.448 73.2672 361.448 74.7662C361.448 76.2652 360.787 78.3652 359.98 79.4332C359.172 80.5002 358.495 82.0491 358.474 82.8741C358.453 83.6991 357.764 85.6631 356.943 87.2381C356.121 88.8141 355.449 90.8961 355.449 91.8661C355.449 92.8361 354.821 94.1502 354.054 94.7872C353.286 95.4242 352.345 97.6132 351.963 99.6522C351.58 101.691 350.971 103.812 350.608 104.366C350.246 104.921 349.441 108.299 348.821 111.874C348.201 115.449 347.152 121.033 346.491 124.283C345.712 128.114 345.502 134.446 345.894 142.283C346.226 148.933 346.485 157.862 346.469 162.124C346.44 169.865 347.397 171.711 349.45 167.874C352.194 162.744 361.448 169.746 361.448 176.953C361.448 178.111 362.373 180.235 363.505 181.673C364.733 183.235 365.351 185.125 365.039 186.368C364.752 187.512 365.171 190.907 365.969 193.911C369.683 207.867 364.509 218.108 357.73 210.218C355.449 207.563 355.449 207.563 355.449 210.596C355.449 212.264 356.124 214.189 356.949 214.874C357.803 215.583 358.448 217.763 358.448 219.937C358.448 222.038 358.849 224.004 359.339 224.306C359.829 224.609 361.458 227.223 362.959 230.115C364.461 233.008 366.984 237.309 368.568 239.674C370.151 242.039 371.447 244.22 371.447 244.52C371.447 244.819 374.146 249.101 377.446 254.035C380.746 258.969 383.445 263.698 383.445 264.546C383.445 265.393 384.737 267.726 386.317 269.73C389.831 274.189 394.51 284.609 397.497 294.624C398.193 296.961 399.06 298.874 399.423 298.874C400.422 298.874 399.328 254.424 398.32 254.041C397.838 253.857 397.444 252.602 397.444 251.251C397.444 249.9 396.544 247.03 395.444 244.874C391.69 237.515 393.141 228.669 397.807 230.46C398.715 230.809 399.379 229.945 399.793 227.876C400.135 226.164 401.819 223.587 403.544 222.135C406.561 219.596 407.303 211.694 404.891 207.79C404.314 206.856 396.444 215.077 396.444 216.614C396.444 217.173 393.599 220.723 390.122 224.502C386.646 228.282 383.51 232.162 383.154 233.124C382.799 234.086 381.663 234.874 380.632 234.874C376.788 234.874 373.666 228.461 375.915 225.189C376.602 224.191 377.403 220.295 377.697 216.532C377.99 212.769 378.729 209.191 379.338 208.582C379.948 207.972 380.446 204.25 380.446 200.31C380.446 196.371 380.899 190.758 381.453 187.837C382.581 181.881 383.071 182.946 374.196 172.044C371.034 168.159 368.447 164.344 368.447 163.565C368.447 162.786 367.097 160.45 365.448 158.374C363.798 156.298 362.448 153.867 362.448 152.972C362.448 152.077 361.548 149.665 360.448 147.613C359.348 145.56 358.448 143.035 358.448 142C358.448 140.965 357.774 139.559 356.949 138.874C356.124 138.189 355.435 136.222 355.417 134.502C355.4 132.781 354.758 130.547 353.992 129.535C351.25 125.916 349.951 114.564 351.933 111.538C354.023 108.35 365.073 107.512 367.438 110.363C368.118 111.182 369.021 111.637 369.445 111.375C370.542 110.697 376.446 112.888 376.446 113.972C376.446 114.468 377.105 114.874 377.911 114.874C378.717 114.874 380.855 116.131 382.66 117.668C389.215 123.243 393.438 125.183 393.45 122.624C393.454 121.937 394.141 120.062 394.977 118.457C395.814 116.853 396.61 113.871 396.747 111.83C396.883 109.789 397.494 107.502 398.103 106.747C398.713 105.992 399.547 103.799 399.955 101.874C400.364 99.9491 401.316 97.4862 402.071 96.4012C402.825 95.3172 403.443 93.009 403.443 91.274C403.443 89.539 404.118 87.5591 404.943 86.8741C405.768 86.1891 406.442 84.8391 406.442 83.8741C406.442 82.9091 407.117 81.5591 407.942 80.8741C408.767 80.1891 409.442 78.762 409.442 77.702C409.442 75.072 412.334 69.6612 414.59 68.0672C415.608 67.3492 416.441 66.2482 416.441 65.6222C416.441 64.9962 417.623 63.25 419.067 61.742C421.726 58.967 423.513 56.2361 425.383 52.0951C429.134 43.7891 436.707 42.1781 437.244 49.5711C437.548 53.7771 435.824 56.76 430.189 61.764C429.228 62.619 428.44 64.034 428.44 64.909C428.44 65.784 427.062 67.8202 425.378 69.4342C423.693 71.0472 421.464 74.294 420.423 76.648C419.381 79.002 417.834 81.6232 416.985 82.4732C416.136 83.3222 415.441 85.024 415.441 86.254C415.441 87.485 414.78 89.3652 413.973 90.4332C413.166 91.5002 412.491 93.5212 412.474 94.9242C412.456 96.3262 412.028 97.9012 411.523 98.4242C409.484 100.532 403.444 120.832 403.462 125.516C403.481 130.374 403.481 130.374 406.461 125.627C408.101 123.016 409.459 120.541 409.48 120.127C409.5 119.713 410.963 117.718 412.73 115.694C420.816 106.431 426.655 113.987 419.133 123.98C415.296 129.078 405.949 147.925 404.995 152.489C404.637 154.202 403.353 156.665 402.143 157.962C399.958 160.304 398.018 164.602 396.532 170.398C396.106 172.06 395.185 174.489 394.487 175.794C393.409 177.808 393.461 178.304 394.83 179.07C396.486 179.997 397.195 186.874 395.635 186.874C392.62 186.874 391.095 189.989 389.96 198.467C389.305 203.366 388.422 208.162 387.999 209.124C386.387 212.796 389.359 210.697 391.891 206.374C393.342 203.899 394.916 201.874 395.39 201.874C396.314 201.874 403.443 188.412 403.443 186.666C403.443 186.089 405.041 183.762 406.992 181.495C412.075 175.595 412.442 175.081 412.442 173.864C412.442 172.524 416.681 164.493 417.614 164.066C418.37 163.721 426.44 147.49 426.44 146.316C426.44 145.902 427.565 144.088 428.94 142.285C430.314 140.482 431.439 138.539 431.439 137.966C431.439 137.393 433.014 134.007 434.939 130.442C436.864 126.877 438.438 123.126 438.438 122.108C438.438 121.09 439.099 119.383 439.906 118.315C440.714 117.248 441.389 114.327 441.406 111.824C441.443 106.608 442.717 104.874 446.515 104.874C451.758 104.874 452.965 113.085 448.882 120.981C448.087 122.517 447.437 124.922 447.437 126.324C447.437 127.727 447.017 128.874 446.504 128.874C445.991 128.874 445.271 129.886 444.902 131.124C443.857 134.628 440.047 142.297 438.968 143.07C438.433 143.452 438.266 144.035 438.595 144.364C439.209 144.978 445.42 139.262 445.46 138.047C445.472 137.677 447.851 134.847 450.748 131.758C457.231 124.846 466.6 111.611 467.831 107.624C468.184 106.482 469.383 105.874 471.28 105.874C474.729 105.874 476.714 107.885 475.843 110.497C474.857 113.456 471.553 120.125 469.661 122.975C468.712 124.405 467.067 126.88 466.007 128.475C464.946 130.069 462.664 132.949 460.936 134.874C453.358 143.313 453.443 143.874 462.305 143.874C468.419 143.874 470.351 143.533 470.796 142.374C471.142 141.471 472.651 140.874 474.587 140.874C477.417 140.874 484.012 138.475 488.432 135.838C489.257 135.346 493.307 133.269 497.431 131.223C501.556 129.177 505.155 127.199 505.43 126.828C505.705 126.457 507.28 125.442 508.93 124.572C510.579 123.702 513.279 121.849 514.929 120.452C516.579 119.056 518.472 117.454 519.136 116.894C523.842 112.92 527.427 116.643 527.427 125.503C527.427 130.595 527.87 133.174 528.927 134.231C529.752 135.056 530.43 137.001 530.433 138.553C530.437 140.104 531.112 142.663 531.933 144.238C532.755 145.814 533.427 147.74 533.427 148.52C533.427 149.299 534.084 150.189 534.888 150.498C535.692 150.806 536.656 152.03 537.031 153.216C537.405 154.403 539.673 157.256 542.068 159.556C544.464 161.855 546.443 164.105 546.464 164.556C546.503 165.376 554.865 171.874 555.882 171.874C556.978 171.874 556.31 166.299 554.924 163.874C552.984 160.481 552.988 148.233 554.93 144.51C555.752 142.934 556.424 139.308 556.424 136.451C556.424 129.676 558.45 126.529 561.112 129.171C562.665 130.713 562.888 132.45 562.675 141.363C562.363 154.418 564.019 156.684 565.862 145.724C566.644 141.069 568.776 139.093 571.013 140.949C572.655 142.312 572.534 200.79 570.866 211.624C570.43 214.455 570.581 215.874 571.317 215.874C571.925 215.874 572.422 214.981 572.422 213.889C572.422 212.797 573.701 209.309 575.266 206.139C578.714 199.151 580.196 195.096 581.94 187.874C582.671 184.849 584.428 179.316 585.844 175.579C587.842 170.308 588.423 166.942 588.435 160.579C588.453 151.09 589.099 149.504 592.588 150.38C596.721 151.418 597.748 148.924 598.363 136.368C598.668 130.135 599.24 124.715 599.633 124.323C600.026 123.932 599.927 122.825 599.413 121.865C598.899 120.905 598.413 116.029 598.334 111.031C598.24 105.137 597.713 101.315 596.836 100.158C596.092 99.177 595.468 97.4221 595.451 96.2591C595.433 95.0961 594.578 93.0711 593.549 91.7591C589.421 86.4911 589.999 79.8741 594.589 79.8741C596.746 79.8741 601.321 84.5631 601.418 86.8741C601.453 87.6991 602.142 89.248 602.95 90.315C603.757 91.383 604.418 92.7902 604.418 93.4432C604.418 94.0962 605.12 96.3091 605.977 98.3621C607.987 103.174 610.336 100.825 610.385 93.9532C610.405 91.1822 611.07 88.8102 612.167 87.5982C613.669 85.9372 613.947 83.2461 614.136 68.5191C614.712 23.4861 613.182 20.949 593.303 34.004C584.41 39.843 582.16 43.0701 585.963 44.5291C591.635 46.7061 593.44 63.8 587.884 62.722C586.001 62.357 579.602 54.2801 579.487 52.1241C579.451 51.4371 579.084 50.8722 578.671 50.8692C578.258 50.8672 576.571 49.6131 574.921 48.0841C568.995 42.5891 559.797 36.9351 552.924 34.5611C533.05 27.6971 529.818 26.8741 522.725 26.8741C518.783 26.8741 514.292 26.3771 512.744 25.7701C506.401 23.2811 487.96 25.6612 479.03 30.1212C476.885 31.1932 473.5 32.645 471.51 33.347C469.521 34.049 466.233 35.6931 464.204 36.9991C462.175 38.3051 458.361 40.7011 455.726 42.3221C453.093 43.9441 450.577 45.8561 450.137 46.5721C447.706 50.5301 440.528 45.4632 441.78 40.6732C443.623 33.6282 419.711 9.77413 412.442 11.4041ZM362.115 120.541C360.958 121.697 361.39 125.416 362.916 127.433C363.724 128.5 364.413 130.274 364.448 131.374C364.483 132.474 365.172 134.248 365.979 135.315C366.786 136.383 367.447 138.488 367.447 139.994C367.447 141.499 368.1 143.384 368.898 144.182C369.695 144.98 370.64 146.793 370.996 148.212C371.352 149.631 372.274 151.316 373.045 151.955C373.816 152.595 374.446 153.518 374.446 154.005C374.446 154.493 375.796 156.755 377.446 159.033C379.096 161.31 380.446 163.597 380.446 164.114C380.446 165.367 384.619 168.799 386.195 168.841C386.883 168.859 387.445 168.122 387.445 167.203C387.445 166.284 388.08 164.821 388.856 163.953C392.947 159.375 391.944 153.353 386.537 150.026C381.771 147.093 381.446 146.633 381.446 142.852C381.446 136.814 386.758 136.096 392.076 141.415C393.428 142.767 395.189 143.874 395.989 143.874C398.761 143.874 397.412 140.362 393.687 137.883C391.628 136.513 389.719 135.163 389.445 134.883C388.326 133.744 382.481 129.874 381.88 129.874C381.525 129.874 379.527 128.523 377.442 126.871C371.468 122.138 363.718 118.938 362.115 120.541ZM514.908 133.222C513.797 133.856 511.328 135.493 509.423 136.86C507.517 138.228 501.939 141.378 497.029 143.86C487.499 148.678 486.868 149.32 485.94 155.124C485.239 159.524 478.144 160.727 474.152 157.124C471.341 154.587 445.194 154.88 442.32 157.48C440.306 159.303 439.79 161.874 441.438 161.874C441.988 161.874 442.438 161.424 442.438 160.874C442.438 159.045 455.22 159.725 459.741 161.794C470.654 166.788 477.064 181.093 469.822 184.296C468.676 184.803 466.695 186.739 465.421 188.599C457.827 199.683 441.207 192.974 441.207 178.825C441.207 174.231 440.952 173.646 438.573 172.805C437.125 172.292 435.158 171.423 434.203 170.874C427.528 167.031 415.597 181.339 419.347 188.69C420.679 191.301 421.458 195.741 421.969 203.639C422.37 209.818 423.069 214.874 423.523 214.874C423.978 214.874 424.664 216.55 425.048 218.597C426.981 228.9 431.802 236.874 436.1 236.874C436.952 236.874 439.648 238.224 442.093 239.874C444.538 241.524 447.135 242.874 447.865 242.874C448.595 242.874 449.705 243.493 450.333 244.249C450.96 245.005 453.603 245.835 456.204 246.093C461.31 246.601 474.428 252.245 475.734 254.496C476.174 255.254 477.326 255.874 478.295 255.874C480.718 255.874 488.432 259.697 488.432 260.897C488.432 261.435 489.122 261.874 489.964 261.874C490.807 261.874 491.848 262.825 492.279 263.988C493.025 266.006 493.141 266.022 494.82 264.343C497.615 261.547 503.331 258.994 509.24 257.901C514.706 256.891 524.817 252.671 525.875 250.959C526.185 250.457 528.573 249.076 531.183 247.89C533.791 246.703 536.601 245.308 537.426 244.789C538.251 244.27 540.163 243.358 541.675 242.762C543.188 242.166 544.425 241.272 544.425 240.776C544.425 240.28 544.909 239.874 545.5 239.874C546.092 239.874 549.664 238.039 553.44 235.795C560.305 231.716 560.305 231.716 560.744 220.545C560.986 214.401 561.509 207.942 561.907 206.191C562.418 203.941 562.16 202.337 561.027 200.719C560.145 199.459 559.423 197.629 559.423 196.651C559.423 194.449 555.612 194.22 554.786 196.374C554.429 197.303 552.907 197.874 550.786 197.874C548.428 197.874 547.169 198.419 546.743 199.624C544.28 206.583 532.922 209.287 524.689 204.874C522.637 203.774 520.432 202.874 519.791 202.874C518.306 202.874 516.429 197.552 516.429 193.345C516.429 190.708 517.294 189.406 521.137 186.257C531.413 177.835 534.441 177.319 544.51 182.28C553.924 186.918 553.928 184.778 544.522 176.889C541.647 174.478 541.445 174.462 537.79 176.368C529.485 180.7 523.604 173.628 527.93 164.51C529.72 160.736 529.406 159.649 522.787 146.72C522.04 145.26 521.428 142.709 521.428 141.051C521.428 138.258 518.567 131.769 517.429 131.978C517.154 132.029 516.02 132.588 514.908 133.222ZM451.044 173.456C448.511 180.056 453.202 184.925 458.381 181.073C461.483 178.767 462.106 175.688 459.918 173.499C457.795 171.376 451.853 171.347 451.044 173.456ZM613.389 190.3C614.986 194.503 613.204 196.874 608.447 196.874C606.302 196.874 603.281 197.386 601.733 198.011C600.185 198.636 596.925 199.292 594.487 199.468C589.69 199.814 586.234 202.531 584.975 206.947C584.345 209.157 582.443 213.678 580.294 218.078C579.122 220.478 581.053 221.343 583.714 219.611C584.927 218.822 587.588 217.866 589.628 217.487C591.666 217.109 594.591 216.144 596.127 215.343C597.662 214.542 599.204 213.884 599.554 213.88C600.964 213.867 612.596 205.507 617.016 201.331C619.611 198.88 622.059 196.874 622.457 196.874C622.856 196.874 623.446 196.086 623.769 195.124C624.093 194.162 624.917 192.608 625.601 191.672C627.371 189.25 626.378 188.721 618.944 188.124C612.361 187.596 612.361 187.596 613.389 190.3ZM531.677 191.513C529.492 192.435 530.329 194.811 533.082 195.502C536.039 196.245 538.926 194.893 538.926 192.765C538.926 191.345 534.063 190.506 531.677 191.513ZM484.883 228.979C485.405 229.471 489.147 229.874 493.198 229.874C504.739 229.874 507.501 232.957 501.413 239.046C498.152 242.307 492.877 242.65 485.932 240.053C484.283 239.436 481.773 238.704 480.354 238.426C476.361 237.645 473.922 230.786 476.663 228.045C477.951 226.756 483.149 227.347 484.883 228.979ZM409.073 246.589C409.392 254.948 409.939 258.766 410.981 259.917C411.785 260.805 412.442 262.173 412.442 262.958C412.442 264.606 419.944 272.874 421.439 272.874C421.989 272.874 422.44 271.609 422.44 270.062C422.44 268.097 423.344 266.582 425.44 265.032C427.09 263.812 428.44 262.233 428.44 261.522C428.44 260.812 429.776 258.463 431.411 256.302C435.104 251.421 435.14 250.37 431.689 248.156C430.176 247.186 427.365 244.758 425.44 242.762C421.158 238.32 418.487 236.874 414.566 236.874C412.913 236.874 411.282 236.424 410.942 235.874C409.184 233.029 408.668 235.988 409.073 246.589ZM349.45 237.698C337.236 243.547 336.366 245.304 345.529 245.612C353.789 245.889 354.449 246.174 354.449 249.464C354.449 250.824 355.124 252.196 355.949 252.512C356.774 252.829 357.449 253.645 357.449 254.326C357.449 255.007 358.348 256.379 359.448 257.374C360.548 258.369 361.448 259.852 361.448 260.669C361.448 262.061 363.088 267.558 369.002 285.995C370.347 290.187 371.447 295.279 371.447 297.311C371.447 299.343 371.99 301.988 372.654 303.19C373.319 304.391 374.198 309.649 374.611 314.874C375.024 320.099 375.647 326.234 375.997 328.507C376.395 331.087 376.223 332.894 375.54 333.316C374.273 334.099 373.99 353.874 375.246 353.874C375.686 353.874 376.52 353.4 377.1 352.82C378.983 350.937 389.869 352.08 390.273 354.203C391.296 359.576 389.79 360.894 378.758 364.281C366.811 367.949 363.575 365.503 364.805 353.737C365.999 342.302 363.774 340.869 355.756 347.909C353.899 349.54 351.643 350.874 350.743 350.874C349.844 350.874 348.397 351.473 347.529 352.205C346.66 352.936 343.812 354.324 341.201 355.287C338.589 356.251 336.451 357.236 336.451 357.477C336.451 358.588 341.458 365.592 343.579 367.447C346.567 370.06 353.394 378.295 355.705 382.072C358.087 385.967 358.979 386.156 367.007 384.466C370.839 383.66 375.767 383.236 377.96 383.522C384.604 384.392 387.445 382.688 387.445 377.833C387.445 375.583 387.927 372.843 388.515 371.743C395.807 358.117 396.016 312.268 388.849 298.72C388.077 297.26 387.445 295.323 387.445 294.415C387.445 292.31 383.77 284.193 382.448 283.376C381.896 283.035 381.446 281.95 381.446 280.965C381.446 279.98 380.182 277.419 378.637 275.274C377.092 273.129 375.495 270.699 375.089 269.874C374.683 269.049 373.259 266.574 371.923 264.374C370.587 262.174 369.003 259.251 368.402 257.878C367.801 256.506 366.28 254.031 365.023 252.378C363.765 250.726 362.442 248.474 362.082 247.374C361.723 246.274 360.083 243.851 358.438 241.988C356.795 240.126 355.449 237.989 355.449 237.238C355.449 235.485 353.809 235.611 349.45 237.698ZM553.699 248.285C550.83 250.175 547.457 252.026 546.204 252.399C544.951 252.772 542.264 254.381 540.235 255.975C538.204 257.57 536.061 258.874 535.471 258.874C534.881 258.874 533.618 259.291 532.663 259.801C531.708 260.311 530.178 260.957 529.263 261.236C527.711 261.711 527.47 264.275 528.298 271.5C528.39 272.305 530.207 272.215 534.676 271.181C546.758 268.388 551.933 268.335 553.79 270.986C557.403 276.144 554.623 279.288 545.425 280.448C542.4 280.83 539.026 281.62 537.926 282.203C536.826 282.787 534.126 283.514 531.927 283.819C527.927 284.374 527.927 284.374 527.671 291.374C527.424 298.159 524.056 311.368 522.295 312.456C520.18 313.763 521.708 315.663 525.343 316.244C529.002 316.83 538.691 314.197 542.007 311.717C542.603 311.271 546.316 309.293 550.259 307.32C554.202 305.347 557.892 302.866 558.459 301.807C559.026 300.747 561.199 299.009 563.288 297.943C571.176 293.918 572.422 290.844 572.422 275.409C572.422 259.8 572.258 259.526 564.869 262.795C554.589 267.343 549.657 260.376 556.483 250.951C560.721 245.099 559.831 244.246 553.699 248.285ZM342.523 255.603C341.19 255.854 339.165 256.622 338.024 257.309C336.884 257.996 333.926 259.129 331.452 259.828C326.544 261.213 319.869 264.387 317.375 266.523C316.507 267.266 315.503 267.874 315.145 267.874C313.036 267.874 303.455 275.184 303.455 276.792C303.455 277.813 302.086 279.712 300.414 281.011C298.74 282.311 294.905 285.737 291.892 288.624C288.877 291.511 286.054 293.874 285.619 293.874C285.183 293.874 283.813 295.678 282.574 297.882C281.335 300.086 278.552 303.311 276.391 305.049C274.228 306.787 272.459 308.615 272.459 309.112C272.459 310.097 264.427 320.166 263.21 320.707C262.797 320.891 262.46 321.505 262.46 322.073C262.46 322.642 260.323 325.867 257.709 329.24C255.096 332.614 252.325 336.604 251.55 338.107C250.776 339.61 249.401 341.635 248.496 342.607C242.967 348.544 233.464 367.681 233.464 372.881C233.464 374.606 232.802 376.679 231.993 377.488C230.613 378.868 249.472 399.018 255.152 402.231C255.985 402.703 258.308 404.783 260.314 406.855C266.163 412.896 281.554 422.257 289.957 424.884C292.157 425.572 294.406 426.484 294.956 426.911C300.251 431.022 306.304 426.526 308.057 417.18C308.398 415.362 309.078 413.874 309.566 413.874C310.054 413.874 310.454 413.155 310.454 412.275C310.454 411.396 311.103 409.258 311.896 407.525C312.688 405.792 314.452 401.574 315.814 398.152C317.177 394.729 319.452 390.853 320.872 389.537C322.291 388.221 323.453 386.654 323.453 386.054C323.453 383.213 329.631 375.91 333.427 374.266C337.536 372.486 319.326 354.874 313.376 354.874C311.272 354.874 299.639 365.263 294.665 371.583C291.163 376.035 288.626 377.38 285.565 376.408C281.216 375.028 282.661 368.558 288.751 362.139C291.983 358.732 291.956 357.001 288.697 358.745C287.635 359.314 285.536 360.002 284.031 360.275C279.855 361.032 272.165 364.038 270.249 365.662C266.144 369.142 259.421 362.74 261.482 357.315C261.993 355.972 263.125 354.874 263.998 354.874C265.479 354.874 276.459 351.554 280.958 349.747C288.756 346.613 296.21 344.874 301.841 344.874C305.387 344.874 308.438 344.494 308.622 344.028C309.689 341.321 318.641 341.909 321.614 344.882C324.569 347.836 329.653 348.975 330.898 346.961C331.209 346.459 333.276 345.742 335.491 345.367C340.36 344.545 349.429 339.872 355.117 335.256C357.41 333.396 359.739 331.874 360.294 331.874C364.548 331.874 367.401 307.165 363.671 302.632C363.101 301.94 362.316 299.231 361.926 296.612C361.536 293.992 360.845 291.619 360.39 291.338C359.936 291.057 359.278 288.7 358.93 286.101C358.581 283.501 357.656 279.677 356.873 277.604C356.09 275.53 355.449 272.967 355.449 271.907C355.449 270.848 353.874 267.294 351.949 264.009C350.024 260.725 348.45 257.326 348.45 256.456C348.45 254.883 347.26 254.712 342.523 255.603ZM442.557 257.579C441.403 259.116 440.005 260.918 439.449 261.582C438.893 262.246 438.438 263.073 438.438 263.419C438.438 263.766 436.189 267.476 433.439 271.665C430.689 275.854 428.44 279.81 428.44 280.455C428.44 281.101 427.765 282.189 426.94 282.874C426.115 283.559 425.44 285.359 425.44 286.874C425.44 288.389 424.794 290.165 424.004 290.821C423.215 291.476 422.278 293.444 421.922 295.193C421.568 296.943 420.779 299.82 420.171 301.588C418.894 305.299 420.733 308.228 425.014 309.303C426.348 309.638 427.44 310.316 427.44 310.81C427.44 315.723 472.264 318.913 480.238 314.567C487.002 310.88 484.558 304.494 476.146 303.874C468.851 303.336 467.477 302.361 467.45 297.695C467.425 293.34 469.298 292.374 477.756 292.375C487.065 292.377 487.713 291.011 479.933 287.786C476.909 286.532 474.434 285.139 474.434 284.69C474.434 284.241 473.284 283.874 471.879 283.874C470.474 283.874 467.437 283.04 465.13 282.021C462.823 281.002 460.148 279.892 459.186 279.553C457.932 279.111 457.44 277.865 457.451 275.155C457.48 267.975 459.502 267.462 470.434 271.861C473.459 273.078 477.059 274.321 478.433 274.623C479.808 274.924 482.006 276.004 483.318 277.023C487.409 280.199 489.432 279.489 489.432 274.874C489.432 271.218 489.205 270.874 486.793 270.874C485.342 270.874 482.079 269.619 479.544 268.086C462.829 257.977 445.872 253.16 442.557 257.579ZM507.864 269.824C500.798 272.339 498.431 274.013 498.431 276.492C498.431 277.668 497.756 280.245 496.931 282.22C496.106 284.194 495.415 287.512 495.396 289.592C495.376 291.672 494.717 294.499 493.931 295.874C493.068 297.386 492.489 301.231 492.467 305.601C492.423 314.614 493.991 316.103 503.179 315.771C506.44 315.654 509.631 315.88 510.268 316.275C510.996 316.724 511.429 316.274 511.429 315.068C511.429 314.01 512.329 312 513.429 310.601C514.529 309.203 515.429 307.168 515.429 306.081C515.429 304.993 516.069 302.87 516.85 301.363C517.887 299.363 518.29 294.47 518.342 283.248C518.422 265.745 518.617 265.995 507.864 269.824ZM409.642 283.619C410 290.462 412.317 291.951 414.883 286.986C417.044 282.808 416.914 282.35 412.892 279.977C409.342 277.883 409.342 277.883 409.642 283.619ZM567.554 308.33C564.603 311.278 559.224 315.244 555.602 317.144C547.252 321.523 546.711 322.874 553.307 322.874C559.388 322.874 563.84 324.803 572.321 331.113C575.84 333.732 579.285 335.874 579.976 335.874C580.668 335.874 583.525 338.083 586.326 340.784C591.419 345.693 591.419 345.693 591.419 332.45C591.419 325.167 591.082 318.876 590.669 318.472C590.256 318.067 589.469 315.451 588.918 312.659C587.943 307.719 587.79 307.546 583.217 306.212C580.634 305.459 578.246 304.399 577.911 303.858C576.5 301.575 572.657 303.235 567.554 308.33ZM408.442 312.801C408.442 314.733 407.592 316.398 405.942 317.695C403.228 319.831 402.782 321.813 404.606 323.637C405.246 324.277 406.033 328.979 406.355 334.087C406.942 343.374 406.942 343.374 409.403 338.374C413.817 329.402 415.018 316.895 411.878 312.59C409.361 309.14 408.442 309.197 408.442 312.801ZM511.429 321.591C511.429 324.071 509.536 325.874 506.93 325.874C503.923 325.874 502.43 327.776 502.43 331.606C502.43 333.439 501.707 336.611 500.823 338.656C499.939 340.701 498.838 345.074 498.377 348.374C497.073 357.703 495.391 365.115 493.895 368.121C492.467 370.992 492.948 387.874 494.458 387.874C494.859 387.874 495.647 386.187 496.208 384.124C496.769 382.062 498.883 375.874 500.905 370.374C502.925 364.874 504.83 359.325 505.137 358.042C505.444 356.759 506.31 355.474 507.062 355.185C507.815 354.896 508.432 353.471 508.434 352.017C508.437 350.563 509.784 347.349 511.429 344.874C513.074 342.399 514.422 339.92 514.425 339.366C514.427 338.812 515.55 336.252 516.921 333.677C519.214 329.368 519.418 325.874 517.377 325.874C516.915 325.874 515.951 324.67 515.234 323.198C513.643 319.936 511.429 319 511.429 321.591ZM423.577 323.208C422.199 324.87 421.007 334.488 422.095 335.161C423.211 335.85 433.439 331.197 433.439 330C433.439 329.509 434.339 328.872 435.439 328.584C439.006 327.651 437.559 326.148 432.439 325.468C429.689 325.104 427.44 324.419 427.44 323.947C427.44 322.47 424.635 321.934 423.577 323.208ZM482.433 325.529C481.058 325.765 479.033 326.348 477.933 326.825C476.834 327.302 475.197 327.925 474.295 328.209C470.676 329.35 474.713 337.225 482.933 345.061C487.96 349.855 489.432 349.914 489.432 345.324C489.432 343.372 490.13 340.425 490.983 338.776C495.626 329.794 491.835 323.919 482.433 325.529ZM536.98 325.831C535.128 326.504 535.14 326.566 537.229 327.112C538.436 327.428 539.657 327.31 539.941 326.849C540.728 325.577 539.162 325.039 536.98 325.831ZM449.52 333.306C446.549 335.743 443.048 338.006 441.739 338.335C440.43 338.663 436.127 340.944 432.175 343.403C424.378 348.256 422.828 348.635 419.882 346.406C417.162 344.349 416.773 344.482 415.591 347.874C415.016 349.524 414.072 350.874 413.494 350.874C412.915 350.874 412.442 351.743 412.442 352.806C412.442 354.411 408.753 362.752 405.337 368.874C399.714 378.946 399.165 380.874 401.917 380.874C402.966 380.874 406.442 374.324 406.442 372.35C406.442 371.881 407.455 370.01 408.692 368.193C412.884 362.034 418.815 365.121 418.689 373.396C418.622 377.855 419.663 379.78 423.217 381.769C426.301 383.495 425.39 389.998 421.367 394.994C418.154 398.982 417.226 402.874 419.489 402.874C424.845 402.874 422.84 424.6 417.288 426.716C416.795 426.904 415.796 428.479 415.068 430.216C414.341 431.953 412.803 434.499 411.65 435.874C410.496 437.249 408.237 439.949 406.628 441.874C405.02 443.799 402.298 448.169 400.579 451.584C395.376 461.928 388.971 465.12 383.945 459.874C380.576 456.357 376.446 455.806 376.446 458.874C376.446 459.974 375.996 460.874 375.446 460.874C374.896 460.874 374.443 463.011 374.44 465.624C374.436 468.237 373.762 471.663 372.941 473.238C372.119 474.814 371.447 477.315 371.447 478.797C371.447 480.279 370.786 482.365 369.979 483.433C369.171 484.5 368.496 486.314 368.479 487.463C368.434 490.416 363.515 505.715 362.386 506.413C361.87 506.731 361.448 508.454 361.448 510.242C361.448 512.029 360.787 514.365 359.98 515.433C357.262 519.027 358.07 521.129 361.094 518.326C364.385 515.276 367.852 515.186 369.89 518.097C371.937 521.019 372.063 534.115 370.063 536.115C369.302 536.877 367.725 539.369 366.56 541.653C362.049 550.498 351.664 549.709 352.23 540.565C352.466 536.757 349.887 539.214 348.757 543.874C348.424 545.249 346.868 548.8 345.301 551.765C343.733 554.73 342.45 557.73 342.45 558.433C342.45 559.786 338.969 566.725 334.953 573.374C333.626 575.574 332.519 578.563 332.495 580.017C332.472 581.471 331.777 582.919 330.952 583.236C330.127 583.552 329.452 584.639 329.452 585.651C329.452 586.664 328.791 588.365 327.984 589.433C327.176 590.5 326.501 592.176 326.484 593.155C326.466 594.135 325.777 595.196 324.953 595.512C324.128 595.829 323.453 597.003 323.453 598.121C323.453 599.24 322.489 602.229 321.311 604.764C320.133 607.3 318.489 610.949 317.659 612.874C316.83 614.799 315.544 617.568 314.802 619.028C314.061 620.488 313.454 623.049 313.454 624.719C313.454 626.389 313.034 628.015 312.521 628.332C312.008 628.649 311.093 631.489 310.487 634.641C309.883 637.794 308.952 641.155 308.421 642.11C307.89 643.065 307.455 645.055 307.455 646.532C307.455 648.008 306.818 649.927 306.04 650.795C305.261 651.664 304.305 654.092 303.915 656.193C303.191 660.096 306.549 660.759 312.454 657.879C313.279 657.477 315.979 656.839 318.453 656.461C320.928 656.082 323.853 655.193 324.953 654.484C326.052 653.775 328.527 652.901 330.452 652.542C335.039 651.687 353.588 646.207 359.948 643.829C362.698 642.8 368.097 641.011 371.947 639.852C375.796 638.693 383.67 636.153 389.445 634.207C395.219 632.261 401.053 630.419 402.409 630.114C403.765 629.808 406.293 628.054 408.026 626.216C411.5 622.533 412.626 622.201 414.676 624.252C416.053 625.629 427.88 622.475 434.123 619.066C435.325 618.411 436.79 617.874 437.38 617.874C438.886 617.874 455.909 611.286 462.035 608.333C464.84 606.98 468.042 605.874 469.15 605.874C470.257 605.874 472.308 604.974 473.707 603.874C475.105 602.774 477.605 601.874 479.264 601.874C483.377 601.874 496.431 589.327 496.431 585.375C496.431 585.053 497.384 583.797 498.549 582.582C499.713 581.368 501.306 579.024 502.089 577.374C502.871 575.724 504.607 572.574 505.947 570.374C507.286 568.174 508.67 565.586 509.023 564.624C509.375 563.662 510.06 562.874 510.546 562.874C511.031 562.874 511.432 562.086 511.436 561.124C511.439 560.162 512.336 558.024 513.429 556.374C516.368 551.937 516.019 550.899 509.18 543.741C505.743 540.144 501.841 534.99 500.512 532.288C499.181 529.585 497.822 527.149 497.491 526.874C497.161 526.599 496.34 525.249 495.668 523.874C494.996 522.499 494.028 520.699 493.52 519.874C493.01 519.049 490.265 513.649 487.419 507.874C479.365 491.527 476.04 485.442 474.684 484.574C473.997 484.134 473.434 482.924 473.434 481.883C473.434 480.843 472.981 479.712 472.427 479.369C470.914 478.435 467.435 470.795 467.435 468.409C467.435 467.259 466.678 465.239 465.753 463.918C464.703 462.419 464.046 459.456 464.003 456.029C463.92 449.31 462.624 448.623 457.884 452.785C450.637 459.149 446.802 455.994 447.768 444.461C448.553 435.098 453.291 431.728 458.436 436.874C461.892 440.331 468.804 435.031 470.017 427.992C470.361 426.002 471.27 422.446 472.038 420.089C472.806 417.732 473.45 414.807 473.469 413.589C473.489 412.371 474.148 410.249 474.934 408.874C475.72 407.499 476.379 405.337 476.399 404.069C476.433 401.807 479.092 394.964 481.974 389.72C482.777 388.26 483.417 385.11 483.397 382.72C483.361 378.374 483.361 378.374 481.147 380.922C476.424 386.359 471.976 386.515 468.2 381.374C465 377.018 469.623 365.471 475.185 363.926C480.674 362.402 481.03 362.527 482.55 366.521C483.938 370.168 483.938 370.168 485.313 367.598C487.353 363.785 485.992 360.793 480.434 356.874C474.428 352.639 464.493 338.442 464.403 333.967C464.274 327.474 457.022 327.152 449.52 333.306ZM541.988 334.753C540.193 338.225 538.703 338.874 532.525 338.874C523.279 338.874 521.428 342.003 521.428 357.633C521.428 372.29 522.623 373.549 536.926 373.976C540.226 374.074 545.431 374.962 548.493 375.95C561.694 380.207 571.757 371.367 571.883 355.399C571.923 350.317 569.92 348.189 562.423 345.345C556.029 342.92 553.91 341.244 553.61 338.374C553.364 336.017 552.49 334.999 549.534 333.624C544.487 331.278 543.726 331.392 541.988 334.753ZM591.055 350.124C590.254 354.257 588.761 354.799 584.985 352.325C582.621 350.776 582.621 350.776 581.948 356.075C581.579 358.989 581.054 362.162 580.781 363.124C580.028 365.785 582.709 365.286 587.868 361.804C592.973 358.358 593.887 356.171 592.642 350.374C591.782 346.374 591.782 346.374 591.055 350.124ZM339.451 380.964C339.451 381.563 337.258 384.514 334.577 387.522C331.898 390.529 328.907 394.651 327.932 396.682C326.957 398.713 325.798 401.049 325.356 401.874C324.913 402.699 323.59 405.399 322.415 407.874C321.24 410.349 319.418 414.01 318.366 416.01C317.315 418.01 316.454 420.829 316.454 422.274C316.454 423.719 316.057 425.683 315.572 426.638C311.427 434.794 313.52 440.886 321.557 444.064C323.827 444.961 326.452 441.078 326.452 436.824C326.452 435.107 328.027 430.506 329.952 426.599C331.877 422.691 333.452 418.989 333.452 418.372C333.452 416.738 337.262 409.109 338.444 408.379C338.998 408.036 339.451 407.071 339.451 406.233C339.451 405.396 341.095 401.935 343.103 398.542C349.978 386.932 349.785 388.049 345.681 383.719C342.121 379.962 339.451 378.781 339.451 380.964ZM407.875 391.827C407.362 392.333 401.093 392.968 393.944 393.238C386.795 393.508 379.374 394.211 377.453 394.801C375.531 395.391 371.364 395.874 368.19 395.874C365.017 395.874 361.639 396.297 360.684 396.814C359.729 397.33 357.695 398.018 356.165 398.341C354.368 398.721 353 399.894 352.307 401.652C351.11 404.688 350.796 405.334 346.943 412.704C345.452 415.557 343.831 418.139 343.341 418.442C342.851 418.744 342.45 419.943 342.45 421.104C342.45 422.266 341.813 423.927 341.036 424.795C337.46 428.784 337.947 433.634 342.099 435.399C347.336 437.623 362.017 441.874 364.463 441.874C365.555 441.874 366.447 442.272 366.447 442.758C366.447 443.243 369.367 443.954 372.936 444.336C376.505 444.718 379.681 445.446 379.994 445.952C380.876 447.379 384.061 447.041 385.445 445.374C386.13 444.549 387.327 443.874 388.107 443.874C390.269 443.874 405.372 428.377 406.576 424.92C407.16 423.245 408.044 421.874 408.54 421.874C409.036 421.874 409.442 421.424 409.442 420.874C409.442 420.324 410.342 418.974 411.442 417.874C414.422 414.893 413.919 411.724 409.845 407.82C404.226 402.435 403.798 396.018 408.835 392.678C409.412 392.296 409.642 391.741 409.346 391.445C409.051 391.149 408.389 391.321 407.875 391.827ZM231.964 402.294C227.66 405.733 193.171 440.271 185.47 448.853C181.895 452.837 176.046 459.228 172.472 463.055C168.897 466.882 165.649 470.882 165.255 471.944C164.86 473.005 163.653 473.874 162.573 473.874C161.492 473.874 160.357 474.662 160.051 475.624C159.478 477.429 158.188 478.866 149.541 487.339C146.755 490.07 144.475 492.827 144.475 493.467C144.475 494.106 143.742 495.238 142.846 495.981C141.95 496.725 137.543 502.067 133.053 507.854C125.415 517.694 122.18 522.106 115.138 532.273C113.576 534.528 111.776 536.831 111.138 537.391C110.501 537.95 109.291 539.743 108.45 541.376C107.608 543.009 105.895 544.856 104.642 545.48C102.828 546.385 102.676 546.735 103.893 547.202C104.733 547.525 105.72 549.045 106.087 550.581C106.454 552.117 108.042 556.168 109.616 559.582C111.191 562.997 112.479 566.398 112.479 567.141C112.479 567.884 113.14 569.365 113.947 570.433C114.755 571.5 115.43 573.331 115.447 574.502C115.465 575.672 116.154 577.189 116.979 577.874C117.803 578.559 118.478 579.577 118.478 580.137C118.478 581.107 121.259 587.511 124.008 592.874C125.261 595.318 126.957 598.751 129.977 604.955C130.802 606.65 131.477 608.503 131.477 609.073C131.477 609.643 132.827 611.648 134.476 613.527C136.126 615.406 137.476 617.721 137.476 618.672C137.476 620.329 143.432 629.945 146.163 632.695C146.885 633.422 147.475 634.443 147.475 634.964C147.475 635.484 150.294 638.829 153.741 642.397C160.12 649 160.404 649.155 177.88 655.545C180.03 656.33 182.635 657.427 183.672 657.982C184.708 658.537 188.799 659.645 192.762 660.445C196.726 661.245 202.443 662.4 205.468 663.012C208.492 663.625 213.217 664.294 215.966 664.5C218.716 664.706 222.54 665.088 224.465 665.349C244.047 668.006 269.916 668.771 273.592 666.803C274.512 666.311 278.861 665.505 283.258 665.013C293.47 663.871 293.216 664.089 294.035 655.767C294.49 651.15 295.216 648.52 296.131 648.169C298.038 647.437 299.998 642.433 300.823 636.188C301.2 633.336 302.167 629.736 302.975 628.188C303.782 626.64 304.445 624.068 304.449 622.471C304.452 620.874 305.805 616.71 307.455 613.218C309.105 609.726 310.454 606.395 310.454 605.816C310.454 604.849 312.057 600.932 316.161 591.874C317.033 589.949 318.108 587.699 318.55 586.874C318.993 586.049 320.321 583.349 321.502 580.874C326.898 569.566 329.294 564.186 329.964 561.874C330.363 560.499 331.203 558.699 331.831 557.874C334.385 554.521 336.451 549.923 336.451 547.592C336.451 546.232 337.126 544.559 337.951 543.874C338.776 543.189 339.451 541.82 339.451 540.831C339.451 539.345 343.517 530.185 347.527 522.638C348.035 521.683 348.45 520.09 348.45 519.099C348.45 518.108 349.35 515.532 350.449 513.374C351.549 511.216 352.463 508.759 352.481 507.913C352.498 507.066 353.173 505.5 353.981 504.433C354.788 503.365 355.449 501.626 355.449 500.567C355.449 499.509 356.106 496.557 356.909 494.008C363.064 474.468 364.397 469.847 364.995 465.976C365.368 463.557 366.279 460.127 367.02 458.353C368.645 454.464 368.183 453.874 363.517 453.874C361.538 453.874 358.239 452.974 356.188 451.874C354.135 450.774 351.614 449.874 350.584 449.874C349.555 449.874 345.39 448.79 341.332 447.464C332.666 444.634 333.235 444.361 332.666 451.625C332.418 454.787 331.64 458.049 330.937 458.874C330.234 459.699 329.494 461.269 329.294 462.363C328.409 467.189 323.497 464.853 323.468 459.593C323.459 457.866 322.789 456.566 321.703 456.166C320.741 455.811 318.153 454.362 315.954 452.947C313.754 451.532 311.416 450.149 310.758 449.874C310.1 449.599 307.401 447.334 304.759 444.84C300.913 441.209 298.22 439.748 291.242 437.511C286.449 435.975 281.429 433.853 280.086 432.796C278.742 431.739 277.187 430.874 276.63 430.874C274.466 430.874 249.357 412.444 248.275 410.062C247.742 408.89 236.694 399.873 235.805 399.885C235.342 399.891 233.614 400.975 231.964 402.294ZM476.399 442.624C476.379 444.136 475.72 446.499 474.934 447.874C473.357 450.633 472.929 459.926 474.31 461.424C474.792 461.947 476.445 465.299 477.982 468.874C479.52 472.449 481.761 476.724 482.962 478.374C484.163 480.024 485.452 482.346 485.828 483.534C486.202 484.722 487.167 486.239 487.971 486.906C488.774 487.573 489.432 488.786 489.432 489.601C489.432 490.417 490.782 493.084 492.432 495.529C494.081 497.974 495.431 500.784 495.431 501.774C495.431 502.764 496.781 505.438 498.431 507.715C500.081 509.993 501.431 512.287 501.431 512.812C501.431 513.954 504.962 520.64 508.858 526.874C514.285 535.557 521.175 541.207 523.155 538.598C527.077 533.427 528.808 522.058 526.124 519.092C525.192 518.06 524.428 516.67 524.428 516.003C524.428 514.792 523.38 513.289 520.293 510.076C519.394 509.14 517.804 506.799 516.761 504.874C515.717 502.949 513.632 499.457 512.127 497.113C510.622 494.77 507.77 489.82 505.789 486.113C503.807 482.407 501.566 478.664 500.809 477.795C500.051 476.927 499.431 475.52 499.431 474.668C499.431 473.816 498.756 472.559 497.931 471.874C497.106 471.189 496.431 470.07 496.431 469.386C496.431 468.703 495.531 467 494.431 465.601C493.332 464.203 492.432 462.49 492.432 461.795C492.432 461.1 491.796 459.821 491.018 458.953C490.241 458.084 488.099 454.449 486.259 450.874C480.846 440.356 476.475 436.698 476.399 442.624ZM470.038 494.205C478.193 506.898 469.916 527.459 460.345 518.286C455.148 513.308 456.759 496.998 462.738 494.049C464.46 493.2 469.462 493.307 470.038 494.205ZM103.391 584.581C101.515 586.62 99.7307 588.924 99.4257 589.701C98.6568 591.658 94.7293 596.026 82.2339 608.821C71.1753 620.146 69.1655 623.418 68.0237 631.962C66.5459 643.018 76.5466 650.61 86.3384 645.865C89.7349 644.22 92.9216 642.874 93.4205 642.874C93.9194 642.874 96.4441 641.259 99.0298 639.284C101.616 637.31 105.813 634.805 108.356 633.717C110.898 632.629 113.879 630.944 114.979 629.973C116.079 629.001 119.092 627.001 121.676 625.528C127.078 622.449 128.153 621.15 126.59 619.587C125.978 618.975 125.478 617.466 125.478 616.233C125.478 615 125 613.697 124.416 613.336C123.832 612.975 122.933 611.711 122.419 610.527C121.904 609.343 121.068 607.699 120.56 606.874C118.736 603.91 115.479 596.791 115.479 595.772C115.479 595.199 114.804 594.056 113.979 593.231C113.154 592.406 112.479 590.918 112.479 589.925C112.479 588.932 111.804 587.559 110.979 586.874C110.154 586.189 109.479 584.559 109.479 583.252C109.479 579.839 107.319 580.311 103.391 584.581ZM63.2313 602.139C62.4154 603.384 61.4295 605.854 61.0395 607.627C60.6506 609.4 59.9167 611.108 59.4087 611.422C57.8559 612.382 58.2639 622.874 59.8537 622.874C60.7086 622.874 61.4335 621.279 61.7865 618.624C62.1864 615.607 63.1923 613.648 65.252 611.874C69.0465 608.604 69.5525 606.94 67.9257 603.072C66.3349 599.288 65.241 599.071 63.2313 602.139ZM456.982 622.71C455.357 622.895 453.121 623.682 452.011 624.46C450.9 625.238 449.08 625.884 447.964 625.896C446.849 625.909 443.238 627.249 439.938 628.874C436.639 630.499 432.814 631.855 431.439 631.886C430.064 631.917 427.14 632.811 424.94 633.874C422.74 634.937 420.356 635.821 419.641 635.84C415.824 635.94 412.442 638.964 412.442 642.277C412.442 644.121 411.767 646.189 410.942 646.874C408.879 648.586 409.117 651.904 411.51 654.778C413.502 657.169 413.582 657.178 427.225 656.499C445.931 655.566 445.863 655.588 449.462 649.509C451.135 646.685 452.928 643.699 453.448 642.874C460.265 632.056 462.003 622.139 456.982 622.71ZM53.0785 629.676C50.3799 631.16 46.8703 633.588 45.2795 635.073C43.6877 636.557 41.509 638.05 40.4371 638.39C39.3653 638.73 38.4884 639.386 38.4884 639.847C38.4884 640.308 36.3516 642.101 33.739 643.832C31.1263 645.562 24.5511 651.342 19.1258 656.676C9.26101 666.374 9.26102 666.374 9.95293 676.772C10.4109 683.642 11.1278 687.653 12.0687 688.594C12.8516 689.376 13.5055 690.997 13.5235 692.195C13.5405 693.394 14.2154 695.248 15.0233 696.315C15.8302 697.383 16.4911 699.478 16.4911 700.971C16.4911 703.479 17.8759 705.608 25.9899 715.57C32.942 724.107 47.7562 718.69 53.4785 705.519C54.7084 702.689 56.1641 699.511 56.7141 698.456C57.263 697.401 58.0139 693.037 58.3819 688.759C59.1958 679.282 60.9666 677.33 71.8012 673.963C75.7517 672.736 80.4611 671.089 82.2669 670.303C84.0727 669.517 87.4992 668.874 89.8809 668.874C96.8901 668.874 104.144 658.096 100.819 652.624C100.174 651.563 95.4813 651.688 95.4813 652.766C95.4813 653.256 94.3024 653.953 92.8606 654.315C91.4197 654.677 89.588 655.626 88.7901 656.423C85.3425 659.871 67.4847 656.926 67.4847 652.909C67.4847 652.468 66.6708 651.895 65.677 651.634C62.5194 650.809 58.5418 641.195 58.2479 633.676C57.9859 626.977 57.9859 626.977 53.0785 629.676ZM456.097 657.574C454.159 661.308 454.075 661.874 455.461 661.874C456.665 661.874 458.669 657.067 458.13 655.473C457.926 654.868 457.011 655.814 456.097 657.574ZM399.443 659.545C399.443 660.464 400.161 662.01 401.038 662.979C402.541 664.64 403.32 679.645 402.013 681.761C401.107 683.227 403.518 690.913 406.434 695.861C408.088 698.666 409.442 701.617 409.442 702.418C409.442 703.219 409.849 703.874 410.347 703.874C410.845 703.874 412.389 705.787 413.777 708.124C415.166 710.461 417.499 713.499 418.96 714.874C420.421 716.249 423.28 719.068 425.313 721.138C430.463 726.383 438.058 729.138 444.763 728.194C447.608 727.794 450.322 727.573 450.792 727.705C455.109 728.912 456.595 690.888 452.437 685.601C451.337 684.203 450.423 682.005 450.405 680.716C450.388 679.428 449.713 677.5 448.905 676.433C446.72 673.544 447.123 670.134 449.937 667.687C451.312 666.492 452.437 665.087 452.437 664.566C452.437 663.272 444.187 664.662 443.294 666.107C442.814 666.884 437.047 667.266 425.131 667.31C405.807 667.381 404.306 666.939 403.083 660.823C402.457 657.692 399.443 656.634 399.443 659.545Z"
  />
</svg>
