<svg
  width="661"
  height="727"
  viewBox="0 0 661 727"
  fill="none"
  xmlns="http://www.w3.org/2000/svg"
>
  <path
    fill-rule="evenodd"
    clip-rule="evenodd"
    fill="black"
    d="M472.076 1.449C477.854 3.646 485.555 15.0169 485.555 21.3499C485.555 22.9859 485.946 24.5659 486.424 24.8609C486.901 25.1559 487.582 27.2079 487.935 29.4199C488.611 33.6449 490.352 34.5959 492.554 31.9419C493.239 31.1169 494.756 30.4388 495.926 30.4358C497.097 30.4318 499.403 29.689 501.053 28.784C504.406 26.945 537.116 26.605 540.423 28.375C541.352 28.872 546.93 29.6019 552.818 29.9959C559.892 30.4699 563.91 31.1769 564.658 32.0779C565.28 32.8279 566.269 33.4419 566.856 33.4419C568.452 33.4419 574.529 37.7919 574.539 38.9419C574.544 39.4919 576.796 41.4749 579.545 43.3489C582.294 45.2219 584.543 47.311 584.543 47.99C584.543 48.669 585.683 49.5109 587.077 49.8609C588.471 50.2109 590.122 51.6209 590.747 52.9939C591.373 54.3669 592.82 55.73 593.962 56.024C595.106 56.317 597.365 58.331 598.983 60.5C600.601 62.668 602.229 64.4419 602.6 64.4419C603.433 64.4419 617.036 56.8369 620.748 54.2959C622.238 53.2759 623.813 52.44 624.248 52.438C624.682 52.436 627.737 51.0879 631.037 49.4419C639.693 45.1239 648.449 47.469 648.567 54.136C648.584 55.129 649.259 56.8158 650.066 57.8828C650.873 58.9508 651.534 61.4868 651.534 63.5188C651.534 65.5508 652.206 68.5019 653.028 70.0779C654.94 73.7449 655.032 86.553 653.172 90.242C652.424 91.727 651.553 96.1629 651.238 100.1C650.923 104.037 650.231 108.087 649.698 109.1C649.166 110.113 648.236 113.755 647.632 117.192C647.029 120.63 646.041 126.255 645.438 129.692C644.834 133.13 643.965 136.674 643.506 137.569C643.047 138.464 642.35 140.939 641.957 143.069C641.248 146.908 638.355 153.243 636.798 154.361C635.254 155.472 632.537 160.382 632.537 162.066C632.537 164.459 625.32 178.589 623.799 179.172C623.105 179.438 622.538 180.102 622.538 180.648C622.538 181.768 619.86 188.161 618.436 190.442C614.489 196.761 613.882 201.252 617.405 198.063C621.878 194.015 654.971 194.022 659.021 198.073C661.737 200.789 660.648 203.044 652.534 211.504C648.135 216.091 644.535 220.128 644.535 220.474C644.535 220.821 643.298 221.729 641.786 222.494C640.274 223.258 637.011 225.612 634.536 227.725C628.214 233.124 627.673 233.552 622.586 237.192C620.088 238.979 617.48 240.442 616.792 240.442C616.103 240.442 615.539 240.862 615.539 241.375C615.539 241.888 614.527 242.617 613.289 242.996C612.051 243.374 607.215 245.542 602.541 247.813C595.618 251.176 592.928 251.958 588.042 252.028C582.143 252.112 578.397 254.778 580.163 257.636C580.875 258.789 584.953 258.632 586.18 257.405C591.148 252.436 594.807 263.597 590.058 269.24C587.575 272.192 587.575 272.192 591.589 272.834C596.643 273.642 597.981 276.532 597.077 284.698C596.464 290.242 596.537 290.49 599.066 291.452C617.693 298.535 631.85 328.504 622.75 341.584C618.659 347.463 611.904 353.708 607.04 356.106C599.268 359.937 594.023 362.787 592.542 363.986C589.354 366.563 566.322 368.619 564.217 366.514C563.627 365.924 560.678 365.442 557.662 365.442C551.345 365.442 544.634 362.639 541.543 358.708C538.972 355.44 537.172 356.813 533.032 365.205C531.474 368.36 529.609 371.647 528.886 372.508C527.419 374.256 525.245 392.375 526.094 395.767C526.394 396.963 525.944 399.911 525.095 402.318C524.245 404.724 523.55 408.855 523.55 411.496C523.55 417.957 519.88 421.101 515.881 418.065C515.489 417.767 512.348 408.676 511.557 405.551C509.677 398.122 508.875 398.383 496.657 410.385C486.568 420.295 484.423 423.442 487.756 423.442C489.001 423.442 499.405 432.034 501.36 434.676C502.078 435.647 503.186 436.442 503.822 436.442C505.388 436.442 513.551 444.546 513.551 446.101C513.551 446.784 514.14 447.702 514.857 448.142C515.575 448.582 517.187 450.939 518.439 453.379C519.69 455.82 522.027 459.41 523.632 461.357C525.237 463.304 526.55 465.258 526.55 465.698C526.55 466.138 528.125 469.684 530.049 473.579C531.974 477.475 533.549 481.094 533.549 481.623C533.549 482.152 534.224 483.26 535.049 484.085C535.874 484.91 536.548 486.469 536.548 487.549C536.548 488.629 537.283 490.635 538.182 492.006C540.735 495.902 537.829 557.889 534.921 561.556C534.316 562.318 533.525 565.417 533.163 568.442C532.222 576.301 524.472 596.442 522.387 596.442C521.443 596.442 516.553 601.294 516.546 602.237C516.544 602.625 515.081 604.593 513.296 606.611C507.841 612.779 505.373 615.787 503.815 618.165C501.396 621.857 495.554 620.916 495.554 616.835C495.554 613.813 495.272 613.85 488.254 617.81C483.61 620.431 479.556 624.706 479.556 626.984C479.556 627.156 482.256 628.937 485.555 630.942C494.595 636.434 494.479 645.902 485.305 651.37C483.243 652.599 481.556 654.055 481.556 654.604C481.556 655.499 474.915 666.204 473.592 667.442C473.298 667.717 472.607 668.666 472.057 669.552C471.507 670.437 470.216 672.352 469.188 673.808C467.333 676.435 468.301 682.442 470.58 682.442C471.01 682.442 471.853 683.68 472.454 685.192C473.055 686.704 475.101 690.642 477.003 693.942C482.188 702.939 481.361 711.974 474.707 719.039C461.3 733.275 442.747 726.081 411.887 694.681C401.645 684.259 400.009 676.784 404.976 663.089C407.446 656.279 406.999 655.043 403.125 657.974C402.057 658.781 400.406 659.442 399.456 659.442C398.506 659.442 396.229 660.195 394.398 661.116C392.566 662.036 389.873 663.386 388.413 664.116C386.953 664.845 384.577 665.442 383.132 665.442C381.686 665.442 378.888 666.117 376.915 666.942C374.94 667.767 371.436 668.442 369.128 668.442C366.821 668.442 362.715 669.08 360.003 669.859C346.921 673.619 267.865 676.729 254.084 674.026C251.334 673.487 246.16 673.13 242.585 673.234C232.375 673.531 210.584 671.621 205.181 669.955C202.481 669.123 198.406 668.442 196.124 668.442C193.842 668.442 191.101 667.781 190.033 666.974C188.964 666.165 185.846 665.477 183.093 665.442C180.339 665.407 177.222 664.719 176.153 663.91C175.085 663.103 173.335 662.442 172.262 662.442C170.531 662.442 161.89 658.739 160.596 657.443C159.977 656.822 155.522 654.342 149.599 651.319C145.359 649.155 128.6 633.188 128.6 631.312C128.6 628.882 123.885 630.829 121.532 634.23C120.013 636.424 116.671 639.137 113.359 640.862C106.824 644.27 105.856 645.85 105.355 653.942C104.713 664.277 96.9105 669.956 80.6055 671.957C77.5809 672.329 74.1095 673.265 72.8917 674.037C71.6738 674.81 69.424 675.456 67.8921 675.474C66.3603 675.491 64.2339 676.166 63.167 676.974C62.0992 677.781 60.2135 678.442 58.9766 678.442C57.7388 678.442 56.4313 678.92 56.0704 679.504C55.7094 680.088 54.3326 680.976 53.0118 681.479C51.113 682.201 50.6094 683.119 50.6094 685.858C50.6094 687.764 50.1594 689.602 49.6094 689.942C49.0595 690.282 48.6094 693.839 48.6094 697.846C48.6094 703.714 48.243 705.464 46.7252 706.838C45.6883 707.776 44.5674 709.759 44.2344 711.243C42.7296 717.949 39.5209 719.89 29.8951 719.917C19.4324 719.947 18.5894 719.363 12.9752 708.197C10.9694 704.207 8.71764 699.748 7.97173 698.288C7.22582 696.828 6.6148 694.555 6.6148 693.238C6.6148 691.92 6.11486 690.342 5.50493 689.732C3.09524 687.322 -0.308293 669.76 0.183646 662.272C0.463611 658.001 1.3205 656.157 7.09478 647.393C7.65571 646.542 9.01445 644.292 10.1143 642.393C11.2142 640.495 15.0388 635.921 18.6133 632.229C22.1879 628.537 26.7175 623.812 28.6793 621.729C34.6255 615.416 42.3497 608.442 43.3965 608.442C43.9595 608.442 44.552 603.88 44.7759 597.83C45.1509 587.691 45.2932 587.112 47.9449 584.83C52.9782 580.501 65.8294 581.933 71.0738 587.407C73.9264 590.386 73.9267 590.386 78.0162 586.872C80.2659 584.939 82.7801 582.78 83.605 582.075C84.4299 581.369 88.3537 578.229 92.3252 575.097C99.7803 569.217 100.915 566.261 97.4288 561.798C96.9368 561.169 96.2637 558.244 95.9317 555.298C95.5997 552.352 94.9119 549.411 94.4009 548.761C91.1123 544.573 92.7752 532.442 96.6387 532.442C98.8095 532.442 99.1652 531.404 97.5494 529.788C96.8115 529.05 96.9425 527.718 97.9874 525.338C103.375 513.065 105.129 509.917 109.02 505.535C111.418 502.835 114.773 498.599 116.478 496.121C118.182 493.644 119.95 491.465 120.407 491.279C121.401 490.875 134.944 475.709 138.894 470.575C140.432 468.577 144.793 463.567 148.584 459.442C161.045 445.886 165.822 440.521 167.973 437.666C169.14 436.117 172.345 432.62 175.097 429.896C177.848 427.171 181.035 423.817 182.178 422.442C183.322 421.067 185.571 418.757 187.174 417.309C191.262 413.619 198.591 405.437 198.591 404.563C198.591 404.162 200.196 402.284 202.156 400.388C204.117 398.493 206.629 395.479 207.738 393.692C209.007 391.645 210.556 390.442 211.921 390.441C213.136 390.441 215.794 388.683 217.967 386.441C222.518 381.751 225.217 381.337 226.651 385.11C228.064 388.826 225.042 396.442 222.157 396.442C221.224 396.442 194.726 423.227 186.592 432.392C182.468 437.039 176.002 444.239 172.224 448.392C168.446 452.544 162.821 458.805 159.726 462.303C156.629 465.802 152.315 470.527 150.14 472.803C147.963 475.08 144.273 479.503 141.937 482.632C139.601 485.762 136.77 488.815 135.645 489.417C134.52 490.02 133.599 491.105 133.599 491.828C133.599 492.552 131.462 495.165 128.85 497.635C126.237 500.104 122.75 503.834 121.101 505.923C119.451 508.012 117.645 510.22 117.088 510.831C113.009 515.304 108.68 524.079 108.636 527.96C108.617 529.62 107.498 532.603 106.148 534.589C104.799 536.575 103.93 538.436 104.218 538.724C104.506 539.011 104.883 543.722 105.057 549.193C105.363 558.789 105.482 559.25 108.487 562.325C111.193 565.093 111.602 566.217 111.602 570.895C111.602 573.857 112.233 577.554 113.006 579.111C116.29 585.73 118.603 591.255 118.633 592.552C118.65 593.316 119.325 594.816 120.133 595.883C120.94 596.951 121.601 598.631 121.601 599.618C121.601 600.605 122.95 603.606 124.6 606.288C126.25 608.969 127.6 611.915 127.6 612.834C127.6 613.753 128.275 614.764 129.1 615.08C129.925 615.397 130.599 616.067 130.599 616.57C130.599 619.594 146.727 637.437 151.794 640.018C153.61 640.944 157.134 643.182 159.624 644.993C164.97 648.882 179.229 654.77 181.721 654.119C182.679 653.868 184.28 654.232 185.277 654.928C186.275 655.624 189.567 656.505 192.592 656.886C195.616 657.267 200.116 658.195 202.59 658.949C207.055 660.309 221.102 661.64 233.586 661.887C237.161 661.957 240.658 662.369 241.357 662.801C242.731 663.651 316.379 663.973 317.219 663.133C317.498 662.853 316.793 662.328 315.651 661.966C312.111 660.842 312.845 654.785 317.107 649.942C322.293 644.051 322.438 643.837 323.133 641.069C323.484 639.669 324.402 638 325.173 637.361C325.944 636.721 326.575 635.584 326.575 634.835C326.575 634.085 327.924 631.278 329.574 628.596C331.224 625.915 332.574 623.038 332.574 622.204C332.574 621.37 333.214 620.156 333.996 619.507C334.778 618.858 335.717 616.555 336.083 614.39C336.449 612.224 337.158 610.199 337.66 609.888C338.162 609.578 338.573 608.61 338.573 607.738C338.573 606.866 340.148 602.877 342.073 598.875C343.998 594.873 345.572 591.15 345.572 590.601C345.572 590.053 346.2 588.33 346.968 586.773C348.192 584.289 350.602 579.169 359.414 560.332C360.6 557.797 361.57 555.204 361.57 554.569C361.57 553.934 361.992 552.633 362.507 551.678C363.023 550.723 364.416 547.692 365.603 544.942C366.789 542.192 368.393 538.668 369.165 537.111C369.938 535.554 370.569 532.889 370.569 531.19C370.569 529.49 371.188 527.389 371.942 526.521C372.697 525.652 374.296 521.567 375.495 517.442C376.693 513.317 378.189 509.042 378.82 507.942C379.451 506.842 380.293 503.692 380.692 500.942C381.7 493.991 384.384 485.008 385.575 484.609C386.12 484.425 386.57 482.4 386.573 480.109C386.577 477.817 387.252 474.653 388.073 473.078C388.895 471.502 389.567 468.675 389.567 466.796C389.567 464.916 390.19 461.886 390.952 460.063C391.714 458.239 392.662 454.388 393.058 451.504C393.455 448.62 394.404 445.064 395.167 443.601C395.929 442.139 396.556 439.791 396.56 438.383C396.563 436.976 397.227 434.951 398.034 433.883C398.842 432.816 399.517 429.86 399.534 427.314C399.554 424.454 400.139 422.212 401.065 421.442C403.09 419.762 403.12 414.015 401.101 414.79C400.296 415.099 396.134 415.649 391.852 416.011C387.571 416.374 383.071 417.294 381.853 418.056C380.61 418.834 377.027 419.442 373.686 419.442C367.971 419.442 367.647 419.581 365.588 422.913C360.26 431.535 351.403 436.872 347.1 434.052C345.056 432.713 341.311 432.435 324.86 432.398C313.98 432.374 303.053 431.906 300.578 431.358C298.103 430.809 291.062 429.488 284.931 428.422C272.497 426.259 262.048 421.88 249.085 413.396C246.885 411.957 243.06 409.813 240.585 408.632C231.361 404.23 230.13 401.261 230.153 383.461C230.169 370.718 230.476 367.405 231.873 364.942C232.808 363.292 233.577 360.984 233.581 359.813C233.585 358.394 234.586 357.271 236.586 356.442C238.551 355.628 239.586 354.486 239.586 353.133C239.586 351.006 243.52 344.461 244.806 344.449C245.202 344.445 246.736 341.854 248.213 338.692C250.745 333.272 256.159 325.343 257.827 324.609C258.243 324.425 258.586 323.75 258.589 323.109C258.592 322.467 260.504 319.885 262.839 317.371C265.173 314.856 268.037 311.706 269.203 310.371C272.989 306.036 287.216 292.442 287.967 292.442C289.34 292.442 296.806 285.945 297.736 283.942C300.148 278.746 302.242 276.235 312.124 266.692C317.961 261.055 327.2 253.471 332.655 249.839C338.11 246.207 342.573 242.832 342.573 242.339C342.573 241.846 343.142 241.442 343.838 241.442C345.738 241.442 352.957 237.398 353.871 235.821C354.311 235.063 356.245 234.442 358.17 234.442C362.187 234.442 367.591 231.973 367.526 230.166C367.502 229.493 366.834 227.142 366.041 224.942C364.107 219.574 364.146 205.587 366.102 203.001C367.044 201.755 367.572 198.711 367.576 194.501C367.58 190.639 368.196 186.764 369.075 185.078C369.897 183.502 370.569 180.705 370.569 178.862C370.569 177.018 371.311 173.954 372.217 172.053C373.749 168.842 373.749 168.479 372.217 166.948C371.311 166.041 370.569 164.863 370.569 164.33C370.569 163.493 367.019 157.891 365.57 156.442C364.808 155.68 362.823 152.377 360.462 147.942C359.29 145.742 356.706 141.692 354.718 138.942C346.037 126.928 350.805 120.282 365.07 124.51C377.603 128.226 382.738 126.095 383.849 116.719C384.191 113.83 385.577 109.803 387.012 107.529C388.417 105.303 389.57 102.685 389.573 101.712C389.577 100.738 390.252 98.6529 391.073 97.0779C391.895 95.5019 392.574 93.2519 392.582 92.0779C392.59 90.9029 393.236 88.8169 394.018 87.4419C394.799 86.0669 396.61 82.6919 398.043 79.9419C399.476 77.1919 401.004 74.2669 401.439 73.4419C404.128 68.3339 405.565 65.1579 405.565 64.3199C405.565 63.0649 409.711 57.1689 411.315 56.1419C412.002 55.7019 412.564 54.2878 412.564 52.9988C412.564 51.7098 413.239 50.3969 414.064 50.0799C414.889 49.7639 415.564 48.4658 415.564 47.1958C415.564 45.9258 416.352 44.1429 417.314 43.2349C420.203 40.5059 421.562 38.5989 421.586 37.2339C421.599 36.5229 423.174 34.2048 425.086 32.0818C426.997 29.9578 428.562 27.7249 428.562 27.1189C428.562 25.7139 436.634 17.4459 438.019 17.4309C439.919 17.4119 447.56 9.32599 447.56 7.33499C447.56 6.25999 448.348 5.08891 449.31 4.73391C450.272 4.37791 451.338 3.67282 451.68 3.16482C453.253 0.826822 467.325 -0.356998 472.076 1.449ZM457.286 12.283C455.761 13.289 453.363 15.8739 451.958 18.0269C450.552 20.1799 447.638 23.0448 445.481 24.3928C443.325 25.7408 441.561 27.1049 441.561 27.4239C441.561 27.7439 439.35 30.323 436.648 33.156C433.946 35.989 431.134 39.4188 430.399 40.7788C429.664 42.1388 426.699 47.161 423.813 51.94C420.926 56.72 418.564 61.0059 418.564 61.4649C418.564 61.9239 417.973 62.8939 417.253 63.6209C416.531 64.3469 414.903 67.1919 413.634 69.9419C412.365 72.6919 410.954 75.6169 410.496 76.4419C407.498 81.8439 403.024 91.8739 402.022 95.4419C401.636 96.8169 400.025 100.736 398.443 104.15C396.861 107.565 395.566 111.222 395.566 112.278C395.566 113.333 394.891 114.757 394.066 115.442C393.242 116.127 392.566 118.026 392.566 119.663C392.566 121.3 391.839 124.173 390.95 126.047C388.994 130.169 390.28 132.442 394.566 132.442C396.081 132.442 397.881 133.117 398.566 133.942C399.251 134.767 400.182 135.442 400.637 135.442C401.092 135.442 403.56 136.855 406.119 138.583C411.376 142.131 412.495 141.588 412.584 135.442C412.612 133.517 413.278 130.817 414.064 129.442C414.85 128.067 415.508 125.535 415.528 123.814C415.547 122.094 416.185 120.172 416.942 119.542C417.701 118.912 418.569 117.167 418.87 115.663C419.39 113.063 425.482 102.123 427.575 100.029C428.118 99.4858 428.562 98.448 428.562 97.722C428.562 96.996 429.79 94.4989 431.292 92.1719C432.792 89.8459 434.479 87.2308 435.041 86.3618C435.602 85.4918 437.033 83.2418 438.222 81.3618C446.198 68.7358 454.143 62.8259 457.578 66.9649C458.87 68.5209 456.306 76.4419 454.511 76.4419C454.102 76.4419 452.278 78.8049 450.458 81.6919C448.637 84.5789 445.738 88.7419 444.016 90.9419C440.967 94.8389 431.562 110.003 431.562 111.024C431.562 111.305 429.987 114.899 428.062 119.01C426.137 123.122 424.563 127.546 424.563 128.841C424.563 130.137 423.944 131.71 423.188 132.338C421.793 133.496 420.409 142.878 421.294 145.183C422.204 147.555 423.552 146.434 428.201 139.442C430.761 135.592 433.239 132.442 433.709 132.442C434.177 132.442 434.562 131.867 434.562 131.164C434.562 129.976 436.644 127.745 439.264 126.126C443.469 123.526 445.551 133.33 441.561 136.942C440.461 137.937 439.561 139.125 439.561 139.582C439.561 140.99 433.286 150.775 430.351 153.942C428.822 155.592 427.569 157.954 427.567 159.192C427.564 160.43 427.102 161.442 426.542 161.442C425.98 161.442 424.983 162.68 424.325 164.192C423.668 165.704 422.137 168.292 420.924 169.942C418.979 172.585 413.248 184.16 405.327 201.442C402.523 207.561 400.378 215.442 401.517 215.442C402.383 215.442 405.565 212.073 405.565 211.158C405.565 209.654 410.447 203.55 414.563 199.906C420.923 194.277 420.804 194.421 423.607 188.936C425.006 186.197 427.13 183.469 428.327 182.872C430.702 181.688 433.47 178.354 435.328 174.442C435.98 173.067 439 168.451 442.038 164.184C445.075 159.917 447.56 155.81 447.56 155.057C447.56 154.303 448.235 153.127 449.06 152.442C449.885 151.757 450.559 150.379 450.559 149.379C450.559 148.378 450.97 147.306 451.472 146.995C452.32 146.472 454.668 141.782 457.383 135.192C458.74 131.899 459.821 131.781 463.654 134.51C467.313 137.117 467.297 139.028 463.558 145.942C461.908 148.992 460.558 151.739 460.558 152.046C460.558 152.999 467.574 148.325 471.385 144.833C473.378 143.008 476.48 140.721 478.281 139.751C480.082 138.781 481.556 137.655 481.556 137.249C481.556 136.181 486.598 131.237 489.776 129.187C493.388 126.859 500.521 117.178 503.212 110.954C506.981 102.235 513.69 103.327 512.061 112.394C510.66 120.185 499.566 137.34 495.846 137.47C495.41 137.485 493.929 139.031 492.554 140.906C491.179 142.78 489.043 144.783 487.805 145.357C485.154 146.585 484.696 148.986 487.303 147.985C488.264 147.616 491.301 146.849 494.052 146.279C496.802 145.709 500.05 144.613 501.268 143.843C502.486 143.072 504.342 142.442 505.394 142.442C506.446 142.442 507.867 141.767 508.552 140.942C509.237 140.117 510.536 139.442 511.439 139.442C513.361 139.442 520.238 135.898 522.28 133.855C523.057 133.078 524.561 132.442 525.621 132.442C526.682 132.442 527.55 131.969 527.55 131.39C527.55 130.811 528.9 129.867 530.549 129.292C532.199 128.717 533.549 127.84 533.549 127.344C533.549 126.848 534.08 126.442 534.728 126.442C535.376 126.442 537.35 124.867 539.112 122.942C546.051 115.366 549.547 118.41 549.547 132.028C549.547 139.118 550.001 143.084 551.041 145.078C551.862 146.653 552.537 149.574 552.541 151.57C552.544 153.567 553.221 155.756 554.046 156.442C554.871 157.127 555.546 158.702 555.546 159.942C555.546 161.182 556.221 162.757 557.046 163.442C557.871 164.127 558.546 165.1 558.546 165.605C558.546 167.897 565.441 176.157 568.815 177.908C571.249 179.17 571.249 179.17 571.927 164.056C572.561 149.93 572.761 148.786 574.988 146.552C579.506 142.017 582.861 146.317 581.533 154.942C580.548 161.34 581.279 162.487 583.801 158.501C589.378 149.694 593.369 168.205 589.077 182.969C588.198 185.995 587.542 192.126 587.542 197.326C587.542 202.77 586.97 207.91 586.112 210.172C585.326 212.245 584.508 217.873 584.293 222.677C583.903 231.413 583.903 231.413 586.348 227.312C587.693 225.057 588.902 221.823 589.035 220.125C589.192 218.14 590.004 216.715 591.313 216.131C592.722 215.502 593.549 213.882 594.003 210.856C594.362 208.454 595.034 206.255 595.495 205.97C596.769 205.183 600.541 197.592 600.541 195.815C600.541 194.955 601.161 193.056 601.919 191.596C603.697 188.169 605.423 181.598 606.683 173.456C607.235 169.889 608.216 166.335 608.863 165.558C610.879 163.138 613.367 121.87 611.604 120.107C610.003 118.506 610.324 112.865 612.099 111.392C617.935 106.548 623.72 120.864 621.582 134.864C620.987 138.757 620.269 146.65 619.987 152.403C619.682 158.618 618.876 164.063 618.003 165.816C616.529 168.77 616.8 170.631 618.449 168.875C620.772 166.401 625.356 156.138 625.972 152.036C626.533 148.293 627.213 147.144 629.599 145.91C631.486 144.934 632.55 143.595 632.572 142.166C632.592 140.943 633.251 138.817 634.037 137.442C634.823 136.067 635.481 133.039 635.501 130.712C635.52 128.386 636.175 124.786 636.956 122.712C637.737 120.639 638.671 116.021 639.033 112.452C639.394 108.882 640.105 105.461 640.613 104.85C641.12 104.238 641.795 100.858 642.114 97.3399C642.432 93.8209 643.144 90.0059 643.692 88.8609C645.807 84.4599 643.237 62.182 640.398 60.292C638.406 58.966 630.499 60.3329 627.402 62.5379C625.933 63.5849 624.429 64.4419 624.064 64.4419C623.698 64.4419 621.517 65.6929 619.218 67.2229C616.92 68.7519 613.801 70.6279 612.289 71.3919C609.142 72.9809 608.486 77.532 611.039 80.085C611.864 80.91 612.542 82.79 612.545 84.263C612.549 85.737 613.154 88.0968 613.891 89.5088C617.526 96.4738 616.54 101.809 611.722 101.252C608.81 100.915 603.716 92.3469 603.598 87.5869C603.566 86.2919 602.235 83.2969 600.638 80.9309C599.042 78.5649 597.453 75.7399 597.108 74.6529C596.101 71.4789 579.503 55.5288 566.824 45.5498C562.689 42.2958 560.774 41.4419 557.61 41.4419C555.413 41.4419 551.689 40.798 549.332 40.01C542.291 37.658 507.072 37.4169 502.649 39.6919C500.777 40.6549 498.627 41.4419 497.872 41.4419C495.646 41.4419 482.356 48.3349 480.956 50.2149C479.779 51.7939 479.428 51.811 476.862 50.409C472.878 48.231 472.767 45.078 476.541 41.303C479.681 38.163 480.275 28.6219 477.439 26.8699C476.953 26.5699 476.556 25.3309 476.556 24.1179C476.556 14.3259 464.975 7.21299 457.286 12.283ZM365.124 136.592C365.561 137.335 367.602 140.503 369.657 143.633C371.714 146.763 373.67 150.184 374.003 151.234C374.336 152.285 376.625 155.74 379.088 158.913C381.552 162.087 383.568 165.097 383.568 165.605C383.568 166.112 384.026 167.07 384.586 167.734C388.572 172.462 389.569 173.88 389.584 174.845C389.672 180.418 403.549 182.852 405.815 177.692C406.48 176.18 407.595 174.582 408.294 174.142C408.992 173.702 409.565 172.465 409.565 171.392C409.565 170.32 410.045 169.442 410.634 169.442C412.197 169.442 411.323 165.283 409.565 164.356C408.74 163.921 405.973 162.581 403.417 161.377C400.86 160.173 398.189 158.105 397.48 156.781C396.771 155.457 394.588 153.42 392.629 152.254C387.803 149.383 386.567 147.65 386.567 143.751C386.567 141.157 386.153 140.442 384.65 140.442C383.597 140.442 382.581 139.98 382.393 139.416C382.205 138.852 378.906 138.131 375.06 137.814C371.216 137.497 367.228 136.789 366.199 136.24C364.733 135.458 364.501 135.534 365.124 136.592ZM528.721 142.449C524.692 145.195 520.749 147.442 519.958 147.442C519.168 147.442 516.129 148.792 513.205 150.442C510.282 152.092 507.281 153.442 506.537 153.442C505.792 153.442 503.355 154.325 501.119 155.405C496.168 157.795 479.487 160.598 474.226 159.924C470.663 159.468 453.685 169.053 453.584 171.578C453.535 172.812 462.267 173.503 464.961 172.479C468.489 171.137 478.127 171.142 480.641 172.487C484.684 174.652 491.638 182.611 492.233 185.756C492.564 187.508 493.224 189.702 493.698 190.631C494.188 191.592 494.176 192.558 493.67 192.87C493.181 193.173 492.494 194.946 492.145 196.811C490.348 206.389 471.935 209.899 467.945 201.424C464.043 193.134 462.667 189.322 463.136 188.1C463.513 187.117 462.516 186.531 459.704 186.081C454.595 185.264 450.19 180.408 450.799 176.262C451.026 174.711 450.834 173.442 450.37 173.442C448.899 173.442 441.141 182.151 439.073 186.123C437.979 188.223 435.843 191.697 434.324 193.842C431.333 198.065 430.956 201.301 432.542 209.116C433.079 211.77 433.794 216.153 434.127 218.855C434.794 224.27 435.394 224.987 447.364 234.683C451.321 237.889 454.726 239.98 455.074 239.418C456.49 237.126 462.869 235.355 465.9 236.412C467.526 236.978 470.423 237.442 472.337 237.442C475.909 237.442 480.216 239.603 486.787 244.692C490.878 247.86 492.554 247.625 492.554 243.883C492.554 241.514 492.773 241.442 499.98 241.442C508.262 241.442 512.354 244.204 510.957 248.849C509.952 252.189 508.955 252.744 503.088 253.231C496.58 253.77 496.449 254.06 501.053 257.735C502.978 259.271 504.553 260.983 504.553 261.541C504.553 263.688 511.013 268.537 513.052 267.92C514.152 267.587 516.98 267.058 519.338 266.744C522.083 266.379 523.982 265.503 524.622 264.308C525.245 263.144 526.713 262.442 528.526 262.442C530.124 262.442 531.709 261.992 532.049 261.442C532.389 260.892 533.432 260.442 534.366 260.442C535.301 260.442 538.917 258.53 542.403 256.192C545.889 253.854 549.457 251.492 550.332 250.942C551.206 250.392 553.045 248.655 554.416 247.082C555.787 245.509 557.535 243.596 558.299 242.832C560.184 240.946 564.545 241.023 564.545 242.942C564.545 245.021 567.774 244.823 569.652 242.628C572.653 239.124 577.111 210.358 575.388 205.627C574.924 204.354 574.544 202.018 574.544 200.436C574.544 198.854 574.094 197.282 573.544 196.942C572.994 196.602 572.544 195.466 572.544 194.418C572.544 192.562 568.898 189.756 567.849 190.805C567.56 191.094 568.273 194.356 569.434 198.054C570.595 201.753 571.544 205.635 571.544 206.682C571.544 207.728 572.219 209.26 573.044 210.085C576.772 213.813 572.531 218.954 566.56 217.945C563.722 217.465 562.507 217.678 561.885 218.765C558.635 224.447 547.505 225.692 542.535 220.93C530.057 208.974 542.355 188.112 561.005 189.595C566.348 190.02 566.65 189.318 562.459 186.222C558.335 183.177 549.547 172.363 549.547 170.335C549.547 169.446 548.26 165.844 546.687 162.33C545.113 158.817 543.55 153.501 543.214 150.519C542.877 147.536 542.139 144.633 541.575 144.069C541.01 143.504 540.548 141.782 540.548 140.242C540.548 136.01 537.273 136.622 528.721 142.449ZM379.568 181.32C379.568 182.353 378.893 184.813 378.068 186.788C377.244 188.762 376.554 192.305 376.536 194.66C376.519 197.015 375.845 199.816 375.037 200.883C372.939 203.657 372.991 227.093 375.101 229.883C376.05 231.138 376.568 234.175 376.568 238.474C376.568 242.132 377.219 247.287 378.014 249.93C378.81 252.574 379.766 257.258 380.138 260.339C380.51 263.421 381.154 266.392 381.569 266.942C381.984 267.492 382.659 269.067 383.069 270.442C383.479 271.817 385.109 275.576 386.69 278.795C388.272 282.014 389.567 285.389 389.568 286.295C389.569 287.201 391.819 292.399 394.567 297.847C397.316 303.295 399.566 308.781 399.566 310.038C399.566 311.295 400.004 312.595 400.539 312.925C401.858 313.741 404.213 319.033 405.534 324.15C406.131 326.464 407.056 328.628 407.591 328.959C408.126 329.289 408.584 331.221 408.608 333.251C408.687 339.889 411.097 346.967 413.2 346.747C417.069 346.342 422.196 343.496 423.523 341.017C425.439 337.435 424.031 336.577 421.504 339.789C417.007 345.509 414.597 340.897 414.708 326.779C414.771 318.777 411.969 304.442 410.343 304.442C409.914 304.442 409.565 303.738 409.565 302.877C409.565 301.32 407.996 297.161 402.468 284.063C400.872 280.279 399.552 276.454 399.534 275.563C399.517 274.671 398.842 273.068 398.034 272.001C397.227 270.933 396.566 268.446 396.566 266.473C396.566 264.501 395.87 261.892 395.019 260.677C391.953 256.3 393.413 246.006 397.151 245.641C401.356 245.231 402.048 246.415 404.343 257.942C405.438 263.442 406.903 269.517 407.599 271.442C408.295 273.367 409.302 276.18 409.836 277.692C410.37 279.204 411.167 280.442 411.608 280.442C414.139 280.442 416.359 262.313 414.228 259.037C413.479 257.885 412.552 255.255 412.17 253.192C411.787 251.13 411.095 249.442 410.632 249.442C410.17 249.442 409.5 247.305 409.142 244.692C408.536 240.266 406.836 231.767 405.91 228.533C405.312 226.447 399.969 231.907 397.271 237.36C390.455 251.14 381.652 251.26 382.925 237.554C383.252 234.041 384.146 230.209 384.912 229.04C385.679 227.87 386.623 225.462 387.013 223.689C387.402 221.916 388.136 220.208 388.644 219.894C389.152 219.581 389.582 218.563 389.601 217.633C389.62 216.703 390.504 214.142 391.567 211.942C392.63 209.742 393.513 206.921 393.532 205.673C393.551 204.425 394.882 200.938 396.491 197.923C399.415 192.442 399.416 192.442 396.38 192.442C392.961 192.442 384.94 186.374 382.615 182.03C380.989 178.992 379.568 178.661 379.568 181.32ZM473.164 185.024C471.254 190 474.036 195.442 478.49 195.442C483.589 195.442 484.422 191.527 480.563 185.692C478.816 183.05 474.085 182.623 473.164 185.024ZM551.374 203.88C545.282 209.578 548.255 215.899 554.485 210.495C555.72 209.423 557.152 208.407 557.667 208.235C558.182 208.063 558.703 206.577 558.825 204.932C559.126 200.86 555.197 200.305 551.374 203.88ZM630.537 206.442C629.712 206.975 628.025 207.418 626.787 207.427C624.249 207.444 623.753 209.203 626.038 210.08C632.069 212.395 625.267 220.297 616.284 221.412C612.74 221.851 608.901 222.713 607.755 223.326C606.609 223.94 604.363 224.442 602.762 224.442C599.968 224.442 597.587 226.253 596.186 229.442C595.824 230.267 594.426 232.742 593.079 234.942C590.015 239.945 589.968 240.747 592.792 239.91C597.392 238.548 607.54 233.41 607.54 232.443C607.54 231.893 608.638 231.442 609.981 231.442C611.323 231.442 612.672 231.036 612.978 230.54C613.285 230.045 615.986 228.012 618.983 226.022C621.979 224.033 625.018 221.835 625.734 221.138C626.45 220.44 628.837 218.563 631.037 216.966C636.088 213.299 642.535 207.285 642.535 206.239C642.535 205.105 632.337 205.278 630.537 206.442ZM417.314 213.912C414.477 217.812 414.791 227.694 417.637 224.077C418.859 222.523 420.704 221.442 422.136 221.442C425.226 221.442 425.637 215.724 422.734 213.097C420.311 210.904 419.4 211.041 417.314 213.912ZM425.415 233.924C425.15 234.189 425.531 237.676 426.261 241.674C426.992 245.671 427.805 250.348 428.069 252.066C428.334 253.784 429.225 256.484 430.05 258.066C433.472 264.63 429.673 279.284 426.063 273.442C423.581 269.425 419.39 289.24 421.232 296.284C422.056 299.435 424.556 298.994 424.597 295.692C424.616 294.18 425.5 291.142 426.563 288.942C427.625 286.742 428.509 284.332 428.528 283.587C428.547 282.842 429.912 280.232 431.562 277.787C433.211 275.342 434.562 272.983 434.562 272.546C434.562 270.986 438.018 264.838 442.753 257.976C448.567 249.55 448.695 248.066 443.81 245.554C441.748 244.493 438.739 242.234 437.124 240.534C435.509 238.833 433.658 237.442 433.01 237.442C432.362 237.442 430.688 236.542 429.289 235.442C426.593 233.321 426.18 233.159 425.415 233.924ZM364.57 244.233C358.524 246.333 341.573 255.864 341.573 257.164C341.573 257.466 343.545 257.443 345.956 257.113C351.39 256.368 360.444 259.294 365.761 263.513C367.792 265.124 369.908 266.442 370.463 266.442C371.742 266.442 370.768 257.385 368.918 252.066C368.177 249.935 367.57 247.374 367.57 246.375C367.57 244.21 366.61 243.524 364.57 244.233ZM459.716 249.962C457.98 251.424 456.559 253.251 456.559 254.022C456.559 254.794 454.984 257.488 453.059 260.01C451.134 262.532 449.56 265.041 449.56 265.585C449.56 266.13 448.465 268.01 447.128 269.763C445.791 271.516 444.209 274.074 443.612 275.446C443.015 276.819 441.409 279.925 440.044 282.349C438.678 284.773 437.561 287.6 437.561 288.631C437.561 289.661 436.886 290.764 436.061 291.08C431.143 292.968 436.362 296.52 446.902 298.46C449.565 298.95 452.29 299.804 452.957 300.358C454.318 301.487 482.728 302.071 484.452 301.006C486.693 299.621 485.424 298.705 480.45 298.116C474.587 297.421 472.557 296.108 472.557 293.011C472.557 288.083 474.685 286.978 485.211 286.442C493.536 286.018 495.085 285.675 495.367 284.192C495.551 283.229 495.105 282.441 494.377 282.441C493.649 282.44 490.409 280.603 487.177 278.359C479.934 273.331 471.003 268.442 469.06 268.442C466.485 268.442 464.153 262.567 465.631 259.806C468.016 255.35 473.976 256.933 487.055 265.494C499.3 273.509 501.61 273.065 493.004 264.348C479.379 250.546 480.036 251.044 473.881 249.861C470.678 249.245 466.892 248.418 465.466 248.023C463.462 247.467 462.159 247.907 459.716 249.962ZM552.306 262.5C547.747 265.887 546.801 267.043 547.701 268.127C548.653 269.275 549.103 269.249 550.519 267.967C551.446 267.128 552.988 266.442 553.946 266.442C556.597 266.442 558.717 263.756 558.363 260.845C558.046 258.239 558.045 258.239 552.306 262.5ZM500.553 273.824C500.553 274.649 501.003 275.602 501.553 275.942C502.103 276.282 502.553 275.885 502.553 275.06C502.553 274.235 502.103 273.282 501.553 272.942C501.003 272.602 500.553 272.999 500.553 273.824ZM360.571 274.442C360.571 274.992 361.048 275.442 361.629 275.442C362.211 275.442 362.41 274.992 362.07 274.442C361.73 273.892 361.254 273.442 361.011 273.442C360.768 273.442 360.571 273.892 360.571 274.442ZM334.645 277.919C332.209 279.197 328.464 280.524 326.321 280.867C324.179 281.209 320.104 283.054 317.265 284.966C314.427 286.878 311.648 288.449 311.09 288.458C310.533 288.467 308.554 289.817 306.691 291.458C304.829 293.099 302.878 294.442 302.353 294.442C301.432 294.442 299.652 295.923 291.537 303.442C289.46 305.367 285.375 308.967 282.461 311.442C275.624 317.246 270.582 322.373 270.582 323.519C270.582 324.017 269.232 325.715 267.582 327.292C265.932 328.868 264.583 330.415 264.583 330.73C264.583 331.044 262.861 333.92 260.757 337.121C258.652 340.323 254.941 346.491 252.508 350.829C250.075 355.167 246.847 359.639 245.335 360.767C243.823 361.895 242.585 363.578 242.585 364.508C242.585 365.437 241.91 366.757 241.085 367.442C236.093 371.586 239.781 397.442 245.364 397.442C246.531 397.442 247.845 398.082 248.285 398.864C249.497 401.017 258.254 407.442 259.979 407.442C260.812 407.442 263.117 408.543 265.1 409.889C274.631 416.358 319.353 423.984 319.655 419.192C319.698 418.505 319.67 415.217 319.593 411.886C319.516 408.555 320.149 403.83 321 401.386C321.85 398.942 322.552 395.116 322.56 392.883C322.568 390.651 323.236 387.951 324.043 386.883C324.851 385.816 325.533 383.817 325.56 382.442C325.587 381.067 326.925 377.467 328.535 374.442C330.144 371.417 332.113 367.592 332.911 365.942C333.709 364.292 335.536 361.391 336.97 359.494C338.405 357.598 339.239 355.709 338.825 355.296C337.803 354.276 323.301 353.875 321.765 354.825C315.973 358.405 304.578 343.852 304.578 332.876C304.578 323.533 311.944 320.417 313.076 329.281C313.691 334.091 316.965 342.376 318.313 342.529C319.301 342.641 328.998 343.073 338.833 343.443C344.927 343.672 346.981 343.381 348.41 342.088C349.411 341.183 350.763 340.442 351.416 340.442C352.068 340.442 354.957 339.135 357.836 337.537C360.715 335.939 364.563 334.322 366.387 333.943C368.212 333.564 370.911 332.624 372.386 331.854C373.862 331.084 376.559 330.452 378.379 330.448C381.691 330.442 381.691 330.442 380.992 325.692C380.204 320.326 377 309.685 375.676 308.034C375.194 307.433 374.464 305.374 374.053 303.457C373.2 299.472 370.911 295.538 368.337 293.635C367.365 292.917 366.57 291.54 366.57 290.576C366.57 287.03 364.176 285.047 361.734 286.572C358.836 288.382 354.735 286.223 352.454 281.684C348.884 274.582 343.264 273.393 334.645 277.919ZM523.55 276.942C521.626 277.683 518.41 278.324 516.405 278.366C511.877 278.46 510.232 280.207 499.375 296.449C488.875 312.157 488.984 312.63 503.276 313.553C512.91 314.176 512.91 314.176 520.48 306.382C531.548 294.988 536.881 287.844 536.881 284.419C536.881 282.829 537.481 281.298 538.215 281.016C540.796 280.026 539.505 277.915 535.565 276.685C530.653 275.152 528.054 275.208 523.55 276.942ZM556.046 278.614C547.735 280.19 547.209 282.13 554.883 282.906C557.456 283.167 560.492 283.878 561.628 284.487C563.527 285.502 563.603 285.42 562.565 283.48C561.944 282.318 561.715 280.483 562.058 279.404C562.401 278.325 562.312 277.492 561.862 277.554C561.413 277.615 558.796 278.092 556.046 278.614ZM574.044 285.349C569.045 285.942 569.044 285.942 572.129 288.942C578.838 295.468 568.313 302.115 560.739 296.136C555.67 292.133 539.767 294.91 539.582 299.83C539.564 300.319 537.862 302.613 535.799 304.929C523.855 318.339 522.456 320.442 525.479 320.442C526.539 320.442 528.065 321.101 528.87 321.906C535.516 328.553 551.279 327.743 560.81 320.265C569.019 313.824 581.543 300.201 581.543 297.711C581.543 297.148 582.218 296.127 583.043 295.442C583.868 294.757 584.545 293.465 584.548 292.57C584.552 291.674 585.2 289.704 585.989 288.192C586.778 286.68 587.113 285.41 586.733 285.371C581.803 284.862 578.199 284.856 574.044 285.349ZM379.643 290.696C379.602 291.66 380.468 294.128 381.568 296.181C384.069 300.847 384.069 298.344 381.568 292.942C380.55 290.742 379.684 289.731 379.643 290.696ZM587.792 306.022C583.89 311.375 583.758 313.037 587.033 315.613C590.702 318.499 596.298 328.641 597.073 333.806C597.444 336.282 598.369 338.546 599.127 338.837C600.079 339.202 600.318 340.301 599.901 342.389C598.949 347.154 601.519 347.144 607.918 342.358C611.009 340.046 613.539 337.599 613.539 336.92C613.539 336.242 614.265 335.084 615.152 334.348C618.688 331.412 614.602 317.957 608.289 311.747C602.115 305.676 600.573 304.482 596.942 302.965C591.883 300.851 591.46 300.992 587.792 306.022ZM386.567 309.205C386.567 310.86 387.239 313.502 388.061 315.078C388.882 316.653 389.557 318.925 389.561 320.127C389.564 321.329 390.068 323.579 390.681 325.127C391.294 326.675 392.011 334.017 392.274 341.442C392.827 357.05 392.581 356.428 397.229 353.924C402.2 351.246 403.362 348.337 401.238 343.882C400.318 341.952 399.566 338.915 399.566 337.131C399.566 335.347 398.956 332.999 398.212 331.915C397.467 330.83 396.595 328.817 396.275 327.442C395.235 322.977 391.856 314.331 390.697 313.172C390.075 312.55 389.567 311.287 389.567 310.364C389.567 309.442 388.892 308.127 388.067 307.442C386.79 306.382 386.567 306.645 386.567 309.205ZM431.562 315.942C431.562 327.002 432.299 327.55 440.964 322.942C443.55 321.567 446.139 320.442 446.718 320.442C447.297 320.442 449.769 319.092 452.214 317.442C454.659 315.792 457.124 314.442 457.691 314.442C461.991 314.442 456.577 311.792 450.978 311.156C447.174 310.724 443.16 309.973 442.061 309.488C439.384 308.309 433.473 306.442 432.413 306.442C431.945 306.442 431.562 310.717 431.562 315.942ZM477.556 315.29C477.556 315.756 472.619 318.702 466.587 321.837C460.554 324.972 455.353 327.966 455.03 328.49C454.706 329.013 453.709 329.442 452.814 329.442C451.92 329.442 450.259 330.286 449.124 331.318C447.989 332.349 444.604 334.092 441.603 335.19C435.4 337.461 434.288 339.007 437.879 340.373C443.106 342.36 445.497 351.297 442.028 355.883C441.056 357.17 440.561 360.236 440.561 364.974C440.561 368.907 439.891 374.333 439.072 377.033C438.253 379.733 437.575 383.067 437.566 384.442C437.556 385.817 436.884 388.217 436.071 389.775C435.258 391.333 434.136 394.309 433.577 396.388C433.017 398.467 431.435 401.824 430.06 403.849C428.686 405.874 427.562 407.95 427.562 408.462C427.562 415.123 416.071 421.633 413.159 416.623C412.195 414.963 410.185 420.763 408.889 428.942C408.54 431.142 407.702 433.842 407.027 434.942C404.047 439.798 404.525 447.77 407.928 449.958C416.097 455.21 409.563 478.938 401.232 474.275C398.764 472.894 396.773 474.789 395.962 479.292C395.601 481.3 394.83 483.541 394.247 484.273C393.664 485.005 392.853 487.705 392.445 490.273C391.599 495.595 389.05 504.974 387.641 507.942C387.119 509.042 386.495 511.517 386.254 513.442C385.781 517.243 384.148 522.308 381.955 526.776C381.191 528.334 380.283 531.372 379.94 533.526C379.595 535.68 378.92 537.442 378.44 537.442C376.784 537.442 377.574 541.375 379.431 542.369C385.002 545.35 385.241 562.665 379.778 567.546C376.234 570.713 373.409 571.113 369.572 568.989C366.943 567.534 364.57 568.461 364.57 570.944C364.57 573.006 359.499 583.442 358.498 583.442C357.988 583.442 357.571 584.553 357.571 585.911C357.571 588.432 354.089 596.005 352.468 597.006C351.975 597.311 351.569 598.546 351.565 599.751C351.562 600.956 350.665 603.292 349.572 604.942C348.479 606.592 347.568 609.067 347.547 610.442C347.526 611.817 346.848 613.816 346.04 614.883C345.233 615.951 344.559 617.751 344.541 618.883C344.524 620.016 343.848 621.816 343.041 622.883C342.234 623.951 341.573 625.583 341.573 626.511C341.573 627.438 340.898 628.757 340.073 629.442C339.248 630.127 338.573 631.741 338.573 633.03C338.573 634.318 337.254 636.875 335.642 638.712C334.03 640.548 332.422 643.199 332.07 644.603C331.718 646.006 330.113 648.597 328.503 650.36C326.892 652.123 325.575 654.143 325.575 654.849C325.575 655.555 324.675 656.947 323.575 657.942C319.318 661.795 320.862 662.794 329.824 661.983C334.362 661.572 342.123 661.074 347.072 660.877C356.77 660.489 359.435 660.099 362.255 658.65C363.253 658.137 366.777 657.448 370.086 657.12C376.835 656.449 389.279 652.899 391.567 650.992C392.392 650.304 397.116 648.508 402.065 647.001C407.015 645.493 412.414 643.676 414.064 642.962C415.714 642.248 418.11 641.348 419.391 640.961C421.901 640.203 439.094 632.024 441.561 630.415C442.386 629.877 444.185 628.988 445.56 628.439C446.935 627.89 448.931 626.935 449.996 626.317C451.061 625.698 457.36 622.416 463.994 619.022C470.628 615.628 479.206 610.936 483.055 608.595C486.905 606.254 490.954 603.8 492.054 603.143C493.154 602.485 495.5 600.923 497.268 599.671C499.035 598.419 502.622 596.995 505.238 596.506C507.854 596.018 510.178 595.064 510.403 594.388C510.629 593.712 512.236 591.535 513.977 589.55C519.432 583.33 522.673 576.433 524.127 567.942C524.503 565.742 525.181 563.472 525.633 562.897C526.085 562.322 526.769 555.894 527.154 548.612C527.538 541.331 528.234 535.137 528.7 534.848C530.923 533.475 528.221 520.442 525.713 520.442C525.333 520.442 523.928 518.672 522.591 516.508C521.254 514.344 519.387 512.206 518.442 511.758C517.498 511.309 513.82 508.242 510.27 504.942C506.719 501.642 501.924 497.367 499.613 495.442C490.389 487.757 482.555 479.149 482.555 476.698C482.555 476.172 481.312 473.987 479.794 471.842C478.275 469.697 476.138 466.226 475.044 464.129C473.056 460.316 473.057 460.316 472.532 465.355C470.935 480.66 456.559 474.417 456.559 458.418C456.559 447.409 458.474 445.002 464.711 448.176C469.057 450.389 469.057 450.389 469.357 444.317C469.566 440.094 469.185 437.524 468.107 435.878C465.636 432.107 466.183 427.098 469.617 422.008C471.301 419.514 472.938 415.779 473.256 413.708C473.574 411.637 474.257 409.403 474.774 408.744C475.468 407.86 475.034 407.669 473.115 408.017C466.818 409.159 460.469 399.25 465.058 395.442C465.883 394.757 466.557 392.942 466.557 391.408C466.557 388.205 471.919 382.983 474.278 383.889C475.071 384.193 476.144 384.442 476.663 384.442C477.181 384.442 478.052 385.616 478.597 387.051C479.912 390.509 482.07 388.823 482.924 383.673C484.731 372.769 495.197 364.189 497.159 372.004C497.838 374.711 495.314 381.567 492.9 383.57C492.16 384.184 491.554 386.006 491.554 387.619C491.554 390.206 489.731 395.308 486.384 402.093C483.865 407.2 486.493 406.459 492.113 400.48C495.381 397.004 499.628 392.505 501.553 390.481C505.054 386.799 506.289 376.176 503.881 370.442C503.535 369.617 503.17 367.572 503.07 365.897C502.971 364.222 501.179 359.947 499.09 356.397C497.001 352.847 495.089 348.367 494.841 346.442C494.593 344.517 493.752 341.014 492.972 338.657C492.192 336.3 491.554 331.913 491.554 328.907C491.554 323.965 491.347 323.442 489.384 323.442C488.115 323.442 485.418 321.57 482.9 318.942C478.565 314.416 477.556 313.727 477.556 315.29ZM571.7 325.192C570.461 326.155 568.458 327.787 567.247 328.82C564.008 331.583 551.468 337.442 548.794 337.442C545.874 337.442 545.154 339.327 545.976 344.808C546.991 351.578 549.376 353.442 557.026 353.442C560.546 353.442 563.689 353.865 564.008 354.383C564.354 354.942 565.695 354.784 567.317 353.993C568.818 353.261 573.067 351.212 576.761 349.439C586.448 344.792 590.618 336.591 585.952 331.363C585.177 330.495 584.543 329.342 584.543 328.801C584.543 324.867 575.416 322.302 571.7 325.192ZM511.206 327.193C510.136 328.925 510.521 357.515 511.642 359.611C512.283 360.807 513.166 366.651 513.606 372.597C514.936 390.578 517.551 393.723 517.551 377.343C517.551 370.817 518.049 366.129 518.959 364.093C519.734 362.36 520.603 357.395 520.891 353.059C521.18 348.723 521.897 344.696 522.483 344.109C525.639 340.953 522.782 329.442 518.845 329.442C518.268 329.442 517.236 328.767 516.551 327.942C515.244 326.367 511.998 325.912 511.206 327.193ZM533.237 337.088C532.858 337.466 532.549 339.249 532.549 341.05C532.549 342.851 532.099 344.602 531.549 344.942C530.999 345.282 530.564 346.546 530.582 347.751C530.611 349.785 530.709 349.817 531.941 348.192C532.672 347.229 534.032 346.442 534.964 346.442C536.358 346.442 536.605 345.615 536.354 341.77C536.068 337.391 534.815 335.509 533.237 337.088ZM372.893 343.16C369.139 343.63 366.065 346.442 369.306 346.442C370.396 346.442 372.814 348.008 374.679 349.923C379.716 355.096 383.523 353.496 383.553 346.192C383.569 342.114 382.857 341.912 372.893 343.16ZM428.649 353.837C428.013 354.604 426.045 355.456 424.277 355.731C420.642 356.295 414.567 358.473 407.125 361.878C404.342 363.152 399.366 365.246 396.066 366.531C392.766 367.817 389.179 369.447 388.094 370.155C387.01 370.863 385.057 371.442 383.753 371.442C382.45 371.442 380.239 372.342 378.841 373.442C377.443 374.542 375.634 375.442 374.82 375.442C368.117 375.442 358.785 388.609 357.104 400.442C356.752 402.917 356.216 406.231 355.913 407.807C355.369 410.631 355.417 410.664 359.216 410.098C361.336 409.783 367.795 408.853 373.569 408.032C379.343 407.212 386.317 405.848 389.067 405.002C391.817 404.156 395.889 403.459 398.116 403.453C400.343 403.447 402.628 402.98 403.192 402.415C403.756 401.851 406.657 401.1 409.638 400.747C415.397 400.065 422.371 396.929 423.659 394.442C426.397 389.154 427.82 385.386 428.568 381.442C429.037 378.967 429.864 375.142 430.406 372.942C433.137 361.862 432.025 349.769 428.649 353.837ZM355.571 357.942C354.845 358.817 353.665 359.308 352.948 359.033C349.803 357.826 334.574 380.625 334.574 386.542C334.574 387.522 334.15 388.586 333.632 388.906C333.114 389.227 332.387 391.509 332.016 393.978C331.646 396.447 330.945 398.713 330.459 399.013C329.972 399.314 329.574 402.311 329.574 405.673C329.574 415.783 334.127 422.778 338.395 419.225C339.318 418.457 341.286 417.312 342.769 416.681C344.72 415.851 345.597 414.624 345.944 412.238C346.208 410.425 346.931 405.224 347.551 400.68C348.172 396.136 349.33 391.073 350.126 389.43C356.477 376.309 360.424 369.384 364.176 364.774C367.763 360.369 368.375 358.525 366.32 358.313C365.633 358.242 363.945 358.08 362.57 357.954C361.196 357.827 359.356 357.415 358.481 357.037C357.538 356.63 356.354 356.999 355.571 357.942ZM479.556 440.956C479.556 446.188 479.955 451.251 480.444 452.206C480.932 453.161 482.619 456.546 484.193 459.728C485.767 462.911 487.505 466.293 488.055 467.244C491.598 473.373 506.557 489.327 511.552 492.304C513.477 493.452 518.264 497.608 522.19 501.54C529.329 508.69 529.328 508.69 529.7 504.012C530.069 499.375 527.1 487.276 525.434 486.619C524.982 486.442 524.324 484.754 523.97 482.869C523.617 480.984 522.972 479.442 522.537 479.442C522.102 479.442 521.25 478.204 520.644 476.692C515.429 463.689 501.731 446.563 489.378 437.603C486.255 435.339 483.416 433.026 483.069 432.464C480.784 428.765 479.556 431.732 479.556 440.956ZM471.636 457.025C471.684 458.19 471.921 458.427 472.24 457.63C472.529 456.908 472.493 456.045 472.161 455.713C471.829 455.381 471.593 455.971 471.636 457.025ZM490.304 495.271C491.266 496.276 492.954 498.195 494.054 499.534C495.154 500.873 497.291 503.46 498.803 505.282C503.801 511.304 502.466 517.515 495.909 518.755C485.469 520.73 480.908 515.84 482.029 503.876C482.947 494.082 486.065 490.84 490.304 495.271ZM99.4141 582.513C97.9353 583.617 95.2188 585.965 93.377 587.731C91.5352 589.497 88.2457 592.357 86.0669 594.087C78.7309 599.91 76.5313 602.404 75.0655 606.558C73.1857 611.887 73.2076 620.154 75.1124 623.806C75.9343 625.382 76.606 627.416 76.606 628.327C76.606 630.671 80.3379 634.14 85.6602 636.744C90.3546 639.041 102.806 636.649 106.755 632.692C107.441 632.005 108.517 631.442 109.146 631.442C110.957 631.442 115.124 627.323 117.982 622.709C120.604 618.477 120.604 618.477 117.753 613.709C116.184 611.087 114.126 606.382 113.178 603.253C112.23 600.124 110.813 597.032 110.028 596.381C109.244 595.73 108.602 594.407 108.602 593.442C108.602 592.477 107.927 591.127 107.102 590.442C106.277 589.757 105.603 587.767 105.603 586.02C105.603 580.631 103.517 579.45 99.4141 582.513ZM53.8912 604.742C54.5431 616.253 54.4186 616.666 49.8692 618.223C46.3596 619.423 33.3597 630.119 30.1031 634.485C28.4083 636.756 24.9126 640.83 17.2706 649.442C16.5377 650.267 15.6375 651.617 15.2696 652.442C14.9016 653.267 13.4983 655.742 12.1514 657.942C9.27678 662.636 8.71676 672.251 11.0035 677.658C11.7674 679.464 13.3891 684.092 14.608 687.942C20.5732 706.781 24.7517 712.541 30.9649 710.49C35.1694 709.103 38.5911 703.039 38.646 696.876C38.666 694.712 39.325 691.817 40.1109 690.442C40.8968 689.067 41.5553 685.443 41.5752 682.388C41.6152 676.062 45.3571 671.174 51.1094 669.933C52.7592 669.578 55.0086 668.925 56.1085 668.484C70.4817 662.716 78.4549 660.51 85.105 660.462C93.326 660.402 100.344 650.284 92.5962 649.661C90.6755 649.507 88.2049 648.976 87.105 648.481C86.0052 647.986 83.3395 647.039 81.1797 646.376C77.0303 645.102 70.607 639.955 70.607 637.904C70.607 637.234 69.9888 636.174 69.2339 635.547C68.478 634.92 67.5594 632.052 67.1924 629.175C66.8245 626.297 65.8104 622.039 64.9376 619.712C63.5307 615.962 63.5188 615.225 64.8306 613.212C65.6445 611.964 66.6263 607.708 67.0132 603.756C67.8421 595.272 67.0864 594.442 58.5235 594.442C53.3081 594.442 53.3082 594.442 53.8912 604.742ZM462.558 631.323C462.558 631.807 459.07 633.853 454.809 635.869C450.547 637.886 445.26 640.496 443.06 641.671C435.938 645.473 433.12 646.772 422.813 651.002C419.723 652.27 418.562 653.318 418.557 654.844C418.554 655.998 417.656 658.292 416.564 659.942C415.471 661.592 414.56 663.842 414.539 664.942C414.518 666.042 413.84 667.816 413.032 668.883C410.322 672.466 411.152 679.05 414.814 683.017C423.124 692.02 431.872 700.594 434.344 702.158C435.839 703.104 438.025 704.768 439.203 705.857C454.737 720.214 473.682 716.947 470.077 700.533C469.72 698.909 468.782 697.044 467.993 696.389C467.203 695.733 466.555 694.465 466.553 693.57C466.551 692.674 464.436 689.923 461.852 687.455C455.597 681.479 455.043 675.024 460.303 669.407C462.088 667.501 463.551 665.38 463.553 664.692C463.556 664.005 464.019 663.442 464.583 663.442C465.146 663.442 466.052 662.43 466.597 661.192C467.141 659.954 468.473 657.592 469.557 655.942C470.641 654.292 472.012 651.817 472.603 650.442C473.195 649.067 475.052 646.518 476.73 644.778C480.175 641.206 479.788 639.442 475.559 639.442C471.882 639.442 466.209 634.511 467.129 632.114C467.628 630.815 467.19 630.442 465.165 630.442C463.731 630.442 462.558 630.838 462.558 631.323Z"
  />
</svg>
