<svg
  width="611"
  height="729"
  viewBox="0 0 611 729"
  fill="none"
  xmlns="http://www.w3.org/2000/svg"
>
  <path
    fill-rule="evenodd"
    clip-rule="evenodd"
    fill="black"
    d="M423.479 2.6283C430.301 7.4863 444.426 27.0092 444.426 31.5802C444.426 34.2162 449.178 35.7711 452.299 34.1561C453.964 33.2951 456.099 32.5912 457.046 32.5912C457.992 32.5912 459.606 31.8312 460.633 30.9022C461.785 29.8582 464.781 29.0481 468.476 28.7811C471.764 28.5431 474.698 27.9531 474.997 27.4701C475.713 26.3111 487.141 26.3313 487.859 27.4933C488.166 27.9883 491.118 28.7082 494.42 29.0912C497.721 29.4742 500.685 30.2121 501.005 30.7301C501.325 31.2481 502.411 31.4112 503.418 31.0912C504.425 30.7712 505.539 30.9782 505.893 31.5502C506.247 32.1232 507.522 32.6052 508.727 32.6232C509.932 32.6402 511.791 33.3152 512.858 34.1232C513.926 34.9302 515.84 35.5912 517.112 35.5912C522.929 35.5912 530.234 42.4341 528.901 46.6351C527.958 49.6061 525.036 49.4541 514.804 45.8971C509.367 44.0081 502.13 41.8442 498.721 41.0902C495.313 40.3352 491.521 39.1803 490.295 38.5243C485.023 35.7023 463.13 39.8553 450.425 46.0873C449.05 46.7623 446.464 47.8263 444.676 48.4523C442.888 49.0793 440.093 50.1342 438.463 50.7972C433.814 52.6872 430.01 50.9191 429.603 46.6781C429.255 43.0501 430.505 41.6321 434.07 41.6061C437.064 41.5851 437.726 39.0161 435.67 35.3971C432.285 29.4381 431.733 28.5872 430.089 26.7692C429.176 25.7602 428.428 24.2191 428.428 23.3461C428.428 22.4721 428.091 21.6082 427.678 21.4242C426.637 20.9622 422.429 14.8623 422.429 13.8173C422.429 11.4603 415.782 9.71815 413.31 11.4262C408.171 14.9782 395.923 29.4391 388.403 40.8341C387.045 42.8931 385.603 44.5801 385.197 44.5841C384.792 44.5881 383.838 46.0791 383.079 47.8971C382.32 49.7151 380.563 52.4272 379.176 53.9242C377.789 55.4212 376.069 58.0963 375.355 59.8683C374.64 61.6413 372.567 64.9372 370.746 67.1942C368.925 69.4512 367.435 71.5742 367.435 71.9132C367.435 72.2522 365.245 76.2562 362.567 80.8102C359.89 85.3652 356.352 91.7912 354.705 95.0912C353.06 98.3912 351.011 102.441 350.153 104.091C349.295 105.741 347.825 109.791 346.887 113.091C345.948 116.391 344.764 120.175 344.257 121.5C343.177 124.325 344.493 125.552 348.629 125.576C350.109 125.584 351.577 126.006 351.889 126.514C352.203 127.022 353.917 127.747 355.698 128.125C357.48 128.504 359.611 129.39 360.436 130.093C363.215 132.464 370.42 133.061 370.528 130.929C370.904 123.513 371.434 120.494 372.833 117.789C373.714 116.085 374.435 113.709 374.435 112.509C374.435 110.539 377.851 103.833 379.487 102.591C379.849 102.316 380.447 100.449 380.816 98.4413C381.185 96.4343 382.149 94.2422 382.959 93.5692C383.77 92.8962 384.433 91.8683 384.433 91.2843C384.433 90.1173 387.285 84.3122 390.914 78.0912C392.197 75.8912 394.3 72.1163 395.586 69.7033C396.872 67.2893 399.051 64.6372 400.428 63.8092C401.804 62.9822 404.187 61.4421 405.721 60.3871C410.173 57.3301 414.85 58.2601 415.239 62.2821C415.574 65.7451 414.715 66.8233 407.276 72.2743C404.236 74.5023 401.785 77.6553 399.114 82.7743C397.014 86.7993 394.921 90.7662 394.462 91.5912C394.003 92.4162 391.95 96.6912 389.898 101.091C381.402 119.313 378.377 129.892 382.377 127.394C387.674 124.086 390.16 135.786 385.302 141.155C384.275 142.291 383.433 143.686 383.433 144.255C383.433 145.301 377.655 156.564 374.282 162.091C372.447 165.098 371.483 167.07 368.658 173.591C367.824 175.516 366.748 177.888 366.267 178.863C365.785 179.837 365.115 182.762 364.778 185.363C364.44 187.963 363.593 191.216 362.896 192.591C361.287 195.761 358.756 207.214 357.862 215.363C357.483 218.813 356.783 221.877 356.305 222.172C355.239 222.831 355.148 225.591 356.193 225.591C356.99 225.591 361.436 216.486 361.436 214.854C361.436 214.33 362.336 213.086 363.436 212.091C364.536 211.096 365.436 209.731 365.436 209.058C365.436 208.386 366.11 207.276 366.935 206.591C367.76 205.906 368.435 204.501 368.435 203.469C368.435 202.436 368.856 201.591 369.368 201.591C369.881 201.591 370.599 200.649 370.965 199.497C371.33 198.346 372.945 195.454 374.553 193.071C376.16 190.688 379.335 184.993 381.607 180.415C383.878 175.837 386.662 170.765 387.793 169.145C390.849 164.763 393.432 159.398 393.432 157.429C393.432 156.473 393.995 155.331 394.682 154.891C395.37 154.451 397.057 151.863 398.431 149.14C399.806 146.417 402.169 142.302 403.681 139.995C405.193 137.688 406.439 135.191 406.448 134.446C406.458 133.701 407.57 132.043 408.921 130.762C416.141 123.914 417.899 135.526 411.318 146.591C410.827 147.416 409.987 149.103 409.452 150.341C408.918 151.579 408.018 152.591 407.455 152.591C406.891 152.591 406.43 153.041 406.43 153.591C406.43 155.321 409.041 154.679 411.025 152.461C412.073 151.29 414.66 149.233 416.774 147.89C424.011 143.291 446.301 119.641 453.105 109.341C459.741 99.2952 461.654 97.9642 464.852 101.162C467.264 103.575 465.874 113.097 462.946 114.221C462.202 114.507 460.318 116.619 458.761 118.916C457.204 121.212 455.366 123.451 454.678 123.891C453.989 124.331 453.425 125.265 453.425 125.968C453.425 126.67 448.475 132.065 442.426 137.956C430.603 149.472 429.563 151.123 434.677 150.264C442.364 148.972 452.645 146.544 454.397 145.606C455.44 145.048 457.167 144.591 458.236 144.591C459.305 144.591 460.739 143.916 461.424 143.091C462.109 142.266 463.902 141.591 465.411 141.591C466.919 141.591 469.297 140.691 470.696 139.591C472.093 138.491 474.067 137.581 475.08 137.569C476.093 137.556 479.622 136.216 482.921 134.591C486.221 132.966 489.565 131.626 490.354 131.613C492.18 131.585 500.225 127.714 500.972 126.504C503.847 121.854 509.467 128.267 507.664 134.141C506.962 136.43 506.904 138.798 507.499 140.874C508.005 142.636 508.418 146.182 508.418 148.753C508.418 151.325 509.07 154.703 509.867 156.26C510.664 157.817 511.58 159.766 511.905 160.591C513.19 163.855 518.463 171.749 520.402 173.309C524.114 176.296 524.365 175.203 524.645 154.841C524.916 135.091 524.916 135.091 527.415 135.091C529.775 135.091 529.929 135.426 530.172 141.091C530.634 151.86 531.079 152.679 534.31 148.719C540.498 141.137 541.078 146.843 540.426 208.843C540.27 223.667 540.469 226.507 541.633 226.06C543.175 225.469 550.412 212.408 550.412 210.217C550.412 209.458 551.088 208.276 551.912 207.591C552.737 206.906 553.412 204.812 553.412 202.937C553.412 200.829 553.985 199.309 554.912 198.953C555.737 198.636 556.412 197.355 556.412 196.106C556.412 194.858 557.048 193.308 557.825 192.663C558.602 192.018 559.543 189.264 559.918 186.542C560.292 183.82 561.007 181.341 561.506 181.033C562.004 180.725 562.411 179.127 562.411 177.482C562.411 175.837 563.033 173.277 563.794 171.791C564.555 170.306 565.505 166.166 565.906 162.591C566.306 159.016 567.145 155.46 567.77 154.688C569.688 152.324 569.833 115.557 567.951 109.08C564.562 97.4222 566.658 91.7531 572.475 96.8461C578.494 102.117 581.544 145.997 576.539 155.349C575.917 156.51 575.409 159.529 575.409 162.057C575.409 164.586 574.734 168.271 573.909 170.245C572.072 174.644 571.959 177.707 573.659 177.032C574.992 176.504 582.468 161.902 582.43 159.901C582.418 159.246 583.758 156.109 585.408 152.928C587.058 149.748 588.408 146.176 588.408 144.991C588.408 143.806 589.083 142.276 589.908 141.591C590.732 140.906 591.424 138.939 591.443 137.219C591.463 135.498 592.122 132.966 592.908 131.591C593.693 130.216 594.352 127.156 594.372 124.791C594.391 122.427 595.166 119.052 596.093 117.291C599.064 111.653 599.307 62.5912 596.364 62.5912C595.396 62.5912 581.162 69.4092 575.729 72.4752C568.238 76.7032 567.41 77.5422 567.41 80.9142C567.41 87.4632 563.068 88.4522 558.772 82.8822C557.198 80.8422 553.999 77.0832 551.662 74.5282C549.326 71.9742 547.413 69.4151 547.413 68.8431C547.413 68.2711 543.813 64.5582 539.414 60.5912C532.019 53.9242 531.415 53.0852 531.415 49.4852C531.415 41.0412 544.67 48.8971 555.821 63.9501C558.684 67.8141 565.158 68.8491 566.236 65.6151C566.424 65.0521 567.053 64.5912 567.635 64.5912C569.335 64.5912 577.409 60.3152 577.409 59.4142C577.409 58.9612 578.24 58.5912 579.256 58.5912C580.272 58.5912 582.141 57.6912 583.409 56.5912C584.676 55.4912 586.519 54.5912 587.502 54.5912C588.485 54.5912 589.56 54.1533 589.89 53.6183C592.604 49.2273 602.22 50.4771 605.172 55.6051C607.984 60.4941 608.757 111.864 606.079 115.98C605.325 117.141 604.462 121.016 604.163 124.591C603.864 128.166 602.899 132.441 602.019 134.091C601.138 135.741 600.416 138.052 600.412 139.227C600.409 140.401 599.734 142.651 598.912 144.227C598.092 145.802 597.416 148.048 597.412 149.219C597.409 150.389 596.732 151.906 595.907 152.591C595.082 153.276 594.407 154.595 594.407 155.522C594.407 156.45 593.747 158.082 592.94 159.15C592.132 160.217 591.457 161.698 591.44 162.44C591.383 164.829 583.861 181.193 582.406 182.093C581.858 182.432 581.409 183.538 581.409 184.551C581.409 185.564 579.405 188.8 576.955 191.742C571.583 198.195 571.739 198.286 588.599 198.473C594.515 198.538 599.565 199.038 599.907 199.592C600.247 200.142 602.528 201.097 604.976 201.713C610.751 203.167 611.702 206.082 608.42 212.27C607.16 214.647 605.713 216.591 605.206 216.591C604.7 216.591 601.907 218.841 599.001 221.591C596.093 224.341 593.364 226.591 592.937 226.591C592.51 226.591 589.405 228.528 586.035 230.895C575.851 238.049 565.376 244.126 556.412 248.08C548.08 251.756 545.568 253.599 542.128 258.564C539.689 262.083 539.944 262.589 544.163 262.607C556.011 262.659 561.278 274.251 551.388 278.506C546.838 280.464 546.414 280.897 547.59 282.387C550.436 285.995 553.059 287.526 556.447 287.558C560.594 287.597 573.621 299.548 576.886 306.307C577.89 308.388 579.4 311.422 580.24 313.049C583.251 318.879 582.441 331.402 578.659 337.491C576.871 340.369 575.409 343.117 575.409 343.597C575.409 344.78 567.539 353.802 565.399 355.072C558.806 358.985 555.134 360.591 552.784 360.591C551.294 360.591 547.665 361.951 544.721 363.613C540.446 366.026 538.969 366.423 537.4 365.583C536.319 365.005 529.693 364.292 522.676 363.999C515.659 363.706 509.491 363.044 508.968 362.529C508.446 362.013 507.321 361.589 506.468 361.586C505.616 361.584 503.205 360.009 501.113 358.086C497.063 354.367 495.42 353.749 495.42 355.947C495.42 357.19 489.772 365.273 486.71 368.412C486.001 369.139 485.421 370.631 485.421 371.728C485.421 372.825 484.887 374.705 484.235 375.907C483.413 377.421 483.03 385.983 482.985 403.805C482.914 432.198 482.547 434.002 477.334 431.571C474.496 430.247 467.423 419.551 467.423 416.582C467.423 415.452 466.748 412.911 465.923 410.937C465.098 408.962 464.423 406.277 464.423 404.969C464.423 401.449 462.048 402.065 459.133 406.341C457.726 408.404 453.786 413.013 450.376 416.583C442.453 424.88 442.463 425.946 450.55 434.14C454.056 437.692 457.105 441.138 457.325 441.799C457.741 443.042 458.804 444.47 461.489 447.389C464.745 450.93 472.736 462.072 474.835 466.001C478.75 473.324 480.743 476.012 486.027 481.091C490.461 485.355 491.385 486.901 492.297 491.591C494.249 501.634 493.081 544.829 490.7 550.591C490.132 551.966 489.337 556.016 488.932 559.591C488.528 563.166 487.86 566.541 487.446 567.091C487.032 567.641 486.387 570.095 486.013 572.545C485.316 577.105 481.985 583.591 480.339 583.591C479.834 583.591 479.422 584.918 479.422 586.539C479.422 589.826 477.217 592.48 470.423 597.367C467.948 599.147 463.783 602.176 461.165 604.097C458.548 606.019 456.047 607.591 455.606 607.591C455.165 607.591 453.482 608.863 451.865 610.417C450.248 611.971 448.25 613.552 447.426 613.93C435.541 619.378 429.443 629.591 438.074 629.591C444.268 629.591 441.856 649.294 435.356 651.788C434.537 652.102 432.981 654.099 431.898 656.225C430.814 658.351 429.703 660.316 429.428 660.591C426.286 663.733 424.697 675.277 426.837 679.416C427.712 681.107 428.428 684.105 428.428 686.077C428.428 688.048 429.059 690.658 429.829 691.876C434.339 699.002 432.964 710.192 426.838 716.232C424.412 718.623 422.429 720.979 422.429 721.467C422.429 723.061 415.62 727.591 413.247 727.576C410.067 727.556 404.032 725.334 397.201 721.667C394.049 719.975 390.996 718.591 390.417 718.591C389.838 718.591 388.112 717.353 386.581 715.841C383.597 712.894 381.13 711.133 377.934 709.671C376.835 709.168 373.966 706.694 371.559 704.174C369.152 701.653 366.791 699.591 366.31 699.591C365.829 699.591 365.436 698.905 365.436 698.066C365.436 697.228 364.198 696.073 362.686 695.5C356.21 693.046 353.656 687.53 356.969 683.15C357.776 682.082 358.437 679.356 358.437 677.091C358.437 674.826 359.097 672.1 359.904 671.032C360.712 669.965 361.387 667.464 361.404 665.476C361.422 663.488 362.224 660.784 363.186 659.469C368.551 652.134 367.896 648.793 361.909 652.966C360.825 653.722 358.026 654.661 355.692 655.053C353.358 655.444 351.221 656.134 350.942 656.584C350.664 657.035 348.124 657.722 345.298 658.11C342.473 658.499 336.154 660.116 331.255 661.704C325.812 663.469 320.131 664.603 316.646 664.623C313.224 664.642 310.166 665.242 309.002 666.123C307.934 666.93 305.217 667.591 302.964 667.591C300.711 667.591 297.084 668.533 294.906 669.684C289.826 672.369 249.156 671.899 245.173 669.109C243.856 668.186 240.789 667.591 237.352 667.591C234.241 667.591 230.082 666.916 228.107 666.091C226.133 665.266 222.591 664.584 220.236 664.576C217.881 664.568 214.155 663.947 211.955 663.195C209.755 662.443 204.923 661.514 201.218 661.131C197.511 660.748 194.222 660.019 193.909 659.513C193.596 659.006 191.427 658.591 189.09 658.591C186.753 658.591 183.968 657.93 182.9 657.123C181.833 656.315 179.602 655.64 177.944 655.623C176.286 655.605 173.251 654.691 171.199 653.591C169.146 652.491 166.393 651.591 165.079 651.591C163.765 651.591 161.401 650.919 159.825 650.097C158.25 649.276 155.811 648.601 154.403 648.597C152.996 648.594 150.971 647.93 149.904 647.123C148.837 646.315 146.983 645.64 145.784 645.623C144.586 645.605 142.932 644.916 142.107 644.091C141.282 643.266 139.536 642.591 138.227 642.591C136.918 642.591 134.973 641.93 133.906 641.123C132.839 640.315 129.828 639.64 127.216 639.623C123.83 639.6 121.892 639.017 120.467 637.591C117.634 634.758 116.627 635.037 112.037 639.925C108.403 643.796 103.186 647.507 95.9105 651.396C93.5108 652.678 92.5108 655.591 94.4696 655.591C95.0195 655.591 95.4696 656.211 95.4696 656.969C95.4696 657.726 96.1366 658.9 96.9525 659.577C99.2152 661.455 100.497 667.231 99.3519 670.387C97.9531 674.244 82.245 684.669 73.972 687.232C71.8173 687.899 60.6541 692.942 56.3206 695.205C54.8608 695.967 52.4808 696.591 51.033 696.591C48.3994 696.591 48.3997 696.591 48.6746 709.684C48.9506 722.777 48.9507 722.777 45.6981 725.684C40.8727 729.996 30.0317 729.99 24.5823 725.673C20.6018 722.52 7.48029 704.003 7.48029 701.539C7.48029 700.713 6.84269 699.125 6.06379 698.012C5.28388 696.899 4.32488 694.212 3.93293 692.04C3.54098 689.868 2.723 687.467 2.11408 686.704C0.212317 684.317 0.684523 669.132 2.73127 666.869C3.69315 665.804 4.48078 664.455 4.48078 663.869C4.48078 663.284 5.15588 662.546 5.98078 662.229C6.80568 661.913 7.48029 661.049 7.48029 660.309C7.48029 659.57 8.8305 657.672 10.4803 656.091C12.1301 654.51 13.4798 652.765 13.4798 652.212C13.4798 651.659 15.1676 649.587 17.2293 647.606C19.2921 645.625 22.8375 641.774 25.1082 639.048C27.3799 636.321 30.4364 632.895 31.9002 631.434C34.8528 628.489 36.4769 623.927 36.4769 618.582C36.4769 607.189 47.6865 601.667 58.4041 607.78C62.9186 610.355 64.9181 609.373 73.722 600.252C81.2421 592.462 81.0361 592.904 78.9774 588.955C78.1565 587.38 77.4819 585.079 77.4779 583.841C77.4749 582.603 77.031 581.591 76.491 581.591C75.9521 581.591 75.2091 580.353 74.8421 578.841C74.4742 577.329 73.5665 575.203 72.8236 574.118C72.0806 573.034 71.4696 570.784 71.4666 569.118C71.4626 567.453 70.7875 564.802 69.9666 563.227C67.179 557.882 68.079 552.888 72.2225 550.706C74.1272 549.702 74.472 548.701 74.472 544.178C74.472 540.756 74.9881 538.408 75.908 537.644C76.6969 536.989 77.6317 535.139 77.9847 533.533C78.3366 531.928 79.0407 530.357 79.5487 530.043C80.0566 529.73 80.4715 528.632 80.4715 527.603C80.4715 526.575 81.036 525.139 81.7259 524.412C82.8708 523.207 88.3324 514.984 91.2391 510.091C91.892 508.991 93.3917 505.954 94.5716 503.341C95.7505 500.728 97.0831 498.591 97.534 498.591C97.9839 498.591 99.7908 495.891 101.55 492.591C103.308 489.291 105.134 486.591 105.607 486.591C106.081 486.591 106.468 486.007 106.468 485.294C106.468 484.581 108.475 480.941 110.929 477.206C113.381 473.47 115.691 469.442 116.061 468.253C116.431 467.064 117.962 464.516 119.464 462.591C120.965 460.666 122.99 457.516 123.964 455.591C124.939 453.666 126.351 451.731 127.1 451.291C127.851 450.851 128.465 449.908 128.465 449.194C128.465 448.481 129.422 446.816 130.592 445.494C131.762 444.172 133.381 441.516 134.19 439.591C134.999 437.666 136.854 434.523 138.312 432.607C139.771 430.69 141.414 428.371 141.964 427.453C144.57 423.101 151.293 413.023 154.212 409.089C156 406.681 157.462 404.295 157.462 403.787C157.462 401.304 163.193 396.371 165.302 397.04C167.148 397.627 167.46 397.337 167.46 395.037C167.46 392.447 168.171 391.574 182.632 376.396C184.101 374.853 186.274 373.591 187.459 373.591C189.27 373.591 189.579 373.071 189.391 370.341C188.336 355.014 189.299 349.544 193.808 345.242C196.201 342.959 198.48 339.768 198.874 338.15C199.465 335.724 204.217 328.516 206.495 326.591C206.821 326.316 208.493 324.025 210.209 321.5C211.927 318.976 217.009 313.576 221.505 309.5C225.999 305.425 232.837 299.054 236.698 295.341C240.559 291.628 244.042 288.591 244.439 288.591C245.301 288.591 250.45 283.921 250.45 283.139C250.45 282.188 254.405 278.591 255.45 278.591C255.999 278.591 256.45 278.153 256.45 277.617C256.45 277.081 257.793 275.947 259.436 275.098C261.079 274.248 264.06 272.099 266.061 270.322C268.062 268.545 271.751 265.291 274.258 263.091C276.766 260.891 279.868 258.089 281.153 256.864C282.439 255.64 284.493 254.107 285.718 253.459C286.942 252.81 288.845 251.445 289.945 250.426C293.154 247.452 302.278 241.95 311.443 237.465C319.942 233.305 319.941 233.305 320.079 211.943C320.187 195.341 320.55 189.859 321.711 187.336C325.047 180.086 324.626 167.121 320.895 162.234C315.478 155.138 307.443 139.988 307.443 136.868C307.443 134.466 303.449 129.591 301.483 129.591C297.525 129.591 297.121 121.044 301.009 119.566C304.276 118.324 322.441 118.284 322.441 119.519C322.441 120.029 324.918 120.757 327.948 121.135C334.852 121.998 336.439 120.869 336.439 115.091C336.439 112.529 337.036 110.341 337.939 109.591C338.764 108.906 339.439 107.458 339.439 106.373C339.439 105.288 340.058 103.205 340.815 101.745C343.671 96.2342 346.438 89.8301 346.438 88.7311C346.438 88.1041 346.789 87.5912 347.219 87.5912C347.648 87.5912 348.559 86.3532 349.242 84.8412C351.88 79.0032 354.303 75.0162 356.329 73.1862C357.488 72.1382 358.437 70.9251 358.437 70.4901C358.437 69.2831 365.663 57.1372 366.607 56.7582C367.063 56.5742 367.435 55.9462 367.435 55.3612C367.435 54.7762 369.01 51.9253 370.935 49.0253C372.86 46.1253 374.435 43.4571 374.435 43.0961C374.435 42.7351 376.364 39.8863 378.724 36.7653C381.083 33.6443 383.727 29.9662 384.597 28.5912C385.469 27.2162 388.476 23.6162 391.281 20.5912C394.084 17.5662 396.39 14.8012 396.405 14.4462C396.444 13.5212 404.403 5.39019 407.815 2.78919C411.681 -0.156809 419.457 -0.236698 423.479 2.6283ZM316.364 133.733C317.338 138.038 320.32 143.861 322.076 144.891C322.827 145.331 323.441 146.359 323.441 147.176C323.441 149.11 326.4 153.718 328.76 155.459C329.78 156.211 332.263 158.622 334.277 160.815C353.664 181.927 354.42 182.464 356.82 176.829C358.051 173.935 359.594 171.033 360.248 170.379C360.901 169.726 361.439 168.494 361.442 167.641C361.446 166.788 362.129 164.787 362.96 163.192C363.791 161.598 364.351 160.248 364.204 160.192C364.057 160.137 362.361 159.337 360.436 158.415C358.512 157.493 355.587 156.508 353.937 156.225C342.278 154.231 338.72 150.691 342.787 145.129C344.432 142.88 354.037 143.39 358.936 145.988C360.586 146.863 362.697 147.581 363.627 147.585C364.557 147.588 365.596 148.041 365.936 148.591C366.854 150.077 370.435 149.802 370.435 148.246C370.435 146.506 367.21 143.591 365.285 143.591C364.463 143.591 361.35 142.291 358.365 140.702C355.379 139.113 350.687 137.502 347.938 137.122C345.188 136.742 339.789 135.387 335.939 134.11C323.115 129.857 315.453 129.71 316.364 133.733ZM493.42 142.251C491.495 143.094 488.646 144.415 487.09 145.187C485.533 145.959 483.481 146.591 482.531 146.591C481.581 146.591 479.93 147.252 478.863 148.059C477.796 148.867 476.022 149.556 474.922 149.591C473.822 149.626 472.049 150.315 470.982 151.123C469.914 151.93 468.423 152.591 467.668 152.591C466.913 152.591 463.961 153.656 461.11 154.958C453.296 158.526 446.656 159.591 432.222 159.591C419.631 159.591 418.984 159.693 415.689 162.206C410.559 166.12 412.486 166.96 425.961 166.691C437.56 166.459 437.56 166.459 442.008 170.104C450.548 177.104 453.848 193.027 447.911 198.604C442.341 203.838 425.428 200.464 425.428 194.119C425.428 193.404 424.756 191.531 423.934 189.955C422.231 186.689 421.94 181.011 423.429 180.091C423.978 179.751 424.429 179.041 424.429 178.513C424.429 177.126 419.138 178.639 417.839 180.398C415.881 183.049 409.984 181.078 406.425 176.583C403.263 172.591 398.865 173.876 392.163 180.751C385.045 188.052 386.803 229.327 394.455 234.591C396.095 235.719 399.431 243.252 399.431 245.826C399.431 248.818 405.749 250.138 406.68 247.341C406.987 246.421 410.769 246.091 421.012 246.091C437.041 246.091 445.852 249.232 455.721 258.465C459.777 262.26 460.834 262.804 462.242 261.821C473.349 254.068 491.602 252.706 498.043 259.149C502.549 263.654 506.053 263.628 505.655 259.091C505.349 255.601 505.995 254.519 509.418 252.781C514.519 250.191 516.737 248.708 521.138 244.946C523.617 242.826 525.971 240.866 526.367 240.591C528.641 239.011 532.6 210.121 531.083 206.169C530.154 203.748 527.706 204.295 527.007 207.081C525.877 211.584 516.987 217.602 511.577 217.525C499.365 217.35 493.158 209.233 499.347 201.531C501.037 199.429 502.422 197.344 502.426 196.9C502.43 196.455 504.116 194.967 506.175 193.592C508.234 192.218 510.512 190.531 511.238 189.842C511.965 189.154 513.851 188.591 515.429 188.591C519.872 188.591 520.076 186.681 516.054 182.703C510.313 177.023 505.418 170.969 505.418 169.549C505.418 168.834 504.818 167.538 504.084 166.67C501.43 163.527 498.419 152.936 498.419 146.738C498.419 140.009 498.459 140.045 493.42 142.251ZM332.405 179.841C332.385 181.628 331.726 184.216 330.94 185.591C328.516 189.832 328.833 230.975 331.327 235.869C333.551 240.231 335.147 239.256 336.138 232.93C336.468 230.819 337.346 228.203 338.089 227.118C338.831 226.034 339.439 223.933 339.439 222.45C339.439 219.892 339.899 218.658 343.795 210.76C344.698 208.928 345.438 206.441 345.438 205.232C345.438 204.024 346.076 202.125 346.855 201.012C351.439 194.469 349.354 189.394 338.154 179.824C333.407 175.768 332.449 175.771 332.405 179.841ZM433.104 179.341C430.375 183.977 431.588 187.805 436.292 189.415C440.172 190.743 441.426 190.274 441.426 187.497C441.426 182.755 434.874 176.334 433.104 179.341ZM571.489 180.174C571.537 181.339 571.774 181.576 572.093 180.779C572.382 180.057 572.346 179.194 572.014 178.862C571.682 178.53 571.446 179.12 571.489 180.174ZM514.167 201.233C509.898 203.951 509.356 205.591 512.726 205.591C516.008 205.591 518.668 203.343 518.262 200.913C517.92 198.868 517.879 198.871 514.167 201.233ZM375.731 210.811C371.939 215.679 370.115 224.871 372.474 227.23C375.148 229.904 380.434 226.401 380.434 221.956C380.434 216.693 377.172 208.962 375.731 210.811ZM584.931 212.487C583.997 216.741 581.132 218.781 574.664 219.794C571.5 220.29 567.603 221.347 566.007 222.143C564.41 222.94 562.34 223.591 561.408 223.591C556.45 223.591 553.759 225.728 550.037 232.621C547.966 236.455 546.775 239.591 547.389 239.591C548.994 239.591 563.138 232.863 563.558 231.899C563.752 231.455 567.073 229.479 570.938 227.508C580.633 222.565 594.407 212.553 594.407 210.45C594.407 207.751 585.553 209.655 584.931 212.487ZM362.949 234.591C359.555 239.965 354.437 251.087 354.437 253.088C354.437 255.197 351.261 258.591 349.287 258.591C346.618 258.591 345.438 255.042 345.438 247.02C345.438 240.194 345.153 238.591 343.938 238.591C342.886 238.591 342.439 239.652 342.439 242.141C342.439 244.093 341.655 247.13 340.699 248.891C338.239 253.414 338.26 272.725 340.73 277.091C341.663 278.741 342.429 280.583 342.433 281.184C342.436 281.785 343.557 284.26 344.925 286.684C346.293 289.108 347.666 291.766 347.976 292.591C348.286 293.416 349.192 295.365 349.989 296.922C350.785 298.479 351.437 300.531 351.437 301.481C351.437 302.431 352.098 304.082 352.905 305.15C353.713 306.217 354.391 308.216 354.412 309.591C354.433 310.966 355.344 313.441 356.437 315.091C357.543 316.761 358.427 319.783 358.43 321.907C358.434 324.005 358.947 326.677 359.571 327.843C360.195 329.009 360.99 333.367 361.339 337.527C361.687 341.687 362.414 344.999 362.954 344.887C363.494 344.775 365.286 344.223 366.935 343.661C368.585 343.098 371.623 342.382 373.685 342.069C377.421 341.502 377.434 341.484 377.434 336.668C377.434 333.593 377.979 331.383 378.934 330.591C380.08 329.64 380.434 327.038 380.434 319.556C380.434 309.767 380.434 309.767 376.55 309.11C371.603 308.275 368.709 305.569 367.847 300.972C366.79 295.332 368.35 271.983 369.995 268.827C371.79 265.386 371.821 261.449 370.084 257.292C369.34 255.513 368.396 251.815 367.986 249.074C367.576 246.334 366.948 243.641 366.589 243.091C366.23 242.541 365.477 240.066 364.916 237.591C364.14 234.163 363.671 233.448 362.949 234.591ZM452.397 238.576C453.409 239.118 456.74 239.711 459.801 239.895C472.732 240.672 473.708 251.591 460.846 251.591C449.245 251.591 438.118 243.234 443.093 238.258C444.103 237.248 450.313 237.46 452.397 238.576ZM381.832 242.997C381.535 243.77 382.259 250.257 383.441 257.412C385.87 272.11 384.994 276.451 379.859 275.162C377.262 274.51 375.531 285.283 376.915 293.478C378.117 300.593 383.41 297.065 383.457 289.118C383.493 283.038 386.785 271.839 389.265 269.359C389.907 268.717 390.432 266.761 390.432 265.013C390.432 263.266 391.053 261.321 391.811 260.691C394.24 258.675 394.723 253.337 392.633 251.611C391.621 250.775 389.323 248.179 387.528 245.841C384.093 241.366 382.721 240.681 381.832 242.997ZM316.394 247.218C307.065 251.713 305.121 252.85 298.944 257.433C293.249 261.657 293.122 261.841 296.444 261.06C305.027 259.041 317.213 259.625 321.067 262.241C326.225 265.742 327.492 264.884 326.76 258.388C326.431 255.475 325.549 251.876 324.801 250.391C324.053 248.905 323.441 246.993 323.441 246.141C323.441 244.054 322.736 244.161 316.394 247.218ZM521.416 258.591C517.689 261.729 517.723 261.768 524.416 261.941C526.514 261.995 526.965 261.49 527.228 258.798C527.625 254.735 526.063 254.679 521.416 258.591ZM411.928 257.594C411.554 258.199 409.854 258.559 408.15 258.393C402.993 257.891 395.627 272.067 393.341 286.894C392.849 290.086 391.992 293.544 391.439 294.579C388.717 299.666 391.466 307.591 395.954 307.591C397.097 307.591 398.579 308.139 399.248 308.808C400.99 310.55 418.162 310.641 421.629 308.926C423.115 308.192 427.389 307.576 431.128 307.558C439.08 307.519 441.036 306.311 444.891 299.06C446.285 296.438 447.426 294.135 447.426 293.942C447.426 293.063 442.671 293.736 440.36 294.943C433.018 298.775 428.428 297.664 428.428 292.056C428.428 287.52 431.348 284.591 435.868 284.591C437.761 284.591 439.551 284.199 439.846 283.72C440.142 283.241 441.856 282.533 443.655 282.146C447.622 281.293 435.537 274.639 429.928 274.588C422.909 274.524 419.734 264.946 425.947 262.584C429.252 261.327 431.359 261.915 443.536 267.483C451.087 270.937 452.663 270.154 447.426 265.551C444.951 263.376 442.228 261.595 441.376 261.594C440.523 261.592 439.399 261.167 438.877 260.648C436.154 257.946 413.311 255.357 411.928 257.594ZM487.04 266.305C486.647 266.698 483.759 267.115 480.623 267.231C473.776 267.484 469.423 268.982 469.423 271.086C469.423 271.936 468.382 274.309 467.11 276.361C465.838 278.412 462.198 285.491 459.021 292.091C455.846 298.691 452.836 304.872 452.336 305.827C450.87 308.622 451.253 310.741 453.175 310.472C454.137 310.337 456.863 310.578 459.231 311.007C464.315 311.927 468.614 310.481 470.333 307.273C472.361 303.489 473.844 301.164 476.524 297.575C477.955 295.659 479.404 293.304 479.742 292.341C480.081 291.378 480.792 290.591 481.322 290.591C481.852 290.591 482.595 289.579 482.972 288.341C483.349 287.103 484.253 285.409 484.981 284.576C488.74 280.274 490.73 262.614 487.04 266.305ZM293.445 273.321C282.277 277.017 272.796 281.032 271.118 282.776C269.975 283.965 268.575 284.449 267.378 284.069C265.983 283.626 264.016 284.833 260.111 288.526C257.167 291.312 254.434 293.591 254.041 293.591C252.619 293.591 217.812 328.025 212.084 335.098C208.63 339.362 205.802 344.74 204.935 348.689C204.584 350.285 203.77 351.605 203.127 351.623C198.104 351.759 195.739 375.282 199.912 383.572C200.61 384.958 201.434 388.072 201.744 390.494C202.35 395.238 205.708 398.986 210.455 400.218C211.83 400.575 213.405 401.194 213.955 401.594C215.784 402.924 228.329 406.591 231.161 406.623C232.696 406.64 234.826 407.315 235.893 408.123C236.961 408.93 238.902 409.591 240.208 409.591C241.514 409.591 243.51 410.088 244.645 410.695C245.779 411.302 249.011 412.189 251.828 412.666C254.645 413.143 260.324 414.204 264.449 415.023C276.302 417.376 275.446 417.974 275.453 407.341C275.457 401.091 275.944 397.162 276.952 395.227C277.774 393.651 278.447 390.446 278.447 388.104C278.447 385.762 279.384 381.651 280.529 378.968C281.673 376.286 283.269 372.516 284.075 370.591C284.882 368.666 285.963 366.416 286.479 365.591C286.994 364.766 288.034 362.723 288.791 361.051C289.548 359.38 290.937 357.242 291.878 356.301C293.491 354.688 293.485 354.588 291.766 354.546C271.289 354.046 268.543 353.305 265.497 347.46C260.045 336.999 263.487 323.366 270.866 326.198C272.12 326.68 272.448 328.413 272.448 334.587C272.448 342.369 272.447 342.369 286.257 342.497C299.202 342.617 300.343 342.47 304.504 340.155C320.087 331.483 326.734 329.085 332.862 329.925C337.047 330.499 337.047 330.499 336.315 323.646C335.912 319.877 335.1 315.961 334.512 314.942C333.923 313.924 332.992 311.966 332.443 310.591C331.894 309.216 331.043 307.416 330.552 306.591C330.062 305.766 328.823 303.291 327.8 301.091C326.777 298.891 325.716 296.866 325.441 296.591C324.379 295.529 320.441 289.644 320.441 289.119C320.441 288.559 314.202 281.506 311.443 278.947C303.129 271.238 301.385 270.693 293.445 273.321ZM500.419 273.591C499.319 274.691 498.419 276.507 498.419 277.626C498.419 278.746 497.707 280.748 496.836 282.077C494.158 286.166 495.296 288.011 500.929 288.71C515.374 290.503 519.862 293.657 517.356 300.253C516.442 302.656 516.072 302.788 512.145 302.11C509.82 301.709 504.603 301.033 500.553 300.608C493.467 299.863 491.472 298.82 491.435 295.841C491.427 295.154 490.97 294.591 490.42 294.591C489.87 294.591 489.42 295.084 489.42 295.687C489.42 297.339 478.497 313.591 477.387 313.591C476.856 313.591 476.43 314.829 476.439 316.341C476.456 319.035 480.11 323.591 482.255 323.591C482.833 323.591 484.795 324.456 486.614 325.514C495.402 330.623 511.305 332.057 512.409 327.84C512.906 325.936 527.735 309.159 534.165 303.223C535.953 301.573 537.414 299.686 537.414 299.029C537.414 298.373 538.089 297.276 538.914 296.591C542.038 293.997 539.41 287.591 535.221 287.591C529.771 287.591 525.494 277.168 530.415 275.881C533.323 275.12 532.872 273.271 529.916 273.836C528.542 274.098 526.63 273.715 525.667 272.984C522.572 270.635 502.901 271.108 500.419 273.591ZM329.039 281.431C328.462 282.364 331.679 288.786 334.571 292.476C335.598 293.788 336.439 295.475 336.439 296.226C336.439 296.977 336.88 297.591 337.42 297.591C337.959 297.591 338.702 298.829 339.069 300.341C339.437 301.853 340.345 303.979 341.088 305.064C341.831 306.148 342.439 308.646 342.439 310.614C342.439 312.581 342.932 314.684 343.535 315.288C344.794 316.547 347.106 329.041 348.349 341.295C349.325 350.931 349.538 351.322 352.961 349.762C355.306 348.694 355.387 348.44 354.06 346.349C353.272 345.107 352.309 341.166 351.92 337.591C351.532 334.016 350.877 330.641 350.463 330.091C350.049 329.541 349.402 327.066 349.025 324.591C348.093 318.482 345.683 311.245 342.277 304.326C340.716 301.156 339.439 297.754 339.439 296.768C339.439 295.781 338.778 294.1 337.971 293.032C337.164 291.965 336.488 290.373 336.471 289.496C336.453 288.619 335.54 287.086 334.44 286.091C333.34 285.096 332.44 283.451 332.44 282.436C332.44 280.582 330.008 279.863 329.039 281.431ZM548.413 300.986C547.588 302.301 545 305.716 542.663 308.574C537.654 314.699 537.553 315.256 541.164 316.84C548.268 319.955 553.412 330.115 553.412 341.029C553.412 347.016 553.718 348.591 554.882 348.591C556.795 348.591 569.41 336.163 569.41 334.279C569.41 333.486 570.085 332.276 570.91 331.591C573.4 329.524 572.881 319.445 569.994 313.808C564.151 302.397 552.04 295.202 548.413 300.986ZM387.433 321.009C387.433 327.381 387.986 327.667 393.854 324.325C398.453 321.706 399.583 319.591 396.383 319.591C395.165 319.591 392.652 318.654 390.801 317.509C387.433 315.428 387.433 315.428 387.433 321.009ZM436.74 317.678C436.142 318.276 431.89 319.015 427.291 319.322C420.208 319.794 418.454 320.278 415.823 322.485C409.914 327.441 408.405 328.591 407.812 328.591C407.485 328.591 405.554 329.91 403.519 331.521C401.484 333.133 397.258 335.495 394.128 336.771C386.263 339.976 386.403 341.683 394.644 343.051C400.098 343.957 400.712 348.228 396.517 356.091C393.788 361.206 393.432 362.823 393.432 370.109C393.432 376.211 393.043 378.669 391.932 379.591C391.108 380.276 390.432 382.025 390.432 383.478C390.432 384.932 389.533 387.8 388.433 389.852C387.333 391.905 386.433 394.182 386.433 394.913C386.433 395.644 385.28 397.326 383.871 398.65C379.626 402.638 377.713 406.757 376.992 413.461C376.029 422.427 369.924 431.591 364.916 431.591C363.059 431.591 362.335 432.25 361.894 434.341C361.575 435.853 360.666 438.569 359.875 440.375C359.084 442.181 358.437 444.261 358.437 444.998C358.437 445.734 357.499 448.456 356.353 451.047C355.207 453.638 354.594 456.057 354.99 456.424C355.387 456.791 355.912 456.529 356.157 455.841C356.819 453.988 363.095 454.259 363.829 456.173C365.726 461.117 364.344 472.076 361.545 474.281C356.994 477.866 354.072 478.146 352.468 475.149C350.711 471.866 348.438 471.836 348.438 475.095C348.438 476.472 347.538 479.277 346.438 481.33C345.338 483.382 344.438 485.829 344.438 486.767C344.438 487.705 343.988 488.751 343.438 489.091C342.888 489.431 342.436 490.695 342.433 491.9C342.429 493.105 341.754 495.38 340.933 496.955C340.111 498.531 339.439 500.682 339.439 501.737C339.439 502.791 338.764 503.913 337.939 504.229C337.114 504.546 336.439 505.911 336.439 507.263C336.439 509.67 333.728 517.305 330.877 522.922C330.087 524.479 329.44 526.58 329.44 527.591C329.44 528.602 328.765 530.815 327.94 532.51C327.115 534.205 325.766 536.977 324.941 538.672C324.116 540.367 323.441 543.034 323.441 544.601C323.441 546.167 322.766 548.123 321.941 548.948C321.116 549.773 320.441 550.932 320.441 551.523C320.441 552.114 319.542 554.277 318.442 556.33C317.342 558.382 316.442 560.819 316.442 561.744C316.442 562.669 315.37 565.601 314.06 568.259C312.751 570.917 311.091 575.454 310.372 578.341C309.653 581.228 308.75 583.591 308.365 583.591C307.98 583.591 307.37 585.166 307.009 587.091C306.648 589.016 305.959 590.591 305.477 590.591C304.996 590.591 304.286 592.054 303.899 593.841C303.512 595.628 301.901 599.666 300.32 602.812C298.738 605.959 297.444 609.392 297.444 610.44C297.444 611.488 296.77 612.906 295.945 613.591C295.12 614.276 294.445 615.612 294.445 616.56C294.445 617.509 293.545 619.323 292.445 620.591C291.345 621.859 290.445 623.503 290.445 624.244C290.445 624.985 290.004 625.591 289.464 625.591C288.925 625.591 288.196 626.734 287.846 628.13C287.216 630.645 281.783 635.591 279.652 635.591C279.044 635.591 278.146 636.307 277.656 637.181C275.922 640.28 271.985 638.529 271.648 634.509C271.383 631.356 272.014 630.217 276.914 625.009C280.679 621.007 283.959 616.014 287.043 609.591C293.838 595.435 294.32 594.331 295.021 591.332C295.376 589.814 296.066 588.325 296.555 588.023C297.044 587.72 297.444 586.536 297.444 585.392C297.444 583.495 299.322 578.752 303.039 571.26C303.812 569.703 304.443 567.651 304.443 566.701C304.443 565.751 305.104 564.1 305.911 563.032C306.719 561.965 307.394 560.361 307.411 559.468C307.429 558.576 308.38 555.651 309.525 552.968C312.47 546.066 314.445 541.41 315.408 539.091C315.866 537.991 317.24 533.941 318.462 530.091C319.684 526.241 321.124 522.541 321.661 521.869C322.199 521.197 323.019 519.172 323.484 517.369C325.038 511.337 327.598 504.136 329.982 499.091C331.281 496.341 332.641 492.849 333.003 491.332C333.365 489.814 334.036 488.341 334.493 488.058C334.95 487.776 335.636 485.417 336.019 482.818C336.402 480.218 337.329 477.203 338.077 476.118C338.826 475.034 339.439 472.819 339.439 471.197C339.439 469.575 340.047 467.538 340.79 466.67C342.132 465.1 345.438 455.772 345.438 453.554C345.438 452.916 346.046 450.975 346.789 449.242C349.467 442.994 352.327 434.976 353.98 429.091C354.906 425.791 356.288 421.897 357.051 420.437C361.755 411.428 359.324 410.442 342.92 414.704C336.332 416.416 329.289 418.103 327.271 418.454C324.594 418.918 322.743 420.174 320.433 423.091C314.597 430.464 292.128 434.639 283.851 429.889C282.698 429.227 277.524 428.38 272.352 428.005C267.18 427.631 262.433 426.919 261.805 426.423C261.176 425.927 258.251 425.27 255.305 424.962C252.36 424.654 248.532 423.769 246.8 422.996C245.067 422.223 242.367 421.588 240.801 421.585C239.234 421.581 236.663 420.906 235.088 420.085C233.512 419.263 231.135 418.591 229.804 418.591C228.472 418.591 226.386 417.959 225.168 417.187C223.95 416.415 221.044 415.476 218.709 415.1C216.375 414.724 214.212 414.006 213.901 413.504C213.591 413.002 212.239 412.591 210.896 412.591C209.553 412.591 207.657 411.804 206.681 410.841C205.706 409.878 203.209 408.191 201.132 407.091C196.197 404.476 192.457 398.127 192.457 392.363C192.457 388.106 191.167 385.591 188.981 385.591C187.203 385.591 176.517 396.431 176.42 398.332C176.399 398.75 174.955 399.991 173.209 401.091C171.463 402.191 169.005 404.666 167.747 406.591C166.49 408.516 164.448 411.402 163.211 413.004C160.889 416.013 157.69 421.017 150.373 433.091C148.039 436.941 145.772 440.332 145.335 440.626C144.898 440.92 143.886 442.729 143.085 444.646C142.284 446.563 140.692 448.98 139.547 450.016C138.401 451.053 137.464 452.411 137.464 453.034C137.464 453.657 136.132 455.725 134.506 457.629C132.878 459.533 131.528 461.48 131.506 461.957C131.483 462.433 129.44 465.868 126.966 469.591C124.491 473.314 122.466 476.77 122.466 477.272C122.466 478.248 120.072 481.639 117.217 484.71C116.255 485.744 115.467 487.086 115.467 487.69C115.467 488.667 108.767 500.324 107.477 501.591C106.339 502.709 102.469 508.555 102.469 509.155C102.469 509.51 101.119 511.801 99.4691 514.246C97.8193 516.691 96.4696 519.03 96.4696 519.444C96.4696 519.858 95.1735 521.973 93.5887 524.144C92.0049 526.315 90.4012 529.522 90.0252 531.272C89.6493 533.021 88.6955 534.989 87.9066 535.644C87.1167 536.3 86.4705 537.401 86.4705 538.091C86.4705 538.781 85.7959 539.906 84.971 540.591C84.1201 541.297 83.471 543.478 83.471 545.632C83.471 550.747 82.6409 552.576 79.8353 553.643C76.6027 554.872 77.4268 561.439 81.9613 570.591C82.6422 571.966 83.5138 574.441 83.8978 576.091C84.2817 577.741 85.9177 580.752 87.5335 582.782C89.1483 584.813 90.47 586.703 90.47 586.982C90.47 588.252 96.6253 596.437 97.9671 596.952C98.793 597.269 99.4691 598.275 99.4691 599.188C99.4691 600.101 102.551 603.828 106.317 607.47C110.084 611.111 114.47 615.926 116.066 618.17C120.169 623.938 125.805 628.591 128.69 628.591C131.369 628.591 142.065 632.033 143.855 633.471C144.465 633.961 150.363 636.017 156.962 638.04C163.561 640.063 170.76 642.326 172.96 643.07C182.74 646.374 191.443 648.517 197.457 649.102C201.031 649.45 208.156 650.849 213.29 652.212C224.86 655.283 255.518 659.735 258.424 658.766C258.988 658.578 259.449 656.891 259.449 655.016C259.449 652.733 260.522 650.168 262.699 647.245C264.486 644.845 266.464 642.028 267.095 640.986C268.158 639.229 268.449 639.202 271.095 640.622C274.492 642.446 275.627 648.367 272.998 650.549C272.145 651.257 271.448 652.294 271.448 652.853C271.448 653.413 270.803 654.37 270.016 654.981C262.593 660.741 280.667 662.153 300.444 657.358C306.218 655.958 312.067 654.833 313.442 654.859C315.931 654.906 345.011 647.539 349.553 645.712C353.078 644.293 361.185 641.976 367.435 640.601C370.46 639.936 374.819 638.556 377.121 637.535C379.423 636.514 384.113 634.951 387.544 634.062C390.974 633.173 396.819 630.944 400.532 629.109C404.244 627.274 408.327 625.443 409.605 625.041C410.884 624.638 413.495 623.022 415.408 621.45C417.32 619.877 419.441 618.591 420.122 618.591C420.802 618.591 421.885 617.607 422.529 616.404C424.489 612.74 426.771 610.909 430.19 610.258C431.984 609.916 435.902 607.826 438.896 605.614C441.89 603.401 444.729 601.591 445.202 601.591C445.677 601.591 447.847 600.067 450.022 598.204C452.199 596.341 455.592 593.978 457.562 592.954C468.23 587.408 471.676 583.991 471.82 578.812C471.899 575.969 472.453 574.858 474.172 574.104C475.429 573.552 476.425 572.228 476.428 571.104C476.432 569.997 477.107 567.802 477.928 566.227C478.749 564.651 479.425 561.276 479.428 558.727C479.432 556.177 480.175 552.741 481.079 551.091C482.369 548.739 482.815 544.392 483.142 530.981C483.601 512.183 484.158 513.51 473.422 507.852C459.644 500.592 449.612 491.521 440.501 478.09C427.929 459.556 428.958 460.815 428.658 463.591C427.567 473.711 425.517 475.719 418.535 473.511C411.81 471.384 409.948 463.372 414.93 457.996C416.304 456.513 417.429 454.721 417.429 454.015C417.429 453.308 418.441 452.586 419.679 452.411C421.607 452.137 422.019 451.303 422.561 446.591C422.909 443.566 423.697 439.824 424.311 438.276C424.925 436.728 425.428 433.001 425.428 429.994C425.428 426.987 426.103 422.911 426.928 420.937C427.753 418.962 428.428 415.812 428.428 413.937C428.428 412.061 429.109 408.897 429.941 406.905C430.773 404.914 431.223 403.053 430.941 402.771C430.659 402.489 430.428 402.747 430.428 403.345C430.428 405.404 424.456 405.926 422.381 404.048C419.617 401.546 418.814 395.941 420.681 392.181C421.525 390.482 422.813 387.519 423.544 385.598C426.717 377.255 432.288 373.644 436.477 377.217C438.212 378.696 440.531 375.709 441.806 370.354C442.78 366.265 447.005 363.743 449.202 365.94C451.262 367.999 451.124 375.339 448.946 379.55C448.11 381.168 447.426 383.491 447.426 384.713C447.426 385.934 446.828 387.644 446.098 388.512C445.369 389.381 443.993 393.016 443.04 396.591C441.181 403.571 440.101 407.064 438.943 409.841C437.799 412.583 440.486 411.933 444.176 408.576C445.964 406.95 447.426 405.199 447.426 404.685C447.426 402.31 458.747 390.591 461.041 390.591C463.58 390.591 464.73 383.517 462.424 382.091C461.833 381.726 461.424 375.655 461.424 367.254C461.424 355.322 461.143 352.639 459.674 350.564C457.812 347.932 455.784 343.023 454.513 338.067C454.087 336.405 453.22 334.077 452.587 332.894C451.955 331.712 450.94 328.429 450.333 325.599C449.636 322.346 448.622 320.276 447.577 319.971C446.67 319.706 444.652 318.837 443.095 318.04C439.712 316.308 438.196 316.222 436.74 317.678ZM460.424 325.885C460.424 327.807 461.121 329.924 461.99 330.646C463.376 331.797 463.52 331.448 463.24 327.596C462.852 322.259 460.424 320.784 460.424 325.885ZM525.415 327.238C522.889 330.361 521.32 333.627 521.896 334.559C523.473 337.111 517.757 340.864 511.364 341.476C503.798 342.2 503.02 343.491 507.159 348.45C514.672 357.449 539.001 348.122 540.818 335.548C541.905 328.028 529.977 321.594 525.415 327.238ZM472.426 332.081C471.875 333.529 471.429 344.013 471.432 355.401C471.441 385.721 471.466 386.553 472.42 388.921C473.444 391.46 473.486 391.252 473.776 382.162C473.915 377.795 474.445 375.083 475.209 374.829C475.927 374.589 476.422 372.532 476.422 369.79C476.422 363.683 479.985 349.33 483.011 343.249C486.135 336.971 486.175 337.135 480.887 334.574C478.393 333.367 475.694 331.721 474.889 330.915C473.604 329.63 473.303 329.773 472.426 332.081ZM336.439 334.84C336.439 336.926 330.413 341.591 327.718 341.591C322.688 341.591 323.355 344.089 330.026 350.227C338.838 358.335 339.996 357.621 339.152 344.595C338.654 336.899 336.439 328.937 336.439 334.84ZM306.27 357.072C305.648 358.436 304.421 359.782 303.542 360.063C300.387 361.072 291.494 374.581 291.411 378.49C291.392 379.371 290.508 381.891 289.445 384.091C288.382 386.291 287.499 389.302 287.48 390.782C287.461 392.262 287.054 393.714 286.577 394.01C285.301 394.799 284.498 405.322 285.273 411.091C285.893 415.694 286.264 416.243 289.945 418.004C292.145 419.056 294.786 420.33 295.813 420.836C297.018 421.429 298.064 421.371 298.762 420.673C299.357 420.078 301.029 419.591 302.477 419.591C305.657 419.591 306.761 418.679 305.466 417.119C302.495 413.538 307.933 378.637 312.016 375.077C312.656 374.519 313.517 372.527 313.929 370.649C314.342 368.772 316.02 365.056 317.659 362.392C321.686 355.847 321.008 354.591 313.452 354.591C307.98 354.591 307.292 354.828 306.27 357.072ZM366.436 356.091C365.751 356.916 364.459 357.594 363.564 357.597C362.668 357.601 360.647 358.276 359.073 359.097C357.497 359.919 355.43 360.591 354.478 360.591C353.526 360.591 351.933 361.491 350.938 362.591C349.943 363.691 348.292 364.591 347.269 364.591C346.247 364.591 344.629 364.987 343.674 365.472C338.086 368.307 332.522 370.591 331.203 370.591C330.369 370.591 329.125 371.266 328.44 372.091C327.755 372.916 326.381 373.591 325.386 373.591C324.39 373.591 323.29 374.491 322.941 375.591C322.592 376.691 321.947 377.591 321.509 377.591C319.465 377.591 314.04 399.608 314.609 405.591C314.96 409.285 318.957 411.057 321.751 408.757C322.406 408.219 325.191 407.454 327.94 407.058C330.69 406.663 333.458 405.928 334.09 405.425C334.723 404.923 338.081 404.054 341.555 403.495C345.028 402.936 348.335 402.104 348.904 401.647C349.473 401.191 351.963 400.485 354.437 400.079C356.912 399.673 359.825 398.722 360.909 397.966C361.993 397.21 364.076 396.591 365.536 396.591C366.996 396.591 368.726 395.945 369.382 395.155C370.037 394.366 371.862 393.437 373.437 393.091C376.164 392.491 380.375 386.634 380.468 383.31C380.487 382.64 381.371 380.291 382.433 378.091C385.439 371.869 385.363 356.439 382.342 359.175C380.273 361.047 380.217 361.032 377.356 357.83C374.138 354.227 368.701 353.362 366.436 356.091ZM433.954 435.855C431.926 438.752 432.013 439.704 434.773 444.898C436.064 447.325 437.368 450.837 437.67 452.702C438.257 456.316 448.081 473.591 449.551 473.591C450.032 473.591 450.425 474.194 450.425 474.931C450.425 476.958 465.845 491.257 470.679 493.711C473.012 494.896 475.995 496.704 477.306 497.728C481.223 500.788 483.421 500.191 483.421 496.066C483.421 493.273 482.927 492.354 481.039 491.636C477.889 490.438 472.255 482.425 467.949 473.015C467.175 471.323 464.49 467.657 461.983 464.868C459.476 462.079 457.424 459.301 457.424 458.694C457.424 458.087 457.053 457.591 456.599 457.591C456.145 457.591 454.009 455.125 451.85 452.11C449.691 449.096 445.789 444.307 443.176 441.469C440.563 438.63 438.427 435.97 438.427 435.556C438.427 433.662 435.347 433.868 433.954 435.855ZM448.169 501.08C455.984 513.05 449.622 527.788 440.555 518.719C436.041 514.205 433.738 503.156 436.054 497.121C437.529 493.277 444.578 495.58 448.169 501.08ZM334.584 545.841C339.127 554.261 331.384 566.934 324.692 562.03C322.205 560.207 322.463 550.335 325.072 547.433C328.765 543.326 332.857 542.641 334.584 545.841ZM81.7498 606.698C79.1212 609.459 75.8577 612.703 74.4969 613.905C73.1361 615.107 70.4997 617.557 68.64 619.349C66.7792 621.141 64.1804 622.877 62.8655 623.207C61.3787 623.581 60.4739 624.537 60.4739 625.735C60.4739 626.794 59.7357 628.788 58.8328 630.165C56.4691 633.773 56.389 644.316 58.7117 646.02C65.1639 650.751 85.2651 648.089 92.2542 641.578C93.2661 640.635 95.7505 639.077 97.7752 638.116C102.534 635.858 109.468 629.119 109.468 626.752C109.468 625.74 106.43 621.789 102.719 617.973C99.007 614.157 94.3948 609.141 92.47 606.826C87.6396 601.016 87.1601 601.011 81.7498 606.698ZM47.3475 616.841C47.2775 616.978 47.0662 617.991 46.8782 619.091C44.4405 633.352 44.137 633.94 33.5823 644.756C24.7824 653.773 24.4716 654.129 18.4163 662.091C9.8674 673.333 8.08021 680.147 12.1297 686.064C12.8716 687.148 13.4798 688.879 13.4798 689.909C13.4798 690.939 14.1198 692.977 14.9017 694.437C15.6826 695.897 16.5875 697.766 16.9124 698.591C17.7803 700.801 24.0324 710.007 28.4778 715.62C30.5216 718.201 38.0895 719.042 38.9554 716.784C39.7913 714.606 38.4409 699.687 37.346 699.01C33.3925 696.566 37.0957 690.28 43.4759 688.607C48.1763 687.374 49.7293 686.72 65.8123 679.194C71.2236 676.662 76.0371 674.591 76.5101 674.591C76.982 674.591 78.5829 673.466 80.0667 672.091C81.5495 670.716 83.4851 669.577 84.367 669.559C87.7856 669.491 89.9306 666.82 88.5858 664.305C86.899 661.154 83.5358 659.126 82.2039 660.458C81.497 661.165 80.2171 660.994 78.1214 659.91C76.0237 658.825 72.4785 658.351 66.7762 658.393C57.9013 658.459 48.4754 653.501 48.4754 648.768C48.4754 647.791 47.9632 646.479 47.3362 645.852C46.4854 645.001 46.4904 642.437 47.3563 635.684C48.7811 624.571 48.8491 624.392 52.5057 622.232C56.0372 620.145 56.3375 618.055 53.2249 617.221C50.9312 616.606 47.5784 616.389 47.3475 616.841ZM416.93 632.343C410.984 636.259 404.519 639.591 402.865 639.591C402.061 639.591 400.622 640.005 399.667 640.511C393.413 643.823 389.086 645.591 387.23 645.591C383.204 645.591 377.488 648.92 377.46 651.28C377.446 652.484 375.862 656.534 373.94 660.28C372.018 664.026 370.443 668.066 370.44 669.258C370.437 670.449 369.989 671.574 369.445 671.758C367.315 672.475 366.984 684.516 369.038 686.496C370.082 687.501 371.61 689.343 372.435 690.591C373.26 691.839 374.529 693.361 375.256 693.975C375.983 694.589 378.349 696.729 380.512 698.73C383.991 701.948 390.001 705.97 402.257 713.283C415.229 721.022 427.809 707.189 420.621 693.091C415.131 682.321 414.719 669.009 419.586 659.626C421.15 656.612 422.445 653.459 422.465 652.619C422.511 650.671 426.124 646.486 429.678 644.264C433.475 641.889 433.17 639.821 428.901 639.02C424.963 638.281 422.998 635.624 423.695 631.979C424.302 628.804 422.124 628.922 416.93 632.343Z"
  />
</svg>
