<svg
  width="588"
  height="755"
  viewBox="0 0 588 755"
  fill="none"
  xmlns="http://www.w3.org/2000/svg"
>
  <path
    fill-rule="evenodd"
    clip-rule="evenodd"
    fill="black"
    d="M351.345 4.55138C357.013 8.55238 365.721 21.4645 368.257 29.6285C368.7 31.0525 369.294 31.1445 372.231 30.2435C377.265 28.6985 380.897 29.8694 380.897 33.0384C380.897 36.1014 379.244 39.4535 377.733 39.4535C376.116 39.4535 368.967 46.1445 364.425 51.9105C362.239 54.6845 359.876 57.3135 359.175 57.7535C358.474 58.1935 357.882 59.0935 357.859 59.7535C357.837 60.4135 356.487 62.5114 354.859 64.4154C353.232 66.3194 351.901 68.4574 351.901 69.1654C351.901 69.8744 351.494 70.4535 350.998 70.4535C350.502 70.4535 349.605 71.8644 349.003 73.5904C346.186 81.6704 337.558 80.8825 339.52 72.7245C340.483 68.7175 343.778 62.4535 344.922 62.4535C345.46 62.4535 345.901 61.9985 345.901 61.4435C345.901 60.1905 352.21 50.9975 355.843 46.9535C360.955 41.2665 361.851 39.1554 360.328 36.4034C359.581 35.0554 358.954 32.9785 358.934 31.7865C358.915 30.5955 358.536 29.4705 358.091 29.2865C357.646 29.1035 355.815 26.3695 354.022 23.2115C350.504 17.0125 345.89 11.8435 343.742 11.6925C343.005 11.6405 341.424 11.2976 340.228 10.9296C336.734 9.85356 322.904 27.2156 322.904 32.6786C322.904 33.4346 322.544 34.4815 322.104 35.0035C321.049 36.2565 315.761 50.4355 313.731 57.4535C313.175 59.3785 312.312 61.3804 311.813 61.9034C311.314 62.4254 310.906 64.2834 310.906 66.0314C310.906 67.7784 310.291 69.7184 309.54 70.3414C308.789 70.9654 307.889 73.5624 307.539 76.1134C307.189 78.6644 306.418 81.3364 305.826 82.0504C305.233 82.7644 304.347 85.7355 303.858 88.6515C301.989 99.7865 299.874 110.049 298.953 112.453C296.292 119.403 297.092 122.928 301.407 123.27C303.607 123.444 305.833 124.007 306.356 124.52C306.878 125.033 309.128 125.457 311.356 125.46C313.582 125.464 316.611 126.095 318.086 126.864C321.415 128.601 323.886 126.494 323.936 121.874C323.953 120.268 324.628 118.08 325.436 117.013C326.243 115.945 326.904 113.654 326.904 111.92C326.904 108.616 330.735 100.342 332.546 99.7394C335.845 98.6394 338.396 103.158 337.136 107.867C336.457 110.406 335.902 113.324 335.902 114.353C335.902 115.382 335.231 117.513 334.409 119.089C333.588 120.664 332.913 122.914 332.909 124.089C332.906 125.263 332.231 127.513 331.409 129.089C330.588 130.664 329.913 133.205 329.909 134.735C329.906 136.265 329.228 139.134 328.403 141.108C327.579 143.083 326.901 145.656 326.898 146.826C326.894 147.996 326.254 150.177 325.474 151.672C324.694 153.167 323.744 156.884 323.363 159.934C322.982 162.984 322.319 165.698 321.889 165.963C321.459 166.229 320.785 169.71 320.392 173.7C319.999 177.69 319.22 181.82 318.662 182.878C317.803 184.508 314.74 211.811 314.727 217.953C314.714 224.174 317.828 237.82 319.683 239.676C323.162 243.155 323.904 241.164 323.904 228.345C323.904 220.138 324.338 215.502 325.281 213.653C326.094 212.058 326.84 206.453 327.104 199.953C327.35 193.903 328.019 188.053 328.592 186.953C330.331 183.618 332.049 178.226 333.053 172.953C333.577 170.203 334.658 166.536 335.453 164.803C336.25 163.07 336.916 160.37 336.934 158.803C336.951 157.236 337.626 155.08 338.434 154.013C339.241 152.945 339.916 150.695 339.934 149.013C339.951 147.33 340.626 145.08 341.434 144.013C342.241 142.945 342.905 140.92 342.908 139.513C342.912 138.105 343.587 135.664 344.408 134.089C345.229 132.513 345.901 130.437 345.901 129.474C345.901 126.699 349.805 122.453 352.357 122.453C355.969 122.453 357.083 128.662 354.394 133.818C353.572 135.394 352.901 137.316 352.901 138.092C352.901 138.868 352.001 142.064 350.901 145.193C347.543 154.747 348.508 155.246 356.385 148.03C358.533 146.063 360.652 144.453 361.094 144.453C361.537 144.453 361.899 143.637 361.899 142.638C361.899 141.639 363.365 139.502 365.157 137.888C373.893 130.02 381.982 115.115 384.66 101.953C385.974 95.4955 393.833 95.6105 393.88 102.088C393.924 108.22 388.251 122.175 381.332 132.953C376.197 140.953 376.197 140.954 380.998 141.255C383.93 141.438 386.968 140.951 388.798 140.005C390.447 139.152 393.307 138.453 395.154 138.453C397.001 138.453 399.386 137.792 400.453 136.985C401.52 136.177 402.976 135.502 403.688 135.485C405.768 135.434 417.765 126.093 425.891 118.199C439.873 104.614 441.992 103.809 445.643 110.703C446.882 113.041 447.892 115.38 447.891 115.901C447.879 120.082 461.33 136.01 469.886 141.946C472.91 144.044 476.626 147.043 478.144 148.608C483.06 153.681 483.783 152.721 484.1 140.703C484.384 129.953 484.384 129.954 487.654 129.639C490.527 129.362 491.1 129.728 492.365 132.639C493.157 134.462 493.822 135.421 493.844 134.77C493.901 133.039 497.505 132.181 499.726 133.37C501.494 134.316 501.705 136.145 502.381 156.44C502.785 168.562 503.514 178.726 503.999 179.026C504.485 179.327 504.935 183.933 504.999 189.263C505.233 208.521 506.306 219.32 507.672 216.139C508.337 214.591 508.881 212.214 508.881 210.857C508.881 209.5 509.556 206.773 510.38 204.799C511.988 200.949 512.43 191.837 511.035 191.286C509.405 190.644 508.835 185.642 510.232 184.245C510.975 183.501 511.814 180.497 512.095 177.567C512.377 174.638 513.188 171.881 513.896 171.444C515.878 170.218 515.377 114.633 513.348 110.744C512.506 109.129 511.89 105.176 511.886 101.358C511.883 97.5395 511.256 93.5075 510.396 91.7845C509.569 90.1265 508.824 85.5624 508.715 81.4774C508.558 75.6544 507.957 73.0994 505.791 69.0504C504.291 66.2474 501.356 60.5785 499.27 56.4535C497.183 52.3285 494.207 47.6035 492.656 45.9535C488.511 41.5465 489.07 37.0786 493.82 36.6266C496.404 36.3806 497.656 36.8276 498.864 38.4296C500.465 40.5516 500.493 40.5395 505.824 35.5065C508.769 32.7275 511.603 30.4535 512.122 30.4535C512.641 30.4535 514.209 29.5535 515.607 28.4535C520.542 24.5705 536.878 31.2245 536.878 37.1175C536.878 37.8565 537.777 40.1395 538.877 42.1925C540.337 44.9165 540.877 47.8344 540.877 52.9974C540.877 57.6694 541.375 60.7306 542.344 62.0126C544.464 64.8146 544.491 106.753 542.377 110.453C541.363 112.227 540.923 116.585 540.861 125.453C540.813 132.328 540.333 141.103 539.793 144.953C539.253 148.803 538.244 156.678 537.552 162.453C536.859 168.228 535.75 173.937 535.085 175.138C532.046 180.637 539.591 182.582 549.876 178.953C555.335 177.027 568.504 177.027 571.873 178.953C573.248 179.739 576.587 180.399 579.293 180.419C592.329 180.512 590.332 190.277 574.992 201.449C571.627 203.9 568.873 206.151 568.873 206.451C568.873 206.75 566.737 208.11 564.124 209.474C561.511 210.837 559.226 212.29 559.043 212.701C558.597 213.703 538.211 223.453 536.562 223.453C535.846 223.453 534.387 224.121 533.319 224.937C532.252 225.753 529.711 226.891 527.673 227.464C522.866 228.817 520.88 230.891 520.88 234.56C520.88 236.19 520.24 238.52 519.459 239.738C518.677 240.956 517.284 244.428 516.363 247.453C515.443 250.478 514.099 254.303 513.378 255.953C506.446 271.798 506.902 273.007 520.863 275.8C525.833 276.794 526.879 278.138 526.879 283.526C526.879 286.962 527.352 288.619 528.52 289.273C530.876 290.592 540.877 308.425 540.877 311.308C540.877 311.849 541.628 313.79 542.546 315.622C543.463 317.454 544.638 319.812 545.153 320.862C548.137 326.931 551.205 342.994 551.378 353.453C551.437 357.028 551.863 363.466 552.324 367.76C553.002 374.079 552.83 376.652 551.426 381.26C550.473 384.391 549.24 388.528 548.688 390.453C547.709 393.864 545.025 400.409 542.538 405.453C540.849 408.877 534.438 412.028 527.36 412.912C524.117 413.317 519.28 414.703 516.611 415.991C512.047 418.193 511.659 418.23 510.07 416.632C508.481 415.034 508.048 415.102 502.775 417.752C493.75 422.287 480.331 422.326 473.171 417.84C471.953 417.077 470.446 416.453 469.822 416.453C469.199 416.453 467.185 415.741 465.348 414.869C459.493 412.09 458.513 412.964 457.387 421.961C456.837 426.357 456.112 430.403 455.776 430.953C455.44 431.503 454.881 433.141 454.535 434.593C452.755 442.054 444.889 437.042 444.889 428.447C444.889 426.865 444.474 425.315 443.966 425.002C443.458 424.688 442.737 423.035 442.362 421.331C441.564 417.692 440.39 418.467 437.032 424.853C434.981 428.753 434.981 428.754 437.545 433.129C439.7 436.807 440.001 438.226 439.429 442.041C439.014 444.809 439.166 447.081 439.818 447.867C440.405 448.576 441.15 451.36 441.473 454.055C442.09 459.213 443.099 461.886 448.416 472.453C453.822 483.199 455.35 485.937 456.137 486.286C456.55 486.47 456.887 487.121 456.887 487.734C456.887 488.346 457.958 490.446 459.268 492.4C460.577 494.355 463.674 499.103 466.149 502.953C468.623 506.803 471.621 510.83 472.812 511.901C482.712 520.802 482.987 564.162 473.131 562.263C469.919 561.644 469.245 548.034 472.054 540.54C472.633 538.998 472.585 537.753 471.922 537.09C471.353 536.52 470.886 533.522 470.886 530.428C470.886 525.648 470.493 524.438 468.274 522.378C465.454 519.761 457.887 508.872 457.887 507.432C457.887 506.948 457.325 506.194 456.637 505.754C455.95 505.314 454.272 502.816 452.909 500.203C451.545 497.59 450.083 495.453 449.659 495.453C449.235 495.453 448.888 494.834 448.888 494.076C448.888 493.319 448.243 492.162 447.453 491.506C446.664 490.851 445.728 488.996 445.374 487.384C445.02 485.772 444.419 484.453 444.039 484.453C442.913 484.453 437.435 473.029 435.406 466.453C434.19 462.51 432.546 461.856 432.08 465.13C431.555 468.818 429.3 469.952 426.342 468.014C422.937 465.782 422.308 463.79 423.828 460.057C424.523 458.35 425.427 453.199 425.837 448.609C426.283 443.604 427.097 439.944 427.869 439.467C428.893 438.834 428.822 438.193 427.524 436.339C425.527 433.488 425.406 427.192 427.278 423.608C428.041 422.148 429.171 419.828 429.789 418.453C430.407 417.078 431.802 414.603 432.89 412.953C433.978 411.303 435.146 409.278 435.486 408.453C435.826 407.628 436.843 405.378 437.747 403.453C440.769 397.012 440.688 366.495 437.639 362.949C435.263 360.186 435.263 360.186 432.972 369.825C431.712 375.127 430.28 379.713 429.787 380.017C429.294 380.322 428.891 381.863 428.891 383.441C428.891 385.019 427.714 390.504 426.276 395.631C424.838 400.758 423.117 407.203 422.45 409.953C421.783 412.703 420.937 415.628 420.57 416.453C417.405 423.57 414.779 467.827 416.768 480.52C419.115 495.49 420.19 498.337 433.944 525.973C441.613 541.384 447.888 554.449 447.888 555.01C447.888 556.916 454.513 571.937 457.276 576.295C460.382 581.196 463.886 580.208 463.886 574.433C463.886 572.942 464.82 570.538 465.96 569.089C471.619 561.893 476.645 571.311 471.885 580.193C470.786 582.245 469.886 584.473 469.886 585.144C469.886 585.816 468.536 588.655 466.886 591.453C465.237 594.251 463.886 596.724 463.886 596.947C463.886 598.175 457.038 607.39 454.203 609.978C452.38 611.642 450.888 613.426 450.888 613.942C450.888 615.247 442.709 623.453 441.408 623.453C440.822 623.453 438.075 624.916 435.302 626.703C427.651 631.635 424.232 633.453 422.61 633.453C421.8 633.453 420.622 634.074 419.992 634.832C419.362 635.591 417.608 636.461 416.093 636.764C413.337 637.315 410.932 641.182 409.384 647.553C408.845 649.77 409.199 650.338 411.786 651.41C418.392 654.146 420.784 663.914 416.842 672.057C415.069 675.721 409.303 681.453 407.389 681.453C407.038 681.453 406.076 682.128 405.251 682.953C404.426 683.778 402.883 684.453 401.823 684.453C400.249 684.453 399.894 685.168 399.894 688.331C399.894 690.557 399.256 692.738 398.395 693.453C396.429 695.084 396.316 705.728 398.247 707.331C399.082 708.023 399.856 711.794 400.269 717.176C400.638 721.974 401.38 726.34 401.917 726.877C403.449 728.409 403.062 736.977 401.248 741.683C395.579 756.39 373.272 759.617 358.948 747.8C353.062 742.945 342.312 731.633 337.858 725.608C335.22 722.039 335.435 689.895 338.128 685.182C338.953 683.738 339.425 678.726 339.468 670.953C339.554 655.266 339.438 655.883 342.902 652.796C344.873 651.039 345.901 649.171 345.901 647.345C345.901 643.053 348.611 641.871 359.097 641.593C364.213 641.458 370.198 640.883 372.398 640.314C381.113 638.061 402.611 631.116 405.663 629.568C409.653 627.546 416.658 624.453 417.249 624.453C421.997 624.453 442.701 609.665 448.05 602.453C454.971 593.123 455.091 586.899 448.489 579.779C447.132 578.314 445.731 575.96 445.376 574.546C445.021 573.131 444.284 571.697 443.737 571.359C443.191 571.022 442.352 569.217 441.873 567.349C440.388 561.562 437.616 554.112 435.585 550.453C433.218 546.189 423.328 526.537 422.501 524.453C422.173 523.628 421.508 522.278 421.024 521.453C419.886 519.515 412.81 504.561 411.797 501.953C411.37 500.853 410.575 497.478 410.031 494.453C409.487 491.428 408.569 487.153 407.991 484.953C406.818 480.484 406.629 449.983 407.757 447.118C408.154 446.108 408.059 442.459 407.543 439.009C406.772 433.852 406.898 432.152 408.249 429.442C409.153 427.63 409.893 424.657 409.893 422.835C409.893 421.014 410.517 417.595 411.281 415.238C414.266 406.019 414.186 404.314 410.919 407.58C405.805 412.696 399.985 411.066 398.027 403.97C397.113 400.66 397.305 399.23 399.935 389.784C402.09 382.048 406.905 379.135 409.161 384.203C413.54 394.046 418 393.885 419.42 383.833C419.799 381.149 420.735 377.956 421.5 376.738C422.266 375.52 422.895 372.82 422.898 370.738C422.902 368.656 423.576 365.664 424.397 364.089C425.219 362.513 425.907 359.813 425.926 358.089C425.946 356.364 426.576 353.844 427.327 352.488C428.693 350.02 426.556 341.804 423.819 339.004C423.31 338.481 422.892 337.277 422.892 336.329C422.892 335.381 421.518 333.558 419.839 332.279C418.16 331 414.981 328.411 412.774 326.527C408.822 323.152 408.717 323.126 405.923 324.777C404.362 325.699 402.422 326.453 401.612 326.453C400.803 326.453 399.58 327.128 398.895 327.953C397.897 329.155 394.882 329.453 383.72 329.453C368.708 329.453 370.225 329.086 353.9 336.675C350.326 338.336 346.051 340.266 344.401 340.964C342.752 341.661 339.699 342.956 337.618 343.842C335.538 344.728 333.051 345.453 332.092 345.453C328.126 345.453 319.904 356.367 319.904 361.631C319.904 362.633 319.499 363.453 319.004 363.453C317.821 363.453 314.101 369.8 313.263 373.246C312.638 375.818 312.7 375.875 314.505 374.356C322.955 367.247 332.353 380.93 324.998 389.633C324.384 390.359 322.954 392.191 321.821 393.703C320.687 395.215 318.893 396.453 317.832 396.453C316.772 396.453 315.905 396.814 315.905 397.254C315.905 398.735 318.289 400.454 320.354 400.464C323.478 400.479 332.103 404.863 334.827 407.821C336.161 409.268 338.271 410.453 339.517 410.453C340.764 410.453 342.026 410.846 342.322 411.325C342.618 411.804 344.224 412.468 345.891 412.801C352.934 414.21 352.358 422.008 344.867 426.665C339.307 430.122 338.902 431.586 341.309 439.518C342.693 444.078 342.447 448.998 340.783 450.027C340.298 450.326 339.902 451.939 339.902 453.611C339.902 458.73 326.195 467.453 318.152 467.453C317.055 467.453 314.243 468.128 311.905 468.953C309.286 469.877 304.057 470.453 298.281 470.453C288.908 470.453 288.908 470.454 288.908 475.297C288.908 487.436 276.642 496.014 273.074 486.369C272.386 484.509 272.089 484.765 270.469 488.61C269.463 490.999 268.025 494.371 267.275 496.104C266.525 497.837 265.911 500.146 265.911 501.233C265.911 502.32 265.236 503.768 264.411 504.453C263.587 505.138 262.912 507.132 262.912 508.884C262.912 510.637 262.251 512.945 261.444 514.013C260.636 515.08 259.961 516.786 259.944 517.803C259.926 518.82 259.257 521.07 258.457 522.803C253.539 533.453 251.609 541.453 253.959 541.453C254.968 541.453 256.073 541.003 256.412 540.453C258.926 536.385 265.911 543.333 265.911 549.903C265.911 566.603 248.552 576.913 246.924 561.179C246.384 555.954 246.384 555.953 244.46 562.203C243.401 565.641 242.171 568.453 241.725 568.453C241.279 568.453 240.904 569.691 240.892 571.203C240.88 572.715 239.981 575.915 238.893 578.312C237.805 580.71 236.899 583.635 236.88 584.812C236.86 585.99 236.201 588.078 235.415 589.453C234.629 590.828 233.954 593.753 233.915 595.953C233.876 598.153 233.201 601.078 232.415 602.453C231.537 603.991 230.973 607.85 230.951 612.481C230.929 617.247 230.405 620.738 229.522 621.998C228.755 623.093 227.902 626.456 227.626 629.472C226.987 636.465 224.16 646.45 222.195 648.666C218.197 653.17 234.947 655.61 248.22 652.457C250.526 651.909 257.812 651.021 264.411 650.481C283.698 648.903 303.751 646.591 307.724 645.487C309.749 644.924 313.294 644.463 315.602 644.46C318.149 644.456 321.646 643.47 324.5 641.953C330.566 638.727 331.564 638.796 335.351 642.703C338.957 646.422 340.088 648.806 339.264 650.953C338.502 652.937 333.903 652.937 333.903 650.953C333.903 649.084 330.287 648.972 329.203 650.807C327.703 653.347 323.411 654.835 315.405 655.587C311.006 656 304.931 656.846 301.907 657.467C298.882 658.089 291.908 658.833 286.409 659.121C280.91 659.409 275.891 660.069 275.258 660.59C274.624 661.11 267.2 661.793 258.76 662.106C248.949 662.47 243.154 663.086 242.694 663.815C241.721 665.354 210.774 665.219 207.664 663.662C206.343 663.001 198.219 662.41 187.921 662.226C177.372 662.038 169.629 661.465 168.423 660.786C167.324 660.165 162.467 657.737 157.631 655.389C152.794 653.041 148.606 650.744 148.323 650.286C146.963 648.086 143.522 650.184 135.068 658.37C125.761 667.382 120.992 670.622 115.14 671.908C113.375 672.296 111.931 673 111.931 673.473C111.931 673.946 108.771 674.644 104.909 675.025C101.048 675.405 97.6462 676.108 97.3512 676.585C97.0562 677.063 95.5486 677.453 94.0028 677.453C91.3831 677.453 91.1451 677.796 90.5272 682.453C90.1633 685.203 89.4604 687.453 88.9664 687.453C88.4725 687.453 87.7815 688.358 87.4305 689.464C86.5116 692.356 81.7862 694.453 76.1849 694.453C73.5173 694.453 70.7706 695.016 70.0797 695.703C68.6809 697.095 69.2589 697.046 51.8451 697.283C39.2547 697.454 39.2545 697.453 37.6927 700.703C36.8338 702.49 33.7902 708.903 30.9286 714.953C19.559 738.993 9.18554 739.366 3.00231 715.956C-0.359266 703.229 0.216334 652.125 3.79089 645.953C7.09347 640.25 17.4783 632.968 33.2613 625.284C40.6084 621.707 42.174 620.531 42.631 618.244C42.9329 616.734 43.801 614.983 44.5599 614.353C45.3178 613.723 45.9388 612.32 45.9388 611.233C45.9388 608.297 48.9343 602.525 51.046 601.395C56.2874 598.59 67.9359 612.032 67.9359 620.887C67.9359 623.982 68.1751 624.346 69.6859 623.557C70.6488 623.055 74.3601 621.892 77.9347 620.974C90.8191 617.668 92.7999 615.154 87.4095 608.953C81.6773 602.359 81.5181 602.148 79.6053 598.578C78.5905 596.686 77.1259 594.502 76.348 593.724C75.5711 592.947 74.9352 591.47 74.9352 590.442C74.9352 589.413 74.524 588.317 74.0221 588.006C72.0453 586.785 68.4908 577.723 68.4069 573.695C68.3589 571.352 67.783 568.9 67.128 568.245C65.6922 566.809 65.5912 564.056 66.8881 561.69C69.0538 557.737 70.8288 552.705 71.4347 548.796C71.7896 546.509 72.7085 543.809 73.4764 542.796C74.2433 541.783 74.8862 539.506 74.9032 537.737C74.9332 534.698 76.4578 530.299 79.5614 524.299C80.3163 522.839 80.9344 520.759 80.9344 519.676C80.9344 516.612 91.0693 494.105 92.9811 492.924C93.504 492.6 93.9327 491.297 93.9327 490.029C93.9327 488.76 94.8326 486.58 95.9325 485.181C97.0324 483.783 97.9322 482.147 97.9322 481.546C97.9322 480.946 98.2752 480.453 98.6952 480.453C99.5221 480.453 99.6449 480.241 105.154 469.328C109.769 460.189 118.926 444.25 122.531 439.083C124.016 436.954 127.032 431.779 129.231 427.583C131.431 423.386 133.613 419.803 134.08 419.62C134.546 419.436 134.928 418.719 134.928 418.024C134.928 417.329 135.828 415.721 136.927 414.453C138.027 413.185 138.927 411.587 138.927 410.901C138.927 409.751 144.45 400.715 147.052 397.611C148.68 395.668 148.431 391.668 146.551 389.591C145.657 388.604 144.926 387.191 144.926 386.453C144.926 385.715 144.318 384.401 143.576 383.533C142.043 381.741 139.427 373.907 138.374 367.953C137.985 365.753 137.335 363.503 136.931 362.953C133.814 358.713 135.294 343.453 138.823 343.453C140.472 343.453 140.87 342.498 141.441 337.172C142 331.946 142.697 330.224 145.584 326.922C151.932 319.668 162.654 308.986 166.061 306.524C169.543 304.008 172.358 301.646 176.71 297.587C178.105 296.285 183.111 292.302 187.833 288.734C192.557 285.167 196.87 281.731 197.42 281.1C197.97 280.469 200.22 278.725 202.419 277.223C204.619 275.72 207.726 273.358 209.324 271.973C210.922 270.587 212.609 269.453 213.074 269.453C213.538 269.453 214.738 268.666 215.74 267.703C221.482 262.185 232.758 254.61 236.893 253.492C238.68 253.009 239.604 251.838 240.204 249.297C241.622 243.301 268.481 217.698 276.91 214.307C282.991 211.861 283.424 211.476 283.637 208.324C284.912 189.437 286.108 174.407 286.535 171.908C286.993 169.218 286.277 168.052 280.386 161.908C276.718 158.084 272.768 153.603 271.609 151.953C270.451 150.303 268.371 147.729 266.987 146.233C260.208 138.898 258.897 133.687 262.241 127.36C264.57 122.953 264.57 122.953 278.239 122.675C292.379 122.387 292.827 122.253 290.376 119.013C288.525 116.564 288.549 113.513 290.44 111.013C291.342 109.821 291.908 106.818 291.908 103.231C291.908 100.018 292.583 95.7734 293.408 93.7994C294.233 91.8244 294.908 88.5646 294.908 86.5536C294.908 84.5436 295.526 82.0104 296.282 80.9264C297.038 79.8414 297.977 77.0434 298.369 74.7084C298.76 72.3744 299.453 70.2345 299.907 69.9535C300.361 69.6725 301.054 67.5326 301.445 65.1986C301.837 62.8636 302.776 60.0656 303.532 58.9806C304.288 57.8966 304.906 55.5884 304.906 53.8534C304.906 52.1184 305.581 50.1385 306.406 49.4535C307.231 48.7685 307.906 46.7435 307.906 44.9535C307.906 43.1635 308.552 41.1625 309.342 40.5065C310.131 39.8515 311.066 38.0014 311.419 36.3954C311.771 34.7904 312.474 33.2194 312.982 32.9054C313.49 32.5924 313.905 31.6625 313.905 30.8395C313.905 29.4505 317.059 21.4845 318.689 18.7555C329.605 0.477488 339.486 -3.82061 351.345 4.55138ZM479.063 22.3124C481.524 24.9844 484.107 27.3614 484.804 27.5934C486.616 28.1974 486.585 35.1805 484.762 37.0045C482.908 38.8585 478.81 36.1435 476.385 31.4545C473.739 26.3355 419.557 25.5365 402.894 30.3695C386.393 35.1565 386.123 35.1805 384.896 31.9535C382.507 25.6685 388.076 22.1806 403.998 19.9906C408.902 19.3166 413.21 18.4695 413.571 18.1095C413.931 17.7485 427.807 17.4535 444.407 17.4535C474.587 17.4535 474.587 17.4534 479.063 22.3124ZM515.706 40.3495C506.514 46.1785 505.98 50.5485 513.003 62.4535C513.489 63.2785 515.027 66.4285 516.421 69.4535C517.815 72.4785 519.388 75.7346 519.918 76.6896C520.447 77.6446 520.88 78.9034 520.88 79.4864C520.88 80.0694 522.454 83.9106 524.379 88.0216C528.76 97.3816 529.548 111.783 525.879 115.453C524.779 116.553 523.879 118.353 523.879 119.453C523.879 121.71 524.915 122.017 526.654 120.277C527.556 119.375 528.303 119.528 529.854 120.932C531.834 122.723 531.878 122.709 531.878 120.308C531.878 118.958 532.441 117.29 533.128 116.603C534.877 114.854 534.823 58.9985 533.071 57.2465C532.415 56.5905 531.875 54.6805 531.872 53.0035C531.85 40.7865 524.315 34.8885 515.706 40.3495ZM431.973 126.134C428.613 129.335 423.509 133.853 420.628 136.176C408.369 146.064 409.328 144.918 410.732 148.001C414.657 156.615 403.071 160.358 395.602 152.888C393.114 150.401 392.921 150.371 386.229 151.496C382.472 152.128 376.183 152.861 372.256 153.124C364.281 153.659 360.654 155.8 361.599 159.414C362.267 161.969 361.929 162.018 368.245 158.453C371.208 156.78 375.037 155.453 376.897 155.453C382.403 155.453 396.895 164.587 396.895 168.057C396.895 168.733 397.392 169.452 398 169.655C399.087 170.017 401.85 176.794 401.879 179.172C401.887 179.843 399.438 182.205 396.438 184.422C384.973 192.892 375.253 187.462 372.682 171.151C372.201 168.097 370.489 168.972 368.484 173.295C365.197 180.386 361.896 179.999 356.299 171.871C351.959 165.57 352.284 165.665 346.991 169.131C342.902 171.808 342.902 171.809 342.902 195.005C342.902 221.77 344.557 228.623 351.561 230.846C354.737 231.855 370.239 248.804 371.437 252.577C371.765 253.609 372.404 254.453 372.857 254.453C373.31 254.453 373.947 255.512 374.271 256.804C374.852 259.119 375.103 259.162 390.947 259.712C403.687 260.154 407.4 260.601 408.792 261.861C409.759 262.737 412.181 263.453 414.175 263.453C416.167 263.453 418.922 263.965 420.295 264.591C422.831 265.746 428.914 263.842 430.408 261.426C430.738 260.891 432.22 260.45 433.699 260.447C435.179 260.443 437.679 259.768 439.254 258.947C440.829 258.125 442.88 257.453 443.812 257.453C444.744 257.453 446.38 256.792 447.448 255.985C448.515 255.177 450.341 254.502 451.504 254.485C452.666 254.467 454.761 253.553 456.16 252.453C457.558 251.353 458.991 250.453 459.344 250.453C460.407 250.453 479.285 231.178 481.38 227.953C482.452 226.303 484.334 222.816 485.561 220.203C487.29 216.52 488.319 215.453 490.137 215.453C497.433 215.453 496.135 226.571 487.742 235.963C474.714 250.544 472.264 253.125 469.722 254.953C464.697 258.566 465.395 259.204 475.205 259.96C481.237 260.425 484.985 261.198 486.138 262.218C488.89 264.655 492.066 262.526 494.195 256.815C495.192 254.141 496.759 250.426 497.68 248.557C499.545 244.775 499.782 229.243 498.008 227.106C497.467 226.454 496.705 219.178 496.313 210.937C495.84 200.989 495.144 195.291 494.242 193.981C493.494 192.897 492.883 191.172 492.883 190.15C492.883 188.382 492.718 188.392 489.515 190.371C487.38 191.691 484.463 192.453 481.543 192.453C477.533 192.453 476.75 192.809 475.496 195.203C470.529 204.685 461.033 209.064 453.173 205.496C448.9 203.555 448.674 203.159 447.436 195.391C446.155 187.353 461.312 176.811 470.487 179.359C478.366 181.547 491.925 180.451 487.883 177.953C487.333 177.613 486.883 175.817 486.883 173.96C486.883 162.532 479.498 159.096 467.564 164.976C453.909 171.704 446.781 160.789 457.975 150.295C460.812 147.635 460.812 147.635 458.401 146.055C455.629 144.238 444.889 131.085 444.889 129.506C444.889 128.927 444.448 128.453 443.908 128.453C443.369 128.453 442.653 127.361 442.318 126.027C440.759 119.812 438.586 119.835 431.973 126.134ZM275.66 134.153C270.597 134.721 270.884 135.842 278.16 143.919C281.597 147.734 285.215 151.777 286.2 152.904C301.201 170.067 310.906 178.119 310.906 173.403C310.906 172.276 311.518 170.139 312.266 168.653C313.013 167.168 313.913 163.075 314.265 159.556C314.617 156.038 315.355 152.616 315.905 151.954C316.454 151.291 317.017 147.926 317.154 144.476C317.405 138.203 317.405 138.203 312.153 136.468C306.874 134.724 283.681 133.253 275.66 134.153ZM527.064 161.654C524.544 171.207 524.019 173.871 524.504 174.656C525.9 176.914 527.971 171.291 527.615 166.21C527.413 163.319 527.166 161.269 527.064 161.654ZM383.353 170.708C381.819 174.706 385.445 178.305 388.216 175.534C389.026 174.724 388.605 173.708 386.65 171.753C384.37 169.474 383.886 169.319 383.353 170.708ZM293.818 189.255C292.98 195.617 292.371 209.525 292.317 223.568C292.217 249.338 292.025 250.753 288.688 250.274C285.116 249.761 283.94 245.918 283.924 234.703C283.909 224.453 283.909 224.453 281.271 224.453C277.53 224.453 254.811 243.262 254.944 246.249C255.027 248.094 259.953 250.501 261.716 249.558C265.274 247.653 274.91 258.714 274.91 264.703C274.91 265.225 275.565 267.07 276.365 268.803C279.037 274.587 281.135 280.915 281.626 284.665C281.893 286.706 282.741 288.899 283.51 289.537C284.28 290.176 284.909 291.783 284.909 293.109C284.909 294.434 285.572 297.105 286.382 299.044C287.193 300.984 288.149 304.786 288.508 307.495C288.867 310.203 289.779 312.931 290.535 313.558C292.559 315.238 292.529 281.971 290.502 277.237C288.452 272.451 286.889 256.591 288.186 253.745C291.525 246.414 297.907 256.27 297.907 268.759C297.907 273.802 298.48 278.581 299.329 280.612C300.374 283.114 300.78 289.074 300.861 303.109C300.921 313.61 301.485 324.846 302.113 328.078C302.741 331.31 303.312 339.677 303.381 346.671C303.451 353.665 303.821 359.703 304.206 360.087C304.591 360.472 304.906 359.231 304.906 357.33C304.906 355.429 305.581 351.282 306.406 348.114C307.284 344.742 307.909 337.92 307.912 331.654C307.917 324.117 308.36 320.106 309.412 318.089C311.454 314.173 311.417 299.92 309.351 294.977C306.1 287.194 309.067 280.363 314.229 283.746C316.282 285.091 316.871 286.482 317.379 291.178C317.722 294.355 318.431 297.735 318.954 298.69C320.142 300.86 320.2 310.009 319.04 312.269C317.417 315.432 316.672 338.453 318.193 338.453C319.458 338.453 323.904 329.316 323.904 326.718C323.904 326.059 324.526 324.043 325.286 322.237C329.475 312.281 330.148 308.539 329.348 299.663C327.802 282.543 328.15 269.056 330.429 257.883C330.661 256.745 332.434 254.184 334.37 252.191C338.74 247.69 341.395 236.072 338.947 232.158C338.19 230.946 337.06 227.958 336.438 225.52C335.815 223.082 334.766 220.907 334.105 220.687C332.573 220.176 332.437 233.817 333.93 238.101C335.214 241.783 333.01 248.699 329.523 251.931C324.495 256.591 310.918 251.1 310.908 244.403C310.907 243.55 310.374 242.321 309.725 241.672C306.865 238.812 305.588 214.644 307.36 196.902C308.165 188.851 308.165 188.852 303.286 184.555C295.042 177.295 295.419 177.107 293.818 189.255ZM461.061 192.508C459.782 194.128 459.183 195.453 459.73 195.453C461.605 195.453 466.873 191.953 466.88 190.703C466.891 188.436 463.428 189.51 461.061 192.508ZM540.877 190.953C538.377 192.382 538.377 192.383 541.068 192.419C542.548 192.438 544.037 192.003 544.377 191.453C545.605 189.465 548.643 190.476 549.795 193.257C552.647 200.146 547.634 202.889 529.379 204.428C517.513 205.428 519.239 204.516 518.437 210.203C518.068 212.816 517.536 215.74 517.256 216.703C516.596 218.964 521.322 219.153 523.522 216.953C524.347 216.128 526.078 215.453 527.369 215.453C529.418 215.453 531.926 214.468 537.877 211.325C538.702 210.889 542.752 208.893 546.876 206.89C554.253 203.307 561.097 199.161 563.695 196.703C564.422 196.016 565.322 195.446 565.694 195.437C566.068 195.428 567.897 194.078 569.759 192.437C573.144 189.453 573.144 189.453 558.261 189.488C547.244 189.515 542.727 189.895 540.877 190.953ZM528.103 192.519C529.22 193.17 530.98 193.191 533.102 192.578C536.259 191.668 536.195 191.632 531.378 191.575C527.571 191.529 526.79 191.753 528.103 192.519ZM425.891 232.547C425.891 239.918 409.208 243.664 404.041 237.453C398.602 230.915 401.169 228.621 414.393 228.205C425.596 227.852 425.891 227.964 425.891 232.547ZM347.101 246.653C345.285 248.469 345.553 266.409 347.433 268.894C349.352 271.431 349.316 277.895 347.372 279.839C344.847 282.364 339.902 279.75 339.902 275.891C339.902 271.997 338.073 272.176 336.963 276.178C335.321 282.091 335.656 283.586 339.402 287.017C341.346 288.797 342.902 291.19 342.902 292.398C342.902 293.594 343.275 294.341 343.731 294.059C344.783 293.408 352.886 281.633 352.942 280.672C352.966 280.276 354.316 278.85 355.942 277.501C357.569 276.152 358.9 274.551 358.9 273.946C358.9 273.341 360.475 271.319 362.399 269.453C367.476 264.532 365.22 257.121 356.92 251.453C355.712 250.628 353.615 248.941 352.261 247.703C349.44 245.126 348.765 244.989 347.101 246.653ZM249.369 259.69C248.82 260.891 246.714 262.277 244.414 262.953C239.411 264.426 231.948 268.454 225.323 273.259C213.186 282.063 206.049 287.509 195.577 295.953C189.439 300.903 182.619 306.297 180.42 307.939C172.185 314.09 153.089 333.574 151.055 337.901C149.935 340.285 147.791 343.2 146.292 344.38C143.586 346.508 143.575 346.572 144.634 353.238C146.097 362.441 148.479 371.407 149.816 372.744C150.425 373.354 150.926 374.789 150.926 375.931C150.926 377.074 151.539 378.897 152.29 379.981C153.041 381.066 154.004 383.078 154.429 384.453C154.855 385.828 156.265 387.944 157.564 389.155C158.863 390.366 159.924 391.738 159.924 392.203C159.924 392.669 161.577 394.604 163.597 396.502C165.617 398.401 169.676 402.316 172.618 405.204C175.559 408.092 179.756 411.585 181.944 412.967C184.131 414.348 185.921 415.893 185.921 416.399C185.921 417.524 210.781 434.045 211.329 433.284C211.459 433.102 212.602 430.478 213.867 427.453C216.459 421.256 221.288 413.629 225.85 408.524C227.536 406.637 228.916 404.697 228.916 404.211C228.916 403.375 244.995 387.207 251.902 381.099C253.677 379.529 257.105 377.372 259.52 376.303C261.936 375.235 263.911 373.891 263.911 373.317C263.911 371.884 259.748 368.529 257.912 368.484C257.087 368.463 254.94 367.548 253.139 366.45C251.338 365.352 249.423 364.453 248.884 364.453C248.345 364.453 245.544 363.288 242.659 361.863C239.775 360.439 236.29 358.897 234.915 358.437C233.54 357.976 229.312 356.441 225.519 355.026C221.727 353.611 217.452 352.448 216.021 352.44C210.1 352.409 208.918 351.509 208.918 347.036C208.918 341.013 216.549 337.485 220.668 341.604C221.729 342.665 229.405 344.524 232.915 344.57C235.752 344.608 243.418 342.6 246.414 341.034C248.063 340.172 250.181 339.464 251.119 339.46C252.057 339.457 254.982 338.169 257.618 336.6C273.962 326.874 272.738 327.425 274.381 329.068C280.188 334.876 270.456 345.355 255.912 348.954C249.652 350.504 248.8 355.281 254.759 355.422C255.499 355.44 257.298 356.089 258.758 356.866C260.218 357.642 263.887 359.478 266.911 360.946C275.527 365.129 281.038 369.236 285.865 375.069C288.315 378.03 290.8 380.453 291.386 380.453C295.188 380.453 295.74 350.17 291.961 348.971C290.366 348.464 285.909 339.392 285.909 336.652C285.909 335.958 285.246 335.137 284.436 334.826C283.626 334.515 282.679 332.617 282.332 330.607C281.985 328.598 281.073 325.026 280.306 322.669C279.538 320.312 278.894 316.712 278.875 314.669C278.855 312.626 278.196 309.828 277.41 308.453C276.624 307.078 275.949 304.378 275.91 302.453C275.871 300.528 275.196 297.828 274.41 296.453C273.624 295.078 272.965 293.142 272.945 292.149C272.909 290.282 269.141 281.336 268.019 280.453C267.67 280.178 266.112 277.313 264.558 274.085C259.697 263.986 251.121 255.859 249.369 259.69ZM447.389 268.471C433.634 270.141 421.892 278.305 421.892 286.199C421.892 286.764 421.22 288.513 420.398 290.089C419.577 291.664 418.902 294.326 418.898 296.004C418.895 297.681 418.404 299.542 417.808 300.138C417.211 300.735 416.477 303.937 416.176 307.256C415.118 318.934 421.996 323.65 433.236 318.953C437.671 317.1 441.419 317.033 443.047 318.777C444.617 320.458 447.865 314.616 447.932 309.993C447.956 308.321 448.648 305.153 449.467 302.953C450.288 300.753 451.229 295.578 451.558 291.453C451.888 287.328 452.534 283.221 452.994 282.325C454.162 280.047 454.391 269.524 453.294 268.614C452.796 268.2 450.138 268.137 447.389 268.471ZM384.396 270.453C384.056 271.003 381.721 271.453 379.206 271.453C373.886 271.453 368.003 276.646 359.9 288.491C359.075 289.697 356.937 292.629 355.15 295.008C353.363 297.387 351.901 299.773 351.901 300.31C351.901 300.847 351.562 301.436 351.151 301.62C349.873 302.188 345.901 308.299 345.901 309.697C345.901 311.313 350.992 314.453 353.613 314.453C354.661 314.453 356.391 315.115 357.459 315.922C359.679 317.601 365.477 317.945 366.399 316.453C367.689 314.365 372.534 315.359 373.716 317.953C375.069 320.923 378.974 321.283 384.55 318.953C386.525 318.128 389.773 317.447 391.768 317.439C399.59 317.408 406.894 313.46 406.894 309.263C406.894 306.807 405.029 306.988 399.801 309.953C387.51 316.927 385.528 316.972 385.095 310.29C384.794 305.644 384.794 305.644 389.595 303.299C392.236 302.009 394.99 300.391 395.716 299.703C396.443 299.016 397.626 298.453 398.344 298.453C399.062 298.453 400.209 297.778 400.894 296.953C401.609 296.092 403.79 295.453 406.016 295.453C413.912 295.453 409.457 289.535 399.629 286.968C389.974 284.446 388.896 283.799 388.896 280.514C388.896 275.166 399.677 273.704 407.869 277.941C412.096 280.128 415.892 279.931 415.892 277.526C415.892 274.447 410.646 272.596 399.792 271.849C394.315 271.472 389.597 270.778 389.306 270.308C388.578 269.13 385.151 269.231 384.396 270.453ZM464.438 272.703C464.226 273.391 463.791 275.827 463.472 278.117C463.152 280.406 462.655 282.893 462.367 283.644C461.146 286.825 464.218 288.365 473.629 289.289C483.518 290.261 485.884 291.363 485.884 294.995C485.884 301.052 482.81 302.136 470.143 300.546C458.127 299.038 458.212 298.963 457.314 311.786C456.742 319.953 456.743 319.953 462.961 323.453C466.381 325.378 471.402 328.416 474.118 330.203C476.836 331.99 479.807 333.467 480.721 333.485C481.636 333.502 483.258 334.177 484.325 334.985C488.308 337.998 493.376 336.888 497.023 332.203C498.842 329.865 500.628 327.728 500.992 327.453C503.442 325.6 512.945 305.783 512.25 303.974C511.95 303.192 508.329 299.154 504.203 295.001C496.75 287.499 496.705 287.42 497.043 282.702C497.383 277.954 497.382 277.953 492.924 277.953C489.168 277.953 488.266 277.558 487.209 275.453C485.316 271.684 465.49 269.29 464.438 272.703ZM523.486 301.547C523.238 302.321 522.491 305.428 521.826 308.453C521.161 311.478 520.167 314.521 519.617 315.214C518.425 316.717 514.317 323.94 512.657 327.453C512.007 328.828 509.318 332.756 506.679 336.182C499.681 345.267 499.841 345.441 514.88 345.026C526.428 344.707 533.354 345.951 537.46 349.083C539.161 350.381 540.814 351.184 541.132 350.866C542.186 349.812 540.611 334.99 539.232 332.981C538.487 331.897 537.877 330.165 537.877 329.135C537.877 328.105 537.271 326.068 536.53 324.608C533.186 318.017 527.879 305.994 527.879 305.01C527.879 303.3 523.923 300.182 523.486 301.547ZM335.417 321.693C331.334 329.8 332.427 337.346 336.902 331.953C337.587 331.128 338.875 330.453 339.764 330.453C347.269 330.453 352.069 324.766 345.899 323.182C343.976 322.688 341.727 321.714 340.902 321.02C337.755 318.37 337.046 318.458 335.417 321.693ZM433.877 331.264C431.729 333.003 431.705 333.196 433.266 336.214C434.159 337.941 434.905 339.939 434.923 340.653C434.956 341.929 438.268 346.453 439.17 346.453C439.423 346.453 439.902 344.541 440.235 342.203C440.568 339.865 441.118 336.041 441.458 333.703C442.171 328.798 438.414 327.59 433.877 331.264ZM452.548 331.911C449.036 334.573 446.328 384.618 449.366 390.711C450.488 392.959 450.801 395.605 450.455 399.91C449.975 405.895 449.981 405.909 451.005 401.453C451.573 398.978 452.392 396.272 452.824 395.44C453.257 394.607 454.173 389.882 454.86 384.94C456.002 376.718 457.395 371.853 459.935 367.217C460.459 366.262 460.887 364.11 460.887 362.434C460.887 360.759 461.562 357.773 462.387 355.799C463.212 353.824 463.889 351.476 463.892 350.581C463.896 349.686 464.483 347.828 465.196 346.453C467.896 341.25 467.888 340.538 465.101 337.874C462.705 335.584 455.379 330.4 454.658 330.485C454.509 330.502 453.56 331.145 452.548 331.911ZM486.498 348.891C486.801 349.681 487.685 350.084 488.461 349.786C490.149 349.138 489.351 347.453 487.356 347.453C486.542 347.453 486.18 348.061 486.498 348.891ZM472.091 356.211C470.83 360.47 469.143 366.142 468.342 368.818C467.541 371.493 466.886 374.997 466.886 376.603C466.886 378.209 466.169 380.618 465.292 381.956C464.415 383.294 463.91 384.967 464.169 385.672C464.651 386.987 473.885 378.042 473.885 376.26C473.885 375.756 475.233 373.907 476.88 372.15C480.287 368.516 481.013 361.531 478.353 358.013C477.546 356.945 476.885 354.358 476.885 352.263C476.885 345.931 474.572 347.836 472.091 356.211ZM497.559 357.575C494.868 359.141 498.011 362.29 503.072 363.1C505.191 363.438 507.167 364.108 507.462 364.585C507.757 365.063 508.748 365.453 509.663 365.453C516.227 365.453 534.852 378.816 536.889 384.986C538.603 390.179 540.877 388.918 540.877 382.773C540.877 381.389 541.593 378.746 542.468 376.901C544.465 372.693 542.296 366.723 537.806 364.07C536.262 363.158 534.739 361.591 534.42 360.586C533.239 356.866 503.023 354.397 497.559 357.575ZM485.134 378.64C482.247 381.597 479.884 384.414 479.884 384.901C479.884 385.387 479.197 386.499 478.357 387.37C470.242 395.782 465.873 404.413 469.695 404.485C470.625 404.502 472.259 405.177 473.326 405.985C474.394 406.792 476.044 407.453 476.993 407.453C477.942 407.453 478.885 407.958 479.091 408.574C479.968 411.205 494.179 410.152 499.914 407.031C505.283 404.11 505.282 404.11 507.197 406.674C509.112 409.239 509.112 409.239 511.746 407.111C527.509 394.376 529.212 387.174 517.884 381.164C514.036 379.123 510.36 377.453 509.714 377.453C509.067 377.453 507.794 376.779 506.883 375.955C502.023 371.556 490.683 372.956 485.134 378.64ZM262.127 387.485C259.77 389.117 257.594 390.453 257.292 390.453C256.564 390.453 233.915 413.332 233.915 414.068C233.915 414.382 233.128 415.67 232.165 416.931C231.203 418.191 229.741 420.23 228.916 421.461C228.091 422.692 226.855 424.285 226.17 425.001C221.023 430.381 222.89 440.024 229.702 443.244C238.556 447.428 240.914 446.232 240.914 437.562C240.914 434.954 241.572 431.965 242.382 430.894C243.19 429.827 243.865 428.291 243.882 427.481C243.924 425.558 253.356 405.737 254.84 404.453C255.158 404.178 256.766 401.942 258.415 399.483C260.063 397.024 263.324 393.162 265.661 390.903C272.583 384.212 270.191 381.898 262.127 387.485ZM309.906 395.298C309.906 396.966 310.509 397.453 312.572 397.453C314.038 397.453 315.051 397.337 314.822 397.193C314.593 397.05 313.393 396.079 312.155 395.037C309.933 393.166 309.906 393.169 309.906 395.298ZM268.658 402.363C267.147 403.964 265.911 405.588 265.911 405.97C265.911 406.353 264.562 408.37 262.912 410.453C261.262 412.536 259.912 414.631 259.912 415.106C259.912 415.581 258.746 418.16 257.321 420.837C255.896 423.514 254.085 427.879 253.296 430.536C252.507 433.194 251.423 435.639 250.887 435.97C250.351 436.301 249.913 438.64 249.913 441.168C249.913 445.701 249.941 445.738 251.913 443.953C253.013 442.958 253.913 441.55 253.913 440.825C253.913 439.023 259.592 436.217 261.813 436.922C263.358 437.412 271.24 443.154 275.945 447.218C289.941 459.305 297.858 461.364 312.905 456.83C315.38 456.085 318.217 455.47 319.21 455.464C321.801 455.448 330.157 451.477 331.608 449.57C333.092 447.621 333.336 433.839 331.903 432.953C330.359 431.999 330.721 425.849 332.403 424.453C335.607 421.794 329.937 415.35 322.183 412.837C321.205 412.52 319.055 411.672 317.405 410.955C313.223 409.136 303.621 406.453 301.292 406.453C300.225 406.453 298.342 405.746 297.108 404.881C295.415 403.695 292.413 403.324 284.887 403.368C275.98 403.421 274.777 403.214 273.669 401.44C272.072 398.881 271.918 398.909 268.658 402.363ZM151.765 408.01C147.248 416.811 146.612 417.957 145.969 418.453C144.742 419.399 140.927 426.191 140.927 427.428C140.927 428.109 139.652 430.305 138.093 432.309C136.535 434.313 134.956 436.628 134.583 437.453C134.211 438.278 133.018 440.303 131.932 441.953C130.846 443.603 129.495 446.012 128.929 447.305C128.363 448.598 126.345 452.001 124.443 454.867C122.54 457.733 120.283 461.625 119.426 463.516C118.568 465.407 117.013 468.303 115.971 469.953C113.729 473.501 111.705 477.167 106.03 487.953C103.717 492.353 101.397 496.381 100.877 496.903C100.357 497.426 99.932 498.862 99.932 500.095C99.932 501.328 99.5209 502.59 99.0189 502.901C96.8342 504.25 86.9337 527.994 86.9337 531.881C86.9337 532.628 86.3047 533.481 85.5348 533.776C84.7039 534.095 83.9539 536.268 83.6859 539.133C83.4379 541.784 82.7562 545.303 82.1713 546.953C81.5853 548.603 80.3586 552.653 79.4447 555.953C78.5308 559.253 76.9639 563.537 75.962 565.473C74.1942 568.891 74.1962 569.057 76.038 571.332C77.0818 572.621 77.9366 574.413 77.9386 575.315C77.9416 576.216 79.2896 578.978 80.9344 581.453C82.5792 583.928 83.927 586.259 83.93 586.632C83.96 591.501 105.7 614.795 113.93 618.778C114.755 619.177 119.93 622.392 125.429 625.922C130.928 629.452 140.377 634.955 146.426 638.15C156.719 643.586 160.273 645.233 169.673 648.928C171.787 649.758 179.965 650.833 188.421 651.393C196.67 651.939 205.288 652.67 207.571 653.016C211.199 653.566 211.806 653.38 212.388 651.549C212.753 650.396 213.472 649.453 213.985 649.453C214.498 649.453 214.918 647.64 214.918 645.422C214.918 643.204 215.61 639.734 216.454 637.71C217.3 635.686 218.267 631.313 218.603 627.992C218.939 624.671 219.822 621.066 220.565 619.981C221.398 618.767 221.929 615.117 221.949 610.481C221.97 605.453 222.468 602.309 223.449 601.013C224.296 599.893 224.916 596.905 224.916 593.953C224.916 591.001 225.537 588.014 226.384 586.894C227.192 585.827 227.883 583.603 227.92 581.953C227.957 580.303 228.63 577.828 229.416 576.453C230.202 575.078 230.861 572.772 230.881 571.326C230.9 569.881 231.562 568.162 232.351 567.506C233.14 566.851 234.083 564.967 234.445 563.318C234.807 561.668 235.733 559.112 236.503 557.637C237.273 556.161 237.905 553.993 237.909 552.818C237.912 551.644 238.587 549.394 239.409 547.818C240.229 546.243 240.904 544.252 240.908 543.394C240.911 542.537 241.575 540.962 242.382 539.894C243.19 538.827 243.865 536.802 243.882 535.394C243.9 533.987 244.575 531.962 245.382 530.894C246.19 529.827 246.867 527.828 246.888 526.453C246.909 525.078 247.603 522.656 248.43 521.071C249.255 519.485 250.224 516.335 250.581 514.071C250.938 511.806 252.252 508.324 253.501 506.333C254.75 504.343 256.076 501.097 256.447 499.12C256.818 497.143 257.749 495.004 258.517 494.367C259.284 493.73 259.912 491.87 259.912 490.235C259.912 488.6 260.56 486.068 261.352 484.608C262.144 483.148 263.064 480.266 263.397 478.203C263.73 476.141 264.431 474.453 264.956 474.453C265.481 474.453 265.911 473.435 265.911 472.189C265.911 470.944 266.811 468.245 267.911 466.193C270.452 461.452 270.579 455.635 268.161 454.752C267.198 454.401 265.083 453.018 263.462 451.68C261.133 449.759 260.395 449.544 259.962 450.665C256.985 458.358 244.093 463.64 239.17 459.184C238.118 458.232 236.593 457.453 235.782 457.453C233.182 457.453 201.258 440.901 195.077 436.348C191.796 433.931 188.104 431.278 186.872 430.453C183.117 427.939 175.767 421.809 168.923 415.485C153.389 401.129 154.948 401.808 151.765 408.01ZM398.983 450.164C407.635 455.276 402.975 473.453 393.01 473.453C388.364 473.453 384.375 468.93 385.21 464.609C388.017 450.094 391.925 445.995 398.983 450.164ZM278.517 466.036C277.578 468.482 277.782 468.804 279.41 467.453C281.071 466.073 281.399 464.453 280.016 464.453C279.526 464.453 278.851 465.166 278.517 466.036ZM410.579 527.628C411.851 528.824 412.893 530.647 412.893 531.678C412.893 532.709 413.582 534.885 414.423 536.513C418.398 544.2 414.896 559.632 408.673 561.85C398.869 565.344 393.474 539.758 401.979 530.095C406.621 524.822 407.365 524.608 410.579 527.628ZM53.0358 618.602C52.4318 620.334 51.9381 622.926 51.9381 624.362C51.9381 628.384 47.7345 632.212 42.4462 633.005C39.9535 633.379 37.6868 634.053 37.4078 634.505C37.1289 634.957 34.4731 636.476 31.5074 637.879C28.5418 639.282 25.9642 640.773 25.7782 641.192C25.5932 641.611 23.3047 643.069 20.692 644.432C18.0793 645.796 15.9425 647.269 15.9425 647.707C15.9425 648.144 14.8696 648.912 13.5577 649.41C11.167 650.319 10.3872 656.461 9.95324 677.815C9.92025 679.389 9.46333 681.481 8.9364 682.466C8.35047 683.562 8.32858 685.36 8.87951 687.104C9.37545 688.671 10.0553 694.903 10.3903 700.953C11.3891 719.008 14.8495 724.848 19.381 716.124C20.8588 713.28 22.4665 710.278 22.9545 709.453C23.4424 708.628 25.2393 704.803 26.9481 700.953C33.7603 685.602 32.0654 686.747 48.2914 686.545C63.3315 686.358 71.8685 685.343 77.2089 683.112C82.6872 680.823 82.1552 678.453 76.162 678.453C72.3875 678.453 70.2795 677.722 66.076 674.953C63.1534 673.028 60.5769 671.453 60.35 671.453C59.6671 671.453 55.9376 667.505 55.9376 666.783C55.9376 666.414 55.1576 665.249 54.2047 664.195C52.7399 662.577 52.4708 660.185 52.4708 648.785C52.4708 635.288 52.4711 635.288 57.2045 630.816C62.8068 625.522 62.6837 626.184 58.9371 621.453C57.2873 619.37 55.9376 617.167 55.9376 616.559C55.9376 614.272 54.0916 615.572 53.0358 618.602ZM93.9327 625.489C90.9081 627.642 86.8587 629.7 84.934 630.062C83.0092 630.424 80.2195 631.336 78.7347 632.088C77.2489 632.839 74.7133 633.453 73.0995 633.453C69.8759 633.453 66.1422 635.105 63.5865 637.661C61.5158 639.732 61.236 657.95 63.2347 660.576C68.1751 667.065 78.3067 669.109 92.047 666.387C95.0086 665.801 100.07 664.927 103.295 664.446C112.108 663.133 120.739 658.363 128.024 650.776C134.802 643.717 134.719 642.553 127.217 639.447C126.001 638.944 119.36 634.69 112.46 629.993C105.559 625.297 99.8049 621.482 99.673 621.515C99.54 621.549 96.9574 623.337 93.9327 625.489ZM392.745 645.577C389.086 646.513 385.18 647.768 384.061 648.366C382.943 648.964 380.479 649.453 378.585 649.453C376.691 649.453 374.603 650.105 373.943 650.9C373.282 651.696 370.865 652.483 368.57 652.65C362.395 653.1 362.893 655.891 369.808 659.586C379.296 664.657 395.358 661.016 397.178 653.383C397.628 651.496 398.415 648.633 398.928 647.019C400.072 643.414 400.663 643.553 392.745 645.577ZM351.151 661.701C347.354 662.919 347.216 663.608 349.902 667.954C351.749 670.943 351.794 671.527 350.488 675.572C347.124 685.993 345.971 691.466 345.47 699.387C345.176 704.025 344.479 708.277 343.919 708.837C341.138 711.618 348.86 727.153 354.084 729.286C354.533 729.47 354.9 730.197 354.9 730.903C354.9 731.61 356.588 733.357 358.65 734.787C360.713 736.217 364.649 738.97 367.399 740.905C380.902 750.406 401.42 738.989 392.363 727.013C391.45 725.805 390.894 722.784 390.89 719.013C390.886 715.595 390.233 711.704 389.39 710.089C387.48 706.427 387.502 697.558 389.428 695.013C390.376 693.759 390.896 690.722 390.896 686.436C390.896 678.729 392.127 677.056 400.394 673.539C404.803 671.663 411.187 664.413 409.721 662.947C408.07 661.297 404.014 661.499 403.455 663.26C403.11 664.348 402.055 665.522 401.111 665.87C398.047 667 393.413 669.736 392.693 670.839C392.262 671.503 387.663 671.913 380.695 671.912C368.672 671.909 357.52 667.542 356.15 662.299C355.611 660.242 355.673 660.25 351.151 661.701Z"
  />
</svg>
