<svg
  width="422"
  height="795"
  viewBox="0 0 422 795"
  fill="none"
  xmlns="http://www.w3.org/2000/svg"
>
  <path
    fill-rule="evenodd"
    clip-rule="evenodd"
    fill="black"
    d="M164.929 3.03351C169.625 5.58451 171.789 7.79556 174.377 12.6876C175.368 14.5596 177.186 17.1214 178.418 18.3804C179.649 19.6394 181.2 22.7066 181.866 25.1966C183.678 31.9726 183.565 31.9745 199.176 24.8265C206.755 21.3565 208.191 20.8496 213.174 19.8856C215.924 19.3536 219.973 18.4486 222.173 17.8746C224.373 17.3006 228.099 16.8204 230.454 16.8074C232.809 16.7944 236.351 16.1085 238.325 15.2835C243.125 13.2785 257.183 13.2816 261.033 15.2896C262.608 16.1116 264.87 16.7835 266.06 16.7835C267.25 16.7835 269.111 17.3916 270.194 18.1346C271.279 18.8776 273.517 19.8146 275.167 20.2166C276.816 20.6186 280.866 22.2275 284.166 23.7925C287.465 25.3565 290.84 26.9005 291.665 27.2215C292.49 27.5425 294.514 28.6654 296.164 29.7154C297.814 30.7664 301.526 32.8595 304.413 34.3685C307.3 35.8765 309.662 37.4306 309.662 37.8226C309.662 39.0656 315.984 39.8796 316.696 38.7276C320.869 31.9746 332.197 19.8504 336.239 17.8094C337.845 16.9994 340.236 15.5326 341.555 14.5506C347.815 9.8856 362.68 14.0625 364.184 20.9095C364.531 22.4905 365.153 23.7835 365.567 23.7835C365.982 23.7835 366.812 26.1465 367.413 29.0335C368.595 34.7075 370.058 40.4825 372.259 48.1485C373.027 50.8235 373.657 57.1235 373.66 62.1485C373.664 68.2965 374.155 72.2205 375.16 74.1475C377.266 78.1865 377.286 100.566 375.186 103.343C374.114 104.76 373.697 108.255 373.642 116.284C373.601 122.334 373.108 129.309 372.547 131.784C371.986 134.259 371.164 138.792 370.721 141.857C370.278 144.922 369.464 148.297 368.913 149.357C363.564 159.645 365.286 160.685 388.346 161.099C419.697 161.662 424.921 164.322 414.588 174.456C413.002 176.011 411.692 177.821 411.677 178.477C411.662 179.134 410.638 180.362 409.4 181.207C406.818 182.97 404.011 185.208 397.651 190.574C395.177 192.662 392.027 194.931 390.652 195.617C389.277 196.302 387.253 197.422 386.153 198.107C378.751 202.715 364.307 208.78 356.657 210.492C351.652 211.612 349.453 218.71 353.157 221.784C357.72 225.572 353.263 237.784 347.316 237.784C344.106 237.784 341.658 242.889 341.658 249.586C341.658 254.962 343.941 257.268 352.279 260.317C363.19 264.308 373.711 273.703 373.501 279.266C373.38 282.449 373.985 284.35 375.929 286.898C377.352 288.765 379.004 291.415 379.6 292.787C380.196 294.16 381.569 296.634 382.652 298.284C383.735 299.934 385.771 303.744 387.177 306.75C388.582 309.756 390.36 312.907 391.125 313.754C391.891 314.6 394.18 318.665 396.211 322.788C398.242 326.91 400.185 330.509 400.528 330.784C401.789 331.796 405.65 337.732 405.65 338.659C405.65 339.186 406.002 339.767 406.433 339.951C407.727 340.502 411.649 347.77 411.649 349.617C411.649 350.563 412.999 352.816 414.649 354.623C416.299 356.429 417.664 358.217 417.683 358.596C417.702 358.974 418.586 361.084 419.648 363.284C422.175 368.515 422.561 400.666 420.177 407.284C419.372 409.52 418.717 415.006 418.693 419.723C418.65 427.92 415.64 447.213 413.457 453.284C412.865 454.934 412.085 458.984 411.727 462.284C411.369 465.584 410.53 469.267 409.862 470.468C409.196 471.67 408.65 474.381 408.65 476.495C408.65 478.609 408.017 481.242 407.243 482.346C406.47 483.451 405.518 486.482 405.128 489.082C404.738 491.682 404.022 494.055 403.536 494.355C403.049 494.656 402.651 497.52 402.651 500.721C402.651 506.701 401.798 508.263 398.162 508.938C397.069 509.141 396.034 510.201 395.862 511.294C395.69 512.388 395.146 514.184 394.654 515.284C394.162 516.384 392.797 519.759 391.621 522.784C390.445 525.809 389.09 528.959 388.611 529.784C388.132 530.609 385.003 536.796 381.656 543.534C378.309 550.272 375.14 555.784 374.612 555.784C374.085 555.784 373.654 556.426 373.654 557.211C373.654 560.494 368.669 562.784 361.521 562.784C354.657 562.784 354.657 562.784 354.657 579.219C354.657 588.258 354.216 596.814 353.676 598.233C352.14 602.273 326.9 627.006 321.297 629.961C313.219 634.222 306.993 643.728 305.796 653.629C303.553 672.193 302.99 675.306 301.339 678.284C300.425 679.934 299.674 682.034 299.67 682.951C299.667 683.867 299.321 684.767 298.901 684.951C298.09 685.305 290.665 695.478 290.665 696.235C290.665 696.481 292.015 698.683 293.664 701.128C298.308 708.009 296.287 715.901 288.659 720.681C283.971 723.619 283.285 726.148 283.06 741.284C282.97 747.334 282.446 756.334 281.895 761.284C280.955 769.732 280.267 772.016 275.539 782.394C274.51 784.654 273.667 786.788 273.667 787.136C273.667 792.407 262.69 796.724 256.954 793.709C248.739 789.39 248.169 788.953 244.71 784.337C242.835 781.832 240.933 779.784 240.485 779.784C240.037 779.784 239.671 779.109 239.671 778.284C239.671 777.459 239.293 776.784 238.832 776.784C238.37 776.784 237.465 775.772 236.821 774.534C236.177 773.296 234.768 770.934 233.69 769.284C226.955 758.981 227.236 760.452 226.848 733.416C226.54 711.917 226.72 707.949 228.179 704.129C229.732 700.059 229.739 699.445 228.269 696.346C225.363 690.221 226.029 674.284 229.318 671.235C233.242 667.599 223.607 668.902 216.174 673.013C215.074 673.621 211.025 674.493 207.175 674.951C203.326 675.409 197.887 676.059 195.091 676.394C186.158 677.466 180.35 672.891 184.726 668.232C186.642 666.192 187.973 665.784 192.692 665.784C195.809 665.784 200.567 665.113 203.267 664.294C205.966 663.475 209.208 662.8 210.471 662.794C211.732 662.788 216.457 661.636 220.969 660.234C225.481 658.832 232 656.806 235.456 655.731C239.95 654.332 242.614 652.779 244.808 650.28C248.308 646.294 249.65 645.998 252.08 648.684C253.783 650.566 259.044 650.129 262.168 647.845C262.718 647.443 265.868 646.548 269.167 645.855C272.467 645.162 276.101 644.003 277.244 643.28C278.386 642.556 281.687 641.26 284.58 640.401C295.776 637.076 310.662 628.346 310.662 625.105C310.662 623.973 322.167 614.784 323.584 614.784C324.091 614.784 328.982 610.397 334.455 605.034C344.405 595.284 344.405 595.284 345.108 578.148C345.81 561.012 345.81 561.011 338.485 557.389C317.352 546.941 314.433 541.409 321.54 525.284C322.025 524.184 323.191 521.259 324.133 518.784C325.075 516.309 326.729 512.484 327.809 510.284C328.889 508.084 329.974 503.809 330.219 500.784C330.465 497.759 330.931 492.181 331.255 488.389C331.578 484.597 331.419 480.547 330.901 479.389C328.113 473.157 327.278 469.697 327.222 464.138C327.18 459.937 326.642 457.407 325.522 456.138C324.621 455.118 323.566 452.789 323.177 450.962C322.634 448.409 322.089 447.791 320.816 448.287C318.894 449.035 318.728 449.059 316.43 448.901C315.479 448.836 314.422 447.677 314.083 446.325C313.743 444.973 312.835 443.341 312.064 442.702C311.293 442.062 310.662 440.059 310.662 438.251C310.662 436.442 309.768 432.11 308.675 428.623C307.582 425.137 306.683 421.083 306.676 419.615C306.669 418.147 306.038 415.672 305.274 414.115C302.896 409.269 299.956 399.638 297.539 388.784C296.988 386.309 296.103 382.867 295.572 381.135C295.042 379.403 294.333 375.048 293.998 371.458C293.433 365.409 293.068 364.615 289.027 360.648C286.628 358.293 284.665 355.903 284.665 355.334C284.665 353.974 277.553 343.51 275.93 342.483C275.236 342.043 274.667 340.907 274.667 339.957C274.667 339.007 274 337.275 273.184 336.111C270.261 331.938 264.668 320.463 264.668 318.641C264.668 317.619 264.063 316.784 263.323 316.784C262.583 316.784 261.163 315.884 260.169 314.784C259.174 313.684 257.274 312.784 255.948 312.784C254.622 312.784 252.639 312.302 251.541 311.714C249.822 310.794 248.983 311.282 245.523 315.214C243.311 317.727 240.977 319.785 240.336 319.788C239.695 319.79 237.821 321.045 236.171 322.575C234.522 324.105 231.597 326.347 229.672 327.558C227.748 328.769 222.573 333.657 218.174 338.42C213.774 343.183 208.038 349.239 205.425 351.876C202.813 354.513 200.676 356.842 200.676 357.05C200.676 357.259 196.677 361.634 191.79 366.775C183.976 374.994 182.829 376.668 182.285 380.633C181.522 386.198 178.975 395.249 177.01 399.371C174.776 404.058 175.581 410.198 178.483 410.61C184.697 411.491 184.533 432.028 178.278 436.127C175.592 437.887 169.68 434.516 169.68 431.225C169.68 427.447 166.864 431.713 164.841 438.555C163.585 442.806 161.91 447.761 161.119 449.567C160.328 451.373 159.681 453.51 159.681 454.314C159.681 456.305 155.648 468.053 154.559 469.233C152.797 471.142 153.535 476.784 155.547 476.784C160.153 476.784 162.681 480.516 162.681 487.315C162.681 498.267 157.409 504.532 150.429 501.878C147.624 500.811 146.683 501.284 146.683 503.763C146.683 504.668 145.333 506.703 143.683 508.284C139.985 511.828 139.935 513.657 143.396 519.054C146.486 523.872 147.949 536.553 145.724 539.234C144.817 540.326 144.821 541.172 145.74 542.89C148.059 547.223 147.051 554.809 143.697 558.27C140.061 562.022 140.057 562.065 143.142 565.151C150.588 572.598 143.745 591.784 133.643 591.784C129.051 591.784 128.668 590.992 127.943 579.982C127.504 573.316 127.113 571.789 125.959 572.232C125.168 572.536 124.12 572.784 123.629 572.784C123.126 572.784 123.161 573.903 123.711 575.348C125.101 579.007 124.854 584.865 123.186 587.784C122.4 589.159 121.738 592.084 121.715 594.284C121.692 596.484 121.001 599.573 120.18 601.148C119.358 602.724 118.671 605.199 118.652 606.648C118.633 608.098 117.749 611.084 116.686 613.284C115.623 615.484 114.74 618.019 114.721 618.919C114.702 619.818 114.015 621.843 113.193 623.419C112.372 624.994 111.681 627.634 111.658 629.284C111.635 630.934 110.973 633.409 110.187 634.784C109.401 636.159 108.742 638.466 108.722 639.911C108.703 641.356 108.012 644.154 107.188 646.129C104.756 651.949 105.169 653.207 109.937 654.499C123.18 658.086 146.805 661.611 163.072 662.427C173.72 662.961 175.32 663.694 176.254 668.475C177.481 674.75 174.04 675.281 151.2 672.336C149.561 672.124 144.722 671.641 140.446 671.263C136.171 670.885 132.425 670.172 132.12 669.679C131.816 669.187 129.058 668.784 125.992 668.784C120.488 668.784 114.226 667.516 110.032 665.555C106.115 663.722 105.688 665.168 105.688 680.265C105.688 694.63 105.688 694.63 102.188 699.215C100.264 701.737 98.6888 704.034 98.6888 704.319C98.6888 704.604 96.6379 706.749 94.1302 709.085C89.9127 713.014 89.5469 713.748 89.2349 718.93C89.0489 722.009 88.4619 725.374 87.93 726.407C87.3981 727.439 86.7151 730.759 86.4122 733.784C86.1092 736.809 85.1514 740.634 84.2825 742.284C83.4136 743.934 82.7008 746.77 82.6968 748.586C82.6788 758.419 67.9916 775.784 59.6937 775.784C54.6083 775.784 38.6961 761.167 38.6961 756.496C38.6961 756.003 37.8052 754.467 36.7173 753.084C34.2057 749.89 34.6767 716.106 37.2903 712.042C39.5011 708.603 39.5411 689.374 37.3423 686.944C35.1116 684.48 35.2717 679.536 37.7374 674.702C40.874 668.555 47.4032 662.784 51.2227 662.784C53.7524 662.784 54.6941 661.087 54.6941 656.531C54.6941 654.832 55.397 652.663 56.2569 651.713C57.9727 649.817 59.2156 650.628 43.5086 643.4C40.381 641.961 37.4603 640.784 37.0184 640.784C36.5754 640.784 31.2601 638.36 25.2068 635.396C19.1526 632.433 12.2734 629.171 9.92071 628.146C-0.909938 623.432 -4.12845 598.298 6.6712 602.772C9.36586 603.888 9.63068 604.449 9.90264 609.636C10.1996 615.284 10.1998 615.284 24.1981 622.477C31.8971 626.433 38.7862 629.696 39.5081 629.727C41.1489 629.798 52.9594 635.127 61.1934 639.511C66.6867 642.436 67.9246 642.956 72.574 644.293C75.1137 645.024 80.341 646.763 84.1905 648.159C94.0662 651.742 96.689 651.648 96.689 647.712C96.689 646.022 97.3639 643.965 98.1888 643.14C99.0137 642.315 99.7044 640.435 99.7234 638.962C99.7434 637.488 100.402 635.159 101.188 633.784C101.974 632.409 102.633 629.778 102.653 627.938C102.672 626.098 103.308 623.398 104.066 621.938C105.454 619.264 107.015 613.914 108.721 605.982C109.229 603.617 110.33 600.704 111.166 599.51C112.006 598.312 112.687 595.224 112.687 592.62C112.687 590.024 113.074 587.662 113.547 587.369C114.624 586.704 115.885 577.914 115.089 576.626C114.746 576.071 113.514 576.322 112.13 577.23C107.311 580.388 98.3318 575.603 96.1851 568.733C95.7642 567.386 94.8052 565.396 94.0543 564.311C93.3033 563.227 92.6895 561.532 92.6895 560.547C92.6895 559.562 92.2715 557.975 91.7615 557.02C89.5638 552.91 86.6902 546.056 86.6902 544.925C86.6902 543.269 79.7062 530.37 78.5823 529.95C78.0904 529.767 77.4103 527.878 77.0713 525.756C76.5754 522.658 75.8848 521.697 73.5731 520.891C71.9892 520.339 70.6922 519.207 70.6922 518.375C70.6922 517.543 69.8854 516.057 68.8985 515.073C67.9116 514.089 65.3309 510.903 63.1631 507.994C60.9964 505.085 58.2036 502.037 56.9588 501.221C55.325 500.15 54.6941 498.77 54.6941 496.261C54.6941 494.349 54.2334 492.784 53.6695 492.784C53.1066 492.784 52.2176 491.659 51.6946 490.284C51.1717 488.909 50.2918 487.784 49.7388 487.784C49.1859 487.784 48.459 486.692 48.1241 485.356C46.8272 480.189 41.7988 482.118 41.7278 487.811C41.7098 489.202 41.0779 491.227 40.324 492.311C39.5691 493.396 38.6253 495.859 38.2254 497.784C37.1125 503.148 31.8791 517.684 30.1963 520.088C29.3724 521.265 28.6826 523.14 28.6636 524.256C28.6446 525.371 27.7607 528.084 26.6978 530.284C25.6349 532.484 24.751 535.431 24.732 536.834C24.713 538.236 24.3059 539.811 23.826 540.334C22.7071 541.554 18.6988 554.545 18.6988 556.951C18.6988 557.959 18.2768 558.784 17.7598 558.784C17.2439 558.784 16.514 560.921 16.137 563.534C15.7611 566.147 14.8331 569.801 14.0762 571.656C13.2303 573.727 12.6856 578.936 12.6636 585.156C12.6246 596.221 10.3998 601.448 6.0833 600.62C3.46963 600.118 2.75177 576.991 5.17046 571.201C6.01236 569.187 6.70025 566.229 6.70025 564.629C6.70025 563.028 7.30411 560.272 8.04302 558.502C8.78193 556.732 9.72192 553.484 10.1329 551.284C10.5428 549.084 11.3637 546.698 11.9556 545.981C12.5485 545.264 13.3722 542.789 13.7862 540.481C14.902 534.275 16.7181 527.698 18.2999 524.133C19.0698 522.4 19.6985 520.716 19.6985 520.391C19.6985 518.912 24.1619 509.784 24.8848 509.784C25.3318 509.784 25.6978 508.409 25.6978 506.729C25.6978 505.049 26.6226 501.561 27.7525 498.979C31.1761 491.154 31.452 490.463 33.2308 485.284C36.3644 476.155 36.3075 470.369 33.0389 466.044C29.3453 461.157 25.173 452.53 20.1866 439.47C14.6153 424.881 14.2262 386.772 19.5945 381.461C25.0109 376.102 25.6828 378.362 25.6148 401.708C25.5828 412.475 25.7717 422.184 26.0357 423.284C26.2987 424.384 27.0376 427.534 27.6775 430.284C31.2291 445.546 40.852 463.077 51.4007 473.504C54.8623 476.925 57.6939 480.231 57.6939 480.849C57.6939 483.436 61.7024 487.594 63.6941 487.073C64.794 486.786 65.6929 486.183 65.6929 485.734C65.6929 485.285 66.5798 484.637 67.6636 484.293C68.7475 483.949 72.1002 481.258 75.1158 478.315C78.1304 475.371 81.4327 472.361 82.4556 471.624C83.4785 470.887 85.3844 468.821 86.6902 467.034C87.9971 465.247 89.7788 463.784 90.6497 463.784C91.5206 463.784 93.8673 462.438 95.8631 460.792C100.817 456.708 108.438 453.007 113.59 452.182C117.845 451.502 117.866 451.478 117.333 447.891C115.416 434.968 114.437 430.243 113.619 429.951C113.106 429.767 112.687 428.586 112.687 427.326C112.687 424.41 110.041 416.859 108.31 414.834C107.014 413.317 103.437 406.761 102.282 403.784C101.963 402.959 101.264 401.609 100.731 400.784C100.199 399.959 98.5896 396.616 97.1568 393.355C95.724 390.094 93.6833 386.32 92.6214 384.97C89.7468 381.315 90.0248 375.989 93.1304 375.209C94.8452 374.779 95.775 373.658 96.2559 371.44C97.4068 366.134 103.635 366.54 105.186 372.023C108.114 382.378 111.137 382.343 115.697 371.902C116.269 370.593 117.718 368.143 118.919 366.457C121.793 362.421 124.685 356.694 124.685 355.041C124.685 354.315 125.319 353.478 126.095 353.18C126.87 352.883 127.769 351.585 128.092 350.298C128.415 349.011 130.649 344.628 133.055 340.555C135.463 336.483 137.749 332.155 138.136 330.936C138.908 328.503 143.234 323.784 144.693 323.784C150.48 323.784 145.865 341.811 137.154 353.234C135.795 355.015 134.684 356.95 134.684 357.535C134.684 358.642 130.865 366.1 127.641 371.284C126.615 372.934 124.595 376.534 123.152 379.284C121.709 382.034 119.889 384.994 119.107 385.863C118.325 386.731 117.686 387.895 117.686 388.451C117.686 389.007 116.561 389.976 115.187 390.602C112.696 391.737 111.865 394.158 113.6 395.23C114.102 395.541 114.816 397.59 115.187 399.784C115.558 401.978 116.218 403.994 116.656 404.265C117.094 404.535 117.771 407.351 118.161 410.521C118.551 413.691 119.457 416.959 120.175 417.784C120.893 418.609 121.714 421.309 122 423.784C122.286 426.259 123.498 432.109 124.694 436.784C125.89 441.459 127.417 450.234 128.087 456.284C128.757 462.334 129.578 467.959 129.912 468.784C131.499 472.712 132.235 485.148 131.212 490.784C130.697 493.622 131.297 495.703 134.38 501.784C138.184 509.284 138.184 509.284 138.271 503.284C138.319 499.984 138.858 495.259 139.469 492.784C140.079 490.309 141.021 485.809 141.562 482.784C143.089 474.246 144.937 467.784 145.851 467.784C146.309 467.784 146.683 466.767 146.683 465.525C146.683 464.283 148.08 459.445 149.786 454.775C151.494 450.104 153.211 444.484 153.603 442.284C153.995 440.084 154.824 437.384 155.446 436.284C156.067 435.184 157.511 431.359 158.657 427.784C159.802 424.209 161.104 420.384 161.55 419.284C163.726 413.919 166.68 404.05 166.68 402.148C166.68 400.974 167.352 398.724 168.174 397.148C168.995 395.573 169.67 393.3 169.674 392.098C169.677 390.896 170.129 388.734 170.677 387.292C172.193 383.304 170.278 385.107 165.929 391.764C161.713 398.217 157.345 402.252 155.386 401.501C152.684 400.464 151.234 395.913 152.494 392.427C154.272 387.511 154.124 344.117 152.314 339.656C151.561 337.801 150.646 333.601 150.28 330.322C149.547 323.758 147.306 315.013 145.105 310.133C144.323 308.4 143.683 306.059 143.683 304.932C143.683 301.439 137.233 291.635 135.847 293.021C134.937 293.931 133.998 293.809 131.771 292.493C130.179 291.552 128.416 290.784 127.854 290.784C126.135 290.784 110.521 280.864 104.688 276.066C99.3887 271.707 99.1787 271.629 98.9087 273.913C98.2748 279.279 97.4551 280.981 93.1746 285.801C90.7079 288.578 88.69 291.177 88.69 291.577C88.69 291.976 87.501 293.587 86.0481 295.154C82.7746 298.684 77.3404 305.774 76.3655 307.784C75.9656 308.609 73.641 311.984 71.1993 315.284C68.7586 318.584 65.0669 323.759 62.9971 326.784C60.9274 329.809 58.8866 332.434 58.4637 332.617C58.0397 332.801 57.6939 333.4 57.6939 333.949C57.6939 334.498 56.1189 336.869 54.1941 339.219C52.2694 341.568 50.6946 343.978 50.6946 344.575C50.6946 345.172 49.3449 347.138 47.6951 348.944C46.0453 350.751 44.6954 352.557 44.6954 352.957C44.6954 353.357 43.3958 355.618 41.806 357.983C40.2172 360.348 37.5884 364.759 35.9647 367.784C31.1952 376.671 25.7597 376.04 25.7117 366.593C25.7037 365.113 26.122 363.639 26.6409 363.318C27.1599 362.998 29.4795 359.302 31.7962 355.104C34.1139 350.906 36.8145 346.665 37.7994 345.68C38.7842 344.695 40.3469 342.426 41.2718 340.636C42.1977 338.846 43.5638 336.773 44.3077 336.029C45.5985 334.738 50.3198 328.032 55.6941 319.855C62.0873 310.128 63.7862 307.794 67.1158 304.169C69.0775 302.032 70.6853 299.927 70.6873 299.493C70.6923 298.714 74.6306 292.758 75.7845 291.784C76.1104 291.509 78.0953 288.809 80.1971 285.784C86.7393 276.363 87.1602 275.848 88.3321 275.815C88.959 275.798 89.7538 274.665 90.0967 273.298C90.4817 271.765 91.6716 270.575 93.2044 270.19C96.022 269.483 96.283 268.153 94.1573 265.343C89.0729 258.62 105.573 237.218 110.832 243.714C113.263 246.716 112.282 250.882 108.06 255.492C102.844 261.187 105.474 265.055 120.615 273.956C125.328 276.727 129.95 279.671 130.885 280.498C132.846 282.235 131.908 277.247 129.121 271.133C128.331 269.4 127.685 267.487 127.685 266.883C127.685 266.278 127.275 265.784 126.773 265.784C126.271 265.784 125.54 263.872 125.148 261.534C124.755 259.196 123.817 256.396 123.061 255.311C122.305 254.227 121.686 252.143 121.686 250.683C121.686 249.223 121.011 247.469 120.186 246.784C119.361 246.099 118.686 244.555 118.686 243.353C118.686 242.15 118.025 240.292 117.218 239.224C116.41 238.157 115.733 236.384 115.712 235.284C115.691 234.184 115.002 231.994 114.181 230.419C113.359 228.843 112.687 226.762 112.687 225.792C112.687 224.822 112.024 223.478 111.213 222.805C110.403 222.132 109.463 219.94 109.126 217.933C108.788 215.925 107.877 212.866 107.1 211.133C106.323 209.4 105.674 206.475 105.656 204.633C105.639 202.791 104.964 200.41 104.156 199.343C103.349 198.275 102.688 195.301 102.688 192.732C102.688 180.265 102.347 179.611 92.8235 173.849C85.5255 169.434 77.3265 163.604 69.4424 157.22C64.2681 153.031 68.0023 145.749 75.7064 145.009C78.428 144.747 81.1678 143.915 81.7947 143.159C82.5896 142.201 85.4015 141.78 91.0618 141.77C104.07 141.748 103.239 142.672 102.877 128.621C102.637 119.264 102.917 115.821 104.127 113.27C104.986 111.462 105.688 107.897 105.688 105.35C105.688 102.803 106.363 99.1035 107.188 97.1295C108.012 95.1545 108.688 92.3306 108.688 90.8526C108.688 89.3746 109.348 87.2924 110.155 86.2244C110.963 85.1574 111.631 82.9335 111.641 81.2835C111.65 79.6335 112.524 75.3585 113.583 71.7835C116.647 61.4345 117.797 56.6496 118.57 51.0306C118.967 48.1416 119.831 45.2386 120.489 44.5806C121.147 43.9226 121.686 41.9845 121.686 40.2745C121.686 38.5645 122.347 36.2924 123.154 35.2244C123.962 34.1574 124.638 32.6085 124.659 31.7835C124.68 30.9585 125.27 29.1585 125.97 27.7835C126.671 26.4085 128.355 22.4264 129.714 18.9344C131.238 15.0204 133.238 11.8315 134.934 10.6165C136.446 9.53351 137.684 8.07455 137.684 7.37555C137.684 1.33455 156.329 -1.63649 164.929 3.03351ZM146.92 12.1104C144.625 13.3854 137.684 23.0805 137.684 25.0115C137.684 25.5905 136.841 27.9134 135.812 30.1734C132.005 38.5314 130.685 41.8844 130.685 43.2034C130.685 43.9464 130.013 45.8435 129.191 47.4195C128.37 48.9945 127.695 51.6945 127.691 53.4185C127.685 56.3495 125.956 63.3385 123.519 70.2835C122.94 71.9335 122.092 75.7395 121.634 78.7405C121.177 81.7415 120.381 85.1165 119.866 86.2405C118.916 88.3125 117.415 94.8045 115.58 104.784C115.023 107.809 113.916 112.309 113.119 114.784C112.322 117.259 111.535 123.109 111.37 127.784C111.204 132.459 110.871 136.959 110.628 137.784C110.266 139.016 111.527 139.306 117.686 139.407C121.811 139.475 126.648 140.005 128.435 140.587C130.222 141.168 131.714 141.337 131.749 140.963C131.784 140.589 131.776 136.234 131.732 131.284C131.683 125.836 132.249 120.347 133.167 117.375C134.001 114.675 134.684 110.373 134.684 107.815C134.684 105.258 135.345 102.292 136.152 101.224C136.96 100.157 137.635 97.8265 137.652 96.0445C137.689 92.2565 141.474 77.7186 142.785 76.3336C143.279 75.8116 143.683 74.3806 143.683 73.1546C143.683 71.9296 144.282 70.3275 145.014 69.5955C145.747 68.8625 146.633 67.1435 146.983 65.7735C147.334 64.4045 148.781 62.0415 150.2 60.5245C155.571 54.7805 159.733 62.8955 155.58 71.0135C150.486 80.9665 149.682 82.7525 149.682 84.1165C149.682 85.4515 148.407 89.9754 145.044 100.568C144.295 102.925 143.667 106.975 143.648 109.568C143.628 112.161 142.969 115.409 142.183 116.784C140.174 120.299 140.15 136.698 142.151 139.343C143.216 140.75 143.628 144.116 143.651 151.584C143.672 158.32 144.161 162.818 145.065 164.584C145.825 166.069 146.764 169.194 147.152 171.529C147.54 173.863 148.217 175.995 148.657 176.267C149.095 176.539 149.752 178.342 150.114 180.273C150.476 182.204 151.163 183.784 151.639 183.784C152.116 183.784 152.803 185.696 153.165 188.034C153.724 191.634 157.733 201.46 160.817 206.784C161.295 207.609 162.144 209.409 162.704 210.784C164.693 215.67 166.159 218.321 168.435 221.146C170.739 224.008 170.739 224.008 170.058 219.646C169.683 217.247 168.544 213.715 167.528 211.798C166.512 209.881 165.68 207.213 165.68 205.869C165.68 204.525 165.255 202.044 164.736 200.355C163.881 197.572 163.339 192.84 160.937 167.284C159.449 151.446 160.761 125.264 163.355 119.034C165.817 113.118 171.263 115.251 170.876 121.98C169.854 139.768 169.855 161.064 170.878 158.784C171.495 157.409 172.118 154.121 172.262 151.478C172.405 148.835 173.165 145.685 173.95 144.478C174.735 143.271 175.687 140.616 176.066 138.576C176.444 136.537 177.409 133.612 178.21 132.076C179.011 130.541 179.668 128.777 179.672 128.156C179.675 127.536 180.353 126.469 181.178 125.784C182.003 125.099 182.678 123.299 182.678 121.784C182.678 120.269 183.353 118.469 184.178 117.784C185.003 117.099 185.678 115.781 185.678 114.854C185.678 109.371 193.396 105.02 195.649 109.233C197.207 112.144 195.694 116.546 186.941 134.54C184.887 138.761 185.457 139.177 192.934 138.905C198.01 138.721 199.949 138.131 203.314 135.749C205.591 134.137 208.516 132.362 209.814 131.804C212.786 130.526 215.201 129.012 219.814 125.534C221.819 124.022 224.083 122.784 224.844 122.784C225.605 122.784 227.705 121.434 229.512 119.784C231.317 118.134 233.194 116.784 233.682 116.784C234.17 116.784 235.83 115.622 237.369 114.201C245.97 106.27 251.004 101.203 252.397 99.0765C254.632 95.6655 260.803 96.1265 261.843 99.7835C262.234 101.159 263.292 104.984 264.193 108.284C267.645 120.918 275.912 131.784 282.073 131.784C283.152 131.784 285.999 132.736 288.401 133.898C293.551 136.392 294.224 136.085 292.189 132.182C290.391 128.734 290.002 102.891 291.7 99.7176C294.54 94.4106 296.892 97.8915 297.824 108.784C299.597 129.5 303.663 145.271 303.663 131.432C303.663 125.077 304.993 122.784 308.679 122.784C311.959 122.784 312.123 123.17 313.135 133.271C313.465 136.563 314.169 139.691 314.699 140.221C315.228 140.75 315.662 143.919 315.662 147.261C315.662 151.371 316.214 154.127 317.367 155.774C318.65 157.605 319.145 160.78 319.364 168.574C319.567 175.782 320.113 179.592 321.158 181.084C321.985 182.264 322.661 185.099 322.661 187.384C322.661 189.857 323.268 192.043 324.16 192.784C324.985 193.469 325.66 195.044 325.66 196.284C325.66 197.524 326.335 199.099 327.16 199.784C327.985 200.469 328.66 201.85 328.66 202.854C328.66 206.856 334.632 216.208 339.258 219.449C342.348 221.615 342.348 221.615 341.875 216.449C341.615 213.608 340.949 210.413 340.397 209.349C339.844 208.285 339.168 201.31 338.895 193.849C338.581 185.273 337.895 179.291 337.029 177.584C335.927 175.411 335.659 165.693 335.659 127.878C335.659 80.8715 335.659 80.8715 332.659 75.7835C327.859 67.6405 329.163 61.2326 335.072 63.9256C337.917 65.2216 341.658 70.4836 341.658 73.1866C341.658 74.1036 342.423 76.0206 343.357 77.4466C345.123 80.1416 345.792 102.802 344.726 123.784C343.534 147.246 344.477 162.784 347.093 162.784C350.844 162.784 354.657 161.005 354.657 159.256C354.657 157.745 358.511 149.83 359.755 148.786C360.085 148.509 360.625 144.983 360.954 140.948C361.284 136.913 362.027 133.042 362.606 132.345C363.184 131.648 363.948 126.848 364.304 121.68C364.662 116.478 365.554 111.404 366.303 110.311C368.068 107.736 368.224 76.2904 366.492 72.0984C365.852 70.5504 364.774 64.7835 364.097 59.2835C362.521 46.4905 360.829 37.1086 359.712 34.9686C359.229 34.0416 358.095 31.1816 357.192 28.6126C354.936 22.1906 353.664 21.2995 348.947 22.8375C341.907 25.1325 326.68 38.0195 325.084 43.0335C324.777 43.9965 324.107 44.7835 323.594 44.7835C323.081 44.7835 322.661 45.6465 322.661 46.7015C322.661 53.1675 317.946 53.4725 307.248 47.7005C303.085 45.4555 299.446 43.2394 299.16 42.7774C298.874 42.3144 296.396 41.1906 293.652 40.2796C290.91 39.3686 288.665 38.2576 288.665 37.8116C288.665 37.3656 287.427 36.6915 285.915 36.3135C284.404 35.9365 282.491 35.0714 281.666 34.3914C280.841 33.7124 276.792 31.8956 272.667 30.3536C268.543 28.8126 262.97 26.7045 260.285 25.6675C254.955 23.6105 247.908 23.2575 241.364 24.7205C239.058 25.2355 233.122 26.3954 228.172 27.2984C216.053 29.5104 209.126 31.4824 203.334 34.3694C200.67 35.6974 198.025 36.7835 197.455 36.7835C196.885 36.7835 193.783 38.5835 190.56 40.7835C187.338 42.9835 184.261 44.7835 183.724 44.7835C183.188 44.7835 182.274 45.6695 181.695 46.7525C180.485 49.0145 172.8 53.7835 170.365 53.7835C167.182 53.7835 164.378 45.8386 167.537 45.7696C172.85 45.6526 178.716 33.1625 174.26 31.4525C173.547 31.1795 172.7 29.6405 172.379 28.0335C172.057 26.4255 170.307 23.2865 168.488 21.0565C166.668 18.8275 164.061 15.6036 162.692 13.8936C159.917 10.4266 151.638 9.49041 146.92 12.1104ZM253.669 113.605C253.669 114.844 241.422 124.402 234.912 128.244C227.983 132.334 226.372 134.664 227.248 139.334C228.675 146.943 222.805 149.933 214.629 145.761C211.081 143.95 210.377 143.886 207.92 145.147C201.271 148.561 188.898 151.708 185.714 150.794C183.475 150.152 182.47 150.236 182.215 151.088C180.82 155.738 180.979 156.994 183.262 159.276C184.591 160.605 185.678 162.628 185.678 163.77C185.678 167.792 192.592 166.423 192.708 162.378C192.84 157.794 206.86 155.71 213.667 159.263C218.992 162.042 223.673 166.096 223.673 167.927C223.673 168.831 224.348 169.829 225.173 170.146C225.998 170.462 226.673 171.549 226.673 172.561C226.673 173.574 227.334 175.275 228.14 176.343C230.491 179.45 229.958 181.248 225.086 186.669C215.144 197.728 195.677 193.468 195.677 180.233C195.677 177.661 194.173 176.172 193.187 177.767C192.051 179.605 186.164 178.884 183.72 176.607C180.792 173.88 181.075 186.658 184.036 190.884C188.308 196.985 182.172 208.134 177.25 203.212C174.384 200.345 175.302 208.976 178.614 216.031C180.228 219.47 181.851 223.522 182.221 225.034C182.592 226.546 183.536 227.784 184.32 227.784C185.971 227.784 191.677 233.332 191.677 234.936C191.677 236.651 199.265 243.784 201.09 243.784C201.997 243.784 202.998 244.459 203.314 245.284C203.63 246.109 204.655 246.784 205.591 246.784C206.527 246.784 208.166 247.445 209.234 248.252C211.817 250.206 222.991 250.31 224.581 248.395C225.245 247.595 228.581 246.76 232.452 246.426C236.147 246.107 240.879 245.555 242.966 245.2C245.781 244.721 247.233 244.984 248.598 246.219C250.323 247.78 250.667 247.726 254.172 245.346C256.227 243.952 260.442 242.094 263.538 241.219C266.634 240.344 270.549 239.213 272.238 238.706C278.181 236.921 287.907 239.129 290.16 242.776C293.911 248.843 316.661 229.867 316.661 220.672C316.661 219.205 317.956 216.572 319.604 214.684C322.199 211.711 322.376 211.127 321.104 209.721C320.31 208.844 319.661 206.979 319.661 205.577C319.661 204.175 318.986 202.469 318.161 201.784C317.336 201.099 316.661 199.425 316.661 198.063C316.661 196.701 316.026 194.167 315.25 192.434C314.473 190.701 313.553 187.597 313.205 185.534C312.856 183.472 312.097 181.784 311.518 181.784C308.703 181.784 303.791 185.138 303.209 187.457C302.59 189.922 298.512 194.046 294.266 196.499C289.942 198.997 282.06 198.102 278.6 194.719C267.515 183.882 280.732 160.942 296.664 163.367C304.157 164.507 304.786 164.833 306.259 168.359C307.81 172.074 309.666 172.136 309.659 168.474C309.654 166.107 305.256 158.917 301.903 155.793C300.765 154.732 299.157 152.899 298.333 151.721C296.782 149.507 289.506 149.613 288.111 151.87C287.801 152.372 285.393 152.784 282.762 152.784C276.576 152.784 274.334 150.519 274.334 144.271C274.334 141.803 273.96 139.784 273.503 139.784C270.221 139.784 258.669 124.039 258.669 119.567C258.669 118.048 257.894 115.901 256.947 114.794C255.166 112.715 253.669 112.172 253.669 113.605ZM124.361 151.858C125.888 153.386 133.002 155.705 134.094 155.031C135.84 153.952 130.456 150.784 126.874 150.784C124.315 150.784 123.594 151.091 124.361 151.858ZM84.3755 153.639C82.6218 154.331 82.6218 154.409 84.3755 155.916C88.633 159.576 104.987 169.84 111.687 173.059C113.062 173.719 114.782 174.828 115.508 175.522C116.235 176.216 117.368 176.784 118.026 176.784C118.684 176.784 122.59 178.578 126.703 180.773C142.524 189.211 142.807 189.239 140.21 182.069C139.257 179.437 138.254 175.619 137.98 173.583C137.396 169.236 136.06 168.226 125.685 164.307C120.887 162.494 115.306 161.26 110.187 160.879C102.188 160.283 102.188 160.284 100.356 156.534C98.4707 152.676 90.4878 151.229 84.3755 153.639ZM204.168 169.796C203.824 170.353 204.247 172.223 205.108 173.95C205.97 175.678 206.675 177.832 206.675 178.738C206.675 182.817 211.847 184.084 215.714 180.952C218.834 178.425 217.76 174.808 212.889 171.432C208.956 168.706 205.268 168.014 204.168 169.796ZM401.271 170.969C400.156 171.597 397.177 171.767 393.949 171.388C388.622 170.762 388.523 170.796 389.278 173.016C391.25 178.812 389.066 183.272 385.01 181.73C381.772 180.498 375.276 180.528 368.544 181.805C362.138 183.02 360.467 181.721 361.359 176.223C361.909 172.835 361.909 172.836 355.034 173.394C344.978 174.211 345.39 173.858 346.091 181.036C346.427 184.472 346.955 190.349 347.264 194.097C347.888 201.666 348.809 202.628 353.223 200.326C354.837 199.485 357.394 198.794 358.906 198.79C360.418 198.787 361.656 198.368 361.656 197.861C361.656 197.353 363.344 196.41 365.405 195.765C371.019 194.008 374.654 192.378 374.654 191.617C374.654 191.244 376.342 190.397 378.404 189.735C382.854 188.308 390.577 182.808 390.621 181.034C390.638 180.347 391.664 179.783 392.902 179.781C395.533 179.778 404.139 172.719 403.552 171.048C403.263 170.226 402.626 170.205 401.271 170.969ZM288.213 177.437C283.52 182.27 283.221 186.784 287.592 186.784C292.732 186.784 298.548 178.067 295.464 174.983C293.521 173.04 291.974 173.565 288.213 177.437ZM112.123 191.034C112.504 193.921 113.489 198.534 114.312 201.284C115.134 204.034 116.512 208.759 117.375 211.784C118.238 214.809 119.561 218.478 120.315 219.938C121.069 221.398 121.686 223.316 121.686 224.201C121.686 225.086 122.12 226.592 122.651 227.547C124.691 231.22 127.685 238.743 127.685 240.198C127.685 241.501 129.481 245.714 132.641 251.822C133.079 252.669 133.774 255.369 134.186 257.822C134.598 260.276 135.553 263.171 136.309 264.256C137.065 265.34 137.684 267.028 137.684 268.006C137.684 268.983 138.134 269.784 138.684 269.784C139.234 269.784 139.684 270.296 139.684 270.923C139.684 271.551 140.632 274.138 141.792 276.673C151.136 297.103 152.773 300.985 153.386 304.172C153.716 305.883 154.592 308.171 155.334 309.256C156.075 310.34 156.697 312.59 156.716 314.256C156.736 315.921 157.395 318.409 158.181 319.784C158.967 321.159 159.631 324.084 159.657 326.284C159.683 328.484 160.369 332.759 161.181 335.784C162.102 339.216 162.666 345.983 162.68 353.784C162.704 367.016 163.436 374.054 164.704 373.269C165.989 372.475 169.68 364.838 169.68 362.975C169.68 362.014 170.288 360.34 171.032 359.256C171.775 358.171 172.662 354.842 173.004 351.86C173.346 348.877 174.088 345.974 174.652 345.41C177.608 342.454 175.789 326.371 172.239 324.072C164.074 318.783 161.319 300.948 165.691 281.671C166.81 276.741 166.759 275.648 165.273 272.671C161.354 264.823 158.682 248.588 160.886 246.02C161.706 245.065 162.673 243.454 163.034 242.439C163.395 241.424 164.588 240.359 165.685 240.072C166.782 239.785 167.68 239.349 167.68 239.102C167.68 238.18 165.452 234.536 163.552 232.35C162.47 231.105 160.301 227.373 158.732 224.056C157.164 220.738 155.386 217.719 154.781 217.345C154.177 216.972 153.682 215.847 153.682 214.846C153.682 213.846 153.007 212.469 152.182 211.784C151.357 211.099 150.682 209.482 150.682 208.191C150.682 204.261 146.684 197.561 144.802 198.34C141.068 199.885 139.95 199.767 135.378 197.336C132.739 195.932 130.176 194.784 129.682 194.784C129.189 194.784 126.833 193.467 124.448 191.856C122.062 190.246 118.885 188.62 117.389 188.244C115.892 187.869 114.421 187.161 114.119 186.672C112.471 184.006 111.48 186.171 112.123 191.034ZM254.484 225.014C255.648 235.125 234.203 236.294 232.54 226.211C231.882 222.226 233.311 221.701 244.001 222C254.169 222.284 254.169 222.283 254.484 225.014ZM324.253 227.534C323.23 229.597 321.685 232.727 320.821 234.493C319.957 236.258 317.736 239.356 315.887 241.375C311.913 245.713 312.18 246.068 320.661 247.73C332.066 249.965 332.006 249.981 332.82 244.397C333.212 241.71 334.011 239.032 334.596 238.447C336.748 236.295 335.855 230.227 333.177 228.793C331.811 228.062 330.43 226.636 330.109 225.624C329.14 222.57 326.25 223.512 324.253 227.534ZM268.668 250.7C267.843 251.17 265.593 251.877 263.668 252.273C256.137 253.82 255.667 255.405 255.681 279.19C255.696 304.134 256.06 304.784 270.027 304.784C283.036 304.784 288.663 300.131 287.249 290.544C285.57 279.161 284.801 270.484 284.736 262.189C284.649 251.048 283.703 249.769 275.587 249.814C272.607 249.831 269.492 250.229 268.668 250.7ZM169.68 253.749C169.68 255.417 172.69 264.166 174.216 266.938C175.021 268.398 175.679 270.446 175.679 271.488C175.679 273.858 177.537 275.784 179.822 275.784C181.842 275.784 184.678 279.416 184.678 282.006C184.678 284.928 181.013 287.784 177.262 287.784C173.017 287.784 172.786 288.403 173.336 298.284C174.056 311.226 176.336 316.672 181.066 316.752C182.753 316.781 182.891 316.226 182.37 311.534C182.049 308.647 182.242 304.259 182.798 301.784C183.355 299.309 184.402 293.459 185.125 288.784C186.52 279.768 187.504 276.496 191.394 267.948C194.135 261.927 193.509 260.627 187.178 259.203C185.528 258.831 183.29 257.911 182.205 257.156C181.122 256.402 179.489 255.784 178.579 255.784C177.669 255.784 176.364 255.109 175.679 254.284C174.306 252.63 169.68 252.217 169.68 253.749ZM300.172 256.015C299.077 256.641 297.277 257.217 296.172 257.295C291.277 257.642 293.663 266.246 298.889 267.086C303.374 267.808 309.662 270.109 309.662 271.029C309.662 271.444 310.449 271.79 311.412 271.798C312.375 271.806 314.158 272.368 315.376 273.048C316.593 273.727 320.079 275.595 323.125 277.198C329.025 280.303 330.758 284.797 327.195 287.754C325.372 289.267 318.277 288.231 316.596 286.206C315.948 285.424 314.786 284.784 314.015 284.784C313.243 284.784 309.425 283.179 305.532 281.218C297.051 276.947 295.998 277.181 295.477 283.461C294.655 293.383 298.293 304.784 302.28 304.784C302.962 304.784 304.115 305.371 304.842 306.089C305.568 306.807 306.838 307.725 307.663 308.128C310.887 309.705 313.735 311.539 315.655 313.277C316.758 314.276 317.661 314.747 317.661 314.324C317.661 313.9 318.77 314.281 320.126 315.169C321.57 316.115 324.674 316.784 327.625 316.784C331.074 316.784 333.221 317.335 334.443 318.534C336.394 320.449 341.635 322.735 345.83 323.5C348.539 323.995 351.657 320.221 351.657 316.448C351.657 314.616 354.408 305.386 356.377 300.61C357.931 296.839 354.418 289.335 349.712 286.375C348.917 285.875 347.292 284.413 346.098 283.125C344.905 281.838 343.466 280.784 342.9 280.784C341.801 280.784 340.659 278.484 340.659 276.273C340.659 274.147 343.575 271.784 346.198 271.784C347.918 271.784 348.433 271.36 348.02 270.284C347.703 269.459 346.886 268.784 346.204 268.784C345.522 268.784 343.926 267.884 342.658 266.784C341.39 265.684 339.098 264.784 337.565 264.784C336.032 264.784 334.503 264.339 334.167 263.796C333.832 263.254 330.319 261.889 326.359 260.762C322.401 259.635 317.136 258.092 314.662 257.332C307.865 255.244 302.391 254.746 300.172 256.015ZM235.672 257.284C234.297 258.07 232.255 258.729 231.133 258.749C230.012 258.768 227.331 259.684 225.173 260.784C223.015 261.884 219.765 262.784 217.949 262.784C216.133 262.784 213.865 263.197 212.91 263.703C211.956 264.208 209.15 265.599 206.675 266.791C201.851 269.115 197.676 273.18 197.676 275.555C197.676 276.358 197.029 279.1 196.236 281.649C191.147 298.014 190.482 312.352 194.593 317.034C196.289 318.966 197.676 321.319 197.676 322.262C197.676 324.241 200.75 329.784 201.848 329.784C202.255 329.784 204.877 328.434 207.675 326.784C210.473 325.134 213.392 323.784 214.159 323.784C214.927 323.784 215.851 323.305 216.212 322.721C216.573 322.137 217.837 321.214 219.021 320.67C220.204 320.126 222.793 318.691 224.772 317.482C226.752 316.272 230.235 314.159 232.513 312.784C234.792 311.409 236.659 309.821 236.663 309.255C236.668 308.69 237.571 307.457 238.671 306.515C240.785 304.705 241.476 302.169 239.527 303.373C237.665 304.524 232.435 304.014 231.535 302.596C229.14 298.818 235.793 289.232 243.311 285.628C245.512 284.572 246.17 283.57 246.17 281.271C246.17 278.284 246.17 278.284 227.673 278.041C208.191 277.786 206.611 277.394 206.708 272.843C206.829 267.199 209.711 266.299 228.534 266.038C246.17 265.793 246.17 265.793 246.472 260.788C246.803 255.313 241.9 253.723 235.672 257.284ZM366.655 296.103C366.655 298.612 366.268 300.905 365.795 301.198C365.321 301.49 364.648 303.878 364.297 306.506C363.946 309.133 363.042 312.634 362.287 314.284C359.909 319.484 357.656 327.434 357.656 330.628C357.656 338.159 352.574 339.191 342.422 333.72C337.223 330.918 332.926 332.517 332.174 337.534C331.782 340.147 331.051 343.053 330.549 343.992C328.787 347.285 328.404 363.388 330.014 366.501C330.825 368.07 331.785 371.137 332.146 373.318C332.508 375.499 333.148 378.184 333.571 379.284C336.087 385.841 337.933 391.691 338.369 394.499C338.645 396.267 339.497 398.234 340.263 398.87C341.03 399.507 341.673 400.761 341.691 401.656C341.71 402.552 342.585 404.315 343.637 405.577C345.728 408.085 344.868 408.355 358.371 400.94C360.149 399.963 362.094 399.83 365.486 400.45C374.412 402.081 371.317 409.274 360.031 413.125C358.093 413.786 349.695 418.411 348.792 419.316C348.511 419.597 347.942 423.98 347.529 429.055C347.116 434.13 346.32 440.309 345.761 442.784C345.202 445.259 344.726 450.706 344.702 454.891C344.651 463.654 344.893 463.741 369.552 463.827C377.901 463.856 383.503 464.358 386.153 465.312C397.739 469.484 402.651 467.611 402.651 459.024C402.651 457.452 403.312 455.292 404.118 454.224C404.926 453.157 405.601 450.324 405.618 447.928C405.636 445.533 406.288 441.033 407.067 437.928C407.846 434.824 408.8 427.597 409.187 421.869C409.573 416.141 410.403 410.066 411.031 408.369C413.579 401.479 412.482 371.904 409.469 366.284C407.994 363.534 406.47 360.159 406.082 358.784C405.694 357.409 404.426 355.102 403.264 353.659C402.102 352.216 400.256 349.516 399.161 347.659C398.067 345.802 395.697 341.809 393.893 338.784C392.089 335.759 390.344 332.497 390.016 331.534C389.687 330.571 389.057 329.784 388.615 329.784C388.173 329.784 387.521 328.465 387.168 326.853C386.814 325.241 385.878 323.386 385.089 322.731C384.299 322.075 383.653 320.95 383.653 320.232C383.653 319.514 383.091 318.313 382.403 317.563C380.662 315.664 379.495 313.607 374.2 303.123C368.266 291.371 366.655 289.872 366.655 296.103ZM243.305 298.636C241.064 301.112 241.249 301.784 244.17 301.784C245.978 301.784 246.67 301.247 246.67 299.843C246.67 297.066 245.201 296.54 243.305 298.636ZM290.665 310.511C289.84 310.76 287.815 311.546 286.165 312.259C284.516 312.971 281.422 314.166 279.29 314.915C273.047 317.109 273.412 318.967 282.94 333.481C285.539 337.439 287.665 341.103 287.665 341.624C287.665 342.144 288.34 342.829 289.165 343.146C290.452 343.639 290.665 341.84 290.665 330.495C290.665 323.221 291.107 315.729 291.648 313.844C292.757 309.973 292.732 309.887 290.665 310.511ZM305.974 321.837C305.528 322.264 304.038 322.765 302.663 322.949C300.054 323.299 299.3 352.246 301.857 353.883C302.371 354.212 303.015 359.373 303.287 365.352C303.559 371.331 304.144 376.686 304.586 377.253C305.029 377.82 305.68 380.862 306.033 384.013C306.386 387.164 307.286 391.214 308.032 393.013C310.252 398.368 312.662 406.416 312.662 408.477C312.662 409.536 313.278 411.243 314.031 412.273C315.227 413.909 315.48 412.645 316.036 402.214C317.77 369.769 318.837 356.641 320.296 349.784C323.184 336.22 322.766 327.653 319.161 326.486C317.511 325.952 315.547 325.026 314.796 324.43C312.591 322.68 306.855 320.994 305.974 321.837ZM185.678 331.661C185.678 332.694 186.353 335.154 187.178 337.129C188.031 339.172 188.678 343.767 188.678 347.796C188.678 354.872 188.677 354.873 194.177 349.24C200.389 342.876 200.547 342.391 197.426 339.242C194.465 336.253 193.193 334.617 191.777 331.971C190.27 329.156 185.678 328.922 185.678 331.661ZM329.038 402.967C326.971 406.277 328.151 440.224 330.463 443.964C331.671 445.919 332.659 448.43 332.659 449.544C332.659 450.658 333.334 451.829 334.159 452.146C335.382 452.615 335.666 451.666 335.694 447.003C335.714 443.857 336.373 440.159 337.159 438.784C339.178 435.252 339.154 417.023 337.127 414.343C336.32 413.275 335.659 411.833 335.659 411.137C335.659 410.128 331.697 403.487 330.203 401.993C330.014 401.804 329.49 402.243 329.038 402.967ZM107.604 465.385C106.873 466.266 104.005 468.455 101.231 470.25C98.4586 472.044 95.098 474.698 93.7652 476.148C92.4314 477.598 90.8946 478.784 90.3497 478.784C89.8047 478.784 87.2961 480.97 84.7754 483.642C82.2538 486.315 79.6832 488.677 79.0623 488.892C73.416 490.847 69.7754 496.808 71.6602 501.009C75.6957 510.004 76.7044 510.523 82.1087 506.398C84.7124 504.41 87.3121 502.784 87.8851 502.784C88.457 502.784 90.4638 501.434 92.3426 499.784C94.2213 498.134 96.348 496.784 97.0689 496.784C97.7888 496.784 99.1937 495.884 100.189 494.784C101.183 493.684 102.536 492.784 103.193 492.784C103.85 492.784 106.252 491.434 108.529 489.784C110.806 488.134 113.236 486.782 113.928 486.779C120.035 486.755 124.038 474.232 120.269 466.943C118.351 463.234 110.218 462.234 107.604 465.385ZM279.244 475.034C287.32 481.159 287.665 481.706 287.665 488.383C287.665 495.986 287.077 497.677 284.03 498.836C279.362 500.611 271.699 495.078 271.635 489.888C271.618 488.456 270.943 486.41 270.135 485.343C264.82 478.314 272.343 469.8 279.244 475.034ZM351.644 474.024C349.726 474.473 346.808 474.953 345.158 475.09C342.158 475.338 342.158 475.339 341.515 483.812C340.763 493.722 340.623 493.369 344.515 491.357C351.58 487.703 377.181 489.526 386.984 494.381C391.356 496.546 393.35 496.163 393.972 493.034C394.273 491.522 395.087 488.091 395.782 485.413C396.9 481.096 396.854 480.404 395.368 479.317C392.223 477.017 357.042 472.758 351.644 474.024ZM113.584 499.555C111.166 500.987 107.055 503.649 104.448 505.471C101.841 507.293 99.2457 508.784 98.6788 508.784C95.4702 508.784 84.2275 518.278 85.1614 520.199C85.4514 520.796 85.9662 522.071 86.3062 523.034C86.6452 523.997 87.321 524.784 87.8069 524.784C88.2919 524.784 88.6981 525.571 88.7081 526.534C88.7181 527.497 90.0697 530.266 91.7105 532.689C93.3523 535.112 95.1561 538.806 95.719 540.897C96.283 542.988 97.1218 544.934 97.5848 545.22C98.0477 545.506 98.7285 547.635 99.0994 549.951C101.248 563.394 107.351 568.066 116.656 563.392C119.274 562.077 122.845 560.688 124.591 560.305C127.792 559.602 137.684 550.732 137.684 548.565C137.684 547.947 136.905 546.581 135.953 545.529C133.782 543.129 133.835 536.835 136.053 533.668C138.086 530.765 138.131 528.4 136.184 526.784C135.359 526.099 134.684 524.725 134.684 523.732C134.684 522.739 134.119 521.332 133.428 520.605C132.737 519.879 130.924 516.696 129.398 513.534C127.872 510.372 126.187 507.784 125.654 507.784C125.121 507.784 124.685 507.066 124.685 506.188C124.685 499.672 119.061 496.31 113.584 499.555ZM348.158 502.274C347.608 502.458 345.911 502.884 344.386 503.221C341.805 503.791 334.659 515.935 334.659 519.751C334.659 520.334 334.245 521.592 333.739 522.547C326.321 536.557 328.027 541.59 341.948 546.767C343.714 547.424 346.352 548.597 347.812 549.373C349.415 550.225 353.426 550.784 357.942 550.784C367.049 550.784 366.901 550.943 377.018 530.284C380.788 522.584 384.498 515.089 385.263 513.629C389.766 505.027 383.525 501.744 362.896 501.863C355.34 501.906 348.707 502.091 348.158 502.274ZM298.686 539.461C309.258 551.505 304.832 568.577 292.755 562.331C288.565 560.164 287.293 556.042 287.933 546.702C288.745 534.86 292.453 532.363 298.686 539.461ZM289.681 650.84C287.764 651.909 285.192 652.784 283.966 652.784C282.738 652.784 280.256 653.416 278.45 654.19C276.644 654.964 272.242 656.357 268.668 657.284C265.093 658.211 260.691 659.603 258.885 660.377C257.079 661.151 254.938 661.784 254.127 661.784C251.76 661.784 245.232 675.901 246.065 679.221C247.825 686.232 263.514 697.784 271.277 697.784C274.871 697.784 280.666 694.587 280.666 692.605C280.666 692.031 282.491 689.382 284.72 686.718C290.741 679.527 293.657 673.447 293.708 667.981C293.732 665.398 294.4 661.484 295.193 659.284C298.596 649.838 296.697 646.928 289.681 650.84ZM63.9678 658.832C63.8388 662.285 63.089 665.808 62.2181 667.052C53.4582 679.56 69.1084 690.767 85.0044 683.37C95.3342 678.563 100.62 662.902 92.2354 661.948C90.6106 661.763 88.3741 660.976 87.2642 660.198C86.1534 659.42 84.3645 658.784 83.2886 658.784C80.9349 658.784 68.5836 654.813 67.2427 653.625C65.059 651.692 64.1818 653.086 63.9678 658.832ZM47.283 678.25C45.2103 682.099 46.3133 689.324 49.5469 693.084C50.8868 694.642 50.9127 695.315 49.7378 698.084C48.9919 699.844 48.1801 703.734 47.9341 706.728C47.6892 709.722 46.9113 713.097 46.2064 714.228C45.4784 715.397 44.6407 721.39 44.2647 728.12C43.9017 734.631 43.0619 740.846 42.4 741.931C41.4231 743.533 41.4858 744.13 42.7347 745.095C43.5816 745.749 45.7645 748.759 47.5862 751.784C51.3738 758.074 57.4779 764.784 59.4107 764.784C60.9845 764.784 67.6627 760.579 67.6807 759.577C67.6867 759.189 69.0424 756.582 70.6922 753.784C72.342 750.986 73.6917 747.465 73.6917 745.961C73.6917 744.458 74.2998 742.34 75.0438 741.256C75.7877 740.171 76.6705 736.249 77.0054 732.54C77.3404 728.83 78.0822 724.922 78.6531 723.855C79.2241 722.788 79.691 720.003 79.691 717.665C79.691 711.977 83.1457 705.162 88.502 700.287C97.3629 692.222 97.2878 689.014 88.3499 693.784C73.2548 701.84 51.5347 693.88 51.3377 680.22C51.2467 673.922 49.9527 673.293 47.283 678.25ZM235.814 684.784C235.729 687.775 236.351 690.29 237.671 692.284C240.124 695.988 240.241 701.528 237.934 704.811C233.201 711.552 236.256 758.936 241.639 762.263C242.207 762.614 242.671 763.547 242.671 764.334C242.671 766.291 248.872 774.37 254.338 779.534C259.942 784.829 263.03 785.115 265.134 780.534C265.956 778.747 267.017 776.609 267.492 775.784C270.207 771.073 270.812 769.043 271.227 763.255C271.48 759.74 272.132 755.692 272.676 754.259C273.221 752.826 273.695 747.071 273.729 741.469C273.862 719.468 275.804 712.479 282.03 711.586C283.194 711.419 284.303 710.459 284.495 709.451C284.792 707.896 284.537 707.781 282.819 708.701C279.6 710.424 260.646 707.667 258.579 705.175C257.944 704.41 256.796 703.784 256.028 703.784C251.549 703.784 237.552 688.66 236.38 682.556C236.14 681.306 235.885 682.309 235.814 684.784Z"
  />
</svg>
