<svg
  width="359"
  height="805"
  viewBox="0 0 359 805"
  fill="none"
  xmlns="http://www.w3.org/2000/svg"
>
  <path
    fill-rule="evenodd"
    clip-rule="evenodd"
    fill="black"
    d="M285.298 2.13403C289.442 3.83803 292.188 7.24096 296.15 15.585C297.586 18.61 299.61 22.842 300.647 24.989C301.684 27.136 302.816 30.511 303.162 32.489C303.508 34.467 304.415 37.082 305.177 38.3C305.974 39.571 306.565 43.1579 306.565 46.7209C306.565 50.6659 307.081 53.5029 307.982 54.5059C311.251 58.1499 313.295 113.333 311.051 137.335C310.279 145.585 310.279 145.585 317.171 145.593C350.437 145.629 357.101 153.998 336.276 169.585C335.174 170.41 333.1 172.287 331.667 173.757C330.234 175.226 326.968 177.926 324.407 179.757C321.846 181.587 316.57 185.683 312.682 188.859C305.896 194.4 290.247 203.144 280.345 206.927C276.219 208.502 275.55 209.172 274.96 212.312C274.59 214.285 273.679 217.066 272.935 218.492C272.191 219.918 271.58 221.792 271.576 222.657C271.566 225.307 268.386 233.979 266.722 235.896C265.354 237.472 265.339 237.827 266.61 238.631C269.692 240.58 271.57 239.738 271.57 236.405C271.57 231.971 275.592 220.513 277.392 219.823C280.727 218.543 282.568 223.201 281.979 231.421C281.471 238.497 281.55 238.936 282.999 237.144C283.862 236.076 284.568 234.219 284.568 233.016C284.568 231.814 285.243 230.27 286.068 229.585C286.893 228.9 287.568 227.077 287.568 225.534C287.568 223.991 288.243 222.053 289.067 221.228C289.949 220.346 290.608 217.74 290.667 214.906C290.813 207.809 291.809 205.224 294.8 204.172C302.018 201.633 302.742 214.268 296.256 229.585C292.459 238.55 292.381 242.585 296.004 242.585C297.278 242.585 298.859 243.233 299.517 244.026C300.174 244.818 301.917 245.605 303.389 245.776C307.917 246.299 307.262 255.585 302.697 255.585C299.492 255.585 299.601 256.753 303.117 260.069C306.178 262.956 306.565 263.897 306.565 268.457C306.565 273.584 309.113 280.066 311.78 281.721C312.666 282.271 313.054 285.123 313.031 290.898C312.999 299.277 312.999 299.277 316.75 301.973C320.475 304.651 325.563 313.064 325.563 316.545C325.563 317.532 326.238 318.9 327.063 319.585C327.888 320.27 328.563 321.249 328.563 321.762C328.563 322.614 331.264 329.174 333.638 334.085C334.17 335.185 335.657 339.113 336.944 342.815C338.23 346.516 339.735 350.116 340.288 350.815C340.84 351.513 341.544 353.21 341.851 354.585C342.159 355.96 343.567 360.235 344.98 364.085C346.394 367.935 347.553 371.812 347.556 372.7C347.558 373.588 348.46 375.459 349.56 376.858C350.66 378.256 351.56 380.741 351.56 382.378C351.56 384.016 352.232 386.645 353.053 388.221C353.874 389.796 354.549 392.242 354.553 393.657C354.556 395.071 355.197 398.221 355.977 400.657C360.295 414.147 359.879 516.88 355.484 522.175C354.831 522.962 354.901 524.242 355.691 525.976C357.099 529.066 353.293 537.759 348.149 543.202C345.534 545.97 345.18 547.095 345.001 553.219C344.89 557.014 344.07 562.264 343.18 564.887C342.29 567.509 341.561 571.388 341.561 573.506C341.561 575.624 340.889 578.645 340.067 580.221C339.246 581.796 338.571 583.776 338.567 584.62C338.56 586.381 335.152 596.57 333.009 601.236C332.213 602.969 331.562 606.655 331.562 609.427C331.562 612.199 331.112 614.745 330.562 615.085C330.012 615.425 329.562 617.228 329.562 619.092C329.562 622.913 327.165 625.926 321.286 629.491C319.21 630.75 316.959 632.299 316.285 632.933C315.002 634.138 305.35 638.994 302.293 639.972C301.318 640.284 300.273 641.337 299.97 642.312C299.668 643.287 299.003 644.866 298.493 645.821C297.983 646.776 297.566 648.936 297.566 650.621C297.566 652.306 296.857 655.058 295.989 656.736C295.121 658.415 294.279 661.757 294.118 664.165C293.957 666.572 293.092 669.66 292.196 671.028C291.3 672.396 290.567 674.958 290.567 676.721C290.567 678.485 289.96 680.638 289.219 681.506C285.769 685.548 285.093 692.48 287.868 695.381C294.217 702.022 293.408 711.428 285.562 722.192C282.481 726.418 280.569 730.081 280.569 731.755C280.569 733.246 280.177 734.709 279.698 735.005C279.219 735.301 278.55 736.929 278.212 738.622C277.873 740.316 276.915 742.382 276.082 743.214C275.25 744.047 274.569 745.766 274.569 747.034C274.569 748.302 273.948 749.855 273.19 750.485C272.432 751.115 271.546 752.957 271.221 754.579C270.897 756.2 269.382 759.453 267.856 761.806C266.329 764.16 264.165 767.885 263.045 770.085C253.089 789.644 243.855 795.851 234.889 789.012C230.154 785.399 227.581 782.47 227.541 780.646C227.522 779.788 226.638 777.285 225.575 775.085C222.894 769.533 222.627 735.998 225.212 729.535C227.264 724.405 225.801 719.027 220.954 713.887C215.255 707.844 215.181 695.701 220.817 691.335C222.059 690.373 223.561 689.191 224.153 688.708C224.745 688.225 226.158 687.535 227.294 687.174C229.548 686.459 230.54 683.905 230.561 678.768C230.576 675.192 228.19 674.97 224.497 678.203C223.629 678.963 222.252 679.585 221.438 679.585C220.624 679.585 219.085 680.246 218.017 681.053C216.95 681.861 215.395 682.536 214.562 682.553C213.729 682.571 211.368 683.485 209.316 684.585C207.264 685.685 204.739 686.585 203.704 686.585C202.669 686.585 201.32 687.19 200.706 687.931C200.093 688.671 197.675 690.082 195.335 691.066C192.994 692.051 189.543 693.527 187.664 694.346C183.692 696.079 147.405 695.629 143.997 693.805C142.447 692.975 129.958 692.047 126.138 692.478C125.615 692.537 126.975 693.744 129.158 695.16C136.439 699.881 139.523 708.404 135.837 713.612C134.344 715.722 133.987 719.535 133.405 739.585C132.565 768.523 131.411 781.164 129.252 785.085C128.344 786.735 127.598 788.874 127.594 789.839C127.559 799.859 113.628 808.71 107.926 802.335C105.118 799.196 99.5912 790.687 99.5912 789.503C99.5912 788.964 98.9163 788.263 98.0914 787.947C97.2665 787.63 96.5916 786.558 96.5916 785.565C96.5916 784.572 95.0168 781.368 93.092 778.445C91.1672 775.522 89.5924 772.163 89.5924 770.98C89.5924 769.798 88.9175 768.27 88.0926 767.585C87.2677 766.9 86.5928 765.799 86.5928 765.139C86.5928 764.478 85.018 760.303 83.0932 755.861C81.1685 751.419 79.5937 746.839 79.5937 745.685C79.5937 744.53 79.1797 743.585 78.6727 743.585C78.1668 743.585 77.458 742.24 77.097 740.597C75.8762 735.041 72.1556 729.288 69.054 728.161C65.4304 726.843 60.5281 723.748 58.8463 721.714C56.0266 718.305 58.7513 705.622 63.3457 700.764C65.0205 698.993 64.9365 698.214 62.5958 693.846C61.4959 691.794 60.593 688.758 60.589 687.1C60.582 684.211 60.2581 683.986 52.84 681.724C48.5815 680.426 44.1011 678.738 42.8833 677.974C41.6654 677.21 39.8087 676.585 38.7568 676.585C37.7049 676.585 36.2841 675.91 35.5992 675.085C34.9143 674.26 33.9074 673.585 33.3615 673.585C31.0327 673.585 18.4823 664.169 14.4688 659.411C12.0671 656.564 7.96464 652 5.35297 649.267C0.60356 644.299 0.603516 644.299 0.603516 625.133C0.603516 609.829 0.899497 605.576 2.07135 604.026C3.09822 602.669 3.55616 599.378 3.59515 593.085C3.62615 588.135 4.13713 582.285 4.73206 580.085C5.32698 577.885 6.16785 572.71 6.59979 568.585C7.03274 564.46 7.86164 559.735 8.44257 558.085C9.56843 554.883 11.1143 546.997 12.6061 536.844C13.11 533.411 13.9899 529.728 14.5618 528.659C15.8497 526.252 15.9166 521.309 14.6788 520.035C13.7859 519.116 12.58 514.074 10.5043 502.585C9.95734 499.56 9.11449 496.357 8.63055 495.466C8.14561 494.576 7.4517 490.526 7.08875 486.466C6.72479 482.407 5.82385 477.285 5.08594 475.085C4.34703 472.885 3.49417 466.296 3.18921 460.442C2.88525 454.589 2.17831 448.597 1.61938 447.127C0.0665789 443.044 0.371549 429.076 2.10333 424.931C2.92823 422.956 3.60315 418.673 3.60315 415.413C3.60315 412.153 4.21707 408.271 4.96698 406.785C5.71689 405.3 6.57974 401.209 6.8847 397.695C7.18967 394.18 7.87059 391.03 8.39752 390.695C8.92546 390.359 9.69338 388.077 10.1033 385.623C10.5143 383.17 11.1952 380.47 11.6172 379.623C12.4951 377.865 16.3216 363.714 17.2435 358.814C17.5824 357.015 18.2513 355.301 18.7303 355.005C19.2092 354.709 19.6041 353.481 19.6071 352.276C19.6111 351.071 20.286 348.796 21.1069 347.221C21.9288 345.645 22.6008 343.338 22.6008 342.093C22.6008 340.848 23.2757 339.27 24.1006 338.585C24.9255 337.9 25.6154 336.158 25.6344 334.713C25.6534 333.267 26.5373 330.285 27.6002 328.085C28.663 325.885 29.5469 322.903 29.5659 321.457C29.5849 320.012 30.2748 318.27 31.0997 317.585C31.9246 316.9 32.5995 315.325 32.5995 314.085C32.5995 312.845 33.2745 311.27 34.0994 310.585C34.9243 309.9 35.5992 308.124 35.5992 306.637C35.5992 303.413 39.6247 299.253 42.2594 299.754C44.778 300.233 45.4159 309.579 43.1502 312.814C42.2973 314.033 41.5984 315.969 41.5984 317.116C41.5984 318.264 40.9375 320.076 40.1306 321.144C39.3227 322.211 38.6478 323.939 38.6308 324.982C38.5958 327.049 34.7263 338.462 33.5074 340.095C33.0925 340.651 31.8206 344.663 30.6818 349.012C29.5429 353.361 27.9341 357.953 27.1062 359.217C26.2783 360.481 25.6004 362.91 25.6004 364.616C25.6004 366.321 25.1384 368.58 24.5725 369.636C24.0076 370.692 23.1367 373.475 22.6378 375.821C21.5909 380.739 18.8623 389.313 17.5645 391.762C17.0755 392.684 16.1876 397.366 15.5917 402.166C14.9947 406.966 14.0789 411.694 13.5549 412.673C13.031 413.652 12.6021 416.426 12.6021 418.838C12.6021 421.249 11.9061 425.566 11.0552 428.432C9.7574 432.803 9.68942 435.046 10.6333 442.363C11.2522 447.16 12.1421 455.36 12.611 460.585C13.08 465.81 13.9279 471.66 14.4958 473.585C15.0637 475.51 15.8076 480.569 16.1495 484.828C16.4915 489.087 17.1564 492.81 17.6284 493.102C18.1003 493.393 18.7652 495.759 19.1072 498.358C20.325 507.619 22.2908 510.585 27.2152 510.585C29.5859 510.585 33.9044 511.55 36.812 512.729C48.3396 517.404 65.7624 515.15 73.4834 507.986C74.9192 506.653 76.907 505.304 77.9009 504.988C78.8948 504.672 80.1246 503.319 80.6325 501.981C81.7764 498.972 86.2279 497.037 88.2146 498.686C90.2704 500.392 90.1653 479.892 88.0926 474.931C87.1877 472.764 86.5928 468.198 86.5928 463.413C86.5928 458.112 86.0639 454.464 84.998 452.401C83.5042 449.512 83.5262 449.151 85.348 446.701C90.9063 439.227 95.0988 447.113 96.1856 467.085C96.5446 473.685 97.1865 479.535 97.6124 480.085C98.0374 480.635 98.6993 486.035 99.0813 492.085C99.4642 498.135 100.411 505.013 101.184 507.37C102.981 512.842 102.96 519.386 101.136 522.585C100.352 523.96 99.0332 526.435 98.2053 528.085C96.2376 532.007 93.5529 535.006 91.2052 535.905C89.1365 536.697 89.4085 545.801 91.5652 547.958C92.1301 548.523 92.6001 550.808 92.6091 553.035C92.6191 555.263 93.294 560.235 94.1089 564.085C98.1264 583.054 94.7038 593.585 84.52 593.585C80.4735 593.585 78.1299 595.561 77.052 599.881C76.2991 602.899 68.4441 609.585 65.6514 609.585C64.7406 609.585 63.4817 610.099 62.8538 610.727C60.0211 613.56 52.2411 606.617 43.5982 593.542C42.7733 592.295 41.3105 590.569 40.3486 589.707C39.3857 588.845 38.5988 587.436 38.5988 586.574C38.5988 585.001 35.5941 578.538 33.8163 576.289C32.5165 574.644 28.6 563.001 28.6 560.781C28.6 559.793 28.1641 558.549 27.6321 558.017C27.1002 557.485 26.2444 553.299 25.7324 548.717C24.1976 535.002 20.5491 536.566 19.2172 551.511C18.8523 555.595 18.1703 559.42 17.6994 560.011C17.2295 560.602 16.5525 564.235 16.1965 568.085C15.8406 571.935 14.9058 578.01 14.1199 581.585C8.69955 606.251 8.07359 635.965 12.852 641.831C26.3033 658.342 36.455 665.227 57.2304 671.929C60.0541 672.84 63.7817 673.585 65.5134 673.585C67.2462 673.585 74.6103 674.451 81.8774 675.509C89.1455 676.567 100.716 677.929 107.59 678.535C114.464 679.14 121.101 679.902 122.338 680.227C125.1 680.953 125.401 677.424 123.117 671.085C122.324 668.885 121.64 663.935 121.596 660.085C121.55 655.991 120.925 652.047 120.089 650.585C119.303 649.21 118.644 646.368 118.624 644.269C118.605 642.171 118.095 639.53 117.491 638.402C116.203 635.995 113.921 623.2 112.265 609.085C111.619 603.585 110.654 598.41 110.121 597.585C108.547 595.149 108.58 460.87 110.156 456.918C110.937 454.959 111.695 445.526 112.145 432.168C112.544 420.298 113.215 410.585 113.635 410.585C114.055 410.585 114.385 404.847 114.368 397.835C114.324 379.966 117.246 371.35 120.745 379.03C121.358 380.375 122.473 381.711 123.223 381.999C125.059 382.703 125.054 377.294 123.215 373.739C120.524 368.535 118.589 363.489 118.589 361.674C118.589 360.66 117.914 359.27 117.089 358.585C116.264 357.9 115.589 356.862 115.589 356.278C115.589 355.197 114.447 352.631 107.269 337.585C104.564 331.913 103.066 327.255 102.769 323.585C102.524 320.56 101.708 317.197 100.957 316.112C100.206 315.028 99.5912 313.074 99.5912 311.77C99.5912 310.467 98.6913 308.256 97.5914 306.858C96.4916 305.459 95.5917 303.545 95.5917 302.604C95.5917 300.387 92.967 295.141 91.0712 293.568C90.2583 292.893 89.5924 291.823 89.5924 291.19C89.5924 290.558 88.3116 288.476 86.7458 286.563C85.181 284.65 83.3082 281.96 82.5853 280.585C81.8624 279.21 78.0819 274.151 74.1834 269.343C64.8655 257.85 63.8707 257.759 55.1218 267.585C52.9241 270.053 48.4836 280.894 49.4174 281.512C49.8934 281.827 51.9951 284.538 54.0889 287.537C56.1816 290.535 58.2894 293.46 58.7723 294.037C59.2552 294.613 62.8018 299.36 66.6533 304.585C70.5048 309.81 74.2223 314.535 74.9143 315.085C75.6072 315.635 77.0559 317.506 78.1338 319.243C83.1612 327.344 88.0276 333.745 91.6422 337.011C93.8139 338.974 95.5917 341.224 95.5917 342.011C95.5917 345.857 98.6403 346.785 102.244 344.036C110.339 337.861 111.558 349.221 103.591 356.585C98.8412 360.975 98.5913 361.462 98.5913 366.336C98.5913 369.158 98.2073 371.704 97.7374 371.995C97.2684 372.285 96.5616 379.167 96.1666 387.287C95.7717 395.408 95.0398 402.546 94.5388 403.148C92.2901 405.859 92.2371 420.931 94.4628 425.083C98.6363 432.871 96.6565 439.581 90.1814 439.591C87.9326 439.595 84.804 440.27 83.2292 441.091C77.061 444.309 71.7926 442.76 71.0227 437.504C70.3378 432.823 71.4766 431.578 77.1909 430.767C81.4574 430.161 82.1284 429.747 82.3604 427.578C82.7013 424.394 71.5736 412.102 66.9182 410.52C64.2776 409.622 61.5959 405.837 61.5959 403.007C61.5959 396.95 73.8234 399.782 80.3056 407.34C83.5182 411.085 83.5181 411.085 83.5551 408.164C83.5761 406.557 84.2351 404.532 85.019 403.664C86.0039 402.574 86.5138 399.145 86.6668 392.585C86.7887 387.36 87.4907 381.285 88.2256 379.085C92.92 365.045 87.8786 345.587 76.784 334.92C75.7341 333.911 73.1705 330.61 71.0858 327.585C69.001 324.56 65.9914 320.51 64.3976 318.585C59.6492 312.852 51.5982 301.717 51.5882 300.871C51.5832 300.439 49.4105 297.551 46.7588 294.453C39.5137 285.988 36.0991 275.585 40.5665 275.585C41.0115 275.585 41.6624 274.055 42.0133 272.185C42.3643 270.316 43.3142 268.236 44.1241 267.563C44.935 266.89 45.5979 265.775 45.5979 265.085C45.5979 264.395 46.2728 263.27 47.0977 262.585C47.9226 261.9 48.5975 260.527 48.5975 259.534C48.5975 257.553 49.6505 256.324 54.5148 252.627C59.4862 248.849 59.7942 247.57 57.0705 242.008C55.7447 239.3 54.6448 236.245 54.6278 235.219C54.6108 234.193 53.9359 231.268 53.127 228.719C52.3191 226.17 51.2213 220.26 50.6873 215.585C50.1544 210.91 49.4215 205.673 49.0605 203.948C48.6076 201.786 48.9265 200.012 50.0864 198.242C52.0751 195.207 51.3862 193.585 48.1106 193.585C45.8499 193.585 34.1473 187.281 33.0195 185.456C32.7235 184.977 31.7206 184.579 30.7907 184.573C29.2849 184.561 23.7656 180.279 18.1013 174.726C8.89947 165.706 9.09645 158.377 18.6013 156.112C19.9761 155.784 22.4508 154.89 24.1006 154.125C31.5936 150.649 34.5703 149.585 36.8 149.585C38.1198 149.585 39.6266 149.167 40.1486 148.656C40.6715 148.146 42.6733 147.583 44.598 147.406C48.0976 147.085 48.0976 147.085 47.7576 130.602C47.5717 121.536 46.9737 113.287 46.4298 112.27C44.9489 109.505 44.987 100.026 46.4848 98.2209C47.3817 97.1409 47.7216 93.654 47.5907 86.873C47.3097 72.25 48.6676 53.459 50.2274 50.385C50.9803 48.899 51.5972 46.7191 51.5972 45.5391C51.5972 42.9251 53.9699 38.495 58.4024 32.835C63.0298 26.925 75.8971 27.1658 82.5933 33.2878C83.4182 34.0418 86.5478 36.3329 89.5484 38.3789C96.6525 43.2219 100.805 49.023 100.076 53.085C99.7802 54.735 99.5632 57.5389 99.5942 59.3159C99.6352 61.6109 98.8883 63.2029 97.0125 64.8159C93.545 67.7989 89.9224 76.0969 89.0545 83.0449C88.6715 86.1059 87.9616 88.857 87.4757 89.157C86.9897 89.457 86.5768 95.639 86.5578 102.894C86.5318 112.441 86.1268 116.776 85.093 118.585C83.1252 122.028 82.9893 140.585 84.932 140.585C87.0938 140.585 88.6965 145.181 87.5697 148.146C86.1218 151.953 86.4448 162.702 88.0926 165.585C88.8785 166.96 89.5375 170.411 89.5574 173.254C89.5764 176.097 90.2523 179.697 91.0582 181.254C91.8641 182.811 92.784 185.773 93.103 187.835C93.4219 189.898 94.0799 191.585 94.5658 191.585C95.0518 191.585 96.1616 194.032 97.0305 197.024C97.9004 200.015 99.2062 203.057 99.9321 203.784C100.659 204.51 101.573 206.376 101.963 207.93C106.036 224.162 107.033 205.562 104.074 168.538C101.517 136.551 102.158 129.361 107.417 131.03C110.972 132.158 111.546 134.636 112.219 151.757C112.757 165.444 115.177 180.362 115.507 172.026C115.552 170.894 116.25 169.094 117.057 168.026C118.106 166.639 118.534 163.332 118.557 156.442C118.582 148.814 118.902 146.679 120.089 146.223C122.214 145.408 122.214 118.304 120.089 114.585C118.015 110.958 118.067 96.25 120.16 94.156C122.557 91.759 126.444 92.14 127.084 94.835C128.14 99.289 129.849 118.329 130.271 130.335C130.663 141.498 131.377 144.351 133.087 141.585C133.427 141.035 134.466 140.579 135.396 140.573C136.326 140.566 138.103 138.991 139.345 137.073C140.913 134.653 142.355 133.585 144.055 133.585C146.321 133.585 147.88 132.215 157.584 121.688C161.898 117.008 166.583 110.729 166.583 109.626C166.583 108.937 167.933 106.668 169.582 104.585C171.232 102.502 172.582 100.159 172.582 99.3789C172.582 95.7579 176.648 89.585 179.032 89.585C182.503 89.585 185.573 93.965 185.612 98.97C185.629 101.233 186.304 103.959 187.112 105.026C187.919 106.094 188.58 107.781 188.58 108.776C188.58 110.577 191.876 114.585 193.356 114.585C193.784 114.585 195.611 115.935 197.418 117.585C199.224 119.235 201.236 120.588 201.89 120.591C202.543 120.595 204.274 121.221 205.735 121.984C207.541 122.926 208.72 123.043 209.411 122.351C211.009 120.753 215.121 122.29 216.327 124.935C217.42 127.336 220.216 127.995 233.074 128.879C236.738 129.131 237.641 125.548 235.134 120.701C234.276 119.042 233.574 116.057 233.574 114.069C233.574 112.08 233.046 109.471 232.4 108.269C228.787 101.554 229.902 92.032 234.204 92.855C235.716 93.144 236.574 92.8359 236.574 92.0049C236.574 90.4649 237.16 90.08 240.845 89.199C244.196 88.397 248.573 92.139 248.573 95.804C248.573 97.075 249.472 99.7939 250.572 101.846C251.672 103.899 252.572 106.428 252.572 107.467C252.572 108.506 253.244 110.645 254.066 112.221C254.887 113.796 255.562 116.57 255.566 118.385C255.569 120.199 256.188 122.899 256.941 124.385C257.772 126.026 258.611 132.772 259.078 141.585C260.381 166.128 260.493 167.764 261.624 178.807C262.444 186.811 262.425 191.627 261.548 197.807C260.903 202.36 260.062 209.997 259.68 214.778C259.198 220.806 258.461 224.049 257.278 225.357C255.129 227.732 254.99 232.585 257.072 232.585C257.896 232.585 258.571 232.091 258.571 231.486C258.571 230.882 259.236 228.969 260.049 227.236C262.173 222.707 265.564 211.692 265.602 209.205C265.619 208.039 266.294 206.211 267.102 205.144C267.967 204 268.57 201.01 268.57 197.862C268.57 194.038 268.996 192.359 270.07 191.947C271.194 191.515 271.572 189.706 271.576 184.728C271.58 180.792 272.191 176.918 273.075 175.221C275.135 171.272 275.13 159.014 273.069 158.223C272.212 157.894 271.57 156.402 271.57 154.739C271.57 153.139 272.245 151.27 273.069 150.585C275.13 148.875 275.171 128.963 273.119 126.256C272.184 125.021 271.709 121.411 271.659 115.152C271.587 106.186 271.437 105.595 267.157 97.4119C264.722 92.7559 263.036 88.451 263.41 87.845C264.783 85.625 269.783 85.156 271.215 87.115C273.206 89.837 273.764 88.394 272.629 83.467C272.074 81.057 271.608 77.7179 271.594 76.0459C271.545 69.9279 265.666 61.139 258.582 56.592C255.827 54.824 253.572 53.067 253.572 52.688C253.572 52.31 251.659 51.479 249.322 50.842C246.307 50.02 244.589 48.817 243.407 46.7C242.491 45.059 240.017 42.62 237.908 41.28C235.799 39.941 233.217 37.8858 232.17 36.7148C231.122 35.5428 229.597 34.585 228.781 34.585C227.964 34.585 225.19 33.2879 222.614 31.7029C218.472 29.1549 214.385 27.7009 209.577 27.0659C199.227 25.6989 190.777 14.592 199.456 13.762C201.313 13.585 203.315 13.922 203.905 14.512C204.495 15.102 206.495 15.585 208.349 15.585C210.203 15.585 212.395 16.26 213.22 17.085C214.045 17.91 215.947 18.585 217.445 18.585C222.155 18.585 238.979 28.2069 243.242 33.3389C245.099 35.5739 249.015 34.494 249.418 31.635C249.608 30.288 252.308 25.386 255.418 20.741C258.527 16.096 261.862 10.7859 262.829 8.93994C263.9 6.89694 265.341 5.58496 266.519 5.58496C267.582 5.58496 268.738 5.12189 269.088 4.55689C271.243 1.06989 279.651 -0.186967 285.298 2.13403ZM186.358 12.948C192.279 16.607 183.822 21.3389 170.582 21.7759C164.258 21.9849 158.184 22.6729 157.084 23.3059C155.984 23.9389 153.734 25.108 152.085 25.905C150.435 26.702 145.935 28.98 142.086 30.967C138.236 32.953 134.299 34.58 133.337 34.582C132.375 34.584 131.587 34.9979 131.587 35.5029C131.587 36.0089 129.9 37.4389 127.838 38.6829C121.311 42.6189 111.721 50.597 111.077 52.626C109.387 57.952 102.591 55.5711 102.591 49.6541C102.591 44.7641 112.507 34.585 117.27 34.585C117.995 34.585 118.589 34.1991 118.589 33.7271C118.589 32.7061 129.122 26.1269 132.337 25.1409C133.574 24.7609 134.587 24.0311 134.587 23.5181C134.587 23.0051 135.065 22.585 135.649 22.585C137.218 22.585 147.451 17.612 148.124 16.522C148.442 16.007 149.711 15.585 150.944 15.585C152.177 15.585 153.643 15.1259 154.203 14.5659C158.074 10.6949 180.858 9.548 186.358 12.948ZM273.807 12.251C273.113 12.531 271.244 14.6329 269.652 16.9219C268.061 19.2119 265.929 22.003 264.915 23.126C262.809 25.457 255.042 40.418 255.662 40.95C255.888 41.142 257.907 42.6099 260.152 44.2109C269.996 51.2339 277.569 59.8561 277.569 64.0391C277.569 65.3051 278.232 66.89 279.043 67.563C280.628 68.879 281.222 71.602 282.03 81.241C282.314 84.627 282.956 88.475 283.457 89.792C284.321 92.065 284.06 96.304 282.855 99.585C281.878 102.244 281.85 126.044 282.822 127.304C283.339 127.975 284.056 132.7 284.415 137.804C285.034 146.598 285.186 147.081 287.318 147.014C301.885 146.551 300.565 146.967 300.572 142.835C300.576 140.773 301.251 137.796 302.072 136.221C304.258 132.029 304.225 78.04 302.034 75.144C300.991 73.764 300.566 70.5459 300.566 64.0159C300.566 57.4049 300.177 54.507 299.179 53.679C298.417 53.046 297.482 49.6209 297.101 46.0669C296.721 42.5139 295.995 39.3499 295.489 39.0369C294.982 38.7229 294.567 37.53 294.567 36.386C294.567 34.417 293.696 32.258 288.596 21.585C283.809 11.569 283.818 11.5781 279.264 11.6641C276.957 11.7071 274.501 11.972 273.807 12.251ZM63.6557 41.501C62.5138 43.105 61.308 45.917 60.9751 47.751C60.6431 49.585 59.7852 52.9008 59.0683 55.1208C58.3513 57.3408 57.4385 66.0159 57.0395 74.3989C56.6406 82.7819 55.9276 89.8799 55.4557 90.1719C54.2169 90.9379 54.3539 122.585 55.5967 122.585C56.1856 122.585 56.5966 126.096 56.5966 131.117C56.5966 144.244 57.7344 146.122 66.1663 146.909C74.4363 147.682 73.8224 148.328 73.7914 138.891C73.7754 134.287 74.2823 130.265 75.0272 129.085C75.8281 127.815 76.5471 120.896 76.997 110.121C77.386 100.79 78.0679 92.6898 78.5119 92.1208C78.9568 91.5508 79.6067 87.531 79.9566 83.188C80.3066 78.844 81.0025 74.794 81.5034 74.188C82.0044 73.581 82.7503 71.2859 83.1612 69.0869C83.7061 66.1709 85.152 63.911 88.5006 60.738C93.092 56.388 93.092 56.3879 84.985 48.7319C78.7588 42.8519 75.7972 40.7871 72.2216 39.8301C66.0024 38.1671 66.0344 38.16 63.6557 41.501ZM239.574 104.585C239.574 105.135 240.051 105.585 240.633 105.585C241.215 105.585 241.413 105.135 241.074 104.585C240.734 104.035 240.258 103.585 240.015 103.585C239.772 103.585 239.574 104.035 239.574 104.585ZM172.804 118.314C169.945 122.588 166.105 127.649 164.271 129.561C161.197 132.766 161.04 133.234 162.254 135.561C166.766 144.207 157.966 152.339 149.185 147.639C147.278 146.618 146.267 146.75 142.996 148.446C140.846 149.56 136.725 151.636 133.837 153.058C128.944 155.468 128.588 155.89 128.588 159.269C128.588 162.595 128.733 162.778 130.337 161.479C140.273 153.438 148.075 154.052 157.584 163.622C168.146 174.252 168.47 178.715 159.084 184.295C150.318 189.507 140.21 187.198 136.087 179.041C134.987 176.865 133.985 174.908 133.861 174.692C133.737 174.477 132.978 174.845 132.175 175.512C131.108 176.397 130.177 176.436 128.718 175.654C125.833 174.11 124.588 174.333 124.588 176.394C124.588 177.389 123.927 179.076 123.12 180.144C122.312 181.211 121.634 183.435 121.613 185.085C121.592 186.735 120.682 189.435 119.589 191.085C118.496 192.735 117.599 194.835 117.596 195.752C117.592 196.668 117.049 197.598 116.388 197.819C112.711 199.045 115.441 213.915 120.11 218.089C122.572 220.292 124.588 222.454 124.588 222.894C124.588 223.334 125.936 225.132 127.583 226.889C129.23 228.647 130.58 230.648 130.582 231.335C130.585 232.023 130.968 232.585 131.434 232.585C131.9 232.585 133.362 233.538 134.684 234.703C139.366 238.831 144.337 241.425 148.864 242.104C151.387 242.482 153.691 243.42 153.985 244.188C154.348 245.134 156.228 245.595 159.803 245.617C165.866 245.653 168.491 247.198 168.798 250.91C169.042 253.863 170.184 253.81 178.868 250.442C181.501 249.42 184.937 248.585 186.503 248.585C188.069 248.585 190.64 247.913 192.216 247.091C193.79 246.27 196.486 245.595 198.207 245.591C199.927 245.588 201.893 244.91 202.578 244.085C203.263 243.26 204.473 242.585 205.267 242.585C206.062 242.585 208.144 241.504 209.894 240.182C211.645 238.861 215.102 237.199 217.576 236.489C225.324 234.267 239.568 222.419 239.58 218.186C239.584 217.031 240.216 214.878 240.986 213.402C241.755 211.927 242.683 209.36 243.048 207.698C243.785 204.345 246.081 203.172 249.987 204.153C255.028 205.418 253.553 160.854 248.445 157.533C246.946 156.559 239.574 141.549 239.574 139.472C239.574 138.105 239.176 137.723 238.324 138.272C237.637 138.715 232.962 139.079 227.935 139.081C220.641 139.084 218.405 139.438 216.857 140.835C211.411 145.752 201.578 142.139 201.578 135.221C201.578 131.815 201.233 131.365 197.329 129.676C192.759 127.699 182.581 118.819 182.581 116.808C182.581 116.135 182.145 115.585 181.613 115.585C181.081 115.585 180.05 114.451 179.324 113.064C178.006 110.549 177.991 110.562 172.804 118.314ZM243.588 116.835C243.608 121.019 245.073 123.607 245.815 120.769C246.481 118.22 245.605 113.585 244.456 113.585C243.971 113.585 243.58 115.048 243.588 116.835ZM246.604 128.585C246.604 129.96 247.04 131.76 247.573 132.585C248.34 133.772 248.542 133.564 248.542 131.585C248.542 130.21 248.106 128.41 247.573 127.585C246.806 126.398 246.604 126.606 246.604 128.585ZM245.733 157.09C250.23 158.824 248.871 164.848 243.496 166.999C241.338 167.862 239.574 169.183 239.574 169.933C239.574 177.451 225.17 185.663 217.259 182.655C207.126 178.801 207.506 168.261 218.076 160.018C223.984 155.411 237.632 153.966 245.733 157.09ZM316.314 156.301C314.068 156.641 313.564 157.231 313.564 159.517C313.564 164.053 310.336 167.197 304.857 167.993C281.23 171.43 282.848 170.246 281.092 185.387C280.696 188.798 279.966 191.839 279.471 192.146C278.975 192.452 278.569 193.126 278.569 193.644C278.569 195.17 284.212 194.719 285.568 193.085C286.253 192.26 287.417 191.585 288.156 191.585C288.894 191.585 291.035 190.235 292.914 188.585C294.793 186.935 296.839 185.585 297.458 185.585C298.079 185.585 300.827 184.01 303.566 182.085C306.304 180.16 308.827 178.585 309.173 178.585C309.518 178.585 311.259 177.347 313.039 175.835C314.821 174.323 317.146 172.41 318.206 171.585C335.512 158.113 334.938 153.48 316.314 156.301ZM49.5974 158.54C45.4729 158.9 41.1205 159.729 39.9257 160.384C38.7308 161.038 35.5182 162.052 32.7865 162.638C22.4918 164.847 22.6638 167.23 33.5994 173.88C36.0741 175.385 38.7738 177.029 39.5986 177.533C44.2811 180.394 60.822 187.533 64.1686 188.137C66.3283 188.527 68.5651 189.215 69.138 189.666C69.7119 190.118 73.2605 190.802 77.024 191.188C83.8661 191.889 83.8661 191.889 83.1312 186.987C82.7263 184.291 81.9904 181.327 81.4945 180.401C80.9995 179.474 80.5935 177.599 80.5935 176.233C80.5935 170.651 80.4246 170.585 66.1884 170.585C52.3591 170.585 50.5973 170.079 50.5973 166.108C50.5973 161.035 53.103 159.586 61.9029 159.57C67.5612 159.559 69.6309 159.255 68.595 158.585C66.9673 157.533 61.312 157.519 49.5974 158.54ZM225.172 167.863C220.845 170.327 220.369 172.187 224.142 171.895C227.083 171.668 229.847 169.154 229.398 167.112C229.133 165.907 228.37 166.043 225.172 167.863ZM145.252 169.252C143.98 170.525 144.595 174.374 146.167 174.978C148.511 175.877 152.585 175.714 152.585 174.72C152.585 171.698 146.983 167.521 145.252 169.252ZM60.1001 201.747C58.6733 207.514 60.0251 221.955 62.3958 226.269C63.0557 227.471 63.5957 229.546 63.5957 230.881C63.5957 233.384 70.5408 247.763 73.1335 250.629C73.9374 251.516 74.5943 252.77 74.5943 253.414C74.5943 254.058 75.0443 254.585 75.5942 254.585C76.1441 254.585 76.6081 255.148 76.6261 255.835C76.6431 256.523 78.2178 258.638 80.1256 260.537C82.0323 262.435 83.5932 264.551 83.5932 265.237C83.5932 265.924 84.1971 266.845 84.9361 267.285C85.674 267.725 87.1368 269.435 88.1856 271.085C90.3344 274.465 91.6852 276.151 96.3416 281.267C98.1293 283.23 99.5912 285.689 99.5912 286.731C99.5912 287.772 100.709 290.396 102.076 292.562C103.443 294.727 104.982 298.372 105.496 300.663C106.011 302.953 106.917 305.312 107.511 305.906C108.104 306.499 108.59 308.443 108.59 310.226C108.59 312.009 109.005 313.724 109.513 314.037C110.021 314.351 110.74 315.99 111.111 317.679C111.779 320.723 111.799 320.732 113.283 318.612C116.478 314.05 120.553 316.172 122.831 323.585C123.93 327.16 125.45 331.279 126.209 332.739C126.967 334.199 127.588 336.366 127.588 337.555C127.588 340.167 129.298 343.585 130.605 343.585C131.75 343.585 130.761 326.862 129.47 324.401C128.984 323.474 128.588 321.875 128.588 320.846C128.588 319.817 127.111 317.363 125.306 315.393C117.45 306.815 114.46 294.845 112.589 264.484C111.565 247.883 111.565 247.883 107.078 240.008C104.61 235.677 102.591 231.631 102.591 231.016C102.591 230.402 101.478 227.916 100.118 225.492C96.3955 218.855 89.5924 204.755 89.5924 203.675C89.5924 203.1 88.4376 203.056 86.6678 203.563C85.06 204.025 83.5182 204.177 83.2432 203.901C82.9673 203.626 80.5965 203.2 77.9749 202.955C75.3532 202.71 72.7326 202.127 72.1516 201.659C69.191 199.278 60.696 199.339 60.1001 201.747ZM203.477 217.963C207.814 223.19 193.685 233.352 184.31 231.752C174.506 230.078 176.323 221.249 186.663 220.311C190.315 219.98 193.489 219.103 194.425 218.168C196.373 216.219 201.925 216.094 203.477 217.963ZM240.194 234.585C236.713 238.348 236.629 238.586 238.784 238.599C240.043 238.606 242.086 238.884 243.323 239.215C245.418 239.777 245.573 239.501 245.573 235.202C245.573 229.559 244.913 229.484 240.194 234.585ZM121.588 237.856C121.588 238.689 122.263 239.63 123.088 239.947C123.913 240.263 124.588 240.141 124.588 239.676C124.588 239.211 123.913 238.27 123.088 237.585C121.867 236.572 121.588 236.622 121.588 237.856ZM214.562 250.112C212.095 251.502 208.885 253.105 207.427 253.675C203.238 255.313 202.269 285.318 206.22 291.058C206.967 292.142 207.578 294.505 207.578 296.308C207.578 306.474 223.296 305.809 230.759 295.327C234.706 289.783 234.658 275.088 230.665 266.242C228.965 262.478 227.575 257.895 227.575 256.057C227.575 247.241 223.201 245.243 214.562 250.112ZM236.762 254.315C237.074 258.085 237.074 258.085 246.573 259.263C265.125 261.564 268.92 263.204 268.393 268.69C267.938 273.42 264.449 274.542 257.249 272.273C241.745 267.385 239.574 269.122 239.574 286.411C239.574 303.633 240.067 305.14 246.323 307.037C247.56 307.413 248.573 308.139 248.573 308.652C248.573 309.165 249.211 309.585 249.989 309.585C250.768 309.585 251.585 310.123 251.804 310.781C252.448 312.712 264.486 313.533 268.497 311.918C270.833 310.978 272.25 310.865 272.947 311.562C274.532 313.148 276.267 312.8 280.682 310.014C282.921 308.6 285.387 307.685 286.161 307.982C287.182 308.374 287.568 307.68 287.568 305.455C287.568 303.768 288.182 300.969 288.932 299.236C292.896 290.078 293.635 287.594 293.991 282.228C294.205 279.007 294.872 275.88 295.474 275.278C298.709 272.042 294.508 263.585 289.663 263.585C289.06 263.585 288.568 263.203 288.568 262.737C288.568 262.27 286.866 261.22 284.785 260.402C281.655 259.173 280.836 258.24 280.036 255.001C278.533 248.915 236.261 248.245 236.762 254.315ZM127.588 258.409C127.588 260.641 127.138 262.745 126.588 263.085C124.187 264.569 126.025 267.847 132.577 273.769C140.438 280.872 141.759 284.638 137.131 286.746C134.64 287.882 128.588 286.346 128.588 284.579C128.588 284.159 127.438 283.061 126.032 282.14C120.472 278.496 125.416 300.355 131.49 306.271C137.216 311.847 138.586 309.48 138.586 294.004C138.586 290.539 138.972 287.464 139.445 287.172C139.917 286.881 140.557 284.042 140.866 280.863C141.407 275.316 144.471 267.392 146.578 266.09C149.64 264.197 140.952 258.559 129.337 254.903C127.868 254.44 127.588 255.002 127.588 258.409ZM191.58 258.42C190.205 258.604 188.652 259.166 188.13 259.67C187.608 260.173 185.636 260.585 183.749 260.585C181.861 260.585 178.914 261.43 177.199 262.462C175.485 263.494 171.607 265.129 168.583 266.094C165.558 267.06 162.633 268.181 162.083 268.587C161.533 268.993 159.377 269.874 157.291 270.547C154.317 271.505 153.372 272.397 152.916 274.677C152.596 276.276 151.941 277.585 151.46 277.585C150.979 277.585 150.585 278.84 150.585 280.375C150.585 281.909 149.882 285.847 149.023 289.125C145.837 301.276 147.249 319.923 151.916 327.335C153.928 330.533 161.808 328.787 170.604 323.195C199.018 305.13 199.669 304.615 199.008 300.681C197.718 292.995 197.934 293.024 190.903 299.602C183.707 306.334 180.994 306.956 178.806 302.377C177.381 299.395 178.134 297.324 182.146 293.179C185.465 289.749 192.273 284.585 193.473 284.585C194.103 284.585 194.579 282.801 194.579 280.436C194.579 276.288 194.579 276.288 183.193 276.849C170.603 277.469 169.582 277.105 169.582 272C169.582 267.238 173.324 265.123 182.081 264.935C193.884 264.682 194.352 264.623 194.804 263.335C195.775 260.574 194.136 258.077 191.58 258.42ZM301.983 290.967C301.387 291.614 300.619 293.931 300.276 296.114C299.765 299.37 299.855 299.725 300.774 298.085C301.391 296.985 302.307 295.811 302.811 295.476C303.314 295.142 303.578 293.725 303.396 292.329C303.151 290.44 302.789 290.091 301.983 290.967ZM306.543 307.327C306.531 307.744 304.507 310.291 302.044 312.987C299.581 315.684 297.566 318.231 297.566 318.648C297.566 319.064 295.855 321.583 293.762 324.245C288.381 331.092 280.569 342.425 280.569 343.385C280.569 345.523 273.631 351.585 271.185 351.585C269.747 351.585 268.542 352.148 268.508 352.835C268.474 353.523 268.008 357.46 267.473 361.585C264.417 385.137 264.222 388.54 265.826 390.347C267.65 392.399 270.57 399.177 270.57 401.357C270.57 402.629 272.984 408.337 276.585 415.585C277.411 417.246 277.151 417.248 290.753 415.488C301.712 414.07 303.566 414.68 303.566 419.702C303.566 422.128 302.864 422.905 299.053 424.696C292.315 427.864 292.169 427.311 301.816 435.145C303.965 436.889 304.106 441.892 302.055 443.594C300.099 445.217 292.699 442.56 289.357 439.035C288.099 437.706 286.653 436.612 286.147 436.602C285.64 436.593 284.4 435.838 283.391 434.924C282.381 434.011 281.339 433.482 281.073 433.748C280.412 434.409 282.137 449.146 283.454 454.085C284.04 456.285 284.531 460.583 284.544 463.635C284.557 466.688 285.051 469.668 285.642 470.259C286.232 470.849 287.095 475.102 287.559 479.709C288.023 484.316 288.924 490.785 289.563 494.085C290.201 497.385 291.147 502.335 291.664 505.085C292.875 511.52 296.457 514.153 305.801 515.476C309.483 515.998 312.977 516.722 313.567 517.087C314.156 517.451 319.602 517.427 325.668 517.034C336.698 516.319 336.698 516.319 340.676 511.048C342.865 508.15 345.758 505.501 347.107 505.162C349.364 504.596 351.018 474.206 349.78 456.085C349.705 454.985 349.367 443.06 349.03 429.585C348.59 412.012 348.017 404.095 347.003 401.585C346.225 399.66 345.15 396.285 344.613 394.085C342.148 383.987 340.938 379.925 339.795 377.901C339.116 376.699 338.561 374.835 338.561 373.758C338.561 372.68 337.886 371.54 337.061 371.223C336.198 370.892 335.562 369.397 335.562 367.697C335.562 366.075 334.942 363.473 334.184 361.916C330.638 354.629 329.523 351.844 328.937 348.814C328.589 347.015 327.913 345.301 327.434 345.005C326.955 344.709 326.563 343.55 326.563 342.43C326.563 341.31 325.934 339.199 325.166 337.739C322.596 332.856 317.785 322.113 317.035 319.585C316.628 318.21 315.005 315.607 313.429 313.8C311.854 311.994 310.565 310.189 310.565 309.791C310.565 308.812 306.571 306.365 306.543 307.327ZM229.124 310.506C228.38 311.709 221.116 314.287 216.217 315.087C212.357 315.717 212.357 315.717 218.012 321.151C221.122 324.14 224.246 326.585 224.954 326.585C225.661 326.585 227.817 328.395 229.744 330.608C237.721 339.766 240.957 337.589 240.079 323.652C239.488 314.262 232.204 305.522 229.124 310.506ZM204.578 313.085C204.578 313.91 205.308 314.585 206.2 314.585C207.529 314.585 207.598 314.314 206.578 313.085C205.893 312.26 205.163 311.585 204.956 311.585C204.748 311.585 204.578 312.26 204.578 313.085ZM197.579 318.503C195.654 320.153 193.572 321.522 192.951 321.544C192.332 321.567 191.237 322.293 190.519 323.158C189.801 324.023 187.412 325.65 185.21 326.774C183.008 327.898 180.584 329.44 179.822 330.201C179.061 330.962 177.795 331.585 177.011 331.585C176.225 331.585 175.582 331.953 175.582 332.403C175.582 333.721 161.716 340.585 159.055 340.585C152.13 340.585 143.252 333.425 141.086 326.095C140.385 323.723 140.179 332.698 140.397 356.069C140.694 387.983 140.618 389.624 138.647 393.952C137.513 396.44 136.587 399.027 136.587 399.701C136.587 400.376 135.896 401.691 135.052 402.623C133.758 404.054 133.69 405.24 134.621 410.202C136.936 422.538 136.93 423.529 134.518 428.219C131.576 433.939 128.313 433.977 124.673 428.336C121.572 423.529 121.664 423.318 121.184 436.307C120.959 442.39 120.284 448.287 119.682 449.41C117.74 453.039 118.2 496.116 120.16 494.156C122.995 491.321 126.115 492.197 127.921 496.335C128.82 498.398 130.43 501.435 131.498 503.085C137.17 511.845 129.161 526.328 121.833 520.563C118.491 517.932 116.854 591.791 120.077 599.847C120.909 601.925 121.588 606.265 121.588 609.491C121.588 612.749 122.252 616.63 123.082 618.221C123.903 619.796 124.593 623.11 124.614 625.585C124.636 628.06 125.524 632.56 126.588 635.585C127.652 638.61 128.537 643.004 128.555 645.349C128.573 647.694 129.02 650.394 129.549 651.349C130.078 652.304 130.944 657.135 131.472 662.085C133.757 683.486 133.528 683.33 163.583 683.946C185.747 684.4 191.58 683.239 191.58 678.369C191.58 675.97 194.173 675.003 196.168 676.659C197.461 677.732 198.283 677.674 200.906 676.327C202.65 675.43 207.903 673.142 212.577 671.242C223.948 666.621 236.574 660.487 236.574 659.583C236.574 659.182 239.387 657.84 242.823 656.602C246.261 655.365 249.747 653.804 250.572 653.135C252.87 651.272 263.409 645.585 264.565 645.585C265.128 645.585 267.451 644.235 269.729 642.585C272.006 640.935 274.317 639.585 274.866 639.585C275.414 639.585 278.235 638.01 281.134 636.085C284.034 634.16 286.861 632.585 287.415 632.585C288.789 632.585 292.452 627.796 294.107 623.835C295.824 619.726 297.745 619.721 300.951 623.818C303.482 627.052 303.482 627.052 310.208 623.483C321.228 617.636 321.673 615.593 311.937 615.553C306.606 615.532 303.44 615.048 302.125 614.053C301.057 613.246 299.56 612.585 298.798 612.585C297.168 612.585 292.41 608.029 290.696 604.826C290.036 603.594 288.699 602.585 287.724 602.585C282.012 602.585 279.747 595.139 282.166 584.316C283.055 580.339 284.126 574.577 284.545 571.512C284.965 568.447 285.817 564.989 286.438 563.828C287.06 562.667 287.568 560.659 287.568 559.366C287.568 556.941 290.753 546.838 292.793 542.794C294.06 540.283 291.912 535.317 288.497 532.857C287.559 532.181 286.504 529.931 286.153 527.857C285.802 525.782 285.137 521.835 284.676 519.085C284.214 516.335 283.344 511.835 282.742 509.085C281.661 504.151 280.298 495.062 278.491 480.767C277.982 476.742 277.143 472.657 276.625 471.69C276.107 470.722 275.373 466.366 274.994 462.008C274.615 457.65 273.862 453.526 273.322 452.843C272.78 452.159 272.109 445.634 271.829 438.343C271.528 430.476 270.843 424.475 270.146 423.585C269.5 422.76 267.695 419.483 266.135 416.303C262.584 409.061 262.483 409.197 262.257 421.519C262.114 429.295 261.721 431.88 260.571 432.607C255.841 435.596 252.572 429.34 252.572 417.298C252.572 413.977 251.922 408.971 251.127 406.173C249.633 400.914 248.255 392.886 246.478 379.113C245.913 374.729 245.06 370.671 244.583 370.096C244.105 369.522 243.397 365.132 243.009 360.343C242.401 352.852 242.022 351.545 240.302 350.999C239.202 350.649 236.303 348.838 233.861 346.974C231.42 345.11 228.945 343.585 228.363 343.585C227.781 343.585 226.353 342.566 225.19 341.32C224.028 340.074 221.726 338.087 220.076 336.904C218.426 335.721 214.877 332.691 212.188 330.169C209.499 327.648 206.518 325.585 205.562 325.585C203.073 325.585 201.775 323.617 201.403 319.281C201.078 315.502 201.078 315.502 197.579 318.503ZM279.723 323.19C278.463 324.073 276.226 325.117 274.752 325.511C272.454 326.126 271.975 326.922 271.374 331.125C270.633 336.301 271.091 337.997 272.569 335.556C273.832 333.468 277.091 329.393 280.043 326.208C283.783 322.171 283.602 320.472 279.723 323.19ZM249.435 323.218C248.78 327.379 250.069 346.53 251.185 349.202C251.999 351.149 252.585 356.15 252.604 361.303C252.625 367.267 253.088 370.682 254.044 371.945C256.392 375.044 258.572 368.181 258.566 357.713C258.564 352.968 259.511 344.244 260.671 338.328C263.13 325.786 262.991 325.077 257.907 324.227C255.798 323.875 253.059 323.308 251.822 322.969C250.585 322.629 249.51 322.742 249.435 323.218ZM236.074 379.171C236.624 381.418 238.311 384.876 239.824 386.854C248.267 397.9 239.079 424.942 230.411 414.558C226.258 409.583 224.998 383.269 228.591 376.554C230.605 372.791 234.878 374.286 236.074 379.171ZM124.22 386.676C122.661 394.471 123.382 399.183 125.745 396.647C128.217 393.993 128.458 388.665 126.249 385.511C124.91 383.6 124.825 383.649 124.22 386.676ZM244.025 464C252.721 467.634 251.116 484.726 241.861 487.049C234.514 488.893 229.691 469.785 236.209 464.658C239.336 462.198 239.649 462.172 244.025 464ZM88.4876 507.644C87.5037 510.734 86.0618 512.683 83.5932 514.258C81.6684 515.486 78.1998 517.862 75.8861 519.538C73.5724 521.214 70.7918 522.585 69.7079 522.585C68.625 522.585 66.9502 523.372 65.9863 524.335C63.8576 526.461 41.6134 526.919 37.4979 524.92C34.4363 523.434 26.3143 521.538 25.6884 522.164C19.2992 528.554 71.0928 532.986 82.3294 527.011C84.838 525.677 87.4157 524.585 88.0566 524.585C91.6521 524.585 94.1769 509.134 91.2373 505.115C89.9914 503.41 89.7724 503.612 88.4876 507.644ZM339.061 527.149C332.852 530.137 306.755 529.387 298.066 525.971C294.922 524.734 298.49 529.701 301.982 531.42C303.474 532.155 304.946 533.415 305.256 534.221C306.645 537.843 323.433 544.223 324.981 541.718C325.276 541.241 327.512 540.625 329.949 540.351C336.249 539.641 344.56 532.521 344.561 527.835C344.561 526.048 344.449 524.62 344.311 524.664C344.173 524.707 341.811 525.825 339.061 527.149ZM254.915 538.442C261.027 543.818 261.993 562.445 256.384 566.762C249.893 571.756 242.855 566.036 243.925 556.637C246.325 535.563 248.17 532.509 254.915 538.442ZM35.5102 542.319C34.7783 544.244 34.8033 546.391 35.5942 549.569C36.2121 552.053 37.159 555.885 37.6999 558.085C40.1896 568.222 47.8566 583.565 53.3469 589.4C54.0349 590.13 54.5968 591.131 54.5968 591.623C54.5968 592.669 61.335 599.585 62.3538 599.585C63.8347 599.585 69.7639 591.939 70.2849 589.357C71.0258 585.691 72.3526 584.769 78.5938 583.585C86.6988 582.048 89.2994 575.858 85.2319 567.785C84.484 566.3 83.5852 561.71 83.2352 557.585C82.4273 548.072 80.2816 540.906 78.4448 541.585C75.3752 542.721 49.6884 542.079 48.4456 540.835C45.8269 538.213 36.6721 539.263 35.5102 542.319ZM299.338 550.839C298.388 553.174 297.308 557.785 296.937 561.085C296.567 564.385 295.886 567.334 295.423 567.639C294.961 567.944 294.332 570.419 294.027 573.139C293.721 575.859 292.755 580.644 291.88 583.771C290.289 589.457 290.289 589.457 293.926 593.271C295.926 595.369 298.897 598.495 300.53 600.217C308.913 609.066 326.293 602.832 326.521 590.894C326.544 589.689 326.961 588.457 327.448 588.156C327.934 587.856 328.651 585.467 329.041 582.847C329.431 580.228 330.178 577.564 330.702 576.926C331.226 576.289 331.799 573.28 331.974 570.239C332.172 566.814 332.915 564.089 333.928 563.076C335.009 561.995 335.562 559.732 335.562 556.385C335.562 551.327 335.562 551.327 330.337 552.02C327.464 552.402 324.602 553.138 323.977 553.656C323.249 554.261 321.547 554.059 319.235 553.092C317.251 552.263 314.688 551.585 313.539 551.585C312.39 551.585 309.435 550.46 306.972 549.085C301.228 545.877 301.37 545.845 299.338 550.839ZM134.961 565.335C141.744 575.922 136.411 593.932 128.255 587.984C124.137 584.982 122.831 564.939 126.597 562.558C129.718 560.584 132.511 561.511 134.961 565.335ZM281.997 648.085C279.291 650.01 276.689 651.585 276.217 651.585C275.745 651.585 273.359 652.935 270.915 654.585C268.47 656.235 266.14 657.585 265.737 657.585C265.091 657.585 259.627 660.494 247.861 667.101C245.887 668.209 243.965 669.784 243.591 670.601C243.216 671.417 242.159 673.584 241.242 675.416C234.412 689.053 244.983 703.079 260.294 700.695C268.59 699.403 271.59 697.068 275.473 688.881C277.246 685.143 279.343 680.891 280.133 679.431C280.923 677.971 281.584 675.721 281.603 674.431C281.623 673.141 282.282 670.96 283.068 669.585C283.854 668.21 284.516 665.51 284.539 663.585C284.562 661.66 285.205 658.888 285.968 657.426C287.704 654.097 289.09 644.585 287.838 644.585C287.333 644.585 284.705 646.16 281.997 648.085ZM70.5948 688.394C70.5948 689.389 71.2557 691.076 72.0626 692.144C72.8705 693.211 73.5455 695.337 73.5625 696.868C73.6854 707.6 81.3634 713.975 93.3319 713.282C106.662 712.509 111.335 708.476 112.086 697.094C112.595 689.37 113.279 689.844 100.746 689.244C95.6077 688.997 90.9053 688.298 90.2974 687.69C88.2316 685.624 70.5948 686.254 70.5948 688.394ZM227.775 698.785C225.793 700.767 226.398 705.07 229.002 707.516C232.806 711.09 235.945 719.801 235.058 724.322C234.163 728.885 233.277 770.236 234.011 773.178C234.778 776.253 239.504 780.585 242.091 780.585C244.168 780.585 249.572 775.015 249.572 772.875C249.572 772.41 250.809 770.651 252.322 768.964C253.835 767.277 255.795 764.364 256.68 762.491C261.435 752.415 262.571 749.762 262.571 748.725C262.571 748.098 262.911 747.585 263.327 747.585C264.784 747.585 271.57 729.764 271.57 725.937C271.57 724.163 277.414 714.628 280.256 711.765C284.784 707.203 282.453 701.449 277.512 704.995C265.42 713.673 242.614 714.487 240 706.335C239.692 705.372 239.132 704.576 238.757 704.566C238.381 704.555 236.279 702.98 234.085 701.066C229.619 697.168 229.452 697.108 227.775 698.785ZM120.758 707.53C117.232 717.644 105.514 724.585 91.9651 724.585C81.3094 724.585 80.8275 725.615 86.1088 737.085C87.3747 739.835 88.7406 743.885 89.1435 746.085C89.5465 748.285 90.4874 750.973 91.2343 752.058C91.9812 753.142 92.5921 754.589 92.5921 755.273C92.5921 755.956 93.9169 758.605 95.5357 761.158C97.1555 763.712 98.7803 767.215 99.1472 768.943C99.5132 770.671 100.381 772.76 101.075 773.585C101.769 774.41 103.404 777.448 104.708 780.335C106.011 783.222 107.418 785.585 107.834 785.585C108.25 785.585 108.59 786.274 108.59 787.116C108.59 787.959 109.265 788.907 110.09 789.223C110.915 789.54 111.59 790.44 111.59 791.223C111.59 796.325 118.487 791.761 118.599 786.585C118.628 785.21 119.313 783.211 120.121 782.144C121.023 780.952 121.588 777.949 121.588 774.362C121.588 771.149 122.263 766.905 123.088 764.931C124.276 762.088 124.588 756.485 124.588 737.997C124.588 718.298 124.848 714.108 126.25 711.167C127.616 708.302 127.684 707.405 126.628 706.133C124.56 703.641 121.891 704.277 120.758 707.53ZM67.5952 714.478C67.5952 715.519 68.3341 716.655 69.238 717.002C71.4027 717.832 71.9206 717.188 71.1187 714.66C70.2948 712.064 67.5952 711.924 67.5952 714.478Z"
  />
</svg>
