<svg
  width="1753"
  height="1058"
  viewBox="0 0 1753 1058"
  fill="none"
  xmlns="http://www.w3.org/2000/svg"
>
  <path
    fill-rule="evenodd"
    clip-rule="evenodd"
    fill="black"
    d="M790.634 4.31089C794.123 5.95989 797.274 7.78689 797.635 8.37189C797.997 8.95689 800.847 11.3099 803.97 13.6009C814.554 21.3659 828.519 35.2779 836.883 46.3909C839.988 50.5159 844.468 56.4399 846.838 59.5569C849.208 62.6729 851.15 65.5979 851.153 66.0569C851.156 66.5149 853.631 69.9879 856.653 73.7739C859.675 77.5599 862.147 81.1239 862.147 81.6949C862.147 82.2659 862.808 83.4639 863.615 84.3559C864.423 85.2479 867.841 91.3579 871.211 97.9349C874.581 104.511 879.545 113.191 882.243 117.225C884.94 121.258 887.16 125.083 887.177 125.725C887.193 126.366 888.713 129.591 890.554 132.891C894.261 139.535 892.816 138.871 910.147 141.897C915.372 142.81 921.17 144.024 923.03 144.595C924.891 145.167 928.941 146.231 932.03 146.961C947.804 150.688 960.845 154.32 971.147 157.857C975.272 159.273 980.447 160.692 982.647 161.01C986.875 161.622 993.885 163.678 1008.65 168.635C1013.6 170.298 1019.9 172.231 1022.65 172.931C1025.4 173.631 1030.57 174.939 1034.15 175.838C1042.44 177.922 1047.17 179.203 1054.65 181.391C1057.95 182.357 1062.45 183.638 1064.65 184.238C1078.69 188.072 1086.98 190.872 1095.72 194.739C1101.18 197.156 1111.5 201.054 1118.65 203.402C1125.8 205.75 1132.14 208.052 1132.73 208.518C1133.33 208.983 1135.58 209.986 1137.73 210.745C1139.89 211.505 1144.57 213.492 1148.15 215.16C1151.72 216.829 1156.45 218.958 1158.65 219.892C1160.85 220.825 1164.45 222.371 1166.65 223.327C1168.85 224.283 1173.35 226.103 1176.65 227.373C1179.95 228.642 1184.45 230.436 1186.65 231.359C1192.44 233.788 1197.71 235.898 1205.58 238.928C1212.69 241.668 1213.5 242.021 1218.65 244.619C1220.3 245.452 1223.45 246.705 1225.65 247.404C1227.85 248.104 1230.53 249.287 1231.62 250.033C1232.7 250.78 1234.29 251.391 1235.15 251.391C1236 251.391 1240.06 253.122 1244.17 255.237C1257.59 262.145 1269.6 268.628 1272.15 270.348C1273.52 271.276 1286.12 277.737 1300.15 284.707C1333.53 301.3 1345.79 308.093 1354.6 314.885C1355.67 315.713 1356.9 316.391 1357.33 316.391C1357.76 316.391 1361.02 318.17 1364.57 320.343C1370.35 323.882 1383.3 330.391 1384.55 330.391C1384.82 330.391 1387.65 331.91 1390.84 333.766C1394.03 335.622 1397.77 337.486 1399.15 337.907C1400.52 338.328 1409.58 343.776 1419.28 350.013C1428.98 356.251 1438.13 361.814 1439.61 362.377C1441.09 362.94 1445.53 365.362 1449.48 367.759C1460.92 374.702 1481 385.261 1482.91 385.339C1484.06 385.386 1488.76 382.27 1500.87 373.446C1503.19 371.753 1509.49 368.073 1514.87 365.267C1527.7 358.573 1537.75 353.115 1548 347.271C1556.59 342.374 1575.28 334.698 1585.33 331.936C1588.46 331.077 1592.28 329.34 1593.83 328.077C1595.38 326.814 1598.67 325.159 1601.15 324.398C1603.62 323.638 1607.92 322 1610.71 320.759C1615.52 318.618 1621.41 316.914 1632.65 314.414C1646.69 311.29 1650.01 310.437 1654.15 308.889C1672.53 302.01 1679.66 315.228 1682.18 360.891C1682.75 371.341 1683.65 382.591 1684.18 385.891C1685.48 394.055 1685.4 449.281 1684.08 462.891C1681.39 490.478 1678.32 509.038 1674.64 519.891C1673.34 523.741 1671.79 529.366 1671.2 532.391C1669.71 540.048 1666.74 550.786 1664.16 557.891C1662.96 561.191 1661.45 565.691 1660.8 567.891C1660.16 570.091 1659.32 572.374 1658.94 572.964C1658.56 573.554 1657.81 576.777 1657.27 580.125C1656.15 587.04 1654.66 591.684 1650.12 602.391C1648.38 606.516 1646.62 611.691 1646.23 613.891C1645.84 616.091 1645.03 618.791 1644.45 619.891C1643.86 620.991 1643.06 623.831 1642.66 626.202C1642.27 628.573 1640.84 633.298 1639.48 636.702C1636.72 643.613 1627.23 670.783 1626.49 673.891C1626.18 675.224 1627.58 677.891 1630.69 681.891C1633.26 685.191 1637.35 691.266 1639.77 695.391C1642.19 699.516 1645.51 704.691 1647.15 706.891C1652.99 714.718 1656.23 719.926 1656.81 722.391C1657.13 723.766 1660.06 729.053 1663.32 734.14C1666.58 739.226 1669.86 744.851 1670.61 746.64C1671.37 748.428 1673.37 751.8 1675.06 754.132C1676.76 756.465 1678.15 758.621 1678.15 758.924C1678.15 760.498 1684.92 773.636 1688.3 778.616C1690.44 781.765 1693.58 787.84 1695.28 792.116C1696.98 796.392 1699.94 802.704 1701.85 806.142C1705.12 812.025 1707.46 817.567 1710.64 826.891C1713.2 834.419 1715.2 839.891 1716.11 841.891C1721.29 853.217 1727.26 868.977 1728.61 874.891C1728.99 876.541 1729.87 879.241 1730.56 880.891C1731.72 883.64 1733.13 888.15 1737.59 903.391C1738.47 906.416 1739.63 911.266 1740.15 914.168C1740.68 917.07 1741.5 920.22 1741.99 921.168C1742.47 922.116 1743.17 925.561 1743.54 928.825C1743.91 932.089 1744.61 935.243 1745.1 935.834C1745.59 936.424 1746.29 941.404 1746.67 946.899C1747.04 952.395 1747.98 959.445 1748.75 962.567C1753.34 981.05 1754.11 1016.26 1750.56 1045.99C1749.26 1056.91 1741.35 1059.47 1721.3 1055.46C1715.99 1054.39 1709.4 1053.23 1706.65 1052.88C1701.48 1052.21 1685.17 1048.01 1681.65 1046.43C1680.55 1045.94 1677.17 1044.99 1674.15 1044.33C1671.12 1043.66 1664.37 1041.64 1659.15 1039.82C1653.92 1038.01 1646.95 1036.01 1643.65 1035.38C1640.35 1034.74 1635.17 1033.4 1632.15 1032.4C1629.12 1031.39 1623.95 1029.82 1620.65 1028.9C1617.35 1027.99 1612.45 1026.38 1609.76 1025.32C1607.08 1024.26 1604.06 1023.39 1603.05 1023.39C1602.04 1023.39 1599.29 1022.74 1596.93 1021.95C1594.57 1021.16 1588.82 1020.05 1584.15 1019.49C1579.47 1018.93 1571.37 1017.51 1566.15 1016.34C1560.92 1015.17 1553.72 1013.61 1550.15 1012.86C1546.57 1012.12 1541.4 1011 1538.65 1010.38C1535.9 1009.76 1529.37 1008.33 1524.15 1007.21C1518.92 1006.09 1509.92 1003.59 1504.15 1001.65C1498.37 999.717 1492.3 997.793 1490.65 997.379C1479.91 994.683 1472.02 992.127 1467.92 990.019C1463.91 987.957 1462.63 987.735 1459.42 988.551C1453.17 990.142 1443.12 992.317 1434.65 993.912C1430.25 994.74 1425.3 995.831 1423.65 996.335C1422 996.84 1418.17 997.547 1415.15 997.907C1410.16 998.5 1404.26 1000.13 1389.65 1004.93C1386.9 1005.83 1383.75 1006.93 1382.65 1007.37C1376.25 1009.91 1357.04 1016.49 1353.65 1017.3C1351.45 1017.82 1347.17 1019 1344.15 1019.91C1341.12 1020.81 1336.15 1022.19 1333.09 1022.95C1330.03 1023.72 1324.62 1025.66 1321.07 1027.27C1317.52 1028.88 1312.37 1030.5 1309.63 1030.87C1306.89 1031.25 1301.05 1032.24 1296.65 1033.09C1292.25 1033.93 1286.4 1034.98 1283.65 1035.41C1280.9 1035.85 1276.62 1036.67 1274.15 1037.24C1268.79 1038.47 1251.82 1040.05 1229.15 1041.42C1220.07 1041.96 1209.05 1042.96 1204.65 1043.63C1185.81 1046.5 1120.12 1044.61 1105.37 1040.78C1057.32 1028.31 1031.21 961.686 1051.55 903.461C1054.86 893.991 1053.44 890.391 1046.39 890.391C1045.51 890.391 1041.83 889.527 1038.22 888.471C1025.21 884.671 1016.15 882.391 1014.06 882.391C1012.89 882.391 1008.26 881.496 1003.79 880.402C986.276 876.125 970.464 872.5 966.647 871.888C959.157 870.688 934.992 865.198 924.647 862.346C920.797 861.284 913.372 859.321 908.147 857.984C891.22 853.65 877.561 849.535 869.575 846.362C865.277 844.655 854.985 841.5 846.704 839.35C838.422 837.201 829.847 834.776 827.647 833.961C825.447 833.146 822.832 832.459 821.835 832.435C820.838 832.411 817.913 831.766 815.335 831.003C812.757 830.24 806.372 828.596 801.147 827.35C795.922 826.105 790.747 824.624 789.647 824.06C788.547 823.496 784.497 822.468 780.647 821.775C776.797 821.082 771.172 820.003 768.147 819.378C765.122 818.753 758.147 817.356 752.647 816.273C741.476 814.074 730.421 810.937 726.344 808.811C724.861 808.037 722.522 807.401 721.147 807.397C718.599 807.391 707.271 803.941 703.647 802.068C701.64 801.03 695.403 799.298 685.147 796.931C682.122 796.233 677.494 794.926 674.862 794.026C672.23 793.127 668.948 792.391 667.568 792.391C666.187 792.391 662.266 791.749 658.853 790.964C655.439 790.179 648.147 788.579 642.647 787.408C637.147 786.237 630.172 784.666 627.147 783.917C624.122 783.168 619.397 782.236 616.647 781.845C610.894 781.027 598.714 778.064 592.147 775.884C589.672 775.063 581.572 772.337 574.147 769.828C561.523 765.561 557.351 764.316 551.147 762.961C549.772 762.661 545.272 761.529 541.147 760.446C537.022 759.363 530.047 757.743 525.647 756.846C516.163 754.913 501.279 751.801 491.961 749.804C488.284 749.015 483.109 748.114 480.461 747.802C477.813 747.489 472.947 746.415 469.647 745.416C458.857 742.148 447.777 738.504 440.647 735.878C436.797 734.46 430.947 732.85 427.647 732.301C424.347 731.751 420.297 730.896 418.647 730.4C414.06 729.021 399.252 725.521 393.647 724.491C390.897 723.985 384.372 722.354 379.147 720.866C373.922 719.378 368.072 717.798 366.147 717.355C361.318 716.242 354.782 713.795 347.466 710.361C340.126 706.915 331.187 703.882 325.647 702.959C323.447 702.593 319.622 701.654 317.147 700.872C314.672 700.091 308.597 698.99 303.647 698.426C298.697 697.862 291.497 696.733 287.647 695.916C283.797 695.1 277.947 693.939 274.647 693.337C261.244 690.89 249.371 688.145 244.647 686.401C235.021 682.848 229.068 681.609 198.647 676.823C189.284 675.35 180.335 673.51 172.147 671.374C170.222 670.871 168.318 670.416 167.915 670.361C167.513 670.307 165.713 669.82 163.915 669.279C162.118 668.739 157.047 667.646 152.647 666.852C145.538 665.569 141.751 664.632 130.647 661.411C127.752 660.571 123.111 659.379 107.147 655.376C103.022 654.341 96.2719 652.771 92.1469 651.886C88.0219 651.001 82.6509 649.826 80.2119 649.273C77.7729 648.721 73.4979 647.844 70.7119 647.324C62.8569 645.858 41.5269 638.563 32.5359 634.267C26.6219 631.441 23.1319 630.391 19.6539 630.391C6.6539 630.391 4.33489 624.365 3.10589 587.391C2.62189 572.816 1.7699 556.391 1.2119 550.891C-0.0511037 538.427 -0.0391064 480.856 1.23089 465.391C1.74989 459.066 2.80789 445.566 3.58189 435.391C5.03589 416.275 6.08689 409.587 8.65189 403.121C9.47389 401.047 10.1539 398.122 10.1619 396.621C10.1829 392.954 16.8789 378.144 21.4459 371.663C32.2359 356.353 39.2409 348.903 55.5539 335.391C59.2059 332.366 63.6459 328.615 65.4199 327.054C67.1949 325.494 69.9969 323.518 71.6469 322.662C73.2969 321.806 77.3469 319.215 80.6469 316.905C95.5819 306.448 105.463 303.991 129.817 304.679C156.37 305.428 163.748 307.053 184.147 316.642C188.822 318.84 194.246 321.206 196.2 321.901C202.69 324.207 212.157 329.406 215.927 332.735C217.973 334.542 221.805 337.26 224.443 338.775C227.081 340.29 233.34 345.51 238.35 350.375C252.069 363.695 250.233 363.625 262.968 351.318C275.667 339.047 283.515 332.303 287.655 330.103C289.301 329.228 294.697 325.276 299.647 321.319C304.597 317.363 310.386 313.022 312.511 311.674C314.636 310.325 318.236 307.534 320.511 305.471C322.786 303.408 325.353 301.467 326.217 301.156C328.571 300.31 371.167 271.488 374.647 268.386C375.747 267.405 381.372 263.396 387.147 259.477C408.863 244.738 416.762 239.345 420.647 236.606C422.847 235.055 428.922 231.138 434.147 227.901C439.372 224.664 446.127 220.412 449.158 218.453C452.189 216.494 456.914 213.766 459.658 212.391C462.402 211.016 464.872 209.666 465.147 209.391C466.331 208.207 473.32 204.454 497.147 192.205C504.022 188.671 511.672 184.49 514.147 182.913C516.622 181.336 522.922 178.087 528.147 175.692C533.372 173.297 542.147 169.119 547.647 166.407C553.147 163.695 560.347 160.495 563.647 159.297C572.011 156.258 578.952 153.532 583.647 151.439C585.847 150.458 589.29 148.921 591.298 148.024C593.306 147.126 595.579 146.391 596.348 146.391C597.118 146.391 598.175 145.987 598.697 145.493C601.009 143.307 616.584 138.329 628.647 135.921C630.297 135.591 632.997 134.71 634.647 133.962C636.297 133.214 641.247 131.466 645.647 130.078C653.647 127.553 653.647 127.553 659.019 119.722C661.973 115.415 664.715 111.666 665.111 111.391C665.508 111.116 667.392 108.866 669.297 106.391C672.868 101.753 675.667 98.4459 682.75 90.4959C685.006 87.9629 689.281 83.1659 692.25 79.8349C695.218 76.5039 700.797 70.0379 704.647 65.4669C708.497 60.8959 712.457 56.1959 713.447 55.0239C731.788 33.2889 760.845 6.58389 771.279 1.87289C775.932 -0.228109 782.879 0.646887 790.634 4.31089ZM775.744 26.9249C772.775 28.4659 757.329 41.3169 751.695 46.9329C743.62 54.9849 727.179 73.4469 724.147 77.8679C722.71 79.9629 716.995 86.5759 705.147 99.8529C695.153 111.053 692.828 113.805 685.514 123.095C681.528 128.157 676.616 134.907 674.597 138.095C667.97 148.56 665.052 150.748 655.372 152.511C652.223 153.084 645.822 154.82 641.147 156.368C636.472 157.916 628.372 160.377 623.147 161.837C611.049 165.218 597.459 170.545 586.114 176.352C585.271 176.784 583.087 177.465 581.26 177.866C576.92 178.819 572.217 180.888 551.147 191.111C541.522 195.782 531.847 200.311 529.647 201.176C527.447 202.042 524.297 203.724 522.647 204.914C518.768 207.713 507.636 213.694 503.147 215.391C501.222 216.119 497.847 217.81 495.647 219.15C493.447 220.49 484.672 225.509 476.147 230.303C462.726 237.85 457.829 240.776 450.098 245.871C449.247 246.432 447.046 247.791 445.208 248.891C442.056 250.778 437.186 253.904 420.612 264.684C416.742 267.2 412.722 270.203 411.678 271.357C410.634 272.51 407.445 274.79 404.591 276.423C400.303 278.876 386.108 288.919 380.147 293.716C379.322 294.38 371.222 299.815 362.147 305.795C336.788 322.505 333.872 324.502 330.647 327.366C328.997 328.832 326.38 330.817 324.831 331.777C321.979 333.546 320.356 334.791 314.754 339.507C313.045 340.946 308.901 344.096 305.544 346.507C302.187 348.918 296.926 352.798 293.853 355.129C286.299 360.858 266.147 380.431 266.147 382.039C266.147 383.237 269.369 389.605 271.131 391.891C271.555 392.441 272.246 394.016 272.665 395.391C273.596 398.442 279.795 407.629 284.135 412.391C285.889 414.316 288.137 417.466 289.13 419.391C291.796 424.557 299.628 434.918 305.164 440.602C313.663 449.327 315.787 456.714 311.623 463.068C307.969 468.645 298.813 469.258 294.848 464.19C293.858 462.926 291.324 460.091 289.216 457.891C283.674 452.106 274.109 439.764 270.23 433.391C268.388 430.366 264.688 425.351 262.007 422.247C259.327 419.143 256.514 414.848 255.757 412.702C253.439 406.132 248.107 398.145 242.493 392.831C238.747 389.285 237.147 387.007 237.147 385.216C237.147 382.346 234.503 378.622 228.768 373.414C226.635 371.476 223.035 368.179 220.768 366.086C218.502 363.993 213.947 360.43 210.647 358.168C207.347 355.906 203.3 352.943 201.655 351.584C198.56 349.028 196.026 347.81 180.453 341.394C175.396 339.311 169.92 336.653 168.284 335.488C166.647 334.323 163.135 332.942 160.478 332.419C157.821 331.896 154.072 330.987 152.147 330.399C137.481 325.923 101.889 329.723 93.5899 336.652C91.9709 338.004 89.0719 339.908 87.1469 340.884C85.2219 341.86 81.7849 344.286 79.5079 346.275C77.2319 348.264 73.4069 351.323 71.0079 353.073C50.6299 367.942 34.2299 390.857 30.3439 409.891C29.7829 412.641 28.8449 416.691 28.2589 418.891C27.6739 421.091 27.1839 426.545 27.1709 431.01C27.1579 435.475 26.3599 443.125 25.3969 448.01C22.0589 464.952 23.6079 596.777 27.2239 603.535C28.3279 605.598 40.9029 612.353 48.9519 615.208C60.4309 619.279 78.7539 624.656 82.6469 625.097C84.8469 625.346 92.0469 626.838 98.6469 628.413C105.247 629.989 113.347 631.803 116.647 632.445C119.947 633.088 123.097 633.899 123.647 634.248C124.197 634.598 126.897 635.402 129.647 636.035C132.397 636.668 137.122 637.848 140.147 638.657C143.172 639.465 149.247 640.907 153.647 641.861C164.984 644.319 168.706 645.236 176.647 647.528C180.497 648.64 186.797 649.991 190.647 650.532C194.497 651.073 200.922 652.162 204.925 652.953C208.929 653.744 213.879 654.407 215.925 654.427C220.527 654.471 227.837 656.26 249.988 662.766C256.776 664.76 263.668 666.391 265.304 666.391C266.94 666.391 269.114 666.838 270.134 667.384C271.155 667.931 276.638 668.781 282.319 669.274C287.999 669.768 295.122 670.83 298.147 671.635C305.889 673.696 316.447 676.004 324.647 677.427C333.016 678.88 344.335 682.519 352.861 686.497C361.876 690.703 381.913 696.995 397.29 700.448C431.914 708.224 447.14 712.157 459.147 716.428C465.472 718.679 473.347 721.117 476.647 721.848C479.947 722.579 485.347 723.849 488.647 724.669C491.947 725.49 499.147 726.924 504.647 727.856C525.079 731.317 530.44 732.498 558.942 739.819C569.005 742.404 579.355 745.582 581.942 746.882C586.664 749.253 588.483 749.786 610.647 755.292C625.801 759.057 656.041 765.613 664.647 767C669.016 767.704 674.269 769.031 699.147 775.717C715.167 780.023 723.529 782.562 727.647 784.37C733.24 786.826 750.005 791.078 765.647 794.007C770.047 794.831 774.997 795.903 776.647 796.39C778.297 796.877 783.472 798.173 788.147 799.271C803.537 802.885 825.567 808.44 830.147 809.861C836.513 811.835 845.872 814.356 851.147 815.515C859.629 817.38 866.657 819.579 876.647 823.494C882.147 825.649 887.307 827.408 888.113 827.402C888.919 827.396 895.424 829.234 902.568 831.486C909.712 833.738 918.277 836.175 921.602 836.902C924.927 837.628 931.247 839.105 935.647 840.184C940.047 841.263 947.247 842.907 951.647 843.839C967.281 847.148 977.715 849.526 982.647 850.904C985.397 851.672 990.347 852.755 993.647 853.311C996.947 853.866 1003.7 855.234 1008.65 856.351C1013.6 857.467 1020.8 859.077 1024.65 859.929C1028.5 860.78 1036.37 862.782 1042.15 864.378C1047.92 865.974 1056 868.195 1060.09 869.314C1068.66 871.655 1065.77 873.609 1081.65 854.744C1086.6 848.862 1092.2 842.664 1094.1 840.97C1096 839.277 1098.93 836.318 1100.6 834.395C1119.74 812.415 1130.06 806.75 1136.67 814.597C1143.14 822.29 1141.02 827.043 1123.4 844.407C1114.73 852.941 1104.15 864.283 1099.88 869.611C1095.6 874.939 1091.67 879.57 1091.13 879.902C1090.59 880.234 1088.99 882.87 1087.58 885.76C1086.16 888.65 1083.51 892.651 1081.67 894.652C1078.77 897.827 1073.12 910.427 1070.58 919.391C1070.2 920.766 1069.26 922.779 1068.51 923.864C1066.14 927.296 1066.62 958.493 1069.18 966.511C1072.97 978.408 1079.33 992.878 1082.09 995.891C1083.6 997.541 1086.11 1000.61 1087.67 1002.72C1090.9 1007.09 1100.97 1014.51 1106.15 1016.34C1119.25 1020.97 1178.64 1023.13 1202.65 1019.85C1208.7 1019.02 1221.75 1017.93 1231.65 1017.42C1241.55 1016.92 1251.9 1016.06 1254.65 1015.53C1257.4 1014.99 1263.47 1014.25 1268.15 1013.88C1272.82 1013.51 1278.9 1012.6 1281.65 1011.87C1284.4 1011.13 1289.8 1010.01 1293.65 1009.38C1297.5 1008.75 1306.95 1006.29 1314.65 1003.91C1335.78 997.386 1356.5 991.382 1357.86 991.387C1359.02 991.391 1363.05 989.82 1369.65 986.793C1378.11 982.911 1410.83 973.391 1415.71 973.391C1417.53 973.391 1420.08 972.986 1421.39 972.49C1424.5 971.305 1441.47 967.63 1452.02 965.856C1456.63 965.081 1461.13 964.227 1462.02 963.957C1462.91 963.688 1467.25 963.011 1471.65 962.452C1476.05 961.893 1485.5 960.53 1492.65 959.423C1506.86 957.222 1528.43 955.743 1532.27 956.706C1544.24 959.711 1543.48 978.798 1531.36 979.562C1529.87 979.656 1527.97 979.833 1527.15 979.956C1526.32 980.078 1525.08 980.226 1524.4 980.285C1522.31 980.462 1523 982.124 1525.4 982.684C1526.63 982.973 1531.02 984.127 1535.15 985.25C1544.04 987.669 1555.43 990.037 1567.16 991.907C1571.85 992.654 1576.94 993.743 1578.48 994.328C1580.02 994.913 1582.81 995.391 1584.69 995.391C1589.39 995.391 1609.84 1000.75 1643.41 1010.77C1648.23 1012.21 1652.88 1013.39 1653.74 1013.39C1654.61 1013.39 1659.89 1014.9 1665.48 1016.75C1671.07 1018.6 1679.7 1021.32 1684.65 1022.8C1689.6 1024.28 1695.73 1026.17 1698.27 1026.99C1700.81 1027.82 1706.44 1028.91 1710.77 1029.42C1715.1 1029.92 1720.77 1030.63 1723.37 1030.99C1727.84 1031.61 1728.15 1031.5 1729.12 1028.95C1730.45 1025.46 1730.44 991.672 1729.11 983.891C1728.54 980.591 1727.44 972.918 1726.66 966.84C1725.89 960.762 1724.78 954.546 1724.2 953.025C1723.62 951.505 1723.15 948.347 1723.15 946.008C1723.15 943.669 1722.26 938.411 1721.17 934.323C1720.08 930.236 1719.18 925.581 1719.17 923.979C1719.15 920.945 1717.2 913.444 1714.21 904.891C1713.25 902.141 1711.43 896.516 1710.17 892.391C1708.91 888.266 1707.29 883.316 1706.58 881.391C1705.88 879.466 1705.08 876.275 1704.81 874.3C1704.54 872.325 1702.97 868.5 1701.31 865.8C1699.65 863.1 1697.97 859.571 1697.57 857.958C1697.17 856.344 1696.23 853.869 1695.5 852.458C1694.76 851.046 1694.16 849.116 1694.15 848.168C1694.15 847.22 1693.27 844.52 1692.2 842.168C1691.12 839.816 1689.04 834.741 1687.57 830.891C1686.09 827.041 1683.42 820.966 1681.62 817.391C1679.82 813.816 1676.47 806.891 1674.16 802.002C1669.97 793.14 1664.71 783.919 1662.61 781.745C1662 781.115 1660.68 778.458 1659.68 775.84C1658.68 773.223 1656.35 768.408 1654.5 765.14C1652.66 761.872 1651.15 758.94 1651.15 758.624C1651.15 758.307 1650.52 757.338 1649.76 756.47C1649 755.601 1647.06 752.416 1645.45 749.391C1643.84 746.366 1641.32 741.987 1639.84 739.661C1638.36 737.334 1637.15 734.995 1637.15 734.461C1637.15 733.928 1633.28 727.732 1628.55 720.692C1623.82 713.651 1619.04 705.959 1617.92 703.597C1616.8 701.235 1613.86 697.635 1611.39 695.597C1599.11 685.471 1598.38 683.403 1602.66 670.988C1604.2 666.535 1606.24 660.594 1607.2 657.786C1608.16 654.978 1609.38 651.828 1609.91 650.786C1610.44 649.744 1611.43 647.316 1612.11 645.391C1617.09 631.182 1619.4 624.206 1623 612.391C1628.91 593.04 1633.09 580.345 1634.68 576.891C1635.44 575.241 1636.36 572.091 1636.71 569.891C1637.07 567.691 1638.9 561.166 1640.77 555.391C1645.8 539.911 1645.94 539.414 1647.55 532.891C1648.36 529.591 1650.63 521.041 1652.59 513.891C1656.08 501.185 1658.86 484.05 1661.06 461.845C1662.73 444.893 1662.46 390.32 1660.67 382.891C1659.87 379.591 1659.19 373.291 1659.16 368.891C1658.95 340.845 1656.68 331.812 1650.6 334.787C1648.97 335.58 1642.92 337.191 1637.15 338.366C1622.62 341.323 1618.07 342.873 1607.22 348.574C1602.03 351.298 1593.93 354.572 1589.22 355.85C1584.5 357.128 1577.95 359.5 1574.65 361.12C1571.35 362.74 1567.07 364.686 1565.15 365.444C1563.22 366.201 1557.37 369.338 1552.15 372.413C1546.92 375.489 1541.07 378.621 1539.15 379.373C1537.22 380.125 1533.4 382.164 1530.65 383.904C1527.9 385.644 1522.95 388.418 1519.65 390.068C1512.91 393.436 1501.91 401.426 1495.15 407.873C1486.6 416.017 1485.76 416.053 1473.27 408.818C1458.09 400.027 1440.94 390.391 1440.48 390.391C1440.24 390.391 1437.5 388.761 1434.39 386.769C1431.27 384.777 1426.23 381.828 1423.19 380.216C1414.16 375.441 1408.7 372.084 1404.55 368.763C1402.4 367.043 1392.77 361.595 1383.15 356.656C1355.73 342.588 1343.79 336.2 1341.89 334.572C1340.92 333.745 1339.28 332.579 1338.23 331.98C1337.19 331.381 1332.13 328.446 1326.99 325.458C1317.53 319.959 1287.4 304.522 1279.14 300.945C1276.67 299.875 1273.38 298.139 1271.84 297.088C1270.3 296.037 1265.81 293.606 1261.86 291.685C1257.92 289.765 1252.43 286.754 1249.67 284.995C1242.94 280.708 1236.63 277.391 1235.21 277.391C1234.58 277.391 1229.91 275.412 1224.85 272.994C1219.79 270.576 1209.12 266.015 1201.15 262.859C1193.17 259.704 1184.76 256.282 1182.45 255.256C1180.14 254.23 1177.84 253.391 1177.33 253.391C1176.82 253.391 1171.73 251.32 1166.03 248.789C1160.32 246.258 1152.95 243.17 1149.65 241.927C1146.35 240.684 1140.05 237.864 1135.65 235.66C1131.25 233.456 1124.5 230.655 1120.65 229.435C1112.08 226.722 1106.07 224.554 1095.65 220.414C1081.79 214.912 1071.87 211.298 1066.67 209.855C1063.91 209.087 1059.4 207.741 1056.65 206.863C1049.08 204.448 1042.71 202.695 1031.15 199.85C1025.37 198.43 1016.82 195.891 1012.15 194.21C1007.47 192.529 1002.07 190.941 1000.15 190.681C998.222 190.421 989.447 187.944 980.647 185.177C971.847 182.41 957.447 178.234 948.647 175.898C939.847 173.561 929.497 170.732 925.647 169.61C910.123 165.086 902.083 164.24 890.413 165.898C883.296 166.91 874.252 159.361 874.166 152.337C874.149 150.932 866.849 135.758 863.863 130.921C863.194 129.838 860.121 124.888 857.033 119.921C853.946 114.955 849.956 107.741 848.167 103.891C846.379 100.041 842.832 93.9659 840.285 90.3909C837.739 86.8159 833.853 81.2409 831.651 78.0009C829.449 74.7619 826.494 70.4169 825.084 68.3459C823.675 66.2759 821.2 63.0119 819.584 61.0949C817.969 59.1769 815.972 56.7259 815.147 55.6489C811.533 50.9279 808.173 47.5039 801.645 41.8909C797.808 38.5909 794.089 35.3489 793.383 34.6879C784.878 26.7239 780.146 24.6409 775.744 26.9249ZM119.832 380.458C138.679 387.599 130.806 428.391 110.581 428.391C102.145 428.391 91.1469 414.245 91.1469 403.394C91.1469 388.462 107.161 375.657 119.832 380.458ZM209.826 412.396C225.938 419.759 226.382 437.243 210.622 443.716C192.124 451.312 170.153 449.261 163.304 439.299C157.185 430.397 167.465 411.347 179.499 409.289C188.154 407.808 203.148 409.344 209.826 412.396ZM82.0969 453.377C100.765 458.731 102.357 489.275 84.4369 498.276C66.9339 507.068 52.6449 490.327 58.1309 467.458C60.6599 456.914 71.7379 450.406 82.0969 453.377ZM155.551 465.336C177.173 477.707 180.847 510.796 163.465 536.62C159.102 543.103 151.329 549.391 147.679 549.391C146.888 549.391 145.095 549.913 143.695 550.551C140.254 552.119 128.349 549.997 123.915 547.026C100.496 531.333 106.036 465.902 131.149 461.601C138.669 460.313 149.73 462.006 155.551 465.336ZM552.183 466.258C577.129 473.392 589.608 496.371 582.264 521.653C578.174 535.731 553.998 547.035 537.302 542.675C512.684 536.246 503.808 507.889 518.139 481.449C525.779 467.352 537.586 462.084 552.183 466.258ZM668.298 526.472C671.626 528.253 674.044 534.961 673.464 540.801C671.172 563.868 715.744 573.695 737.8 554.985C752.552 542.472 762.966 544.846 764.481 561.067C765.567 572.69 775.808 584.442 792.272 592.956C804.297 599.174 827.284 600.068 843.076 594.932C861.966 588.789 873.376 598.95 862.059 611.838C854.649 620.278 818.745 625.991 801.947 621.403C786.026 617.054 782.243 615.538 775.468 610.79C771.716 608.161 766.752 604.726 764.435 603.156C759.525 599.827 749.635 588.341 747.633 583.641C745.936 579.657 744.946 579.626 736.967 583.307C706.399 597.411 666.863 586.472 654.324 560.441C645.115 541.323 654.305 518.983 668.298 526.472ZM1098.12 638.127C1137.55 652.699 1129.79 713.386 1088.5 713.39C1054.5 713.394 1045.63 661.117 1076.11 640.418C1084.78 634.529 1087.59 634.236 1098.12 638.127Z"
  />
</svg>
