<svg
  width="1763"
  height="1066"
  viewBox="0 0 1763 1066"
  fill="none"
  xmlns="http://www.w3.org/2000/svg"
>
  <path
    fill-rule="evenodd"
    clip-rule="evenodd"
    fill="black"
    d="M800.65 2.10967C808.29 5.70067 823.803 21.9867 840.179 43.6077C845.178 50.2077 851.429 58.2927 854.069 61.5747C856.709 64.8557 859.857 69.2467 861.065 71.3317C862.273 73.4157 865.93 78.8307 869.192 83.3647C872.455 87.8987 876.236 93.6327 877.594 96.1077C878.952 98.5827 882.832 104.749 886.216 109.81C889.6 114.871 892.369 119.423 892.369 119.925C892.369 120.427 893.207 121.911 894.231 123.223C895.256 124.535 896.425 126.665 896.83 127.957C897.235 129.249 898.209 131.049 898.995 131.957C899.78 132.865 901.423 134.85 902.646 136.368C904.454 138.612 905.896 139.22 910.369 139.625C913.394 139.898 917.219 140.354 918.869 140.638C920.519 140.921 925.919 141.558 930.869 142.051C935.819 142.545 941.219 143.657 942.869 144.522C944.519 145.388 946.925 146.098 948.215 146.102C949.505 146.105 952.88 146.745 955.715 147.524C958.55 148.303 964.469 149.222 968.869 149.567C973.269 149.912 981.819 151.559 987.869 153.227C993.919 154.894 1000.67 156.632 1002.87 157.088C1005.07 157.543 1008.22 158.38 1009.87 158.948C1011.52 159.515 1017.59 160.937 1023.37 162.108C1029.14 163.279 1035.22 164.694 1036.87 165.253C1038.52 165.812 1046.36 168.048 1054.3 170.222C1062.24 172.397 1074.39 176.013 1081.3 178.258C1088.21 180.503 1095.86 182.985 1098.3 183.773C1100.73 184.56 1103.88 185.83 1105.3 186.594C1106.71 187.358 1112.14 189.415 1117.37 191.165C1122.59 192.916 1128.32 194.983 1130.08 195.758C1131.85 196.534 1139.07 199.144 1146.11 201.558C1153.16 203.972 1162.29 207.513 1166.4 209.427C1170.51 211.34 1177.24 214.104 1181.37 215.568C1185.49 217.033 1189.87 218.878 1191.08 219.669C1192.3 220.461 1193.75 221.108 1194.3 221.108C1194.84 221.108 1198.57 222.635 1202.58 224.502C1213.18 229.436 1244.78 243.108 1245.59 243.108C1245.97 243.108 1248.48 244.406 1251.17 245.992C1253.86 247.579 1257.15 249.216 1258.47 249.63C1259.79 250.044 1261.94 251.221 1263.25 252.246C1264.57 253.27 1266.26 254.108 1267.02 254.108C1267.79 254.108 1270.27 255.345 1272.55 256.858C1274.82 258.37 1279.51 261.183 1282.97 263.108C1302.35 273.906 1306.9 276.57 1307.2 277.3C1307.39 277.745 1308.52 278.108 1309.73 278.108C1310.94 278.108 1313.04 278.888 1314.4 279.842C1317.84 282.256 1322.86 284.806 1329.76 287.653C1336.63 290.486 1352.38 299.157 1360.77 304.726C1363.98 306.861 1368.99 310.183 1371.9 312.108C1374.81 314.033 1383.01 319.546 1390.12 324.358C1397.23 329.17 1403.29 333.108 1403.58 333.108C1404.36 333.108 1426.52 348.042 1428.87 350.148C1429.97 351.135 1433.41 353.667 1436.51 355.775C1442.7 359.977 1447.21 363.399 1451.12 366.858C1452.52 368.095 1454.11 369.108 1454.66 369.108C1455.2 369.108 1458.54 370.933 1462.08 373.164C1481.46 385.408 1486.86 386.965 1493.14 382.119C1513.96 366.043 1536.53 351.21 1540.29 351.136C1541.07 351.121 1542.42 350.507 1543.29 349.773C1544.16 349.038 1546.44 347.82 1548.37 347.065C1550.29 346.31 1552.42 345.157 1553.09 344.503C1553.76 343.849 1556.91 342.512 1560.09 341.533C1563.27 340.553 1569.06 338.257 1572.96 336.43C1576.85 334.603 1580.69 333.108 1581.48 333.108C1582.28 333.108 1583.93 332.407 1585.15 331.55C1586.37 330.693 1591.76 328.88 1597.12 327.521C1602.48 326.163 1610.24 323.875 1614.37 322.437C1622.18 319.715 1628.06 318.296 1644.87 315.083C1650.37 314.031 1655.71 312.668 1656.74 312.053C1668.66 304.948 1684.54 313.646 1684.23 327.108C1684.16 330.133 1684.61 338.683 1685.23 346.108C1685.84 353.533 1686.82 367.258 1687.4 376.608C1687.97 385.958 1688.97 396.533 1689.61 400.108C1691.16 408.735 1691.18 442.294 1689.65 453.608C1688.98 458.558 1687.98 466.658 1687.43 471.608C1684.77 495.464 1683.15 507.914 1682.3 511.108C1681.79 513.033 1681.11 518.883 1680.78 524.108C1680.45 529.333 1679.76 535.183 1679.25 537.108C1678.73 539.033 1677.69 544.056 1676.94 548.271C1676.18 552.486 1674.39 558.26 1672.96 561.103C1671.54 563.946 1670.37 566.798 1670.37 567.44C1670.38 570.216 1664.02 588.342 1661.99 591.329C1659.36 595.219 1656.56 602.797 1655.37 609.261C1654.46 614.243 1652.38 620.968 1648.76 630.608C1644.51 641.923 1641.57 650.616 1639.46 658.108C1638.3 662.233 1636.68 667.693 1635.86 670.242C1635.04 672.791 1634.37 675.333 1634.37 675.892C1634.37 677.164 1644.15 692.327 1647 695.48C1647.63 696.17 1649.06 698.535 1650.18 700.738C1651.3 702.94 1652.93 705.329 1653.8 706.047C1654.66 706.765 1655.37 707.764 1655.37 708.267C1655.37 708.769 1657.66 712.171 1660.46 715.827C1663.27 719.482 1665.92 723.416 1666.35 724.567C1666.79 725.719 1669.3 729.799 1671.92 733.635C1678.45 743.164 1687.15 758.367 1687.98 761.71C1688.36 763.222 1689.88 766.293 1691.35 768.534C1692.82 770.775 1695.02 774.983 1696.24 777.886C1697.45 780.789 1699.78 785.265 1701.41 787.832C1703.04 790.399 1704.37 793.099 1704.37 793.832C1704.37 794.565 1706.63 799.764 1709.39 805.386C1713.93 814.617 1721.61 834.746 1723.02 841.108C1723.58 843.645 1727.71 854.953 1729.4 858.608C1731.54 863.21 1736.18 877.002 1737.31 882.108C1737.98 885.133 1739.12 889.633 1739.84 892.108C1740.57 894.583 1742.09 899.758 1743.21 903.608C1744.34 907.458 1745.49 911.733 1745.77 913.108C1746.05 914.483 1747.43 919.658 1748.85 924.608C1750.26 929.558 1752.1 937.658 1752.92 942.608C1753.75 947.558 1754.83 953.858 1755.33 956.608C1755.82 959.358 1756.26 966.223 1756.3 971.865C1756.34 977.506 1757.07 986.731 1757.93 992.365C1759.7 1004 1759.97 1025 1758.5 1036.05C1757.78 1041.46 1757.82 1044.06 1758.66 1045.55C1767.96 1062.15 1758.72 1070.15 1737.67 1063.73C1733.38 1062.42 1727.62 1060.77 1724.87 1060.07C1722.12 1059.37 1718.29 1058.03 1716.37 1057.09C1714.44 1056.15 1710.84 1055.09 1708.37 1054.73C1705.89 1054.37 1700.04 1052.98 1695.37 1051.65C1685.03 1048.69 1668.69 1045.09 1665.62 1045.1C1664.39 1045.1 1660.79 1044.27 1657.62 1043.24C1649.11 1040.49 1638.66 1037.4 1616.37 1031.06C1612.24 1029.89 1605.04 1027.66 1600.37 1026.11C1583.21 1020.43 1578.68 1019.11 1576.27 1019.11C1574.92 1019.11 1572.93 1018.49 1571.84 1017.73C1570.76 1016.98 1567.86 1016.02 1565.41 1015.61C1562.95 1015.2 1560.25 1014.47 1559.41 1014C1557.78 1013.09 1548.6 1010.53 1541.78 1009.09C1539.53 1008.62 1536.15 1007.56 1534.28 1006.74C1530.34 1005.02 1519.33 1002.53 1511.37 1001.56C1508.34 1001.19 1504.44 1000.3 1502.69 999.578C1500.94 998.858 1496.89 997.977 1493.69 997.619C1490.49 997.261 1486.74 996.547 1485.37 996.034C1483.99 995.52 1478.82 994.463 1473.87 993.685C1468.92 992.907 1459.47 991.049 1452.87 989.556C1446.27 988.064 1438.84 986.53 1436.37 986.148C1433.89 985.766 1429.62 984.717 1426.87 983.818C1424.12 982.918 1419.17 981.457 1415.87 980.572C1412.57 979.686 1407.39 978.122 1404.37 977.097C1401.34 976.072 1393.71 974.038 1387.41 972.576C1381.1 971.115 1373.67 969.088 1370.91 968.072C1368.14 967.056 1362.27 965.51 1357.87 964.636C1350.44 963.16 1332.68 958.547 1317.37 954.113C1313.79 953.078 1308.39 951.818 1305.37 951.314C1297.09 949.934 1271.05 943.06 1269.6 941.872C1268.9 941.301 1266.65 940.475 1264.6 940.037C1262.55 939.599 1258.84 938.588 1256.37 937.789C1244.59 933.985 1237.68 932.08 1235.73 932.094C1234.56 932.101 1232.31 931.436 1230.73 930.614C1229.16 929.793 1227.06 929.118 1226.08 929.114C1225.09 929.111 1222.53 928.208 1220.37 927.108C1218.21 926.008 1215.79 925.108 1214.99 925.108C1214.19 925.108 1212.26 924.486 1210.7 923.726C1205.32 921.1 1196.85 918.71 1190.37 917.991C1186.79 917.595 1180.04 916.338 1175.37 915.199C1166.87 913.127 1164.71 912.683 1147.87 909.552C1142.92 908.632 1135.72 907.242 1131.87 906.463C1128.02 905.684 1121.95 904.578 1118.38 904.004C1114.82 903.431 1111.43 902.573 1110.86 902.099C1110.29 901.625 1107.35 900.969 1104.34 900.641C1101.33 900.313 1095.72 899.385 1091.87 898.578C1084 896.927 1073.57 894.769 1065.37 893.093C1060.04 892.003 1054.14 890.502 1045.87 888.131C1043.67 887.5 1038.04 885.92 1033.37 884.62C1028.69 883.32 1019.47 880.466 1012.87 878.279C1006.27 876.091 997.494 873.564 993.369 872.663C989.244 871.762 984.519 870.547 982.869 869.963C981.219 869.379 977.619 868.521 974.869 868.056C972.119 867.59 967.394 866.552 964.369 865.747C959.294 864.398 955.239 863.387 935.869 858.64C932.019 857.696 925.795 856.264 922.039 855.458C918.282 854.652 911.307 852.663 906.539 851.038C897.305 847.892 888.967 845.713 872.869 842.238C867.369 841.051 859.944 839.188 856.369 838.099C850.93 836.442 835.196 832.243 822.869 829.158C821.219 828.745 814.244 826.565 807.369 824.313C800.494 822.061 789.469 818.573 782.869 816.56C776.269 814.548 769.969 812.523 768.869 812.061C767.769 811.598 764.394 810.916 761.369 810.545C758.344 810.174 754.294 809.307 752.369 808.618C742.937 805.242 730.725 802.069 719.869 800.174C713.269 799.022 704.719 797.43 700.869 796.635C697.019 795.84 691.169 794.675 687.869 794.046C682.692 793.058 671.593 790.575 656.869 787.11C654.669 786.592 649.494 785.683 645.369 785.09C641.244 784.498 633.594 782.922 628.369 781.59C623.144 780.258 615.813 778.693 612.078 778.112C608.343 777.532 603.393 776.424 601.078 775.652C598.763 774.879 595.069 773.943 592.869 773.572C588.175 772.779 578.444 770.249 565.869 766.551C560.919 765.095 553.269 763.024 548.869 761.948C544.469 760.873 536.594 758.709 531.369 757.141C526.144 755.572 517.819 753.091 512.869 751.627C507.919 750.162 501.394 748.156 498.369 747.168C488.686 744.006 485.955 743.243 481.869 742.56C476.041 741.585 462.142 738.018 460.199 736.999C459.28 736.517 454.105 735.448 448.699 734.622C438.832 733.116 434.569 732.332 424.369 730.151C421.344 729.504 416.394 728.596 413.369 728.134C408.308 727.361 403.196 725.397 396.103 721.502C393.255 719.938 382.637 722.985 378.369 726.592C377.544 727.289 372.819 729.321 367.869 731.108C356.817 735.097 351.219 737.436 345.369 740.509C342.894 741.809 339.744 743.187 338.369 743.572C336.994 743.957 333.619 745.299 330.869 746.555C315.773 753.449 305.459 757.446 286.369 763.803C282.244 765.177 277.451 766.932 275.718 767.704C273.985 768.476 271.91 769.108 271.108 769.108C270.305 769.108 263.771 771.78 256.587 775.046C249.403 778.312 240.003 782.099 235.697 783.462C226.512 786.369 222.054 787.934 217.694 789.784C215.948 790.525 210.773 791.626 206.194 792.231C200.026 793.047 195.537 794.435 188.869 797.589C170.475 806.288 122.224 810.517 101.127 805.28C98.518 804.633 93.118 803.651 89.127 803.098C80.597 801.916 70.167 799.545 62.115 796.957C58.95 795.94 54.745 795.108 52.769 795.108C41.519 795.108 16.369 778.914 16.369 771.67C16.369 771.303 13.663 766.314 10.355 760.584C2.35999 746.733 2.23999 746.378 1.08199 733.108C-1.52601 703.237 2.10099 669.573 10.508 645.608C11.087 643.958 11.968 640.619 12.466 638.188C13.24 634.413 15.082 630.488 21.236 619.498C22.637 616.996 27.369 606.198 27.369 605.503C27.369 605.204 29.506 601.729 32.118 597.783C34.73 593.837 37.04 590.158 37.251 589.608C37.62 588.645 44.665 580.806 57.472 567.108C70.378 553.305 84.279 539.364 90.747 533.737C94.459 530.508 98.601 526.117 99.95 523.979C101.3 521.841 103.829 518.858 105.57 517.35C107.312 515.842 110.898 512.47 113.54 509.858C116.181 507.246 118.708 505.108 119.154 505.108C120.201 505.108 148.34 474.287 154.869 465.988C157.619 462.493 162.906 456.504 166.619 452.681C170.331 448.858 173.369 445.307 173.369 444.789C173.369 444.272 176.857 440.384 181.119 436.149C185.381 431.915 192.019 424.971 195.869 420.719C199.719 416.467 203.739 412.227 204.803 411.298C205.866 410.368 207.666 408.492 208.803 407.128C217.864 396.253 244.065 373.108 247.315 373.108C248.643 373.108 253.01 369.396 260.843 361.608C267.756 354.735 277.818 345.208 292.231 331.89C296.23 328.196 302.284 323.491 305.685 321.435C309.086 319.379 312.496 317.082 313.262 316.331C316.916 312.748 328.152 304.312 330.089 303.697C331.287 303.317 332.539 302.147 332.872 301.097C333.416 299.384 343.03 292.366 349.288 289.114C350.619 288.422 355.794 284.196 360.788 279.722C365.783 275.248 372.567 269.792 375.865 267.598C379.163 265.403 384.37 261.557 387.436 259.05C390.502 256.543 394.779 253.42 396.94 252.109C399.101 250.797 402.669 248.307 404.869 246.574C407.069 244.842 411.461 241.967 414.63 240.186C417.799 238.406 422.623 235.184 425.351 233.028C428.078 230.872 430.709 229.108 431.196 229.108C431.683 229.108 434.146 227.531 436.67 225.604C439.194 223.677 442.296 221.653 443.564 221.107C444.832 220.56 446.743 219.549 447.811 218.86C453.712 215.054 460.346 211.108 460.845 211.108C461.16 211.108 464.219 209.361 467.644 207.225C479.756 199.671 497.325 190.555 502.619 189.077C504.682 188.502 506.369 187.632 506.369 187.145C506.369 186.658 511.206 184.389 517.119 182.103C523.032 179.816 529.699 177.082 531.935 176.027C534.171 174.971 536.475 174.108 537.056 174.108C538.054 174.108 547.767 170.195 557.146 166.014C559.498 164.966 561.847 164.108 562.366 164.108C562.885 164.108 565.686 163.043 568.589 161.741C571.493 160.439 576.119 158.597 578.869 157.647C581.619 156.697 585.063 155.287 586.523 154.514C587.983 153.741 590.369 153.108 591.825 153.108C593.281 153.108 596.137 152.262 598.171 151.229C606.879 146.803 624.999 139.682 630.369 138.574C632.294 138.177 634.757 137.235 635.842 136.48C636.926 135.726 638.501 135.105 639.342 135.102C640.182 135.098 642.158 134.423 643.733 133.602C645.309 132.78 647.005 132.108 647.503 132.108C648.001 132.108 652.18 130.299 656.79 128.089C665.924 123.709 665.251 124.356 684.369 101.574C691.244 93.3807 698.806 84.6367 701.173 82.1427C703.541 79.6487 706.466 76.2747 707.673 74.6457C708.881 73.0167 711.444 70.0917 713.37 68.1457C715.295 66.1997 718.659 62.3577 720.846 59.6077C727.657 51.0397 742.934 34.5177 749.546 28.5687C753.024 25.4397 757.922 21.0187 760.432 18.7437C779.95 1.05167 789.765 -3.00733 800.65 2.10967ZM784.345 28.8577C778.851 32.7627 764.907 45.6297 755.899 55.1077C740.521 71.2877 737.408 74.7147 731.365 82.1077C728.892 85.1327 725.352 89.1827 723.498 91.1077C720.491 94.2307 712.141 104.192 701.048 117.889C698.946 120.485 694.651 125.308 691.504 128.608C688.356 131.908 684.488 136.408 682.908 138.608C678.888 144.203 675.517 146.886 670.869 148.19C668.669 148.807 664.137 150.587 660.797 152.146C657.457 153.705 653.437 155.304 651.864 155.699C650.29 156.094 647.847 157.02 646.436 157.756C645.024 158.493 643.289 159.098 642.579 159.102C641.87 159.105 639.395 160.079 637.079 161.266C634.764 162.453 630.394 164.235 627.369 165.226C619.489 167.807 609.039 171.572 607.869 172.251C607.319 172.57 605.551 173.147 603.941 173.533C602.331 173.92 598.187 175.557 594.733 177.172C591.279 178.787 587.865 180.108 587.147 180.108C585.554 180.108 577.475 183.075 571.369 185.903C568.894 187.049 562.594 189.637 557.369 191.653C542.57 197.363 540.218 198.305 534.84 200.668C532.075 201.884 527.633 203.618 524.97 204.522C518.791 206.62 504.486 213.439 498.369 217.203C495.772 218.801 493.01 220.108 492.23 220.108C491.449 220.108 487.093 222.583 482.548 225.608C478.003 228.633 474.082 231.108 473.835 231.108C473.12 231.108 450.329 244.689 445.369 248.071C442.894 249.759 438.619 252.683 435.869 254.569C433.119 256.456 427.944 259.816 424.369 262.036C420.794 264.256 415.532 267.768 412.675 269.84C409.818 271.913 403.997 276.083 399.738 279.108C395.48 282.133 389.267 286.873 385.932 289.642C374.524 299.115 360.871 309.679 352.369 315.612C347.694 318.874 341.169 323.817 337.869 326.596C328.645 334.363 315.607 344.108 314.439 344.108C313.862 344.108 309.853 347.595 305.53 351.858C301.207 356.12 294.835 362.083 291.371 365.108C287.907 368.133 284.352 371.441 283.471 372.46C281.652 374.563 273.593 382.378 268.369 387.104C266.444 388.845 262.844 391.572 260.369 393.163C250.624 399.427 242.525 405.712 241.527 407.785C240.95 408.982 237.529 412.325 233.924 415.214C230.319 418.103 227.369 420.742 227.369 421.079C227.369 421.415 224.106 425.183 220.119 429.451C216.131 433.72 211.294 439.061 209.369 441.32C207.444 443.58 204.744 446.528 203.369 447.872C201.994 449.216 198.731 452.404 196.119 454.957C193.506 457.51 191.369 460.074 191.369 460.654C191.369 461.235 189.457 463.546 187.119 465.791C176.838 475.664 173.38 479.445 169.917 484.608C168.442 486.808 162.643 493.357 157.031 499.161C151.42 504.965 145.14 512.014 143.076 514.826C141.013 517.637 137.759 520.86 135.847 521.989C133.934 523.117 132.369 524.435 132.369 524.918C132.369 525.401 129.612 528.003 126.243 530.702C122.873 533.4 117.676 538.847 114.693 542.806C111.71 546.766 108.387 550.285 107.308 550.627C106.23 550.97 104.665 552.568 103.832 554.179C102.999 555.79 101.887 557.108 101.36 557.108C100.383 557.108 93.966 562.707 90.046 566.981C88.848 568.286 84.249 573.011 79.824 577.481C70.772 586.625 58.52 600.827 53.583 607.9C45.23 619.865 29.369 655.832 29.369 662.807C29.369 664.484 28.683 667.801 27.844 670.178C27.006 672.554 25.888 680.823 25.36 688.553C24.832 696.283 23.943 704.18 23.385 706.101C21.937 711.081 22.129 723.741 23.75 730.148C24.51 733.151 25.422 737.25 25.777 739.258C26.132 741.265 27.085 743.457 27.895 744.13C28.706 744.803 29.369 745.995 29.369 746.78C29.369 748.851 39.672 763.662 43.021 766.404C46.031 768.87 58.155 772.474 67.369 773.641C70.394 774.025 73.736 774.795 74.796 775.353C81.441 778.852 128.9 784.018 137.487 782.176C140.226 781.589 146.833 781.072 152.168 781.029C162.759 780.943 174.261 779.261 176.469 777.477C180.932 773.87 192.353 769.442 198.869 768.793C205.138 768.168 216.568 765.06 219.869 763.082C221.519 762.094 225.569 760.543 228.869 759.637C238.747 756.923 246.493 753.888 251.999 750.572C254.86 748.849 260.501 746.455 264.535 745.251C276.198 741.772 281.79 739.872 282.911 739.01C283.484 738.569 290.733 735.965 299.021 733.223C307.308 730.481 315.687 727.153 317.64 725.828C319.594 724.502 323.369 722.838 326.031 722.129C328.692 721.421 333.967 719.326 337.753 717.475C341.54 715.623 345.189 714.108 345.862 714.108C346.536 714.108 349.738 712.764 352.978 711.121C356.218 709.478 359.544 708.11 360.369 708.081C361.194 708.052 364.344 706.697 367.369 705.069C370.394 703.44 373.369 702.108 373.979 702.108C374.59 702.108 376.615 701.073 378.479 699.808C387.039 694 395.137 693.914 406.506 699.513C413.731 703.07 419.284 704.464 444.869 709.141C450.919 710.247 457.324 711.806 459.101 712.605C460.879 713.405 462.939 713.826 463.679 713.543C464.419 713.259 466.268 713.499 467.789 714.078C469.31 714.656 474 715.834 478.211 716.696C482.423 717.557 487.894 718.86 490.369 719.591C492.844 720.321 498.469 721.89 502.869 723.076C507.269 724.263 512.444 725.865 514.369 726.638C516.294 727.41 521.919 728.97 526.869 730.105C531.819 731.24 539.919 733.479 544.869 735.08C561.416 740.433 570.673 743.108 572.78 743.143C573.929 743.163 575.994 743.822 577.369 744.608C578.744 745.394 580.854 746.053 582.057 746.073C583.261 746.092 587.761 747.186 592.057 748.503C602.42 751.681 612.818 753.982 622.742 755.293C627.212 755.884 633.442 757.203 636.587 758.225C639.732 759.247 644.907 760.359 648.087 760.697C651.267 761.035 656.796 762.152 660.374 763.179C663.952 764.206 669.802 765.505 673.374 766.066C676.946 766.626 683.919 767.981 688.869 769.077C693.819 770.173 702.144 771.792 707.369 772.675C712.594 773.559 720.244 775.093 724.369 776.085C728.494 777.078 734.569 778.437 737.869 779.107C741.169 779.777 745.894 780.914 748.369 781.634C762.679 785.797 771.791 788.307 779.062 790.086C783.568 791.19 789.418 792.941 792.062 793.978C794.706 795.015 798.894 796.195 801.369 796.599C803.844 797.004 806.994 797.904 808.369 798.599C815.099 802.002 842.459 810.118 847.184 810.111C848.457 810.109 851.607 810.984 854.184 812.055C860.909 814.849 871.768 817.791 879.869 819.015C883.719 819.596 890.019 821.013 893.869 822.164C897.719 823.314 902.972 824.863 905.542 825.605C908.112 826.347 911.053 827.404 912.078 827.952C913.103 828.501 917.749 829.672 922.402 830.555C927.055 831.437 935.814 833.516 941.866 835.173C961.486 840.546 963.715 841.087 974.869 843.184C980.919 844.321 988.569 846.065 991.869 847.058C995.169 848.052 1001.17 849.642 1005.21 850.591C1009.24 851.539 1013.74 852.941 1015.21 853.706C1016.67 854.47 1018.79 855.098 1019.9 855.102C1021.02 855.105 1024.5 856.008 1027.63 857.108C1030.76 858.208 1034.4 859.108 1035.72 859.108C1037.04 859.108 1038.68 859.783 1039.37 860.608C1040.05 861.433 1041.32 862.108 1042.18 862.108C1043.05 862.108 1047.83 863.413 1052.81 865.008C1057.79 866.603 1067.04 868.91 1073.37 870.135C1097.66 874.84 1104 876.205 1107.87 877.564C1110.07 878.336 1114.34 879.217 1117.37 879.521C1123.83 880.169 1164.79 888.103 1178.09 891.284C1190.42 894.231 1189.56 897.296 1187.36 858.108C1186.79 847.933 1185.91 829.933 1185.4 818.108C1184.89 806.283 1183.91 784.233 1183.2 769.108C1181.65 735.805 1181.69 711.187 1183.3 701.108C1184.8 691.703 1190.87 671.647 1193.25 668.202C1194.24 666.775 1196.55 662.458 1198.38 658.608C1200.22 654.758 1203.66 649.055 1206.04 645.934C1208.42 642.813 1210.37 639.949 1210.37 639.568C1210.37 627.695 1257.67 588.539 1278.66 583.037C1290.96 579.815 1295.16 579.046 1305.37 578.144C1326.24 576.302 1354.96 578.443 1364.87 582.581C1374.41 586.564 1389.88 594.662 1392.47 597.031C1394.02 598.448 1397.1 601.183 1399.33 603.108C1409.08 611.555 1428.37 631.397 1428.37 632.979C1428.37 633.572 1429.71 634.751 1431.35 635.599C1432.99 636.448 1434.98 638.372 1435.78 639.875C1436.57 641.378 1439.39 644.88 1442.05 647.656C1444.7 650.433 1448.63 654.874 1450.78 657.525C1452.94 660.177 1455.64 663.329 1456.78 664.531C1460.87 668.816 1463.49 672.283 1464.63 674.926C1465.27 676.401 1467.86 680.083 1470.4 683.108C1472.93 686.133 1476.04 690.633 1477.3 693.108C1478.56 695.583 1480.78 699.183 1482.23 701.108C1483.68 703.033 1485.71 706.183 1486.74 708.108C1490.68 715.496 1494.82 722.108 1495.51 722.108C1499.34 722.108 1501.48 740.391 1498.15 744.723C1492.46 752.139 1483.23 749.864 1478.05 739.765C1471.5 727.013 1467.26 720.027 1452.79 698.201C1445 686.44 1443.25 684.134 1437.32 677.785C1433.82 674.032 1430.29 669.982 1429.48 668.785C1428.68 667.588 1426.41 665.045 1424.44 663.135C1422.48 661.225 1420.19 658.693 1419.37 657.508C1416.13 652.864 1397.74 633.389 1390.89 627.351C1377.91 615.91 1368.47 609.113 1365.55 609.102C1364.63 609.098 1362.52 608.384 1360.87 607.515C1359.22 606.646 1355.84 605.576 1353.37 605.137C1350.89 604.699 1344.59 603.563 1339.37 602.613C1325.83 600.15 1293.82 602.726 1283.87 607.078C1282.77 607.559 1279.63 608.764 1276.89 609.756C1274.14 610.747 1269.19 613.606 1265.89 616.109C1262.58 618.612 1258.52 621.512 1256.87 622.553C1249.95 626.924 1237.46 638.563 1237.4 640.703C1237.38 641.305 1236.47 642.613 1235.37 643.608C1234.27 644.603 1233.37 645.834 1233.37 646.342C1233.37 646.85 1230.48 651.466 1226.95 656.599C1214.69 674.431 1209.51 686.004 1206.79 701.608C1203.36 721.295 1203.28 722.457 1204.33 736.108C1204.9 743.533 1205.37 755.738 1205.37 763.229C1205.37 770.721 1206.01 783.096 1206.8 790.729C1207.59 798.363 1208.51 815.408 1208.85 828.608C1209.19 841.808 1209.91 855.533 1210.45 859.108C1210.99 862.683 1211.75 872.803 1212.15 881.596C1212.81 896.311 1213.02 897.614 1214.81 897.956C1215.87 898.16 1218.35 899.393 1220.32 900.696C1222.29 901.998 1225.47 903.364 1227.39 903.731C1229.3 904.097 1232.46 905.192 1234.41 906.164C1236.35 907.137 1241.93 908.878 1246.79 910.034C1251.66 911.19 1257.66 913.029 1260.13 914.122C1262.6 915.214 1265.39 916.108 1266.33 916.108C1267.27 916.108 1274.3 918.154 1281.95 920.654C1290.33 923.39 1298.66 925.431 1302.87 925.781C1307.01 926.124 1311.14 927.126 1312.99 928.235C1314.7 929.265 1316.95 930.116 1317.99 930.127C1319.67 930.143 1344.49 936.213 1362.87 941.106C1366.72 942.131 1372.79 943.701 1376.37 944.596C1386.03 947.012 1390.22 948.156 1396.87 950.182C1400.17 951.188 1404.67 952.31 1406.87 952.675C1409.07 953.041 1413.57 954.359 1416.87 955.605C1420.17 956.851 1425.12 958.404 1427.87 959.056C1433.54 960.399 1445.66 963.351 1452.37 965.021C1454.84 965.638 1460.92 966.822 1465.87 967.652C1476.43 969.425 1484.61 971.098 1500.37 974.714C1506.69 976.165 1515.24 977.934 1519.37 978.644C1531.09 980.664 1565.85 990.199 1571.87 993.046C1572.97 993.566 1575.89 994.435 1578.37 994.976C1585.56 996.55 1594.51 999.142 1599.37 1001.06C1601.84 1002.04 1605.89 1003.37 1608.37 1004.01C1622.71 1007.77 1628.04 1009.28 1637.91 1012.39C1660.8 1019.6 1666.2 1021.05 1677.62 1023.1C1684.09 1024.25 1691.23 1025.85 1693.5 1026.65C1695.77 1027.45 1698.35 1028.1 1699.24 1028.09C1700.14 1028.09 1703.79 1028.96 1707.37 1030.03C1710.94 1031.1 1717.69 1032.85 1722.37 1033.92C1727.04 1034.99 1731.65 1036.19 1732.6 1036.59C1736.28 1038.12 1737.84 1011.86 1735.31 991.108C1734.81 986.983 1733.94 978.658 1733.38 972.608C1732.09 958.625 1730.78 948.707 1728.89 938.608C1727.55 931.452 1726.07 926.226 1719.27 904.538C1718.22 901.199 1717.37 897.538 1717.37 896.402C1717.37 895.266 1716.7 893.048 1715.88 891.472C1715.05 889.897 1714.38 887.326 1714.38 885.759C1714.37 884.192 1713.76 881.492 1713.02 879.759C1707.52 866.956 1703.37 855.782 1703.37 853.774C1703.37 852.787 1702.42 849.645 1701.27 846.793C1700.12 843.941 1698.57 840.033 1697.83 838.108C1690.71 819.515 1686.82 810.244 1685.32 808.324C1684.33 807.067 1682.11 802.567 1680.38 798.324C1675.52 786.416 1674.62 784.642 1672.42 782.65C1671.29 781.632 1670.37 780.255 1670.37 779.591C1670.37 777.878 1662.51 761.311 1661.35 760.6C1660.83 760.275 1658.52 756.768 1656.23 752.808C1653.94 748.848 1648.2 739.822 1643.47 732.75C1638.74 725.679 1631.71 715 1627.85 709.019C1623.99 703.039 1618.75 696 1616.21 693.377C1607.23 684.092 1606.96 676.645 1615 659.608C1615.78 657.958 1616.83 654.358 1617.34 651.608C1618.45 645.571 1625.09 625.859 1628.73 617.734C1630.18 614.503 1631.37 610.949 1631.37 609.836C1631.37 608.724 1632.21 605.292 1633.25 602.211C1634.28 599.129 1635.91 594.133 1636.87 591.108C1637.84 588.083 1639.16 584.708 1639.82 583.608C1641.72 580.431 1649.12 560.961 1649.9 557.108C1650.28 555.183 1651 553.11 1651.49 552.501C1651.98 551.893 1652.79 549.418 1653.3 547.001C1653.81 544.585 1654.91 539.908 1655.76 536.608C1656.61 533.308 1657.32 528.583 1657.35 526.108C1657.38 523.633 1658.04 518.886 1658.83 515.559C1659.61 512.233 1660.74 503.908 1661.33 497.059C1661.93 490.211 1663.28 477.408 1664.33 468.608C1668.99 429.716 1669 405.998 1664.39 384.608C1663.92 382.408 1663.26 373.633 1662.92 365.108C1661.69 333.593 1662.08 334.518 1651.42 337.952C1647.74 339.138 1643.81 340.108 1642.69 340.108C1640.24 340.108 1619.29 346.002 1617.87 347.09C1617.32 347.512 1615.52 348.105 1613.87 348.409C1603.78 350.266 1575.8 360.058 1571.87 363.112C1571.32 363.539 1567.04 365.472 1562.37 367.408C1553.71 370.993 1539.27 378.634 1533.89 382.479C1530.75 384.722 1530.54 384.86 1522.9 389.608C1520.25 391.258 1516.09 394.296 1513.66 396.358C1511.23 398.421 1508.79 400.108 1508.22 400.108C1507.66 400.108 1504.42 402.748 1501.03 405.974C1491.72 414.838 1488.77 415.805 1482.35 412.091C1480.44 410.981 1475.94 408.6 1472.37 406.799C1464.83 403 1456.09 397.993 1455.37 397.056C1455.09 396.699 1452.17 394.93 1448.87 393.124C1442.5 389.641 1430.66 381.38 1426.18 377.304C1424.7 375.957 1422.6 374.35 1421.51 373.732C1419.54 372.621 1374.67 342.812 1368.87 338.766C1361.27 333.46 1345.43 323.108 1344.91 323.108C1344.59 323.108 1342.43 321.896 1340.1 320.416C1337.77 318.935 1334.07 316.767 1331.87 315.598C1329.67 314.429 1326.52 312.718 1324.87 311.797C1323.22 310.875 1317.82 308.315 1312.87 306.108C1302.54 301.501 1302.26 301.355 1284.87 291.317C1277.72 287.19 1270.29 283.081 1268.37 282.186C1266.44 281.291 1262.88 279.275 1260.44 277.708C1255.61 274.596 1242.2 268.108 1240.6 268.108C1240.06 268.108 1237.02 266.547 1233.85 264.64C1230.69 262.733 1226.47 260.639 1224.48 259.988C1222.49 259.337 1219.93 258.197 1218.79 257.453C1217.65 256.71 1214.27 255.378 1211.29 254.493C1208.31 253.608 1204.74 252.145 1203.37 251.242C1199.78 248.886 1194.49 246.449 1189.87 245.03C1187.67 244.353 1182.04 241.969 1177.37 239.732C1172.69 237.494 1166.84 234.915 1164.37 234C1161.89 233.086 1156.04 230.876 1151.37 229.089C1146.69 227.303 1140.62 225.054 1137.87 224.091C1135.12 223.129 1130.23 221.164 1126.99 219.724C1123.76 218.285 1120.39 217.108 1119.49 217.108C1118.59 217.108 1115.74 215.983 1113.16 214.608C1110.57 213.233 1107.52 212.108 1106.38 212.108C1105.24 212.108 1101.96 210.907 1099.09 209.44C1096.22 207.972 1091.62 206.197 1088.87 205.494C1086.12 204.792 1080.72 203.066 1076.87 201.658C1073.02 200.251 1063.12 197.28 1054.87 195.058C1046.62 192.835 1036.72 190.161 1032.87 189.116C1029.02 188.07 1020.92 185.874 1014.87 184.236C1008.82 182.598 1000.72 180.7 996.869 180.018C993.019 179.337 986.64 177.728 982.694 176.444C978.747 175.159 971.322 173.672 966.194 173.138C961.065 172.604 952.369 171.044 946.869 169.672C932.799 166.16 921.689 164.661 908.369 164.477C902.044 164.39 895.936 164.271 894.796 164.213C891.068 164.024 882.369 154.92 882.369 151.207C882.369 147.487 881.451 145.543 876.841 139.503C875.012 137.108 873.194 134.127 872.8 132.878C872.406 131.63 869.217 126.23 865.715 120.88C862.212 115.53 858.792 109.905 858.115 108.38C857.437 106.855 856.054 104.708 855.041 103.608C854.028 102.508 852.501 100.258 851.647 98.6077C850.793 96.9577 848.868 94.0327 847.369 92.1077C845.87 90.1827 843.932 87.2577 843.063 85.6077C839.262 78.3917 811.217 43.1457 800.736 32.4127C792.48 23.9587 791.529 23.7527 784.345 28.8577ZM568.869 465.094C585.194 469.767 592.555 480.831 593.998 502.865C596.527 541.499 572.213 558.416 536.369 542.962C521.161 536.405 512.295 512.035 518.506 493.862C527.353 467.979 544.576 458.141 568.869 465.094ZM681.363 530.258C683.016 532.541 684.369 534.865 684.369 535.422C684.369 537.276 691.506 551.573 693.509 553.731C701.189 562.006 728.582 565.178 742.569 559.412C746.584 557.757 751.444 555.836 753.369 555.144C755.294 554.452 758.674 553.19 760.88 552.341C769.763 548.919 778.062 554.011 781.389 564.923C783.5 571.847 784.646 573.998 792.592 585.943C799.46 596.269 807.089 600.261 825.231 603.02C832.757 604.165 833.898 604.061 852.392 600.54C861.993 598.712 863.878 598.74 866.955 600.756C872.401 604.325 873.503 611.08 869.806 618.229C866.046 625.501 831.117 630.629 815.369 626.221C813.444 625.682 809.341 624.538 806.251 623.678C789.109 618.907 781.736 612.699 768.951 592.271C767.346 589.706 764.977 585.921 763.687 583.858C760.888 579.384 759.858 579.289 749.573 582.554C721.911 591.335 694.525 587.479 679.744 572.721C659.739 552.747 656.247 526.212 673.613 526.13C678.036 526.11 678.559 526.388 681.363 530.258ZM1110.79 633.979C1111.09 634.458 1112.61 635.106 1114.18 635.419C1117.6 636.104 1124.99 643.432 1125.88 647.031C1126.23 648.448 1127.32 650.508 1128.31 651.608C1138.37 662.85 1133.43 696.032 1119.93 707.808C1111.32 715.321 1096.77 718.392 1087.71 714.608C1085.74 713.783 1083.28 713.108 1082.24 713.108C1079.02 713.108 1070.29 707.787 1067.28 703.991C1055.65 689.321 1059.3 660.255 1074.51 646.466C1084.77 637.16 1107.85 629.218 1110.79 633.979ZM1291.77 647.065C1307.3 653.72 1312.33 667.374 1305.3 683.771C1298.2 700.341 1278.13 705.741 1271.27 692.927C1267.65 686.162 1269.09 663.02 1273.47 657.432C1283.59 644.547 1284.58 643.984 1291.77 647.065ZM1379.28 673.677C1396.85 678.609 1398.33 679.319 1402.11 684.573C1407.4 691.941 1406.35 702.391 1399.73 708.255C1392.4 714.746 1360.65 717.542 1354.96 712.198C1353.74 711.048 1352.28 710.108 1351.71 710.108C1344.9 710.108 1345.53 684.583 1352.51 677.697C1357.3 672.976 1356.56 673.197 1370.78 672.293C1372.38 672.191 1376.21 672.814 1379.28 673.677ZM1263.08 721.05C1270.79 724.697 1270.83 724.827 1270.03 744.482C1269.16 765.782 1267.93 768.319 1257.54 770.275C1237.09 774.123 1228.15 757.218 1237.61 732.608C1243.12 718.291 1250.33 715.018 1263.08 721.05ZM1320.65 729.458C1323.28 730.151 1326.34 731.492 1327.44 732.437C1328.54 733.382 1331.12 734.824 1333.16 735.642C1336.26 736.881 1337.42 738.253 1340.11 743.868C1341.89 747.575 1343.79 751.283 1344.33 752.108C1352 763.878 1354.99 786.927 1349.87 794.745C1349.04 796.006 1348.37 797.754 1348.37 798.629C1348.37 801.306 1339.17 812.735 1335.92 814.102C1328.06 817.404 1325.31 818.08 1317.43 818.648C1306.77 819.416 1301.01 817.976 1296.62 813.456C1294.83 811.615 1292.99 810.108 1292.52 810.108C1285.64 810.108 1284.28 767.828 1290.58 749.969C1293.28 742.339 1303.87 731.152 1310.02 729.435C1315.14 728.006 1315.15 728.006 1320.65 729.458Z"
  />
</svg>
